<?xml version="1.0" encoding="utf-8"?>
<!-- Generator: Adobe Illustrator 23.0.1, SVG Export Plug-In . SVG Version: 6.00 Build 0)  -->
<svg version="1.1" id="Layer_1" xmlns="http://www.w3.org/2000/svg" xmlns:xlink="http://www.w3.org/1999/xlink" x="0px" y="0px"
	 viewBox="0 0 435.4 186.5" style="enable-background:new 0 0 435.4 186.5;" xml:space="preserve">
<style type="text/css">
	.st0{fill:#FFFFFF;}
</style>
<title>Asset 26</title>
<g>
	<path class="st0" d="M272.7,92.3c-1.4-1.1-2.1-3-3-3.7s-3.5-3.5-5.8-4s-4.4-1.5-6.5-1.5c-2.1,0-6.2,0.1-8,0
		c-2.6-0.1-5.2,0.1-7.7,0.6c-1.2,0.3-2.5,0.1-3.6-0.6c-0.3-0.2-0.2-7.1-0.4-7.8c-0.2-0.7-0.8-1.8-0.3-2.6c0.6-0.8,3.7-7.9,4.7-7.9
		c1,0,6-0.1,11.6,0c5.6,0.1,19.2-0.1,26.1-1.9c7-1.8,8.1-2.5,8.6-5.7c0.5-3.3-0.1-11.1-1.8-13.2c-1.3-1.5-2.4-3-3.5-4.7
		c-0.4-0.8-3.8-4.3-5.8-5.1c-2-0.7-5.6-3.8-7.9-4.3c-4.3-0.7-8.7-0.9-13-0.7c-2.9,0.3-9.7,2.9-12.4,3.1c-2.6,0.2-5.4-0.6-8.9-0.7
		c-3.5-0.1-15.5-0.9-17.7-0.1c-2.2,0.8-11.6,5.6-11.9,9.4c-0.3,3.8,0,11.6-0.3,12.9c-0.4,2.3-0.6,4.7-0.6,7.1
		c0.1,1,0.1,8.9-0.3,10.7c-0.4,1.8-1.3,5.9-1.6,7.5c-0.3,1.6-1.6,7.9-1.3,9.3c0.3,1.4,1.3,4,1.4,5.8c0.1,1.8,0.3,13,0.2,14.2
		c-0.1,1.1-0.7,13.7-0.9,16.5c0,0-1,15.5-0.6,18.3s0.1,9.8,0.6,10.8c0.5,1,0.1,3.8,0,6.3c-0.1,2.5-0.2,5.6-0.2,6.9
		c0,1.3-0.1,4.2,2,5.1c2.1,0.9,4.1,2.1,4.2,3.7c0.3,2.6,2.5,4.5,5.1,4.4c3.4-0.1,8.9,2,11.1,2c2.2,0,8.1-1,9.7-2.6
		c1.6-1.6,4.9-5,4.9-7.5c0-2.5,0.3-11.8-0.6-15c-1-3.2-0.1-13.6-0.6-15.8c-0.5-2.2-0.5-24.1,0.2-25.1c0.7-1,6-4,6-4
		s6.8-1.1,10.9-0.6c4.1,0.4,13,0,14.6-0.5c3.3-1,5.5-4.1,5.5-7.6C274.9,98,274,93.5,272.7,92.3z M266,97.9c-0.2,1.5-1.2,2.8-2.7,3.2
		c-4.4,0.5-8.7,0.6-13.1,0.5c-3.6-0.2-7.3-0.1-10.9,0.3c-1.6,0.2-9.7,5.7-10.3,6.5c-0.5,0.9-1.2,24.4-0.2,26.6
		c1,2.2,0.7,10.3,0.5,12.6c-0.2,2.3,1.1,8.3,1.7,11.8c0.6,3.6-0.8,8.8-2.7,10.6c-1.9,1.8-6.8,2.5-9.9,1.7c-3.1-0.8-7.4-1.3-9-2.4
		c-1.6-1.2,0-10.7,0.1-12.5c0.1-1.8-1-5.8-1.2-9.9c-0.2-4.1,1.2-24.6,1.6-28.8c0.4-4.2,0.4-20.6,0.3-22.7c-0.1-2.1-1.1-6.1-1.1-8.3
		c0.5-5.1,1.3-10.2,2.4-15.2c0.7-2.1,0.3-10.5,0.1-12.1c-0.1-5.3,0.1-10.7,0.8-16c0.5-2.4,9.7-6.8,9.7-6.8c1-0.5,3.3,0.1,5.5,0.1
		c2.2,0,11.3,0.7,13.9,0.9c2.5,0.2,9.6-0.7,13.6-1.9c4-1.2,11.6-0.8,13.2-0.6c1.6,0.2,4.6,3.6,6.1,4c1.5,0.4,3.5,0.5,5,2.3
		c1.5,1.8,0.5,9.5,0,10.2c-0.5,0.7-10.8,2-14.5,2.9c-3.7,0.8-14.3,1.1-20.8,0.2c-6.5-0.8-8.1,0.3-8.8,0.4c-0.6,0.1-6,9.8-6.5,10.7
		s0.1,2.6,0.2,4.7c0.1,2-0.3,14.9-0.4,16.4c-0.1,0.8,0.2,1.6,0.7,2.2c0,0,3.3-0.5,4.8-0.6c2.3,0.2,4.5,0.8,6.4,1.9
		c1.6,1,4.6-0.8,6.1-1.4c1.5-0.6,5.9-0.2,7,0.1s3.3-0.5,5.2-0.7c2.1,0,4.2,0.7,5.9,2C266.3,91.7,266.2,96,266,97.9z"/>
	<path class="st0" d="M105.2,145.9c-0.1-1.2,0.3-12.2,0-16.4c-0.3-4.2-1.8-16.2-2.1-18.3c-0.5-2.7-1.4-5.3-2.6-7.7
		c-1-1.7-2.1-15.1-2.4-17.6c-0.3-2.5-1-6.8-1.3-8.5s0.1-12,0.6-19.8c0.3-6.1-1-12.1-3.8-17.5c-1.4-2.4-1.6-7.1-1.5-9.5
		c0.1-2.4-0.3-5.2-1.3-6c-1-0.8-1.5-3.5-2.5-5.7s-4.4-5.6-5.5-6.4c-1-0.8-5.5-5.5-7.2-6.9s-9.1-4.9-17-5.5S43.1,0.6,41,1.8
		C38.9,2.9,36.7,3,33.7,3c-2.9,0.2-5.6,0.9-8.2,2.1c-1.1,0.6-12.3,8-13.4,8.8C10.9,14.6,7.2,25.3,7,27.5c-0.2,2.2-2,12-2.5,14.6
		c-0.5,2.6-0.2,11.1-0.3,14.3c-0.1,3.2-1.8,12.5-2.5,16C0.9,76,1.9,84.7,2,86.4c0.1,1.8-0.5,19.7-1,21.6c-0.5,1.9,1,9,1,10.3
		s-1.3,10-1.9,11.5s1.7,4.4,2,6c0.3,1.6,0,13.5-1.1,15c-1,1.8-1.2,3.9-0.7,5.9c0.5,2.1,0.7,4.3,0.7,6.6c0,2.4,2,4.2,3.3,5.3
		c1.6,1.3,2.9,2.8,4,4.4c0.5,1.2,4.7,3.2,5.9,4c1.8,1.1,3.9,1.6,6,1.6c1.9,0,3.7-0.3,5.5-1c1.7-0.5,2.9-1.8,3.3-1.9
		c0.4-0.1,9.3-6,9.8-7.2s0.7-6.3,0.2-7.3s-0.2-6.3,0-7c0.2-0.7,1.1-5.4,1.6-7.8s0.4-8,0.1-10.2c-0.3-2.2,0.6-5.9,1.1-7.6
		s0-11.5-0.4-13.2c-0.4-1.7,0.7-3.5,0.7-4.4v-8c0-0.7,4.3-9.9,4.3-9.9c1.1-0.5,4.2-0.4,6.2-1c2.2-0.4,4.4-0.5,6.7-0.2
		c1.9,0.2,3,0.8,2.5,3c-0.3,2.1-0.1,4.3,0.7,6.3c0.7,2.2,1.6,5,1,7.5c-0.5,2.4-0.4,4.8,0.2,7.2c0.5,2.6,0.7,5.3,0.7,7.9
		c0.2,3.1,1.1,6.1,2.5,8.9c0.6,1.1,0.8,3.2,0.5,5.7c-0.3,2.5-0.5,5.5,0,6.6c0.5,1.2,0.6,7.1,0.7,8.5s3.4,7.8,4.2,9.4
		c1.3,2.1,2.7,4.1,4.3,5.9c1.5,1.4,2.9,2.9,4.2,4.4c1.7,2,4.4,2.1,6,2.8s5.3-0.1,5.9-0.5c0.6-0.4,12-3.6,13.6-5.6
		c1.6-2,1-7.8,0.8-11.1C107.1,155.3,105.3,147.1,105.2,145.9z M97.8,161.4c-0.6,1.3-6.8,2.9-8.9,3.8c-2.2,0.9-3,1.9-4.8,1.3
		c-1.9-0.6-3.9-0.3-4.8-2.2c-0.8-1.9-4.9-8.6-5.1-10.6c-0.3-2-1.8-9.7-1.2-12.7s0.9-7.1-0.2-8.8s-2.3-3.7-2.5-8.5
		c-0.2-4.8-0.3-8.1-0.7-8.9c-0.8-1.2-1-2.8-0.5-4.2c0.7-2,0.7-6,0.2-7.3c-0.9-2.2-1.4-4.5-1.4-6.9c0.2-2.4,0.5-4.1-0.5-5.3
		c-1-1.3-4.3-8-6.8-8.6c-2.5-0.6-9.6-1.1-11.9-0.2c-2.3,0.9-3.7,2.5-5.2,1.6c-1.5-0.9-2.7-1.8-3.9-0.8c-1.2,1-4.7,5.5-5.1,7.1
		c-0.4,1.6-0.8,3.5-1.5,4.5s-0.7,4-0.7,4.3c0,0.4-0.7,9-0.5,10.4c0.4,2.7,0.6,5.3,0.7,8c0,2.1-1.6,9.5-1.4,11.7
		c0.2,2.2,0.8,8.4,0.3,11c-0.5,2.6-2.1,11-2.2,12.6s0.9,4.1,1.1,5.2c0.4,0.9,0.4,1.9,0.1,2.9c0,0-4.8,4.3-5.8,4.9
		c-1,0.5-3.7,0-4.8,1.1c-1.2,1.4-2.9,2.1-4.7,2c-2.1-0.5-4-1.4-5.7-2.6c-0.8-0.6-2.5-1.8-2.6-3.3c-0.1-1.5-0.5-4.5-0.7-6.1
		c-0.2-1.6,1-2.6,1.1-3.5c0.2-0.9-0.8-3.3-0.3-4.5c0.5-1.2,0.8-7.2,1-8.3c0.1-1.7-0.1-3.5-0.4-5.2c-0.2-0.7-1.6-2.3-1.1-4.3
		c0.4-1.5,0.7-3.1,0.9-4.6c0.2-1-0.5-4.2,0.4-5.8c0.7-1.4,0.9-2.9,0.6-4.4c-0.3-0.9-1.4-3.2-1.1-4.8c0.4-2,0.6-4,0.7-6
		c0-1.2-0.5-4.6-0.3-5.5c0.3-2.2,0.6-4.5,0.6-6.7c0.1-2,0.5-4.6,0.3-5.6c-0.2-1-1.1-7.4-1.1-8.9s2.2-12.7,2.5-15
		c0.3-2.4,0.2-14.4,0.2-15c0-0.6,1.4-11.2,1.9-13.3c0.5-2.1,1.1-8.6,2.3-11c1.3-2.4,2.1-5,5.1-7.3c3.1-2.3,9.7-7.5,12.8-7.7
		c3.2-0.2,8.4-0.4,10.9-1.3c2.5-0.9,7.9-2.6,16.7-1.3c8.9,1.3,17,4.6,18.9,8.6c2,4,1.1,4.6,2.6,6.2s0.9,4,0.8,5.6s0.3,7.3,2.4,11.1
		s3,10.8,2.8,18.1s-1,15.7-0.6,17.8c0.7,3.1,1.3,6.3,1.7,9.5c0.3,3.6,1.7,14.2,2.8,17.4c1.2,3.3,2.2,6.6,2.9,10.1
		c1,6.4,1.6,12.8,1.7,19.2c0,8.1,0.1,15.5,0.5,17.2c0.5,1.7,0.7,6.8,0.9,7.9C97.4,156.4,98.4,160.1,97.8,161.4z"/>
	<path class="st0" d="M191.7,63.3c-1.8-0.8-3.5-3.8-4.4-4.7c-1.3-1.2-2.9-2-4.6-2.3c-1.5-0.1-2.9-0.7-4.5-0.6s-3.7,1.9-5.4,2.1
		c-1.8,0.2-6.8-0.2-9,0.9c-2.2,1-4.7,3.6-6.8,3.6s-3.1-1.2-2.5-3c0.6-1.8-0.4-4.7-0.8-6.3c-0.4-1.6-1.8-4.8,0.1-5.8
		c5.5-2.3,11.1-4,16.9-5.3c5.3-1,7.6,0.3,11.5-0.6s10.5-1.9,12.7-2.1c2.2-0.2,9.1-0.4,10.9-5.2s1.8-13.9-0.4-16.8s-5.3-4.9-5.9-6.1
		s-6.1-6.4-7.7-6.5C190,4.6,182,5.3,178,5.5c-4.9,0.2-9.7,0.1-14.6-0.2c-2.8-0.3-6.9-0.5-9.6,0.5c-2.7,1-9.4,4.3-13.5,4.8
		c-4.1,0.5-5.9,0.1-7.5,0.7c-1.6,0.6-11.9,7.9-13.4,13.8c-1.5,6-3.1,10.7-3,15.5s0.4,13.3,0.6,14.6c0.2,1.3,0.8,4.6,0.2,5.9
		c-0.6,1.3-1.6,3.5-1.5,8.2c0.2,4.6,0.2,12,0,15.6c-0.2,4.4,0,8.8,0.5,13.2c0.3,2.3,0.3,5.4,0.7,16.2c0,0,0.5,15.3,0.6,17.5
		c0.1,2.2-0.9,11.7-0.6,14c0.2,2.3,1.4,9.4,1.4,11.2c0,2.4,0.3,4.8,0.8,7.2c0.4,1.2,7.8,9.4,9.9,11.7c2.1,2.3,2.9,3.7,5.5,3.8
		c2.5,0.1,11.4,0.6,12.7,0s1.8-3.2,3.2-4c3.2-2.6,5.4-6,6.6-9.9c1.3-5,1.5-13.3,0.7-16.5c-0.5-3.1-0.8-6.3-0.7-9.4
		c0-1.5,0.3-18.7-0.3-22.6c-0.6-5.7-1-11.4-1-17.1c0.2-1.5,0.2-3,0.1-4.4c-0.2-1.1-1-2.8,1-3.1s4.6-0.9,5.3-1.5
		c0.7-0.6,4.8-2.4,11.8-3c6.9-0.6,13-1.7,16.8-4.4c3.8-2.7,4.2-4.6,4.6-7.9s0.7-4.7,0.5-6.2C195.6,68.3,193.6,64.2,191.7,63.3z
		 M185.8,70.4c-0.1,1.8-2,4.2-3.9,5.5c-1.9,1.3-9.2,3-15.6,3.3c-4.2,0.1-8.3,1.3-11.9,3.5c-1.1,0.8-3-0.6-3.9-0.8
		c-1-0.2-4.5,5.6-5.2,6.8c0,0-0.1,0.1-0.1,0.1c-0.5,0.9-0.1,2.1,0.8,2.5c0.8,0.5,1.1,1.7,0.4,3.5c-0.7,1.8-0.3,4.4-0.1,6.5
		c0.1,2.1,0.9,13.2,1.4,14.8s-0.4,16.4-0.5,18.3c-0.1,1.9-0.6,5.2,0.1,7.5s0.6,7.8,1.1,10.3c0.5,2.5-0.3,6.3-1.3,9.5
		c-1,3.2-5.6,6.2-5.6,6.2c-0.3,0.8-0.8,1.5-1.5,2c-1.3,1.2-7.2-0.3-9-0.3c-1.8,0-3.8-3.3-4.6-4.3c-0.9-1-2.1-3.7-2-5
		c-0.2-3.4-0.6-6.8-1.2-10.2c-0.3-3.5-0.3-7.1,0-10.6c0.2-1.8,0.1-10.6,0-12.5c-0.1-1.8-0.6-10.2-0.1-14.7c0.2-4.2,0.2-8.3-0.2-12.5
		c-0.1-2.7-1.4-13.9-0.8-17.5s0.1-8.5,0-11.7c0-2.2,0.6-4.4,1.7-6.3c0.3-3,0.2-6-0.1-9c-0.6-4.6-0.9-9.2-1-13.8
		c-0.1-4.7,2-11.3,3.4-15.1s8.7-9.1,9.4-9.6c0.8-0.6,4.6-0.6,6.6-0.7s10.4-3.2,14.1-4.5c3.7-1.3,8.1-0.7,9.7-0.4
		c1.5,0.2,10.8,0.3,13,0.2s11-0.9,12.6-0.8s4.3,2.5,5.6,4.7c1.3,2.2,0.6,8.4,0,11.4c-0.6,3-7.6,2.9-10.6,3.7s-8.6,1-14,1
		c-5.4,0-5.6,0.5-16.2,3s-11.5,4.6-12.6,7.2c-1.1,2.6,0.1,8.2,0.9,10.8c0.8,2.6,0,9.9-0.2,10.8c-0.2,0.9,2.8,3.5,3.6,4.1
		c0.9,0.6,7.3,0.5,8.9,0.5c2,0,3.9-0.5,5.7-1.5c2.6-1.3,5.4-2.1,8.2-2.4c1.6,0,5.7-0.6,7.3-1.6s4.7-0.7,6.3,0.4
		C185.9,64.1,185.9,68.6,185.8,70.4z"/>
	<path class="st0" d="M343,117.7c-1.9-1.7-3.7-3.5-5.4-5.4c-0.4-0.6-4.7-4.1-6.8-4.2c-2-0.1-7.7-0.8-9.9,0c-2.2,0.8-6.1,0.5-6.3-0.7
		c-0.1-1.2-1-5.6,2.3-7.7c3.3-2.2,5.4-3.7,10.8-3.2s12.3,1.8,15.3,0.9c3.1-0.9,2.3-0.4,4-2.1c1.7-1.6,4-4.1,4.1-6s0.3-8.2-0.6-9.5
		c-0.9-1.3-2.4-4.1-4.4-5s-2.5-4-4.3-5.1s-7-2.1-9.2-2.2s-6.7-1.6-9.9-1.6c-3.2,0-5.9,0.5-8.1,0.4s-15.7-0.1-16.4-0.4
		c-2.1-0.5-4.4-0.5-6.5,0c-2.7,0.7-5.2,5.8-6.2,6.7c-1,0.9-1.3,5.3-1.3,5.8c0,0.4-1.4,9.9-1.5,11.9c-0.2,2-0.3,8-1.1,10.1
		c-0.8,2.1-1.3,4.2-1.4,8.5s-0.4,14-1,15.5c-0.6,1.5-2.3,5.4-2.3,7.4c0,0-0.1,11.2,0,14.2c0.1,2.9,0.1,8.4-0.5,9.8
		c-0.7,1.6-1.2,3.4-1.4,5.2c0.1,1.1,0,2.3-0.5,3.3c-0.7,1-0.9,2.2-0.6,3.4c1.1,1.7,2.4,3.4,3.9,4.8c1.1,1.1,6.2,6.5,9.2,8.2
		s7,5,9,5.4s5.6,1.1,8.5-1.3c3-2.4,6.8-6.7,7-8.8c0.2-2-0.7-7.2-0.6-9.4c0.1-2.3,1.2-11.2,1.6-13.4c0.6-3.3,1-6.7,1.3-10
		c0-1.6,0.7-4.8,2.1-5.2c1.4-0.4,7.9-0.8,9.2-1.8c1.3-1,6.7-0.8,9.4-1.4s8.5-1.1,9.4-5.1C344.9,125.6,345.3,119.8,343,117.7z
		 M334.9,122.5c-0.2,1.3-0.6,1.3-0.6,1.3c-1.9,0.2-3.7,0.5-5.5,1c-1.5,0.6-3.1,0.5-6,0.5c-1.7-0.1-3.3,0.2-4.8,1
		c-1.4,0.6-7.3,1.1-10.8,2.4c-3.5,1.3-1.5,4.3-2.1,5.8c-0.6,1.5-1.7,10.8-2.3,13.7s-0.9,16.6-0.9,19.8c0,3.2-1.7,4.5-2.8,5.8
		s-2.5,1.7-3.7,2.3c-1.4,0.6-3,0.4-4.2-0.5c-1.4-0.9-10.9-7.5-11.2-8.7c-0.3-1.3,1.3-2.4,1.3-4.7c0-1.6,0.4-3.2,1.1-4.7
		c0.5-1.3,0.2-6.3,0.1-7.5c-0.1-2.1-0.1-4.1,0-6.2c0.2-1.5,0.4-7.3,0.4-9.5c0.3-2.9,1.1-5.7,2.3-8.4c0.9-2.1,1-9.5,1-10.6
		s0.1-10.2,0.5-11.3c0.4-1.1,2-8.5,2.3-9.9c0.2-1.4,0-4.3,0.4-5.8c0.4-1.6,0.9-10.4,0.9-10.4c0-0.6,0.1-1.3,0.4-1.8
		c0.9-1.5,2-2.8,3.3-4c1.3-1,6.7-0.4,8.1-0.4s9,0.3,10.9,0.5c2.9,0,5.9-0.1,8.8-0.5c1.3-0.2,7.1,1.1,9.2,1.4s7.3,0.8,9,2.2
		c1.7,1.4,1.8,5.3,1.6,7c-0.3,2.2-1.6,4.2-3.6,5.3c-2.2,1.1-7.3,0.4-12.2-0.3c-3.3-0.6-6.7-0.6-10-0.1c-3.1,0.4-9.8,6.4-10.3,6.9
		c-0.5,0.5-0.9,14.4-0.5,15.6c0.4,1.2,4.5,3.6,5.4,3.9c3.1,0.7,6.3,1.2,9.5,1.4c1.9-0.1,6.6-0.8,8.9-0.9c2-0.2,4,0.7,5.3,2.2
		C335.3,117.5,335,121.1,334.9,122.5z"/>
	<path class="st0" d="M434.5,171.8c-0.8-1.8-3.7-6.4-5.4-7.3s-1.8-0.4-2.2-1.6c-0.7-1.6-2-3-3.6-3.8c-1.4-0.6-3.2-1.3-4.6-1.2
		c-1.1,0.2-2.2,0.7-3.2,1.2c0,0-7,7-6.9,8c0.1,1,1.2,3.7,1.1,5.1c-0.1,1.4-0.3,3.7,1.3,5.1c1.6,1.4,4.2,3,4.4,4
		c0.2,1,3.9,3.4,5.6,4.2c1.8,0.8,6.3,1.2,7.5,0.7s4.5-2,5.4-4.3c0.8-2.3,1.3-3,1.3-5.1S435.4,173.6,434.5,171.8z M425.2,176.5
		c-1.8,1.5-4.2,2-6.4,1.2c-3.2-0.9-4.2-3.3-4.2-4.4c-0.1-1.2-0.6-2.5-0.8-3.7s4.4-5.3,4.4-5.3c1.5-0.7,3.2-0.7,4.7,0
		c1.2,0.6,1.6,2.5,3.2,4.1c1.6,1.5,0.8,2.5,1,3.9C427.4,173.6,426.3,175.5,425.2,176.5z"/>
	<path class="st0" d="M62.6,42.5c-1.1-1.5-1.4-2-1.4-3c0-1.1,0.3-2.4-1.4-3.4c-1.5-0.8-2.8-1.8-4.1-2.9c-0.7-0.7-6.7-1.1-8.6-0.6
		c-1.9,0.6-3.7,1.1-5.6,1.5c-1.3,0.2-3.3,1.1-3.7,2c0,0-2.5,6.9-3.3,8.5c-1.1,2.5-1.7,5.1-1.6,7.8c0.1,3.3,0.9,4,0.6,6
		c-0.3,2-0.9,4,0.6,4.5c1.8,0.5,3.5,1.3,5.1,2.3c1.4,1.1,5.5,1.9,8.8,1.7c3.3-0.2,3.7-1.6,6.6-1.8s8.8-1.4,9.1-2.6
		c0.4-1.2,0-4,0.6-5.6s0.3-5.3,0-7.2C64.1,47.7,63.7,44,62.6,42.5z M57.9,57.6c-1.1,1.1-2.7,1.5-4.1,1.1c-1.4-0.5-2.6-0.2-4.3,1
		c-1.6,1.2-2.8,1.1-5.2,0.8s-1.7-2.8-1.8-4.9c-0.2-2.2,0.7-3.6,1.7-5.6c0.8-1.8,1.5-3.6,2-5.5c0.2-0.7,2-0.5,3.6-0.8
		c1.6-0.3,3.8-1.2,5.7-1.2c1.9,0,2.1,2.5,2.1,3.5s1.3,4.9,1.6,6.5C59.6,54.1,58.6,56.6,57.9,57.6z"/>
	<path class="st0" d="M401.6,171.8c-0.8-1.8-3.7-6.4-5.3-7.3s-1.8-0.4-2.2-1.6c-0.8-1.6-2-3-3.6-3.8c-1.4-0.6-3.2-1.3-4.6-1.2
		c-1.1,0.2-2.2,0.7-3.2,1.2c0,0-7,7-6.9,8c0.1,1,1.2,3.7,1.1,5.1c-0.1,1.4-0.3,3.7,1.3,5.1c1.6,1.4,4.2,3,4.4,4
		c0.2,1,3.9,3.4,5.6,4.2c1.8,0.8,6.3,1.2,7.5,0.7s4.5-2,5.4-4.3c0.8-2.3,1.3-3,1.3-5.1C402.4,174.8,402.4,173.6,401.6,171.8z
		 M392.3,176.5c-1.8,1.5-4.2,2-6.4,1.2c-3.2-0.9-4.1-3.3-4.2-4.4s-0.6-2.5-0.8-3.7s4.4-5.3,4.4-5.3c1.5-0.7,3.2-0.7,4.6,0
		c1.2,0.6,1.6,2.5,3.2,4.1c1.6,1.5,0.9,2.5,1.1,3.9C394.4,173.6,393.4,175.5,392.3,176.5z"/>
	<path class="st0" d="M363.3,164.5c-1.7-0.8-1.8-0.4-2.2-1.6c-0.7-1.6-2-3-3.6-3.8c-1.4-0.6-3.2-1.3-4.6-1.2
		c-1.1,0.2-2.2,0.7-3.2,1.2c0,0-7,7-6.9,8s1.2,3.7,1.1,5.1c-0.1,1.4-0.3,3.7,1.3,5.1c1.6,1.4,4.2,3,4.4,4c0.2,1,3.9,3.4,5.6,4.2
		c1.8,0.8,6.3,1.2,7.5,0.7s4.5-2,5.4-4.3c0.8-2.3,1.3-3,1.3-5.1s0-3.4-0.8-5.1C367.8,170,365,165.4,363.3,164.5z M359.4,176.5
		c-1.8,1.5-4.2,2-6.4,1.2c-3.2-0.9-4.1-3.3-4.2-4.4s-0.6-2.5-0.8-3.7s4.4-5.3,4.4-5.3c1.5-0.7,3.2-0.7,4.7,0
		c1.2,0.6,1.6,2.5,3.2,4.1c1.6,1.5,0.9,2.5,1.1,3.9C361.5,173.6,360.4,175.5,359.4,176.5z"/>
</g>
</svg>
