<svg xmlns="http://www.w3.org/2000/svg" xmlns:xlink="http://www.w3.org/1999/xlink" viewBox="0 0 435.39 186.54"><defs><style>.cls-1{fill:url(#Gradiente_sem_nome_4);}.cls-2{fill:url(#Gradiente_sem_nome_14);}.cls-3{fill:url(#Gradiente_sem_nome_4-2);}.cls-4{fill:url(#Gradiente_sem_nome_14-2);}.cls-5{fill:url(#Gradiente_sem_nome_4-3);}.cls-6{fill:url(#Gradiente_sem_nome_14-3);}.cls-7{fill:url(#Gradiente_sem_nome_4-4);}.cls-8{fill:url(#Gradiente_sem_nome_14-4);}.cls-9{fill:url(#Gradiente_sem_nome_4-5);}.cls-10{fill:url(#Gradiente_sem_nome_14-5);}.cls-11{fill:url(#Gradiente_sem_nome_4-6);}.cls-12{fill:url(#Gradiente_sem_nome_14-6);}.cls-13{fill:url(#Gradiente_sem_nome_4-7);}.cls-14{fill:url(#Gradiente_sem_nome_14-7);}</style><linearGradient id="Gradiente_sem_nome_4" x1="53.79" x2="53.79" y2="178.65" gradientUnits="userSpaceOnUse"><stop offset="0" stop-color="#00614c"/><stop offset="1" stop-color="#00362c"/></linearGradient><linearGradient id="Gradiente_sem_nome_14" x1="52.01" y1="6.12" x2="52.01" y2="168.71" gradientUnits="userSpaceOnUse"><stop offset="0" stop-color="#5bb8b2"/><stop offset="1" stop-color="#00716b"/></linearGradient><linearGradient id="Gradiente_sem_nome_4-2" x1="161.37" y1="4.68" x2="161.37" y2="180.02" xlink:href="#Gradiente_sem_nome_4"/><linearGradient id="Gradiente_sem_nome_14-2" x1="159.63" y1="10.75" x2="159.63" y2="170.46" xlink:href="#Gradiente_sem_nome_14"/><linearGradient id="Gradiente_sem_nome_4-3" x1="244.95" y1="29.03" x2="244.95" y2="182.03" xlink:href="#Gradiente_sem_nome_4"/><linearGradient id="Gradiente_sem_nome_14-3" x1="244.35" y1="35.15" x2="244.35" y2="172.03" xlink:href="#Gradiente_sem_nome_14"/><linearGradient id="Gradiente_sem_nome_4-4" x1="312.62" y1="65.48" x2="312.62" y2="186.34" xlink:href="#Gradiente_sem_nome_4"/><linearGradient id="Gradiente_sem_nome_14-4" x1="310.83" y1="71.43" x2="310.83" y2="176.46" xlink:href="#Gradiente_sem_nome_14"/><linearGradient id="Gradiente_sem_nome_4-5" x1="356.15" y1="157.94" x2="356.15" y2="186.54" xlink:href="#Gradiente_sem_nome_4"/><linearGradient id="Gradiente_sem_nome_14-5" x1="354.61" y1="163.74" x2="354.61" y2="178" xlink:href="#Gradiente_sem_nome_14"/><linearGradient id="Gradiente_sem_nome_4-6" x1="389.1" y1="157.94" x2="389.1" y2="186.54" xlink:href="#Gradiente_sem_nome_4"/><linearGradient id="Gradiente_sem_nome_14-6" x1="387.56" y1="163.74" x2="387.56" y2="178" xlink:href="#Gradiente_sem_nome_14"/><linearGradient id="Gradiente_sem_nome_4-7" x1="422.04" y1="157.94" x2="422.04" y2="186.54" xlink:href="#Gradiente_sem_nome_4"/><linearGradient id="Gradiente_sem_nome_14-7" x1="420.5" y1="163.74" x2="420.5" y2="178" xlink:href="#Gradiente_sem_nome_14"/></defs><title>Asset 26</title><g id="Layer_2" data-name="Layer 2"><g id="Camada_1" data-name="Camada 1"><path class="cls-1" d="M107.32,158.7c-.21-3.38-2-11.62-2.11-12.78s.31-12.15,0-16.37-1.8-16.16-2.12-18.27a30,30,0,0,0-2.64-7.71c-1-1.69-2.11-15.1-2.42-17.63s-1-6.76-1.27-8.45.1-12,.63-19.75a35.22,35.22,0,0,0-3.8-17.53c-1.37-2.43-1.58-7.07-1.48-9.5s-.32-5.18-1.27-6S89.37,21.2,88.31,19s-4.44-5.6-5.49-6.44-5.49-5.5-7.18-6.87S66.56.82,58.64.19,43.11.61,41,1.77,36.67,3,33.71,3a22,22,0,0,0-8.23,2.11c-1.06.64-12.25,8-13.41,8.77S7.21,25.32,7,27.54s-2,12-2.54,14.57S4.25,53.2,4.15,56.37,2.35,68.83,1.61,72.42s.32,12.25.42,14S1.51,106.11,1,108s1,9,1,10.35-1.26,10-1.92,11.51,1.71,4.43,2,6,0,13.47-1.06,15a8.32,8.32,0,0,0-.73,5.91,28.23,28.23,0,0,1,.73,6.55c0,2.43,2,4.23,3.28,5.28a19.42,19.42,0,0,1,4,4.44c.53,1.16,4.65,3.17,5.91,4a11.74,11.74,0,0,0,6,1.58,15.92,15.92,0,0,0,5.49-1c1.69-.52,2.86-1.79,3.28-1.9s9.29-6,9.79-7.18.66-6.33.24-7.28-.21-6.34,0-7,1.06-5.39,1.63-7.82.38-8,.06-10.24.63-5.91,1.06-7.6,0-11.51-.43-13.2S42,111.92,42,111v-8c0-.74,4.33-9.93,4.33-9.93,1.06-.53,4.23-.42,6.23-1a20.18,20.18,0,0,1,6.65-.21c1.91.21,3,.85,2.54,3a12.08,12.08,0,0,0,.74,6.33c.74,2.22,1.58,5,1,7.5a16.72,16.72,0,0,0,.21,7.18,41.54,41.54,0,0,1,.74,7.92,22.31,22.31,0,0,0,2.53,8.87c.64,1.06.85,3.17.53,5.71s-.53,5.49,0,6.65.63,7.07.74,8.45,3.38,7.81,4.22,9.39a41.76,41.76,0,0,0,4.33,5.92,46.84,46.84,0,0,1,4.23,4.43c1.69,2,4.43,2.11,6,2.75s5.28-.11,5.91-.53,12-3.59,13.62-5.6S107.53,162.07,107.32,158.7ZM57.9,57.58a4,4,0,0,1-4.11,1.06c-1.42-.48-2.65-.21-4.29,1s-2.85,1.06-5.16.85-1.65-2.75-1.81-4.91.69-3.59,1.69-5.65a40.1,40.1,0,0,0,2-5.49c.21-.73,2-.48,3.59-.8s3.8-1.16,5.7-1.16S57.58,45,57.58,46s1.27,4.91,1.64,6.52S58.58,56.58,57.9,57.58Z"/><path class="cls-2" d="M97.23,155.32c-.16-1.11-.42-6.13-.89-7.87s-.53-9.13-.53-17.21A133.5,133.5,0,0,0,94.15,111a61.45,61.45,0,0,0-2.88-10.07c-1.06-3.17-2.4-13.8-2.75-17.39A93.45,93.45,0,0,0,86.83,74c-.42-2.11.42-10.56.56-17.81s-.7-14.29-2.81-18.09S82.11,28.63,82.19,27s.7-4-.85-5.63-.63-2.18-2.6-6.19S68.67,7.85,59.8,6.58,45.59,7,43.06,7.9,35.35,9.06,32.18,9.22s-9.76,5.38-12.83,7.66-3.85,4.85-5.12,7.28-1.85,8.87-2.32,11S10,47.82,10,48.45s.05,12.62-.21,15S7.31,77,7.31,78.49s.9,7.82,1.11,8.87S8.21,91,8.16,93a55.69,55.69,0,0,1-.63,6.71c-.22.9.31,4.33.31,5.49a56,56,0,0,1-.74,6c-.26,1.58.85,3.9,1.11,4.8a6.59,6.59,0,0,1-.58,4.44c-.84,1.53-.21,4.8-.37,5.75a32.85,32.85,0,0,1-.9,4.65c-.58,2,.85,3.54,1.06,4.27a22.36,22.36,0,0,1,.42,5.18c-.16,1.16-.47,7.13-1,8.34s.48,3.64.32,4.49S5.84,155,6.05,156.58s.63,4.65.74,6.13S8.53,165.4,9.37,166a15.44,15.44,0,0,0,5.71,2.64,5.59,5.59,0,0,0,4.7-2c1.1-1.11,3.8-.58,4.8-1.11s5.81-4.86,5.81-4.86a4.41,4.41,0,0,0-.11-2.85c-.26-1.11-1.16-3.59-1.11-5.23s1.69-10,2.17-12.62-.11-8.76-.32-11,1.43-9.61,1.43-11.72a77.82,77.82,0,0,0-.69-8c-.21-1.37.48-10,.48-10.35s-.06-3.33.68-4.33,1.11-2.9,1.53-4.49,3.91-6.07,5.07-7.07,2.33-.11,3.86.79,2.9-.74,5.22-1.59,9.4-.42,11.94.22,5.81,7.33,6.81,8.6.68,2.91.53,5.33a17.29,17.29,0,0,0,1.42,6.87c.58,1.32.58,5.33-.16,7.34a4.77,4.77,0,0,0,.53,4.22c.42.85.48,4.17.69,8.93s1.48,6.86,2.53,8.5.79,5.7.16,8.76.9,10.77,1.16,12.73,4.28,8.71,5.12,10.61,2.91,1.58,4.76,2.16,2.64-.42,4.8-1.32,8.34-2.53,8.92-3.8S97.39,156.43,97.23,155.32ZM64.37,56.93c-.63,1.62-.28,4.44-.63,5.63s-6.27,2.4-9.15,2.61S51.35,66.79,48,67s-7.39-.63-8.8-1.69A19,19,0,0,0,34.1,63c-1.48-.5-.84-2.54-.56-4.51s-.56-2.74-.63-6a18,18,0,0,1,1.61-7.82c.78-1.62,3.31-8.52,3.31-8.52.35-.93,2.33-1.83,3.66-2a57,57,0,0,0,5.64-1.55c1.9-.49,7.88-.07,8.58.64a21.76,21.76,0,0,0,4.09,2.88c1.76,1,1.41,2.33,1.41,3.38s.28,1.55,1.4,3,1.48,5.23,1.76,7.2S65,55.31,64.37,56.93Z"/><path class="cls-3" d="M117,114.24s.53,15.31.64,17.53-.85,11.72-.64,14,1.38,9.4,1.38,11.2a35.49,35.49,0,0,0,.84,7.18c.42,1.16,7.81,9.4,9.93,11.72s2.95,3.69,5.49,3.8,11.4.63,12.67,0,1.8-3.17,3.17-4a19.67,19.67,0,0,0,6.55-9.93c1.26-5,1.47-13.3.73-16.47a48.8,48.8,0,0,1-.73-9.4c0-1.48.31-18.69-.32-22.6a158.92,158.92,0,0,1-1-17.11,21.61,21.61,0,0,0,.1-4.43c-.21-1.06-1-2.75,1-3.06s4.6-.9,5.26-1.48,4.85-2.4,11.75-3,13-1.69,16.82-4.43,4.23-4.65,4.65-7.89.7-4.73.49-6.16-2.22-5.54-4.07-6.39-3.48-3.85-4.43-4.7a9.82,9.82,0,0,0-4.59-2.32c-1.54-.11-2.86-.74-4.54-.58s-3.65,1.9-5.44,2.11-6.81-.16-9,.85-4.65,3.64-6.76,3.59-3.12-1.22-2.53-3-.36-4.66-.81-6.25-1.76-4.79.07-5.77A94.63,94.63,0,0,1,170.62,42c5.34-.95,7.56.26,11.52-.58s10.5-1.9,12.72-2.11,9.12-.41,10.88-5.2,1.76-13.94-.36-16.75-5.35-4.86-5.91-6.13-6.05-6.4-7.74-6.54S182,5.33,178,5.54a138.76,138.76,0,0,1-14.57-.21c-2.75-.28-6.9-.49-9.58.49s-9.36,4.3-13.48,4.77-5.91.11-7.5.74S121,19.2,119.51,25.16s-3.11,10.72-3,15.53.36,13.25.58,14.57.84,4.59.21,5.86-1.64,3.54-1.48,8.19.23,12,0,15.57a88.75,88.75,0,0,0,.53,13.17C116.68,100.37,116.65,103.47,117,114.24Z"/><path class="cls-4" d="M123.51,64.47a13.12,13.12,0,0,0-1.69,6.33c.14,3.24.55,8.17,0,11.69s.71,14.78.85,17.46a85,85,0,0,1,.22,12.46c-.43,4.5.07,12.88.14,14.71s.21,10.63,0,12.46a58.9,58.9,0,0,0,0,10.63,96.2,96.2,0,0,1,1.19,10.21c-.07,1.27,1.2,4,2.05,5s2.81,4.29,4.64,4.29,7.75,1.48,9,.28a4.87,4.87,0,0,0,1.48-2S146,165,147,161.76s1.76-7,1.27-9.51-.49-7.95-1.13-10.27-.14-5.57-.07-7.47,1-16.68.5-18.3-1.27-12.67-1.41-14.78-.56-4.65.14-6.48.35-3-.42-3.52a1.88,1.88,0,0,1-.71-2.68c.71-1.19,4.23-7,5.21-6.83s2.82,1.62,3.94.78a23.66,23.66,0,0,1,11.9-3.52c6.44-.32,13.73-2,15.63-3.27s3.8-3.67,3.91-5.5.14-6.33-1.48-7.42-4.72-1.38-6.34-.39-5.63,1.62-7.28,1.58a24.64,24.64,0,0,0-8.2,2.36A11.78,11.78,0,0,1,156.81,68c-1.62,0-8,.09-8.89-.49s-3.8-3.22-3.64-4.12.95-8.24.16-10.82-2-8.19-.9-10.78,2-4.64,12.56-7.18,10.78-3,16.2-3,11-.21,14-1,9.92-.77,10.56-3.73,1.26-9.22,0-11.4-4-4.65-5.57-4.72-10.41.77-12.6.85-11.47,0-13-.22-5.91-.91-9.65.43-12.1,4.36-14.15,4.5-5.84.14-6.61.71-8,5.91-9.44,9.64S122.38,37,122.45,41.73a118.05,118.05,0,0,0,1,13.79A47.58,47.58,0,0,1,123.51,64.47Z"/><path class="cls-5" d="M202,124.59s-.95,15.52-.63,18.27.1,9.82.63,10.77.11,3.8,0,6.33-.23,5.6-.22,6.87-.1,4.22,2,5.07,4.11,2.11,4.22,3.69a5,5,0,0,0,5.07,4.43c3.38-.1,8.87,2,11.09,2s8.13-1.05,9.71-2.64,4.86-5,4.86-7.49.32-11.83-.63-15-.11-13.62-.64-15.84-.53-24.08.21-25.13,6-4,6-4,6.76-1.06,10.88-.64,13,0,14.57-.53a7.91,7.91,0,0,0,5.53-7.56c.21-5.21-.63-9.71-2-10.84s-2.11-3-3-3.74-3.52-3.52-5.84-4-4.37-1.48-6.48-1.48-6.19.14-8,0a35.09,35.09,0,0,0-7.74.56,4.83,4.83,0,0,1-3.59-.6c-.28-.24-.21-7.14-.42-7.84s-.85-1.83-.28-2.61,3.73-7.88,4.71-7.88,6-.14,11.62,0,19.15-.14,26.12-1.9,8.09-2.47,8.62-5.74-.1-11.09-1.79-13.2a41.23,41.23,0,0,1-3.49-4.65c-.42-.84-3.8-4.33-5.81-5.07s-5.59-3.8-7.92-4.33a65.77,65.77,0,0,0-13-.74c-2.85.32-9.71,2.86-12.35,3.07s-5.39-.64-8.87-.74-15.52-.95-17.74-.11-11.62,5.6-11.93,9.4,0,11.62-.32,12.88a42.12,42.12,0,0,0-.63,7.08c.1.95.1,8.87-.32,10.66s-1.27,5.92-1.59,7.5-1.6,7.92-1.33,9.3,1.33,4,1.44,5.8.32,13,.21,14.15S202.2,121.84,202,124.59Z"/><path class="cls-6" d="M222.21,36.94S213,41.27,212.5,43.7a117.21,117.21,0,0,0-.76,16c.23,1.69.59,10-.07,12.14A118.74,118.74,0,0,0,209.22,87c0,2.22.95,6.23,1.06,8.35s.1,18.48-.32,22.7-1.79,24.71-1.58,28.83,1.26,8.13,1.16,9.92-1.69,11.3-.11,12.47,5.92,1.58,9,2.42,8,.11,9.93-1.69,3.37-7,2.74-10.56-1.9-9.5-1.69-11.82.42-10.35-.53-12.57-.31-25.76.21-26.61,8.66-6.34,10.25-6.55a64.09,64.09,0,0,1,10.87-.31,103.18,103.18,0,0,0,13.1-.53A3.78,3.78,0,0,0,266,97.87c.22-1.9.32-6.19-1-7.27a9.67,9.67,0,0,0-5.92-2c-1.9.21-4.11,1-5.17.74s-5.49-.74-7-.11-4.54,2.37-6.12,1.39a15.34,15.34,0,0,0-6.45-1.92c-1.47.11-4.75.64-4.75.64a2.77,2.77,0,0,1-.74-2.22c.11-1.48.53-14.36.43-16.37s-.64-3.8-.22-4.65,5.81-10.56,6.45-10.66,2.21-1.27,8.76-.42,17.11.63,20.8-.21,13.94-2.12,14.47-2.86,1.48-8.44,0-10.24-3.48-1.9-5-2.32-4.54-3.8-6.13-4-9.18-.53-13.2.63-11.08,2.11-13.62,1.9S229.92,37,227.7,37,223.19,36.46,222.21,36.94Z"/><path class="cls-7" d="M277,131.66s-.11,11.2,0,14.15.1,8.45-.53,9.82a16.56,16.56,0,0,0-1.37,5.18,6.43,6.43,0,0,1-.5,3.34,3.87,3.87,0,0,0-.6,3.35,29.38,29.38,0,0,0,3.88,4.82c1.09,1.12,6.16,6.51,9.15,8.16s7,5,9,5.43,5.56,1.09,8.55-1.31,6.8-6.72,7-8.76-.71-7.18-.56-9.44,1.19-11.19,1.61-13.37A98.55,98.55,0,0,0,313.94,143c0-1.55.71-4.79,2.11-5.21s7.89-.77,9.16-1.76,6.68-.84,9.43-1.41,8.45-1.05,9.36-5.06,1.27-9.72-1.05-11.9a72.58,72.58,0,0,1-5.42-5.42c-.43-.64-4.72-4.09-6.76-4.16s-7.68-.84-9.86,0-6.12.5-6.26-.7-1-5.56,2.32-7.74,5.42-3.67,10.84-3.17,12.25,1.83,15.35.91,2.34-.42,4-2.06,4-4.12,4.12-6,.31-8.18-.58-9.45-2.38-4.06-4.44-5-2.53-4-4.28-5.12-7-2.12-9.18-2.17-6.66-1.64-9.88-1.64-5.91.48-8.08.37-15.68-.1-16.42-.37a13.75,13.75,0,0,0-6.54,0c-2.7.74-5.23,5.76-6.23,6.66s-1.32,5.33-1.32,5.75-1.39,9.91-1.54,11.88-.28,8-1.12,10.07-1.31,4.22-1.36,8.45-.4,14-1,15.48S277,129.66,277,131.66Z"/><path class="cls-8" d="M290.36,77.91s-.5,8.8-.92,10.35-.21,4.44-.42,5.84-1.83,8.73-2.25,9.86-.5,10.21-.5,11.33-.14,8.49-1,10.62A30.31,30.31,0,0,0,283,134.3c-.07,2.18-.22,8-.43,9.51a45.62,45.62,0,0,0,0,6.19c.07,1.2.41,6.2-.11,7.46a11.38,11.38,0,0,0-1.15,4.72c-.07,2.32-1.62,3.45-1.34,4.72s9.78,7.88,11.19,8.73a4.46,4.46,0,0,0,4.23.49c1.19-.63,2.6-1,3.73-2.32s2.81-2.54,2.81-5.78.21-16.89.85-19.85,1.76-12.25,2.32-13.73-1.34-4.5,2.11-5.77,9.37-1.76,10.77-2.39a8.47,8.47,0,0,1,4.79-1c2.89,0,4.51.07,6-.49a34.26,34.26,0,0,1,5.49-1s.42,0,.6-1.33.42-4.93-.6-6.24A6.23,6.23,0,0,0,329,114c-2.29.1-7,.81-8.9.91a58.78,58.78,0,0,1-9.47-1.37c-.95-.28-5-2.68-5.42-3.91s0-15.17.45-15.63,7.19-6.51,10.28-6.9a31.46,31.46,0,0,1,10,.09c4.81.69,10,1.37,12.15.27a7.25,7.25,0,0,0,3.59-5.28c.16-1.75.1-5.6-1.59-7s-6.86-1.9-9-2.16-7.92-1.53-9.24-1.37a63.08,63.08,0,0,1-8.77.52c-1.95-.21-9.45-.6-10.93-.54s-6.81-.56-8.13.44a17.42,17.42,0,0,0-3.27,4A3.47,3.47,0,0,0,290.36,77.91Z"/><path class="cls-9" d="M349.7,159.15s-7,7-6.89,8,1.19,3.66,1.12,5.07-.28,3.73,1.34,5.14,4.22,3,4.43,4,3.88,3.38,5.64,4.22,6.33,1.15,7.53.72,4.51-2.05,5.35-4.31,1.34-2.95,1.27-5.07,0-3.37-.85-5.13-3.66-6.41-5.35-7.26-1.76-.42-2.18-1.62a8.16,8.16,0,0,0-3.59-3.8c-1.41-.56-3.24-1.33-4.58-1.19A11.25,11.25,0,0,0,349.7,159.15Z"/><path class="cls-10" d="M352.31,164.29s-4.51,4.09-4.37,5.28.71,2.47.78,3.66,1.06,3.52,4.22,4.44a6.54,6.54,0,0,0,6.41-1.2c1.06-1,2.11-2.91,1.9-4.23s.56-2.32-1.06-3.86-2-3.45-3.23-4.09A5.16,5.16,0,0,0,352.31,164.29Z"/><path class="cls-11" d="M382.65,159.15s-7,7-6.9,8,1.2,3.66,1.13,5.07-.28,3.73,1.34,5.14,4.22,3,4.43,4,3.87,3.38,5.63,4.22,6.34,1.15,7.54.72,4.5-2.05,5.35-4.31,1.33-2.95,1.26-5.07,0-3.37-.84-5.13-3.66-6.41-5.35-7.26-1.76-.42-2.18-1.62a8.26,8.26,0,0,0-3.59-3.8c-1.41-.56-3.24-1.33-4.58-1.19A11.12,11.12,0,0,0,382.65,159.15Z"/><path class="cls-12" d="M385.26,164.29s-4.51,4.09-4.37,5.28.71,2.47.78,3.66,1.05,3.52,4.22,4.44a6.54,6.54,0,0,0,6.41-1.2c1.05-1,2.11-2.91,1.9-4.23s.56-2.32-1.06-3.86-2-3.45-3.24-4.09A5.14,5.14,0,0,0,385.26,164.29Z"/><path class="cls-13" d="M415.6,159.15s-7,7-6.9,8,1.2,3.66,1.13,5.07-.29,3.73,1.33,5.14,4.23,3,4.44,4,3.87,3.38,5.63,4.22,6.34,1.15,7.53.72,4.51-2.05,5.35-4.31,1.34-2.95,1.27-5.07,0-3.37-.84-5.13-3.66-6.41-5.35-7.26-1.76-.42-2.19-1.62a8.16,8.16,0,0,0-3.59-3.8c-1.4-.56-3.23-1.33-4.57-1.19A11.12,11.12,0,0,0,415.6,159.15Z"/><path class="cls-14" d="M418.2,164.29s-4.5,4.09-4.36,5.28.7,2.47.77,3.66,1.06,3.52,4.23,4.44a6.51,6.51,0,0,0,6.4-1.2c1.06-1,2.12-2.91,1.9-4.23s.57-2.32-1.05-3.86-2-3.45-3.24-4.09A5.16,5.16,0,0,0,418.2,164.29Z"/></g></g></svg>