<?xml version="1.0" encoding="utf-8"?>
<!-- Generator: Adobe Illustrator 22.0.0, SVG Export Plug-In . SVG Version: 6.00 Build 0)  -->
<svg version="1.1" id="Layer_1" xmlns="http://www.w3.org/2000/svg" xmlns:xlink="http://www.w3.org/1999/xlink" x="0px" y="0px"
	 viewBox="0 0 471.3 170" style="enable-background:new 0 0 471.3 170;" xml:space="preserve">
<style type="text/css">
	.st0{fill:url(#SVGID_1_);}
	.st1{fill:#FFFFFF;}
</style>
<title>Asset 21</title>
<g>
	
		<linearGradient id="SVGID_1_" gradientUnits="userSpaceOnUse" x1="385.1" y1="762.5" x2="385.1" y2="762.5" gradientTransform="matrix(1 0 0 1 0 -620)">
		<stop  offset="0" style="stop-color:#00A0AD"/>
		<stop  offset="1" style="stop-color:#00699C"/>
	</linearGradient>
	<path class="st0" d="M385.1,142.5"/>
	<g>
		<path class="st1" d="M107.5,91.2c0.1-1.2,4.8-39.3,6.7-49.1c0,0-38.8,39.7-48.5,56.4C65.7,98.5,89.1,98,107.5,91.2z"/>
		<path class="st1" d="M469.5,99.5c-1.8-2.7-4.3-4.8-7.3-6.1c0,0-0.3-0.2-0.9-0.4c-1.5-0.6-3.1-1-4.7-1.1c-0.8-0.1-1.6-0.1-2.5-0.2
			c-5.2-0.1-9.5,5.9-11.6,6.6c-0.8,0.3-1.9-0.6-3-1.8c0-1.4-0.1-2.8-0.5-4.1c-1.3-4.8-4.6-8.7-8.9-11c-4.2-2.1-9.2-2.3-13.6-0.4
			c-4.2,1.9-8.3,4.1-12.3,6.4c0.6-2.3,0.8-4.7,0.5-7.1c-1.1-7.2-9-14.2-16.3-14.3c-3.4-0.1-7.5,1.6-11.2,3.7
			c-0.8-6.3-4.8-13.2-11.8-16.3c-4.1-2-8.7-2.6-13.1-1.5c1.2-8.9-1.3-16.4-7.1-20.8c-4.7-3.6-10.4-5.6-16.4-5.8
			c-2.8-0.1-5.6,0.4-8.2,1.6c-1.5-5.2-5.5-12.5-12-15.9c-2.7-1.4-5.5-2.4-8.4-3c-9-6.6-11.7-7.2-13-7.5c-5-1.1-11.5-0.2-18,2.5
			c-9,3.7-39.2,16.9-49.7,32c-10.1,14.6-13.9,32.2-11.7,44.4c2.6,14.4,11.2,26.5,15,31.9c2.4,3.5,4.2,7.5,5.3,11.6
			c-1,0.5-0.7,0.2-3.3-0.2c-6.9-1-15.1-4.5-18.4-6.1c-5-2.5-10.7-3.5-16.2-2.9c0-2.8-0.9-5.6-2.5-7.9c-2.8-3.7-7-6-11.7-6.3
			c-0.5,0-1,0-1.5,0c2.4-3.4,4.4-6.3,4.8-7c3.4-4.7,4.4-10.7,2.7-16.3c-1.1-3.3-3.1-6.3-5.9-8.4c3.4-1.6,7.8-3.6,9.6-4
			c11.4-2.3,14.4-5.2,15.3-6.2c4.3-4.3,7-14,1-21.2c-2.1-2.6-7.8-9.4-17-9.6h-1l-0.9,0.2c-4.1,0.9-8.1,2.4-11.7,4.6
			c-4.4,2.6-18.3,10-19.8,10.7c-1.1,0.5-2.1,1.2-3,1.9l-0.1,0.1l-0.3,0.2c-0.5,0.5-1.1,0.9-1.6,1.5l-2.3,2.1
			c-0.3,0.1-0.5,0.1-0.8,0.1c-0.6-0.1-0.4-2.3-0.4-2.3l1.4-5.1c2.2-7.9,4-14.6-1.1-21.3c-3.1-3.9-7.3-6.6-12.1-7.8
			c-3.2-2.6-8.8-6.1-15.4-6c-5.3-0.1-10.6,1.5-15,4.5l-1.8,1.1l-1,1.1c-1.1,1.4-35.5,39-42.9,49.5c-7.5,10.5-36.9,52.4-46.4,69.8
			c-7.6,13.8-11,20.3-7.3,27.1c2.1,4,10,11.2,19.4,11.2h0.4c7.9-0.2,13.3-5.8,15.4-11.8c8.9-14.1,18.7-29.3,24.7-37.9
			c3.6,1.5,7.6,2.2,11.5,1.9c10.4-0.5,17.8-1.1,23-1.7v25.9l0.5,1.5c1.7,5,7.5,13.8,18.2,14.7c7.1,0.6,11.5-1.9,13.9-4.2
			c1.7-1.6,3-3.5,3.8-5.6c3.4,2.7,7.4,4.5,11.7,5c0.9,0.1,1.8,0.1,2.6,0.1c8.6,0,14.8-4.4,20.9-8.6c3.8-2.6,7.8-7.5,11.3-12.8
			c2.5,3.8,9.7,9.9,19.9,14.9c11.1,5.5,23.3,8.3,35.6,8.4c2.3,0,4.7-0.1,7.2-0.3c15.9-1.4,23.2-9.1,26.5-15.6
			c1.1,2.4,2.6,4.7,4.5,6.6c2.9,3,8.1,6.5,16.4,6.5c7.3,0,14.5-2,20.8-5.8c0.4,0.3,1.1,1.2,1.5,1.5c0.3,0.2,3.3,3.1,3.3,3.1
			c1.1,1.5,3,2.1,5,2.8l3.2,0.5c0.8,0.1,1.7,0.2,2.6,0.1c3.8-0.1,7.4-1.9,9.7-4.9l0.5-0.7c4.5-6,7.5-9.6,11.2-14.2
			c2.5,6.9,6.3,10,10.4,12.2c0.3,0.1,1.5,0.9,1.8,1c3.5,1.5,10.4,4.7,19.3-2.8c2.6-2.2,4.8-4.8,6.6-7.7c1.4,4.5,7,16.8,23,16.8
			c0.9,0,2.1-0.1,3.2-0.2c12.1-1.1,20.7-8.7,33.9-20.2c8.2-7.1,15.8-14.9,22.6-23.4C471.8,110.1,472.4,104.2,469.5,99.5z
			 M155.8,50.9c1-0.5,15.7-8.3,20.5-11.1c2.6-1.6,5.4-2.8,8.4-3.4c4.1,0.1,7.1,2.9,9.7,6.1c2.6,3.1,0.6,7.4-0.4,8.4
			s-4.9,2.5-10.4,3.6s-16.8,7.4-20.6,8.6c-3.9,1.2-8.7-1.2-10.5-4.9C150.7,54.3,154.8,51.4,155.8,50.9z M125.6,102.9
			c-0.6,7.6-1.4,40.4-1.4,43.4c0,2.9-1.2,7.5-8.6,6.9s-10-8.2-10-8.2v-35.6c-4.2,1.7-23.5,3-33.1,3.4c-9.6,0.5-12.8-5.9-12.8-5.9
			c-5,4.9-31.7,47.3-31.7,47.3s-1.5,6.1-6.8,6.3c-5.3,0.1-10.3-4.6-11.2-6.1c-0.9-1.6-1.2-3.9,7-17.6c8.2-13.7,39.9-59,47.2-69.2
			c7.3-10.2,41.4-48.9,41.4-48.9c2.9-1.8,5.1-3.4,10.7-3.4s10.9,5.4,10.9,5.4c3.5,0.3,6.7,2,8.8,4.7c2.7,3.5,0.7,7.9-2,18.2
			c-2.6,10.3-7.5,46.9-7.5,46.9c3.4,1.7,4.3,4.8,4.3,7.6C130.9,100.7,125.6,102.9,125.6,102.9z M180.3,114.7
			c-1,3.4-11.2,22.2-18.1,27s-11,7.4-17.1,6.8s-13.9-8.6-14.7-16.1c-0.7-7.5,4.3-22.1,5.9-26.1c1.6-3.9,13.2-27.4,17.7-30.8
			s8.7-3.4,13.5-1.7c4.8,1.7,7.6,7.6,3.7,13.2c0,0-10.5,15.2-13.6,19.3s-10.9,17.1-12,23.3c-1.1,6.2-0.4,10.2,3.9,8.6
			c4.3-1.6,16.8-15.6,19-20.7s4.2-8.7,6.8-8.6C177.9,109,181.2,111.3,180.3,114.7z M320.5,39c3.6-4.8,7.9-4.2,7.9-4.2
			c4,0.1,7.8,1.5,11,3.9c4.5,3.4,3.7,10.6,3.2,13.2s-3.5,8.2-9.6,8.4s-12.6-3.9-15.1-7.8C315.3,48.6,316.9,43.9,320.5,39z
			 M261.3,72.6c-0.8-3.7,2.6-10.1,5.7-13.5s17.2-28.3,17.2-28.3c-35.6,14.9-40.8,25.8-43.4,40.8c-2.6,15,14.9,38.5,17.2,42
			c2.3,3.4,13.6,33.9-17.2,36.7s-51.8-15.4-53.9-18.9c-2.1-3.4-1-6.6,2.8-8s9.3,0.1,12.3,1.6s12.5,5.8,21.3,7.1
			c8.9,1.3,12-1.7,14.8-4.4c2.8-2.8,0.5-12.6-5.6-21.1s-12.1-19.8-13.9-30c-1.8-10.2,2-22.5,10.1-35.9c8.2-13.4,38.5-26.5,44.1-28.8
			s10-2.5,12.3-2s11.1,7.2,11.1,7.2c2.8,0.3,5.4,1.1,7.9,2.5c4.4,2.3,7,8.5,7.5,11.3s-2.8,8.3-5.2,13.4c-2.5,5.1-13.9,21-13.9,21
			s-9.2,14-16.9,15.2S262.2,76.4,261.3,72.6z M460.1,109.8c-6.4,7.9-13.5,15.2-21.2,21.8c-12.8,11.2-19.9,16.6-28.8,17.5
			s-12.1-3.1-14.6-10.8s4.8-25.7,4.8-25.7c-8.8,5.9-17,15.1-17,15.1s-6.7,11.6-11,15.2s-6.7,1.6-9.8,0c-3.1-1.6-6.4-6.2-4.9-13.8
			c1.5-7.5,11.8-27.4,11.8-27.4c-10.2,4.9-40.1,45-41.7,47.1c-1.6,2.1-4.8,1-5.6,0c-0.9-1-3.7-4.2-5.4-5.2c-1.7-1-1.8-5.7-1.8-5.7
			h-3.1c0,0-10.1,9.7-22.5,9.7s-14.8-11.4-14.5-22.3c0.3-10.8,11.1-30.7,13.3-35.4c2.2-4.7,13.7-22,19.5-23.3
			c5.8-1.3,10.9,3.1,10.9,3.1c3,3.1,4.2,6.2,2.4,10.9c-1.8,4.7-18.1,20.7-21.5,25.7s-17.7,31.9-7.9,30.5
			c9.8-1.4,34.3-29.4,34.3-29.4s3.3-10.3,14-30s17.3-17.3,21.8-15.4c4.4,2,6.6,7.6,6.2,10.6c-0.5,3-4.1,6.6-12.5,17.2
			s-13,26.4-13,26.4c7.7-10.8,27.9-29.9,32-33.1s11.4-7.7,14.1-7.6s6.6,3.8,7,6.2c0.4,2.4-1.2,6.4-2.2,9.6
			c-1.1,3.2-3.6,17.1-3.6,17.1c7.3-6,25.4-16.4,30.8-18.6s9,2.4,9.6,4.8c0.6,2.5-0.5,3.6-1.9,5.2c-1.5,1.6-4,6.7-5.1,10
			s-6.8,21.7-6.1,21.4c0.7-0.3,8.4-5.3,12.5-8.3s24.9-21.5,26.5-21.6c1.7-0.2,4.7,1.5,5.7,3.1C462.4,106.3,460.8,108.9,460.1,109.8z
			"/>
	</g>
</g>
</svg>
