<svg xmlns="http://www.w3.org/2000/svg" xmlns:xlink="http://www.w3.org/1999/xlink" viewBox="0 0 471.28 170.01"><defs><style>.cls-1{fill:url(#Gradiente_sem_nome_38);}.cls-2{fill:url(#Gradiente_sem_nome_38-2);}.cls-3{fill:#51bad4;}.cls-4{fill:url(#Gradiente_sem_nome_41);}.cls-5{fill:url(#Gradiente_sem_nome_41-2);}.cls-6{fill:url(#Gradiente_sem_nome_41-3);}.cls-7{fill:url(#Gradiente_sem_nome_41-4);}.cls-8{fill:url(#Gradiente_sem_nome_41-5);}.cls-9{fill:url(#Gradiente_sem_nome_41-6);}</style><linearGradient id="Gradiente_sem_nome_38" x1="385.12" y1="142.53" x2="385.13" y2="142.53" gradientUnits="userSpaceOnUse"><stop offset="0" stop-color="#00a0ad"/><stop offset="1" stop-color="#00699c"/></linearGradient><linearGradient id="Gradiente_sem_nome_38-2" x1="0" y1="85" x2="471.28" y2="85" xlink:href="#Gradiente_sem_nome_38"/><linearGradient id="Gradiente_sem_nome_41" x1="9.52" y1="87.78" x2="137.25" y2="87.78" gradientUnits="userSpaceOnUse"><stop offset="0" stop-color="#c6e6f3"/><stop offset="1" stop-color="#a1d6ea"/></linearGradient><linearGradient id="Gradiente_sem_nome_41-2" x1="152.11" y1="49.75" x2="195.78" y2="49.75" xlink:href="#Gradiente_sem_nome_41"/><linearGradient id="Gradiente_sem_nome_41-3" x1="130.45" y1="110.61" x2="180.48" y2="110.61" xlink:href="#Gradiente_sem_nome_41"/><linearGradient id="Gradiente_sem_nome_41-4" x1="185.88" y1="80.07" x2="311.7" y2="80.07" xlink:href="#Gradiente_sem_nome_41"/><linearGradient id="Gradiente_sem_nome_41-5" x1="316.61" y1="47.58" x2="342.95" y2="47.58" xlink:href="#Gradiente_sem_nome_41"/><linearGradient id="Gradiente_sem_nome_41-6" x1="274.68" y1="105.5" x2="461.68" y2="105.5" xlink:href="#Gradiente_sem_nome_41"/></defs><title>Asset 21</title><g id="Layer_2" data-name="Layer 2"><g id="Camada_1" data-name="Camada 1"><path class="cls-1" d="M385.12,142.51Z"/><path class="cls-2" d="M469.45,99.51a17.46,17.46,0,0,0-7.27-6.14h0s-.31-.16-.91-.39a15,15,0,0,0-4.74-1.07c-.75-.08-1.57-.14-2.47-.16-5.24-.08-9.46,5.89-11.63,6.64-.81.28-1.9-.58-2.95-1.77A14.92,14.92,0,0,0,439,92.5a17.67,17.67,0,0,0-8.94-11,16.09,16.09,0,0,0-13.59-.4,136.41,136.41,0,0,0-12.33,6.41,18.77,18.77,0,0,0,.45-7.12c-1.1-7.2-9-14.17-16.26-14.33-3.42-.08-7.55,1.64-11.23,3.67-.77-6.26-4.81-13.22-11.76-16.31a19.7,19.7,0,0,0-13.12-1.55c1.23-8.9-1.32-16.42-7.12-20.81a29,29,0,0,0-16.37-5.81,17.17,17.17,0,0,0-8.19,1.62c-1.53-5.23-5.48-12.52-12-15.93a33.68,33.68,0,0,0-8.44-3.05c-9-6.62-11.65-7.2-13-7.48-5-1.07-11.53-.17-17.95,2.48-9,3.7-39.19,16.88-49.69,32-10.13,14.56-13.89,32.18-11.72,44.41,2.56,14.44,11.19,26.52,15,31.89a36.72,36.72,0,0,1,5.28,11.62c-1,.54-.69.16-3.32-.23-6.91-1-15.07-4.46-18.43-6.13a29.34,29.34,0,0,0-16.24-2.94,13.52,13.52,0,0,0-2.54-7.9,15.56,15.56,0,0,0-11.68-6.27,14,14,0,0,0-1.45,0c2.38-3.42,4.37-6.31,4.84-7a18.56,18.56,0,0,0,2.67-16.27A17.89,17.89,0,0,0,176,67.63c3.37-1.58,7.75-3.57,9.61-3.95C197,61.38,200,58.46,200.91,57.5c4.25-4.25,7-14,1-21.23-2.13-2.58-7.77-9.44-17-9.58h-.88l-.86.15a36.48,36.48,0,0,0-11.69,4.63c-4.4,2.6-18.32,10-19.8,10.74a16.26,16.26,0,0,0-3,1.89h0l-.07.06-.28.22a17.57,17.57,0,0,0-1.55,1.46l-2.31,2.11a2.94,2.94,0,0,1-.81.11c-.62-.08-.42-2.27-.42-2.27l1.36-5.11c2.15-7.86,4-14.65-1.08-21.28a22.06,22.06,0,0,0-12.12-7.81c-3.17-2.56-8.79-6.11-15.37-6a25.86,25.86,0,0,0-15,4.51l-1.79,1.09-1,1.09C97,13.83,62.64,51.44,55.18,61.93S18.31,114.37,8.75,131.74C1.16,145.53-2.19,152,1.51,158.82c2.13,4,10,11.19,19.42,11.19h.43c7.91-.18,13.27-5.8,15.42-11.77,8.87-14.09,18.73-29.25,24.7-37.87A25.5,25.5,0,0,0,73,122.3c10.42-.53,17.76-1.11,23-1.67v25.88l.5,1.5c1.71,5,7.48,13.81,18.24,14.71,7.13.59,11.51-1.93,13.92-4.15a15.05,15.05,0,0,0,3.83-5.62A23.31,23.31,0,0,0,144.22,158a23.85,23.85,0,0,0,2.64.14c8.55,0,14.8-4.35,20.85-8.57,3.79-2.64,7.79-7.54,11.32-12.77,2.54,3.76,9.68,9.9,19.86,14.93a80.61,80.61,0,0,0,35.63,8.37c2.33,0,4.74-.1,7.2-.32,15.9-1.44,23.2-9.1,26.55-15.58a23.43,23.43,0,0,0,4.49,6.62c2.9,3,8.1,6.5,16.44,6.5A40.06,40.06,0,0,0,310,151.57c.4.32,1.06,1.24,1.52,1.52.25.2,3.33,3.14,3.33,3.14,1.11,1.51,3,2.06,5,2.78l3.15.47a13.75,13.75,0,0,0,2.56.15,12.72,12.72,0,0,0,9.72-4.94l.53-.7c4.55-6,7.52-9.58,11.19-14.18,2.5,6.88,6.3,10,10.44,12.19.25.13,1.5.88,1.75,1,3.46,1.45,10.4,4.74,19.28-2.78a34.81,34.81,0,0,0,6.64-7.69h0c1.43,4.48,7,16.8,23,16.8.94,0,2.14-.12,3.16-.21,12.08-1.12,20.69-8.66,33.91-20.23a180.14,180.14,0,0,0,22.62-23.36C471.77,110.14,472.38,104.16,469.45,99.51Z"/><path class="cls-3" d="M133.52,26.69A12.63,12.63,0,0,0,124.67,22s-5.33-5.49-10.9-5.41-7.7,1.64-10.65,3.45c0,0-34.17,38.71-41.42,48.91s-39,55.56-47.2,69.2-7.87,16-7,17.58,5.9,6.27,11.19,6.14,6.88-6.26,6.88-6.26,26.67-42.41,31.71-47.32c0,0,3.2,6.39,12.78,5.9s28.89-1.73,33.07-3.45v35.65s2.58,7.62,9.95,8.23,8.61-3.93,8.61-6.88.86-35.77,1.43-43.39c0,0,5.33-2.21,5.33-5s-.91-5.9-4.35-7.62c0,0,4.84-36.54,7.46-46.87S136.22,30.22,133.52,26.69ZM105,92.74C86.65,99.46,63.21,100,63.21,100c9.67-16.72,48.51-56.38,48.51-56.38C109.75,53.57,105,92.74,105,92.74Z"/><path class="cls-3" d="M182.33,37.76a27.42,27.42,0,0,0-8.42,3.44c-4.79,2.82-19.48,10.63-20.52,11.12s-5.1,3.44-3.26,7.13,6.64,6.14,10.51,4.92,15.18-7.5,20.65-8.61,9.4-2.58,10.38-3.56,3-5.23.37-8.36S186.39,37.82,182.33,37.76Z"/><path class="cls-3" d="M168.87,88.39s-10.44,15.24-13.64,19.3-10.94,17.09-12,23.35-.36,10.21,3.94,8.61S164,124,166.17,119s4.18-8.73,6.76-8.61,5.9,2.34,4.91,5.78-11.18,22.25-18.06,27-11,7.38-17.05,6.76-13.93-8.6-14.66-16.1,4.3-22.12,5.9-26.06S147.12,80.4,151.67,77s8.72-3.44,13.52-1.72S172.73,82.8,168.87,88.39Z"/><path class="cls-3" d="M281.83,32.27s-14.1,24.9-17.21,28.35-6.56,9.78-5.74,13.49,6.56,9,14.26,7.81S290,66.68,290,66.68s11.47-15.9,13.93-21,5.74-10.65,5.24-13.43-3.11-9-7.53-11.31a21,21,0,0,0-7.87-2.46s-8.85-6.72-11.14-7.21-6.72-.33-12.3,2-36,15.4-44.11,28.84S214.31,67.83,216.11,78,224,99.46,230,108s8.36,18.35,5.57,21.14-5.9,5.73-14.75,4.42-18.35-5.57-21.3-7-8.52-3-12.29-1.64-4.92,4.59-2.79,8,23.11,21.63,53.92,18.84,19.5-33.26,17.21-36.71S235.78,88,238.4,73.07,246.26,47.18,281.83,32.27Z"/><path class="cls-3" d="M325.89,36.34s-4.3-.61-7.87,4.18-5.16,9.53-2.64,13.46,9,8,15.12,7.8,9.09-5.83,9.59-8.42,1.35-9.71-3.2-13.15A19.21,19.21,0,0,0,325.89,36.34Z"/><path class="cls-3" d="M316,71.31s-5.17-4.43-10.94-3.07-17.33,18.68-19.55,23.35-13,24.58-13.27,35.4,2.09,22.24,14.5,22.24,22.5-9.71,22.5-9.71h3.07s.13,4.68,1.84,5.66,4.55,4.18,5.41,5.16,4.06,2.09,5.65,0,31.51-42.2,41.67-47.11c0,0-10.32,19.82-11.8,27.36s1.8,12.13,4.92,13.77,5.57,3.6,9.83,0,11-15.24,11-15.24,8.19-9.18,17-15.08c0,0-7.21,18-4.75,25.73s5.74,11.64,14.59,10.82,16-6.27,28.76-17.46a171.92,171.92,0,0,0,21.2-21.81c.67-.93,2.27-3.57,1.23-5.23s-4.06-3.32-5.72-3.13-22.49,18.62-26.55,21.63-11.8,8-12.47,8.3,5-18.07,6.08-21.39,3.65-8.4,5.12-10,2.54-2.79,1.93-5.25-4.22-7-9.57-4.83-23.53,12.6-30.79,18.56c0,0,2.52-13.89,3.57-17.09s2.58-7.19,2.21-9.59-4.3-6.14-7-6.2-10,4.42-14.08,7.62-24.27,22.31-32,33.12c0,0,4.55-15.85,13-26.42s12.05-14.26,12.54-17.21-1.72-8.6-6.15-10.57S348,59.39,337.26,79.05s-14,30-14,30-24.46,28-34.29,29.38,4.42-25.44,7.86-30.48,19.67-21,21.51-25.69S319,74.38,316,71.31Z"/><path class="cls-4" d="M136,25.22a12.57,12.57,0,0,0-8.85-4.67s-5.32-5.49-10.89-5.41-7.71,1.64-10.66,3.44c0,0-34.16,38.72-41.42,48.92s-39,55.55-47.19,69.2-7.87,16-7,17.57,5.9,6.27,11.18,6.15S28,154.15,28,154.15s26.67-42.4,31.71-47.32c0,0,3.19,6.39,12.78,5.9s28.88-1.72,33.06-3.44v35.64s2.59,7.62,10,8.24,8.6-3.94,8.6-6.89.86-35.76,1.44-43.38c0,0,5.32-2.22,5.32-5s-.9-5.9-4.34-7.62c0,0,4.83-36.55,7.46-46.87S138.68,28.74,136,25.22Zm-28.51,66C89.1,98,65.67,98.47,65.67,98.47c9.67-16.71,48.51-56.37,48.51-56.37C112.21,52.09,107.46,91.26,107.46,91.26Z"/><path class="cls-5" d="M184.79,36.28a27.32,27.32,0,0,0-8.42,3.44c-4.79,2.83-19.48,10.63-20.53,11.13s-5.1,3.44-3.25,7.12,6.63,6.15,10.51,4.92,15.18-7.5,20.64-8.6,9.41-2.58,10.39-3.57,3-5.22.37-8.36S188.85,36.34,184.79,36.28Z"/><path class="cls-6" d="M171.33,86.92s-10.45,15.24-13.64,19.3-10.94,17.08-12.05,23.35-.37,10.2,3.94,8.6,16.83-15.61,19-20.65,4.18-8.72,6.76-8.6,5.9,2.34,4.91,5.78-11.18,22.24-18.06,27-11,7.37-17.06,6.76-13.92-8.61-14.66-16.1,4.31-22.13,5.9-26.06,13.16-27.41,17.7-30.85,8.73-3.44,13.52-1.72S175.19,81.33,171.33,86.92Z"/><path class="cls-7" d="M284.28,30.79s-14.09,24.91-17.2,28.35-6.56,9.79-5.74,13.5,6.56,9,14.26,7.81,16.88-15.24,16.88-15.24,11.47-15.9,13.93-21,5.73-10.65,5.24-13.44-3.11-9-7.54-11.31A21.17,21.17,0,0,0,296.25,17s-8.85-6.71-11.15-7.21-6.71-.32-12.29,2-35.95,15.4-44.11,28.84-11.93,25.73-10.13,35.89,7.87,21.47,13.93,30,8.36,18.36,5.57,21.14-5.9,5.74-14.75,4.43S205,126.5,202,125s-8.52-3-12.29-1.64-4.92,4.59-2.79,8,23.11,21.63,53.92,18.85,19.5-33.27,17.2-36.71-19.83-27-17.2-41.95S248.72,45.7,284.28,30.79Z"/><path class="cls-8" d="M328.35,34.87s-4.3-.62-7.87,4.18-5.16,9.52-2.64,13.45,9,8,15.12,7.81,9.09-5.84,9.58-8.42,1.36-9.71-3.19-13.15A19.13,19.13,0,0,0,328.35,34.87Z"/><path class="cls-9" d="M318.45,69.83s-5.16-4.42-10.94-3.07S290.18,85.44,288,90.11s-13,24.59-13.27,35.4,2.09,22.25,14.5,22.25,22.5-9.71,22.5-9.71h3.07s.12,4.67,1.84,5.65,4.55,4.18,5.41,5.17,4.05,2.09,5.65,0,31.51-42.2,41.67-47.12c0,0-10.33,19.83-11.8,27.37s1.8,12.13,4.92,13.76,5.57,3.61,9.83,0,11-15.24,11-15.24,8.19-9.17,17-15.07c0,0-7.21,18-4.75,25.73s5.73,11.63,14.58,10.81,16-6.27,28.77-17.45a172.37,172.37,0,0,0,21.2-21.82c.67-.92,2.27-3.56,1.23-5.22s-4.06-3.32-5.72-3.14-22.49,18.62-26.55,21.64-11.8,8-12.47,8.29,5-18.07,6.08-21.38,3.65-8.4,5.12-10,2.54-2.79,1.93-5.24-4.22-7-9.57-4.84-23.54,12.6-30.79,18.56c0,0,2.52-13.89,3.57-17.08s2.58-7.19,2.21-9.59-4.3-6.15-7-6.21-10,4.43-14.07,7.62-24.27,22.31-32,33.13c0,0,4.55-15.86,13-26.43s12.05-14.26,12.54-17.21-1.72-8.6-6.15-10.57-11.06-4.3-21.75,15.37-14,30-14,30-24.46,28-34.3,29.37,4.43-25.44,7.87-30.48,19.67-21,21.51-25.69S321.4,72.91,318.45,69.83Z"/></g></g></svg>