<?xml version="1.0" encoding="utf-8"?>
<!-- Generator: Adobe Illustrator 23.0.1, SVG Export Plug-In . SVG Version: 6.00 Build 0)  -->
<svg version="1.1" id="Layer_1" xmlns="http://www.w3.org/2000/svg" xmlns:xlink="http://www.w3.org/1999/xlink" x="0px" y="0px"
	 viewBox="0 0 461.6 121.9" style="enable-background:new 0 0 461.6 121.9;" xml:space="preserve">
<style type="text/css">
	.st0{fill:#FFFFFF;}
</style>
<title>Asset 20</title>
<g>
	<path class="st0" d="M317.5,69.6c1.6-3,7.3-13.5,10.9-18.1c4.2-5.5,8.2-11.1,11.8-17c2.2-3.8,8-12.6,9.9-15.3s4.4-6.9,7.7-9.8
		c0,0-0.3-0.4-2.6-0.3c-2.8,0.1-5.6,0-8.3-0.3c-2.5-0.3-9-0.5-12.1-0.6c-3.2-0.1-5.6-0.2-6,0c-0.4,0.2-5.2,5.2-5.7,5.7
		S307,29,307,29s-8.2,7.6-8.6,7.6s-11,10.9-11,10.9l-11.6,11.7l-10.1,10.1c0,0-0.7-6.1,0.1-7.2s1-4.6,0.9-5.4
		c-0.1-0.8,1.2-4.2,1.1-4.9c-0.2-0.7,1.3-2,1.7-3.9c0.4-1.9,0.2-3.4,1.2-4.6s0.3-3.4,0.2-4.5s1-4.7,1.1-6.2
		C272,31.1,276,22,276,21.1c0-0.9-0.5-4.5,0.2-5.6c1-2.4,1.9-4.8,2.5-7.3c-0.1-0.3-3.3,0.8-5.6,0.9c-2.3,0.2-5-1.1-6.6-1
		c-1.6,0.2-7.5,0.7-8.2,1c-0.7,0.3-1.2,0.8-1.7,1.3c-0.6,0.9-8.6,11.1-12.5,17.3c-3.9,6.2-13.3,23-15.3,25.6
		c-2,2.6-13.2,20.3-14.2,21s-9.3,12-9.8,12.8c-0.5,0.8-5.7,8.1-6.7,9.2s-6,7.6-6,7.6v1c2.2,0.4,4.4,0.6,6.7,0.5
		c3.2-0.1,6,1.3,6.9,1.5c0.8,0.2,5.3,0.1,6.5,0.2c1,0.2,2.1,0.2,3.1,0c0.7-0.3,3.1-3.3,4.5-6.1c1.4-2.7,6.7-11.3,7.4-12.3
		s4.9-5.9,5.1-6.5c0.2-0.6,0.7-1.9,0.7-1.9c1.5-1.2,2.8-2.5,4-4c1-1.6,4.3-7.8,4.3-7.8c-0.2,3.6-0.5,7.2-1.1,10.7
		c-0.9,4.5-1.6,9.1-2,13.6c-0.5,4.1-1.3,8.2-2.3,12.2c-0.4,1.2-1.6,5.5-1.3,8.4s-0.2,3.7,1.9,3.6c2.1-0.1,4.4,0.5,4.8,0
		c0.4-0.5,3.6-2.9,3.9-3.7c0.3-1.1,1-2,1.9-2.6c1.1-0.7,6.1-4,8.6-7.5c2.5-3.5,7.9-10.3,11.7-13.3c3.8-3.1,11.9-11.6,21.6-18
		c0,0-6.8,9.2-7.3,10.7c-0.4,1.5-4.2,7.3-4.2,7.3c-1.2,1.5-2.3,3.2-3.3,4.9c-0.5,1.3-2.1,5.1-3.7,6.4c-1.8,1.5-3.5,3.3-5,5.1
		c-0.7,1.1-3.9,4.5-4,5.4c-0.1,0.9,1.5,2.5,5.6,2.1c4.1-0.4,15.3,0.3,17,0.1c1.3-0.1,2.5-0.8,3.1-1.9c0.6-1.1,7.4-12.2,8.1-12.9
		s12.4-16.5,12.4-16.5S315.9,72.6,317.5,69.6z M294.7,88.3c-0.8,0.9-5.6,8-6.4,8.9c-0.8,0.9-5.7,9.4-5.7,9.4l-6.5-0.4
		c0,0,4.6-7.8,5-8.2c0.4-0.4,7.2-12.2,7.6-13.4c0.4-1.2,2.2-3.2,2.7-3.9c0.5-0.6,21.4-31.3,21.4-31.3l13.9-22.1
		c0,0-26.3,25.1-29.1,27.5c-2.8,2.4-27.8,23.4-33.9,29.5c-6.1,6.1-16.4,18.1-18.7,19.8c-2.3,1.7-2.2-0.9-2.1-1.8
		c0.1-0.9,1.8-6.1,3.3-15.5c1.5-9.3,4.7-24.3,6.2-30c1.6-5.8,4.4-21.4,4.4-21.4l-10.3,14.1c0,0-11.4,16.5-13,19.1
		c-1.6,2.6-4.3,5.8-4.5,6.3s-4.5,7.3-7,9.7c-2.5,2.4-9.5,15.3-9.5,15.3h-2.2c-0.8,0-5.3-1-5.3-1s9.2-12.6,10.8-14.5
		s19.5-28.2,20.7-29.9c1.2-1.7,8.9-15,10.4-17.8c1.5-2.9,13.9-20.2,14.3-20.5c0.3-0.3,4.7-0.8,6.1-0.7c1.4,0.1,1.5,1.7,1.5,3.9
		c0,2.1-2.5,9-2.9,10.1c-0.7,3-1.2,6.1-1.5,9.1c0,1-2.6,7.9-3.1,8.7S258.3,65,258.3,66c-0.3,1.5-1,2.9-1.9,4
		c-0.9,1.1-3.1,17.3-3.1,17.3c3-3.1,30.2-28.7,30.5-29c0.3-0.3,3.2-4.9,6.2-7.6c3-2.7,21.9-20.1,23.3-20.4s1.9-1.6,2.3-2.4
		c0.5-0.8,12.3-12.5,13-12.8c0.7-0.2,4.3,0.1,6.6,0.3s8.1,0,8.4,0s-2,3.5-2.2,4c-0.2,0.5-9.9,15.1-10.7,16.3
		c-0.9,1.2-5.5,8.8-6.2,8.9c-0.7,0.1-11.5,18.5-12.7,19.7c-1.2,1.2-2.1,4.4-2.7,5.4S295.5,87.4,294.7,88.3z"/>
	<path class="st0" d="M198.2,85.7c1.1-0.6,2.8-4.5,4.1-6.6c1.3-2,9.2-16.2,10.1-16.4c1.1-0.1,2-0.9,2.2-2c2.1-4.9,4.6-9.6,7.5-14.1
		c2-2.6,4.9-5.9,5.4-7.1c0.5-1.2,7.3-7.9,7.8-9.1c2-4.3,4.2-8.4,6.7-12.3c2.4-3.5,5.4-6.5,5.5-7.3c0.1-0.7-1-1-3.1-0.8
		c-3.6,0.2-7.1,0.2-10.7-0.1c-1.5-0.3-3-0.4-4.5-0.2c-1.4,0.3-3.1-0.4-5.9,0.2s-4.2,0.7-4.2,0.7l-1.4,3c0,0-8,13.9-8.8,14.6
		c-2,2-3.8,4.2-5.5,6.5c-1,1.5-4.8,6.2-5.1,7.5c-0.4,1.2-8.2,12.4-8.6,13.1s-2.3,7.2-3.3,8.2c-1,1-3.2,4.6-4.4,5.8
		c-1.2,1.1-3.2,2-3.5,2.7s-3.2,7.8-3.8,8.7c-0.6,0.8-7.3,12-8.1,12.7c-1,0.8-1.9,1.8-2.6,2.9c-0.6,1.2-3.9,6-4.5,6.3
		c-0.6,0.3-2.3,1.9-1.1,3.4c1.2,1.5,2.2,1.7,4.2,1.6c2-0.1,16.1-0.5,17.6-0.7c2-0.4,3.7-1.4,5-2.9c1.5-1.8,8.1-10.9,9.7-13.5
		C196.4,87.7,197.1,86.4,198.2,85.7z M179.8,99.1c-0.7,0.7-4.3,0.7-6.6,0.9c-2.3,0.2-1.5-1.6-0.8-2.8c0.6-1.2,4.4-6.6,6.6-10.2
		c2.2-3.6,6.8-11.3,6.8-11.3s5.7-6.9,8.1-11.3s5.7-11.1,9.9-17.4c3.7-5.5,7.8-10.8,12.2-15.8c3.8-4.6,7.7-14.4,7.7-14.4
		c0.2-0.4,6.3-0.3,9,0c2.7,0.3,2.2,0.3,2.2,0.8s-2.6,3.2-3.8,5.4c-1.3,2.2-1.5,4.3-3.3,6.4c-1.7,2.1-4.1,3.8-5.4,5.4
		s-9.9,14.4-10.8,16.1c-0.9,1.7-2.9,6.5-3.8,7.5c-1.8,2.5-3.5,5.1-4.9,7.8c-1.2,2.3-10.3,15-11.8,17.1
		C189.4,85.5,180.6,98.3,179.8,99.1z"/>
	<path class="st0" d="M171,62.1c1.5-2.4,5.7-7.6,7.1-8.3c1.4-0.7,3.5-4.7,4.2-6.2c0.6-1.5,4-6.2,6.9-10.3c2.9-4.1,7.3-12.4,8.9-15.2
		c1.7-2.8,9.1-12.1,9.1-12.1S207,9.3,205,8.8c-2-0.5-5.1-0.1-6.5-0.1c-1.5,0-5.9-0.4-10.3-0.6c-2.8-0.1-5.6,1-7.5,3.1
		c-0.7,0.8-5.6,7.2-7.2,9c-1.5,1.8-3.7,7-5.3,9.3c-1.6,2.3-6.9,10.2-7.5,11.8c-1.1,2.7-2.6,5.2-4.4,7.4c-1.6,1.7-6.5,10.6-6.4,8.9
		c0.1-1.7,1.6-11.2,1.8-12.3s0.9-5.8,1.1-7.2c0.3-1.4,2.1-11.7,2.3-14.1c0.2-2.5,2.5-5.5,3-6.9c0.5-1.5,3.1-7.1,3.7-7.8
		c0.6-0.6-1.3-0.9-3.1-1.3c-1.9-0.4-5.8,0.2-8.5-0.2c-3.3-0.5-6.7-0.6-10-0.4c-2.4,0.4-6.4,6.6-6.9,7.8c-1.4,3.1-3.1,6.1-4.9,9
		c-1.2,1.6-5.2,7.6-6.5,9.7c-1.3,2.1-7.5,12.4-7.9,13.4s-12.1,18.3-13,20.4c-1.1,2.2-2.5,4.3-4.2,6.2c-0.6,0.7-9.3,14.8-10.4,17.8
		c-1.1,3-5.3,10-7.8,11.7c-1.5,1-2.2,2.8-1.7,4.5c0.1,0.5,4.2,0.5,5.5,0.5c1.4,0,10.5-1.2,12.4-1.1s3.5-1.2,4.4-1.5s3.5,0,5-0.5
		s2.6-4.3,3.3-5.5c0.6-1.2,2.8-4.9,3.5-6.1c0.7-1.2,2.8-9,5.4-13.2c2.6-4.2,9.2-10.7,9.2-10.7s-1.1,8.7-2.4,12.2
		c-1.1,3.7-1.7,7.5-1.8,11.4c0,1.9-1.3,11.6-1.2,12c0.1,0.4,2.1,0,5.3-0.2c3.2-0.2,7.5,0.7,9.8,0.7c2.3,0,5.1-1.3,7.8-1.3
		c2.7,0,2.2-2.2,2.5-2.9s1.1-1.3,1.9-2.7c0.7-1.4,3.6-6.4,3.6-6.4s6.3-10.2,7.8-12.7C160.4,77.5,169.5,64.4,171,62.1z M142,93.7
		l-2.7,4.8h-10.6c0,0-0.1-7,0.4-9s2.6-10,2.9-13s2.9-21.4,3.2-24.1s0.9-9.6,0.1-13c0,0-10.4,18.2-11.9,20.1c-1.5,1.8-4.4,6-5.5,7
		c-1.1,1-7,10-8,11.4s-3.5,8.4-4.4,10.6s-3.3,5.3-3.9,6.6c-0.6,1.4-0.5,3.6-1.6,3.8s-4.2,0.8-6,1.1c-1.2,0.1-2.4-0.2-3.4-0.9
		c0,0,4.9-10.5,9.2-16.3s7.3-11.2,8.6-13.1c1.2-2,2.1-3.4,2.1-3.4c0.9-2.5,2.3-4.8,4-6.8c2.8-3.2,6.6-8.4,7.1-10.3
		c0.5-2.2,1.5-4.3,2.8-6.1c2.1-3.2,10.4-14.9,11.6-16.6c1.3-2.1,2.2-4.4,2.8-6.7c0.5-1.8,3.2-4.6,3.2-4.6s0.5-0.7,3.7-0.3
		c3.2,0.4,5.4,0.5,5.4,0.5c-1.5,1.8-2.5,4-3,6.2c-0.5,3.2-3.3,23.7-3.8,25c-0.5,1.2-2.6,12.4-3.5,18.4s-1.6,18.2-1.6,18.2
		s9.7-12.2,11.9-15s10.8-14.4,12-16.1c1.5-2.3,2.8-4.8,3.8-7.3c0-0.4,13-21.7,15.1-24s3.8-4.7,3.8-4.7s5.5-0.3,6.9-0.2
		c1.5,0.1-2.3,5.9-2.3,5.9s-5.7,10.5-6.9,12.2c-1.2,1.7-7.8,10-8,10.5c-0.2,0.6-0.6,3.6-1.2,4c-0.7,0.4-6.5,7.1-16.3,21.5
		S142,93.7,142,93.7z"/>
	<path class="st0" d="M358,58.4c-3.2,3.7-10.9,15.5-10.9,15.5l-2.7,4.6c0,0,12.6,0.3,14.5,0.4c1.9,0.1,4.8,0,4.8,0s6-9.8,6.8-12.5
		s7.8-17.1,7.8-17.1l6.9-17.5C385.3,31.8,361.2,54.7,358,58.4z M368.5,54.9c-0.5,3.3-3.3,9.7-3.3,9.7l-4.2,8h-5.8
		c0,0,4.6-6.7,6.6-9.8C363.9,60,366.1,57.4,368.5,54.9z"/>
	<path class="st0" d="M461.4,8.4c-1.5-0.2-3.1-0.5-4.5-1c-1.3-0.7-5.6-0.1-6.4,0c-0.8,0.1-7.8-0.2-9.1,0c-2.4,0.2-4.6,1.4-6.1,3.3
		c-2.4,2.9-13,21.8-13.2,22.3c-0.1,0.5-2.7,6.3-3.1,6.7c-0.5,0.4-11.3,17.4-12,17.9s-7.2,10.1-8.6,12.3c-1.4,2.2-16,25.7-16.5,26.4
		c-0.4,0.7-1.7,3.8-2.5,4.5c-0.8,0.6-4.6,6.5-4.6,7.5c0,1,0.3,2.9,5.7,2.9s14.8-0.9,19.2-1.3c4.3-0.4,13.8-0.1,17-0.8
		c3.2-0.7,11.6-1.1,13.3-1.4c1.7-0.2,4.9-0.7,6.2-2.5s8.2-12.3,8.8-13.7c0.6-1.4,2-4.3-1-4.4s-10.8,1.2-13.5,1.9
		c-3.8,0.7-7.6,1.3-11.5,1.6c-1.7,0.1-6.2,0.7-5.7-0.6c0.5-1.2,10.8-20.1,11.4-20.8c0.6-0.7,1.1-2.3,2-3.1c2.3-2.7,4.3-5.6,6-8.6
		c0.3-1,3.3-4.2,3.5-4.7c0.2-0.4,2-2.9,2.6-3.8c1-1.6,1.7-3.4,2.3-5.2c1-2.2,2.2-4.2,3.8-6c1-1.3,1.8-2.7,2.3-4.2
		c0.8-1.9,1.7-3.8,2.8-5.5c0.8-1.3,9.5-15.2,9.8-15.8C460.1,11.6,462.2,8.5,461.4,8.4z M440.7,31.1c-0.3,0.7-6.4,10.1-6.5,11.1
		c-0.1,1-11.9,17.6-12.6,18.3c-0.7,0.7-9.9,16.6-10.5,18.6s-8.9,17.5-8.9,17.5s2.5,0.1,3.4,0.1s12.1,0.6,13.7,0.7s14.2-1,14.2-1
		c-0.9,1.4-1.9,2.7-2.9,4c-0.4,0.2-1.7,0.4-7.3,0.6c-5.6,0.2-11.6,1.3-17.5,1.5c-5.9,0.2-14.2,1-16.4,1.3s-2.2-0.9-1.1-2.9
		c0.9-1.5,2.3-2.5,4-2.7c0.8-0.2,0.4-4.5,0.6-5.2c0.1-0.7,9.1-14.7,9.1-14.7s8.3-13.5,9-14.2c1.6-1.6,3-3.4,4.2-5.4
		c0.8-1.6,4.1-7.8,4.1-7.8s9.1-13.2,9.3-14.2s5.7-10.4,6.2-11.3c0.5-0.8,6-10.8,6-10.8s9.6-0.5,9.8,0
		C450.7,15.2,441.1,30.4,440.7,31.1z"/>
	<path class="st0" d="M387.5,60.8c1.9-3.4,5.6-11.9,7.4-15.9c1.8-4,4.9-11.3,5.6-11.9c0.7-0.7,3-6.1,3.7-7.6
		c0.7-1.5,5.8-10.3,5.8-10.3s3.4-4,0.7-4.8c-2.7-0.7-9.3,0.1-12.1,0.3c-2.8,0.2-7.1-0.6-10.7-1.3c-2-0.5-4.1-0.2-6,0.8
		c0,0-5.1,6.5-7.1,8.8c-1.3,1.5-2.4,3.2-3.1,5c-0.2,0.6-3.4,3.4-4.7,4.6c-0.9,0.9-1.4,2.1-1.4,3.4c0,0.1-3.2,4.4-3.2,4.4
		s-7.7,8.3-8.7,9.3s-4.6,5.8-5.8,7.3c-1.2,1.6-8.7,10.1-10.5,12.4c-1.7,2.4-3.2,4.9-4.5,7.5c-0.1,0.2-7.2,1.2-9.2,0.8
		s-3.6,3.1-4.7,3.8c-1.1,0.7-6.7,9.3-8.2,11.8c-1.5,2.5,0.1,3.7,0.7,4.1c1.1,0.4,2.3,0.3,3.4-0.1c0.7-0.3,1.4-0.3,2.1-0.1
		c0,0-10,12.9-11.7,14.7c-1.7,1.8-1,2.3-0.9,2.7c0.2,0.4,7.4,0.2,11.4-0.6c3.3-0.5,6.7-0.7,10-0.7c1.5-0.2,3-0.7,4.3-1.3
		c0.4-0.2,2.3-2.3,5.1-6.1c2.8-3.8,7.8-9.7,7.8-9.7c0.2-0.3,3.1-0.1,4.7-0.1c1.5,0,1.5,0.4,1.5,0.7c0,0.3-2.7,5.1-3.6,6.8
		c-0.9,1.7-5.1,9.1-5.1,9.1c1.3,0.4,2.7,0.7,4.1,0.7c2.1,0,4.7,1.1,7.1,1.6c2.4,0.5,3.6-1,5-1.4s4.8,0.7,6.4,0.6s2.1-2.7,2.2-3.7
		c0-1,2.8-7.1,4-9.9c1.2-2.8,7.8-15.8,9.4-18.1C380.3,76,385.6,64.2,387.5,60.8z M366.2,87.2l-6.5,14.6c-0.8,0.1-1.6,0.2-2.4,0.2
		c-1.2,0-4.4,0.5-4.4,0.5l2.8-6l6.1-13.7c-2.2,0-4.4,0.3-6.5,0.8c-3.1,0.7-6.2,1.2-9.3,1.4c-0.8,0.1-3.4-1.4-3.9-1.4
		c-1,0.3-1.9,0.8-2.8,1.4c-0.3,0.4-9.6,12.9-9.6,12.9l-4.3,4.2h-6.2c0,0,8-10.2,10.2-12.8c2.2-2.6,8.9-12.1,13.9-19.3
		c5-7.2,20.8-25,20.8-25l9.2-10l0.4-2.2c0,0,3.3-4,4.3-4.6c0.8-0.7,1.4-1.5,1.6-2.5c0.2-0.5,7-10,7-10s4.1,1.6,5.6,2
		c2.8,0.3,5.6,0.4,8.5,0.4c0,0-6.2,10.6-6.8,11.9c-0.6,1.3-7.3,17.9-8,19.5c-0.6,1.5-10.8,20.4-12.3,22.9
		C372,74.7,366.2,87.2,366.2,87.2z"/>
	<path class="st0" d="M81.7,83.3c1.6-2.9,3.8-10.3,3.8-10.3c1.5-1.6,2.9-3.3,4.2-5.1c0.7-1.4,3-5.8,4.9-10c1.9-4.3,1.7-5,2.1-5.2
		s2.1-4,2.7-4.9c0.8-1.3,1.5-2.8,1.9-4.3c0.1-0.9,0.4-1.5,1-1.6s3.8-10.6,3.8-10.6c0.5-0.5,1.1-1.1,1.5-1.7
		c0.6-0.8,4.7-9.5,7.5-13.1c2.8-3.7,6.3-13.1,6.3-13.6s-1.3-0.6-2-0.6c-0.7,0-2.8-1.2-3.3-1.2S111,0.1,110.6,0
		c-1.4,0.4-2.8,0.8-4.2,1.4c-2.1,0.3-4.3,0.2-6.4-0.4c-2.9-1-5.3-1-5.8-0.7s-3.6,4.1-3.6,4.1s-5.4,7.3-5.8,7.7
		c-0.4,0.4-8.7,8.6-10.6,11s-10,13.6-10.9,15c-1.6,2.4-3.3,4.7-5.1,6.9c-1.6,1.6-18.1,23.8-18.1,23.8s0.3,0.3-3.8,0.8
		c-4.1,0.6-10.4-0.2-11.9,0c-1.5,0.2-1.8,2.8-3.1,4.7c-1.5,2.2-2.9,4.4-4.2,6.8c-0.7,1.4-3.5,4.8-5,7.1c-1.5,2.3,0.3,1.4,2,2.1
		c1.7,0.7,6.2,0.8,6.2,0.8s-6.6,10-8.2,11c-0.9,0.5-1.5,1.4-1.7,2.5c-0.3,0.7-3.8,4.8-3.2,4.7c0.7-0.1,6.8,0.1,9.6,0
		c2.9-0.1,5.1-0.7,6.4-0.8c1.3,0,2.4,0,4,0c1.5,0,5.5,0,6.7-0.4c1.2-0.4,2-1.6,2.7-3.1c1.2-2.2,2.7-4.3,4.4-6.1
		c1.6-1.7,4.9-7.8,4.9-7.8v-0.8c0.6,0.2,1.2,0.5,1.8,0.8c1,0.6,5,0.7,5,0.7s-0.7,2.4-2,6c-1.3,3.6-6,11.1-6,11.1
		c0.6,0.4,1.3,0.6,2,0.4c2.1-0.1,4.2,0.1,6.3,0.6c2.1,0.5,11.9,0.3,12.7,0c0.8-0.3,5.8,0,5.8,0l1.5-7.9l1.4-0.6l2.8-7.4
		C78.6,90.4,80.1,86.8,81.7,83.3z M74,83.6c-0.2,1.2-8.5,19.6-8.5,19.6l-9.6,0.4c0.7-1.6,7.8-18,7.8-18s-9-0.1-11.5-1
		c-2.5-0.9-8.3-1.1-8.7-1c-0.4,0.1-4.7,5.8-5.6,7.8c-0.9,2-7.6,9.9-7.6,9.9l-8-0.4l1.6-1.6c0,0,14.3-15.7,14.7-16.2
		s-0.4-0.8-2.3-1.3c-1.8-0.4-6.5,1.1-7.7,1.3c-1.1,0-2.3-0.2-3.3-0.7c0,0-0.4-1.5,0-1.9s3-3.8,3-3.8c2.3,0.2,4.5,0.2,6.8-0.1
		c2.4-0.3,4.8-0.4,7.3-0.3l4.8-5.6c1.2-1.4,2.5-2.7,3.9-3.8c0.4-0.3,9.5-12.7,11.1-15s14.2-19.4,16.4-22.5s7.2-6.6,7.8-7.7
		c0.8-1.2,1.8-2.1,3-2.9c0.3-0.1,7.6-10.5,8-10.9c0.4-0.4,3.7,0.6,5.6,0.8c2,0.2,7.1-0.8,8.3-0.8c1.2,0.1-0.3,2-0.6,2.6
		c-0.3,0.6-8.8,14.3-8.8,14.3s-6.8,13.4-7.3,14.3s-1,5.7-2,6.8c-1.3,1.7-2.4,3.6-3.2,5.6c-0.7,2.2-1.6,4.3-2.7,6.3
		c-1,1.5-2.5,5.6-3.6,6.9c-1.1,1.3-4.8,7.4-5,9.1S74.2,82.4,74,83.6z"/>
	<path class="st0" d="M80.5,55.1c0.3-0.9,1.2-4.8,1.8-5.6c0.6-0.8,0.6-3.6,0.6-4c0-0.4,0.9-3.4,0.9-3.4s7.7-12.6,7.8-13.6
		c0.1-1-0.3-2.6-1-1.7L79.3,40.4c0,0-11.3,11.6-11.7,12.6s-4.8,6.8-5.1,7.8c-0.7,1.4-1.5,2.7-2.3,4h-1.7l-8.6,11.9
		c0,0,8.8-1,9.9-0.8s6.5,2.1,8.2,2.2c1,0,1.9-0.5,2.3-1.5c0,0,7.3-13.9,8.1-16C79,58.4,80.2,56,80.5,55.1z M66.2,69.2
		c-1.3-0.5-2.5-1.1-3.7-1.8c-0.4-0.5,1.8-2,3.2-3.4c1.5-1.4,6-8,6-8C70.4,60.6,68.5,65,66.2,69.2z"/>
</g>
</svg>
