<svg xmlns="http://www.w3.org/2000/svg" viewBox="0 0 461.6 121.91"><defs><style>.cls-1{fill:#d63e30;}.cls-2{fill:#ef8e25;}.cls-3{fill:#fccd00;}.cls-4{fill:#ee8c26;}.cls-5{fill:#fbca00;}.cls-6{fill:#ee8b26;}.cls-7{fill:#ee8b29;}.cls-8{fill:#ee8b28;}</style></defs><title>Asset 20</title><g id="Layer_2" data-name="Layer 2"><g id="Camada_1" data-name="Camada 1"><path class="cls-1" d="M455.06,12.32a19.29,19.29,0,0,1-4.52-1c-1.35-.67-5.6-.06-6.38,0s-7.81-.18-9.1,0a8.4,8.4,0,0,0-6.11,3.3c-2.39,2.94-13,21.84-13.15,22.33s-2.66,6.3-3.14,6.72-11.31,17.39-12,17.88-7.17,10.11-8.56,12.31-16.06,25.69-16.47,26.42-1.71,3.84-2.53,4.49-4.65,6.52-4.65,7.5.33,2.94,5.71,2.94,14.84-.9,19.16-1.31,13.79-.08,17-.81,11.58-1.15,13.29-1.39,4.89-.65,6.2-2.45,8.15-12.31,8.72-13.7,2-4.32-1-4.4S426.87,92.33,424.1,93a107.52,107.52,0,0,1-11.44,1.63c-1.69.08-6.18.65-5.69-.57s10.77-20.14,11.34-20.8,1.06-2.28,2-3.09a59.55,59.55,0,0,0,5.95-8.65c.32-1,3.34-4.24,3.5-4.65s2-2.93,2.61-3.83a23.67,23.67,0,0,0,2.29-5.22,22.74,22.74,0,0,1,3.83-6,12.55,12.55,0,0,0,2.28-4.24A36.27,36.27,0,0,1,443.58,32c.82-1.3,9.46-15.16,9.79-15.82S455.86,12.43,455.06,12.32Z"/><path class="cls-2" d="M461.42,8.41a19.29,19.29,0,0,1-4.52-1c-1.35-.67-5.6-.06-6.38,0s-7.81-.19-9.1,0a8.36,8.36,0,0,0-6.11,3.3c-2.39,2.94-13,21.83-13.15,22.32s-2.66,6.3-3.14,6.73-11.31,17.39-12,17.88-7.17,10.11-8.56,12.31S382.43,95.6,382,96.33s-1.71,3.83-2.53,4.48-4.64,6.53-4.64,7.51.32,2.93,5.7,2.93,14.84-.9,19.17-1.3,13.78-.08,17-.82,11.58-1.14,13.29-1.38,4.89-.66,6.2-2.45S444.4,93,445,91.6s2-4.32-1-4.4-10.76,1.22-13.53,1.87A107.52,107.52,0,0,1,419,90.7c-1.69.08-6.18.66-5.69-.57S424.1,70,424.67,69.34s1.06-2.28,2-3.1a58.94,58.94,0,0,0,6-8.64c.32-1,3.34-4.24,3.5-4.65s2-2.94,2.61-3.83a23.67,23.67,0,0,0,2.29-5.22,23,23,0,0,1,3.83-6,12.37,12.37,0,0,0,2.28-4.24,35.74,35.74,0,0,1,2.77-5.54c.82-1.31,9.46-15.17,9.79-15.82S462.22,8.52,461.42,8.41Z"/><path class="cls-3" d="M440.73,14.71s-5.54,9.94-6,10.76-6,10.27-6.2,11.25-9.3,14.19-9.3,14.19-3.26,6.2-4.07,7.83a32.85,32.85,0,0,1-4.24,5.38c-.66.65-9,14.19-9,14.19s-9,14-9.14,14.68.25,5.05-.57,5.22a5.52,5.52,0,0,0-4,2.69c-1.06,2-1.06,3.18,1.14,2.93s10.52-1.14,16.39-1.3,11.82-1.23,17.45-1.47,6.93-.49,7.34-.65a35.51,35.51,0,0,0,2.93-4s-12.55,1.06-14.18,1-12.89-.65-13.7-.65-3.35-.08-3.35-.08,8.24-15.5,8.89-17.54S421,61.27,421.65,60.53s12.48-17.37,12.56-18.34,6.19-10.36,6.52-11.09,10-15.9,9.79-16.39S440.73,14.71,440.73,14.71Z"/><path class="cls-1" d="M403.87,14.74c-2.69-.73-9.25.14-12.06.35s-7.1-.61-10.69-1.35a8.87,8.87,0,0,0-6,.76S370,21,368,23.28a16,16,0,0,0-3.1,5c-.17.57-3.35,3.42-4.69,4.58a4.81,4.81,0,0,0-1.35,3.37c0,.12-3.18,4.34-3.18,4.34s-7.7,8.32-8.74,9.36-4.59,5.75-5.81,7.34-8.69,10.09-10.52,12.41a63.06,63.06,0,0,0-4.53,7.46c-.12.25-7.21,1.16-9.16.8s-3.56,3-4.66,3.79-6.73,9.29-8.19,11.8.06,3.73.73,4.1a4.58,4.58,0,0,0,3.36-.12,3.26,3.26,0,0,1,2.15-.13s-10,12.91-11.69,14.68-1,2.33-.85,2.69,7.4.19,11.37-.55a59,59,0,0,1,10-.67,15.49,15.49,0,0,0,4.34-1.35c.43-.18,2.27-2.32,5.08-6.11s7.77-9.73,7.77-9.73c.23-.27,3.14-.14,4.69-.1s1.55.37,1.5.7-2.69,5.13-3.62,6.84-5.06,9.14-5.06,9.14a13.92,13.92,0,0,0,4.08.69c2.12,0,4.73,1.06,7.09,1.59s3.63-1,5-1.43,4.77.7,6.4.57,2.12-2.73,2.16-3.71,2.79-7.13,4-9.88,7.83-15.84,9.36-18.1,6.79-14.07,8.73-17.43,5.58-11.87,7.35-15.9,4.9-11.26,5.63-11.93,3-6.12,3.73-7.58,5.75-10.28,5.75-10.28S406.56,15.48,403.87,14.74ZM358.31,69l-4.16,8h-5.74s4.58-6.67,6.6-9.79a71.41,71.41,0,0,1,6.63-7.89C361.11,62.57,358.31,69,358.31,69Z"/><path class="cls-4" d="M410.72,10.34c-2.69-.74-9.25.14-12.06.35s-7.1-.62-10.69-1.35a8.9,8.9,0,0,0-6,.75s-5.11,6.51-7.1,8.79a15.9,15.9,0,0,0-3.1,5c-.17.57-3.35,3.43-4.69,4.59a4.78,4.78,0,0,0-1.35,3.36c0,.13-3.18,4.35-3.18,4.35s-7.7,8.31-8.74,9.35-4.59,5.75-5.81,7.34-8.69,10.09-10.52,12.42a62.24,62.24,0,0,0-4.53,7.46c-.12.24-7.21,1.16-9.16.79s-3.56,3.06-4.66,3.79-6.73,9.3-8.19,11.81.06,3.73.73,4.1a4.63,4.63,0,0,0,3.36-.13,3.19,3.19,0,0,1,2.14-.12s-10,12.9-11.68,14.68-1,2.32-.85,2.69,7.4.18,11.37-.55a57.91,57.91,0,0,1,10-.67,15.82,15.82,0,0,0,4.34-1.35c.43-.18,2.27-2.32,5.08-6.12s7.77-9.72,7.77-9.72c.23-.28,3.14-.14,4.69-.1s1.54.37,1.5.69-2.69,5.14-3.62,6.85-5.06,9.13-5.06,9.13a13.74,13.74,0,0,0,4.08.7c2.12,0,4.73,1.06,7.09,1.59s3.63-1,5-1.43,4.77.69,6.4.57,2.12-2.73,2.16-3.71,2.79-7.13,4-9.89,7.83-15.84,9.36-18.1,6.79-14.06,8.73-17.43,5.58-11.86,7.35-15.9,4.9-11.25,5.63-11.92,3-6.12,3.73-7.59S410,15.11,410,15.11,413.41,11.07,410.72,10.34ZM365.16,64.58l-4.16,8h-5.75s4.59-6.66,6.61-9.78a71.74,71.74,0,0,1,6.62-7.89C368,58.16,365.16,64.58,365.16,64.58Z"/><path class="cls-5" d="M392.07,17.49c-1.47-.36-5.56-2-5.56-2s-6.85,9.54-7,10A5,5,0,0,1,377.88,28c-1,.61-4.28,4.61-4.28,4.61l-.37,2.24-9.17,10s-15.88,17.8-20.85,25-11.66,16.72-13.87,19.33S319.11,102,319.11,102h6.18l4.34-4.16s9.3-12.53,9.6-12.9A8.46,8.46,0,0,1,342,83.54c.43,0,3.06,1.47,3.86,1.41a62,62,0,0,0,9.29-1.41,27.8,27.8,0,0,1,6.55-.79l-6.12,13.7-2.75,6s3.24-.49,4.4-.49a19.12,19.12,0,0,0,2.39-.18l6.54-14.56s5.85-12.51,7.36-15,11.62-21.32,12.27-22.87,7.42-18.19,8-19.49,6.75-11.93,6.75-11.93A79.42,79.42,0,0,1,392.07,17.49ZM378.37,49.3s-7.09,14.37-7.83,17.06-6.78,12.47-6.78,12.47-2.94.06-4.84,0-14.55-.36-14.55-.36l2.69-4.59S354.83,62.14,358,58.41,385.28,31.8,385.28,31.8Z"/><path class="cls-1" d="M185.18,109.35a35.53,35.53,0,0,0,6.69.53c3.18-.12,6,1.35,6.85,1.55s5.34.08,6.52.24a6.43,6.43,0,0,0,3.1,0c.73-.32,3.1-3.34,4.52-6.07s6.65-11.17,7.42-12.19,4.9-5.89,5.08-6.5S226,85,226,85a26.93,26.93,0,0,0,4-4c1-1.59,4.34-7.82,4.34-7.82a96.74,96.74,0,0,1-1.1,10.7,130.07,130.07,0,0,0-2,13.64A113.57,113.57,0,0,1,229,109.72c-.37,1.16-1.59,5.5-1.29,8.38s-.18,3.66,1.9,3.6,4.4.5,4.77,0,3.61-2.94,3.91-3.74a5.08,5.08,0,0,1,1.9-2.63c1.1-.67,6.05-4,8.56-7.46s7.89-10.27,11.68-13.33,11.93-11.56,21.65-18c0,0-6.85,9.19-7.26,10.74s-4.15,7.34-4.15,7.34a35.56,35.56,0,0,0-3.27,4.89c-.49,1.31-2.12,5.14-3.67,6.45a36.49,36.49,0,0,0-5.05,5.13c-.74,1.14-3.92,4.49-4,5.38s1.55,2.53,5.63,2.12,15.25.33,17,.09a3.79,3.79,0,0,0,3.1-2c.65-1.06,7.42-12.15,8.15-12.88s12.4-16.56,12.4-16.56S309,77,310.59,74s7.26-13.45,10.93-18.1a205.48,205.48,0,0,0,11.82-17c2.2-3.75,8-12.6,9.93-15.29s4.42-6.89,7.72-9.79c0,0-.32-.4-2.61-.28a51.65,51.65,0,0,1-8.27-.25c-2.53-.32-9.05-.48-12.15-.57s-5.63-.2-6,0-5.18,5.2-5.67,5.69-16.15,15-16.15,15S292,41,291.59,41s-11,10.88-11,10.88L269,63.56,258.81,73.64s-.73-6.12.08-7.18,1-4.57.9-5.38,1.22-4.16,1.06-4.89,1.3-2,1.71-3.92.17-3.42,1.23-4.57.32-3.42.24-4.48,1-4.73,1.06-6.2,4.08-10.6,4.08-11.49-.49-4.53.16-5.65a46.66,46.66,0,0,0,2.53-7.27c-.08-.29-3.34.77-5.63.93s-5-1.14-6.6-1-7.5.74-8.24,1a4.64,4.64,0,0,0-1.69,1.32c-.61.86-8.62,11.07-12.54,17.31s-13.33,23-15.29,25.56-13.21,20.31-14.18,21-9.3,12-9.79,12.85-5.75,8.07-6.73,9.17-6,7.58-6,7.58Z"/><path class="cls-6" d="M192,105a35.53,35.53,0,0,0,6.69.53c3.18-.13,6,1.34,6.85,1.55s5.34.08,6.52.24a6.56,6.56,0,0,0,3.1,0c.73-.33,3.1-3.34,4.52-6.07S226.36,90,227.13,89s4.9-5.9,5.08-6.51.67-1.89.67-1.89a26.93,26.93,0,0,0,4-4c1-1.59,4.34-7.83,4.34-7.83a96.51,96.51,0,0,1-1.1,10.7,130.84,130.84,0,0,0-2,13.64,113.12,113.12,0,0,1-2.26,12.23c-.37,1.17-1.59,5.51-1.29,8.38s-.18,3.67,1.9,3.61,4.4.5,4.77,0,3.61-2.93,3.91-3.73a5,5,0,0,1,1.9-2.63c1.1-.67,6.05-4,8.56-7.46s7.89-10.27,11.68-13.33,11.93-11.56,21.65-18c0,0-6.85,9.19-7.26,10.74s-4.16,7.34-4.16,7.34a35.7,35.7,0,0,0-3.26,4.89c-.49,1.31-2.12,5.14-3.67,6.44a37.05,37.05,0,0,0-5.05,5.14c-.74,1.14-3.92,4.48-4,5.38s1.55,2.53,5.63,2.12,15.25.33,17,.08a3.76,3.76,0,0,0,3.1-1.95c.65-1.06,7.42-12.15,8.15-12.89s12.4-16.55,12.4-16.55,8.07-10.27,9.7-13.29,7.26-13.46,10.93-18.1a205.48,205.48,0,0,0,11.82-17c2.2-3.76,8-12.6,9.93-15.29s4.42-6.89,7.72-9.79c0,0-.32-.41-2.61-.28A51.65,51.65,0,0,1,347,8.89c-2.53-.32-9-.49-12.15-.57s-5.63-.2-6,0-5.17,5.2-5.66,5.69S307,29,307,29s-8.19,7.58-8.56,7.58-11,10.89-11,10.89L275.81,59.15,265.66,69.23s-.73-6.11.08-7.17,1-4.57.9-5.39,1.22-4.15,1.06-4.89,1.3-2,1.71-3.91.17-3.43,1.23-4.57.32-3.42.24-4.48,1-4.73,1.06-6.2S276,22,276,21.12s-.49-4.52.16-5.64a47,47,0,0,0,2.53-7.27c-.08-.3-3.35.76-5.63.93s-5-1.15-6.6-1-7.51.73-8.24,1a4.51,4.51,0,0,0-1.69,1.32c-.61.86-8.62,11.07-12.54,17.31s-13.33,23-15.29,25.56-13.21,20.31-14.19,21-9.29,12-9.78,12.84S199,95.28,198,96.39s-6,7.58-6,7.58Z"/><path class="cls-5" d="M205,99s4.47,1,5.32,1h2.15s7-12.9,9.47-15.29,6.73-9.11,7-9.66,2.93-3.73,4.52-6.3,13-19.08,13-19.08L256.73,35.6s-2.81,15.65-4.4,21.4-4.77,20.67-6.24,30-3.18,14.55-3.3,15.47-.25,3.49,2.08,1.77,12.6-13.7,18.71-19.81,31.11-27.15,33.9-29.54,29.09-27.54,29.09-27.54L312.71,49.5s-20.87,30.66-21.36,31.31-2.33,2.73-2.69,3.89-7.22,13-7.59,13.4-5,8.19-5,8.19l6.48.37s4.89-8.5,5.69-9.42,5.62-8,6.42-8.93,13.82-17.49,14.43-18.47,1.47-4.25,2.69-5.42,12-19.53,12.72-19.65,5.38-7.71,6.24-8.93S341.25,20,341.45,19.49s2.49-4,2.19-4-6.06.18-8.38,0-5.87-.55-6.61-.31-12.54,12-13,12.78-.92,2.14-2.33,2.39S293,48,290,50.72s-5.87,7.26-6.2,7.59-27.48,25.93-30.49,29c0,0,2.2-16.14,3.1-17.28A9.35,9.35,0,0,0,258.32,66c0-1,2.45-17.86,2.94-18.67s3.1-7.75,3.1-8.73a74.59,74.59,0,0,1,1.46-9.13c.41-1.06,2.94-8,2.94-10.11s-.16-3.71-1.55-3.85-5.79.34-6.12.67-12.8,17.69-14.26,20.55-9.14,16.14-10.36,17.85S217.31,82.6,215.76,84.48,205,99,205,99Z"/><path class="cls-1" d="M210.87,17.94s-8,13.86-8.81,14.6A62,62,0,0,0,196.55,39c-1,1.47-4.77,6.24-5.13,7.46s-8.2,12.36-8.56,13.09-2.33,7.22-3.31,8.19-3.18,4.65-4.4,5.75-3.18,2-3.55,2.69-3.18,7.83-3.79,8.69-7.34,12-8.07,12.72a12.08,12.08,0,0,0-2.57,2.93c-.61,1.23-3.91,6-4.53,6.3s-2.32,1.9-1.1,3.37,2.21,1.71,4.16,1.59,16.15-.49,17.62-.74a8.38,8.38,0,0,0,5-2.93c1.47-1.84,8.07-10.89,9.66-13.46s2.33-3.91,3.43-4.52,2.81-4.53,4.12-6.57,9.21-16.23,10.11-16.35a2.34,2.34,0,0,0,2.2-2,99.59,99.59,0,0,1,7.5-14.15c2-2.61,4.89-5.87,5.38-7.09s7.26-7.91,7.75-9.14a108.4,108.4,0,0,1,6.66-12.39c2.39-3.49,5.39-6.55,5.45-7.28s-1-1-3.12-.79a104,104,0,0,1-10.7-.06,13,13,0,0,0-4.47-.25c-1.41.31-3.06-.37-5.87.18s-4.22.68-4.22.68Z"/><path class="cls-2" d="M217.71,13.54s-8,13.86-8.8,14.6a62,62,0,0,0-5.51,6.48c-1,1.47-4.77,6.24-5.13,7.46s-8.2,12.35-8.56,13.09-2.33,7.21-3.31,8.19S183.22,68,182,69.11s-3.18,2-3.55,2.69-3.18,7.83-3.79,8.68-7.34,12-8.07,12.73A12.08,12.08,0,0,0,164,96.14c-.61,1.22-3.91,6-4.53,6.3s-2.32,1.9-1.1,3.36,2.2,1.72,4.16,1.59,16.15-.49,17.61-.73a8.4,8.4,0,0,0,5-2.94c1.47-1.83,8.07-10.88,9.66-13.45s2.33-3.91,3.43-4.53,2.81-4.52,4.11-6.56,9.22-16.24,10.12-16.35a2.35,2.35,0,0,0,2.2-2,100.08,100.08,0,0,1,7.5-14.14c2-2.61,4.89-5.87,5.38-7.1s7.26-7.91,7.75-9.13A108.4,108.4,0,0,1,242,18.11c2.39-3.49,5.39-6.55,5.45-7.28s-1-1-3.12-.8a98.61,98.61,0,0,1-10.7-.06,13.28,13.28,0,0,0-4.47-.24c-1.41.3-3.06-.37-5.87.18s-4.22.67-4.22.67Z"/><path class="cls-5" d="M223.5,16.88s-3.83,9.79-7.66,14.35a169.64,169.64,0,0,0-12.15,15.82c-4.16,6.28-7.5,13.05-9.87,17.37s-8.07,11.25-8.07,11.25S181.18,83.42,179,87s-5.95,9-6.6,10.19-1.47,2.94.81,2.77,5.87-.16,6.61-.89,9.62-13.54,11.09-15.66S201.55,68.58,202.7,66.3a61.17,61.17,0,0,1,4.9-7.78c.9-1,2.94-5.84,3.84-7.55s9.45-14.44,10.76-16.07,3.67-3.26,5.38-5.38,2-4.24,3.26-6.44,3.84-4.81,3.84-5.38.48-.49-2.21-.82S223.66,16.5,223.5,16.88Z"/><path class="cls-1" d="M70,112.45A4.17,4.17,0,0,1,71.76,108c2.52-1.71,6.76-8.72,7.82-11.74S89.29,79.1,89.94,78.36a32.21,32.21,0,0,0,4.16-6.19c.89-2.12,12.64-19.41,13-20.39s6.61-11.25,7.91-13.37,5.3-8.07,6.53-9.7a78.8,78.8,0,0,0,4.89-9.06c.49-1.22,4.48-7.42,6.87-7.78a45.69,45.69,0,0,1,10,.4c2.66.36,6.6-.22,8.47.18s3.73.67,3.12,1.31a54.49,54.49,0,0,0-3.71,7.77c-.5,1.47-2.79,4.48-3,6.93s-2,12.72-2.28,14.11-.9,6.11-1.15,7.17S143,60.4,142.94,62.09s4.81-7.21,6.44-8.92a31.39,31.39,0,0,0,4.41-7.42c.65-1.63,5.87-9.54,7.5-11.83s3.75-7.5,5.3-9.29,6.44-8.24,7.17-9a9.53,9.53,0,0,1,7.51-3.11c4.4.17,8.86.6,10.33.6s4.53-.43,6.54.09,2.24,1.2,2.24,1.2-7.43,9.29-9.08,12.1-6.06,11.07-8.93,15.17-6.3,8.81-6.91,10.34-2.76,5.5-4.16,6.17-5.57,5.87-7.1,8.26S153.54,81.87,152.07,84.4s-7.81,12.72-7.81,12.72-2.87,5-3.6,6.44-1.55,2-1.88,2.69.17,2.94-2.53,2.94-5.54,1.3-7.82,1.3-6.61-.81-9.79-.65-5.22.57-5.3.16,1.2-10.07,1.2-12a42.7,42.7,0,0,1,1.84-11.38c1.28-3.49,2.38-12.23,2.38-12.23s-6.56,6.44-9.17,10.68-4.65,12-5.38,13.21-2.85,4.91-3.51,6.13-1.71,5-3.26,5.45-4.16.16-5,.49-2.53,1.6-4.41,1.49-11,1.08-12.39,1.08S70.14,113,70,112.45Z"/><path class="cls-7" d="M76.89,108.05a4.17,4.17,0,0,1,1.72-4.49c2.52-1.71,6.76-8.72,7.82-11.74S96.14,74.7,96.79,74a32.34,32.34,0,0,0,4.16-6.2c.89-2.12,12.64-19.4,13-20.38s6.61-11.25,7.91-13.37,5.3-8.08,6.53-9.71a78.72,78.72,0,0,0,4.89-9c.49-1.22,4.48-7.42,6.87-7.79a46.32,46.32,0,0,1,10,.4c2.66.37,6.6-.21,8.47.19s3.73.67,3.12,1.31-3.2,6.3-3.71,7.77-2.79,4.48-3,6.93-2,12.72-2.29,14.1-.89,6.12-1.14,7.18S149.87,56,149.79,57.68s4.81-7.2,6.44-8.91a31.44,31.44,0,0,0,4.41-7.43c.65-1.63,5.87-9.54,7.5-11.82s3.75-7.5,5.3-9.29,6.44-8.24,7.17-9a9.52,9.52,0,0,1,7.51-3.12c4.4.18,8.86.61,10.33.61s4.53-.43,6.54.09S207.23,10,207.23,10s-7.43,9.3-9.09,12.11-6,11.07-8.92,15.17-6.3,8.8-6.91,10.33-2.76,5.51-4.16,6.18-5.57,5.87-7.1,8.26S160.39,77.47,158.92,80s-7.81,12.72-7.81,12.72-2.87,5-3.6,6.44-1.55,2-1.88,2.69.17,2.93-2.53,2.93-5.54,1.31-7.82,1.31-6.61-.82-9.79-.65-5.22.57-5.3.16,1.2-10.07,1.2-12a42.63,42.63,0,0,1,1.84-11.37c1.28-3.49,2.38-12.23,2.38-12.23s-6.56,6.44-9.17,10.68-4.65,12-5.38,13.21-2.86,4.91-3.51,6.12-1.71,5-3.26,5.46-4.16.16-5.05.49-2.53,1.6-4.41,1.49-11,1.07-12.39,1.07S77,108.59,76.89,108.05Z"/><path class="cls-5" d="M135.28,39.39s-10.4,18.22-11.87,20.06-4.4,6-5.5,7-7,10-8,11.37-3.55,8.44-4.41,10.64-3.3,5.26-3.91,6.61-.49,3.55-1.59,3.79-4.16.84-6,1.15a4.89,4.89,0,0,1-3.43-.9s4.89-10.52,9.18-16.27,7.33-11.15,8.56-13.1,2.08-3.41,2.08-3.41a22.2,22.2,0,0,1,4-6.85c2.82-3.18,6.61-8.44,7.1-10.28a16.54,16.54,0,0,1,2.81-6.11c2.08-3.18,10.4-14.92,11.62-16.64a24.7,24.7,0,0,0,2.81-6.72c.49-1.84,3.18-4.61,3.18-4.61s.53-.74,3.71-.33,5.4.53,5.4.53a15.43,15.43,0,0,0-3,6.24c-.49,3.18-3.3,23.73-3.79,24.95s-2.57,12.36-3.55,18.35-1.59,18.22-1.59,18.22,9.66-12.23,11.92-15,10.83-14.43,12-16.15a46.7,46.7,0,0,0,3.8-7.34c0-.36,13-21.69,15.12-24.05s3.83-4.73,3.83-4.73,5.47-.33,6.93-.24-2.28,5.87-2.28,5.87-5.71,10.52-6.93,12.23-7.83,9.95-8,10.52-.57,3.58-1.22,4S167.81,55.29,158,69.72s-16,24-16,24l-2.69,4.77H128.67s-.12-7,.37-9,2.57-10,2.93-13,2.94-21.41,3.18-24.1S136,42.81,135.28,39.39Z"/><path class="cls-1" d="M112,6.79c-.74,0-2.82-1.16-3.24-1.22s-5.12-1.08-5.57-1.16a28,28,0,0,0-4.16,1.4,15.27,15.27,0,0,1-6.42-.36c-2.87-1-5.32-1-5.75-.68s-3.61,4.1-3.61,4.1-5.38,7.34-5.74,7.71S68.8,25.2,67,27.52,57,41.1,56,42.49a67.07,67.07,0,0,1-5.14,6.85C49.25,51,32.78,73.15,32.78,73.15s.33.24-3.75.81-10.44-.16-11.91,0-1.79,2.86-3.1,4.73a70.21,70.21,0,0,0-4.15,6.77c-.66,1.38-3.51,4.81-5,7.09s.33,1.39,2,2.12,6.2.82,6.2.82-6.61,10-8.16,11a3.61,3.61,0,0,0-1.71,2.44c-.33.74-3.83,4.81-3.18,4.73s6.77.08,9.62,0,5.06-.73,6.36-.77,2.45,0,4,0,5.46,0,6.68-.37,2-1.63,2.7-3.1a28.81,28.81,0,0,1,4.4-6.11c1.63-1.72,4.89-7.83,4.89-7.83v-.82a9.51,9.51,0,0,1,1.8.82c1,.57,5,.73,5,.73s-.73,2.37-2,6-6.11,11.28-6.11,11.28a2.46,2.46,0,0,0,2,.43,21.62,21.62,0,0,1,6.3.49c2.14.48,11.93.3,12.72,0s5.81,0,5.81,0l1.53-7.89,1.41-.62L70,98.46a117,117,0,0,1,4.47-10.82c1.59-2.87,3.79-10.27,3.79-10.27a42.48,42.48,0,0,0,4.16-5.08c.67-1.35,3-5.75,4.89-10s1.71-4.94,2.14-5.19,2.14-4,2.69-4.89A16.73,16.73,0,0,0,94,48c.06-.92.42-1.47,1-1.59s3.8-10.64,3.8-10.64a18.2,18.2,0,0,0,1.53-1.65c.61-.8,4.7-9.48,7.46-13.15s6.3-13.09,6.3-13.58S112.77,6.79,112,6.79ZM58.89,73.64a21.68,21.68,0,0,1-3.67-1.78c-.43-.49,1.78-2,3.24-3.36s6-8,6-8A77.53,77.53,0,0,1,58.89,73.64Z"/><path class="cls-8" d="M119.38,2.39c-.74,0-2.82-1.16-3.25-1.22S111,.08,110.57,0a29.11,29.11,0,0,0-4.16,1.41A15.17,15.17,0,0,1,100,1c-2.88-1-5.32-1-5.75-.67s-3.61,4.1-3.61,4.1-5.38,7.34-5.75,7.7-8.74,8.63-10.58,11-10,13.58-10.94,15a64.94,64.94,0,0,1-5.14,6.85c-1.63,1.63-18.1,23.81-18.1,23.81s.32.25-3.75.82-10.44-.17-11.91,0-1.79,2.85-3.1,4.73a71.29,71.29,0,0,0-4.16,6.77c-.65,1.38-3.5,4.81-5,7.09s.33,1.39,2,2.12,6.2.81,6.2.81-6.61,10-8.16,11a3.62,3.62,0,0,0-1.71,2.45c-.33.73-3.83,4.81-3.18,4.73s6.77.08,9.62,0,5.06-.74,6.36-.77,2.45,0,4,0,5.46,0,6.68-.37,2-1.63,2.69-3.1a29.55,29.55,0,0,1,4.41-6.12c1.63-1.71,4.89-7.83,4.89-7.83v-.81a8.84,8.84,0,0,1,1.79.81c1,.58,5,.74,5,.74s-.74,2.36-2,6S44.77,109,44.77,109a2.42,2.42,0,0,0,1.95.43A22,22,0,0,1,53,110c2.14.49,11.93.31,12.72,0s5.81,0,5.81,0l1.53-7.89,1.41-.61,2.81-7.4a116.12,116.12,0,0,1,4.46-10.82C83.35,80.36,85.56,73,85.56,73a43,43,0,0,0,4.16-5.07c.67-1.35,3-5.75,4.89-10s1.71-4.95,2.14-5.19,2.14-4,2.69-4.89a16.49,16.49,0,0,0,1.89-4.28c.07-.92.43-1.47,1-1.59s3.79-10.64,3.79-10.64a16.15,16.15,0,0,0,1.53-1.66c.62-.79,4.71-9.48,7.46-13.14s6.3-13.09,6.3-13.58S120.11,2.39,119.38,2.39ZM66.23,69.23a21.52,21.52,0,0,1-3.67-1.77c-.43-.49,1.78-2,3.24-3.37s6-8,6-8A77.11,77.11,0,0,1,66.23,69.23Z"/><path class="cls-5" d="M111.3,7.91c-1.18,0-6.36,1-8.31.78s-5.22-1.15-5.63-.78-7.71,10.81-8,10.89a10.48,10.48,0,0,0-3,2.89c-.61,1.14-5.58,4.61-7.83,7.71S63.78,49.6,62.13,51.92,51.43,66.6,51,66.91a26.88,26.88,0,0,0-3.91,3.79l-4.77,5.63a47.15,47.15,0,0,0-7.26.28,33.67,33.67,0,0,1-6.81.08s-2.61,3.51-3,3.84,0,1.87,0,1.87a8.11,8.11,0,0,0,3.34.69c1.22-.2,5.87-1.67,7.71-1.26s2.65.77,2.28,1.26S23.89,99.32,23.89,99.32l-1.59,1.55,8,.41s6.69-7.91,7.59-9.87,5.21-7.66,5.62-7.75,6.28.09,8.73,1,11.49,1,11.49,1-7.17,16.39-7.82,18l9.62-.41S73.79,84.85,74,83.65s3.91-8,4.16-9.69,3.91-7.83,5-9.13,2.61-5.44,3.59-6.92a33.65,33.65,0,0,0,2.69-6.29A29.42,29.42,0,0,1,92.67,46c1-1.18,1.51-5.91,2-6.85s7.26-14.31,7.26-14.31,8.48-13.74,8.76-14.35S112.49,8,111.3,7.91ZM91.61,28.5c-.12,1-7.83,13.58-7.83,13.58s-.85,3.06-.85,3.42,0,3.18-.61,4-1.59,4.65-1.84,5.59-1.47,3.34-2.2,5.42-8.07,16-8.07,16A2.39,2.39,0,0,1,67.88,78c-1.71-.12-7.09-2.08-8.19-2.2s-9.91.85-9.91.85l8.56-11.86h1.71a41.73,41.73,0,0,0,2.33-4c.37-1,4.65-6.85,5.14-7.83S79.26,40.37,79.26,40.37L90.63,26.79C91.35,25.94,91.73,27.52,91.61,28.5Z"/></g></g></svg>