<svg xmlns="http://www.w3.org/2000/svg" viewBox="0 0 417.33 133.51"><defs><style>.cls-1{fill:#e1331b;}.cls-2{fill:#006cb1;}.cls-3{fill:#0069ae;}.cls-4{fill:#0070b5;}.cls-5{fill:#e35c27;}.cls-6{fill:#e05a26;}.cls-7{fill:#005ba1;}</style></defs><title>Asset 8</title><g id="Layer_2" data-name="Layer 2"><g id="Camada_1" data-name="Camada 1"><path class="cls-1" d="M256.34,120.44c-2,0-4,0-6.08,0-1.44,0-2.15-.58-2-2.08a9.59,9.59,0,0,0-1.52-6.29c-1.5-2.39-1.3-5.18-.68-7.87s1.48-5.43,2-8.19a8.62,8.62,0,0,0-1.27-5.79c-1.43-2.59-1.34-5.21-.67-8,.93-3.85,1.3-7.71-1.14-11.3a2.27,2.27,0,0,0-2.71-1.12c-1.23.33-.92,1.37-.76,2.19.76,3.89-1.45,7-2.64,10.39a10.19,10.19,0,0,0-.18,6.56,9.94,9.94,0,0,1-1.32,9.2,12.27,12.27,0,0,0-1.64,11.8c1.14,3.32,1.58,6.6-.42,9.9a2.57,2.57,0,0,1-2.3,1.55c-4.19,0-8.39,0-12.59,0-.88,0-1.7-.32-1.76-1.31-.16-2.56-1.8-4.31-3.33-6.07a4.24,4.24,0,0,1-1.28-3.45c.71-5-1-9.33-3.53-13.5a8.1,8.1,0,0,1-.86-6c1-5.33.9-10.65-2.29-15.4-.93-1.39-.91-2.92-1.09-4.46-.09-.83.11-2-1.3-2.17s-1.31,1-1.62,1.84c-.59,1.69-1.6,3.17-1.68,5.1a17,17,0,0,0,1.23,6.28,8.34,8.34,0,0,1,0,6.06c-1.07,2.61-2.14,5.19-1.2,8.15a13.91,13.91,0,0,0,1.1,2.58,14.2,14.2,0,0,1,.36,13.52,5.29,5.29,0,0,0,.17,5.18c1.72,3,1,4.11-2.45,4.18a45.46,45.46,0,0,1-10.09-.49,6.41,6.41,0,0,0-2.18.33c-1.59.2-2.74-.23-3.08-2.07-.55-3-.73-8.16.17-11a7.36,7.36,0,0,0-1-6.14c-2.45-4.14-2.49-8.18-.7-12.52,1.53-3.71.57-7.38-1.12-10.75a9.82,9.82,0,0,1-.46-8.75c1.55-3.6,1-7.13-.29-10.65-.17-.44-.31-.9-.47-1.34a8.43,8.43,0,0,1,1.53-8.85c1.78-2.23,1.45-4.81.38-7.29a49,49,0,0,0-2.26-4.74c-1.41-2.48-1.06-5-.13-7.41,1.22-3.14,3.89-3.95,6.68-1.95s5.67,2.21,8.54.14a4.67,4.67,0,0,1,5.76-.16c3.31,2.05,6.79,1.9,10.21.06,2-1.07,2.56-.63,2.63,1.66.09,2.8-1.15,5.24-2.07,7.7A6.24,6.24,0,0,0,214.66,45c3.24,3,3.74,6.35,2.89,10.44-.8,3.81-.53,7.51,2.72,10.44,2.3,2.07,2,5,2,7.73,0,.84-.46,1.8.81,2.15a1.61,1.61,0,0,0,2.07-1.4c.45-2,1.16-4,.63-6.15-.57-2.32-.33-4.78,1.37-6.44,3.72-3.63,4.08-7.76,2.24-12.22a5,5,0,0,1,.7-5.29,9.3,9.3,0,0,0,1.34-10.2c-.93-2.21.27-5.75,2.28-7.1s4.24-1.07,6.3.08c3.67,2,7.43,3.43,11.76,2.57a12.28,12.28,0,0,0,4.18-1.92,4.36,4.36,0,0,1,6.91,3.83,13.37,13.37,0,0,1-.82,4.53c-2.09,4.58-1.31,9.26.14,13.76.88,2.7.3,5.14-.46,7.5a14.35,14.35,0,0,0,.46,10.23,16.94,16.94,0,0,1,.79,11.74c-1.06,3.62-.36,7.42.84,11a14.62,14.62,0,0,1-.44,10.81,7.75,7.75,0,0,0,.79,8c2.31,3.27,2.18,6.63.52,10.09a2,2,0,0,1-2,1.35C260.54,120.4,258.44,120.44,256.34,120.44Z"/><path class="cls-1" d="M345.6,91.17c-.19-2.29.85-4.28,1.11-6.42a9.16,9.16,0,0,0-1.66-6.8c-2.29-3.11-2.35-6.28-.67-9.65a32.1,32.1,0,0,0,2.68-7.11c.43-1.9-.54-3.55-1-5.27s-1.31-3.19-1.3-5a3.67,3.67,0,0,1,1.84-3.57c4.08-1.9,5.34-5.54,6.41-9.42,1.12-4.07,1.68-4.47,5.86-4.7a9.69,9.69,0,0,0,7.84-4.55c2.35-3.38,2.94-4.1,7.31-2.43.93.36,2,.6,2.8,1,2.14,1.06,4.07.21,5.87-.46,4.81-1.77,5-1.88,8.3,1.78a9.14,9.14,0,0,0,7.1,3.3,10.76,10.76,0,0,1,3.8.44c2.9,1,3.77,2.83,2.65,5.67-1.47,3.71-.42,5.74,3.45,6.7,4.64,1.15,6.38,4.89,4.38,9.23-1.18,2.55-2.65,5.05-1.05,8a10.07,10.07,0,0,0,2.61,3.27c3.45,2.71,4.13,5.39,2.3,9.35a15.48,15.48,0,0,0-1.74,7.19,7.43,7.43,0,0,0,1.37,4.15,9.31,9.31,0,0,1-2.46,12.58c-2.62,1.7-4.12,3.85-3.69,7,.56,4.09-2.43,6.43-6,6.44-6.56,0-6.33,1-7.72,6.38-1,3.88-2.68,4-6.19,3.3a20.59,20.59,0,0,1-3.76-1.35c-4.22-1.79-8.14-.7-12,1.12-2.63,1.23-4.1.79-5.73-1.62a29.68,29.68,0,0,1-2.07-3.21c-1.31-2.65-5-3.45-7.16-3.2-3.44.42-5.55-1-6-4.46a7.32,7.32,0,0,1,0-.81c.1-4.65-1.3-8.6-5.1-11.57A5.32,5.32,0,0,1,345.6,91.17Zm21-2c-.06,3.55,2.72,7.38,5.92,7.58a7.86,7.86,0,0,1,6.32,3.69,6.22,6.22,0,0,0,7.11,2.44c3.31-1,5.36-3.62,5-7.06-.25-2.81.38-4.66,3.26-5.57a4.91,4.91,0,0,0,2.58-2.43c1.68-3,.62-5.59-1.44-7.9a4,4,0,0,1-.79-4.45,24,24,0,0,1,1.08-2.15c1.56-3,2.28-6,0-8.87-1.83-2.31-2.54-4.45-.86-7.23,1.15-1.9-.17-5.54-2.15-7.27-1.65-1.44-3.3-1.61-5.69-.08-1.93,1.23-3.28.81-4.43-.88-2.09-3.08-6.53-2.41-8.32.42a4.36,4.36,0,0,1-3,2.13A3.71,3.71,0,0,0,369,53.33c-1.42,2.21-1,4.41-.3,6.61.78,2.62.85,5-1.43,7a17.92,17.92,0,0,0-1.55,1.59,4.7,4.7,0,0,0-.67,6.1,15.49,15.49,0,0,0,1.85,2.62c1.73,2,1.67,4.1,1,6.43A18,18,0,0,0,366.63,89.17Z"/><path class="cls-1" d="M335.45,122c-3.11,0-6.23,0-9.34,0-1.09,0-1.63-.21-1.59-1.43a7.8,7.8,0,0,0-3.31-6.57c-1.44-1.16-2.47-2.39-1.71-4.45.48-1.31-.43-1.54-1.54-1.6-6.46-.36-12.91-.73-19.39-.75a4.49,4.49,0,0,0-4.28,2.27,4.1,4.1,0,0,0,.34,5.07c1,1.24,2.17,2.59,1.06,3.89-1.4,1.63-2.27,4-5.36,3.87-5.87-.27-11.77-.08-17.66-.09-2.48,0-3.13-1-2.36-3.31a19.25,19.25,0,0,1,3.52-6.24c3.29-4,3.5-8.36,1.65-13a5.94,5.94,0,0,1,.78-6.27,20,20,0,0,1,2-2.51c3.72-3.41,4.52-7.66,3.59-12.37a8.52,8.52,0,0,1,1.76-7c1.92-2.63,4.08-5.24,3.51-8.87-.15-1-.48-1.95-.69-2.93-.75-3.52.51-6.45,2.68-9.11.72-.89,1.41-1.8,2.06-2.73a8.63,8.63,0,0,0,.53-9.55c-2.52-4.89-.93-9.78,4-11.87a7.6,7.6,0,0,1,6.79.78c.93.53,1.92,1,2.9,1.41,2.61,1.17,5.09.7,7.55-.56,2.06-1.06,4.17-2,6.33-.09,1.42,1.25,1.24,2.92,1.25,4.5a54.7,54.7,0,0,1-.36,5.86,9.63,9.63,0,0,0,3,8c3.23,3.27,5,7,4.32,11.62-.69,4.87.95,9,4.15,12.62a10.16,10.16,0,0,1,2.55,8.2,14.38,14.38,0,0,0,4.1,12.31,11.34,11.34,0,0,1,2.87,10.86c-1.29,4.82.09,8.64,3.27,12.08a9.64,9.64,0,0,1,2.32,5.65c.13,1.16-.19,2.34-2,2.24-3.1-.16-6.22,0-9.33,0ZM306.82,87.15v-.08c1.42,0,2.84,0,4.25,0,1.92.1,2.65-1,2.83-2.67a11.29,11.29,0,0,0-1.82-7.7,6.17,6.17,0,0,1-.88-5.62,10.36,10.36,0,0,0-2.56-9.88c-1.26-1.42-2.45-1.25-3.65.25s-.88,3.1-.56,4.66a5.48,5.48,0,0,1-1.1,4.71c-.62.8-1.2,1.62-1.76,2.45a4.85,4.85,0,0,0-1,3.72c.73,2.75,2,5.36.41,8.27-.63,1.15,0,1.91,1.41,1.88S305.34,87.15,306.82,87.15Z"/><path class="cls-1" d="M78.21,47.29c.09,1.48-.23,3.3.8,5,.47.77.12,1.45-.94,1.78-5.44,1.69-10.86,3.48-16.29,5.2-.49.16-1.15.33-1.47-.28-1.12-2.17-2.81-4.14-1.76-7,1.16-3.11.33-5.81-1.94-7.37s-5.12-1.43-7.6.74c-2.16,1.88-4.07,2.37-6.63.63-2-1.37-4.4-.36-5.52,1.89a9.89,9.89,0,0,0-.48,7.7,4.11,4.11,0,0,1-.89,4.46c-.67.75-1.33,1.51-1.93,2.32A6.36,6.36,0,0,0,34,71.16c3.08,3.27,3.18,4.65.35,8.14a14.67,14.67,0,0,0-2.16,4,5.08,5.08,0,0,0,2.55,6.16c.64.37,1.34.62,2,.95,2.17,1.07,3.48,2.7,3.3,5.25-.33,4.56.74,5.7,5.17,7.32a4.45,4.45,0,0,0,4.39-.77c1.83-1.39,3.72-2.86,4.42-5.28a2.48,2.48,0,0,1,2.86-1.72,5.86,5.86,0,0,0,4.88-2.37,4,4,0,0,0,.78-4.49,5.24,5.24,0,0,1-.48-1.74c-.12-2.24.53-2.73,2.56-1.85,5,2.17,10,4.33,15,6.56,1.16.52,2.7.75,2.76,2.56,0,1.6-1,2.28-2.18,3.06-2.47,1.61-2.54,4.23-2.37,6.84.06.88.33,1.74.32,2.61-.05,2.55-1.55,4.49-4,4.18a8.53,8.53,0,0,0-4.68,1c-2.64,1.24-3.14,3.94-3.19,6.3-.11,5.28-3.72,5.62-7.79,4.34-2.28-.71-4.35-2-6.88-2a7.7,7.7,0,0,0-6,2.29,7.19,7.19,0,0,1-11.24-1.42c-.65-1.09-1.44-2.1-2.06-3.21a9.4,9.4,0,0,0-7.67-4.83,6.8,6.8,0,0,1-5.65-5.7,26.84,26.84,0,0,1,.08-6.88c.31-3.87-.69-7.15-3.79-9.67-.83-.67-1.57-1.46-2.37-2.19-3.58-3.27-4.38-5.7-2.41-10a20.91,20.91,0,0,0,1-15.36,23.25,23.25,0,0,1-.78-4.79c-.25-2.83,1-5.07,3-7,1.57-1.52,3.22-2.93,4-5.18a10.25,10.25,0,0,0,.22-5.7,7.8,7.8,0,0,1,1.44-6.86A4.24,4.24,0,0,1,23.21,32c4.31.56,7.72-1.16,10.84-3.93a14.94,14.94,0,0,1,4.61-2.78,10.74,10.74,0,0,1,9,.39,16.46,16.46,0,0,0,8.2,1.53c2.34-.06,4.67-.39,7,.47a8.5,8.5,0,0,1,4.83,4.27,12.61,12.61,0,0,0,6.88,6.6c2.42.92,3.34,3.14,3.6,5.59A29.56,29.56,0,0,1,78.21,47.29Z"/><path class="cls-1" d="M118.23,101.12a9.68,9.68,0,0,0,6.69-2.31c2.35-1.92,4.9-1.28,7.19-.1,3.44,1.76,6.61,2,10.06-.06,2-1.19,4,.44,3.73,2.79a5.07,5.07,0,0,1-.93,2.65c-2.07,2.68-1.56,5.43-.28,8.18.89,1.91,1.84,3.78,1.71,6-.15,2.39-.89,3.05-3.25,3.19a5.6,5.6,0,0,0-3,.94c-4,3-6.11,3.16-10.29.25a8.12,8.12,0,0,0-7.23-1.21,45.13,45.13,0,0,0-6.25,2.57c-3,1.39-5.92,1.5-8.69-.71-3.33-2.64-6.93-2.78-10.69-.89a14.88,14.88,0,0,1-2.82,1c-2,.5-3-.46-3.15-2.51a6.73,6.73,0,0,0-1.83-4c-1.67-1.85-1.67-3.82-.47-5.93.69-1.21,1.25-2.5,1.9-3.73a6.1,6.1,0,0,0-.94-7.28c-2.42-2.86-1.82-5.71-.4-8.6a10.89,10.89,0,0,0,1.26-6.6,13.61,13.61,0,0,0-2-4.78c-1.92-3.2-1.59-6.23-.11-9.42,1.26-2.73,1.87-5.5.74-8.56-.69-1.88-1.47-3.73-2.24-5.57a8.52,8.52,0,0,1,.9-8.92c2.91-4.13,2.91-8.45.45-12.84A16.48,16.48,0,0,1,86.72,31c-.62-2.29.89-4.16,3-3.71,4.5.93,9,.24,13.54.58a38.13,38.13,0,0,0,4.66,0c1.14,0,1.59.44,1.61,1.54a20,20,0,0,0,.89,5.58,6.87,6.87,0,0,1-.92,5.45c-2,3.47-2.32,6.77.2,10.18,1.94,2.63,1.63,5.67.76,8.57-1.25,4.21-1.32,8.19,1,12.1,1.84,3.08,1,6.25-.27,9.31a7.39,7.39,0,0,0,.53,7.15,8.15,8.15,0,0,1,.69,8c-1.1,2.66.4,4.94,3.33,5.24C116.61,101.08,117.43,101.08,118.23,101.12Z"/><path class="cls-1" d="M160.74,27.11c3,0,6.09,0,9.14,0,1,0,1.94.12,1.65,1.39-.9,3.92.17,7.66,1.22,11.32a7.53,7.53,0,0,1-.47,6.24c-2.56,4.07-1.61,8.07-.22,12,1.15,3.27,1.46,6.29-.41,9.42s-.94,6.52.39,9.68c2.08,5,2.58,9.91.57,15a6.21,6.21,0,0,0,.68,6.28,9,9,0,0,1,1,9.31c-1.16,2.77-.3,5.39,1,7.89.87,1.74.54,3.56.59,5.37,0,.84-.62.92-1.25,1-6.27.46-12.54.76-18.83.7a1.48,1.48,0,0,1-1.53-1.07,11.46,11.46,0,0,0-1.82-3.73,4.41,4.41,0,0,1,.14-5.26c3-4.65,2.53-9.23,0-13.84-1.23-2.26-.89-4.45.11-6.7a12,12,0,0,0,1.24-6.44,11.82,11.82,0,0,0-1.06-4.27A11.15,11.15,0,0,1,152.58,71c2-4.46,1.76-8.55-1-12.56a10.49,10.49,0,0,1-.84-11.08c2.08-4.24,1.67-8.17-.4-12.24a12,12,0,0,1-1.28-5.23c0-2.12.65-2.77,2.75-2.78C154.79,27.1,157.77,27.11,160.74,27.11Z"/><path class="cls-2" d="M268.53,116.63a5.66,5.66,0,0,1-.3-1.28,12.91,12.91,0,0,0-2.36-7.79c-1.43-2.12-1.07-4.27-.26-6.35a15.34,15.34,0,0,0,1.4-6.63,12.33,12.33,0,0,1,3.39-9.4c2.68-3,2.76-6.54,2-10.07a8.43,8.43,0,0,1,2.26-8.1c2.53-2.73,2.42-5.73,1.49-9-.86-3,.59-5.52,1.73-8.07.95-2.14,2.23-4.1,2.07-6.63-.21-3.37.54-4.89,2.87-7.45A37,37,0,0,0,285.51,32a2.28,2.28,0,0,1,1.81-1.14c.61,0,1.19.05.9,1.06a8.85,8.85,0,0,0,1.2,7,7.35,7.35,0,0,1-.53,8.51c-1.66,2.36-3.69,4.49-4.59,7.4a8.45,8.45,0,0,0-.21,5c1.07,3.59,1,6.76-1.71,9.7A12,12,0,0,0,279.63,80a10.71,10.71,0,0,1-3.44,10,17.61,17.61,0,0,0-2.92,4c-1.48,2.58-.45,5,.28,7.39,1.14,3.68.85,6.92-1.55,10C270.79,113,269.78,114.76,268.53,116.63Z"/><path class="cls-2" d="M18.2,111.36c0,.29,0,.58-.07.87-2.27.88-3.91,2.64-5.52,4.3-1.38,1.43-2.21,1.5-3.23-.14-.93-4.24-.6-8.58-1-12.86a11.53,11.53,0,0,0-4.18-8C-.58,91.59-.64,86.7.87,81.32,2.13,76.8,4,72.41,3.62,67.53c-.16-2.1-.77-4.09-1-6.17a13.66,13.66,0,0,1,3.82-11C9,47.46,11.67,44.6,14,41.49a8.34,8.34,0,0,1,1.44-1.25c.8,3.45.43,6.39-2.17,8.78-.45.41-.82.92-1.29,1.28-4.22,3.24-4.34,7.81-3.12,12.15a23.64,23.64,0,0,1-.63,16.1c-1.65,4-1.26,8,2.68,11.16,1.95,1.58,4.09,3,5.15,5.54a5.56,5.56,0,0,1,.53,2.3c0,2.9-.05,5.81-.05,8.72a5.11,5.11,0,0,0,.93,3.61C17.32,110.56,17.83,110.93,18.2,111.36Z"/><path class="cls-3" d="M182.68,122.71a.46.46,0,0,1-.32.13,8.61,8.61,0,0,0-3.68,2.43h0c-.6,0-.81-.5-1.18-.81a11.16,11.16,0,0,0-.4-9.88,7.72,7.72,0,0,1-.34-7,8.57,8.57,0,0,0-1-9.08c-1.94-2.56-1.17-4.81-.45-7.32A23,23,0,0,0,175.38,80c-.49-2.44-1.7-4.61-2.3-7a5.64,5.64,0,0,1,.45-4.31c2.75-4.33,1.6-8.54.23-12.9-.82-2.61-1.26-5.28.24-8,1.88-3.37,1.59-6.94.43-10.51-.45-1.38-.69-2.82.78-3.8,1-.64.76-1.82,1.37-2.62s1.07-1.42,1.91-1.1c1.1.43.21,1.17.06,1.83a9.71,9.71,0,0,0,.84,7.42,39.28,39.28,0,0,1,2.31,4.91,4.25,4.25,0,0,1-.32,4.43c-3.32,3.93-3.11,8.14-1.35,12.49a13.14,13.14,0,0,1-.26,10.59c-1.19,2.74-.63,5.31.65,7.76a14.42,14.42,0,0,1,.68,12.69c-1.37,3.45-1.35,6.79.92,9.94a3.47,3.47,0,0,1,.72,2.27,7.93,7.93,0,0,1-.81,6.4,6.39,6.39,0,0,0-.18,6.69A9.08,9.08,0,0,1,182.68,122.71Z"/><path class="cls-4" d="M140.55,34.32a.3.3,0,0,1,.26-.06,1.25,1.25,0,0,0,1.34-.8.18.18,0,0,1,.22,0c.93.13,1.51-.56,2.13-1,1.18-.85,1.75-.6,2.2.74a12.14,12.14,0,0,0,.87,2.87c2.11,3.42,2,6.84.4,10.57-1,2.35-2.13,4.91-1.4,7.75.64,2.53,2.34,4.51,3.23,6.89.55,1.49,1.63,2.88,1.22,4.56-.56,2.3-1.29,4.55-2,6.83a10.84,10.84,0,0,0,.06,7.07c1.55,4,2.38,8,.49,12.28-.79,1.79-1.92,3.91-.41,6.1.32.46-.25,1.12-1,1.2h0c-.53-2.51-2-3.63-4.93-3.64-1.47,0-2.39.08-1.36-1.94a9.31,9.31,0,0,0-.71-10,5.85,5.85,0,0,1-.25-5.77c1.8-4.35,2.76-8.76.24-13.11-2.11-3.64-2.18-7.18-.91-11.17.58-1.85,1.6-3.93.86-6.09a30.37,30.37,0,0,0-1.64-4.76C137.85,39.62,138,36.87,140.55,34.32Z"/><path class="cls-2" d="M77.51,85a1.22,1.22,0,0,0,0-.33,1.72,1.72,0,0,0-.8-2.08,1,1,0,0,0,0-.34c.17-.69-.32-1-.78-1.25h0c.09-.65,0-1.16-.76-1.34-1.48-2.43-.76-4.91.09-7.23a9.22,9.22,0,0,0-.53-7.24,2.31,2.31,0,0,1,.65-3c1.85-1.73,3.56-3.62,5.38-5.39a3.41,3.41,0,0,0,.87-4.2,15.91,15.91,0,0,1-1.37-8c.15-3.1-.86-5.59-3.59-7.26A1.29,1.29,0,0,1,76,35.63a2.14,2.14,0,0,1,2-1.37c1.44,0,3,.41,4.14-1a11.59,11.59,0,0,0,1.09-1.66c.47-.85,1.08-.74,1.28,0,.67,2.54,2.45,4.57,3,7.2.49,2.39.38,4.73-1,6.55-3.4,4.48-3.5,9-.9,13.75a12.22,12.22,0,0,1,.09,12.29c-1.86,3.49-.9,6.86,1,9.94,2.24,3.63,1.8,7.08-.14,10.59-1.2,1.89-1.75.13-2.51-.45l-.3-.35c-.3-.49-.63-.94-1.32-.8h0a1.46,1.46,0,0,0-1.7-.78,1.09,1.09,0,0,0-.25,0c-.35-.47-.72-.9-1.4-.73a.77.77,0,0,0-.3,0C77.52,87.8,78.38,86.13,77.51,85Z"/><path class="cls-1" d="M298.12,1c2.14-.36,4.12.58,5.94,1.94a12.35,12.35,0,0,0,6.42,2.73c1.44.11,2.21-.43,2-2a2.67,2.67,0,0,1,0-.4c.05-3.23,1-3.95,4-2.82a6.82,6.82,0,0,0,3.15.48c1.62-.17,2.12.54,2.2,2.07.21,3.89-.14,7.67-2,11.14-2.35,4.35-8.77,5.84-12.75,2.91a25.17,25.17,0,0,0-6.69-3.64c-1.52-.51-3.23-1.14-4.66.49a3.39,3.39,0,0,0-.55,2.88c.17,1.72-.59,2.33-2.12,1.85a10.87,10.87,0,0,0-5.36-.56.89.89,0,0,1-1.07-.95c-.08-4.11-.2-8.37,2.19-11.87C290.86,2.3,294.09.81,298.12,1Z"/><path class="cls-5" d="M395.49,123.73a47.09,47.09,0,0,1-10.55,7.86l-2.27,1.28c-1,.56-2.09.87-3,.14-3-2.44-6.32-1.66-9.6-1-1.35.27-2.59,1.07-3.94,1.31-2.63.46-5,.12-6.77-2.34-2.16-3-5.14-3.91-8.75-3.08a9,9,0,0,1-3.83-.08c-.63-.14-1.19-.47-1.24-1.17a1.33,1.33,0,0,1,.82-1.28,4.65,4.65,0,0,0,2.65-4.79c-.14-1.77,1.24-2.53,2.26-3.58,1.37-1.43,2.53-2.75,4.93-1.56,1.2.59,2.92.17,4.41.14a3.9,3.9,0,0,1,3.52,2c.65,1,1.4,2,1.95,3.07,2,3.93,5.36,4.24,8.81,2.69,4.28-1.94,8.13-2.36,12.29-.41C389.65,124.06,392.27,123.88,395.49,123.73Z"/><path class="cls-5" d="M22.23,114.57c1.12.26,2.22.62,3.34.77,2.31.32,3.65,1.85,4.83,3.63,1.58,2.38,2.73,5.07,5.48,6.52,3.57,1.87,6.7,1.94,10.31-.72,1.59-1.18,3-2.73,5.29-2.61a8.68,8.68,0,0,1,2.3.63c2.35.75,4.67,1.61,7,2.33.94.29,1.32.54.59,1.45-1.88,2.35-3.5,4.94-6.39,6.29a4.81,4.81,0,0,1-4.76,0c-4.68-3-9.28-2.55-13.91,0a5.45,5.45,0,0,1-5.86-.67,34.65,34.65,0,0,1-4.24-5.62A10.83,10.83,0,0,0,18,121.93a22.41,22.41,0,0,1-5.74-1.68,1.38,1.38,0,0,1,.23-2.09c1.32-1.11,2.55-2.33,3.9-3.4,1-.8,2-1.85,3.45-1.76a.16.16,0,0,0,.19.12C20.44,114.07,21.36,114.28,22.23,114.57Z"/><path class="cls-5" d="M139.32,127.43a16.65,16.65,0,0,1-6.87,5.71c-1.95.87-3.63-.24-5.29-1.06-1.26-.62-2.45-1.41-3.69-2.07a6,6,0,0,0-6.71.45,17,17,0,0,1-12,2.92c-2.16-.23-4-1.43-6-2.22-4.18-1.68-8.21-2.46-12.3.38A10.35,10.35,0,0,1,81,133.26a1.59,1.59,0,0,1-1.6-1c-.31-.65.45-.9.81-1.22,2.59-2.25,5.47-4.14,7.84-6.65a1,1,0,0,1,1.57-.19c2.68,1.92,5.58,1.48,8.21.13,3.28-1.69,6.06-1.32,8.9.88,3.36,2.6,7,2.17,10.64.55a57.91,57.91,0,0,1,6-2.35,5.57,5.57,0,0,1,5,.73c2.41,1.45,4.86,2.88,7.82,2.75a23.28,23.28,0,0,0,2.74-.43C139.48,126.55,139.83,126.78,139.32,127.43Z"/><path class="cls-3" d="M344,86.34c-.34,2.29-1.1,4.49-1.24,6.89-1.64-2.71-4.11-4.64-5.53-7.42a8.41,8.41,0,0,1-.58-3.9c-.1-3.32.61-6.73-1.44-9.77a1,1,0,0,1,.21-1.14c3.08-4.06,2.23-8.06-.08-12.12a9.4,9.4,0,0,1-1.17-3,6.14,6.14,0,0,1,3-7,10.19,10.19,0,0,0,4-4.63c1.75-3.93,5.9-4.95,8.93-7.48.53,2.66-1.13,6.78-3.48,8a7.56,7.56,0,0,0-3.7,3.66,7.37,7.37,0,0,0,.39,6.6,11.14,11.14,0,0,1-.45,11.23c-3,5-2.54,9.45,1,13.83.07.09,0,.26.07.4C344.71,82.47,344.2,84.41,344,86.34Z"/><path class="cls-2" d="M302.1,109.41c4.39,0,8.76.63,13.15.38.91-.05,1.55.36,1.58,1.18.09,2.15,1.5,3.47,3,4.56,2.56,1.9,2.35,4.48,2.22,7.11,0,.53-.36.78-.84,1a71.84,71.84,0,0,0-8.65,5c-1.08.69-1.55.7-1.92-.74a38.36,38.36,0,0,1-1.65-8.43,1.7,1.7,0,0,0-1.83-1.76c-2.23-.06-4.41-.71-6.65-.46-1.07.12-1.87,0-2.24-1.36a8.86,8.86,0,0,0-1.76-2.63,2.47,2.47,0,0,1-.12-2.82,2.13,2.13,0,0,1,2.5-1.22A31.47,31.47,0,0,0,302.1,109.41Z"/><path class="cls-2" d="M38.49,52.45a15.82,15.82,0,0,1,0-2.49c.32-2,1.84-2.91,3.49-1.82,3,2,5.46,1.26,7.91-.86a9.58,9.58,0,0,1,2-1.34,3.14,3.14,0,0,1,4.57,2.78,13.31,13.31,0,0,1-.13,3,9.12,9.12,0,0,0,1.18,7A2.46,2.46,0,0,1,57,62.29a64.69,64.69,0,0,0-6.28,6.22c-.95,1.1-1.74,1.08-2.4-.37a5.92,5.92,0,0,1-.4-4.51,3.48,3.48,0,0,0-.88-3.9c-1.16-1.1-2.5-1.11-4-.34-2.76,1.39-3.3.93-3.87-2.24C38.83,55.57,38.16,54.05,38.49,52.45Z"/><path class="cls-3" d="M205.87,77.46c1.9,3.91,2.86,7.88,1.7,12.27a12,12,0,0,0,1.82,10.19,11.58,11.58,0,0,1,2.19,8.09,10.3,10.3,0,0,0,3.16,8.69c2.46,2.57,2,5.68-.92,7.74-2.29,1.6-4.73,3-7.07,4.49-.81.53-1.26.44-1.8-.37-1.1-1.63-1.08-3.26.47-4.38,2.05-1.47,1.89-3.8.27-6.75a5,5,0,0,1-.1-4.89,14.9,14.9,0,0,0-.68-14.15c-1.64-2.83-1.92-5.67-.27-8.37,1.89-3.09,1.34-6.06.24-9.07a10.92,10.92,0,0,1-.65-2.71c.3-.58-.49-1.9,1.09-1.59l0,0A.74.74,0,0,0,205.87,77.46Z"/><path class="cls-2" d="M86.51,99.3a19.12,19.12,0,0,1,2,3,5.61,5.61,0,0,1-.7,5.72,19.26,19.26,0,0,0-2,3.69,6,6,0,0,0,1.56,6.69c1.59,1.64,1.1,2.79-.23,4.16A100,100,0,0,1,79.58,129c-.29.25-.67.64-1,.3a1.13,1.13,0,0,1-.16-.94c.53-2.4-.62-4.3-1.82-6.17-2-3.2-1.32-8.32,1.58-10.68a4.68,4.68,0,0,0,2-3.94c0-1.28,0-2.58-.13-3.85-.3-2.74.56-4.84,3.12-6.1a.63.63,0,0,0,.57-.68h0c.85-.67,1.6-1.13,1.79.54A2.62,2.62,0,0,0,86.51,99.3Z"/><path class="cls-3" d="M244.91,91.58c1.27,2,.9,4.18.51,6.28a49.21,49.21,0,0,1-1.6,5.79,11.89,11.89,0,0,0,1.39,10.26,7.28,7.28,0,0,1-1.17,8.44c-2.63,2.36-5.38,4.58-8.22,6.68-.87.66-1.65.71-1.59-.78a2.88,2.88,0,0,0-.12-1.21c-.7-1.74-.41-2.78,1.46-3.8,1.58-.86,2.05-3,2.8-4.65,1.39-3.13.58-6.15-.58-9.11-1.57-4-.43-7.52,1.79-10.88a10.86,10.86,0,0,0,1.54-9.31c-.83-3.15-.82-6.56,1.26-9.51a2,2,0,0,0,.86-1.64h0c1.73.32.37,1.71.85,2.47h0C242.46,84.4,242.21,88.1,244.91,91.58Z"/><path class="cls-2" d="M219.55,58.6c.19-1.33.34-2.68.56-4a12.12,12.12,0,0,0-.24-6,2.54,2.54,0,0,1-.22-.78c.15-2.83.73-5.64.21-8.52-.08-.44.63-1.29,1.17-1.52a18.6,18.6,0,0,0,5.81-4.42c1.2-1.26,1.79-1.29,2,.58a4.35,4.35,0,0,0,.51,1.32c1.35,2.83.73,5.39-1.13,7.71-2,2.53-1.74,5.29-.86,8,1.06,3.32,1,6.34-1.59,9a6.17,6.17,0,0,0-2.12,4c-.07,1.32-.71,1.19-1.59.54C220.05,63,219.55,61,219.55,58.6Z"/><path class="cls-6" d="M334.54,131.11c-3.77-.64-7.15.38-10.56,1.18-2,.46-3.87-.31-5.74-.79a11.09,11.09,0,0,0-3.32-.73c-.34,0-.75,0-.84-.4s.28-.68.63-.9a63.85,63.85,0,0,1,8.94-4.84c1.8-.75,3.87-.51,5.79-.64a81.12,81.12,0,0,1,12.76-.12c.38,0,.87-.11,1.08.34a.84.84,0,0,1-.34,1.06c-2.55,1.86-5.27,3.49-7.64,5.59A1.72,1.72,0,0,1,334.54,131.11Z"/><path class="cls-5" d="M280.11,124.39c2.9,0,5.8,0,8.7,0,.51,0,1.26-.2,1.47.34.29.7-.55,1-1,1.33-1.76,1.56-3.66,3-5.33,4.61a3.21,3.21,0,0,1-3.66.85c-2.72-1.08-5.37-.5-7.9.35-3.34,1.12-6.5.46-9.71-.29-1-.22-.84-.79-.19-1.25a85.26,85.26,0,0,0,7.12-5.58,2.42,2.42,0,0,1,1.75-.32h8.71Z"/><path class="cls-7" d="M148.22,99.27c.74-.08,1.31-.74,1-1.2-1.51-2.19-.38-4.31.41-6.1,1.89-4.28,1.06-8.24-.49-12.28a10.84,10.84,0,0,1-.06-7.07c.66-2.28,1.39-4.53,2-6.83.41-1.68-.67-3.07-1.22-4.56-.89-2.38-2.59-4.36-3.23-6.89-.73-2.84.37-5.4,1.4-7.75,1.64-3.73,1.71-7.15-.4-10.57a12.14,12.14,0,0,1-.87-2.87c-.45-1.34-1-1.59-2.2-.74-.62.45-1.2,1.14-2.13,1,.61-1.12,1.79-1.58,2.72-2.3,1.26-1,2-.34,2.16,1.05.27,2.35,1.36,4.39,2.23,6.54a8.3,8.3,0,0,1,0,5.75c-.63,1.95-1.52,3.84-2,5.83a9.92,9.92,0,0,0,1.73,8.23,11.38,11.38,0,0,1,1.29,11.93c-1.95,4.23-1.37,8.09.32,12.09,1.42,3.38.76,6.7-.5,10a7.46,7.46,0,0,0,.05,6.41c2.34,4.44,2.78,8.87.17,13.36a6.39,6.39,0,0,0,.14,6.87c.37.63.58,1.36,1,2,1.12,1.57.79,2.55-1.06,3.06a3.25,3.25,0,0,0-2.19,2.19c-.64,2-2.29,2.48-4,3-.61.18-1.43.47-1.76-.38a1.8,1.8,0,0,1,.24-2.07c.85-.83,1.71-1.65,2.5-2.53a10.93,10.93,0,0,0,2.81-4.1c.66-2.21,1.33-4.36-.35-6.45a1.94,1.94,0,0,1-.47-1.52c.19.07.38.13.56.21.46.21-.07,1.27.85,1.06.57-.13.53-.69.68-1.13a10.48,10.48,0,0,1,.65-1.24,11.73,11.73,0,0,0,.12-10.59c-.16-.37-.18-.84-.72-.78a.62.62,0,0,0-.5.76c.27,2.25-1.18,3.91-2,5.75a3.5,3.5,0,0,0-.15,3.27,5.12,5.12,0,0,1,.55,2.68c-1.67-1.76-2.27-5-.59-7.12A8,8,0,0,0,148.22,99.27Z"/><path class="cls-5" d="M254.13,122.8h6.67c.39,0,.88-.11,1.12.27s-.13.76-.38,1.05a64.58,64.58,0,0,1-6.2,6.29,3.23,3.23,0,0,1-3.46.24c-3.23-1.24-6.25-.08-9.3.59a22.34,22.34,0,0,1-4.61.35c-.39,0-.86,0-1-.48s.18-.62.46-.83a86.83,86.83,0,0,0,8.5-7c.61-.6,1.39-.42,2.11-.43C250.08,122.78,252.1,122.79,254.13,122.8Z"/><path class="cls-6" d="M173.93,125a7.56,7.56,0,0,0-3.77,2.74,10.49,10.49,0,0,1-7.44,3.46c-4,.3-7.93.35-11.9.33a4.72,4.72,0,0,1-1.6-.17c-.54-.2-1.42,0-1.56-.66s.69-.89,1.1-1.3a5.39,5.39,0,0,0,1.38-1.7c.83-2.36,3-2.8,4.85-2.89,6-.27,12-.22,18-.28C173.31,124.52,173.7,124.43,173.93,125Z"/><path class="cls-6" d="M201.33,123.9a1.22,1.22,0,0,1-.42,1.35,56.35,56.35,0,0,0-6.65,5.89,1.3,1.3,0,0,1-1.84.19c-4.06-3.13-8.2-1.63-12.31-.21-1.44.49-3.47,1.16-4.1.09-.74-1.26,1.45-1.86,2.33-2.76,1.74-1.78,4-2.92,6-4.31a2.08,2.08,0,0,1,1.11-.4c3.83,0,7.68-.51,11.48.48A9.93,9.93,0,0,0,201.33,123.9Z"/><path class="cls-6" d="M314.76,20.45c-1.71,2.76-4.32,3.83-7,5-2,.87-3.57.49-5.44-.43a8.2,8.2,0,0,0-8.77.43c-.59.4-1.34,1.12-1.95.34-.83-1.08.55-1.3,1-1.77a27.59,27.59,0,0,1,2.69-2.09C297,20.66,298,19.25,297.71,17c-.28-2.14,0-2.16,2-1.47a11,11,0,0,1,3.12,1.35C306.38,19.41,310,21.49,314.76,20.45Z"/><path class="cls-6" d="M53.17,69.38A19,19,0,0,1,55.78,66c3.89-4.89,9.67-5.82,15.14-7.43C73,58,75,56.93,77.65,56.78c-1.29,1.92-2.88,3-4.07,4.45a15.8,15.8,0,0,1-10,5.84C60.21,67.63,56.91,68.8,53.17,69.38Z"/><path class="cls-3" d="M284.63,13.63a2.46,2.46,0,0,0-.07.8c.83,4.15-1.44,6.54-4.67,8.49a36.4,36.4,0,0,0-3.83,2.87c-.89.71-1.19.35-1.19-.58,0-3.28-.17-6.6,1-9.74a7.67,7.67,0,0,1,2.39-2.86c1.6-1.38,3.32-2.64,5-3.95.37-.28.75-.68,1.26-.38s.18.72.18,1.11c0,1.41,0,2.83,0,4.24Z"/><path class="cls-3" d="M343.27,94.93c1.7,1.46,3.08,3.07,4.63,4.52a8.51,8.51,0,0,1,2.59,6.54,16.34,16.34,0,0,0,.92,5.75,3.79,3.79,0,0,1-2.3,4.31c-.61.18-.81-.14-1.1-.56-1-1.54-2.13-3-3.2-4.54a8.19,8.19,0,0,1-1.66-6.26C343.71,101.46,344.5,98.24,343.27,94.93Z"/><path class="cls-6" d="M230.93,124.18c-2.29,2-4.22,4.39-6.84,6.06a1.92,1.92,0,0,1-1.92.21c-4.15-1.82-8.15-1.23-12.08.73a3.48,3.48,0,0,1-.94.32A1,1,0,0,1,208,131c-.15-.42.32-.72.64-.93,2.2-1.42,4.62-2.58,6.57-4.27a8.85,8.85,0,0,1,6.78-2.2c2.93.17,5.88,0,8.82,0C230.82,123.81,230.87,124,230.93,124.18Z"/><path class="cls-7" d="M140.55,34.32c-2.52,2.55-2.7,5.3-1,8.42a30.37,30.37,0,0,1,1.64,4.76c.74,2.16-.28,4.24-.86,6.09-1.27,4-1.2,7.53.91,11.17,2.52,4.35,1.56,8.76-.24,13.11a5.85,5.85,0,0,0,.25,5.77,9.31,9.31,0,0,1,.71,10c-1,2-.11,1.94,1.36,1.94,2.93,0,4.4,1.13,4.93,3.64-1.81-2.25-3.92-3.64-6.95-2.47-.34.13-.88.34-1.07-.15a1.44,1.44,0,0,1,.12-1.15c1-1.36,1.3-3,1.94-4.52a5,5,0,0,0-.68-5.18c-3-3.52-1.81-7-.53-10.63S142.48,68,140.44,65c-2.67-4-2-7.89-.71-12.05a13.54,13.54,0,0,0-.87-9.78c-.93-2-1.74-4.21-.64-6.59A3.43,3.43,0,0,1,140.55,34.32Z"/><path class="cls-6" d="M278,26.73c3.81-2.48,6.49-5.9,10.88-6.55.26,0,.54-.22.78-.17,1,.2,2.33,0,2.73.93.5,1.11-1,1.36-1.62,1.93-1.33,1.21-2.88,2.19-4.15,3.46-1.95,1.93-4.08,2.07-6.47,1.13C279.54,27.24,279,27.07,278,26.73Z"/><path class="cls-3" d="M51.83,96.53c-1-4-1-4,2-6.36,1.41-1.07,2.86-2.11,4.24-3.23.9-.74,1.32-.89,1.76.5,1.3,4.12.28,5.8-4,6C53.79,93.52,52.69,94.6,51.83,96.53Z"/><path class="cls-6" d="M397.48,121.72c.46-1.63,1-3.16,1.28-4.79.59-3,2.16-3.65,6-2.55A43.6,43.6,0,0,1,397.48,121.72Z"/><path class="cls-7" d="M261.12,127.66c2.47-2.82,5-5.57,6.29-9.43,1.44,2.85,1,5.13-1.11,6.84-1.45,1.16-3,2.22-4.46,3.33C261.2,128.53,261,128.29,261.12,127.66Z"/><path class="cls-7" d="M182.68,122.71a9.08,9.08,0,0,0-.93-5.51,6.39,6.39,0,0,1,.18-6.69,7.93,7.93,0,0,0,.81-6.4c1.37,1.3,1.24,2.85.74,4.45a6.91,6.91,0,0,1-.71,1.65,6.61,6.61,0,0,0-.21,7.38,11.53,11.53,0,0,1,.94,3.27A1.71,1.71,0,0,1,182.68,122.71Z"/><path class="cls-7" d="M177.5,124.46c.37.31.58.84,1.18.81-1.08,1-2.14,2-3.27,2.87-.28.23-.6,1-1.07.42a1,1,0,0,1,.34-1.67A8.34,8.34,0,0,0,177.5,124.46Z"/><path class="cls-6" d="M139.32,127.43c.51-.65.16-.88-.48-1a7.53,7.53,0,0,1,3.93-2.55C141.72,125.23,140.84,126.64,139.32,127.43Z"/><path class="cls-7" d="M178.68,125.27a8.61,8.61,0,0,1,3.68-2.43A6.61,6.61,0,0,1,178.68,125.27Z"/><path class="cls-7" d="M47.59,100.94c-.32,0-.87,0-.76-.38a1.65,1.65,0,0,1,1.53-1.29c.34,0,.81.09.64.47A1.78,1.78,0,0,1,47.59,100.94Z"/><path class="cls-7" d="M142.15,33.46a1.25,1.25,0,0,1-1.34.8C141,33.55,141.5,33.4,142.15,33.46Z"/><path class="cls-4" d="M147.41,112.25a5.12,5.12,0,0,0-.55-2.68,3.5,3.5,0,0,1,.15-3.27c.86-1.84,2.31-3.5,2-5.75a.62.62,0,0,1,.5-.76c.54-.06.56.41.72.78a11.73,11.73,0,0,1-.12,10.59,10.48,10.48,0,0,0-.65,1.24c-.15.44-.11,1-.68,1.13-.92.21-.39-.85-.85-1.06-.18-.08-.37-.14-.56-.21Z"/><path class="cls-2" d="M378.83,94.89c-.31-1.69.86-2.73,2.25-3.5a6.9,6.9,0,0,0,3.2-3.62,3.7,3.7,0,0,0-.47-4.16,5.4,5.4,0,0,1-.65-6.92c1.44-2.51.3-5-1.68-6.52-2.41-1.82-3.19-3.78-2.05-6.8.66-1.74,1-4-.88-5.6s-3.71-2.09-5.95-1.05c-.59.28-1.46.74-1.79,0-.42-.92-.4-2.34.62-2.7a15.37,15.37,0,0,0,5.92-4.35c1.09-1.17,2.14-.81,3.1.23a15.68,15.68,0,0,0,2,2.14,4.35,4.35,0,0,0,5.09,0c1.33-.79,2.65-1.56,3.93-.07a4.43,4.43,0,0,1,.81,5.2c-1.29,2.44-1.34,4.81.46,6.87,2.51,2.89,2.54,5.82.59,8.89s-2,5.73.63,8.64,1.52,5.72-1.95,7.28c-2.26,1-3.65,2.63-3.46,5.33.16,2.16.21,4.31-1.75,5.93a4.26,4.26,0,0,1-4.17.6C380.87,100.25,378.81,96.93,378.83,94.89Z"/><path class="cls-3" d="M304.24,82.37a10.77,10.77,0,0,0-.58-3.57,5.21,5.21,0,0,1,.82-5.66,15.45,15.45,0,0,0,2.2-3.34,4.65,4.65,0,0,0,.1-4.42c-.25-.5-.37-1.36.25-1.59s1,.42,1.22,1a8.79,8.79,0,0,1,.24,6.81c-.78,2.06.1,3.9,1.22,5.67a10.5,10.5,0,0,1,1.83,5.82c0,1.09-.27,1.63-1.46,1.6a28.67,28.67,0,0,0-4.43.29C303.32,85.32,304.34,83.46,304.24,82.37Z"/></g></g></svg>