<?xml version="1.0" encoding="utf-8"?>
<!-- Generator: Adobe Illustrator 23.0.1, SVG Export Plug-In . SVG Version: 6.00 Build 0)  -->
<svg version="1.1" id="Layer_1" xmlns="http://www.w3.org/2000/svg" xmlns:xlink="http://www.w3.org/1999/xlink" x="0px" y="0px"
	 viewBox="0 0 417.3 133.5" style="enable-background:new 0 0 417.3 133.5;" xml:space="preserve">
<style type="text/css">
	.st0{fill:#FFFFFF;}
</style>
<title>Asset 8</title>
<g>
	<g id="Camada_1">
		<path class="st0" d="M256.3,120.4c-2,0-4,0-6.1,0c-1.4,0-2.1-0.6-2-2.1c0.2-2.2-0.3-4.4-1.5-6.3c-1.5-2.4-1.3-5.2-0.7-7.9
			s1.5-5.4,2-8.2c0.3-2-0.2-4.1-1.3-5.8c-1.4-2.6-1.3-5.2-0.7-8c0.9-3.8,1.3-7.7-1.1-11.3c-0.5-1-1.7-1.5-2.7-1.1
			c-1.2,0.3-0.9,1.4-0.8,2.2c0.8,3.9-1.4,7-2.6,10.4c-0.8,2.1-0.8,4.4-0.2,6.6c1.1,3.1,0.6,6.5-1.3,9.2c-2.5,3.4-3.2,7.8-1.6,11.8
			c1.1,3.3,1.6,6.6-0.4,9.9c-0.4,0.9-1.3,1.5-2.3,1.6c-4.2,0-8.4,0-12.6,0c-0.9,0-1.7-0.3-1.8-1.3c-0.2-2.6-1.8-4.3-3.3-6.1
			c-0.9-0.9-1.4-2.2-1.3-3.4c0.7-5-1-9.3-3.5-13.5c-1.1-1.8-1.4-4-0.9-6c1-5.3,0.9-10.7-2.3-15.4c-0.9-1.4-0.9-2.9-1.1-4.5
			c-0.1-0.8,0.1-2-1.3-2.2s-1.3,1-1.6,1.8c-0.6,1.7-1.6,3.2-1.7,5.1c0,2.2,0.4,4.3,1.2,6.3c0.8,1.9,0.8,4.1,0,6.1
			c-1.1,2.6-2.1,5.2-1.2,8.2c0.3,0.9,0.6,1.8,1.1,2.6c2.4,4.2,2.5,9.2,0.4,13.5c-0.9,1.6-0.8,3.6,0.2,5.2c1.7,3,1,4.1-2.4,4.2
			c-3.4,0.2-6.8,0-10.1-0.5c-0.7,0-1.5,0.1-2.2,0.3c-1.6,0.2-2.7-0.2-3.1-2.1c-0.6-3-0.7-8.2,0.2-11c0.6-2.1,0.2-4.3-1-6.1
			c-2.4-4.1-2.5-8.2-0.7-12.5c1.5-3.7,0.6-7.4-1.1-10.8c-1.5-2.7-1.7-5.9-0.5-8.8c1.6-3.6,1-7.1-0.3-10.7c-0.2-0.4-0.3-0.9-0.5-1.3
			c-1.2-3-0.6-6.4,1.5-8.9c1.8-2.2,1.4-4.8,0.4-7.3c-0.7-1.6-1.4-3.2-2.3-4.7c-1.4-2.5-1.1-5-0.1-7.4c1.2-3.1,3.9-4,6.7-2
			s5.7,2.2,8.5,0.1c1.7-1.4,4-1.4,5.8-0.2c3.3,2,6.8,1.9,10.2,0.1c2-1.1,2.6-0.6,2.6,1.7c0.1,2.8-1.1,5.2-2.1,7.7
			c-1.1,2.5-0.4,5.5,1.7,7.3c3.2,3,3.7,6.3,2.9,10.4c-0.8,3.8-0.5,7.5,2.7,10.4c2.3,2.1,2,5,2,7.7c0,0.8-0.5,1.8,0.8,2.2
			c0.9,0.3,1.7-0.2,2-1.1c0-0.1,0.1-0.2,0.1-0.3c0.4-2,1.2-4,0.6-6.2c-0.6-2.3-0.3-4.8,1.4-6.4c3.7-3.6,4.1-7.8,2.2-12.2
			c-0.8-1.8-0.5-3.8,0.7-5.3c2.5-2.8,3-6.8,1.3-10.2c-0.9-2.2,0.3-5.8,2.3-7.1s4.2-1.1,6.3,0.1c3.7,2,7.4,3.4,11.8,2.6
			c1.5-0.4,2.9-1,4.2-1.9c1.9-1.4,4.7-1,6.1,1c0.6,0.8,0.9,1.8,0.8,2.9c0,1.5-0.3,3.1-0.8,4.5c-2.1,4.6-1.3,9.3,0.1,13.8
			c0.9,2.7,0.3,5.1-0.5,7.5c-1.1,3.4-0.9,7,0.5,10.2c1.7,3.7,1.9,7.9,0.8,11.7c-1.1,3.6-0.4,7.4,0.8,11c1.2,3.5,1.1,7.4-0.4,10.8
			c-1.2,2.6-0.9,5.7,0.8,8c2.3,3.3,2.2,6.6,0.5,10.1c-0.3,0.8-1.1,1.4-2,1.3C260.5,120.4,258.4,120.4,256.3,120.4z"/>
		<path class="st0" d="M345.6,91.2c-0.2-2.3,0.9-4.3,1.1-6.4c0.4-2.4-0.2-4.8-1.7-6.8c-2.3-3.1-2.4-6.3-0.7-9.7
			c1.2-2.3,2.1-4.6,2.7-7.1c0.4-1.9-0.5-3.5-1-5.3s-1.3-3.2-1.3-5c-0.1-1.4,0.6-2.9,1.8-3.6c4.1-1.9,5.3-5.5,6.4-9.4
			c1.1-4.1,1.7-4.5,5.9-4.7c3.2-0.1,6.1-1.8,7.8-4.5c2.4-3.4,2.9-4.1,7.3-2.4c0.9,0.4,2,0.6,2.8,1c2.1,1.1,4.1,0.2,5.9-0.5
			c4.8-1.8,5-1.9,8.3,1.8c1.8,2.1,4.4,3.3,7.1,3.3c1.3-0.1,2.6,0.1,3.8,0.4c2.9,1,3.8,2.8,2.6,5.7c-1.5,3.7-0.4,5.7,3.5,6.7
			c4.6,1.2,6.4,4.9,4.4,9.2c-1.2,2.5-2.6,5-1,8c0.6,1.3,1.5,2.4,2.6,3.3c3.5,2.7,4.1,5.4,2.3,9.3c-1.2,2.2-1.7,4.7-1.7,7.2
			c0,1.5,0.5,2.9,1.4,4.2c2.7,4.2,1.6,9.7-2.5,12.6c-2.6,1.7-4.1,3.8-3.7,7c0.6,4.1-2.4,6.4-6,6.4c-6.6,0-6.3,1-7.7,6.4
			c-1,3.9-2.7,4-6.2,3.3c-1.3-0.3-2.6-0.8-3.8-1.3c-4.2-1.8-8.1-0.7-12,1.1c-2.6,1.2-4.1,0.8-5.7-1.6c-0.8-1-1.4-2.1-2.1-3.2
			c-1.3-2.7-5-3.4-7.2-3.2c-3.4,0.4-5.5-1-6-4.5c0-0.3,0-0.5,0-0.8c0.1-4.7-1.3-8.6-5.1-11.6C346.2,95.3,345.3,93.3,345.6,91.2z
			 M366.6,89.2c-0.1,3.6,2.7,7.4,5.9,7.6c2.6,0.1,4.9,1.5,6.3,3.7c1.6,2.3,4.5,3.3,7.1,2.4c3.3-1,5.4-3.6,5-7.1
			c-0.3-2.8,0.4-4.7,3.3-5.6c1.1-0.5,2.1-1.3,2.6-2.4c1.7-3,0.6-5.6-1.4-7.9c-1.2-1.2-1.5-2.9-0.8-4.4c0.3-0.7,0.7-1.5,1.1-2.2
			c1.6-3,2.3-6,0-8.9c-1.8-2.3-2.5-4.5-0.9-7.2c1.1-1.9-0.2-5.5-2.1-7.3c-1.6-1.4-3.3-1.6-5.7-0.1c-1.9,1.2-3.3,0.8-4.4-0.9
			c-2.1-3.1-6.5-2.4-8.3,0.4c-0.6,1.1-1.7,1.9-3,2.1c-0.9,0.3-1.7,0.9-2.2,1.8c-1.4,2.2-1,4.4-0.3,6.6c0.8,2.6,0.9,5-1.4,7
			c-0.5,0.5-1.1,1-1.5,1.6c-1.7,1.6-2,4.2-0.7,6.1c0.5,0.9,1.1,1.8,1.9,2.6c1.7,2,1.7,4.1,1,6.4C367.2,85.4,366.8,87.3,366.6,89.2
			L366.6,89.2z"/>
		<path class="st0" d="M335.5,122c-3.1,0-6.2,0-9.3,0c-1.1,0-1.6-0.2-1.6-1.4c0.1-2.6-1.2-5.1-3.3-6.6c-1.4-1.2-2.5-2.4-1.7-4.4
			c0.5-1.3-0.4-1.5-1.5-1.6c-6.5-0.4-12.9-0.7-19.4-0.8c-1.7-0.1-3.4,0.7-4.3,2.3c-1.1,1.6-0.9,3.7,0.3,5.1c1,1.2,2.2,2.6,1.1,3.9
			c-1.4,1.6-2.3,4-5.4,3.9c-5.9-0.3-11.8-0.1-17.7-0.1c-2.5,0-3.1-1-2.4-3.3c0.8-2.3,2-4.4,3.5-6.2c3.3-4,3.5-8.4,1.6-13
			c-1-2.1-0.7-4.5,0.8-6.3c0.6-0.9,1.3-1.7,2-2.5c3.7-3.4,4.5-7.7,3.6-12.4c-0.5-2.5,0.2-5,1.8-7c1.9-2.6,4.1-5.2,3.5-8.9
			c-0.1-1-0.5-2-0.7-2.9c-0.8-3.5,0.5-6.5,2.7-9.1c0.7-0.9,1.4-1.8,2.1-2.7c2.1-2.8,2.3-6.6,0.5-9.5c-2.5-4.9-0.9-9.8,4-11.9
			c2.3-0.8,4.8-0.5,6.8,0.8c0.9,0.5,1.9,1,2.9,1.4c2.6,1.2,5.1,0.7,7.5-0.6c2.1-1.1,4.2-2,6.3-0.1c1.4,1.3,1.2,2.9,1.3,4.5
			c0,2-0.1,3.9-0.4,5.9c-0.3,3,0.8,5.9,3,8c3.2,3.3,5,7,4.3,11.6c-0.7,4.9,1,9,4.1,12.6c2,2.2,3,5.2,2.5,8.2
			c-0.7,4.5,0.9,9.1,4.1,12.3c2.8,2.9,3.9,7,2.9,10.9c-1.3,4.8,0.1,8.6,3.3,12.1c1.4,1.6,2.2,3.6,2.3,5.7c0.1,1.2-0.2,2.3-2,2.2
			C341.6,121.8,338.5,121.9,335.5,122L335.5,122z M306.8,87.2L306.8,87.2c1.4-0.1,2.8-0.1,4.3-0.1c1.9,0.1,2.6-1,2.8-2.7
			c0.3-2.7-0.3-5.4-1.8-7.7c-1.2-1.6-1.5-3.7-0.9-5.6c0.9-3.5,0-7.3-2.6-9.9c-1.3-1.4-2.5-1.3-3.6,0.3s-0.9,3.1-0.6,4.7
			c0.4,1.7,0,3.4-1.1,4.7c-0.6,0.8-1.2,1.6-1.8,2.4c-0.8,1-1.2,2.4-1,3.7c0.7,2.8,2,5.4,0.4,8.3c-0.6,1.2,0,1.9,1.4,1.9
			S305.3,87.2,306.8,87.2z"/>
		<path class="st0" d="M78.2,47.3c0.1,1.5-0.2,3.3,0.8,5c0.5,0.8,0.1,1.5-0.9,1.8c-5.4,1.7-10.9,3.5-16.3,5.2
			c-0.5,0.2-1.2,0.3-1.5-0.3c-1.1-2.2-2.8-4.1-1.8-7c1.2-3.1,0.3-5.8-1.9-7.4s-5.1-1.4-7.6,0.7c-2.2,1.9-4.1,2.4-6.6,0.6
			c-2-1.4-4.4-0.4-5.5,1.9c-1.2,2.4-1.4,5.2-0.5,7.7c0.6,1.5,0.3,3.3-0.9,4.5c-0.7,0.8-1.3,1.5-1.9,2.3c-2.2,2.6-2,6.5,0.4,8.8
			c3.1,3.3,3.2,4.7,0.3,8.1c-0.9,1.2-1.7,2.6-2.2,4c-0.8,2.4,0.3,5,2.5,6.2c0.6,0.4,1.3,0.6,2,0.9c2.2,1.1,3.5,2.7,3.3,5.3
			c-0.3,4.6,0.7,5.7,5.2,7.3c1.5,0.5,3.2,0.3,4.4-0.8c1.8-1.4,3.7-2.9,4.4-5.3c0.4-1.2,1.6-2,2.9-1.7c1.9,0.1,3.7-0.8,4.9-2.4
			c1.2-1.2,1.5-3,0.8-4.5c-0.3-0.5-0.4-1.1-0.5-1.7c-0.1-2.2,0.5-2.7,2.6-1.8c5,2.2,10,4.3,15,6.6c1.2,0.5,2.7,0.8,2.8,2.6
			c0,1.6-1,2.3-2.2,3.1c-2.5,1.6-2.5,4.2-2.4,6.8c0.1,0.9,0.3,1.7,0.3,2.6c-0.1,2.6-1.6,4.5-4,4.2c-1.6-0.1-3.2,0.2-4.7,1
			c-2.6,1.2-3.1,3.9-3.2,6.3c-0.1,5.3-3.7,5.6-7.8,4.3c-2.3-0.7-4.3-2-6.9-2c-2.2-0.1-4.4,0.7-6,2.3c-2.8,2.8-7.4,2.8-10.2,0
			c-0.4-0.4-0.8-0.9-1.1-1.4c-0.7-1.1-1.4-2.1-2.1-3.2c-1.6-2.8-4.5-4.6-7.7-4.8c-2.9-0.5-5.2-2.8-5.6-5.7c-0.3-2.3-0.2-4.6,0.1-6.9
			c0.3-3.9-0.7-7.2-3.8-9.7c-0.8-0.7-1.6-1.5-2.4-2.2c-3.6-3.3-4.4-5.7-2.4-10c2.3-4.8,2.6-10.3,1-15.4c-0.4-1.6-0.7-3.2-0.8-4.8
			c-0.3-2.8,1-5.1,3-7c1.6-1.5,3.2-2.9,4-5.2c0.6-1.8,0.7-3.8,0.2-5.7c-0.6-2.4-0.1-4.9,1.4-6.9c0.9-1.2,2.3-1.9,3.8-1.7
			c4.3,0.6,7.7-1.2,10.8-3.9c1.4-1.2,2.9-2.1,4.6-2.8c2.9-1.2,6.2-1.1,9,0.4c2.6,1.2,5.4,1.7,8.2,1.5c2.3-0.1,4.7-0.4,7,0.5
			c2.1,0.7,3.8,2.3,4.8,4.3c1.3,3,3.8,5.4,6.9,6.6c2.4,0.9,3.3,3.1,3.6,5.6C78.2,45.2,78.3,46.2,78.2,47.3z"/>
		<path class="st0" d="M118.2,101.1c2.4,0.1,4.8-0.7,6.7-2.3c2.3-1.9,4.9-1.3,7.2-0.1c3.4,1.8,6.6,2,10.1-0.1c2-1.2,4,0.4,3.7,2.8
			c-0.1,1-0.4,1.9-0.9,2.7c-2.1,2.7-1.6,5.4-0.3,8.2c0.9,1.9,1.8,3.8,1.7,6c-0.1,2.4-0.9,3.1-3.3,3.2c-1.1,0-2.1,0.3-3,0.9
			c-4,3-6.1,3.2-10.3,0.3c-2.1-1.5-4.8-2-7.2-1.2c-2.1,0.7-4.2,1.6-6.3,2.6c-3,1.4-5.9,1.5-8.7-0.7c-3.3-2.6-6.9-2.8-10.7-0.9
			c-0.9,0.4-1.8,0.8-2.8,1c-2,0.5-3-0.5-3.2-2.5c-0.1-1.5-0.8-2.9-1.8-4c-1.7-1.8-1.7-3.8-0.5-5.9c0.7-1.2,1.3-2.5,1.9-3.7
			c1.3-2.4,1-5.3-0.9-7.3c-2.4-2.9-1.8-5.7-0.4-8.6c1.1-2,1.5-4.3,1.3-6.6c-0.4-1.7-1-3.3-2-4.8c-1.9-3.2-1.6-6.2-0.1-9.4
			c1.3-2.7,1.9-5.5,0.7-8.6c-0.7-1.9-1.5-3.7-2.2-5.6c-1.4-2.9-1.1-6.4,0.9-8.9c2.9-4.1,2.9-8.5,0.4-12.8c-0.7-1.2-1.2-2.4-1.6-3.7
			c-0.6-2.3,0.9-4.2,3-3.7c4.5,0.9,9,0.2,13.5,0.6c1.6,0.1,3.1,0.1,4.7,0c1.1,0,1.6,0.4,1.6,1.5c0,1.9,0.3,3.8,0.9,5.6
			c0.5,1.9,0.1,3.8-0.9,5.5c-2,3.5-2.3,6.8,0.2,10.2c1.9,2.6,1.6,5.7,0.8,8.6c-1.3,4.2-1.3,8.2,1,12.1c1.8,3.1,1,6.3-0.3,9.3
			c-1.1,2.3-0.9,5,0.5,7.2c1.6,2.4,1.9,5.4,0.7,8c-1.1,2.7,0.4,4.9,3.3,5.2C116.6,101.1,117.4,101.1,118.2,101.1z"/>
		<path class="st0" d="M160.7,27.1c3,0,6.1,0,9.1,0c1,0,1.9,0.1,1.6,1.4c-0.9,3.9,0.2,7.7,1.2,11.3c0.8,2,0.6,4.3-0.5,6.2
			c-2.6,4.1-1.6,8.1-0.2,12c1.1,3.3,1.5,6.3-0.4,9.4s-0.9,6.5,0.4,9.7c2.1,5,2.6,9.9,0.6,15c-0.9,2.1-0.7,4.5,0.7,6.3
			c2,2.7,2.4,6.3,1,9.3c-1.2,2.8-0.3,5.4,1,7.9c0.9,1.7,0.5,3.6,0.6,5.4c0,0.8-0.6,0.9-1.3,1c-6.3,0.5-12.5,0.8-18.8,0.7
			c-0.7,0.1-1.3-0.4-1.5-1.1c-0.4-1.3-1-2.6-1.8-3.7c-1.1-1.6-1.1-3.7,0.1-5.3c3-4.7,2.5-9.2,0-13.8c-1.2-2.3-0.9-4.4,0.1-6.7
			c1-2,1.4-4.2,1.2-6.4c-0.1-1.5-0.4-2.9-1.1-4.3c-1.8-3.2-1.9-7.1-0.3-10.4c2-4.5,1.8-8.5-1-12.6c-2.4-3.2-2.7-7.5-0.8-11.1
			c2.1-4.2,1.7-8.2-0.4-12.2c-0.8-1.6-1.3-3.4-1.3-5.2c0-2.1,0.6-2.8,2.8-2.8C154.8,27.1,157.8,27.1,160.7,27.1z"/>
		<path class="st0" d="M268.5,116.6c-0.1-0.4-0.3-0.8-0.3-1.3c0.1-2.8-0.8-5.5-2.4-7.8c-1.4-2.1-1.1-4.3-0.3-6.3
			c1-2.1,1.4-4.3,1.4-6.6c-0.2-3.5,1-6.9,3.4-9.4c2.7-3,2.8-6.5,2-10.1c-0.7-2.9,0.1-6,2.3-8.1c2.5-2.7,2.4-5.7,1.5-9
			c-0.9-3,0.6-5.5,1.7-8.1c1-2.1,2.2-4.1,2.1-6.6c-0.2-3.4,0.5-4.9,2.9-7.5c1-1.2,1.9-2.5,2.7-3.9c0.4-0.7,1.1-1.1,1.8-1.1
			c0.6,0,1.2,0,0.9,1.1c-0.6,2.4-0.2,4.9,1.2,7c1.7,2.7,1.4,6.1-0.5,8.5c-1.7,2.4-3.7,4.5-4.6,7.4c-0.6,1.6-0.6,3.4-0.2,5
			c1.1,3.6,1,6.8-1.7,9.7c-2.5,2.9-3.5,6.7-2.8,10.5c0.7,3.7-0.6,7.5-3.4,10c-1.2,1.2-2.1,2.5-2.9,4c-1.5,2.6-0.5,5,0.3,7.4
			c1.1,3.7,0.9,6.9-1.5,10C270.8,113,269.8,114.8,268.5,116.6z"/>
		<path class="st0" d="M18.2,111.4c0,0.3,0,0.6-0.1,0.9c-2.3,0.9-3.9,2.6-5.5,4.3c-1.4,1.4-2.2,1.5-3.2-0.1c-0.9-4.2-0.6-8.6-1-12.9
			c-0.2-3.1-1.8-6-4.2-8c-4.8-3.9-4.8-8.8-3.3-14.2c1.3-4.5,3.1-8.9,2.8-13.8c-0.2-2.1-0.8-4.1-1-6.2c-0.4-4.1,1-8.1,3.8-11
			c2.6-2.9,5.2-5.8,7.6-8.9c0.4-0.5,0.9-0.9,1.4-1.3c0.8,3.5,0.4,6.4-2.2,8.8c-0.4,0.4-0.8,0.9-1.3,1.3c-4.2,3.2-4.3,7.8-3.1,12.1
			c1.7,5.3,1.5,11-0.6,16.1c-1.7,4-1.3,8,2.7,11.2c1.9,1.6,4.1,3,5.2,5.5c0.3,0.7,0.5,1.5,0.5,2.3c0,2.9,0,5.8,0,8.7
			c-0.2,1.3,0.2,2.6,0.9,3.6C17.3,110.6,17.8,110.9,18.2,111.4z"/>
		<path class="st0" d="M182.7,122.7c-0.1,0.1-0.2,0.1-0.3,0.1c-1.4,0.5-2.7,1.3-3.7,2.4l0,0c-0.6,0-0.8-0.5-1.2-0.8
			c1.4-3.2,1.3-6.8-0.4-9.9c-1.2-2.1-1.4-4.7-0.3-7c1.4-3,1.1-6.5-1-9.1c-1.9-2.6-1.2-4.8-0.4-7.3c0.9-3.7,1-7.5,0.1-11.2
			c-0.5-2.4-1.7-4.6-2.3-7c-0.4-1.4-0.3-3,0.4-4.3c2.8-4.3,1.6-8.5,0.2-12.9c-0.8-2.6-1.3-5.3,0.2-8c1.9-3.4,1.6-6.9,0.4-10.5
			c-0.4-1.4-0.7-2.8,0.8-3.8c1-0.6,0.8-1.8,1.4-2.6s1.1-1.4,1.9-1.1c1.1,0.4,0.2,1.2,0.1,1.8c-0.7,2.5-0.4,5.2,0.8,7.4
			c0.9,1.6,1.7,3.2,2.3,4.9c0.7,1.4,0.6,3.1-0.3,4.4c-3.3,3.9-3.1,8.1-1.4,12.5c1.4,3.4,1.3,7.3-0.3,10.6c-1.2,2.7-0.6,5.3,0.6,7.8
			c2.2,3.9,2.4,8.6,0.7,12.7c-1.4,3.4-1.4,6.8,0.9,9.9c0.5,0.6,0.8,1.5,0.7,2.3c0.6,2.2,0.4,4.5-0.8,6.4c-1.3,2-1.4,4.6-0.2,6.7
			C182.6,118.9,183,120.8,182.7,122.7z"/>
		<path class="st0" d="M140.6,34.3c0.1-0.1,0.2-0.1,0.3-0.1c0.6,0.1,1.1-0.3,1.3-0.8c0.1-0.1,0.2-0.1,0.2,0c0.9,0.1,1.5-0.6,2.1-1
			c1.2-0.9,1.8-0.6,2.2,0.7c0.2,1,0.5,2,0.9,2.9c2.1,3.4,2,6.8,0.4,10.6c-1,2.3-2.1,4.9-1.4,7.8c0.6,2.5,2.3,4.5,3.2,6.9
			c0.6,1.5,1.6,2.9,1.2,4.6c-0.6,2.3-1.3,4.6-2,6.8c-0.8,2.3-0.7,4.8,0.1,7.1c1.6,4,2.4,8,0.5,12.3c-0.8,1.8-1.9,3.9-0.4,6.1
			c0.3,0.5-0.3,1.1-1,1.2l0,0c-0.5-2.5-2-3.6-4.9-3.6c-1.5,0-2.4,0.1-1.4-1.9c1.7-3.2,1.5-7.1-0.7-10c-1.1-1.7-1.2-3.9-0.3-5.8
			c1.8-4.3,2.8-8.8,0.2-13.1c-2.1-3.6-2.2-7.2-0.9-11.2c0.6-1.8,1.6-3.9,0.9-6.1c-0.4-1.6-1-3.2-1.6-4.8
			C137.9,39.6,138,36.9,140.6,34.3z"/>
		<path class="st0" d="M77.5,85c0-0.1,0-0.2,0-0.3c0.3-0.8-0.1-1.7-0.8-2.1c0-0.1,0-0.2,0-0.3c0.2-0.7-0.3-1-0.8-1.3l0,0
			c0.1-0.7,0-1.2-0.8-1.3c-1.5-2.4-0.8-4.9,0.1-7.2c0.8-2.4,0.6-5-0.5-7.2c-0.6-1-0.3-2.3,0.7-3c1.8-1.7,3.6-3.6,5.4-5.4
			c1.2-1,1.6-2.8,0.9-4.2c-1.1-2.5-1.6-5.3-1.4-8c0.2-3.1-0.9-5.6-3.6-7.3c-0.7-0.3-1-1-0.7-1.7c0,0,0,0,0,0c0.3-0.8,1.1-1.4,2-1.4
			c1.4,0,3,0.4,4.1-1c0.4-0.5,0.8-1.1,1.1-1.7c0.5-0.9,1.1-0.7,1.3,0c0.7,2.5,2.4,4.6,3,7.2c0.5,2.4,0.4,4.7-1,6.5
			c-3.4,4.5-3.5,9-0.9,13.8c2.2,3.8,2.3,8.5,0.1,12.3c-1.9,3.5-0.9,6.9,1,9.9c2.2,3.6,1.8,7.1-0.1,10.6c-1.2,1.9-1.8,0.1-2.5-0.4
			l-0.3-0.3c-0.3-0.5-0.6-0.9-1.3-0.8l0,0c-0.3-0.6-1-1-1.7-0.8c-0.1,0-0.2,0-0.3,0c-0.3-0.5-0.7-0.9-1.4-0.7c-0.1,0-0.2,0-0.3,0
			C77.5,87.8,78.4,86.1,77.5,85z"/>
		<path class="st0" d="M298.1,1c2.1-0.4,4.1,0.6,5.9,1.9c1.8,1.5,4.1,2.5,6.4,2.7c1.4,0.1,2.2-0.4,2-2c0-0.1,0-0.3,0-0.4
			c0-3.2,1-4,4-2.8c1,0.4,2.1,0.6,3.1,0.5c1.6-0.2,2.1,0.5,2.2,2.1c0.2,3.9-0.1,7.7-2,11.1c-2.4,4.3-8.8,5.8-12.8,2.9
			c-2-1.5-4.3-2.8-6.7-3.6c-1.5-0.5-3.2-1.1-4.7,0.5c-0.6,0.8-0.8,1.9-0.5,2.9c0.2,1.7-0.6,2.3-2.1,1.9c-1.7-0.6-3.6-0.8-5.4-0.6
			c-0.5,0.1-1-0.2-1.1-0.7c0-0.1,0-0.2,0-0.3c-0.1-4.1-0.2-8.4,2.2-11.9C290.9,2.3,294.1,0.8,298.1,1z"/>
		<path class="st0" d="M395.5,123.7c-3.1,3.1-6.7,5.7-10.5,7.9l-2.3,1.3c-1,0.6-2.1,0.9-3,0.1c-3-2.4-6.3-1.7-9.6-1
			c-1.4,0.3-2.6,1.1-3.9,1.3c-2.6,0.5-5,0.1-6.8-2.3c-2.2-3-5.1-3.9-8.8-3.1c-1.3,0.2-2.6,0.2-3.8-0.1c-0.6-0.1-1.2-0.5-1.2-1.2
			c0-0.6,0.3-1.1,0.8-1.3c1.8-0.9,2.9-2.8,2.6-4.8c-0.1-1.8,1.2-2.5,2.3-3.6c1.4-1.4,2.5-2.8,4.9-1.6c1.2,0.6,2.9,0.2,4.4,0.1
			c1.5,0,2.8,0.7,3.5,2c0.6,1,1.4,2,2,3.1c2,3.9,5.4,4.2,8.8,2.7c4.3-1.9,8.1-2.4,12.3-0.4C389.6,124.1,392.3,123.9,395.5,123.7z"/>
		<path class="st0" d="M22.2,114.6c1.1,0.3,2.2,0.6,3.3,0.8c2.3,0.3,3.6,1.8,4.8,3.6c1.6,2.4,2.7,5.1,5.5,6.5
			c3.6,1.9,6.7,1.9,10.3-0.7c1.6-1.2,3-2.7,5.3-2.6c0.8,0.1,1.6,0.3,2.3,0.6c2.3,0.8,4.7,1.6,7,2.3c0.9,0.3,1.3,0.5,0.6,1.4
			c-1.9,2.3-3.5,4.9-6.4,6.3c-1.5,0.8-3.3,0.8-4.8,0c-4.7-3-9.3-2.6-13.9,0c-1.9,0.9-4.2,0.7-5.9-0.7c-1.6-1.7-3-3.6-4.2-5.6
			c-1.9-2.7-4.9-4.4-8.2-4.6c-2-0.3-3.9-0.9-5.7-1.7c-0.5-0.6-0.5-1.4,0.1-2c0.1-0.1,0.1-0.1,0.2-0.1c1.3-1.1,2.6-2.3,3.9-3.4
			c1-0.8,2-1.8,3.5-1.8c0,0.1,0.1,0.1,0.2,0.1C20.4,114.1,21.4,114.3,22.2,114.6z"/>
		<path class="st0" d="M139.3,127.4c-1.7,2.5-4.1,4.5-6.9,5.7c-1.9,0.9-3.6-0.2-5.3-1.1c-1.3-0.6-2.4-1.4-3.7-2.1
			c-2.1-1.2-4.8-1.1-6.7,0.4c-3.5,2.4-7.8,3.5-12,2.9c-2.2-0.2-4-1.4-6-2.2c-4.2-1.7-8.2-2.5-12.3,0.4c-1.6,1.1-3.5,1.7-5.5,1.7
			c-0.7,0.1-1.3-0.4-1.6-1c-0.3-0.6,0.4-0.9,0.8-1.2c2.6-2.3,5.5-4.1,7.8-6.7c0.3-0.5,0.9-0.6,1.4-0.3c0.1,0,0.1,0.1,0.2,0.2
			c2.7,1.9,5.6,1.5,8.2,0.1c3.3-1.7,6.1-1.3,8.9,0.9c3.4,2.6,7,2.2,10.6,0.6c2-0.9,4-1.7,6-2.3c1.7-0.6,3.5-0.3,5,0.7
			c2.4,1.4,4.9,2.9,7.8,2.8c0.9-0.1,1.8-0.2,2.7-0.4C139.5,126.6,139.8,126.8,139.3,127.4z"/>
		<path class="st0" d="M344,86.3c-0.3,2.3-1.1,4.5-1.2,6.9c-1.6-2.7-4.1-4.6-5.5-7.4c-0.5-1.2-0.7-2.6-0.6-3.9
			c-0.1-3.3,0.6-6.7-1.4-9.8c-0.2-0.4-0.1-0.8,0.2-1.1c3.1-4.1,2.2-8.1-0.1-12.1c-0.6-0.9-1-1.9-1.2-3c-0.7-2.7,0.5-5.6,3-7
			c1.8-1.1,3.2-2.7,4-4.6c1.8-3.9,5.9-5,8.9-7.5c0.5,2.7-1.1,6.8-3.5,8c-1.6,0.7-2.9,2-3.7,3.7c-0.9,2.1-0.8,4.6,0.4,6.6
			c1.9,3.6,1.7,7.8-0.5,11.2c-3,5-2.5,9.4,1,13.8c0.1,0.1,0,0.3,0.1,0.4C344.7,82.5,344.2,84.4,344,86.3z"/>
		<path class="st0" d="M302.1,109.4c4.4,0,8.8,0.6,13.1,0.4c0.9-0.1,1.5,0.4,1.6,1.2c0.1,2.2,1.5,3.5,3,4.6c2.6,1.9,2.4,4.5,2.2,7.1
			c0,0.5-0.4,0.8-0.8,1c-3,1.5-5.9,3.1-8.6,5c-1.1,0.7-1.5,0.7-1.9-0.7c-0.9-2.7-1.4-5.6-1.6-8.4c0-0.9-0.7-1.7-1.6-1.8
			c-0.1,0-0.1,0-0.2,0c-2.2-0.1-4.4-0.7-6.6-0.5c-1.1,0.1-1.9,0-2.2-1.4c-0.4-1-1-1.9-1.8-2.6c-0.6-0.8-0.7-1.9-0.1-2.8
			c0.4-1,1.5-1.5,2.5-1.2C300,109.3,301,109.4,302.1,109.4z"/>
		<path class="st0" d="M38.5,52.5c-0.1-0.8-0.1-1.7,0-2.5c0.3-2,1.8-2.9,3.5-1.8c3,2,5.5,1.3,7.9-0.9c0.6-0.5,1.3-1,2-1.3
			c1.5-0.8,3.4-0.2,4.2,1.4c0.2,0.4,0.3,0.9,0.3,1.4c0.1,1,0,2-0.1,3c-0.6,2.4-0.1,4.9,1.2,7c0.9,1.1,0.7,2.6-0.4,3.5
			c0,0-0.1,0.1-0.1,0.1c-2.2,1.9-4.3,4-6.3,6.2c-1,1.1-1.7,1.1-2.4-0.4c-0.7-1.4-0.9-3-0.4-4.5c0.6-1.4,0.2-2.9-0.9-3.9
			c-1.2-1.1-2.5-1.1-4-0.3c-2.8,1.4-3.3,0.9-3.9-2.2C38.8,55.6,38.2,54,38.5,52.5z"/>
		<path class="st0" d="M205.9,77.5c1.9,3.9,2.9,7.9,1.7,12.3c-1,3.5-0.3,7.2,1.8,10.2c1.7,2.3,2.5,5.2,2.2,8.1
			c-0.4,3.2,0.8,6.5,3.2,8.7c2.5,2.6,2,5.7-0.9,7.7c-2.3,1.6-4.7,3-7.1,4.5c-0.8,0.5-1.3,0.4-1.8-0.4c-1.1-1.6-1.1-3.3,0.5-4.4
			c2.1-1.5,1.9-3.8,0.3-6.8c-0.9-1.5-0.9-3.4-0.1-4.9c2.2-4.5,1.9-9.8-0.7-14.2c-1.6-2.8-1.9-5.7-0.3-8.4c1.9-3.1,1.3-6.1,0.2-9.1
			c-0.3-0.9-0.5-1.8-0.6-2.7c0.3-0.6-0.5-1.9,1.1-1.6l0,0C205.3,77,205.5,77.4,205.9,77.5z"/>
		<path class="st0" d="M86.5,99.3c0.8,0.9,1.4,1.9,2,3c0.8,1.9,0.6,4.1-0.7,5.7c-0.8,1.2-1.5,2.4-2,3.7c-0.9,2.3-0.3,5,1.6,6.7
			c1.6,1.6,1.1,2.8-0.2,4.2c-2.4,2.3-4.9,4.4-7.6,6.4c-0.3,0.3-0.7,0.6-1,0.3c-0.2-0.3-0.2-0.6-0.2-0.9c0.5-2.4-0.6-4.3-1.8-6.2
			c-2-3.2-1.3-8.3,1.6-10.7c1.3-0.9,2-2.4,2-3.9c0-1.3,0-2.6-0.1-3.8c-0.3-2.7,0.6-4.8,3.1-6.1c0.3,0,0.6-0.3,0.6-0.7l0,0
			c0.8-0.7,1.6-1.1,1.8,0.5C85.6,98.2,85.9,98.9,86.5,99.3z"/>
		<path class="st0" d="M244.9,91.6c1.3,2,0.9,4.2,0.5,6.3c-0.4,2-0.9,3.9-1.6,5.8c-1.1,3.5-0.6,7.2,1.4,10.3c1.5,2.8,1,6.2-1.2,8.4
			c-2.6,2.4-5.4,4.6-8.2,6.7c-0.9,0.7-1.6,0.7-1.6-0.8c0-0.4,0-0.8-0.1-1.2c-0.7-1.7-0.4-2.8,1.5-3.8c1.6-0.9,2.1-3,2.8-4.7
			c1.4-3.1,0.6-6.2-0.6-9.1c-1.6-4-0.4-7.5,1.8-10.9c1.9-2.7,2.5-6.1,1.5-9.3c-0.8-3.2-0.8-6.6,1.3-9.5c0.5-0.4,0.9-1,0.9-1.6l0,0
			c1.7,0.3,0.4,1.7,0.9,2.5l0,0C242.5,84.4,242.2,88.1,244.9,91.6z"/>
		<path class="st0" d="M219.6,58.6c0.2-1.3,0.3-2.7,0.6-4c0.4-2,0.3-4.1-0.2-6c-0.1-0.2-0.2-0.5-0.2-0.8c0.1-2.8,0.7-5.6,0.2-8.5
			c-0.1-0.4,0.6-1.3,1.2-1.5c2.2-1.1,4.2-2.6,5.8-4.4c1.2-1.3,1.8-1.3,2,0.6c0.1,0.5,0.3,0.9,0.5,1.3c1.4,2.8,0.7,5.4-1.1,7.7
			c-2,2.5-1.7,5.3-0.9,8c1.1,3.3,1,6.3-1.6,9c-1.2,1-1.9,2.4-2.1,4c-0.1,1.3-0.7,1.2-1.6,0.5C220.1,63,219.6,61,219.6,58.6z"/>
		<path class="st0" d="M334.5,131.1c-3.8-0.6-7.1,0.4-10.6,1.2c-2,0.5-3.9-0.3-5.7-0.8c-1.1-0.4-2.2-0.7-3.3-0.7
			c-0.3,0-0.8,0-0.8-0.4s0.3-0.7,0.6-0.9c2.8-1.8,5.8-3.5,8.9-4.8c1.8-0.8,3.9-0.5,5.8-0.6c4.2-0.4,8.5-0.4,12.8-0.1
			c0.4,0,0.9-0.1,1.1,0.3c0.2,0.4,0,0.8-0.3,1.1c-2.5,1.9-5.3,3.5-7.6,5.6C335.1,131,334.8,131.1,334.5,131.1z"/>
		<path class="st0" d="M280.1,124.4c2.9,0,5.8,0,8.7,0c0.5,0,1.3-0.2,1.5,0.3c0.3,0.7-0.5,1-1,1.3c-1.8,1.6-3.7,3-5.3,4.6
			c-0.9,1-2.4,1.4-3.7,0.9c-2.7-1.1-5.4-0.5-7.9,0.4c-3.3,1.1-6.5,0.5-9.7-0.3c-1-0.2-0.8-0.8-0.2-1.3c2.5-1.7,4.8-3.6,7.1-5.6
			c0.5-0.3,1.1-0.4,1.8-0.3L280.1,124.4L280.1,124.4z"/>
		<path class="st0" d="M148.2,99.3c0.7-0.1,1.3-0.7,1-1.2c-1.5-2.2-0.4-4.3,0.4-6.1c1.9-4.3,1.1-8.2-0.5-12.3
			c-0.8-2.3-0.8-4.8-0.1-7.1c0.7-2.3,1.4-4.5,2-6.8c0.4-1.7-0.7-3.1-1.2-4.6c-0.9-2.4-2.6-4.4-3.2-6.9c-0.7-2.8,0.4-5.4,1.4-7.8
			c1.6-3.7,1.7-7.2-0.4-10.6c-0.4-0.9-0.7-1.9-0.9-2.9c-0.4-1.3-1-1.6-2.2-0.7c-0.6,0.5-1.2,1.1-2.1,1c0.6-1.1,1.8-1.6,2.7-2.3
			c1.3-1,2-0.3,2.2,1c0.3,2.3,1.4,4.4,2.2,6.5c0.7,1.9,0.7,3.9,0,5.8c-0.6,2-1.5,3.8-2,5.8c-0.7,2.9,0,5.9,1.7,8.2
			c2.7,3.4,3.2,8,1.3,11.9c-1.9,4.2-1.4,8.1,0.3,12.1c1.4,3.4,0.8,6.7-0.5,10c-0.9,2-0.9,4.4,0.1,6.4c2.3,4.4,2.8,8.9,0.2,13.4
			c-1.3,2.1-1.2,4.8,0.1,6.9c0.4,0.6,0.6,1.4,1,2c1.1,1.6,0.8,2.6-1.1,3.1c-1.1,0.3-1.9,1.1-2.2,2.2c-0.6,2-2.3,2.5-4,3
			c-0.6,0.2-1.4,0.5-1.8-0.4c-0.4-0.7-0.3-1.5,0.2-2.1c0.9-0.8,1.7-1.7,2.5-2.5c1.2-1.1,2.2-2.5,2.8-4.1c0.7-2.2,1.3-4.4-0.4-6.4
			c-0.4-0.4-0.5-1-0.5-1.5c0.2,0.1,0.4,0.1,0.6,0.2c0.5,0.2-0.1,1.3,0.9,1.1c0.6-0.1,0.5-0.7,0.7-1.1c0.2-0.4,0.4-0.8,0.6-1.2
			c1.7-3.3,1.8-7.2,0.1-10.6c-0.2-0.4-0.2-0.8-0.7-0.8c-0.3,0.1-0.6,0.4-0.5,0.7c0,0,0,0,0,0c0.3,2.3-1.2,3.9-2,5.8
			c-0.6,1-0.6,2.2-0.1,3.3c0.4,0.8,0.6,1.8,0.6,2.7c-1.7-1.8-2.3-5-0.6-7.1C148.1,103.5,148.6,101.4,148.2,99.3z"/>
		<path class="st0" d="M254.1,122.8h6.7c0.4,0,0.9-0.1,1.1,0.3s-0.1,0.8-0.4,1.1c-1.9,2.2-4,4.3-6.2,6.3c-1,0.7-2.4,0.8-3.5,0.2
			c-3.2-1.2-6.3-0.1-9.3,0.6c-1.5,0.3-3.1,0.4-4.6,0.4c-0.4,0-0.9,0-1-0.5s0.2-0.6,0.5-0.8c3-2.2,5.8-4.5,8.5-7
			c0.6-0.6,1.4-0.4,2.1-0.4C250.1,122.8,252.1,122.8,254.1,122.8z"/>
		<path class="st0" d="M173.9,125c-1.5,0.5-2.8,1.5-3.8,2.7c-1.9,2.1-4.6,3.4-7.4,3.5c-4,0.3-7.9,0.4-11.9,0.3c-0.5,0-1.1,0-1.6-0.2
			c-0.5-0.2-1.4,0-1.6-0.7s0.7-0.9,1.1-1.3c0.6-0.5,1-1,1.4-1.7c0.8-2.4,3-2.8,4.9-2.9c6-0.3,12-0.2,18-0.3
			C173.3,124.5,173.7,124.4,173.9,125z"/>
		<path class="st0" d="M201.3,123.9c0.2,0.5,0,1-0.4,1.3c-2.4,1.8-4.6,3.8-6.6,5.9c-0.4,0.6-1.3,0.6-1.8,0.2c0,0,0,0,0,0
			c-4.1-3.1-8.2-1.6-12.3-0.2c-1.4,0.5-3.5,1.2-4.1,0.1c-0.7-1.3,1.4-1.9,2.3-2.8c1.7-1.8,4-2.9,6-4.3c0.3-0.2,0.7-0.4,1.1-0.4
			c3.8,0,7.7-0.5,11.5,0.5C198.4,124.4,199.9,124.3,201.3,123.9z"/>
		<path class="st0" d="M314.8,20.5c-1.7,2.8-4.3,3.8-7,5c-2,0.9-3.6,0.5-5.4-0.4c-2.8-1.6-6.2-1.4-8.8,0.4c-0.6,0.4-1.3,1.1-2,0.3
			c-0.8-1.1,0.5-1.3,1-1.8c0.9-0.8,1.8-1.4,2.7-2.1c1.7-1.3,2.7-2.7,2.4-4.9c-0.3-2.1,0-2.2,2-1.5c1.1,0.3,2.2,0.7,3.1,1.3
			C306.4,19.4,310,21.5,314.8,20.5z"/>
		<path class="st0" d="M53.2,69.4c0.7-1.2,1.6-2.4,2.6-3.4c3.9-4.9,9.7-5.8,15.1-7.4c2.1-0.6,4.1-1.6,6.7-1.8
			c-1.3,1.9-2.9,3-4.1,4.5c-2.5,3.1-6,5.2-10,5.8C60.2,67.6,56.9,68.8,53.2,69.4z"/>
		<path class="st0" d="M284.6,13.6c-0.1,0.3-0.1,0.5-0.1,0.8c0.8,4.1-1.4,6.5-4.7,8.5c-1.3,0.9-2.6,1.8-3.8,2.9
			c-0.9,0.7-1.2,0.4-1.2-0.6c0-3.3-0.2-6.6,1-9.7c0.5-1.1,1.4-2.1,2.4-2.9c1.6-1.4,3.3-2.6,5-3.9c0.4-0.3,0.8-0.7,1.3-0.4
			c0.5,0.3,0.2,0.7,0.2,1.1C284.7,10.8,284.7,12.2,284.6,13.6L284.6,13.6z"/>
		<path class="st0" d="M343.3,94.9c1.7,1.5,3.1,3.1,4.6,4.5c1.8,1.7,2.7,4.1,2.6,6.5c0,2,0.3,3.9,0.9,5.8c0.4,1.8-0.6,3.6-2.3,4.3
			c-0.6,0.2-0.8-0.1-1.1-0.6c-1-1.5-2.1-3-3.2-4.5c-1.4-1.8-2-4-1.7-6.3C343.7,101.5,344.5,98.2,343.3,94.9z"/>
		<path class="st0" d="M230.9,124.2c-2.3,2-4.2,4.4-6.8,6.1c-0.6,0.4-1.3,0.5-1.9,0.2c-4.1-1.8-8.1-1.2-12.1,0.7
			c-0.3,0.2-0.6,0.3-0.9,0.3c-0.5,0.1-0.9-0.1-1.1-0.5c-0.1-0.4,0.3-0.7,0.6-0.9c2.2-1.4,4.6-2.6,6.6-4.3c1.9-1.7,4.3-2.4,6.8-2.2
			c2.9,0.2,5.9,0,8.8,0C230.8,123.8,230.9,124,230.9,124.2z"/>
		<path class="st0" d="M140.6,34.3c-2.5,2.5-2.7,5.3-1,8.4c0.7,1.5,1.2,3.1,1.6,4.8c0.7,2.2-0.3,4.2-0.9,6.1
			c-1.3,4-1.2,7.5,0.9,11.2c2.5,4.3,1.6,8.8-0.2,13.1c-0.9,1.8-0.8,4,0.3,5.8c2.2,2.9,2.4,6.8,0.7,10c-1,2-0.1,1.9,1.4,1.9
			c2.9,0,4.4,1.1,4.9,3.6c-1.8-2.3-3.9-3.6-6.9-2.5c-0.3,0.1-0.9,0.3-1.1-0.2c-0.1-0.4-0.1-0.8,0.1-1.2c1-1.4,1.3-3,1.9-4.5
			c0.8-1.7,0.5-3.7-0.7-5.2c-3-3.5-1.8-7-0.5-10.6s1.4-7.1-0.6-10.1c-2.7-4-2-7.9-0.7-12c0.9-3.3,0.6-6.7-0.9-9.8
			c-0.9-2-1.7-4.2-0.6-6.6C138.6,35.5,139.4,34.6,140.6,34.3z"/>
		<path class="st0" d="M278,26.7c3.8-2.5,6.5-5.9,10.9-6.5c0.3,0,0.5-0.2,0.8-0.2c1,0.2,2.3,0,2.7,0.9c0.5,1.1-1,1.4-1.6,1.9
			c-1.3,1.2-2.9,2.2-4.1,3.5c-2,1.9-4.1,2.1-6.5,1.1C279.5,27.2,279,27.1,278,26.7z"/>
		<path class="st0" d="M51.8,96.5c-1-4-1-4,2-6.4c1.4-1.1,2.9-2.1,4.2-3.2c0.9-0.7,1.3-0.9,1.8,0.5c1.3,4.1,0.3,5.8-4,6
			C53.8,93.5,52.7,94.6,51.8,96.5z"/>
		<path class="st0" d="M397.5,121.7c0.5-1.6,1-3.2,1.3-4.8c0.6-3,2.2-3.7,6-2.6C402.6,117.1,400.2,119.6,397.5,121.7z"/>
		<path class="st0" d="M261.1,127.7c2.5-2.8,5-5.6,6.3-9.4c1.4,2.8,1,5.1-1.1,6.8c-1.5,1.2-3,2.2-4.5,3.3
			C261.2,128.5,261,128.3,261.1,127.7z"/>
		<path class="st0" d="M182.7,122.7c0.3-1.9,0-3.8-0.9-5.5c-1.2-2.1-1.1-4.7,0.2-6.7c1.2-1.9,1.5-4.2,0.8-6.4
			c1.4,1.3,1.2,2.8,0.7,4.4c-0.2,0.6-0.4,1.1-0.7,1.7c-1.6,2.2-1.6,5.1-0.2,7.4c0.5,1,0.8,2.1,0.9,3.3
			C183.7,121.6,183.3,122.3,182.7,122.7z"/>
		<path class="st0" d="M177.5,124.5c0.4,0.3,0.6,0.8,1.2,0.8c-1.1,1-2.1,2-3.3,2.9c-0.3,0.2-0.6,1-1.1,0.4c-0.4-0.4-0.4-1,0-1.4
			c0.1-0.1,0.2-0.2,0.4-0.3C175.8,126.3,176.8,125.5,177.5,124.5z"/>
		<path class="st0" d="M139.3,127.4c0.5-0.7,0.2-0.9-0.5-1c1-1.2,2.4-2.1,3.9-2.6C141.7,125.2,140.8,126.6,139.3,127.4z"/>
		<path class="st0" d="M178.7,125.3c1-1.1,2.3-2,3.7-2.4C181.4,124,180.1,124.9,178.7,125.3z"/>
		<path class="st0" d="M47.6,100.9c-0.3,0-0.9,0-0.8-0.4c0.2-0.7,0.8-1.3,1.5-1.3c0.3,0,0.8,0.1,0.6,0.5
			C48.8,100.4,48.2,100.8,47.6,100.9z"/>
		<path class="st0" d="M142.1,33.5c-0.2,0.5-0.8,0.9-1.3,0.8C141,33.5,141.5,33.4,142.1,33.5z"/>
		<path class="st0" d="M147.4,112.3c0.1-0.9-0.1-1.9-0.6-2.7c-0.5-1-0.4-2.3,0.1-3.3c0.9-1.8,2.3-3.5,2-5.8
			c-0.1-0.3,0.1-0.7,0.5-0.8c0,0,0,0,0,0c0.5-0.1,0.6,0.4,0.7,0.8c1.6,3.3,1.6,7.3-0.1,10.6c-0.2,0.4-0.5,0.8-0.6,1.2
			c-0.1,0.4-0.1,1-0.7,1.1c-0.9,0.2-0.4-0.8-0.9-1.1C147.8,112.4,147.6,112.3,147.4,112.3L147.4,112.3z"/>
		<path class="st0" d="M378.8,94.9c-0.3-1.7,0.9-2.7,2.3-3.5c1.5-0.8,2.6-2.1,3.2-3.6c0.7-1.4,0.5-3-0.5-4.2
			c-1.9-1.8-2.1-4.8-0.6-6.9c1.4-2.5,0.3-5-1.7-6.5c-2.4-1.8-3.2-3.8-2-6.8c0.7-1.7,1-4-0.9-5.6s-3.7-2.1-6-1
			c-0.6,0.3-1.5,0.7-1.8,0c-0.4-0.9-0.4-2.3,0.6-2.7c2.3-1,4.3-2.4,5.9-4.3c1.1-1.2,2.1-0.8,3.1,0.2c0.6,0.8,1.3,1.5,2,2.1
			c1.5,1.1,3.6,1.1,5.1,0c1.3-0.8,2.6-1.6,3.9-0.1c1.4,1.4,1.7,3.5,0.8,5.2c-1.3,2.4-1.3,4.8,0.5,6.9c2.5,2.9,2.5,5.8,0.6,8.9
			s-2,5.7,0.6,8.6s1.5,5.7-2,7.3c-2.3,1-3.6,2.6-3.5,5.3c0.2,2.2,0.2,4.3-1.8,5.9c-1.2,0.9-2.8,1.1-4.2,0.6
			C380.9,100.3,378.8,96.9,378.8,94.9z"/>
		<path class="st0" d="M304.2,82.4c0-1.2-0.2-2.4-0.6-3.6c-0.9-1.9-0.6-4.1,0.8-5.7c0.9-1,1.6-2.1,2.2-3.3c0.8-1.4,0.8-3,0.1-4.4
			c-0.3-0.5-0.4-1.4,0.3-1.6s1,0.4,1.2,1c1,2.1,1.1,4.6,0.2,6.8c-0.8,2.1,0.1,3.9,1.2,5.7c1.2,1.7,1.8,3.7,1.8,5.8
			c0,1.1-0.3,1.6-1.5,1.6c-1.5,0-3,0.1-4.4,0.3C303.3,85.3,304.3,83.5,304.2,82.4z"/>
	</g>
</g>
</svg>
