<svg xmlns="http://www.w3.org/2000/svg" xmlns:xlink="http://www.w3.org/1999/xlink" viewBox="0 0 528.3 237.79"><defs><style>.cls-1{fill:#d467a3;}.cls-2{fill:url(#Gradiente_sem_nome_35);}.cls-3{fill:#ebb6d1;}.cls-4{fill:#fff;}</style><linearGradient id="Gradiente_sem_nome_35" x1="-110.54" y1="-108.14" x2="376.6" y2="-108.14" gradientTransform="translate(118 188.43) rotate(16.42)" gradientUnits="userSpaceOnUse"><stop offset="0" stop-color="#f8dceb"/><stop offset="1" stop-color="#f0bcd7"/></linearGradient></defs><title>Asset 22</title><g id="Layer_2" data-name="Layer 2"><g id="Camada_1" data-name="Camada 1"><path class="cls-1" d="M526,146.53a17.88,17.88,0,0,0-10.8-8.66,19.34,19.34,0,0,0-15,1.59c-3.7,2.06-8.61,6.37-11,15.19-1.9,6.93-5.18,13.26-8.35,16.1a7.9,7.9,0,0,1-2.34,1.68,9,9,0,0,1-3.3-1,10.8,10.8,0,0,1,.88-4.84c3.85-8.43,13-28.88,14.63-36.6,2.81-13.22.74-25.29-5.82-34a33.3,33.3,0,0,0-9.82-8.69,116.93,116.93,0,0,0,16.56-32.77c4.87-16,4.67-29.05-.59-38.83a29.25,29.25,0,0,0-17.9-14.35C463-1.57,452.9.2,443.91,6.53c-10.72,7.54-19.48,21.23-26.78,41.84-11.18,31.55-17.51,54.35-19.91,63.45l-28.77,22.5c-1.09-1.68-2.05-3.1-2.9-4.32,4.55-15.48,3.67-19.46,3.23-21.49-1.34-6.11-6.18-12.13-12.33-15.34a24.55,24.55,0,0,0-21.1-.65,29.44,29.44,0,0,0-16.25,17.4c-1.23,3.34-3.7,11.91,0,19.22.64,1.26,1.29,2.8,1.8,4.11-5,9.44-17.3,29.84-30.57,39.82L288,174.83a49,49,0,0,1,1.72-5.25c4-10.08,12-33.69,12.34-34.69l0-.08a17.68,17.68,0,0,0-1.17-13.47c-1.65-3.15-5.08-7.34-12-9.38-11.32-3.33-20.92,3.75-24.56,12.47l-.12.31c-3.09,8-12.71,31.18-20,42.2-6.6,10-11.53,15.08-14.73,17.67a67.24,67.24,0,0,1,2.27-11.33c.8-2.2,5.6-15.36,8.06-21l.49-1.11c3-6.67,7-15.81,3.34-24.41a17.27,17.27,0,0,0-10.21-9.48A19.6,19.6,0,0,0,212.42,122c-3.76,3.69-6.16,8.49-7.83,12.25-.16.37-.37.83-.62,1.39A308.47,308.47,0,0,1,189.49,165c2-7.47,2.38-14.77-1.26-21.08-4.65-8.06-13.46-11.06-20.54-13.47-1.18-.4-2.76-.94-3.93-1.39,1.3-5.88,1.73-13.09-1.27-19.44a20.69,20.69,0,0,0-13.82-11.26,24.51,24.51,0,0,0-20.78,3.5c-8.66,6.18-11.27,16.41-11.51,19.5v.07a35.21,35.21,0,0,0,3.28,17.92c-2.53,7.05-8.11,20.51-17.25,32.54-16,21-29.5,29.86-42.47,27.72-15.08-2.49-19.86-12-21.2-19.49-.8-4.46,1.08-18.17,9.24-27.21,6.21,7.06,15.32,13.69,27.21,15.07,22.68,2.63,34.83-10.36,38.34-22.28,2.47-8.38-.31-21.27-8.88-29.9a21.21,21.21,0,0,0,.62-2.22c2-7.57-1.88-19.64-14.46-23.35-5.29-1.55-22.07-3.77-36,4.55a33.76,33.76,0,0,0-14.24,16.59,83.12,83.12,0,0,0-19.19,14c-11.2,11-23.91,30.08-20.93,59.08,1.83,17.78,9.86,32.08,23.23,41.37a64.39,64.39,0,0,0,18.57,8.74c16.86,5,33,3.17,37.21,2.08,11.42-3,36.34-13.23,58.87-48.17a45.42,45.42,0,0,0-1.84,11.67,28.07,28.07,0,0,0,10.88,22.34,36.1,36.1,0,0,0,29.57,6.46c8.52-2,16.17-7.52,23-14.31a33.15,33.15,0,0,0,7.36,6.74c7,4.61,15.31,6,24.11,4a60.29,60.29,0,0,0,23.29-11,26,26,0,0,0,4.21,4.39c4.38,3.6,12,7.35,23.36,4.8,9.09-2,18-6.53,26.94-13.79C322,222.43,348.73,219.93,349,219.9c4.64-.46,20.52-3.08,30.27-17.17a37.71,37.71,0,0,0,3.9-7.17,19.87,19.87,0,0,0,12.52,8.91,19.51,19.51,0,0,0,15.36-2.3c7.5-4.76,9.26-13.15,10-16.73,0-.18.07-.35.1-.5.36-1.27,1-4.17,3.15-13.62,1.68-7.49,4.71-21,5.72-24.72,3.51-6.41,13.55-20.9,21.18-24.19l.25-.1c0,.09-.08.18-.11.27-13.2,33.09-16.5,45.71-14.12,54l.19.67c1.28,4.52,3.43,12.09,8.8,19,6.77,8.67,16.78,13.74,29,14.66s23.36-3.24,32.64-12a52.41,52.41,0,0,0,10.06-13c.88-1.62,6.33-11.82,8.59-19.18C529.06,158.52,528.88,151.91,526,146.53Z"/><path class="cls-2" d="M66.67,227.68c-12.24,0-52.52-3.26-56.84-45.2-2.61-25.37,8.47-42.06,18.22-51.59A72.93,72.93,0,0,1,48.27,117c4.91-18,23-20,30.69-20A36.37,36.37,0,0,1,88.5,98c7.58,2.23,9.06,9.28,8.15,12.39l0,.17a9.12,9.12,0,0,1-4.39,6.34,22.28,22.28,0,0,1,11,11.24c2.19,4.78,2.9,10.26,1.81,13.95-2.29,7.76-9.74,16.05-23.8,16.05a40.24,40.24,0,0,1-4.7-.28c-14.59-1.69-23.06-13.27-26.44-19.08-17.56,10-21.58,33.61-20.09,41.93,1.23,6.87,6.5,23.25,28.73,26.92a33.34,33.34,0,0,0,5.43.45c14.84,0,29.4-10.07,45.82-31.67,12-15.77,18.25-33.67,19.94-39a26,26,0,0,1-4.13-16.31v-.11c.25-3.41,4.77-15.45,16.22-15.45a18.43,18.43,0,0,1,4.62.62,11.58,11.58,0,0,1,7.85,6.31c3,6.35.42,15.18-1.23,19.57,1,.7,2.37,1.68,4.4,3a37.58,37.58,0,0,0,7.36,3c5.92,2,12.63,4.29,15.56,9.38,4.36,7.55-1.45,20.28-6.57,31.51l-.56,1.24c-4.58,10.06-7,17-7.3,19a3.48,3.48,0,0,0,.26.58l.25,0c1,0,4.21-.62,11.86-6.36,6.76-5.08,18.16-18.77,34.12-55.16l.6-1.35c1.84-4.16,5.69-12.8,13.53-12.8a11.22,11.22,0,0,1,3.87.71,8.12,8.12,0,0,1,4.9,4.47c2.1,4.93-.76,11.4-3.29,17.1l-.5,1.14c-2.7,6.14-7.93,20.56-8.38,21.78-2.07,6.8-4.35,19.3-1.73,24.18a2.8,2.8,0,0,0,1.72,1.54,7.35,7.35,0,0,0,2.1.29c6.81,0,16.29-8.67,26.71-24.42,9.32-14.09,20.79-43.66,20.9-43.95,1.22-2.94,4.76-7.75,10.47-7.75a11,11,0,0,1,3.08.45c3.86,1.14,5.66,3.27,6.49,4.85a8.5,8.5,0,0,1,.59,6.35c-.35,1-8.24,24.39-12.18,34.24-4.11,10.3-5.84,25.9-3.89,28.43l.46.34c.78-.54,2.19-1.74,3.67-3,2.92-2.5,7.33-6.26,14.38-11.56,17.94-13.49,32.72-42,34.92-46.34a48.06,48.06,0,0,0-3.49-9.06c-1.43-2.8-1.27-7.36.41-11.9,1.21-3.3,4.28-9.26,11.16-12.11a16.89,16.89,0,0,1,6.52-1.37c7.87,0,13.45,6.31,14.45,10.87.81,3.67-2.15,14.17-4.38,21.24,2.89,3.61,7.48,10.88,10.66,16.06l39.21-30.66c1.41-5.59,7.91-30.33,20.44-65.69,9.94-28,22.67-42.26,37.86-42.26a24.35,24.35,0,0,1,6.91,1,20.2,20.2,0,0,1,12.42,9.92c4.07,7.54,4,18.24-.1,31.81-5.47,17.91-16.36,32.33-22.64,39.58,7.68,1.59,13.49,5,17.35,10.07,4.94,6.54,6.42,16,4.17,26.55-1.57,7.36-12.73,31.93-14,34.7-1.55,3.4-2.46,8.57-1,12.47a7,7,0,0,0,3.85,4.16,19.62,19.62,0,0,0,7.86,2.14c2.82,0,5.36-1.21,8.5-4,6.7-6,10.16-17.21,11.06-20.5,1.87-6.8,6.17-10.87,11.5-10.87a11.21,11.21,0,0,1,3.11.46,8.62,8.62,0,0,1,5.32,4.21c1.67,3.11,1.62,7.43-.16,13.21-2.06,6.67-7.46,16.72-7.92,17.57-.74,1.44-10.75,20.25-31.39,20.25h0c-.84,0-1.7,0-2.55-.1-22.46-1.69-27.31-18.78-29.64-27l-.2-.7c-1.87-6.53,3.9-23.25,13.82-48.11.78-2,1.45-3.63,1.93-4.87.91-2.38.8-4.59-.32-6.22s-3.41-2.68-6.27-2.68a19.41,19.41,0,0,0-7.6,1.79c-12.17,5.24-24.43,25.8-26.1,29.14-.68,2-4.08,17.1-6.12,26.16-1.81,8.06-2.77,12.31-3.05,13.26-.07.24-.14.59-.22,1-.71,3.38-2.6,12.37-11.26,12.37a13.17,13.17,0,0,1-3-.38,10.63,10.63,0,0,1-7-5c-3.09-5.32-1.22-12.42-.92-13.47l6.86-26.31L375.84,165c3,13,1.74,23.57-3.78,31.54-7.71,11.14-21.06,13-23.65,13.27-1.35.13-3,.21-4.78.21-6.17,0-26.63-.92-30.8-12.71a15.73,15.73,0,0,1-.79-3.2c-10.75,10.83-21,17.11-31.49,19.45a23.48,23.48,0,0,1-5.19.61,15.66,15.66,0,0,1-11.65-4.75c-3.1-3.18-4.77-7.47-5.67-11.3-5.42,6.09-14.86,14.24-28.35,17.28a26.07,26.07,0,0,1-5.65.65c-13,0-19.39-10.59-22.23-17.92-7.61,9.25-16.91,18.53-26.7,20.83a24.36,24.36,0,0,1-5.61.63c-11.4,0-23.54-7.2-23.58-20.54,0-11.38,10.37-31.9,14.92-40.31a99.46,99.46,0,0,1-14.23-6.61c-23.84,57.2-56.18,71.2-69.18,74.58A48.9,48.9,0,0,1,66.67,227.68Zm274.58-38.42c1.29.13,2.67.22,4.05.22a17.15,17.15,0,0,0,7.95-1.53,8.27,8.27,0,0,0,4.24-5.06,11.32,11.32,0,0,0,.21-5Zm2.5-37.67q-5.85,9.57-11.41,17.57l16.37-11ZM70.44,132.82a14.2,14.2,0,0,0,6.29,4.5,15.24,15.24,0,0,0,5.15,1.16c1.34,0,2.18-.37,2.48-1.09a1.29,1.29,0,0,0-.09-.92c-.22-.42-1-1.51-4-2.39A37.43,37.43,0,0,0,70.44,132.82ZM464.17,28.74c-1.38,0-5.08.85-9.7,8.76S440,74,434.54,90.44A126.12,126.12,0,0,0,457,61.07c13.39-24.28,8.82-31.54,8.44-32.06A2.66,2.66,0,0,0,464.17,28.74Z"/><path class="cls-3" d="M463.9,11.72a20.93,20.93,0,0,1,5.92.88c9.29,2.73,17.56,12.42,10,37.34s-26.44,43.19-26.44,43.19c30.7,2.06,26.6,27,25.25,33.31s-10.85,27.59-13.76,34-3.74,17.53,4.59,21.28a23.1,23.1,0,0,0,9.31,2.44c3.74,0,7.09-1.56,10.83-4.92,6.51-5.85,10.39-16,12.1-22.18,1.44-5.25,4.43-8.3,8.13-8.3a7.62,7.62,0,0,1,2.11.32c4.64,1.37,4.82,6.47,2.8,13s-7.67,17-7.67,17-9.21,18.38-28.29,18.38q-1.12,0-2.28-.09c-20.64-1.55-24.53-17.44-26.74-25.17s12-41.31,15.64-50.76c2.78-7.2-1.46-13.66-9.85-13.66a23,23,0,0,0-9,2.07c-14,6-27,29.12-27.91,30.94s-8.63,37.47-9.33,39.85c-.64,2.17-1.34,10.86-8.12,10.86a9.86,9.86,0,0,1-2.24-.28c-8.87-2.1-5.31-14.16-5.31-14.16l9.31-35.72-31.05,22.25c9.48,35.73-16.61,42.06-23.81,42.79-1.16.11-2.68.19-4.43.19-9.13,0-24.54-2-27.5-10.38-3.54-10,6.95-16.58,6.95-16.58L353.73,159l-10.3-13.65c-23.83,39.9-43.7,60.35-63.64,64.83a20.28,20.28,0,0,1-4.43.52c-15.42,0-14.85-21.6-14.85-21.6S249.84,207.31,228.92,212a22.2,22.2,0,0,1-4.88.57c-16.8,0-20.8-21.85-20.8-21.85-9,11.7-18.92,22.5-28.93,24.85a20.85,20.85,0,0,1-4.81.54c-9.35,0-20-5.62-20.08-17.05,0-13.47,16.51-42.27,16.51-42.27a93.41,93.41,0,0,1-21-9.73c-25.43,64.09-61.82,74.59-68.35,76.28a47.14,47.14,0,0,1-9.88.83c-17.17,0-49.63-5.81-53.36-42.05-4.78-46.43,37.95-62.65,37.95-62.65,3.32-15.72,17.78-19,27.7-19a34,34,0,0,1,8.55,1c5.71,1.69,6.13,6.86,5.78,8s-.55,5.44-7.3,5.44a19.7,19.7,0,0,1-2.41-.16,42.61,42.61,0,0,0-5.22-.34c-5.7,0-8.65,1.31-8.65,1.31s7,.1,18.74,3.58,14.7,16.87,13.22,21.87c-1.34,4.57-6.36,13.54-20.44,13.54a36.51,36.51,0,0,1-4.3-.26c-17.39-2-25.33-20.27-25.33-20.27-21.42,9.48-27,36.3-25,47.22s9.64,26.13,31.6,29.75a36.43,36.43,0,0,0,6,.5c19.24,0,35.2-15.41,48.61-33.05,14.78-19.45,21-41.69,21-41.69a22.52,22.52,0,0,1-4.47-15.55c.07-1,3.06-12.21,12.73-12.21a14.82,14.82,0,0,1,3.74.51c12.65,3.3,3.26,23.6,3.26,23.6a53,53,0,0,0,6.73,4.83c5.43,3.54,18.2,5,21.8,11.21s-2.51,19-7.28,29.55-8.25,20.08-7.58,21.31c.38.69.8,3.29,4,3.29,2.5,0,6.71-1.61,14-7.06,16.45-12.36,33-51.56,35.81-57.89,2.4-5.4,5.47-10.73,10.34-10.72a7.69,7.69,0,0,1,2.68.5c6.47,2.33,2,11.45-.91,18s-8.49,22.08-8.49,22.08-8.31,27,2.32,30.18a10.89,10.89,0,0,0,3.09.44c9.89,0,20.9-12.8,29.63-26,9.64-14.58,21.25-44.62,21.25-44.62s2.29-5.51,7.2-5.51a7.3,7.3,0,0,1,2.09.31c6.35,1.87,4.74,6.75,4.74,6.75s-8.15,24.16-12.1,34-7.19,29.11-2.83,32.46a4.62,4.62,0,0,0,2.6,1.31c2.35,0,5.25-4.22,20.2-15.46,19.94-15,35.77-47.08,36.31-48.3s-2-7.84-3.86-11.49.55-15.36,9.79-19.19a13.49,13.49,0,0,1,5.18-1.1c6.32,0,10.39,5.17,11,8.12.81,3.69-4.91,21.32-4.91,21.32,2.65,2.16,13.66,20.41,13.66,20.41l43.25-33.83S415,92.1,429.34,51.64c11.66-32.91,25-39.92,34.56-39.92m-36.58,89.52s18.65-13,32.73-38.48,9.81-35.06,7.34-36.65a6,6,0,0,0-3.22-.87c-3.2,0-7.85,2.16-12.72,10.49-7,11.92-24.13,65.51-24.13,65.51M81.88,142c4,0,5.29-2.23,5.71-3.26.61-1.46,1.11-5.8-6.35-8a40.72,40.72,0,0,0-11.15-1.41,47,47,0,0,0-5.07.25s1.39,7.57,10.47,11A18.3,18.3,0,0,0,81.88,142M345.3,193a20.8,20.8,0,0,0,9.6-1.94c8.13-4.34,7.29-13.77,4.56-18.58l-27.1,18.66A52.17,52.17,0,0,0,345.3,193M463.9,4.72h0c-16.83,0-30.67,15-41.16,44.59-12,33.85-18.35,57.49-20.24,64.84l-35.19,27.52c-3.15-5-5.72-8.91-7.7-11.57,5-16.32,4.2-20,3.92-21.32-1.44-6.55-8.68-13.62-17.87-13.62a20.5,20.5,0,0,0-7.86,1.63,23.9,23.9,0,0,0-13.11,14.14c-2,5.51-2.12,11-.24,14.69a52.27,52.27,0,0,1,2.9,7.13c-4.18,8.3-18,32.4-33.32,43.89-6.46,4.86-10.73,8.44-13.67,11a71.33,71.33,0,0,1,4.42-21.06c4-9.94,11.89-33.4,12.22-34.4a12.06,12.06,0,0,0-.79-9.12c-1.15-2.18-3.57-5.09-8.6-6.57a14.31,14.31,0,0,0-4.06-.6c-7.57,0-12.15,6.17-13.67,9.82a1.11,1.11,0,0,0-.07.16c-.11.3-11.45,29.52-20.56,43.29-14,21.21-21.76,22.85-23.79,22.85a4,4,0,0,1-.78-.07c-.34-.72-1.3-3.56-.23-11a81.56,81.56,0,0,1,2.25-10.31c.64-1.75,5.66-15.56,8.25-21.46l.5-1.13c2.68-6,6-13.56,3.31-19.9a11.6,11.6,0,0,0-6.93-6.39,14.87,14.87,0,0,0-5.06-.91c-10.12,0-14.75,10.42-16.73,14.88-.16.35-.36.81-.6,1.36-16.49,37.58-27.77,49.82-33,53.77-2,1.51-3.66,2.62-5,3.43,1.18-3.19,2.93-7.46,5.21-12.48l.56-1.23c5.74-12.59,11.67-25.6,6.41-34.71-3.59-6.22-11-8.73-17.46-11a37.35,37.35,0,0,1-6.57-2.62c-.82-.53-1.52-1-2.14-1.42,1.69-5.33,3.23-13.34.21-19.73a15,15,0,0,0-10.13-8.2,22.05,22.05,0,0,0-5.49-.73c-13.81,0-19.36,13.9-19.72,18.69v.09a29.63,29.63,0,0,0,3.79,17c-2.16,6.43-8.18,22.31-18.89,36.4-15.71,20.66-29.39,30.29-43,30.29a29.71,29.71,0,0,1-4.86-.41C40,201,34.81,187.76,33.45,180.14,32.17,173,35.33,153.5,49,143.65c4.58,6.68,13.36,16.13,27.1,17.73a45.23,45.23,0,0,0,5.11.3c16,0,24.51-9.59,27.16-18.56,1.33-4.52.57-10.8-2-16.4A26.3,26.3,0,0,0,98,116.26a14.1,14.1,0,0,0,2.06-4.91l0-.09c1.41-5.15-1.5-13.91-10.56-16.58A40.32,40.32,0,0,0,79,93.44c-16.9,0-29.18,7.77-33.58,21A77.54,77.54,0,0,0,25.6,128.39c-10.3,10.07-22,27.69-19.25,54.45,1.86,18,10.57,31.86,25.19,40,13,7.24,27.58,8.32,35.13,8.32a53.3,53.3,0,0,0,11.64-1.05C88.15,227.57,98.45,222,108.1,214c16-13.25,29.51-32.38,40.23-56.94,2.16,1.11,4.73,2.34,7.57,3.52-5.22,10-13.51,27.66-13.48,38.51.05,15.61,14,24,27.08,24a27.92,27.92,0,0,0,6.41-.72c9.25-2.18,17.64-9.44,25.05-17.82l.29.53c5.3,9.33,13.39,14.47,22.79,14.47a29.51,29.51,0,0,0,6.42-.74,56.47,56.47,0,0,0,26-14.13,24,24,0,0,0,4.7,7.18,19.29,19.29,0,0,0,14.16,5.81,27.42,27.42,0,0,0,6-.69c9.73-2.18,19.27-7.53,29.08-16.48,6.05,11.7,25,13,33.23,13,1.89,0,3.66-.08,5.13-.23,2.86-.29,17.59-2.36,26.18-14.76,5.76-8.33,7.37-19.08,4.81-32l11.51-8.26-4.4,16.9c-.53,1.83-2.45,9.76,1.27,16.16a14,14,0,0,0,9.18,6.67,16.81,16.81,0,0,0,3.85.47,13.37,13.37,0,0,0,11.92-7.12,27,27,0,0,0,2.76-8c.07-.31.12-.57.17-.77.28-1,1.08-4.46,3.1-13.44,1.93-8.59,5.13-22.79,6-25.61,2.72-5.21,14.2-22.93,24.22-27.25a16.34,16.34,0,0,1,6.22-1.5c1.62,0,2.89.43,3.39,1.16a3.37,3.37,0,0,1-.07,3c-.47,1.23-1.13,2.88-1.91,4.83-12.34,30.94-15.86,43.65-13.93,50.38l.19.68c2.35,8.28,7.85,27.67,32.75,29.54.94.07,1.88.11,2.81.11,22.47,0,33.45-20.12,34.48-22.11.58-1.07,6-11.27,8.17-18.18,2.07-6.72,2-11.92-.09-15.89a12.08,12.08,0,0,0-7.42-5.91,14.53,14.53,0,0,0-4.09-.61c-6.91,0-12.61,5.16-14.88,13.45-1.73,6.3-5.27,14.55-10,18.82-3.06,2.76-4.83,3.13-6.15,3.13a16.74,16.74,0,0,1-6.43-1.83,3.52,3.52,0,0,1-2-2.2c-1.06-2.81-.35-7.05.9-9.78,2.1-4.59,12.63-27.87,14.24-35.43,2.47-11.59.77-22-4.8-29.39a29.13,29.13,0,0,0-14-9.89c6.5-8.22,15.13-21.16,19.85-36.63,4.42-14.49,4.37-26.1-.16-34.5A23.7,23.7,0,0,0,471.8,5.88a28,28,0,0,0-7.9-1.16ZM443.33,75.43c5.24-15.13,11.05-30.83,14.16-36.17,2.25-3.85,4.19-5.7,5.43-6.49.26,3.18-.45,11.1-9,26.61a122.7,122.7,0,0,1-10.59,16.05Z"/><path class="cls-4" d="M513,151.65a3.39,3.39,0,0,0-1.9-1.59c-1.24-.33-2.59.31-2.3.92a4.36,4.36,0,0,0,3,1.3A1.39,1.39,0,0,0,513,151.65Z"/><path class="cls-4" d="M505.94,153.67s-5.26,16.39-8.42,20.37-9.71,14.22-25,10.49c0,0-1.17.78.87,1.46s12.17,4.37,20.49-3.7,12.34-19.91,13.51-23,1.75-6.21.4-6.61A1.53,1.53,0,0,0,505.94,153.67Z"/><path class="cls-4" d="M453.42,97.14s10.88,2.6,14,4.74,6.37,9.73,7,13,1.67,2.26,1.8,1.8-1.61-14.42-8.15-17.12-13.7-4.13-14.26-3.69S452.8,96.61,453.42,97.14Z"/><path class="cls-4" d="M424.88,108s19.55-17.19,23.35-22.79S448,81,447.54,81.7,434.13,97.06,431.8,98.8a84.6,84.6,0,0,0-8.32,7.46C423.36,106.66,422.44,108,424.88,108Z"/><path class="cls-4" d="M469.61,40.16s-3.82,12.93-5.41,16-7.43,12-8.08,12.8-.44,2.37.57,2.15,6.42-7.16,8.62-11.69,6.16-17.68,6.31-20S469.28,38.34,469.61,40.16Z"/><path class="cls-4" d="M473.25,19.28s-3.2-2-4.53-1.89-3.28.76-3.2-.39,2-2.43,4.17-1.87,4.84,1.68,4.79,2.53S474,19.75,473.25,19.28Z"/><path class="cls-4" d="M463.73,15.16s.79,1.51-2.61,3.61-13.93,9.74-16.66,14.17-12,24.34-17.63,40.28S413.65,113.58,413,113.53s11.06-43.27,14.81-54.67,10.35-29,20.4-36.77S459.59,12.82,463.73,15.16Z"/><path class="cls-4" d="M404.48,143.53s-8.62,32.48-8.93,34.71.43,4.7,2.27,4.29,6.5-30.25,6.5-30.25S406.33,141.66,404.48,143.53Z"/><path class="cls-4" d="M395.57,134s-4.45,3.69-5.2,4-2.5-.43-2-1.41,4.63-3.85,5.18-4.12,1.48-.6,1.92.09S395.83,133.75,395.57,134Z"/><path class="cls-4" d="M386.49,140.77s-50.85,37.8-55.39,40.48-10.76,6.66-11.37,6.09-.36-2.3,3.4-5,58.45-41.64,58.45-41.64l3.88-2.61s1.16-.43,1.66.49S387.49,140,386.49,140.77Z"/><path class="cls-4" d="M361.74,182.64s-.17,4.09-2.57,5.65-9.9,4.84-9,5.69,2.48.6,5.55-.82,6.87-3.8,7.41-6.49.52-6.37-.75-6S361.74,182.64,361.74,182.64Z"/><path class="cls-4" d="M352,104.61s1.16,4-2.87,3.81-10.72.14-12.89,6-1.93,8.75-2.56,8.69-1.81-5.26-.14-10.26,6.44-9.81,11.88-9.38S351.36,103.9,352,104.61Z"/><path class="cls-4" d="M335.13,135.73s-14.47,25.62-24.17,35.7-16.7,16.3-15.89,17.06,5.72-2.72,10.24-7.53,18.92-19.85,24.75-30.42S337.54,134.37,335.13,135.73Z"/><path class="cls-4" d="M286.87,129.6a4.21,4.21,0,0,0-6.08,1.31c-2.48,3.8-6.7,16-7.89,15.79s-1.4-.73-.26-4.8,5.46-15,7.22-16.39a6.68,6.68,0,0,1,6.73-.46A2.58,2.58,0,0,1,286.87,129.6Z"/><path class="cls-4" d="M270.79,148.15a2.46,2.46,0,0,0-1.85,1.46,1.74,1.74,0,0,0,.94,2.54c.83.24,1.54-1.29,1.71-2.08S271.51,148.36,270.79,148.15Z"/><path class="cls-4" d="M258.66,170.69s-5.75,12.79-12.56,18.63-10.7,10-14.26,10.64-6.9.29-7,1.31,1.78,1.3,5.91.45,13.64-5.3,17-9.05,11.79-13.95,12.64-17.41,2.34-6.21,1.18-6.64S259.19,169.57,258.66,170.69Z"/><path class="cls-4" d="M230.06,134s-.52-.71-.95-1.44-.43-2.07.31-2.11a2.4,2.4,0,0,1,2.24,2.08c0,1.25-.41,1.82-1,1.65Z"/><path class="cls-4" d="M227,131.36A8.12,8.12,0,0,0,221,136c-2,4.21-6.37,14.6-7.27,14.42s1.05-5.9,1.05-5.9,4.29-12.79,6.61-14.09,4.52-1.73,5.91-1.32S227.9,131.18,227,131.36Z"/><path class="cls-4" d="M197.78,175.61s-7.58,14.32-13.66,18.57-13.43,8.12-12.44,9.44,4,1.09,5.8-.36,11.63-7.27,15.93-12.81,8.52-14.57,8.45-15.8S199.21,173.05,197.78,175.61Z"/><path class="cls-4" d="M171.42,168.79c.09-.32,3.34-12.21,2.69-14.13s-3.76-5.07-9.88-8.6-8.19-5-7.82-5.67,6,3,9.14,3.82,11.78,3.64,12.62,9-4.48,17.57-5.79,17S171.42,168.79,171.42,168.79Z"/><path class="cls-4" d="M154.21,138.19s-4.11-3-5.26-2.93-1.28,2,.13,2.79,3.93,2.08,4.44,1.31A8,8,0,0,0,154.21,138.19Z"/><path class="cls-4" d="M148.74,116.66s-4.34-4.3-7.86-3.18-6,3-6.77,4.82-2.11,6-2.61,6-1.55-.88-.83-4.21,3.48-8,7.42-9.37,8.57-1,11.27,1.25S151.67,118.12,148.74,116.66Z"/><path class="cls-4" d="M132.11,144s-11.43,24.32-18.29,33.55-17.92,19.56-16.71,21.6,2.79.17,5.22-2.35,17.11-19.87,20.87-26.49,9.27-17.41,10.21-19.72,2.72-6.18,1.23-7.27S132.5,143.16,132.11,144Z"/><path class="cls-4" d="M48.89,123.46s.53,3.91-1.4,4.76-20.81,12.24-25.2,21.43-8.1,20.9-8.31,23.81c0,0-1.12-.59-.77-4s4.95-21.19,10.51-28.22S45.62,119.65,48.89,123.46Z"/><path class="cls-4" d="M64.3,133.09c.09.24,4.26,9.54,9.08,11s8.84,1,8.36-.58-3.46,0-6.92-2.27-9.58-6.71-9.88-7.74S64.1,132.59,64.3,133.09Z"/><path class="cls-4" d="M85,120s6.32,4,8.57,7.53,3.11,6.69,4.56,6.77,1.5-3.06,0-5.21A22,22,0,0,0,85,120Z"/><path class="cls-4" d="M98.2,138.33s-.74,2,.51,2.66,2.41-1.75,2-2.56S98.86,137,98.2,138.33Z"/><path class="cls-4" d="M84.25,105.16s-8.17-.81-12.81-.71-5.86.56-5.86.56a49.39,49.39,0,0,1,11.55-2.16c5.58-.21,8.39.22,8.55,1.14S84.79,105.21,84.25,105.16Z"/><path class="cls-4" d="M87.76,104.38s-.78,1.63.42,1.94,2.39-.07,2-.74S89.65,104.25,87.76,104.38Z"/></g></g></svg>