<?xml version="1.0" encoding="utf-8"?>
<!-- Generator: Adobe Illustrator 22.0.0, SVG Export Plug-In . SVG Version: 6.00 Build 0)  -->
<svg version="1.1" id="Layer_1" xmlns="http://www.w3.org/2000/svg" xmlns:xlink="http://www.w3.org/1999/xlink" x="0px" y="0px"
	 viewBox="0 0 528.3 237.8" style="enable-background:new 0 0 528.3 237.8;" xml:space="preserve">
<style type="text/css">
	.st0{fill:#FFFFFF;}
</style>
<title>Asset 22</title>
<g>
	<g>
		<path class="st0" d="M341.3,189.3c1.3,0.1,2.7,0.2,4,0.2c2.7,0.1,5.5-0.4,8-1.5c2.1-1,3.6-2.9,4.2-5.1c0.4-1.6,0.5-3.3,0.2-5
			L341.3,189.3z"/>
		<path class="st0" d="M343.8,151.6c-3.9,6.4-7.7,12.2-11.4,17.6l16.4-11L343.8,151.6z"/>
		<path class="st0" d="M76.7,137.3c1.6,0.7,3.4,1.1,5.2,1.2c1.3,0,2.2-0.4,2.5-1.1c0.1-0.3,0.1-0.6-0.1-0.9c-0.2-0.4-1-1.5-4-2.4
			c-3.2-0.9-6.5-1.3-9.8-1.3C72.1,134.9,74.3,136.4,76.7,137.3z"/>
		<path class="st0" d="M465.4,29c-0.4-0.2-0.8-0.3-1.3-0.3c-1.4,0-5.1,0.8-9.7,8.8c-4.6,7.9-14.5,36.5-19.9,52.9
			C443.4,81.8,451,71.9,457,61C470.4,36.8,465.8,29.5,465.4,29z"/>
		<path class="st0" d="M526,146.5c-2.3-4.2-6.2-7.3-10.8-8.7c-5-1.5-10.4-0.9-15,1.6c-3.7,2.1-8.6,6.4-11,15.2
			c-1.9,6.9-5.2,13.3-8.3,16.1c-0.7,0.7-1.5,1.3-2.3,1.7c-1.2-0.1-2.3-0.5-3.3-1c-0.1-1.7,0.2-3.3,0.9-4.8
			c3.9-8.4,13-28.9,14.6-36.6c2.8-13.2,0.7-25.3-5.8-34c-2.7-3.5-6-6.5-9.8-8.7c7.2-10,12.8-21,16.6-32.8c4.9-16,4.7-29-0.6-38.8
			c-3.8-7-10.2-12.2-17.9-14.3c-10.2-2.9-20.3-1.1-29.2,5.2c-10.7,7.5-19.5,21.2-26.8,41.8c-11.2,31.5-17.5,54.3-19.9,63.5
			l-28.8,22.5c-1.1-1.7-2-3.1-2.9-4.3c4.5-15.5,3.7-19.5,3.2-21.5c-1.3-6.1-6.2-12.1-12.3-15.3c-6.6-3.4-14.3-3.6-21.1-0.7
			c-7.6,3.3-13.5,9.6-16.3,17.4c-1.2,3.3-3.7,11.9,0,19.2c0.6,1.3,1.3,2.8,1.8,4.1c-5,9.4-17.3,29.8-30.6,39.8l-2.3,1.8
			c0.5-1.8,1-3.5,1.7-5.3c4-10.1,12-33.7,12.3-34.7v-0.1c1.4-4.5,1-9.3-1.2-13.5c-1.7-3.1-5.1-7.3-12-9.4
			c-11.3-3.3-20.9,3.8-24.6,12.5l-0.1,0.3c-3.1,8-12.7,31.2-20,42.2c-6.6,10-11.5,15.1-14.7,17.7c0.4-3.8,1.2-7.6,2.3-11.3
			c0.8-2.2,5.6-15.4,8.1-21l0.5-1.1c3-6.7,7-15.8,3.3-24.4c-1.9-4.5-5.6-7.9-10.2-9.5c-7.3-2.8-15.6-0.9-21,4.7
			c-3.8,3.7-6.2,8.5-7.8,12.3c-0.2,0.4-0.4,0.8-0.6,1.4c-4.3,10-9.1,19.8-14.5,29.4c2-7.5,2.4-14.8-1.3-21.1
			c-4.7-8.1-13.5-11.1-20.5-13.5c-1.2-0.4-2.8-0.9-3.9-1.4c1.3-5.9,1.7-13.1-1.3-19.4c-2.7-5.6-7.7-9.8-13.8-11.3
			c-7.1-2-14.7-0.7-20.8,3.5c-8.7,6.2-11.3,16.4-11.5,19.5v0.1c-0.5,6.2,0.6,12.3,3.3,17.9c-2.5,7-8.1,20.5-17.3,32.5
			c-16,21-29.5,29.9-42.5,27.7c-15.1-2.5-19.9-12-21.2-19.5c-0.8-4.5,1.1-18.2,9.2-27.2c6.2,7.1,15.3,13.7,27.2,15.1
			c22.7,2.6,34.8-10.4,38.3-22.3c2.5-8.4-0.3-21.3-8.9-29.9c0.2-0.7,0.5-1.5,0.6-2.2c2-7.6-1.9-19.6-14.5-23.3
			c-5.3-1.6-22.1-3.8-36,4.5c-6.5,3.8-11.5,9.6-14.2,16.6c-7,3.7-13.5,8.4-19.2,14c-11.2,11-23.9,30.1-20.9,59.1
			c1.8,17.8,9.9,32.1,23.2,41.4c5.7,3.9,12,6.8,18.6,8.7c16.9,5,33,3.2,37.2,2.1c11.4-3,36.3-13.2,58.9-48.2
			c-1.1,3.8-1.7,7.7-1.8,11.7c0,8.7,4,17,10.9,22.3c8.4,6.4,19.2,8.7,29.6,6.5c8.5-2,16.2-7.5,23-14.3c2.1,2.6,4.6,4.9,7.4,6.7
			c7,4.6,15.3,6,24.1,4c8.5-1.9,16.4-5.7,23.3-11c1.2,1.6,2.6,3.1,4.2,4.4c4.4,3.6,12,7.4,23.4,4.8c9.1-2,18-6.5,26.9-13.8
			c12.8,12.7,39.5,10.2,39.8,10.1c4.6-0.5,20.5-3.1,30.3-17.2c1.6-2.2,2.9-4.6,3.9-7.2c2.8,4.5,7.3,7.7,12.5,8.9
			c5.2,1.4,10.8,0.6,15.4-2.3c7.5-4.8,9.3-13.2,10-16.7c0-0.2,0.1-0.4,0.1-0.5c0.4-1.3,1-4.2,3.2-13.6c1.7-7.5,4.7-21,5.7-24.7
			c3.5-6.4,13.5-20.9,21.2-24.2l0.3-0.1c0,0.1-0.1,0.2-0.1,0.3c-13.2,33.1-16.5,45.7-14.1,54l0.2,0.7c1.3,4.5,3.4,12.1,8.8,19
			c6.8,8.7,16.8,13.7,29,14.7c12.2,0.9,23.4-3.2,32.6-12c4-3.8,7.4-8.2,10.1-13c0.9-1.6,6.3-11.8,8.6-19.2
			C529.1,158.5,528.9,151.9,526,146.5z M518.1,163c-2.1,6.7-7.5,16.7-7.9,17.6c-0.7,1.4-10.8,20.3-31.4,20.3c-0.8,0-1.7,0-2.5-0.1
			c-22.5-1.7-27.3-18.8-29.6-27l-0.2-0.7c-1.9-6.5,3.9-23.3,13.8-48.1c0.8-2,1.5-3.6,1.9-4.9c0.9-2.4,0.8-4.6-0.3-6.2
			s-3.4-2.7-6.3-2.7c-2.6,0.1-5.2,0.7-7.6,1.8c-12.2,5.2-24.4,25.8-26.1,29.1c-0.7,2-4.1,17.1-6.1,26.2c-1.8,8.1-2.8,12.3-3,13.3
			c-0.1,0.2-0.1,0.6-0.2,1c-0.7,3.4-2.6,12.4-11.3,12.4c-1,0-2-0.1-3-0.4c-2.9-0.6-5.5-2.4-7-5c-3.1-5.3-1.2-12.4-0.9-13.5l6.9-26.3
			L375.8,165c3,13,1.7,23.6-3.8,31.5c-7.7,11.1-21.1,13-23.6,13.3c-1.4,0.1-3,0.2-4.8,0.2c-6.2,0-26.6-0.9-30.8-12.7
			c-0.4-1-0.6-2.1-0.8-3.2c-10.8,10.8-21,17.1-31.5,19.5c-1.7,0.4-3.4,0.6-5.2,0.6c-4.4,0.1-8.6-1.6-11.7-4.8s-4.8-7.5-5.7-11.3
			c-5.4,6.1-14.9,14.2-28.4,17.3c-1.9,0.4-3.7,0.6-5.6,0.7c-13,0-19.4-10.6-22.2-17.9c-7.6,9.3-16.9,18.5-26.7,20.8
			c-1.8,0.4-3.7,0.6-5.6,0.6c-11.4,0-23.5-7.2-23.6-20.5c0-11.4,10.4-31.9,14.9-40.3c-4.9-1.8-9.7-4-14.2-6.6
			c-23.8,57.2-56.2,71.2-69.2,74.6c-3.5,0.7-7.1,1-10.8,1c-12.2,0-52.5-3.3-56.8-45.2c-2.6-25.4,8.5-42.1,18.2-51.6
			c5.9-5.7,12.7-10.4,20.2-13.9c4.9-18,23-20,30.7-20c3.2-0.1,6.4,0.2,9.5,1c7.6,2.2,9.1,9.3,8.2,12.4v0.2c-0.5,2.7-2.1,5-4.4,6.3
			c4.9,2.3,8.8,6.3,11,11.2c2.2,4.8,2.9,10.3,1.8,14c-2.3,7.8-9.7,16-23.8,16c-1.6,0-3.1-0.1-4.7-0.3c-14.6-1.7-23.1-13.3-26.4-19.1
			c-17.6,10-21.6,33.6-20.1,41.9c1.2,6.9,6.5,23.3,28.7,26.9c1.8,0.3,3.6,0.4,5.4,0.5c14.8,0,29.4-10.1,45.8-31.7
			c12-15.8,18.3-33.7,19.9-39c-3.1-4.8-4.6-10.6-4.1-16.3V121c0.3-3.4,4.8-15.5,16.2-15.5c1.6,0,3.1,0.2,4.6,0.6
			c3.4,0.8,6.3,3.1,7.9,6.3c3,6.3,0.4,15.2-1.2,19.6c1,0.7,2.4,1.7,4.4,3c2.3,1.3,4.8,2.3,7.4,3c5.9,2,12.6,4.3,15.6,9.4
			c4.4,7.5-1.4,20.3-6.6,31.5l-0.6,1.2c-4.6,10.1-7,17-7.3,19c0.1,0.2,0.2,0.4,0.3,0.6h0.3c1,0,4.2-0.6,11.9-6.4
			c6.8-5.1,18.2-18.8,34.1-55.2l0.6-1.4c1.8-4.2,5.7-12.8,13.5-12.8c1.3,0,2.6,0.2,3.9,0.7c2.2,0.7,4,2.4,4.9,4.5
			c2.1,4.9-0.8,11.4-3.3,17.1l-0.5,1.1c-2.7,6.1-7.9,20.6-8.4,21.8c-2.1,6.8-4.3,19.3-1.7,24.2c0.3,0.7,1,1.3,1.7,1.5
			s1.4,0.3,2.1,0.3c6.8,0,16.3-8.7,26.7-24.4c9.3-14.1,20.8-43.7,20.9-43.9c1.2-2.9,4.8-7.8,10.5-7.8c1,0,2.1,0.2,3.1,0.4
			c3.9,1.1,5.7,3.3,6.5,4.9c1,2,1.2,4.2,0.6,6.3c-0.4,1-8.2,24.4-12.2,34.2c-4.1,10.3-5.8,25.9-3.9,28.4l0.5,0.3
			c0.8-0.5,2.2-1.7,3.7-3c2.9-2.5,7.3-6.3,14.4-11.6c17.9-13.5,32.7-42,34.9-46.3c-0.9-3.1-2-6.2-3.5-9.1c-1.4-2.8-1.3-7.4,0.4-11.9
			c1.2-3.3,4.3-9.3,11.2-12.1c2.1-0.9,4.3-1.4,6.5-1.4c7.9,0,13.5,6.3,14.5,10.9c0.8,3.7-2.2,14.2-4.4,21.2
			c2.9,3.6,7.5,10.9,10.7,16.1l39.2-30.7c1.4-5.6,7.9-30.3,20.4-65.7c9.9-28,22.7-42.3,37.9-42.3c2.3,0,4.7,0.3,6.9,1
			c5.3,1.5,9.8,5.1,12.4,9.9c4.1,7.5,4,18.2-0.1,31.8c-5.5,17.9-16.4,32.3-22.6,39.6c7.7,1.6,13.5,5,17.4,10.1
			c4.9,6.5,6.4,16,4.2,26.5c-1.6,7.4-12.7,31.9-14,34.7c-1.5,3.4-2.5,8.6-1,12.5c0.6,1.9,2,3.4,3.9,4.2c2.4,1.3,5.1,2,7.9,2.1
			c2.8,0,5.4-1.2,8.5-4c6.7-6,10.2-17.2,11.1-20.5c1.9-6.8,6.2-10.9,11.5-10.9c1.1,0,2.1,0.2,3.1,0.5c2.3,0.6,4.2,2.1,5.3,4.2
			C519.9,152.9,519.9,157.2,518.1,163z"/>
	</g>
	<path class="st0" d="M513,151.6c-0.4-0.8-1.1-1.3-1.9-1.6c-1.2-0.3-2.6,0.3-2.3,0.9c0.8,0.8,1.9,1.3,3,1.3
		C512.3,152.3,512.7,152.1,513,151.6z"/>
	<path class="st0" d="M505.9,153.7c0,0-5.3,16.4-8.4,20.4s-9.7,14.2-25,10.5c0,0-1.2,0.8,0.9,1.5s12.2,4.4,20.5-3.7
		s12.3-19.9,13.5-23s1.8-6.2,0.4-6.6C507,152.5,506.2,152.9,505.9,153.7z"/>
	<path class="st0" d="M453.4,97.1c0,0,10.9,2.6,14,4.7s6.4,9.7,7,13s1.7,2.3,1.8,1.8s-1.6-14.4-8.1-17.1s-13.7-4.1-14.3-3.7
		S452.8,96.6,453.4,97.1z"/>
	<path class="st0" d="M424.9,108c0,0,19.5-17.2,23.4-22.8s-0.2-4.2-0.7-3.5s-13.4,15.4-15.7,17.1c-2.9,2.3-5.7,4.8-8.3,7.5
		C423.4,106.7,422.4,108,424.9,108z"/>
	<path class="st0" d="M469.6,40.2c0,0-3.8,12.9-5.4,16s-7.4,12-8.1,12.8s-0.4,2.4,0.6,2.2s6.4-7.2,8.6-11.7s6.2-17.7,6.3-20
		S469.3,38.3,469.6,40.2z"/>
	<path class="st0" d="M473.3,19.3c0,0-3.2-2-4.5-1.9s-3.3,0.8-3.2-0.4s2-2.4,4.2-1.9s4.8,1.7,4.8,2.5S474,19.8,473.3,19.3z"/>
	<path class="st0" d="M463.7,15.2c0,0,0.8,1.5-2.6,3.6s-13.9,9.7-16.7,14.2s-12,24.3-17.6,40.3s-13.2,40.4-13.8,40.3
		s11.1-43.3,14.8-54.7s10.4-29,20.4-36.8S459.6,12.8,463.7,15.2z"/>
	<path class="st0" d="M404.5,143.5c0,0-8.6,32.5-8.9,34.7s0.4,4.7,2.3,4.3s6.5-30.3,6.5-30.3S406.3,141.7,404.5,143.5z"/>
	<path class="st0" d="M395.6,134c0,0-4.5,3.7-5.2,4s-2.5-0.4-2-1.4s4.6-3.9,5.2-4.1s1.5-0.6,1.9,0.1S395.8,133.8,395.6,134z"/>
	<path class="st0" d="M386.5,140.8c0,0-50.9,37.8-55.4,40.5s-10.8,6.7-11.4,6.1s-0.4-2.3,3.4-5s58.5-41.6,58.5-41.6l3.9-2.6
		c0,0,1.2-0.4,1.7,0.5S387.5,140,386.5,140.8z"/>
	<path class="st0" d="M361.7,182.6c0,0-0.2,4.1-2.6,5.6s-9.9,4.8-9,5.7s2.5,0.6,5.5-0.8s6.9-3.8,7.4-6.5s0.5-6.4-0.8-6
		S361.7,182.6,361.7,182.6z"/>
	<path class="st0" d="M352,104.6c0,0,1.2,4-2.9,3.8s-10.7,0.1-12.9,6s-1.9,8.8-2.6,8.7s-1.8-5.3-0.1-10.3s6.4-9.8,11.9-9.4
		S351.4,103.9,352,104.6z"/>
	<path class="st0" d="M335.1,135.7c0,0-14.5,25.6-24.2,35.7s-16.7,16.3-15.9,17.1s5.7-2.7,10.2-7.5s18.9-19.9,24.8-30.4
		S337.5,134.4,335.1,135.7z"/>
	<path class="st0" d="M286.9,129.6c-1.9-1.3-4.5-0.9-5.9,1c-0.1,0.1-0.1,0.2-0.2,0.3c-2.5,3.8-6.7,16-7.9,15.8s-1.4-0.7-0.3-4.8
		s5.5-15,7.2-16.4c2-1.4,4.6-1.5,6.7-0.5c1.3,0.6,1.9,2.1,1.3,3.4C287.7,128.9,287.3,129.3,286.9,129.6z"/>
	<path class="st0" d="M270.8,148.1c-0.8,0.1-1.5,0.7-1.9,1.5c-0.5,0.8-0.2,1.9,0.6,2.4c0.1,0.1,0.2,0.1,0.3,0.2
		c0.8,0.2,1.5-1.3,1.7-2.1S271.5,148.4,270.8,148.1z"/>
	<path class="st0" d="M258.7,170.7c0,0-5.8,12.8-12.6,18.6s-10.7,10-14.3,10.6s-6.9,0.3-7,1.3s1.8,1.3,5.9,0.4s13.6-5.3,17-9.1
		s11.8-13.9,12.6-17.4s2.3-6.2,1.2-6.6S259.2,169.6,258.7,170.7z"/>
	<path class="st0" d="M230.1,134c0,0-0.5-0.7-0.9-1.4s-0.4-2.1,0.3-2.1c1.1,0.1,2.1,0.9,2.2,2.1c0,1.3-0.4,1.8-1,1.6L230.1,134z"/>
	<path class="st0" d="M227,131.4c-2.6,0.5-4.9,2.2-6,4.6c-2,4.2-6.4,14.6-7.3,14.4s1.1-5.9,1.1-5.9s4.3-12.8,6.6-14.1
		s4.5-1.7,5.9-1.3S227.9,131.2,227,131.4z"/>
	<path class="st0" d="M197.8,175.6c0,0-7.6,14.3-13.7,18.6s-13.4,8.1-12.4,9.4s4,1.1,5.8-0.4s11.6-7.3,15.9-12.8s8.5-14.6,8.4-15.8
		S199.2,173.1,197.8,175.6z"/>
	<path class="st0" d="M171.4,168.8c0.1-0.3,3.3-12.2,2.7-14.1s-3.8-5.1-9.9-8.6s-8.2-5-7.8-5.7s6,3,9.1,3.8s11.8,3.6,12.6,9
		s-4.5,17.6-5.8,17S171.4,168.8,171.4,168.8z"/>
	<path class="st0" d="M154.2,138.2c0,0-4.1-3-5.3-2.9s-1.3,2,0.1,2.8s3.9,2.1,4.4,1.3C153.8,139,154,138.6,154.2,138.2z"/>
	<path class="st0" d="M148.7,116.7c0,0-4.3-4.3-7.9-3.2s-6,3-6.8,4.8s-2.1,6-2.6,6s-1.6-0.9-0.8-4.2s3.5-8,7.4-9.4s8.6-1,11.3,1.3
		S151.7,118.1,148.7,116.7z"/>
	<path class="st0" d="M132.1,144c0,0-11.4,24.3-18.3,33.6s-17.9,19.6-16.7,21.6s2.8,0.2,5.2-2.4s17.1-19.9,20.9-26.5
		s9.3-17.4,10.2-19.7s2.7-6.2,1.2-7.3S132.5,143.2,132.1,144z"/>
	<path class="st0" d="M48.9,123.5c0,0,0.5,3.9-1.4,4.8c-1.9,0.9-20.8,12.2-25.2,21.4s-8.1,20.9-8.3,23.8c0,0-1.1-0.6-0.8-4
		s4.9-21.2,10.5-28.2S45.6,119.7,48.9,123.5z"/>
	<path class="st0" d="M64.3,133.1c0.1,0.2,4.3,9.5,9.1,11s8.8,1,8.4-0.6s-3.5,0-6.9-2.3s-9.6-6.7-9.9-7.7S64.1,132.6,64.3,133.1z"/>
	<path class="st0" d="M85,120c0,0,6.3,4,8.6,7.5s3.1,6.7,4.6,6.8s1.5-3.1,0-5.2C95,124.5,90.4,121.3,85,120z"/>
	<path class="st0" d="M98.2,138.3c0,0-0.7,2,0.5,2.7s2.4-1.8,2-2.6S98.9,137,98.2,138.3z"/>
	<path class="st0" d="M84.3,105.2c0,0-8.2-0.8-12.8-0.7s-5.9,0.6-5.9,0.6c3.8-1.2,7.6-1.9,11.6-2.2c5.6-0.2,8.4,0.2,8.6,1.1
		S84.8,105.2,84.3,105.2z"/>
	<path class="st0" d="M87.8,104.4c0,0-0.8,1.6,0.4,1.9s2.4-0.1,2-0.7S89.7,104.3,87.8,104.4z"/>
</g>
</svg>
