<svg xmlns="http://www.w3.org/2000/svg" viewBox="0 0 446.23 190.63"><defs><style>.cls-1{fill:#e56493;}.cls-2{fill:#e01f32;}.cls-3{fill:#df3468;}.cls-4{fill:#df214a;}.cls-5{fill:#e14065;}.cls-6{fill:#e01f34;}.cls-7{fill:#e01f33;}.cls-8{fill:#df2248;}.cls-9{fill:#fae6ef;}.cls-10{fill:#f4c4d7;}.cls-11{fill:#fff;}</style></defs><title>Asset 19</title><g id="Layer_2" data-name="Layer 2"><g id="Camada_1" data-name="Camada 1"><path class="cls-1" d="M.16,140.75S-.2,152,.16,153s.44,3.74,9,4.4,53,4.84,94.39,11.58,112.66,21.13,112.66,21.13a15.47,15.47,0,0,0,7.92,0c4.11-1.18,101.51-23.18,188.06-31.1,0,0,16.21-1.87,22.42-2.31s11.83-1.87,11.66-7.32S411.84,60,411.84,60l-6.43-16.84s-2.09-6.27-7.43-7.59-17.55-4.07-18.26-4.29-4.18-1.15-6.55.77-29.32,28.61-29.32,28.61S345.39,26.4,309.46,20l-30-3.3s-12-.95-13-.51-3.6.07-5.14,5.94-3.45,12.39-3.45,12.39-13.13-26-42.46-22.66-38,27.72-38,27.72a84.67,84.67,0,0,0-4.18,29.71L151.77,24.13s-1.51-6.75-9.5-5.68-19.59,2.38-19.59,2.38-5.61,0-8.17,7.77-13.28,35.14-13.28,35.14-18.7-18.12-24.5-21.57-16.5-8.73-39.53-2.42-25.67,7.63-25.67,7.63S6.32,49.16,5.88,56,.16,140.75.16,140.75Z"/><path class="cls-2" d="M432.75,141.41l6.05,9.24S332,163.41,218.8,188.49c0,0,114.42-32.27,205.07-43.78Z"/><path class="cls-3" d="M427,141.41l-3.16,3.3S248.43,176.83,218.8,188.49L407,105.76Z"/><polygon class="cls-4" points="384.85 56.7 415.14 102.97 368.88 124.47 384.85 56.7"/><polygon class="cls-5" points="377.74 38.21 375.39 38.21 327.57 82.22 336.15 121.16 277.77 155.64 277.77 161.87 355.95 126.45 377.74 38.21"/><polygon class="cls-6" points="349.8 122.78 218.8 188.49 365.31 130.85 349.8 122.78"/><polygon class="cls-6" points="335.27 119.64 340.28 126.44 218.8 188.49 323.76 117.87 335.27 119.64"/><polygon class="cls-3" points="315.25 76.3 281.88 119.64 218.8 188.49 322.36 121.16 323.76 82.22 315.25 76.3"/><polygon class="cls-4" points="285.4 37.33 321.04 45.18 313.27 78.63 288.63 110.86 285.4 37.33"/><polygon class="cls-2" points="288.72 120.67 218.8 188.49 270.51 112.18 288.72 120.67"/><polygon class="cls-5" points="219.31 187.17 277.77 102.97 274.54 22.48 266.92 21.05 256.35 58.09 252.12 102.97 219.31 187.17"/><polygon class="cls-7" points="184.96 93.8 184.96 99.43 218.8 188.49 253.12 100.41 240.88 101.07 216.9 102.97 201.29 99.16 184.96 93.8"/><rect class="cls-4" x="198.89" y="33" width="43.97" height="68.07"/><polygon class="cls-8" points="129.1 48.56 117.22 92.34 218.8 188.49 158.48 119.64 144.5 68.9 129.1 48.56"/><polygon class="cls-7" points="157.27 115.66 156.44 117.31 218.8 188.49 177.63 110.86 157.27 115.66"/><polygon class="cls-5" points="147.19 28.53 218.8 188.09 217.78 186.15 174.21 104.44 145.46 29.63 147.19 28.53"/><polygon class="cls-3" points="115.39 90.95 218.8 188.49 94.26 121.83 115.39 90.95"/><path class="cls-2" d="M218.8,188.49s-74.07-16-98.28-20.24C91.53,163.15,5,151.33,5,151.33L60,126.45l13.84-13.87,31.49,13.87Z"/><path class="cls-4" d="M29.87,65.28,70.65,89.63s-17.17,39.53-42.32,39.64S29.87,65.28,29.87,65.28Z"/><path class="cls-2" d="M28.33,65.28s32.78-11.74,38.5-1.62,3.82,26,3.82,26Z"/><path class="cls-5" d="M209,184.31,55.83,131.73s17.6-13.21,22-27.51.22-52.29.22-52.29h.74l32.05,30.51L82.75,130.7Z"/><path class="cls-9" d="M74.31,46.94a38.24,38.24,0,0,0-25.63-3.89c-14.41,3-34,8.69-34,8.69l-1.66,1s-1.43.55-1.65,3.85S5,145.42,5,145.42V149a2.08,2.08,0,0,0,2.69,2.25C10.5,150.7,35.53,143.39,42,141s35.67-11.49,43-47.58S74.31,46.94,74.31,46.94Zm-13,55.52c-6.27,15.84-33,20.9-33,20.9L32.51,67a83.77,83.77,0,0,1,19.8-4.18C64,61.76,69.51,81.81,61.33,102.46Z"/><path class="cls-10" d="M12,141.45h-.14a2,2,0,0,1-1.8-2.08c.06-.72,5.28-72.22,5.42-81.45l0-1.28,1.19-.49c4-1.63,39.54-15.71,51.38-6.32a1.95,1.95,0,1,1-2.42,3c-8.22-6.53-35.15,2-46.31,6.4-.49,13.16-5.19,77.53-5.4,80.37A1.94,1.94,0,0,1,12,141.45Z"/><path class="cls-10" d="M45.12,125.75a1.94,1.94,0,0,1-.54-3.81c22-6.43,22.94-27.75,23-28a1.95,1.95,0,0,1,3.89.12c0,.25-1.07,24.38-25.75,31.58A2.09,2.09,0,0,1,45.12,125.75Z"/><path class="cls-9" d="M178,111.92s-30.16-81.79-31.7-85.7A3.89,3.89,0,0,0,141,23.91s-10,1.83-15.53,2.49-5.8,5-5.8,5-9,22.15-11.07,28.17-23,59-24.42,62.41.22,7,.51,7,15.25-2,17.67-2.56,4.55-7.34,4.55-7.34l10.27-26.77,28.33-4.24s10.29,27.62,10.89,29.21,3,1.21,3.91,1.16,7.86-.72,14.13-1.16S178,111.92,178,111.92Zm-52-41.8,6.68-16.58,5.94,14.3Z"/><path class="cls-10" d="M162,116.8a1.93,1.93,0,0,1-1.8-1.22L148.49,86.69a1.95,1.95,0,0,1,3.61-1.46l11.66,28.9a1.94,1.94,0,0,1-1.07,2.53A1.89,1.89,0,0,1,162,116.8Z"/><path class="cls-10" d="M126.61,76.46a1.94,1.94,0,0,1-.26-3.87l13.28-1.76a1.95,1.95,0,0,1,.51,3.86l-13.28,1.75A1.06,1.06,0,0,1,126.61,76.46Z"/><path class="cls-10" d="M90.05,123.11a1.94,1.94,0,0,1-1.82-2.65l35.63-92,15.79-1.9a1.94,1.94,0,0,1,.47,3.86l-13.48,1.62L91.86,121.87A1.94,1.94,0,0,1,90.05,123.11Z"/><polygon class="cls-11" points="67.42 129.01 82.53 127.98 83.66 106.28 86.12 127.55 113.48 129.01 85.09 130.55 84 152.26 82.75 130.7 67.42 129.01"/><path class="cls-9" d="M217.48,16.72s-26.55.59-34.91,25.09S179.34,91,186,101.08s16.13,20.23,35.35,18.32,35.79-11.29,37.84-43.05S250.19,16.72,217.48,16.72ZM237.69,70c-.88,28.27-18.26,28.05-18.26,28.05-13.87-.33-19.59-16.17-17.83-38.72s17.83-22,17.83-22C224.71,37.33,238.57,41.73,237.69,70Z"/><path class="cls-10" d="M231,102.35a1.94,1.94,0,0,1-.91-3.66C237,95,239,84.4,239,84.29a1.95,1.95,0,0,1,3.83.69c-.09.52-2.35,12.61-10.9,17.15A2,2,0,0,1,231,102.35Z"/><path class="cls-10" d="M212.28,113.1h-.22C203.3,112.1,196,107.4,191,99.5c-9.56-14.93-9.57-38.5-4.73-53.1C193.66,24,211.74,20.69,212.5,20.56a1.95,1.95,0,0,1,.65,3.84c-.68.12-16.57,3.12-23.23,23.23-4.56,13.74-4.6,35.86,4.3,49.78,4.47,7,10.61,11,18.27,11.81a1.95,1.95,0,0,1-.21,3.88Z"/><polygon class="cls-11" points="212.13 0 210.59 15.62 195.26 16.72 210.56 17.72 211.83 33.01 212.82 17.9 228.78 16.72 212.82 15.62 212.13 0"/><path class="cls-9" d="M329.84,76.35s8.37-5.79,8.37-19.29-11.89-28.6-30.37-32-40.92-4-40.92-4v4.77l1.9,88a4.63,4.63,0,0,0,4.51,4.47c4.4.28,15.52,1.21,15.9,1s1.43-.77,1.43-3.19-.93-35.81-.93-35.81,13.09,1.65,15.18,1.76,13.31,5.72,14.63,17.82a192.94,192.94,0,0,1,1.21,21,4.32,4.32,0,0,0,3.85,2.81c3.19.39,15.13,2.86,15.68,2.7s1.48-2.15,1.43-4.19S345.1,90.8,329.84,76.35ZM311.73,61.21c-3.08.77-22.55-1.32-22.55-1.32l-.55-17.39s3.74-.22,14.3,1.32,14.3,6.38,14.3,10.23A7.08,7.08,0,0,1,311.73,61.21Z"/><path class="cls-10" d="M275.42,114.53a2,2,0,0,1-1.94-1.88l-3.16-88.9L305.38,27c.72.09,16.31,2.15,22.74,12.5a1.94,1.94,0,1,1-3.3,2c-5.33-8.58-19.14-10.58-19.84-10.68L274.37,28l3,84.48a2,2,0,0,1-1.88,2Z"/><path class="cls-10" d="M309.8,68.32h-.39a1.95,1.95,0,0,1,0-3.89h.05a9.59,9.59,0,0,0,9.67-6.85,1.94,1.94,0,0,1,3.75,1A13.47,13.47,0,0,1,309.8,68.32Z"/><path class="cls-10" d="M326.47,119.88h-.06a1.94,1.94,0,0,1-1.88-2c0-.19.49-19.09-5.17-28.89A1.95,1.95,0,1,1,322.73,87c6.22,10.77,5.71,30.14,5.69,31A2,2,0,0,1,326.47,119.88Z"/><path class="cls-9" d="M439.57,144.71c-1.32-2.64-39.17-99.24-39.17-99.24a8,8,0,0,0-5.28-4.4c-3.81-.88-16.72-4.1-16.72-4.1s-3-.33-4.11,3.22l-26,81.74s-1.87,4.41,3.63,5.51,13.43,3.41,13.43,3.41a2.15,2.15,0,0,0,3.19-1.54c.66-2.75,9.57-28.24,9.57-28.24l26.73,7.33,13.09,33.34a7.17,7.17,0,0,0,4.08,4.07c3,1,15.73,4.95,16.83,4.84S440.89,147.35,439.57,144.71ZM394.31,84.53,385,82.15a1.16,1.16,0,0,1-.92-1.36s3.7-10.49,4.18-11.41a.84.84,0,0,1,1.32-.25s3.89,10.12,4.95,12.8S394.31,84.53,394.31,84.53Z"/><path class="cls-10" d="M399.38,94.07a1.89,1.89,0,0,1-.53-.08l-14.53-4.11a1.94,1.94,0,1,1,1.06-3.74l14.52,4.11a1.95,1.95,0,0,1-.52,3.82Z"/><path class="cls-10" d="M354.2,124.72a1.87,1.87,0,0,1-.57-.08,2,2,0,0,1-1.3-2.42l25-82.9,19.25,4.85a1.95,1.95,0,0,1-.95,3.78L380,44l-24,79.34A2,2,0,0,1,354.2,124.72Z"/><path class="cls-10" d="M423.87,143.35a1.94,1.94,0,0,1-1.8-1.21l-13.79-33.88a2,2,0,0,1,1.07-2.54,1.93,1.93,0,0,1,2.53,1.07l13.79,33.88a2,2,0,0,1-1.06,2.54A1.91,1.91,0,0,1,423.87,143.35Z"/><polygon class="cls-11" points="368.83 109.72 367.62 130.96 346.82 130.96 367.29 132.94 368.83 153.84 369.6 133.16 390.94 131.29 369.6 130.63 368.83 109.72"/></g></g></svg>