<?xml version="1.0" encoding="utf-8"?>
<!-- Generator: Adobe Illustrator 22.0.0, SVG Export Plug-In . SVG Version: 6.00 Build 0)  -->
<svg version="1.1" id="Layer_1" xmlns="http://www.w3.org/2000/svg" xmlns:xlink="http://www.w3.org/1999/xlink" x="0px" y="0px"
	 viewBox="0 0 446.2 190.6" style="enable-background:new 0 0 446.2 190.6;" xml:space="preserve">
<style type="text/css">
	.st0{fill:#E56493;}
	.st1{fill:#620809;}
	.st2{fill:#5E0708;}
</style>
<title>Asset 19</title>
<g>
	<g>
		<path class="st0" d="M311.7,61.2c3.3-0.8,5.6-3.8,5.5-7.2c0-3.8-3.7-8.7-14.3-10.2c-10.6-1.5-14.3-1.3-14.3-1.3l0.5,17.4
			C289.2,59.9,308.7,62,311.7,61.2z"/>
		<path class="st0" d="M61.3,102.5L61.3,102.5c8.2-20.7,2.7-40.7-9-39.6c-6.7,0.6-13.4,2-19.8,4.2l-4.2,56.4
			C28.3,123.4,55,118.3,61.3,102.5z"/>
		<path class="st0" d="M156.4,117.3c-0.6-1.6-10.9-29.2-10.9-29.2l-28.3,4.2l-10.3,26.8c0,0-2.1,6.8-4.6,7.3l116.4,62.1l-61.6-70.3
			C156.8,118,156.6,117.7,156.4,117.3z"/>
		<polygon class="st0" points="126,70.1 138.6,67.8 132.7,53.5 		"/>
		<path class="st0" d="M237.7,70c0.9-28.3-13-32.7-18.3-32.7c0,0-16.1-0.6-17.8,22c-1.8,22.5,4,38.4,17.8,38.7
			C219.4,98,236.8,98.3,237.7,70z"/>
		<path class="st0" d="M219.4,187.9c-0.4,0.4-0.6,0.6-0.6,0.6l0.7-0.5L219.4,187.9z"/>
		<path class="st0" d="M304.9,82.1c-2.1-0.1-15.2-1.8-15.2-1.8s0.9,33.4,0.9,35.8c0,2.3-63.7,64.5-71.1,71.7v0.2l101.2-68.1
			c-0.1-6.7-0.4-13.4-1.2-20C318.2,87.8,307,82.2,304.9,82.1z"/>
		<path class="st0" d="M389.6,69.1c-0.1-0.1-0.1-0.1-0.2-0.1c-0.4-0.2-0.9,0-1.1,0.4c-0.5,0.9-4.2,11.4-4.2,11.4l0,0
			c-0.1,0.6,0.3,1.2,0.9,1.4l9.3,2.4c0,0,1.3,0.1,0.2-2.6S389.6,69.1,389.6,69.1z"/>
		<path class="st0" d="M417.9,141.7l-13.1-33.3l-26.7-7.3c0,0-8.9,25.5-9.6,28.2c0,0.3-0.1,0.5-0.3,0.7c-0.6,1-1.9,1.4-2.9,0.8
			c0,0,0,0-0.1,0h0.1l-146.5,57.6c0,0,111.8-31.5,201.9-43.4C419.4,144.3,418.5,143.1,417.9,141.7z"/>
	</g>
	<path class="st0" d="M19.3,59.2c-0.5,13.2-5.2,77.5-5.4,80.4c0,1-0.9,1.8-1.9,1.9h-0.1c-1.1-0.1-1.8-1-1.8-2.1
		c0.1-0.7,5.3-72.2,5.4-81.5v-1.3l1.2-0.5c4-1.6,39.5-15.7,51.4-6.3c0.9,0.5,1.2,1.7,0.7,2.7c-0.5,0.9-1.7,1.2-2.7,0.7
		c-0.2-0.1-0.3-0.2-0.5-0.4C57.4,46.3,30.5,54.8,19.3,59.2z M69.7,92.2c-1.1-0.1-2,0.7-2.1,1.8c-0.1,0.3-1,21.6-23,28
		c-0.8,0.2-1.4,1-1.4,1.9c0,1.1,0.9,1.9,2,1.9c0.2,0,0.4,0,0.6-0.1c24.7-7.2,25.8-31.3,25.8-31.6C71.4,93.1,70.7,92.3,69.7,92.2z
		 M152.1,85.2c-0.4-0.9-1.5-1.3-2.4-1c-1,0.3-1.6,1.5-1.2,2.5l11.7,28.9c0.3,0.7,1,1.2,1.8,1.2c0.2,0,0.5-0.1,0.7-0.1l0,0
		c1-0.4,1.5-1.5,1.1-2.5L152.1,85.2z M139.6,70.8l-13.3,1.8c-1,0.1-1.8,1-1.8,2c0,1.1,0.9,1.9,2,1.9c0.1,0,0.2,0,0.3,0l13.3-1.8
		c1-0.2,1.7-1.1,1.6-2.1C141.6,71.6,140.7,70.8,139.6,70.8z M139.6,26.6l-15.8,1.9l-35.6,92c-0.1,0.2-0.1,0.5-0.1,0.7
		c0,1.1,0.9,1.9,2,1.9c0.8,0,1.5-0.5,1.8-1.2L126.6,32l13.5-1.6c1.1-0.1,1.8-1.1,1.7-2.2C141.7,27.2,140.7,26.4,139.6,26.6z
		 M241.4,82.9c-1-0.3-2.1,0.4-2.4,1.4c0,0.1-2,10.7-8.9,14.4c-0.6,0.3-1,1-1,1.7c0,1.1,0.9,1.9,2,1.9c0.3,0,0.6-0.1,0.9-0.2
		c8.5-4.5,10.8-16.6,10.9-17.2C242.9,84,242.3,83.1,241.4,82.9z M213.2,24.4c1-0.2,1.6-1.1,1.5-2.1c-0.1-1.1-1.1-1.8-2.2-1.7
		c-0.8,0.1-18.8,3.4-26.2,25.8c-4.8,14.6-4.8,38.2,4.7,53.1c5,7.9,12.3,12.6,21.1,13.6h0.2c0.9,0,1.7-0.7,1.9-1.7
		c0.2-1.1-0.6-2.1-1.7-2.2c-7.7-0.8-13.8-4.8-18.3-11.8c-8.9-13.9-8.9-36-4.3-49.8C196.6,27.5,212.5,24.5,213.2,24.4z M305.4,27
		l-35.1-3.3l3.2,88.9c0.1,1,0.9,1.9,1.9,1.9h0.1c1.1-0.1,1.9-0.9,1.9-2l-3-84.5l30.6,2.8c0.7,0.1,14.5,2.1,19.8,10.7
		c0.1,0.1,0.1,0.2,0.2,0.3c0.6,0.9,1.9,1,2.7,0.4s1-1.9,0.4-2.7C321.7,29.2,306.1,27.1,305.4,27z M322.9,58.6c0.3-1-0.3-2.1-1.4-2.4
		c-1-0.3-2.1,0.3-2.4,1.4c-1.3,4.2-5.3,7.1-9.7,6.8l0,0c-1,0.1-1.7,0.8-1.8,1.8c-0.1,1.1,0.7,2,1.8,2.1h0.4
		C315.9,68.4,321.2,64.4,322.9,58.6z M320,86.3c-0.9,0.5-1.2,1.7-0.7,2.7c5.7,9.8,5.2,28.7,5.2,28.9l0,0c0,1.1,0.8,2,1.9,2h0.1
		c1,0,1.9-0.8,2-1.9c0-0.9,0.5-20.2-5.7-31C322.2,86.1,321,85.8,320,86.3z M399.9,90.3l-14.5-4.1c-1-0.3-2.1,0.3-2.4,1.3
		s0.3,2.1,1.3,2.4l14.5,4.1c0.2,0.1,0.4,0.1,0.5,0.1c0.9,0,1.6-0.6,1.8-1.4C401.5,91.6,400.9,90.6,399.9,90.3z M397.9,46.6
		c0.3-1-0.3-2.1-1.3-2.4l-19.3-4.8l-25,82.9c-0.3,1,0.3,2.1,1.3,2.4c0.2,0.1,0.4,0.1,0.6,0.1c0.8,0,1.5-0.6,1.8-1.4L380,44l15.6,4
		C396.6,48.2,397.6,47.6,397.9,46.6z M425.7,140.7l-13.8-33.9l0,0c-0.4-1-1.5-1.5-2.5-1c-1,0.4-1.4,1.5-1.1,2.5l13.8,33.9
		c0.3,0.7,1,1.2,1.8,1.2c0.3,0,0.5,0,0.7-0.1C425.6,142.8,426,141.7,425.7,140.7z"/>
	<g>
		<path class="st0" d="M241.6,113.1L241.6,113.1c-5.9,3.7-12.9,5.6-20.2,6.3c-0.6,0.1-1.2,0.1-1.8,0.1v67.7L241.6,113.1z"/>
		<path class="st0" d="M411.8,60l-6.4-16.8c0,0-2.1-6.3-7.4-7.6s-17.5-4.1-18.3-4.3c-0.7-0.2-4.2-1.1-6.5,0.8
			c-2.3,1.9-29.3,28.6-29.3,28.6s1.5-34.3-34.4-40.7l-30-3.3c0,0-12-1-13-0.5s-3.6,0.1-5.1,5.9c-1.5,5.9-3.5,12.4-3.5,12.4
			s-13.1-26-42.5-22.7c-29.3,3.3-38,27.7-38,27.7c-3.2,9.6-4.6,19.6-4.2,29.7L151.7,24c0,0-1.5-6.8-9.5-5.7
			c-8,1.1-19.6,2.4-19.6,2.4s-5.6,0-8.2,7.8s-13.3,35.1-13.3,35.1s-18.6-18-24.4-21.4c-5.8-3.5-16.5-8.7-39.5-2.4
			s-25.7,7.6-25.7,7.6S6.3,49.2,5.9,56s-5.7,84.8-5.7,84.8s-0.4,11.3,0,12.3s0.4,3.7,9,4.4s53,4.8,94.4,11.6s112.7,21.1,112.7,21.1
			c2.6,0.7,5.3,0.7,7.9,0c4.1-1.2,101.5-23.2,188.1-31.1c0,0,16.2-1.9,22.4-2.3s11.8-1.9,11.7-7.3S411.8,60,411.8,60z M438.8,150.7
			C438.8,150.7,438.8,150.6,438.8,150.7L438.8,150.7c0,0-106.8,12.8-220,37.8c0,0-74.1-16-98.3-20.2c-29-5.2-115.5-17-115.5-17
			l0.9-0.3c-0.6-0.4-1-1.2-0.9-2v-3.6c0,0,6.2-85.5,6.4-88.8c0.2-3.3,1.7-3.8,1.7-3.8l1.7-1c0,0,19.6-5.7,34-8.7
			c8.7-1.7,17.8-0.4,25.6,3.9c0,0,18,10.4,10.7,46.5s-36.5,45.2-43,47.6c-0.7,0.2-1.6,0.6-2.6,0.9l179.4,46.6L84.7,129
			c-0.3,0-1.9-3.6-0.5-7s22.4-56.4,24.4-62.4c2.1-6,11.1-28.2,11.1-28.2s0.3-4.3,5.8-5s15.5-2.5,15.5-2.5c0.1-0.1,0.3-0.1,0.4-0.1
			c2-0.7,4.2,0.4,4.9,2.5c1.4,3.6,27.8,75.1,31.3,84.6l0,0l41.2,77.6l0.5-0.8l-35.7-90.8c-0.7-1.4-1.3-3-1.8-4.7l0,0
			c-4.1-12.3-5.8-31.4,0.7-50.4c8.4-24.5,34.9-25.1,34.9-25.1c32.7,0,43.8,27.9,41.7,59.6c-0.6,9.4-2.5,16.8-5.3,22.6l0,0
			l-34.4,88.4l49.4-72.9c0-0.2-0.1-0.5-0.1-0.7l-1.9-88v-4.8c0,0,22.4,0.6,40.9,4s30.4,18.5,30.4,32s-8.4,19.3-8.4,19.3
			c15.3,14.5,11.8,43.8,11.9,45.9c0.1,2-0.9,4-1.4,4.2l0,0l0,0l-121.5,62L348,123.7c0-1,0.3-1.8,0.3-1.8l26-81.7
			c1.1-3.5,4.1-3.2,4.1-3.2s12.9,3.2,16.7,4.1c2.3,0.6,4.3,2.2,5.3,4.4c0,0,37.8,96.6,39.2,99.2
			C440.9,147.3,439.9,150.5,438.8,150.7z"/>
	</g>
	<polygon class="st1" points="67.4,129 82.5,128 83.7,106.3 86.1,127.6 113.5,129 85.1,130.6 84,152.3 82.8,130.7 	"/>
	<polygon class="st2" points="212.1,0 210.6,15.6 195.3,16.7 210.6,17.7 211.8,33 212.8,17.9 228.8,16.7 212.8,15.6 	"/>
	<polygon class="st1" points="368.8,109.7 367.6,131 346.8,131 367.3,132.9 368.8,153.8 369.6,133.2 390.9,131.3 369.6,130.6 	"/>
</g>
</svg>
