<svg xmlns="http://www.w3.org/2000/svg" viewBox="0 0 416.14 219.42"><defs><style>.cls-1{fill:#7b3873;}.cls-2{fill:#e24454;}</style></defs><title>Asset 3</title><g id="Layer_2" data-name="Layer 2"><g id="Camada_1" data-name="Camada 1"><path class="cls-1" d="M268.27,62.71c.06-.74,2.16-4.33,2.16-5.61s-3.52-1.55-5-1.89-12.64-.07-23.46,1S208.71,63.4,195.63,66.8,179.69,73.57,178.3,75s-2.44,4.39-3,5.22-2,.84-2.66,1.22a4.35,4.35,0,0,1-1.93.64c-.45,0-.25-2.44-.28-2.74s-4.13,0-5.51,0-1.12-.24-2.74-1.29-5.51.14-6.29.17-2.84-1.89-4.46-1.86-2.57.17-4.66,2.87-10.75,18.66-22.11,41.1-24,59-24.21,60.11-.92.51-.92.51c-.66-3.45-5.27-3.5-12.77-3.45S62.17,181.78,58,182.86,44.46,187,44.12,187s-.34-1.25-.27-2.13,3.8-12.66,4.15-13.52,1.12-2.79,1.63-3,8.11-2.44,10-2.89,8.72-1.58,9.84-1.58,2-1.31,1.42-1.77-5.73.46-7.91.81-13.38,4-13.38,4a155.55,155.55,0,0,1,16.12-5c6.18-1.32,18.52-3.21,21-3.28a5.57,5.57,0,0,0,4.26-2.5,53,53,0,0,0,3.58-6.63,23.26,23.26,0,0,0,1.22-5.94c.14-.95,3.25-2,4.66-2.84a4.89,4.89,0,0,0,2.3-3.52c.07-1-.54-1.15-1-1.55s.27-1.42.81-2.5a1.59,1.59,0,0,0-.68-2.24,16.88,16.88,0,0,0-3.44-.81A106.72,106.72,0,0,0,86.5,130c-4.06.2-21.83,4.46-21.83,4.46s3.85-7.24,5.34-10.07,3.11-7,3.11-7.78-.41-.88-.41-.88-1.35,0-1.69-.54.07-1.15,1.49-1.15a5.66,5.66,0,0,0,2.5-.6s17.57-4.26,25.89-5.82,22.78-2.84,22.78-2.84-.59-2-.75-2.89,1.22-2.94,2.49-4.2,2.38-1.83,2.48-3.1-2.74-.45-2.94-1.11.51-2.23,1.47-4.06-.28-6.37-.08-7.55,1.62-4.73,1.21-5.14-6,.07-16.29,1.44S90.76,82.45,69.8,88.13s-25.95,9.73-28.25,13.58,2.3,15,2.3,15c-4.06,6-12.44,22-20.15,38.19S10,195.17,8.66,200.29s-.05,8.56,1.47,13.13,4.62,5.67,7.15,6,9.53-2.64,24.34-6.59S78,205.34,85,204.87s12-11.7,12-11.7v7.64s.54.68,2.36.68,3.72-1.83,4.8-3.05,3-.6,4.26-.54a22.73,22.73,0,0,0,6.15,0c2.23-.47,6-4.32,7-5.41s2.17.48,2.37,1.36,2.23.74,4.93-.34,4.73-7,6.22-12.3,7.44-24,13.25-39.28,19.84-40.86,21.23-43.83a25.57,25.57,0,0,1,3.48-5.38s.1,3.38.4,5.61,2.91,1.73,4.43,1.73,10.54-2.94,14.4-4.06,4.86-.51,4.86-.51-2.83,5.48-8.21,16.33-11.05,22.81-17.34,38.73-10.44,29.76-10.36,31.86.07,2.72,1,2.82a3.16,3.16,0,0,0,2.23-1,7.7,7.7,0,0,1,3.12-1c1.65-.36,1.91-1.54,2.79-2s4.8.13,7.64.07,4.39-1.22,5.74-1.49,3.38,1.22,8-.27,6.29-9.67,12.65-27.92,24.87-55.09,24.87-55.09,5.21-9.6,5.88-10,17.71-2.77,21.23-3.11,8.18-4.4,9.32-6.29.07-3.92-.06-4.73,1.89-1.76,2.84-3.11a4.81,4.81,0,0,0,.2-4.26A4.1,4.1,0,0,1,268.27,62.71ZM95.2,135.14s.46,1.47-.45,1.82-11.31.61-11.31.61A44.78,44.78,0,0,1,95.2,135.14Zm20.87-40.69c1.32-.1,6.09-.31,6.09-.31s1.11.37.2.75l-7.17.33S114.76,94.55,116.07,94.45Zm-2,1c.2.05,0,.37-.44.44s-.81-.1-.78-.44S114.08,95.46,114.08,95.46Zm-80.78,50L26.14,158s3.24-8.65,6-14.53S45.4,120.37,45.4,120.37c2.77-1.08-2.57,7.17-2.57,7.17Zm90.11,28.19c.13-.57.33-1.25.59-2,1.18-4,3.83-12.67,4.92-14.28,0,0,.54-.77,1,0,0,0-4.21,9-6,14.28Zm5.69-2.93c-.79,1.37-5,12.39-5,12.39a45.58,45.58,0,0,1,5.68-16.27C131.08,166.81,129.9,169.34,129.1,170.71Zm65.76-55.41c-1.49,2.43-5.88,8.45-7.17,11.29s-13,33-13,33-1.15.54-.67-1.42,15.14-40.7,22.84-52.8l1.39-2.26s.41-.94,1.18-.51C199.45,102.59,196.34,112.87,194.86,115.3Z"/><path class="cls-1" d="M129.45,84a5.25,5.25,0,0,0,2.69-.38c1.36-.61,3-1.5,2.68-2.13s-.88-1.14-2-.56-3.15,1.29-3.4,2A1.31,1.31,0,0,0,129.45,84Z"/><path class="cls-1" d="M128.94,92.22s-.1-.86,1.19-.88,2.41-.13,2.36.44-.48.62-1.09.93a3.12,3.12,0,0,1-1.52.38A.93.93,0,0,1,128.94,92.22Z"/><path class="cls-1" d="M104.94,131.54a14.64,14.64,0,0,1,3.44-2.31c1.63-.66,3.76-1.09,4.34-.48s.3,1.67-.81,2.13a22.76,22.76,0,0,1-5.73,1.32C105.14,132.12,104.63,132.17,104.94,131.54Z"/><path class="cls-1" d="M121.79,197.94a10.4,10.4,0,0,0-2.47,3.55c-.61,1.82-.58,3.31,0,3.65s1.79-.07,2.6-1.69,1.42-4.2,1.22-5A.87.87,0,0,0,121.79,197.94Z"/><path class="cls-1" d="M159.64,127.33s-8.11,19.37-8.82,21.09-4.72,12.22-5.58,12.17,1.07-6.9,3.09-12,9.48-22.25,10.4-23.47,2.07-1.92,2.07-1.27A21.51,21.51,0,0,1,159.64,127.33Z"/><path class="cls-1" d="M165.22,186s-.85.3-1,.91.06,1.28.81,1.25.94-.57,1.25-1.08.67-1.15.13-1.35A1.52,1.52,0,0,0,165.22,186Z"/><path class="cls-1" d="M207.16,179.92s-1.69.85-1.86,1.46-.17.71.68.71,1-.44,1.48-.65,1.12-.3,1-.91A.91.91,0,0,0,207.16,179.92Z"/><path class="cls-1" d="M273.81,58.35a3.75,3.75,0,0,0-1.12.71.94.94,0,0,0,.14,1.45,1.9,1.9,0,0,0,1.82-.44c.27-.33.88-1,.61-1.42A1.19,1.19,0,0,0,273.81,58.35Z"/><path class="cls-1" d="M339.82,43.78c-1.83-.45-5.48.56-6.54,0s-4.36-3.24-7.51-3.19-4.46.1-5.27.61-1.67,1.62-2.84.71a5.45,5.45,0,0,0-4.16-1.62c-2.28,0-5,0-6.74,1.82s-2.23,4-3.55,3.6-5.83-3.19-7.85-2.79-14.66,17-19.22,22.66-36,48.37-44.24,62c0,0-10.87,3.79-13.25,8a15.72,15.72,0,0,0-2.18,9.93c.25,2.44,1.29,4.65,1,5.12,0,0-9.26,13.32-11,18.12s-2.95,8.85-1.21,8.65,4.25-2.84,7.09-2,5.81,2.37,7.43,1.42,3.92-2,6.09-1.49,3.58.54,5.47-2.7,8.86-16.09,9.8-16.63,21.9-5.54,22.85-5.41.54,2.44,0,4.13-1.42,8.11,1.22,9.66a6.53,6.53,0,0,0,6.22.54c1.75-.61,3.92-2.36,5.81-1.82s3.06,1.94,5.36,1.13,3.7-1.95,6.19-2a12.93,12.93,0,0,0,5.17-1.24c.84-.44,4-1.3,4.87-1.65s5.72-3,7.75-12,9.73-40.42,16.49-58,15.88-38.31,16.8-40S341.64,44.24,339.82,43.78ZM215.88,162.28c-.81,1.15-3.72,6.29-4.39,7.23s-.61.07-.55-.67,4.2-10.21,4.2-10.21c.23-.53.74-.74,1.41-.34S216.69,161.13,215.88,162.28ZM280.25,97s-5.48,15.51-5.93,17.69L266,117S277.76,99.3,280.25,97Zm12.62,23.21c-2.28,0-7.63-.35-12.08.51s-12.05,1.52-14.18.66c0,0,14.09-2.08,15.46-2.48s8.62-1.47,11.26-1S295.15,120.23,292.87,120.23Z"/><path class="cls-1" d="M273.1,169.16s-3.25,2.38-3.25,3.29.92,2.13,1.63,2,3.09-3.24,3.6-3.9,1.26-2.54.5-2.54A7.52,7.52,0,0,0,273.1,169.16Z"/><path class="cls-1" d="M329.44,138.42s-10.75,6.89-16.76,18.18-1.49,12.44,4,12.17,13.52-3.11,16.7-4,15-1.89,19.33-6.22,9.2-11,8.93-15.07-3.79-6-6.63-6.42c0,0-1.28-.48-.81-1.42s1.62-4.26-1.69-5.21-7.64-.4-12.71,2A83.44,83.44,0,0,0,329.44,138.42Z"/><path class="cls-1" d="M359.12,44.32S338.7,86.23,336.27,93.26s-8.72,22.75-8.11,26.54,3.44,3.68,5.57,3.07,8.52-4.68,12.17-5.08,8.11.11,12.37-1.61,8.21-1.12,10-4.87,12-31.95,23.93-53.08,21.85-37.51,22.91-40.5,1.83-6-.76-5.48-5.32,4.41-6.39,3.9-2.53-3.09-5.37-2.78-9.33,4.76-10.85,4.2-3.35-3.5-6.13-3.19-8.33,2.18-13.52,9.18S359.12,44.32,359.12,44.32Z"/><path class="cls-1" d="M397.39,7.79s-3.53,3.56-4.6,4-2.56.59-2.26-.52,2.74-2.74,3.55-3.43a3.29,3.29,0,0,1,2.58-.88C397.66,7,397.65,7.53,397.39,7.79Z"/><path class="cls-1" d="M358.68,132.54a3.68,3.68,0,0,0,2.95.91c1.74-.27,1.47-1.72.83-2.13a5.32,5.32,0,0,0-3.24-.3A1.27,1.27,0,0,0,358.68,132.54Z"/><path class="cls-2" d="M260.15,55.82c.07-.75,2.17-4.33,2.17-5.61s-3.52-1.56-5-1.9-12.65-.07-23.46,1-33.26,7.18-46.34,10.58-15.94,6.76-17.34,8.21-2.43,4.38-3,5.22-2,.84-2.66,1.22a4.2,4.2,0,0,1-1.93.63c-.46,0-.25-2.43-.28-2.74s-4.13,0-5.52,0-1.11-.24-2.73-1.28-5.51.13-6.29.17-2.84-1.9-4.46-1.86-2.57.17-4.67,2.87-10.74,18.66-22.1,41.1-24,59-24.22,60.11-.91.5-.91.5c-.66-3.44-5.27-3.49-12.77-3.44S54.05,174.89,49.9,176,36.34,180.12,36,180.09s-.34-1.25-.27-2.13,3.8-12.66,4.15-13.52,1.12-2.79,1.62-3,8.12-2.43,10-2.89,8.72-1.57,9.84-1.57,2-1.32,1.42-1.78-5.73.46-7.91.82-13.39,4-13.39,4a156,156,0,0,1,16.13-5c6.18-1.32,18.52-3.21,21-3.28a5.54,5.54,0,0,0,4.26-2.5,53.35,53.35,0,0,0,3.58-6.62,23.77,23.77,0,0,0,1.22-6c.13-.95,3.24-2,4.66-2.84a4.93,4.93,0,0,0,2.3-3.51c.07-1-.54-1.15-1-1.56s.27-1.42.81-2.5a1.58,1.58,0,0,0-.68-2.23,15.65,15.65,0,0,0-3.44-.81,108.65,108.65,0,0,0-11.9-.07c-4.06.2-21.84,4.46-21.84,4.46s3.86-7.23,5.34-10.07,3.11-7,3.11-7.77-.4-.88-.4-.88-1.35,0-1.69-.54.07-1.15,1.49-1.15a5.58,5.58,0,0,0,2.5-.61s17.57-4.26,25.89-5.81,22.78-2.84,22.78-2.84-.6-2-.75-2.89,1.22-2.94,2.49-4.21,2.38-1.82,2.48-3.09-2.74-.46-2.94-1.12.51-2.23,1.47-4.05S118,76.2,118.24,75s1.62-4.73,1.21-5.13-6,.06-16.29,1.43-20.51,4.24-41.47,9.92S35.74,91,33.44,94.82s2.3,15,2.3,15c-4.06,6-12.44,22-20.15,38.2S1.87,188.27.55,193.39.5,202,2,206.52s4.62,5.68,7.15,6,9.53-2.63,24.33-6.59,36.37-7.47,43.4-7.94,12-11.69,12-11.69v7.63s.54.68,2.36.68,3.72-1.82,4.8-3,3-.61,4.26-.54a23.14,23.14,0,0,0,6.15,0c2.23-.48,6-4.33,7-5.41s2.16.47,2.37,1.35,2.23.75,4.93-.34,4.73-7,6.22-12.3,7.44-24,13.25-39.27,19.84-40.86,21.22-43.84A25.93,25.93,0,0,1,165,85.83s.1,3.38.4,5.61,2.91,1.72,4.43,1.72,10.54-2.94,14.4-4S189,88.6,189,88.6s-2.84,5.47-8.21,16.32-11.05,22.82-17.34,38.74-10.44,29.76-10.37,31.86.08,2.71,1,2.81a3.12,3.12,0,0,0,2.23-1,7.85,7.85,0,0,1,3.12-1c1.64-.35,1.91-1.53,2.79-2s4.79.14,7.63.07,4.4-1.22,5.75-1.49,3.38,1.22,8-.27,6.29-9.66,12.64-27.91,24.88-55.09,24.88-55.09,5.2-9.6,5.88-10,17.71-2.77,21.23-3.11,8.17-4.39,9.32-6.28.07-3.92-.06-4.74,1.89-1.75,2.83-3.11a4.76,4.76,0,0,0,.21-4.25A4.21,4.21,0,0,1,260.15,55.82ZM87.09,128.24s.46,1.48-.45,1.83-11.31.61-11.31.61A45,45,0,0,1,87.09,128.24ZM108,87.55c1.32-.1,6.09-.3,6.09-.3s1.11.37.2.74l-7.17.34S106.64,87.65,108,87.55Zm-2,1c.19.05,0,.37-.44.44s-.81-.11-.78-.44S106,88.57,106,88.57Zm-80.78,50L18,151.13s3.25-8.66,6-14.54,13.25-23.11,13.25-23.11c2.77-1.09-2.57,7.16-2.57,7.16Zm90.11,28.19c.13-.56.33-1.25.59-2,1.18-4,3.83-12.67,4.91-14.27,0,0,.55-.78,1,0,0,0-4.21,9-6,14.27C115.52,166,115.3,166.74,115.3,166.74Zm5.69-2.92c-.79,1.37-5,12.38-5,12.38a45.58,45.58,0,0,1,5.68-16.27C123,159.91,121.79,162.45,121,163.82Zm65.75-55.41c-1.48,2.43-5.88,8.44-7.16,11.28s-13,33-13,33-1.15.54-.67-1.42,15.14-40.69,22.84-52.79l1.39-2.27s.41-.93,1.18-.5C191.34,95.7,188.23,106,186.74,108.41Z"/><path class="cls-2" d="M121.34,77.09a5.09,5.09,0,0,0,2.68-.38c1.37-.61,3-1.49,2.69-2.13a1.26,1.26,0,0,0-2-.56c-1.09.59-3.14,1.3-3.39,2A1.26,1.26,0,0,0,121.34,77.09Z"/><path class="cls-2" d="M120.83,85.33s-.1-.86,1.19-.89,2.41-.12,2.36.45-.48.62-1.09.92a2.93,2.93,0,0,1-1.52.38A.91.91,0,0,1,120.83,85.33Z"/><path class="cls-2" d="M96.83,124.65a14.64,14.64,0,0,1,3.44-2.31c1.62-.66,3.75-1.09,4.34-.48s.3,1.67-.81,2.13a23.17,23.17,0,0,1-5.73,1.31C97,125.23,96.52,125.28,96.83,124.65Z"/><path class="cls-2" d="M113.67,191a10.4,10.4,0,0,0-2.46,3.55c-.61,1.83-.58,3.31,0,3.65s1.79-.07,2.6-1.69,1.42-4.19,1.22-5A.89.89,0,0,0,113.67,191Z"/><path class="cls-2" d="M151.53,120.44s-8.11,19.36-8.82,21.09-4.72,12.22-5.58,12.16,1.06-6.89,3.09-12,9.48-22.26,10.39-23.47,2.08-1.93,2.08-1.27A21.51,21.51,0,0,1,151.53,120.44Z"/><path class="cls-2" d="M157.1,179.11s-.84.31-1,.91.07,1.29.82,1.25.94-.57,1.25-1.08.67-1.15.13-1.35A1.6,1.6,0,0,0,157.1,179.11Z"/><path class="cls-2" d="M199.05,173s-1.69.84-1.86,1.45-.17.71.67.71,1-.44,1.49-.64,1.12-.31,1-.91A.9.9,0,0,0,199.05,173Z"/><path class="cls-2" d="M265.7,51.46a3.63,3.63,0,0,0-1.12.71.94.94,0,0,0,.14,1.45,1.9,1.9,0,0,0,1.82-.44c.27-.34.88-1,.61-1.42A1.17,1.17,0,0,0,265.7,51.46Z"/><path class="cls-2" d="M331.7,36.89c-1.82-.46-5.47.56-6.54,0s-4.36-3.25-7.5-3.2-4.46.11-5.27.61-1.67,1.63-2.84.71a5.48,5.48,0,0,0-4.16-1.62c-2.28,0-5,0-6.74,1.83s-2.23,4-3.55,3.6-5.83-3.2-7.86-2.79S272.59,53,268,58.69s-36,48.36-44.24,62c0,0-10.87,3.78-13.25,8a15.75,15.75,0,0,0-2.18,9.94c.25,2.43,1.29,4.65,1,5.12,0,0-9.26,13.31-11,18.11s-2.94,8.86-1.2,8.66,4.25-2.84,7.08-2,5.82,2.36,7.44,1.42,3.92-2,6.08-1.49,3.59.54,5.48-2.71,8.85-16.08,9.8-16.62,21.9-5.55,22.85-5.41.54,2.43,0,4.12-1.42,8.11,1.21,9.67a6.56,6.56,0,0,0,6.22.54c1.76-.61,3.92-2.37,5.82-1.83s3.06,2,5.36,1.14,3.7-2,6.19-2.06a12.93,12.93,0,0,0,5.17-1.24c.84-.43,4-1.29,4.87-1.65s5.72-3,7.74-12,9.74-40.43,16.5-58,15.88-38.31,16.79-40S333.53,37.34,331.7,36.89ZM207.77,155.38c-.81,1.15-3.72,6.29-4.4,7.24s-.6.07-.54-.68S207,151.73,207,151.73c.23-.52.75-.74,1.42-.33S208.58,154.24,207.77,155.38Zm64.37-65.26s-5.48,15.51-5.94,17.69l-8.36,2.34S269.65,92.4,272.14,90.12Zm12.62,23.22c-2.28,0-7.63-.35-12.08.51s-12.05,1.52-14.18.66c0,0,14.09-2.08,15.46-2.49s8.62-1.47,11.26-1S287,113.34,284.76,113.34Z"/><path class="cls-2" d="M265,162.26s-3.25,2.39-3.25,3.3.92,2.13,1.63,2,3.09-3.25,3.59-3.91,1.27-2.53.51-2.53A7.55,7.55,0,0,0,265,162.26Z"/><path class="cls-2" d="M321.33,131.52s-10.75,6.9-16.76,18.19-1.49,12.43,4,12.16,13.52-3.11,16.7-4,15-1.9,19.33-6.22,9.19-11,8.92-15.08-3.78-6-6.62-6.42c0,0-1.28-.47-.81-1.42s1.62-4.26-1.69-5.2-7.64-.41-12.71,2A82.63,82.63,0,0,0,321.33,131.52Z"/><path class="cls-2" d="M351,37.43s-20.41,41.91-22.84,48.94-8.72,22.75-8.12,26.53,3.45,3.68,5.58,3.08,8.52-4.69,12.17-5.08,8.11.11,12.37-1.62,8.21-1.11,10-4.86,12-31.95,23.93-53.09S406,13.82,407,10.83s1.83-6-.76-5.47-5.32,4.41-6.39,3.9-2.53-3.09-5.37-2.79-9.33,4.77-10.85,4.21-3.35-3.5-6.13-3.2S369.2,9.66,364,16.66,351,37.43,351,37.43Z"/><path class="cls-2" d="M389.28.89s-3.53,3.57-4.6,4-2.57.59-2.26-.53S385.16,1.59,386,.89A3.29,3.29,0,0,1,388.55,0C389.55.1,389.54.63,389.28.89Z"/><path class="cls-2" d="M350.56,125.64a3.68,3.68,0,0,0,3,.91c1.74-.27,1.47-1.72.83-2.12a5.35,5.35,0,0,0-3.25-.31A1.3,1.3,0,0,0,350.56,125.64Z"/></g></g></svg>