<?xml version="1.0" encoding="utf-8"?>
<!-- Generator: Adobe Illustrator 22.0.0, SVG Export Plug-In . SVG Version: 6.00 Build 0)  -->
<svg version="1.1" id="Layer_1" xmlns="http://www.w3.org/2000/svg" xmlns:xlink="http://www.w3.org/1999/xlink" x="0px" y="0px"
	 viewBox="0 0 416.1 219.4" style="enable-background:new 0 0 416.1 219.4;" xml:space="preserve">
<style type="text/css">
	.st0{fill:#FFFFFF;}
</style>
<title>Asset 3</title>
<g>
	<path class="st0" d="M260.1,55.8c0.1-0.8,2.2-4.3,2.2-5.6s-3.5-1.6-5-1.9s-12.6-0.1-23.5,1s-33.3,7.2-46.3,10.6s-15.9,6.8-17.3,8.2
		s-2.4,4.4-3,5.2s-2,0.8-2.7,1.2c-0.6,0.4-1.2,0.6-1.9,0.6c-0.5,0-0.3-2.4-0.3-2.7s-4.1,0-5.5,0s-1.1-0.2-2.7-1.3s-5.5,0.1-6.3,0.2
		s-2.8-1.9-4.5-1.9s-2.6,0.2-4.7,2.9s-10.7,18.7-22.1,41.1s-24,59-24.2,60.1s-0.9,0.5-0.9,0.5c-0.7-3.4-5.3-3.5-12.8-3.4
		S54,174.9,49.9,176s-13.6,4.1-13.9,4.1s-0.3-1.3-0.3-2.1s3.8-12.7,4.2-13.5s1.1-2.8,1.6-3s8.1-2.4,10-2.9s8.7-1.6,9.8-1.6
		s2-1.3,1.4-1.8s-5.7,0.5-7.9,0.8s-13.4,4-13.4,4c5.3-2,10.7-3.6,16.1-5c6.2-1.3,18.5-3.2,21-3.3c1.7-0.1,3.3-1,4.3-2.5
		c1.3-2.1,2.5-4.3,3.6-6.6c0.7-1.9,1.1-4,1.2-6c0.1-0.9,3.2-2,4.7-2.8c1.3-0.8,2.1-2.1,2.3-3.5c0.1-1-0.5-1.1-1-1.6s0.3-1.4,0.8-2.5
		c0.4-0.8,0.2-1.7-0.6-2.2c0,0-0.1,0-0.1-0.1c-1.1-0.4-2.3-0.7-3.4-0.8c-4-0.2-7.9-0.3-11.9-0.1c-4.1,0.2-21.8,4.5-21.8,4.5
		s3.9-7.2,5.3-10.1s3.1-7,3.1-7.8s-0.4-0.9-0.4-0.9s-1.3,0-1.7-0.5s0.1-1.2,1.5-1.2c0.9,0,1.7-0.2,2.5-0.6c0,0,17.6-4.3,25.9-5.8
		s22.8-2.8,22.8-2.8s-0.6-2-0.8-2.9s1.2-2.9,2.5-4.2s2.4-1.8,2.5-3.1s-2.7-0.5-2.9-1.1s0.5-2.2,1.5-4.1s-0.3-6.3-0.1-7.5
		s1.6-4.7,1.2-5.1s-6,0.1-16.3,1.4s-20.5,4.2-41.5,9.9s-26,9.9-28.3,13.7s2.3,15,2.3,15c-4.1,6-12.4,22-20.1,38.2
		s-13.7,40.3-15,45.4S0.5,202,2,206.5s4.6,5.7,7.1,6s9.5-2.6,24.3-6.6s36.4-7.5,43.4-7.9s12-11.7,12-11.7v7.6c0,0,0.5,0.7,2.4,0.7
		s3.7-1.8,4.8-3s3-0.6,4.3-0.5c2,0.3,4.1,0.3,6.2,0c2.2-0.5,6-4.3,7-5.4s2.2,0.5,2.4,1.4s2.2,0.8,4.9-0.3s4.7-7,6.2-12.3
		c1.5-5.3,7.4-24,13.3-39.3s19.8-40.9,21.2-43.8c1-2,2.2-3.8,3.6-5.4c0,0,0.1,3.4,0.4,5.6s2.9,1.7,4.4,1.7s10.5-2.9,14.4-4
		s4.8-0.6,4.8-0.6s-2.8,5.5-8.2,16.3s-11.1,22.8-17.3,38.7s-10.4,29.8-10.4,31.9s0.1,2.7,1,2.8c0.8,0,1.7-0.4,2.2-1
		c1-0.5,2-0.9,3.1-1c1.6-0.4,1.9-1.5,2.8-2s4.8,0.1,7.6,0.1s4.4-1.2,5.8-1.5s3.4,1.2,8-0.3s6.3-9.7,12.6-27.9s24.9-55.1,24.9-55.1
		s5.2-9.6,5.9-10s17.7-2.8,21.2-3.1s8.2-4.4,9.3-6.3s0.1-3.9-0.1-4.7s1.9-1.8,2.8-3.1c0.7-1.3,0.8-2.9,0.2-4.3
		C260.2,57.4,260.1,56.6,260.1,55.8z M87.1,128.2c0,0,0.5,1.5-0.4,1.8s-11.3,0.6-11.3,0.6C79.1,129.3,83.1,128.5,87.1,128.2z
		 M108,87.6c1.3-0.1,6.1-0.3,6.1-0.3s1.1,0.4,0.2,0.7l-7.2,0.3C107.1,88.3,106.6,87.7,108,87.6z M106,88.6c0.2,0.1,0,0.4-0.4,0.4
		s-0.8-0.1-0.8-0.4S106,88.6,106,88.6L106,88.6z M25.2,138.6L18,151.1c0,0,3.3-8.7,6-14.5s13.3-23.1,13.3-23.1
		c2.8-1.1-2.6,7.2-2.6,7.2L25.2,138.6z M115.3,166.7c0.1-0.6,0.3-1.3,0.6-2c1.2-4,3.8-12.7,4.9-14.3c0,0,0.6-0.8,1,0
		c0,0-4.2,9-6,14.3C115.5,166,115.3,166.7,115.3,166.7L115.3,166.7z M121,163.8c-0.8,1.4-5,12.4-5,12.4c0.8-5.7,2.8-11.3,5.7-16.3
		C123,159.9,121.8,162.4,121,163.8L121,163.8z M186.8,108.4c-1.5,2.4-5.9,8.4-7.2,11.3s-13,33-13,33s-1.1,0.5-0.7-1.4
		s15.1-40.7,22.8-52.8l1.4-2.3c0,0,0.4-0.9,1.2-0.5C191.3,95.7,188.2,106,186.8,108.4L186.8,108.4z"/>
	<path class="st0" d="M121.3,77.1c0.9,0.1,1.8,0,2.7-0.4c1.4-0.6,3-1.5,2.7-2.1c-0.2-0.7-0.9-1-1.6-0.8c-0.1,0-0.3,0.1-0.4,0.2
		c-1.1,0.6-3.1,1.3-3.4,2C121.2,76.4,121.2,76.8,121.3,77.1z"/>
	<path class="st0" d="M120.8,85.3c0,0-0.1-0.9,1.2-0.9s2.4-0.1,2.4,0.4s-0.5,0.6-1.1,0.9c-0.5,0.3-1,0.4-1.5,0.4
		C121.3,86.2,120.9,85.8,120.8,85.3z"/>
	<path class="st0" d="M96.8,124.7c1-0.9,2.2-1.7,3.4-2.3c1.6-0.7,3.8-1.1,4.3-0.5s0.3,1.7-0.8,2.1c-1.8,0.7-3.8,1.1-5.7,1.3
		C97,125.2,96.5,125.3,96.8,124.7z"/>
	<path class="st0" d="M113.7,191c-1.1,1-1.9,2.2-2.5,3.6c-0.6,1.8-0.6,3.3,0,3.6s1.8-0.1,2.6-1.7s1.4-4.2,1.2-5
		c-0.1-0.5-0.6-0.8-1.1-0.6C113.8,190.9,113.8,190.9,113.7,191z"/>
	<path class="st0" d="M151.5,120.4c0,0-8.1,19.4-8.8,21.1s-4.7,12.2-5.6,12.2s1.1-6.9,3.1-12s9.5-22.3,10.4-23.5s2.1-1.9,2.1-1.3
		C152.4,118.1,152,119.3,151.5,120.4z"/>
	<path class="st0" d="M157.1,179.1c0,0-0.8,0.3-1,0.9s0.1,1.3,0.8,1.3s0.9-0.6,1.3-1.1s0.7-1.1,0.1-1.4
		C157.9,178.8,157.4,178.9,157.1,179.1z"/>
	<path class="st0" d="M199.1,173c0,0-1.7,0.8-1.9,1.4s-0.2,0.7,0.7,0.7s1-0.4,1.5-0.6s1.1-0.3,1-0.9c-0.1-0.5-0.6-0.8-1.1-0.7
		C199.2,172.9,199.1,173,199.1,173z"/>
	<path class="st0" d="M265.7,51.5c-0.4,0.2-0.8,0.4-1.1,0.7c-0.4,0.4-0.4,1,0,1.3l0.1,0.1c0.6,0.2,1.3,0,1.8-0.4
		c0.3-0.3,0.9-1,0.6-1.4C266.8,51.3,266.2,51.2,265.7,51.5z"/>
	<path class="st0" d="M331.7,36.9c-1.8-0.5-5.5,0.6-6.5,0s-4.4-3.3-7.5-3.2s-4.5,0.1-5.3,0.6s-1.7,1.6-2.8,0.7
		c-1.1-1.1-2.6-1.7-4.2-1.6c-2.3,0-5,0-6.7,1.8s-2.2,4-3.5,3.6s-5.8-3.2-7.9-2.8S272.6,53,268,58.7s-36,48.4-44.2,62
		c0,0-10.9,3.8-13.3,8c-1.8,3-2.6,6.5-2.2,9.9c0.3,2.4,1.3,4.6,1,5.1c0,0-9.3,13.3-11,18.1s-2.9,8.9-1.2,8.7s4.3-2.8,7.1-2
		s5.8,2.4,7.4,1.4s3.9-2,6.1-1.5s3.6,0.5,5.5-2.7s8.9-16.1,9.8-16.6s21.9-5.6,22.9-5.4c1,0.2,0.5,2.4,0,4.1s-1.4,8.1,1.2,9.7
		c1.8,1.2,4.2,1.4,6.2,0.5c1.8-0.6,3.9-2.4,5.8-1.8s3.1,2,5.4,1.1s3.7-2,6.2-2.1c1.8-0.1,3.6-0.5,5.2-1.2c0.8-0.4,4-1.3,4.9-1.6
		s5.7-3,7.7-12s9.7-40.4,16.5-58s15.9-38.3,16.8-40S333.5,37.3,331.7,36.9z M207.8,155.4c-0.8,1.1-3.7,6.3-4.4,7.2s-0.6,0.1-0.5-0.7
		s4.2-10.2,4.2-10.2c0.2-0.5,0.8-0.7,1.4-0.3S208.6,154.2,207.8,155.4z M272.1,90.1c0,0-5.5,15.5-5.9,17.7l-8.4,2.3
		C257.8,110.2,269.6,92.4,272.1,90.1z M284.8,113.3c-2.3,0-7.6-0.3-12.1,0.5s-12,1.5-14.2,0.7c0,0,14.1-2.1,15.5-2.5s8.6-1.5,11.3-1
		S287,113.3,284.8,113.3z"/>
	<path class="st0" d="M265,162.3c0,0-3.3,2.4-3.3,3.3s0.9,2.1,1.6,2s3.1-3.3,3.6-3.9s1.3-2.5,0.5-2.5
		C266.6,161.3,265.8,161.7,265,162.3z"/>
	<path class="st0" d="M321.3,131.5c0,0-10.8,6.9-16.8,18.2s-1.5,12.4,4,12.2s13.5-3.1,16.7-4s15-1.9,19.3-6.2s9.2-11,8.9-15.1
		s-3.8-6-6.6-6.4c0,0-1.3-0.5-0.8-1.4s1.6-4.3-1.7-5.2s-7.6-0.4-12.7,2C328.1,127.3,324.6,129.3,321.3,131.5z"/>
	<path class="st0" d="M351,37.4c0,0-20.4,41.9-22.8,48.9s-8.7,22.8-8.1,26.5s3.5,3.7,5.6,3.1s8.5-4.7,12.2-5.1s8.1,0.1,12.4-1.6
		s8.2-1.1,10-4.9s12-32,23.9-53.1S406,13.8,407,10.8s1.8-6-0.8-5.5s-5.3,4.4-6.4,3.9s-2.5-3.1-5.4-2.8s-9.3,4.8-10.9,4.2
		s-3.4-3.5-6.1-3.2s-8.3,2.2-13.5,9.2S351,37.4,351,37.4z"/>
	<path class="st0" d="M389.3,0.9c0,0-3.5,3.6-4.6,4s-2.6,0.6-2.3-0.5s2.7-2.8,3.6-3.5c0.7-0.6,1.6-1,2.5-0.9
		C389.5,0.1,389.5,0.6,389.3,0.9z"/>
	<path class="st0" d="M350.6,125.6c0.8,0.7,1.9,1.1,3,0.9c1.7-0.3,1.5-1.7,0.8-2.1c-1-0.4-2.2-0.5-3.3-0.3
		C350.6,124.4,350.4,125.1,350.6,125.6z"/>
</g>
</svg>
