<?xml version="1.0" encoding="utf-8"?>
<!-- Generator: Adobe Illustrator 23.0.1, SVG Export Plug-In . SVG Version: 6.00 Build 0)  -->
<svg version="1.1" id="Layer_1" xmlns="http://www.w3.org/2000/svg" xmlns:xlink="http://www.w3.org/1999/xlink" x="0px" y="0px"
	 viewBox="0 0 527 408" style="enable-background:new 0 0 527 408;" xml:space="preserve">
<style type="text/css">
	.st0{fill:#EB9DC5;}
	.st1{fill:#F8CC15;}
	.st2{fill:#F2E49D;}
</style>
<g>
	<path class="st0" d="M262,112.3c0,0,4.2,3.5,5.6,5.6c1.4,2.1,2.8,0.7,4.9,0c2.1-0.7,51.1-30.1,51.1-30.1s39.2-4.2,40.6-4.2
		c1.4,0,41.3,35.7,41.3,35.7l-1.4,85.4l-30.8,30.8L277.5,286c0,0-4.2,7-15.4,6.3c-11.2-0.7-16.1-14.7-16.1-14.7l-81.2-47.6
		l-38.5-47.6l1.4-46.2l14.7-42l19.6-11.9l52.5-10.5l27.3,32.9L262,112.3z"/>
	<g>
		<g>
			<path class="st1" d="M260.4,76.4c-0.2-0.5-0.4-1-0.6-1.5c-3.2-8.9-7.6-17-15.5-22.6c-10.9-7.7-21.8-15.5-32.7-23.2
				c-6.8-4.8-13.6-4.8-20.4-0.1c-7,4.8-13.9,9.8-20.8,14.7c-3.6,2.5-7.3,5-10.9,7.5L149,56l-47.6,31.5l-7,7.7l-35,60.2l-24.5,49
				L18,266.7c0,0-2.1,14.7,2.1,30.8c4.2,16.1,26.6,88.9,26.6,88.9s3.9,3.3,18.9,1.4c11.2-1.4,24.5,0,32.9-3.5c0,0,15.4-4.2,25.2-3.5
				c1.4-11.9,0-21.7,0-21.7s-7.7-65.8-2.8-77.7c4.5-11,3.7-11.2,3.5-11.2c0.9-0.2,41.4-11.9,48.3-11.2c7,0.7,30.8,9.1,37.8,11.2
				s23.1,15.4,29.4,11.2c6.3-4.2,15.4-11.2,14.7-17.5c-0.7-6.3-4.9-18.9-14-29.4c-9.1-10.5-41.3-18.2-41.3-18.2l-37.1-9.8l-9.1-24.5
				l-9.1-17.5l7-23.1v-25.9l29.4-23.8l40.6,10.5l16.1,36.4c0,0,6.3,6.3,13.3,2.8c7-3.5,7.7-12.6,7.7-12.6l9.1-27.3l2.8-16.1
				L260.4,76.4z"/>
			<path class="st1" d="M508,247.6l-13.1-42.8L472,136.1l-36.3-40.7l-7-7.7l-37-34.4l-37-18.3l-53.3,11.7l-16.8,9l-2.2,17.5
				l-3.6,36.4c0,0-9.2,22.4-2.2,25.9c7,3.5,16.1-2,16.1-2l21.1-28.6l30.8-9.7l32.1,24.6l9,29.4l-0.1,21.7l-11.3,16.1l-12,33.6
				l-25.2-0.1c0,0-33,18.1-46.3,25c-7.6,3.9-20.4,13.2-21.1,19.5c-0.7,6.3,5.5,18.9,11.8,23.2c6.3,4.2,35.8-11.1,42.8-13.1
				c7-2.1,27.3-9,34.3-9.7c7-0.7,42.7,7.9,42.7,7.9s-0.7,3.5,4.1,15.4c4.9,11.9-2.4,70-2.4,70s-0.8,15.4,0.6,27.3
				c16.1-5.5,23.8,0.1,32.2-2c8.4-2.1,17.5-5.5,30.8-0.6c15,1.9,22.4-9,22.4-9s11.4-44.8,15.6-60.9C509.2,297.3,508,247.6,508,247.6
				z"/>
		</g>
		<path d="M510.6,294.6c-2.1,15.4-5.8,29.1-8.7,43.8c-2.6,13.3-4.9,26.8-7.3,40.1c-0.1,0.8-0.2,1.6-0.6,2.4c-1,2-2.6,3.5-5,2.7
			c-2.5-0.8-3.9-2.4-3.5-5.3c1.6-9.5,3-19.1,5-28.5c2.9-13.8,6.6-27.4,9.2-41.2c4-20.7,5.5-41.7,2.9-62.6
			c-1.1-8.9-4.4-17.6-7.2-26.2c-4.5-14.3-9.3-28.5-14.2-42.7c-3.9-11.4-8-22.8-12.1-34.2c-3.7-10.4-11.5-17.8-19.6-24.6
			c-19.5-16.3-35.6-35.9-52.3-54.8c-0.6-0.7-1.3-1.4-1.8-2.1c-4.9-6.5-11-8.4-19.1-6.8c-11.4,2.3-23,3.6-34.5,5.7
			c-10.5,1.9-21,4-31.4,6.4c-10,2.3-16.5,8.7-19.9,18.3c-1.8,5-3.6,10.1-5.6,15c-1,2.6-0.2,3.8,2.3,4.7c2.2,0.8,4.3,1.9,6.1,3.3
			c3.5,2.6,5.8,5.8,4.7,10.8c1.9-2.7,3.7-5.4,5.6-8.1c0.7-1.1,1.5-2.1,2.1-3.2c4.5-7.5,10.3-12.5,19.6-13.8c6.7-0.9,13-4.3,19.5-6.5
			c1.9-0.6,3.8-1.4,5.7-1.4c1.3,0,3,0.8,3.7,1.9c0.5,0.8,0.2,3-0.6,3.7c-3.2,3-1.6,5.3,0.6,7.7c9.9,10.4,21.4,18.5,35,23.6
			c1.3,0.5,2.9,2.7,2.7,3.7c-0.3,1.4-2.2,3.4-3.5,3.5c-2.8,0.3-3.3,1.5-3.1,3.8c1,10.3,1.5,20.7,3,30.9c1.1,6.8,3.7,13.4,5.5,20.2
			c0.3,1,0.8,2.3,0.4,3.1c-0.7,1.5-1.8,3.6-3,3.8c-1.3,0.2-3.4-1.1-4.3-2.3c-1.2-1.6-1.5-3.8-2.5-6.4c-1.5,2-2.7,3.4-3.7,4.9
			c-4.2,6.7-8.3,13.5-12.3,20.3c-0.5,0.8-0.9,2.2-0.5,2.8c0.4,0.6,1.9,0.8,2.8,0.6c4.2-0.6,8.3-1.1,12.4-2.1
			c5.7-1.4,9.8-5.3,13.5-9.5c1.9-2.1,3.8-4.1,6.7-1.7c2.2,1.8,1.9,4.2-0.5,7.4c-6.2,8.3-14.4,11.8-24.7,13
			c-19.1,2.2-38.5,3.7-56.4,12c-14.4,6.7-27.5,15.3-39.4,25.7c-6.5,5.7-8,13-5.4,21c0.6,2,2.3,4.1,4.1,5.2c2.5,1.5,4.2,0,3.5-2.8
			c-1-3.8-2.3-7.6-3.7-11.2c-1.9-5.1-1.6-6.9,2.8-10.2c3.4-2.5,6.7-5,10.3-7.2c4.9-2.9,9.2-2,11.5,3.3c2.1,4.8,3.5,10.1,4.6,15.3
			c0.9,4.5,1.3,5.2,5.5,3.5c6.7-2.6,13.5-5.1,20.1-8c11.3-4.8,22.9-4.1,34.7-3c8.3,0.8,16.8,1,25.1,0.7c8.6-0.3,17.1-1.6,25.7-2.4
			c0.6-0.1,1.1-0.2,1.7-0.3c2.3-0.3,4.3,0.7,4.3,2.9c0,1.3-1.6,3.5-2.8,3.9c-4.6,1.3-9.3,2.1-14,3c-4.3,0.8-5.2,1.7-4.8,6.1
			c0.6,5.1,1.7,10.1,2.3,15.2c1.1,8.7,2.8,17.3,2.8,26c0,16-1.1,31.9-1.6,47.9c-0.2,5.8-0.2,11.7-0.4,17.5c-0.1,3.3-2.1,5.6-4.7,5.5
			c-2.6-0.1-4.5-2.3-4.3-5.7c0.5-10.5,1.2-21,1.7-31.4c0.7-17.9,1.9-35.9-1.4-53.7c-1.2-6.7-2.2-13.5-3.3-20.3
			c-0.6-3.9-2.4-5.4-6.2-5.6c-10.7-0.4-21.4-1-32.1-1.3c-7.9-0.3-15.4,1-22.7,4.3c-6.7,3.1-13.8,5.4-20.8,8
			c-7.7,2.9-15.4,5.9-23.4,8.2c-3.7,1.1-7.9,1.1-11.7,0.6c-5.6-0.6-10.1-7.1-11.7-14.6c-2.3-10.7,0.4-19.2,8.7-26.6
			c17.6-15.8,37.2-27.7,60.1-33.6c5.7-1.5,11.7-2.1,17.5-3.4c1.5-0.3,3.3-1.6,3.8-2.9c5.1-12.9,12.8-24.1,21.3-34.8
			c1.8-2.2,2-4.5,1.6-7.2c-1.5-12-3-24-3.9-36.1c-0.3-4-1.5-6.4-4.9-8.7c-7.2-4.7-14-10-21-15.1c-1.3-1-2.3-2.3-3.4-3.5
			c-2.2-2.3-4.1-5.9-6.7-6.7c-2.5-0.7-5.9,1.6-8.8,2.5c-3.1,1-6.2,2.3-9.4,2.7c-3.9,0.6-5.9,3-8.1,5.9c-6,8-12.3,15.9-18.8,23.4
			c-3.9,4.5-9.4,6.5-15.2,7.1c-8.6,0.9-13.6-4.1-12.1-12.7c1.2-7,2.8-13.9,5.1-20.6c3.2-9.3,4.4-18.7,3.6-28.5
			c-0.3-4.1-0.2-8.2-0.1-12.2c0.2-9,4.9-14.7,13.2-17.8c10.8-4,21.5-8.4,32.4-11.9c8.8-2.8,17.9-4.9,27-6.7
			c5.4-1.1,10.2,1.7,14.8,4.3c6.1,3.6,12.3,7,18.5,10.4c0.7,0.4,1.5,0.7,2.3,0.7c4.7,0.1,8.1,2.6,11.1,5.9c9.9,11,19.4,22.4,29.8,33
			c10.9,11.2,22.4,21.7,33.8,32.4c9.4,8.8,16.1,19.1,19.6,31.6c2.5,8.9,6.3,17.5,9.4,26.3c4.1,12,8.2,24,12,36.1
			c2.8,8.7,5.4,17.6,7.8,26.4c1,3.8,1.3,7.8,1.9,11.7c0.2,1.3,0.9,8.7,1,9.5C512.2,265.7,512.1,287.1,510.6,294.6z M286,73.6
			c1.6-2.1,2.8-3.6,4-5.1c3-4.3,7.2-7.1,12.2-8.3c8.6-2.1,17.2-4.1,25.8-5.7c11.6-2.2,23.3-4.1,35-6.2c0.9-0.2,2.1-0.8,2.4-1.5
			c0.3-0.7-0.2-2.2-0.9-2.6c-5.7-3.7-11.5-7.3-18.8-5c-3.2,1-6.5,1.7-9.7,2.8c-13.9,4.6-27.8,9.1-41.6,14
			C287.7,58.2,284.4,65.4,286,73.6z M302.9,273.9c-0.5-2.7-0.9-5.5-1.6-8.2c-2-7.9-3.1-8.2-9.8-3.4c-2.5,1.8-3.2,3.7-2.2,6.6
			c1.2,3.4,2.1,6.9,3.3,10.3c0.3,0.8,1,1.8,1.7,1.9C297.9,282,302.7,277.8,302.9,273.9z M282,121.3c2.7,0.1,7.9-4.2,6.9-5.4
			c-1.4-1.8-3.8-3.2-6-3.9c-2.3-0.7-3.9,2.1-4.2,6.3C278.5,121.2,280.4,121.2,282,121.3z M278.8,128.8c0,0.6-0.1,1.2-0.1,1.7
			c2.3,0,4.5,0,6.8,0c0-0.3,0-0.7,0-1C283.3,129.3,281,129,278.8,128.8z"/>
		<path d="M216.6,267.5c1-5,1.6-9.2,2.7-13.4c0.7-2.4,2-4.8,3.5-6.7c3.3-4.3,7-5,11.7-2.5c2.9,1.5,5.7,3.2,8.4,4.9
			c3.7,2.4,4,4.3,2.5,8.6c-1.4,4.1-2.2,8.5-3.2,12.8c-0.1,0.5,0.1,1.1,0.1,1.7c3.8-1.1,7-6.1,6.9-11.5c-0.2-11.4-6.1-19.9-14.7-26.5
			c-8-6.2-17.8-8.3-27.4-11c-13.1-3.6-26.5-6.6-39.2-11.2c-8.3-3-15.8-8.4-23.7-12.6c-5.3-2.8-10.6-5.3-16-7.8
			c-3.2-1.5-4.6-3.6-3.4-6.2c1.2-2.7,3.5-2.9,5.9-1.8c5.7,2.6,11.3,5.3,17,8c1.1,0.5,2.2,1.2,3.8,1.4c-1.4-7.2-6.1-12.7-9.2-20
			c-1.6,1.9-2.4,3.1-3.4,4.2c-1.6,2-3.6,2.6-5.8,1c-2.1-1.5-1.6-3.3-0.4-5.2c5.5-9.3,10.7-18.9,13-29.6c0.2-1.1,0.3-2.2,0.5-3.2
			c-0.4-0.2-0.7-0.4-1.1-0.6c-1.2,1.6-2.4,3.1-3.5,4.7c-1.5,2.3-3.4,3.8-6.1,2.2c-2.7-1.6-1.7-3.9-0.6-6.1c3.4-7,6.9-14,9.9-21.2
			c3.2-7.8,9.9-12.3,15.8-17.5c4.5-3.9,9.2-7.5,14-11.1c1.8-1.3,2.2-2.4,1.3-4.7c-0.6-1.4,0-3.8,1-5.2c0.5-0.6,3.2-0.3,4.5,0.4
			c6.3,3.4,12.3,7.7,18.9,10.5c5.8,2.4,12.3,3.1,18.5,4.6c1.7,0.4,3.4,0.9,5,1.6c2.9,1.2,4,3.1,2.9,6.4c-0.5,1.6-0.1,3.8,0.6,5.4
			c3.5,7.7,7.1,15.5,11,23c2.4,4.6,7.1,6.1,10.9,4.1c1.2-0.6,2.3-1.9,3-3.2c0.9-1.6,0.1-2.7-1.8-2.7c-0.5,0-0.9,0-1.4,0
			c-7.3,0.4-7.3,0.4-9.5-6.7c-0.2-0.8-0.4-1.6-0.6-2.4c-2.3-8.7,1.8-14.3,10.9-15c5.5-0.4,5.9-0.7,5.8-6.2c0-4-0.1-8.2-0.9-12.1
			c-0.4-2-2.2-4.2-3.9-5.5c-10.1-7.6-20.4-15-30.7-22.5c-4.6-3.4-9.5-6.4-13.8-10.1c-7.8-6.9-15.8-6.1-24.2-1.5
			c-9.8,5.4-19.4,11.1-29.4,16.1c-13.5,6.6-27.3,12.4-40.8,19.1c-3.8,1.9-7.4,5.1-9.8,8.5C87.6,114,75.4,136,63.9,158.5
			c-5.9,11.5-12.1,22.9-18.4,34.2c-5.7,10.2-8.5,21.4-11.6,32.5c-2.6,9.2-5.4,18.3-7.9,27.5c-2.4,9-5.9,17.9-4.7,27.4
			c0.8,6.2,2.4,12.3,4.1,18.3c3.7,13.6,7.7,27.1,11.6,40.6c4.2,14.5,8.3,29.1,12.5,43.6c0.8,2.8,0.1,4.9-2.7,5.8
			c-2.6,0.9-4.7-0.5-5.6-3.8c-2.6-9.5-4.8-19.2-7.7-28.7c-5.1-17-10.5-34-15.6-51c-2.1-7.1-4.3-14.3-5.4-21.6
			c-1.7-10.5,1.3-20.6,4.2-30.6c4.6-15.9,9.4-31.6,14-47.5c2.4-8,6.1-15.3,10.2-22.5c8.1-14.5,15.3-29.6,23.5-44.1
			c10.2-17.8,21-35.2,31.7-52.7c2.7-4.4,6.9-7.1,11.4-9.5c5-2.7,9.9-5.7,14.5-8.9c22.1-15.6,44-31.3,66.2-46.8
			c3.4-2.4,7.7-3.9,11.8-4.9c5.2-1.2,9.8,1.3,14,4.3c12.8,9.2,25.5,18.4,38.2,27.7c6.7,4.9,11.2,11.2,13.7,19.3
			c1.9,6.2,4.8,12.1,7.8,17.9c2.8,5.4,2.3,10.3-0.8,15.1c-2.9,4.5-6,8.9-8.8,13.5c-1,1.7-1.7,3.8-2,5.8c-0.5,4.2-0.4,8.4-0.8,12.6
			c-1,10.6-8.6,16.1-19.2,14.2c-6-1.1-9.9-4.7-12.2-10c-4-9.2-7.6-18.5-11.5-27.7c-0.5-1.1-1.9-2.3-3-2.6
			c-9.4-1.7-18.3-4.8-26.4-9.8c-3.1-1.9-5.4-1.7-8.2,0.6c-6.7,5.6-13.6,11-20.3,16.6c-4.2,3.4-6,8-5.8,13.3
			c0.4,11.2-0.8,22.1-5.5,32.5c-2,4.4-0.9,8.6,1.4,12.7c5,8.8,9.8,17.7,12.2,27.7c0.4,1.6,2.6,3.1,4.3,4.1
			c8.3,4.7,17.7,6.3,26.8,8.5c14.6,3.5,29.3,6.8,42.6,14.4c11.7,6.7,17.7,17.7,21,30.2c2,7.6-1.5,14.2-6.5,19.8
			c-8.4,9.5-15.2,9.4-27.8,4.3c-7.3-3-14.2-6.9-21.5-10.1c-12.9-5.7-26.3-6.4-40-3.6c-10.5,2.2-21,4.2-31.5,6.1
			c-3.4,0.6-5,1.9-5.2,5.6c-0.5,10.8-2,21.6-1.8,32.4c0.3,14.4,1.4,28.9,2.8,43.2c0.7,6.5,3.2,12.8,4.7,19.3c0.5,2,0.9,4.3,0.4,6.2
			c-0.4,1.5-2.2,3.4-3.7,3.7c-1.1,0.2-3.7-1.7-3.9-2.9c-2.3-14.7-8.3-28.6-7.9-43.9c0.4-14.7-0.6-29.4-0.6-44.1c0-5,0.6-10,1.3-15
			c0.4-2.7-0.7-3.1-3-3.4c-6-0.8-11.9-1.7-17.9-2.8c-2.6-0.5-3.9-2.3-3.2-4.9c0.7-2.7,2.8-3.3,5.2-2.7c14.8,4,29.3,1.5,43.8-1.8
			c10.9-2.5,21.9-4.7,32.9-5.9c13.2-1.4,25.2,3.4,36.9,8.9C213.3,265.9,214.8,266.6,216.6,267.5z M155.5,53.7
			c0.1,0.2,0.2,0.4,0.4,0.6c0.6-0.2,1.2-0.4,1.8-0.7c8.6-4.5,17.1-8.9,25.7-13.4c7.3-3.8,14.6-3.9,21.6,0.6c6.1,3.9,12,8,17.9,12.1
			c11.4,7.9,21.2,17.8,33.7,24.2c4.8,2.5,6.9,7,7.1,12.4c0.1,1.9,0.5,3.7,0.7,5.6c0.4,0,0.8-0.1,1.3-0.1c-0.2-2.3,0-4.7-0.6-6.8
			c-1.5-4.5-3.5-8.9-5.1-13.4c-3.2-8.9-7.6-17-15.5-22.6c-10.9-7.7-21.8-15.5-32.7-23.2c-6.8-4.8-13.6-4.8-20.4-0.1
			c-7,4.8-13.9,9.8-20.8,14.7C165.4,47,160.5,50.3,155.5,53.7z M225,267.3c-0.2,4.7,1.2,6,5.9,7.3c2.3,0.7,3,0.1,3.3-2.3
			c0.5-4.5,1-9,2.3-13.3c1-3.1,0.6-3.6-4.7-6.1c-2.7-1.3-4,0.5-4.5,2.7C226.3,259.9,225.6,264.3,225,267.3z M253.9,123.1
			c0.2-1.5,0.5-3.1,0.5-4.7c0-1-0.6-3-0.7-2.9c-2.1,0.2-4.3,0.5-6.4,1.1c-0.6,0.2-1.2,1.7-1.2,2.5
			C246.3,122.9,248.1,123.8,253.9,123.1z"/>
		<path d="M414.3,169.8c0,3.4-2.4,5.5-4.9,4.4c-2.4-1.1-5-2.8-6.4-5c-4.6-6.7-8.6-13.8-12.8-20.7c-0.5-0.9-1.2-2.1-0.9-2.9
			c0.4-1.4,1.2-3.1,2.3-3.9c0.8-0.5,2.9,0,3.6,0.8c2,2.1,3.7,4.5,5.3,6.9c4.2,6,8.4,12,12.5,18C413.7,168.2,414,169.3,414.3,169.8z"
			/>
		<path d="M484,239.6c-0.1,1.7-0.1,3.5-0.4,5.2c-0.5,2.6-2,4.3-4.8,4c-2.9-0.3-3.7-2.3-3.7-4.9c0-4.5-0.1-9-0.3-13.5
			c-0.1-2.2,0.1-4.5,2.7-4.9c2.7-0.4,4.5,1.4,5.1,3.8c0.8,3.4,1.2,6.8,1.7,10.2C484.2,239.6,484.1,239.6,484,239.6z"/>
		<path d="M363.5,248.6c-0.9-2.6-2-5.1-2.6-7.7c-0.3-1.5-0.2-4,0.7-4.6c1.1-0.8,4-0.8,4.8,0.1c1.8,2,3.2,4.6,4,7.1
			c0.7,2.5,0.6,5.3,0.6,8c0,2.6-1,4.6-4.1,4.5c-3,0-4.1-1.8-4.1-4.5c0-0.9,0-1.9,0-2.8C363,248.7,363.2,248.6,363.5,248.6z"/>
		<path d="M49.7,265.6c-0.1,1.6-0.5,3.3-0.3,4.8c0.3,2.6,0.6,5.2,1.5,7.7c0.9,2.5,0.2,4-1.8,5.3c-2,1.3-3.8,0.5-4.8-1.2
			c-1.2-1.9-2.5-4.2-2.5-6.3c0-3.9,0.8-7.8,1.7-11.6c0.3-1,2.4-2.5,3.4-2.3c1.3,0.3,2.3,2,3.5,3C50.1,265.2,49.9,265.4,49.7,265.6z"
			/>
		<path d="M162.1,235.8c1.2-3.2,2.1-6.4,3.7-9.4c0.9-1.8,2.9-2.7,5.1-1.4c2,1.2,2.3,2.8,1.8,5c-0.7,3-1,6.1-1,9.2
			c0,2.3-0.3,4.3-2.9,4.7c-2.6,0.5-4.6-0.7-5.2-3.3c-0.4-1.4-0.4-3-0.6-4.5C162.6,236,162.3,235.9,162.1,235.8z"/>
		<path d="M133,160.7c-1.5,4.3-2.4,8.4-6.4,10.2c-1.3,0.6-3.6,0.3-4.6-0.6c-0.9-0.7-1.2-3.1-0.7-4.2c1.1-2.6,2.5-5.3,4.4-7.4
			c0.9-1,3.2-1.4,4.5-1.1C131.4,157.8,132.1,159.7,133,160.7z"/>
		<path class="st1" d="M286,73.6c-1.6-8.1,1.8-15.4,8.4-17.8c13.8-4.9,27.7-9.4,41.6-14c3.2-1.1,6.5-1.7,9.7-2.8
			c7.3-2.3,13.1,1.2,18.8,5c0.6,0.4,1.2,1.9,0.9,2.6c-0.3,0.7-1.5,1.4-2.4,1.5c-11.7,2.1-23.4,4-35,6.2c-8.7,1.7-17.3,3.6-25.8,5.7
			c-5,1.2-9.1,4-12.2,8.3C288.8,70,287.6,71.5,286,73.6z"/>
		<path class="st2" d="M302.9,273.9c-0.2,3.9-5,8.1-8.5,7.1c-0.7-0.2-1.4-1.2-1.7-1.9c-1.2-3.4-2.1-6.9-3.3-10.3
			c-1-2.9-0.3-4.8,2.2-6.6c6.7-4.8,7.8-4.5,9.8,3.4C302,268.4,302.4,271.2,302.9,273.9z"/>
		<path class="st2" d="M282,121.3c-1.5-0.1-3.4-0.1-3.3-3c0.2-4.2,1.8-7.1,4.2-6.3c2.2,0.7,4.6,2.1,6,3.9
			C289.8,117.1,284.6,121.4,282,121.3z"/>
		<path class="st2" d="M225,267.3c0.6-3,1.3-7.4,2.2-11.7c0.5-2.2,1.9-4,4.5-2.7c5.2,2.5,5.7,2.9,4.7,6.1c-1.3,4.3-1.8,8.8-2.3,13.3
			c-0.3,2.4-1,3-3.3,2.3C226.2,273.3,224.8,271.9,225,267.3z"/>
		<path class="st2" d="M253.9,123.1c-5.7,0.7-7.5-0.3-7.8-4c-0.1-0.8,0.6-2.3,1.2-2.5c2-0.7,4.2-1,6.4-1.1c0.2,0,0.7,1.9,0.7,2.9
			C254.4,120,254.1,121.6,253.9,123.1z"/>
	</g>
</g>
</svg>
