<?xml version="1.0" encoding="utf-8"?>
<!-- Generator: Adobe Illustrator 23.0.1, SVG Export Plug-In . SVG Version: 6.00 Build 0)  -->
<svg version="1.1" id="Layer_1" xmlns="http://www.w3.org/2000/svg" xmlns:xlink="http://www.w3.org/1999/xlink" x="0px" y="0px"
	 viewBox="0 0 500 443.3" style="enable-background:new 0 0 500 443.3;" xml:space="preserve">
<style type="text/css">
	.st0{fill:#20A5CA;}
</style>
<g>
	<g>
		<path class="st0" d="M251.6,165.8c6.5-14.2,12.7-28.5,19.8-42.4c15.3-30,34.4-57.3,58.4-81.1c14.9-14.8,31.9-26.5,51.5-34.3
			c15.7-6.2,31.8-8.8,48.5-5.3c20.5,4.2,37.1,15.2,50.6,30.9c16,18.6,20.7,40.6,18.7,64.4c-1.7,19.9-7.1,39-14.7,57.5
			c-8.3,20-19.2,38.7-30.5,57.2c-34.9,56.8-77.4,107.6-123.4,155.4c-14.3,14.8-28.8,29.2-43.4,43.6c-9.2,9-18.6,17.9-28.1,26.6
			c-7.1,6.4-11.2,6.4-18.1,0c-12.3-11.5-24.5-23.3-36.5-35.1c-23.6-23.3-46.5-47.1-68.4-72C105,296,76.3,259,50.4,219.8
			c-16-24.3-29.7-50-38.8-77.8c-5.4-16.4-9.8-33-10.5-50.4C0.5,77.6,2.6,64,8.6,51.2C15.9,35.7,27.5,24,41.7,14.7
			C54.7,6.2,68.9,1.3,84.5,1c15.2-0.3,29.3,3.7,42.8,10.4c23.2,11.8,42.8,28.2,59.7,48c20.1,23.6,35.5,50.2,49,78
			c4.9,10.1,9.5,20.3,14.5,30.8C251,167.1,251.3,166.5,251.6,165.8z"/>
	</g>
</g>
<g>
	<path d="M238.3,369.7c-0.9-0.1-1.7-0.2-2.6-0.4c-19.3-4.1-33.3-14.9-40.9-33.2c-3-7.2-4.1-14.8-2-22.5c1-3.7,3.5-5.9,7.3-6.5
		c3.9-0.5,7.1,0.8,9.1,4.1c1.3,2.1,2.2,4.5,2.8,6.9c1.8,6.6,3.8,13.1,7.5,19c6.7,10.7,16.7,14.7,29,11.7c7.3-1.8,13.8-5.3,20.2-9.1
		c7.7-4.6,13.4,0.5,16.1,6.4c1,2.1,0.6,4.3-0.8,6.1s-3,3.5-4.8,4.9c-9.8,7.9-20.6,13.5-33.6,13.3C243.1,370.2,240.6,370,238.3,369.7
		z"/>
	<path d="M320.8,229.1c7.1-7.1,16.3-7.2,23.5-0.1c7.3,7.1,10.6,16,10.8,26c0.1,9.1-2.3,17.5-8.2,24.6c-3.6,4.3-8.1,7.3-14,7.4
		c-7.2,0.1-12.4-3.5-16.4-9.2c-4.5-6.6-6.1-14.1-6.2-19.4C310.3,245.3,314.1,235.7,320.8,229.1z"/>
	<path d="M189.9,237c12.1,2.3,21.5,11.9,23.6,24c0.9,5-2.4,8.8-7.4,8.4c-3-0.2-5-2.3-5.9-6.4c-1.2-5.8-4.6-9.8-10-12
		c-3.6-1.5-7.5-1.8-11.3-1.4c-5.9,0.6-10,4.3-11.5,10c-0.4,1.5-0.5,3.1-0.6,4.6c-0.3,3.6-2.8,6.4-6,6.6c-3.8,0.3-6.7-1.8-7.3-5.5
		c-0.2-1.4,0-3,0.2-4.4c1.7-15.3,12.4-24.9,27.8-25.1C184.3,236.1,187.2,236.3,189.9,237z"/>
</g>
</svg>
