<?xml version="1.0" encoding="utf-8"?>
<!-- Generator: Adobe Illustrator 23.0.1, SVG Export Plug-In . SVG Version: 6.00 Build 0)  -->
<svg version="1.1" id="Layer_1" xmlns="http://www.w3.org/2000/svg" xmlns:xlink="http://www.w3.org/1999/xlink" x="0px" y="0px"
	 viewBox="0 0 500 443.3" style="enable-background:new 0 0 500 443.3;" xml:space="preserve">
<style type="text/css">
	.st0{fill:#20A5CA;}
</style>
<g>
	<g>
		<path class="st0" d="M250,168.2c5-10.5,9.6-20.7,14.5-30.8c13.5-27.8,28.9-54.4,49-78c16.9-19.8,36.5-36.2,59.7-48
			C386.7,4.7,400.8,0.7,416,1c15.6,0.3,29.8,5.2,42.8,13.7c14.2,9.3,25.8,21,33.1,36.5c6,12.8,8.1,26.4,7.5,40.4
			c-0.7,17.4-5.1,34-10.5,50.4c-9.1,27.8-22.8,53.5-38.8,77.8c-25.9,39.2-54.6,76.2-85.6,111.4c-21.9,24.9-44.8,48.7-68.4,72
			c-12,11.8-24.2,23.6-36.5,35.1c-6.9,6.4-11,6.4-18.1,0c-9.5-8.7-18.9-17.6-28.1-26.6c-14.6-14.4-29.1-28.8-43.4-43.6
			C124,320.3,81.5,269.5,46.6,212.7c-11.3-18.5-22.2-37.2-30.5-57.2c-7.6-18.5-13-37.6-14.7-57.5c-2-23.8,2.7-45.8,18.7-64.4
			C33.6,17.9,50.2,6.9,70.7,2.7c16.7-3.5,32.8-0.9,48.5,5.3c19.6,7.8,36.6,19.5,51.5,34.3c24,23.8,43.1,51.1,58.4,81.1
			c7.1,13.9,13.3,28.2,19.8,42.4C249.2,166.5,249.5,167.1,250,168.2z"/>
	</g>
</g>
<g>
	<path d="M254.9,370.4c-13,0.2-23.8-5.4-33.6-13.3c-1.8-1.4-3.4-3.1-4.8-4.9c-1.4-1.8-1.8-4-0.8-6.1c2.7-5.9,8.4-11,16.1-6.4
		c6.4,3.8,12.9,7.3,20.2,9.1c12.3,3,22.3-1,29-11.7c3.7-5.9,5.7-12.4,7.5-19c0.6-2.4,1.5-4.8,2.8-6.9c2-3.3,5.2-4.6,9.1-4.1
		c3.8,0.6,6.3,2.8,7.3,6.5c2.1,7.7,1,15.3-2,22.5c-7.6,18.3-21.6,29.1-40.9,33.2c-0.9,0.2-1.7,0.3-2.6,0.4
		C259.9,370,257.4,370.2,254.9,370.4z"/>
	<path d="M190.2,258.4c-0.1,5.3-1.7,12.8-6.2,19.4c-4,5.7-9.2,9.3-16.4,9.2c-5.9-0.1-10.4-3.1-14-7.4c-5.9-7.1-8.3-15.5-8.2-24.6
		c0.2-10,3.5-18.9,10.8-26c7.2-7.1,16.4-7,23.5,0.1C186.4,235.7,190.2,245.3,190.2,258.4z"/>
	<path d="M319,235.8c15.4,0.2,26.1,9.8,27.8,25.1c0.2,1.4,0.4,3,0.2,4.4c-0.6,3.7-3.5,5.8-7.3,5.5c-3.2-0.2-5.7-3-6-6.6
		c-0.1-1.5-0.2-3.1-0.6-4.6c-1.5-5.7-5.6-9.4-11.5-10c-3.8-0.4-7.7-0.1-11.3,1.4c-5.4,2.2-8.8,6.2-10,12c-0.9,4.1-2.9,6.2-5.9,6.4
		c-5,0.4-8.3-3.4-7.4-8.4c2.1-12.1,11.5-21.7,23.6-24C313.3,236.3,316.2,236.1,319,235.8z"/>
</g>
</svg>
