<?xml version="1.0" encoding="utf-8"?>
<!-- Generator: Adobe Illustrator 23.0.1, SVG Export Plug-In . SVG Version: 6.00 Build 0)  -->
<svg version="1.1" id="Layer_1" xmlns="http://www.w3.org/2000/svg" xmlns:xlink="http://www.w3.org/1999/xlink" x="0px" y="0px"
	 viewBox="0 0 413 500" style="enable-background:new 0 0 413 500;" xml:space="preserve">
<style type="text/css">
	.st0{fill:#FFFFFF;}
</style>
<g>
	<path d="M350,95.5c-0.3,8.8-0.2,17.6-1.2,26.3c-0.6,5.6-2.8,11-4.6,16.5c-0.6,1.8-0.4,2.7,1.1,3.8c8.3,6.4,16.9,12.4,24.8,19.3
		c12.2,10.7,22.6,23,29,38.1c5.2,12.4,6.9,25.2,2.9,38.3c-5,16.1-16.5,26-32.2,31c-5.1,1.6-10.6,2.1-15.9,3.2
		c-1.1,0.2-2.6,1.1-2.9,2c-4.3,13-10.4,25.2-17.4,36.9c-10.4,17.3-20.5,34.8-33.6,50.3c-14.2,16.9-30,32.2-45.9,47.5
		c-13.3,12.9-27.4,24.8-42.9,35.1c-11.7,7.8-24.2,14-37.1,19.6c-2.8,1.2-5.4,2.8-8,4.4c-3.4,2-6.5,1.3-9.2-1
		c-1.7-1.5-3.3-3.2-4.8-4.9c-9.1-10-18.3-19.9-27.2-30.1c-15.4-17.6-30.7-35.5-42.9-55.6c-9.6-15.8-15.5-33.1-18.7-51.3
		c-3.4-18.9-5.9-37.9-5.8-57.1c0.1-15,2.2-29.8,5.6-44.4c3.2-13.9,7.7-27.3,12.9-40.5c0.8-2,0.5-2.9-1.6-3.6
		c-2.3-0.8-4.6-1.9-6.8-2.9c-13.1-5.8-18.7-16.7-19.8-30.1c-1.4-18,7.5-30.7,22.1-40.1c11.1-7.2,23.5-11.4,36.4-13.7
		c9.9-1.7,20-2.7,30-4.1c1-0.1,2.3-1.3,2.7-2.3c3.1-6.6,5.8-13.5,9.1-20c6.2-12,15.5-21.4,26.1-29.6c11.5-9,24.1-16.4,36.9-23.4
		c17.5-9.5,41.2-5.9,54,11.8c1.9,2.6,3.7,6.1,6.3,6.9c2.5,0.8,6-1.2,9-2c9.5-2.4,19.1-3.8,28.8-1.5c10.2,2.4,19.3,7,27.2,14
		c6.5,5.8,9.6,13.6,10.9,21.9c1.6,10.3,2.3,20.8,3.4,31.2C350.4,95.5,350.2,95.5,350,95.5z M69,273.7c0.8,19,2.1,37.9,5.9,56.5
		c3.7,18.5,10.6,35.6,21.9,50.8c13.9,18.6,28.8,36.2,45.3,52.6c6.6,6.6,12.8,13.6,19.1,20.5c1.5,1.7,3,2.1,5.3,1.2
		c13.1-5.1,25.6-11.4,37.3-19.1c35.2-23,65.1-51.7,91.3-84.5c12-15.1,21.6-31.6,30.4-48.6c4.5-8.8,9.5-17.6,12.4-26.9
		c6.8-22.4,7.4-45.1,1.6-68c-3.1-12.1-7.4-23.2-16.2-32.2c-7.1-7.2-14.4-14.5-24.5-17.3c-16.6-4.6-33.4-5-50,0.1
		c-13,4-24.3,10.7-33.5,21c-1.1,1.3-3.6,2.3-5.1,2c-1.4-0.3-2.6-2.5-3.3-4.1c-0.8-1.9-0.9-4.1-1.5-6.1c-3.7-12.2-10.5-22.2-22.2-28
		c-7.7-3.8-16-4.5-24.4-5.1c-26.3-1.8-58.8,15.1-70.4,42.5C75.7,210.5,67.4,241.1,69,273.7z M148.1,87.9c1.9,0,2.9,0,4,0
		c9.9,0.3,19.8,0.3,29.7,1.1c18,1.5,35.5,5.8,53,10.1c26,6.4,51.6,14.3,76,25.4c7.7,3.5,15.3,7.1,23.4,10.8c0.6-2.6,0.9-5.2,1.6-7.6
		c0.6-2.2-0.2-3.2-2.1-4.3c-14.1-8.2-28.6-15.4-43.8-21.5c-17.3-6.9-34.6-13.3-52.6-18.1c-13.8-3.7-27.8-5.6-41.8-7.7
		c-13-2-25.9-2.9-39-1.5c-1.1,0.1-2.6,0.7-3,1.5C151.7,79.7,150.1,83.5,148.1,87.9z M62.7,141.6c0.7,2.9,1.1,6,2.3,8.8
		c2.2,5.4,5.9,9.8,11.5,12.1c2.1,0.9,3.8,0.3,5-1.5c1.2-1.8,0.7-3.5-0.8-4.9c-0.9-0.9-2-1.5-2.9-2.3c-1.6-1.7-3.6-3.3-4.6-5.3
		c-3.8-7.3-1-16.6,6.5-22.2c5.9-4.4,12.8-6.3,19.7-8.1c4.7-1.2,9.5-2.1,14.2-3.3c2.1-0.6,3.9-1.9,3.5-4.5c-0.4-2.7-2.6-3.1-4.8-3
		c-13.7,0.8-26.5,4.3-37.5,12.8C67.8,125.5,63.3,132.4,62.7,141.6z M133.6,112.7c0,0.1,0,0.2,0,0.3c2.7-0.3,5.5-0.3,8.2-1
		c1.1-0.3,2.4-1.8,2.5-2.9c0.1-0.9-1-2.5-2-3c-4.9-2.1-10-2.3-15-0.2c-1.1,0.4-2.3,2.5-2.1,3.4c0.3,1.2,1.9,2.5,3.2,3
		C130.1,112.9,131.9,112.6,133.6,112.7z"/>
	<path d="M232.8,491c-3.7,0.4-6.2-1.9-7.8-4.9c-3.2-6-6.1-12.3-8.8-18.5c-1.5-3.4,0.3-7.8,3.5-9.7c3.8-2.4,9-2.1,11.4,1.3
		c4.7,6.5,8.7,13.5,10.6,21.3C243.2,486.3,239,491,232.8,491z M235.4,481.2c-0.5-1.6-0.7-2.8-1.2-3.9c-2-4.2-3.9-8.4-6.1-12.6
		c-1.8-3.6-4.1-4.9-6-3.9c-1.8,1-1.8,3.4,0,7c2,4,4,8,6.1,11.9c0.7,1.2,1.5,2.5,2.6,3.3c0.8,0.6,2.2,0.7,3.1,0.4
		C234.6,483.1,235,481.9,235.4,481.2z"/>
	<path d="M370.1,344.3c-5.2-2-10.4-3.9-15.6-6c-2.3-0.9-4.5-2.1-6.6-3.4c-3.7-2.4-4.8-6.2-3.2-9.9c1.7-4,6.2-6.8,9.9-5.2
		c7.1,3.2,13.9,6.9,20.6,10.9c2.9,1.8,3.5,6,2.2,9c-1.2,2.7-3.2,3.9-7,3.8C370.3,343.7,370.2,344,370.1,344.3z M351.9,325
		c-0.8,0.8-2.3,1.7-2.5,2.8c-0.1,0.9,1.2,2.5,2.2,3.1c3.2,1.6,6.6,2.8,9.9,4.2c2.1,0.9,4.2,1.8,6.3,2.7c2,0.8,4.3,1.3,5.1-1.1
		c0.3-0.9-1.5-3.1-2.9-3.8c-4.8-2.5-9.8-4.6-14.7-6.8C354.6,325.6,353.6,325.4,351.9,325z"/>
	<path d="M29.2,255.5c-4.5-0.9-9-1.5-13.3-2.7c-4.7-1.3-6.3-4.1-6-8.7c0.3-3.4,3.2-6.6,7.3-6.9c7.7-0.5,15.4,0.3,22.7,3.2
		c4.3,1.7,5.2,6.7,2.2,10.2C38.7,254.4,34.2,255.2,29.2,255.5z M23,241.7c-2.4,0.6-4.6,0.8-6.4,1.6c-0.9,0.4-1.7,1.9-1.7,2.9
		c0,0.8,1.1,1.9,2,2.4c0.8,0.5,2,0.5,3,0.6c4.2,0.4,8.3,0.6,12.5,1.1c2,0.2,3.5-0.1,4.1-2.1c0.6-2.1-1-3.1-2.4-3.6
		C30.3,243.4,26.5,242.5,23,241.7z"/>
	<path d="M282.5,449.3c0,4-2.4,6.1-6.6,5.9c-3.7-0.2-6.3-2.3-8.3-4.9c-3-3.9-5.7-8.1-8.3-12.3c-1.9-3.2-1-7.5,1.6-9.7
		c2.9-2.5,7.2-2.8,10.3-0.6C275.4,430.7,282.4,444.1,282.5,449.3z M276.7,445.9c0-0.2,0-0.4-0.1-0.6c-3.1-4.8-6.1-9.8-9.5-14.5
		c-1.2-1.6-4.1-0.3-4.3,1.8c-0.1,1.1,0.3,2.5,0.9,3.5c2.3,3.4,4.7,6.7,7.2,9.9c0.7,0.9,1.9,1.6,3,2
		C275.8,448.6,276.7,447.8,276.7,445.9z"/>
	<path d="M384.5,296.4c-6.5-0.6-12.4-0.9-18.3-1.6c-4.5-0.5-6.3-2.3-7.2-6.4c-1.1-5.2,1.7-9.3,7-8.9c5.3,0.4,10.5,1.6,15.7,2.7
		c2.5,0.5,5,1.2,7.4,2.1c3.2,1.3,4.5,3.7,4.1,6.7c-0.4,2.9-2.2,4.6-5.6,5.2C386.3,296.4,385.1,296.4,384.5,296.4z M382.2,291.9
		c0-0.1,0-0.2,0-0.2c0.7,0,1.4,0.2,2,0c1-0.4,1.9-1.1,2.9-1.7c-0.7-0.8-1.4-1.8-2.2-2.5c-0.5-0.4-1.2-0.5-1.9-0.6
		c-5.5-0.9-11.1-1.7-16.6-2.7c-1.8-0.3-3,0.1-3.4,2c-0.4,2,1.1,2.8,2.6,3C371.2,290.2,376.7,291,382.2,291.9z"/>
	<path d="M329.3,362c0.9,0.2,2.6,0.4,3.9,1.2c4.6,2.8,9.3,5.5,13.6,8.8c1.9,1.4,3.4,3.9,4,6.2c1.2,4.6-2.3,8.5-7,7.8
		c-2.3-0.3-4.7-1.5-6.8-2.7c-3.8-2.2-7.4-4.7-11-7.1c-0.9-0.6-1.7-1.2-2.5-1.9c-2.2-2.2-2.9-5.4-1.7-8.1
		C323.1,363.1,325.6,362.1,329.3,362z M344,379.9c0.6-0.4,1.6-0.6,1.8-1.1c0.3-0.7,0.2-1.7-0.1-2.3c-0.3-0.7-1.1-1.4-1.8-1.8
		c-4.2-2.6-8.4-5.1-12.7-7.6c-0.6-0.4-1.5-0.8-2.1-0.7c-1,0.2-2.4,0.6-2.8,1.4c-0.4,0.7,0.1,2.1,0.6,2.9c0.5,0.8,1.6,1.3,2.5,1.8
		c3.6,2,7.2,3.9,10.8,5.8C341.3,378.9,342.6,379.3,344,379.9z"/>
	<path d="M49.2,368.2c5.5,0,8.2,1.5,9.2,4.5c1,3-0.4,6.3-3.6,8.6c-1.2,0.8-2.4,1.5-3.8,2c-4.5,1.8-9,3.5-13.6,5.2
		c-3.6,1.3-7.3-0.2-9.2-3.7c-1.9-3.5-1.3-7.8,2.1-9.6C36.7,371.8,43.3,369,49.2,368.2z M36.1,383.4c5.1-1.7,9.8-3.2,14.4-5
		c0.9-0.4,1.8-2.5,1.5-3.4c-0.3-0.9-2.3-2-3.3-1.8c-4.6,1-9.1,2.4-13.7,3.8c-1.6,0.5-2.7,1.9-2,3.5
		C33.4,381.7,34.9,382.4,36.1,383.4z"/>
	<path d="M41.3,214c-3.1-0.8-7.2-1.8-11.2-2.9c-1.7-0.4-3.4-0.7-5-1.2c-4-1.2-5.6-3.7-5.3-7.7c0.3-3.3,3-6.4,6.5-6.6
		c7.6-0.6,14.6,1.3,20.7,5.9c2.7,2,3.3,5,2.2,7.9C48,212.6,45.7,214.1,41.3,214z M41,209.7c0.9-0.7,2.7-1.6,2.6-2.2
		c-0.1-1.1-1.2-2.6-2.2-3c-3.5-1.4-7.2-2.4-10.8-3.6c-0.9-0.3-1.9-0.8-2.7-0.6c-1.1,0.3-2.5,1-3,1.9c-0.3,0.5,0.8,2.5,1.6,2.8
		C31,206.7,35.8,208.1,41,209.7z"/>
	<path d="M290.7,405.2c0.5-4.9,5.2-8.2,9.7-6.6c1.1,0.4,2.3,1,3.2,1.8c3.7,3,7.6,5.8,10.9,9.2c1.9,1.9,3.6,4.6,4,7.2
		c0.8,4.9-4.7,8.9-8.8,6.3c-5.9-3.7-11.2-8.4-16.5-12.9C291.8,409,291.5,406.8,290.7,405.2z M312.8,415.1c-0.1-0.3-0.2-0.9-0.6-1.3
		c-3.9-3.5-7.7-7-11.8-10.3c-0.6-0.5-2.6-0.3-3.2,0.4c-0.5,0.5-0.4,2.5,0.2,3.2c2.7,3,5.7,5.8,8.7,8.6c0.9,0.8,1.9,1.6,3.1,2
		C310.8,418.4,312.7,417.1,312.8,415.1z"/>
	<path d="M28.6,343.3c-8.5,0.1-11.4-2.9-10.8-8c0.3-2.5,1.7-4.5,4-5c6.5-1.4,13-2.8,19.6-3.6c3.9-0.4,6.6,2,7.1,5.2
		c0.6,3.4-0.9,6.8-4.7,7.9C38.1,341.6,32.1,342.6,28.6,343.3z M27.9,339.4c3.6-0.5,7.8-1.1,11.9-1.8c1.7-0.3,3.4-1.4,2.8-3.2
		c-0.3-1-2.2-2-3.4-2.1c-3-0.1-6.1,0.2-9.1,0.5c-2,0.2-4,0.3-5.8,1.1c-0.9,0.4-1.9,2-1.8,3c0,0.8,1.4,1.7,2.4,2.3
		C25.5,339.6,26.5,339.3,27.9,339.4z"/>
	<path d="M53.5,432.1c-3.5,0.2-5.7-1-6.9-3.6c-1.1-2.4-1.2-5.1,0.7-7c5.7-5.5,12.5-9,20.5-9.3c2.6-0.1,4.8,1.3,5.8,3.9
		c0.9,2.7,0.5,5.5-1.9,6.9c-5.4,3.2-11.2,6-16.8,8.9C54.3,432.2,53.5,432,53.5,432.1z M53.8,426.6c1.3-0.5,2.4-0.8,3.4-1.3
		c3.2-1.7,6.4-3.3,9.4-5.2c1-0.6,1.5-2.1,2.3-3.2c-1.3-0.4-3-1.6-4-1.1c-4.2,2-8.3,4.5-12.3,6.9c-0.6,0.3-0.8,1.7-0.7,2.5
		C52.2,425.8,53.2,426.2,53.8,426.6z"/>
	<path d="M23.5,299.3c-1.6,0-3.2,0.1-4.8,0c-3.7-0.4-5.7-2.4-6-5.7c-0.3-3.6,1.2-6.6,4.8-7c6.6-0.6,13.2-0.7,19.8-0.5
		c2.5,0.1,4.2,2.1,4.4,4.9c0.2,3-1.1,5.6-4.1,6.4c-3.6,1-7.3,1.3-10.9,1.8C25.6,299.3,24.5,299.3,23.5,299.3
		C23.5,299.3,23.5,299.3,23.5,299.3z M26.4,290.1c0-0.1,0-0.1,0-0.2c-1.1,0-2.4-0.3-3.4,0.1c-1.2,0.4-2.9,1.1-3.2,2
		c-0.5,2,1.4,2.5,2.9,2.5c4.4,0,8.7-0.2,13.1-0.5c0.7-0.1,1.7-1.2,1.9-2c0.1-0.5-0.8-1.7-1.5-1.9c-1.3-0.4-2.8-0.5-4.2-0.4
		C30.2,289.7,28.3,290,26.4,290.1z"/>
	<path class="st0" d="M69,273.7c-1.6-32.7,6.8-63.2,19.4-93c11.6-27.4,44.1-44.3,70.4-42.5c8.4,0.6,16.8,1.3,24.4,5.1
		c11.7,5.8,18.5,15.8,22.2,28c0.6,2,0.7,4.2,1.5,6.1c0.7,1.6,1.9,3.8,3.3,4.1c1.5,0.3,4-0.7,5.1-2c9.2-10.2,20.5-17,33.5-21
		c16.6-5.1,33.4-4.7,50-0.1c10.1,2.8,17.4,10.1,24.5,17.3c8.8,9,13.2,20.2,16.2,32.2c5.8,22.9,5.2,45.7-1.6,68
		c-2.9,9.4-7.8,18.2-12.4,26.9c-8.8,17-18.4,33.6-30.4,48.6c-26.2,32.8-56.1,61.5-91.3,84.5c-11.8,7.7-24.2,14-37.3,19.1
		c-2.3,0.9-3.7,0.5-5.3-1.2c-6.3-6.9-12.5-13.9-19.1-20.5c-16.5-16.3-31.5-34-45.3-52.6c-11.3-15.2-18.2-32.3-21.9-50.8
		C71,311.6,69.8,292.7,69,273.7z M214.2,272.8c0.5-0.4,0.6-0.6,0.9-0.7c0.5-0.3,1-0.5,1.6-0.7c13.5-4.2,27.1-4.8,40.9-1.1
		c3.4,0.9,6.9,1.5,10.3,2c2,0.3,3.9-0.4,4.7-2.5c0.8-2.2,0.3-4.4-1.6-5.7c-2.1-1.4-4.4-2.8-6.8-3.4c-17.9-4.5-35.3-3.2-52.2,4.5
		c-2.8,1.3-5.7,2.5-8.8,4c0.1-1.1,0.1-1.7,0.2-2.3c1.2-9.1,1.3-18.1-1.3-26.9c-4.4-14.8-14.9-21.8-29.4-19.5
		c-7.7,1.2-13.2,6.1-18.1,11.8c-1.9,2.2-3.8,4.4-5.7,6.7c-4.4-3-7-6.6-7.6-11.6c-0.2-1.7-0.7-3.4-1.5-4.9c-0.4-0.7-1.7-1.5-2.5-1.4
		c-0.9,0.2-1.9,1.2-2.4,2c-0.4,0.7-0.5,1.9-0.4,2.8c0.7,6.8,3.2,12.5,9.2,16.3c0.8,0.5,1.5,1.1,2.2,1.6c-1.5,3.2-2.9,6.2-4.4,9.3
		c-6.3-3.1-12.6-5.9-13.7-13.9c-0.3-1.9-1.8-3.4-3.6-2.7c-1.1,0.4-2.5,2.5-2.3,3.6c0.5,3.3,1.3,6.8,2.9,9.6c2.7,4.8,7.6,7,12.7,8.6
		c0.8,0.3,2.1,1.1,2,1.5c-0.8,3.8-1.8,7.5-2.7,11.4c-6.8-1.6-11.7-4.6-14.1-11c-1.2-3-3.1-3.8-5.3-3c-2.2,0.9-2.8,2.7-1.6,5.8
		c3,7.9,8.9,12.7,17,14.6c2.8,0.6,3.1,1.8,3,4.2c-0.4,11.4,0.2,22.7,4.6,33.5c0.6,1.5,0.1,2.2-1.3,2.9c-2.4,1.2-4.8,2.4-7,3.9
		c-3.3,2.2-4.2,4.9-2.6,7.2c1.4,2.1,3.7,2.3,7-0.2c8.3-6.2,17.9-8.3,27.8-9.3c25.2-2.7,48.1,4.3,69.5,17.2c1.1,0.6,2.2,1.2,3.4,1.5
		c2,0.5,4.1,0.7,5.4-1.4c1.2-2,1-4.2-0.7-5.8c-1.7-1.7-3.7-3.4-5.8-4.6c-9.8-5.9-20.4-9.8-31.5-12.5c-4.4-1.1-8.8-2-13.4-3
		c1.2-4,2.4-7.7,3.4-11.4c1.2-4.2,2.4-8.4,3.5-12.7c0.4-1.4,1-2.4,2.8-2.1c16,1.9,30.2,7.5,41.9,18.9c1.8,1.8,3.8,3.5,6,4.8
		c2.5,1.5,5.8,0.7,7.2-1.4c1.5-2.3,1-5.1-1.3-7.2c-0.6-0.6-1.3-1.1-2.1-1.5c-3.6-2.4-7.2-4.7-10.7-7.1c-6.4-4.3-13.1-8.2-20.5-10.5
		c-1.1-0.3-2.2-0.7-3.2-1c0.5-0.7,1-0.9,1.4-0.9c14.2,0.7,27.9,2.7,38.9,13.1c2.3,2.2,4.9,1.7,6.8-0.5c1.6-2,1.4-4.7-0.7-6.6
		c-1.2-1.1-2.5-2-3.9-2.8c-9.6-5.6-20-8.5-31-9.1C224.6,272.5,219.6,272.8,214.2,272.8z M231.7,355.5c0.3-0.2,0.6-0.3,0.9-0.5
		c1.1,1.3,2.3,2.5,3.3,4c1.2,1.8,2,3.9,3.2,5.7c1.4,2,3.6,2.6,5.8,1.6c2.3-1,3.2-3.2,2.5-5.4c-0.6-2.1-1.6-4.3-3-6.1
		c-3.9-4.9-9-8.3-14.8-10.4c-4.2-1.5-8.6-1.6-12.9-0.2c-2,0.6-3.6,1.9-3.3,4.4c0.3,2.4,2.1,3,4.2,3.1c1,0,1.9,0.1,2.9,0
		c2.2-0.3,2.7,0.7,2.4,2.6c-0.3,1.8-0.3,3.7-1.1,5.3c-3,6.1-6.1,12-9.3,18c-3.7,6.9-9.3,11.8-16.1,15.3c-4.2,2.2-8.6,4.2-13.1,5.7
		c-5,1.7-10.2,2.7-15.7,4.1c0.8-3.5,1.7-6.1,1.9-8.8c0.1-1.4-1.1-3.7-2.1-4c-1.3-0.4-3.3,0.5-4.7,1.4c-0.8,0.5-1.2,1.9-1.6,2.9
		c-2.7,6.8-3.4,13.9-2.4,21.1c0.3,2.3,1.5,4.7,2.8,6.7c1.3,2,3.7,2.4,5.9,1.5c2.2-0.8,2.3-2.9,2-4.9c-0.4-2.2-1-4.4-1.6-6.7
		c0.6-0.2,1.1-0.4,1.6-0.5c8.6-2.8,17.3-5.3,25.7-8.6c8.7-3.5,16.7-8.4,22.5-16.1C224.4,377.2,230.7,367.6,231.7,355.5z
		 M306.8,219.5c-0.8-4.5-1.1-8.4-2.2-12.1c-6.4-20.2-30.7-34-51.3-29.4c-5,1.1-9.7,3.2-13.1,7.1c-1.1,1.2-1.5,3.5-1.3,5.1
		c0.2,1,2.1,2.3,3.3,2.5c1.3,0.2,2.9-0.7,4.2-1.4c2.2-1.2,4.1-2.9,6.3-3.8c7.7-2.9,15.2-1.5,22.5,1.7c17.3,7.5,24.4,25.6,19,38.7
		c-0.8,1.9-0.9,4.1-0.9,6.2c0,3.1,2.1,4.6,5.1,4.3c2.8-0.3,4.4-2.3,5-4.5C304.8,229.1,305.8,224.1,306.8,219.5z M157.4,173.8
		c6.9,0.4,14.7,2.4,20.4,9.2c0.7,0.9,1.6,1.6,2.5,2.3c2.8,2.2,5.6,2.2,7.7,0.1c2.1-2.1,2.4-5.2-0.1-7.7c-3.3-3.2-6.8-6.5-10.9-8.7
		c-26.5-14.2-54.4,4.1-61.2,26.8c-0.7,2.4-1,5.1-0.8,7.6c0.1,1.1,1.6,2.7,2.8,2.9c1,0.2,2.7-0.8,3.4-1.8c0.9-1.4,1.2-3.2,1.7-4.8
		C126.5,185,140.7,173.8,157.4,173.8z M177.8,326.5c-0.1,0.1-0.1,0.3-0.2,0.4c-1.8,0.3-3.6,0.5-5.4,0.8c-3.5,0.6-6.7,1.9-7.7,5.8
		c-1.1,4.1,0.3,7.6,3.5,10.2c5.4,4.3,11.6,5.1,18.1,2.9c3.6-1.2,5.8-3.9,6.2-7.8c0.4-4.2-1.2-7.5-4.9-9.2
		C184.4,328.2,181,327.5,177.8,326.5z M205.8,414.5c10.3-0.2,22.7-11.3,24-21.3c0.1-1-0.4-2.8-1.1-3.1c-1.1-0.4-3-0.4-3.9,0.3
		c-1.2,0.9-2.1,2.4-2.8,3.8c-1.7,3.9-4.2,7.2-7.8,9.2c-2.8,1.6-6.1,2.5-9.2,3.7c-2.2,0.8-3.2,2.4-2.9,4.6
		C202.3,414.1,204.2,414.4,205.8,414.5z"/>
	<path class="st0" d="M148.1,87.9c2-4.4,3.6-8.1,5.4-11.7c0.4-0.8,1.9-1.4,3-1.5c13.1-1.4,26-0.5,39,1.5c14,2.1,28.1,4.1,41.8,7.7
		c18,4.8,35.4,11.2,52.6,18.1c15.2,6.1,29.7,13.3,43.8,21.5c1.8,1.1,2.7,2.1,2.1,4.3c-0.7,2.4-1.1,5-1.6,7.6
		c-8.1-3.7-15.7-7.3-23.4-10.8c-24.5-11-50-19-76-25.4c-17.5-4.3-35-8.7-53-10.1c-9.9-0.8-19.8-0.8-29.7-1.1
		C151,87.8,150,87.9,148.1,87.9z"/>
	<path class="st0" d="M62.7,141.6c0.6-9.3,5.1-16.1,12-21.5c11-8.5,23.8-12,37.5-12.8c2.2-0.1,4.4,0.3,4.8,3
		c0.4,2.6-1.4,3.9-3.5,4.5c-4.7,1.2-9.5,2.1-14.2,3.3c-6.9,1.8-13.8,3.7-19.7,8.1c-7.5,5.6-10.3,14.9-6.5,22.2c1.1,2,3,3.6,4.6,5.3
		c0.8,0.9,2,1.5,2.9,2.3c1.4,1.4,1.9,3.1,0.8,4.9c-1.2,1.8-2.9,2.4-5,1.5c-5.6-2.3-9.3-6.6-11.5-12.1
		C63.9,147.6,63.5,144.5,62.7,141.6z"/>
	<path class="st0" d="M133.6,112.7c-1.7-0.1-3.6,0.2-5.1-0.4c-1.3-0.5-2.9-1.7-3.2-3c-0.2-0.9,1-3,2.1-3.4c4.9-2.1,10.1-1.9,15,0.2
		c1,0.4,2.1,2.1,2,3c-0.2,1.1-1.5,2.7-2.5,2.9c-2.6,0.7-5.4,0.7-8.2,1C133.6,112.9,133.6,112.8,133.6,112.7z"/>
	<path class="st0" d="M235.4,481.2c-0.4,0.7-0.8,2-1.5,2.2c-0.9,0.3-2.4,0.2-3.1-0.4c-1.1-0.8-1.9-2.1-2.6-3.3
		c-2.1-3.9-4.1-7.9-6.1-11.9c-1.8-3.6-1.8-6,0-7c1.9-1.1,4.2,0.3,6,3.9c2.1,4.1,4.1,8.4,6.1,12.6
		C234.7,478.4,234.9,479.6,235.4,481.2z"/>
	<path class="st0" d="M351.9,325c1.7,0.5,2.6,0.6,3.5,1c4.9,2.2,9.9,4.3,14.7,6.8c1.3,0.7,3.2,2.9,2.9,3.8c-0.8,2.4-3.1,1.9-5.1,1.1
		c-2.1-0.8-4.2-1.8-6.3-2.7c-3.3-1.4-6.7-2.6-9.9-4.2c-1.1-0.5-2.3-2.1-2.2-3.1C349.6,326.6,351.2,325.7,351.9,325z"/>
	<path class="st0" d="M23,241.7c3.5,0.9,7.3,1.7,11,2.9c1.5,0.5,3.1,1.5,2.4,3.6c-0.6,2-2.1,2.3-4.1,2.1c-4.1-0.5-8.3-0.7-12.5-1.1
		c-1-0.1-2.2-0.1-3-0.6c-0.9-0.5-2-1.6-2-2.4c0-1,0.8-2.5,1.7-2.9C18.4,242.5,20.5,242.2,23,241.7z"/>
	<path class="st0" d="M276.7,445.9c0.1,1.9-0.9,2.7-2.7,2.1c-1.1-0.4-2.3-1.1-3-2c-2.5-3.2-4.9-6.5-7.2-9.9c-0.6-1-1-2.3-0.9-3.5
		c0.2-2.1,3.1-3.4,4.3-1.8c3.4,4.7,6.4,9.6,9.5,14.5C276.7,445.5,276.6,445.7,276.7,445.9z"/>
	<path class="st0" d="M382.2,291.9c-5.5-0.9-11.1-1.8-16.6-2.7c-1.5-0.3-3-1-2.6-3c0.4-1.9,1.6-2.3,3.4-2c5.5,0.9,11.1,1.8,16.6,2.7
		c0.6,0.1,1.4,0.2,1.9,0.6c0.8,0.7,1.5,1.7,2.2,2.5c-1,0.6-1.9,1.3-2.9,1.7c-0.6,0.2-1.3,0-2,0C382.2,291.8,382.2,291.8,382.2,291.9
		z"/>
	<path class="st0" d="M344,379.9c-1.4-0.6-2.7-1-3.8-1.6c-3.6-1.9-7.2-3.8-10.8-5.8c-0.9-0.5-2-1-2.5-1.8c-0.5-0.8-1-2.2-0.6-2.9
		c0.4-0.8,1.8-1.2,2.8-1.4c0.6-0.1,1.5,0.3,2.1,0.7c4.3,2.5,8.5,5,12.7,7.6c0.7,0.4,1.4,1.1,1.8,1.8c0.3,0.7,0.4,1.7,0.1,2.3
		C345.5,379.3,344.6,379.6,344,379.9z"/>
	<path class="st0" d="M36.1,383.4c-1.2-1-2.6-1.7-3.1-2.8c-0.7-1.6,0.3-3,2-3.5c4.5-1.4,9.1-2.8,13.7-3.8c1-0.2,3,0.8,3.3,1.8
		c0.3,0.9-0.6,3-1.5,3.4C45.9,380.2,41.2,381.7,36.1,383.4z"/>
	<path class="st0" d="M41,209.7c-5.2-1.6-10-3-14.6-4.7c-0.8-0.3-1.9-2.3-1.6-2.8c0.5-0.9,1.9-1.6,3-1.9c0.8-0.2,1.8,0.3,2.7,0.6
		c3.6,1.2,7.3,2.2,10.8,3.6c1,0.4,2.1,1.9,2.2,3C43.7,208.1,41.9,209,41,209.7z"/>
	<path class="st0" d="M312.8,415.1c0,2-1.9,3.3-3.7,2.6c-1.1-0.4-2.2-1.2-3.1-2c-3-2.8-5.9-5.6-8.7-8.6c-0.6-0.7-0.7-2.6-0.2-3.2
		c0.6-0.6,2.6-0.9,3.2-0.4c4,3.3,7.9,6.8,11.8,10.3C312.5,414.1,312.6,414.8,312.8,415.1z"/>
	<path class="st0" d="M27.9,339.4c-1.4-0.1-2.4,0.1-3.1-0.2c-1-0.5-2.4-1.5-2.4-2.3c0-1,0.9-2.7,1.8-3c1.8-0.7,3.9-0.9,5.8-1.1
		c3-0.3,6.1-0.7,9.1-0.5c1.2,0.1,3.1,1.1,3.4,2.1c0.6,1.8-1.1,2.9-2.8,3.2C35.7,338.3,31.6,338.9,27.9,339.4z"/>
	<path class="st0" d="M53.8,426.6c-0.6-0.4-1.7-0.8-1.8-1.4c-0.2-0.8,0.1-2.1,0.7-2.5c4-2.5,8.1-4.9,12.3-6.9c0.9-0.4,2.6,0.7,4,1.1
		c-0.8,1.1-1.3,2.5-2.3,3.2c-3,1.9-6.3,3.5-9.4,5.2C56.3,425.8,55.1,426.1,53.8,426.6z"/>
	<path class="st0" d="M26.4,290.1c1.9-0.2,3.8-0.4,5.7-0.4c1.4,0,2.9,0,4.2,0.4c0.7,0.2,1.7,1.4,1.5,1.9c-0.2,0.8-1.2,1.9-1.9,2
		c-4.4,0.3-8.7,0.5-13.1,0.5c-1.6,0-3.4-0.6-2.9-2.5c0.2-0.9,2-1.6,3.2-2c1-0.3,2.3-0.1,3.4-0.1C26.4,290,26.4,290,26.4,290.1z"/>
	<path d="M214.2,272.8c5.4,0,10.4-0.2,15.4,0.1c11,0.7,21.4,3.6,31,9.1c1.4,0.8,2.7,1.8,3.9,2.8c2.1,1.9,2.3,4.7,0.7,6.6
		c-1.9,2.2-4.5,2.6-6.8,0.5c-11-10.4-24.7-12.4-38.9-13.1c-0.4,0-0.8,0.2-1.4,0.9c1.1,0.3,2.2,0.7,3.2,1c7.5,2.3,14.1,6.2,20.5,10.5
		c3.6,2.4,7.2,4.7,10.7,7.1c0.7,0.5,1.4,1,2.1,1.5c2.3,2.1,2.8,4.8,1.3,7.2c-1.4,2.1-4.6,3-7.2,1.4c-2.2-1.3-4.2-3-6-4.8
		c-11.7-11.4-25.9-17.1-41.9-18.9c-1.8-0.2-2.4,0.8-2.8,2.1c-1.2,4.2-2.3,8.5-3.5,12.7c-1.1,3.7-2.2,7.4-3.4,11.4
		c4.5,1,9,1.9,13.4,3c11.1,2.7,21.7,6.6,31.5,12.5c2.1,1.3,4,2.9,5.8,4.6c1.6,1.6,1.8,3.8,0.7,5.8c-1.3,2.1-3.4,2-5.4,1.4
		c-1.2-0.3-2.3-0.9-3.4-1.5c-21.4-12.9-44.3-19.8-69.5-17.2c-9.9,1-19.6,3.1-27.8,9.3c-3.3,2.5-5.6,2.4-7,0.2
		c-1.5-2.3-0.6-5,2.6-7.2c2.2-1.5,4.6-2.7,7-3.9c1.4-0.7,1.9-1.4,1.3-2.9c-4.4-10.8-5-22-4.6-33.5c0.1-2.4-0.2-3.6-3-4.2
		c-8.1-1.9-14-6.7-17-14.6c-1.2-3.1-0.6-4.9,1.6-5.8c2.2-0.9,4.1-0.1,5.3,3c2.5,6.4,7.4,9.4,14.1,11c1-3.8,2-7.6,2.7-11.4
		c0.1-0.4-1.2-1.2-2-1.5c-5.1-1.7-10-3.8-12.7-8.6c-1.6-2.9-2.4-6.3-2.9-9.6c-0.2-1.1,1.2-3.2,2.3-3.6c1.8-0.7,3.4,0.8,3.6,2.7
		c1.1,8,7.4,10.8,13.7,13.9c1.5-3.1,2.9-6.1,4.4-9.3c-0.7-0.5-1.5-1.1-2.2-1.6c-6-3.8-8.5-9.6-9.2-16.3c-0.1-0.9-0.1-2,0.4-2.8
		c0.5-0.9,1.5-1.9,2.4-2c0.7-0.1,2.1,0.7,2.5,1.4c0.8,1.5,1.3,3.2,1.5,4.9c0.6,5,3.2,8.6,7.6,11.6c1.9-2.2,3.8-4.5,5.7-6.7
		c4.9-5.6,10.3-10.5,18.1-11.8c14.5-2.3,25,4.7,29.4,19.5c2.6,8.9,2.5,17.9,1.3,26.9c-0.1,0.6-0.1,1.3-0.2,2.3c3.2-1.4,6-2.7,8.8-4
		c16.9-7.7,34.3-9,52.2-4.5c2.4,0.6,4.7,2,6.8,3.4c1.9,1.3,2.4,3.4,1.6,5.7c-0.8,2.1-2.7,2.8-4.7,2.5c-3.5-0.5-7-1.1-10.3-2
		c-13.8-3.7-27.3-3.1-40.9,1.1c-0.5,0.2-1.1,0.4-1.6,0.7C214.9,272.1,214.7,272.4,214.2,272.8z M143.7,282.3
		c-0.1,10,1.5,19.8,4.5,29.3c0.3,1,0.3,2.4,2.3,2.2c9.2-1.1,18.3-2.2,27.5-2.8c3.4-0.2,4.8-1.4,5.8-4.4c4.8-14.9,7.8-30.3,9.7-45.8
		c0.8-6.5,0.6-13.1-1.5-19.5c-3.4-10.5-12.9-14.8-22.9-10.2c-6.2,2.8-10.9,7.3-14.7,12.8C146.5,255.4,143.6,268.5,143.7,282.3z"/>
	<path d="M231.7,355.5c-1,12.1-7.3,21.7-14.2,31c-5.7,7.8-13.7,12.7-22.5,16.1c-8.4,3.3-17.1,5.8-25.7,8.6c-0.5,0.2-1,0.3-1.6,0.5
		c0.6,2.3,1.2,4.5,1.6,6.7c0.3,1.9,0.2,4-2,4.9c-2.2,0.8-4.6,0.5-5.9-1.5c-1.3-2-2.4-4.4-2.8-6.7c-1-7.2-0.3-14.3,2.4-21.1
		c0.4-1.1,0.8-2.4,1.6-2.9c1.4-0.8,3.4-1.8,4.7-1.4c1.1,0.3,2.2,2.6,2.1,4c-0.1,2.7-1.1,5.3-1.9,8.8c5.5-1.4,10.7-2.4,15.7-4.1
		c4.5-1.5,8.8-3.5,13.1-5.7c6.8-3.5,12.5-8.5,16.1-15.3c3.2-5.9,6.3-11.9,9.3-18c0.8-1.6,0.8-3.5,1.1-5.3c0.4-1.9-0.2-2.9-2.4-2.6
		c-0.9,0.1-1.9,0.1-2.9,0c-2.1-0.1-3.8-0.7-4.2-3.1c-0.4-2.5,1.2-3.7,3.3-4.4c4.3-1.3,8.7-1.3,12.9,0.2c5.8,2.1,10.9,5.5,14.8,10.4
		c1.4,1.7,2.3,3.9,3,6.1c0.7,2.3-0.2,4.4-2.5,5.4c-2.3,1-4.4,0.4-5.8-1.6c-1.3-1.8-2-3.9-3.2-5.7c-0.9-1.4-2.2-2.6-3.3-4
		C232.3,355.2,232,355.4,231.7,355.5z"/>
	<path d="M306.8,219.5c-1,4.6-1.9,9.6-3.3,14.5c-0.6,2.3-2.2,4.3-5,4.5c-3,0.3-5.1-1.2-5.1-4.3c0-2.1,0.1-4.3,0.9-6.2
		c5.3-13.1-1.7-31.2-19-38.7c-7.3-3.2-14.8-4.6-22.5-1.7c-2.3,0.8-4.2,2.6-6.3,3.8c-1.3,0.7-2.9,1.6-4.2,1.4
		c-1.3-0.2-3.2-1.5-3.3-2.5c-0.2-1.6,0.2-3.9,1.3-5.1c3.4-3.9,8.1-6,13.1-7.1c20.6-4.6,44.9,9.2,51.3,29.4
		C305.7,211.1,306,215,306.8,219.5z"/>
	<path d="M157.4,173.8c-16.7,0-31,11.2-34.5,25.9c-0.4,1.7-0.7,3.5-1.7,4.8c-0.7,1-2.4,2-3.4,1.8c-1.1-0.3-2.7-1.8-2.8-2.9
		c-0.2-2.5,0.1-5.2,0.8-7.6c6.7-22.6,34.7-41,61.2-26.8c4,2.2,7.6,5.4,10.9,8.7c2.5,2.5,2.2,5.6,0.1,7.7c-2.1,2.1-4.9,2.1-7.7-0.1
		c-0.9-0.7-1.8-1.4-2.5-2.3C172.1,176.2,164.4,174.2,157.4,173.8z"/>
	<path d="M177.8,326.5c3.2,1,6.6,1.7,9.6,3.1c3.7,1.7,5.3,5,4.9,9.2c-0.4,4-2.6,6.6-6.2,7.8c-6.5,2.2-12.6,1.4-18.1-2.9
		c-3.3-2.6-4.6-6.1-3.5-10.2c1-3.9,4.2-5.2,7.7-5.8c1.8-0.3,3.6-0.5,5.4-0.8C177.7,326.8,177.7,326.6,177.8,326.5z M176.2,333.8
		c0,0.1-0.1,0.3-0.1,0.4c-0.5,0-1-0.1-1.4,0c-1,0.4-1.9,1-2.9,1.5c0.5,0.9,0.8,2,1.5,2.5c2.7,2.2,5.9,3.1,9.3,2.1
		c0.9-0.3,2-1.2,2.3-2.1c0.2-0.5-0.9-1.8-1.7-2.2C180.9,335.2,178.5,334.6,176.2,333.8z"/>
	<path d="M205.8,414.5c-1.6-0.1-3.5-0.4-3.8-2.7c-0.3-2.2,0.7-3.8,2.9-4.6c3.1-1.1,6.3-2,9.2-3.7c3.6-2.1,6.1-5.4,7.8-9.2
		c0.6-1.4,1.5-3,2.8-3.8c1-0.7,2.8-0.7,3.9-0.3c0.7,0.3,1.3,2.1,1.1,3.1C228.5,403.2,216.1,414.3,205.8,414.5z"/>
	<path class="st0" d="M143.7,282.3c-0.1-13.9,2.8-26.9,10.8-38.5c3.8-5.5,8.5-10,14.7-12.8c10.1-4.6,19.5-0.3,22.9,10.2
		c2.1,6.4,2.3,13,1.5,19.5c-1.9,15.5-4.9,30.8-9.7,45.8c-1,3-2.4,4.2-5.8,4.4c-9.2,0.5-18.4,1.7-27.5,2.8c-2,0.2-2-1.1-2.3-2.2
		C145.2,302.1,143.6,292.3,143.7,282.3z M184.2,261.5c-0.4-1.9-0.9-5.3-2.1-8.5c-2-5.1-6.5-6.9-11.4-4.6c-2.8,1.4-6,3.1-7.7,5.6
		c-7.2,10.3-10.5,21.7-8.4,34.3c1.1,6.7,6.3,10.3,12.5,9.1c3.9-0.8,6.6-3.1,8.7-6.5C180.9,282.3,183.3,272.9,184.2,261.5z"/>
	<path class="st0" d="M176.2,333.8c2.3,0.7,4.7,1.4,6.9,2.3c0.8,0.3,1.9,1.7,1.7,2.2c-0.3,0.9-1.4,1.8-2.3,2.1
		c-3.4,1-6.6,0.1-9.3-2.1c-0.7-0.6-1-1.7-1.5-2.5c0.9-0.5,1.9-1.1,2.9-1.5c0.4-0.2,0.9,0,1.4,0C176.2,334.1,176.2,334,176.2,333.8z"
		/>
	<path d="M184.2,261.5c-0.9,11.4-3.2,20.9-8.4,29.4c-2,3.3-4.8,5.7-8.7,6.5c-6.2,1.2-11.4-2.4-12.5-9.1c-2-12.6,1.3-24,8.4-34.3
		c1.7-2.5,4.9-4.2,7.7-5.6c4.9-2.3,9.4-0.5,11.4,4.6C183.3,256.1,183.7,259.6,184.2,261.5z M160.8,278.2c0.2,1.2,0.4,3.5,0.9,5.9
		c0.4,1.9,1.4,3.6,3.6,3.1c2.3-0.5,1.9-2.4,1.7-4.2c-0.8-7.8-1.6-15.5,5.8-21.1c0.7-0.5,0.9-2.7,0.4-3.5c-0.5-0.8-2.5-1.4-3.3-1
		c-1.7,0.8-3.5,2.1-4.5,3.6C162,265.8,160.9,271.3,160.8,278.2z"/>
	<path class="st0" d="M160.8,278.2c0.1-6.9,1.2-12.4,4.5-17.1c1.1-1.5,2.8-2.8,4.5-3.6c0.8-0.4,2.8,0.2,3.3,1c0.5,0.8,0.3,3-0.4,3.5
		c-7.4,5.6-6.6,13.3-5.8,21.1c0.2,1.7,0.6,3.7-1.7,4.2c-2.3,0.5-3.3-1.2-3.6-3.1C161.2,281.8,160.9,279.4,160.8,278.2z"/>
</g>
</svg>
