<?xml version="1.0" encoding="utf-8"?>
<!-- Generator: Adobe Illustrator 23.0.1, SVG Export Plug-In . SVG Version: 6.00 Build 0)  -->
<svg version="1.1" id="Layer_1" xmlns="http://www.w3.org/2000/svg" xmlns:xlink="http://www.w3.org/1999/xlink" x="0px" y="0px"
	 viewBox="0 0 520 470" style="enable-background:new 0 0 520 470;" xml:space="preserve">
<style type="text/css">
	.st0{fill-rule:evenodd;clip-rule:evenodd;fill:#FF4656;}
	.st1{fill:#FFFFFF;}
</style>
<g>
	<g>
		<g>
			<g>
				<path class="st0" d="M425.9,9.3H94.3C47.8,9.3,10.1,47,10.1,93.5v203.4c0,46.5,37.7,84.2,84.2,84.2h62.6
					C198.6,387,222,462,261.8,462c37.4,0,56.1-75,99.8-80.9h64.3c46.5,0,84.2-37.7,84.2-84.2V93.5C510.1,47,472.4,9.3,425.9,9.3z"/>
			</g>
		</g>
	</g>
	<g>
		<g>
			<path class="st1" d="M242.1,135.8c-17.8,0-33.4,12.3-33.4,12.3h-0.2c0,0-15.6-12.3-33.4-12.3c-34.9,0-54.2,39.7-34.9,70.9
				c11.4,20.1,37.7,44.3,60.8,56.1c1.8,0.9,4.7,1.4,7.5,1.4c2.9,0,5.8-0.5,7.5-1.4c23.1-11.8,49.5-36,60.8-56.1
				C296.3,175.4,277.1,135.8,242.1,135.8z"/>
		</g>
		<polygon class="st1" points="357.6,141.9 329.1,163.3 329.1,183.3 357.6,163.5 357.6,254.5 374.8,254.5 374.8,141.9 		"/>
	</g>
</g>
</svg>
