<?xml version="1.0" encoding="utf-8"?>
<!-- Generator: Adobe Illustrator 23.0.1, SVG Export Plug-In . SVG Version: 6.00 Build 0)  -->
<svg version="1.1" id="Layer_1" xmlns="http://www.w3.org/2000/svg" xmlns:xlink="http://www.w3.org/1999/xlink" x="0px" y="0px"
	 viewBox="0 0 523 438" style="enable-background:new 0 0 523 438;" xml:space="preserve">
<style type="text/css">
	.st0{fill:#7CDFFE;}
	.st1{fill:#F6D466;}
	.st2{fill:#EE566B;}
</style>
<g>
	<path class="st0" d="M222.7,309.1c-1.8-2.2-1-7.2-6.2-5.6c-0.6-3-2.3-4.1-5.1-4.4c-4-0.4-7.2-1.9-7.1-6.8c0-0.4-0.6-1.2-1-1.3
		c-6.6-2.6-10.9-8-16.2-12.3c-1-0.8-2.6-0.7-3.8-1c-2.6-3-5.2-5.9-7.8-9.1c-1.4-1.7-2.2-4.1-3.9-5.4c-3.1-2.4-5.6-5-8-8.2
		c-2.4-3.2-4.4-7.8-10-8.4c-3-0.3-6.2-2.3-8.4-4.5c-2.9-3-4.9-6.9-7.2-10.4c-0.1-0.1,0-0.3-0.1-0.3c-4.3-2.1-5.7-7.5-10.6-9
		c-0.3-0.1-0.9-0.1-1-0.3c-1.6-3.4-5-3.9-7.7-5.6c-1.9-1.2-2.9-4.2-3.8-6.6c-1.1-2.7-1.6-5.7-4.9-6.7c-0.1,0-0.3,0-0.3-0.1
		c-1.8-3-3.6-6-5.3-9.1c-1.8-3.3-3.3-6.9-6.6-9.3c-0.8-0.6-1.6-1.5-1.9-2.5c-1.6-6-3.2-12-4.7-18c-0.9-3.7-2-7.4-2.7-11.2
		c-0.5-2.8-0.7-5.6-0.6-8.4c0.2-5.9,0.6-11.8,1.1-17.7c0.1-1.6,0.8-3.3,1.7-4.7c4.2-6.8,8.4-13.5,12.9-20c1.8-2.5,4.4-4.5,6.8-6.5
		c4.7-4.1,9.4-8.3,14.4-12c2.8-2,6.3-3.2,9.6-4.5c2.9-1.1,5.8-2.2,8.8-2.8c6.1-1.2,12.1-3.6,18.6-1.3c2,0.7,4.7-0.4,6.8,0.2
		c4.5,1.3,9.7,2.2,13.1,5.1c3.4,2.9,8.9,4,10.2,9.4c0.1,0.6,1.2,1.3,1.9,1.4c5.6,1.3,7.5,6.1,9.6,10.5c0.9,1.9,1.5,3.1,3.8,4.1
		c2.3,1.1,3.7,4.3,5.5,6.7c0.8,1.1,1.4,2.4,2.1,3.6c0.8,1.6,1.5,3.2,2.4,4.7c2.1,3.6,4.4,7.2,6.5,10.8c0.9,1.6,2.7,3.5,2.4,4.9
		c-1,4.4,2.6,6,4.4,8.8c1.2,1.9,2.4,3.7,3.5,5.6c0.7,1.2,1.4,2.3,2.1,3.5c0.3,0.5,1,1,0.9,1.4c-0.9,5.7,2.1,9.4,5.5,13.5
		c2,2.5,3.2,6.4,5.1,9.5c1.8,3,4.3,4.3,7.6,3.5c3.2-0.7,6.3-1.8,9.3-3c0.9-0.4,1.7-1.6,2.2-2.6c1.1-2.1,1.6-4.6,3-6.4
		c1.8-2.4,4.3-4.2,6.8-6.6c-0.5-1.6-1.9-3.5,2.5-3.6c2,0,4-4.2,6.1-6.5c0.8-0.9,1.5-2,2.4-2.5c3.7-2,6.8-4.2,6.4-8.9
		c6.6-2.3,14.2-7.9,16.9-12.4c-0.7-0.4-1.4-0.8-3.1-1.7c2-0.2,3-0.3,4-0.5c0.8-0.1,2.1-0.2,2.3-0.6c1.5-3.6,4.8-3.5,7.8-4.4
		c1.3-0.4,2.4-1.5,3.5-2.4c0.6-0.4,1-1.4,1.5-1.5c5.4-0.6,8.7-5.1,13.3-7.2c0.8-0.3,1.8-0.9,2.4-0.6c3.8,1.7,4.9-2.8,7.9-3.2
		c0.4,0,0.4-2.3,0.6-3.6c3.3-0.4,6.5-0.7,9.8-1.2c1-0.1,2.1-0.5,3.1-0.9c4.6-2.1,9.2-1.9,13.9-0.4c2.1,0.7,4.5,0.5,6.7,1
		c2.4,0.5,4.9,1,7.1,2c10.2,4.7,15,14,19.1,23.5c1.9,4.4,1,9.9,2.7,14.4c1.5,4,0.7,7.8,1.3,11.6c0.3,1.8,1.6,3.5,1.6,5.3
		c0,3-0.7,6.1-0.9,9.1c-0.1,3,0.3,6,0.1,9c-0.3,3.8-0.2,7.8-1.6,11.2c-2.6,6.4-7,12.1-9,18.6c-2.4,7.9-8.4,12.7-12.5,19.1
		c-0.3,0.5-1.1,0.9-1.2,1.4c-1.4,7.4-9.5,8.6-13.2,13.9c-1.5,2.1-4.7,3.3-5.4,5.5c-1.3,3.6-6.3,4.3-6.1,8.7c0,0.2-0.5,0.7-0.7,0.7
		c-4.6,0.8-6.7,4.2-8.8,7.9c-0.8,1.4-2.8,2.1-4.1,3.3c-2.5,2.4-4.8,5-7.1,7.5c-3.7,4-6.6,8.8-12.1,10.9c-1,0.4-1.8,1.2-2.6,2
		c-3.4,3.4-6.5,7.1-10.1,10.2c-3.2,2.8-7,4.8-10.5,7.3c-1.4,1-2.5,2.3-3.9,3.1c-6.1,3.9-12.3,7.9-18.6,11.6
		c-2.6,1.5-5.9,1.7-8.3,3.4c-3.3,2.2-5.9,5.3-8.9,7.9c-2.1,1.8-4.3,3.5-6.5,5.1c-0.4,0.3-1.5,0.4-1.9,0.1c-3-2.2-5.8-4.8-8.8-6.9
		c-5.6-3.9-10.1-9.2-16.6-11.9c-1.2-0.5-2.5-1.7-3-2.9C231.5,309.7,228.7,308.1,222.7,309.1z M340.8,239.2c2.3-2.7,6.2-3.7,5.6-7.9
		c0-0.3,0.5-0.9,0.9-1.1c2.4-0.9,5-1.4,7.2-2.6c1.5-0.8,3.4-2.1,3.7-3.6c1.8-7.2,5.3-12.9,12.3-16.2c1.3-0.6,2.6-2.1,3.2-3.5
		c2.1-4.6,3.9-9.4,5.9-14.1c0.2-0.4,0.7-0.7,1-1c4.2-5.4,9.9-10.3,6.2-18.4c-2.2-4.9,1.4-9.6,0.1-14.9c-1.5-6.2-0.4-6.5-6.6-8.5
		c-0.7-0.2-1.4-0.4-2.1-0.7c-7.3-3.3-14.9-4.4-22.9-3c-2.1,0.4-4.3,0-6.5,0.1c-1.2,0-2.5-0.1-3.6,0.2c-3.4,1.1-6.8,2.3-10.1,3.8
		c-4.9,2.2-10,4.4-14.5,7.3c-5.4,3.5-10.4,7.7-15.5,11.6c-3.4,2.7-6.7,5.6-10.2,8.2c-4.3,3.3-4.4,3.2-1.7,7.5
		c-5.5,2.6-10.9,5.3-11.9,12.5c-1.8,1.2-4.2,2.4-6.1,4.2c-2.6,2.4-4.9,5.1-7.2,7.7c-2.2,2.5-4.3,5-6.5,7.5c-1.3,1.5-2.6,3.4-4.3,3.9
		c-1,0.3-2.9-1.6-4.1-2.8c-2.3-2.1-4.2-4.6-6.5-6.7c-1.2-1.1-3.1-1.4-4.3-2.4c-4.8-3.9-9.2-8.4-14.3-11.9c-3.9-2.8-8.2-5.7-13.6-4.5
		c-0.2-0.9-0.2-2.1-0.7-2.7c-2.2-2.1-4.5-4-7-5.8c-3.7-2.7-7.6-5.1-11.3-7.8c-1.7-1.3-2.8-3.7-4.6-4.4c-3.1-1.2-5.4-5-9.5-3.2
		c-0.3,0.1-1.1-0.8-1.7-1.2c-3.8-2.3-7.5-4.6-11.3-6.8c-0.6-0.4-1.7,0-2.5-0.2c-1.6-0.4-3.8-0.4-4.7-1.4c-1.4-1.6-3.3-2.2-4.6-3.4
		c-4.3-4.1-9.4-2.8-13.7-1.7c-5.2,1.2-9.9,4.5-14.8,7c-0.5,0.3-0.9,1.2-1.1,1.8c-0.6,2.8-1.5,5.5-1.6,8.3c-0.2,3.3-0.9,6.9,2,9.6
		c-2,2.5-1.6,6,0.8,8.1c1.3,1.1,3.1,2.2,3.4,3.6c1.1,5,5.3,7.2,8.3,10.4c0.5,0.5,1.1,1.7,0.9,2.1c-2.2,3.2,0.5,3.8,2.4,4.4
		c2.4,0.8,3.9,1.8,4,4.7c0.1,2.4,1.2,4.2,4.5,3.9c1.9-0.2,4.3,0.9,5.9,2.1c2.6,2,4.5,5.1,8.5,5.1c0.7,0,1.5,1.1,2.2,1.7
		c2.6,2.3,4.9,5.7,7.9,6.5c3.5,1,6,2.6,8.5,4.8c1.2,1.1,3,1.6,3.9,2c1.4,1.9,2.3,3.6,3.6,4.8c2.7,2.5,5.8,4.6,8.5,7
		c1.1,1,1.8,2.6,3,3.4c5.4,3.5,11.2,6.4,15.3,11.8c2,2.6,3.8,6.2,7.9,6.9c0.9,0.2,1.6,1.7,2.3,2.7c1.9,3,3.7,6,7.7,6.4
		c0.4,0.1,0.9,0.4,1.2,0.7c2.9,3.3,5.5,7,9.6,9.1c2.4,1.2,4.3,3.2,6.4,5c1.6,1.3,4,2.4,1.9,5.2c-0.3,0.4,0,1.4,0.3,2
		c1.8,4.2,7.4,6.8,11.5,4.9c3.1-1.4,5.9-3.7,8.5-5.3c0.5-1.5,0.5-3,1.2-3.7c4.4-4.3,9.3-7.8,15.8-8.9c1.8-0.3,3.4-2.9,4.8-4.7
		c0.7-0.9,0.7-2.3,1.1-3.4c1.6-4.6,4.3-5.7,8.3-3.6c1.8-1.7,3.3-4.4,5.3-4.7c4-0.6,4.6-2.9,4.4-6.5c3.9,1.1,4.4-1.6,4.9-4.2
		c0.6-3.2,1.9-5.5,5.5-6.3c1.7-0.4,3.6-1.9,4.6-3.4c1-1.6,1.5-2.9,3.6-2.8c0.6,0,1.5-0.4,1.9-0.9c2-2.6,3.9-5.3,6-8.2
		C342.6,240.3,341.8,239.8,340.8,239.2z"/>
	<path d="M340.8,239.2c1,0.6,1.7,1.1,2.6,1.7c-2.1,2.8-4,5.6-6,8.2c-0.4,0.5-1.2,0.9-1.9,0.9c-2.1-0.1-2.7,1.2-3.6,2.8
		c-0.9,1.5-2.8,3-4.6,3.4c-3.6,0.8-4.9,3.2-5.5,6.3c-0.5,2.6-1,5.3-4.9,4.2c0.2,3.7-0.4,5.9-4.4,6.5c-1.9,0.3-3.5,3-5.3,4.7
		c-4-2-6.7-0.9-8.3,3.6c-0.4,1.1-0.4,2.6-1.1,3.4c-1.4,1.8-3,4.3-4.8,4.7c-6.4,1.1-11.3,4.6-15.8,8.9c-0.8,0.8-0.8,2.3-1.2,3.7
		c-2.6,1.7-5.3,3.9-8.5,5.3c-4.1,1.9-9.7-0.8-11.5-4.9c-0.3-0.6-0.6-1.7-0.3-2c2.1-2.8-0.3-3.9-1.9-5.2c-2.1-1.7-4.1-3.7-6.4-5
		c-4.1-2.2-6.7-5.8-9.6-9.1c-0.3-0.3-0.8-0.6-1.2-0.7c-4-0.5-5.8-3.5-7.7-6.4c-0.6-1-1.4-2.5-2.3-2.7c-4.1-0.7-5.9-4.2-7.9-6.9
		c-4.1-5.4-9.9-8.3-15.3-11.8c-1.2-0.8-1.9-2.4-3-3.4c-2.8-2.4-5.8-4.6-8.5-7c-1.3-1.2-2.2-2.9-3.6-4.8c-0.9-0.5-2.7-0.9-3.9-2
		c-2.5-2.3-5-3.9-8.5-4.8c-3-0.9-5.3-4.3-7.9-6.5c-0.7-0.6-1.5-1.7-2.2-1.7c-3.9,0-5.8-3-8.5-5.1c-1.6-1.2-4-2.3-5.9-2.1
		c-3.3,0.3-4.4-1.5-4.5-3.9c-0.1-2.9-1.6-3.9-4-4.7c-2-0.6-4.6-1.2-2.4-4.4c0.2-0.3-0.4-1.5-0.9-2.1c-3.1-3.2-7.2-5.4-8.3-10.4
		c-0.3-1.4-2.2-2.5-3.4-3.6c-2.5-2.1-2.9-5.6-0.8-8.1c-2.9-2.7-2.2-6.3-2-9.6c0.2-2.8,1-5.6,1.6-8.3c0.2-0.7,0.5-1.6,1.1-1.8
		c4.9-2.5,9.6-5.7,14.8-7c4.3-1,9.4-2.3,13.7,1.7c1.3,1.2,3.2,1.8,4.6,3.4c0.9,1.1,3.1,1,4.7,1.4c0.8,0.2,1.8-0.1,2.5,0.2
		c3.8,2.2,7.5,4.5,11.3,6.8c0.6,0.4,1.4,1.3,1.7,1.2c4.1-1.8,6.4,2,9.5,3.2c1.8,0.7,2.9,3.1,4.6,4.4c3.7,2.7,7.6,5.1,11.3,7.8
		c2.4,1.8,4.8,3.7,7,5.8c0.6,0.5,0.5,1.7,0.7,2.7c5.4-1.2,9.7,1.7,13.6,4.5c5.1,3.6,9.5,8,14.3,11.9c1.3,1,3.1,1.4,4.3,2.4
		c2.3,2.1,4.3,4.5,6.5,6.7c1.2,1.2,3.1,3.1,4.1,2.8c1.7-0.5,3-2.5,4.3-3.9c2.2-2.5,4.3-5,6.5-7.5c2.3-2.6,4.6-5.3,7.2-7.7
		c1.9-1.7,4.3-3,6.1-4.2c1-7.2,6.5-9.9,11.9-12.5c-2.7-4.3-2.6-4.2,1.7-7.5c3.5-2.6,6.7-5.6,10.2-8.2c5.1-4,10.1-8.2,15.5-11.6
		c4.5-2.9,9.6-5.1,14.5-7.3c3.3-1.5,6.7-2.6,10.1-3.8c1.1-0.4,2.4-0.2,3.6-0.2c2.2,0,4.4,0.3,6.5-0.1c8-1.4,15.6-0.3,22.9,3
		c0.7,0.3,1.4,0.5,2.1,0.7c6.2,2,5.1,2.3,6.6,8.5c1.3,5.3-2.3,10-0.1,14.9c3.7,8.1-2,13-6.2,18.4c-0.3,0.4-0.8,0.6-1,1
		c-2,4.7-3.8,9.5-5.9,14.1c-0.6,1.4-1.9,2.9-3.2,3.5c-6.9,3.3-10.5,9-12.3,16.2c-0.4,1.4-2.2,2.8-3.7,3.6c-2.3,1.1-4.8,1.7-7.2,2.6
		c-0.4,0.1-0.9,0.7-0.9,1.1C347,235.5,343.2,236.5,340.8,239.2z M337.6,222.9c3.1-4.7,5.2-9.6,8.8-12.9c5.5-5,9.7-10.8,13.8-16.7
		c1.5-2.1,2.8-4.5,3.5-6.9c1.6-5.3,2.1-10.9,4.2-16c2-4.9,0.1-9-0.4-13.3c-3.9-1.1-7.7,2.2-11.3-0.7c-0.2-0.2-1.2,0.6-1.8,0.8
		c-1,0.4-2,0.7-3,0.9c-1.7,0.4-3.6,0.3-5,1.1c-4.7,2.8-9,6.5-15.1,5.2c0.3,3.5-1.7,5.6-5.5,7.3c-1.9,0.9-3.3,3-4.9,4.6
		c-1.3,1.2-2.5,2.5-3.9,3.4c-0.8,0.6-2.5,0.3-3,1c-1.7,2.2-3.3,2.8-5.7,0.7c0.4,1.1,0.7,2.1,0.8,2.3c-1.9,2.9-3.4,5.3-5,7.5
		c-0.8,1-2,2.5-3,2.5c-5.1,0-6.6,4-8.9,7.2c-2.1,3-4.5,5.8-6.8,8.6c-4.4,5.3-11.6,8.5-12.3,16.6c0,0.4-0.4,0.9-0.8,1.2
		c-3.2,2.1-6.3,4.3-9.5,6.4c-0.4,0.3-0.9,0.4-1.3,0.5c-2.8,0.3-5.7,1-8.5,0.8c-3.5-0.3-7.3-0.5-9.4-4.3c-2.6-4.8-6-8.7-11.4-10.6
		c-2-0.7-3.4-2.8-5.1-4.1c-2.9-2.2-4.4-6.1-9.2-6.2c-2.3,0-5-1.5-5.2-5.4c-0.1-1.6-3-3.3-4.9-4.7c-1-0.8-2.4-1-3.6-1.5
		c-2-0.8-4.2-1.5-6.1-2.6c-2.4-1.5-5-3-6.8-5.1c-1.3-1.5-2-2.8-4.3-3.1c-3.9-0.5-4.6-1.8-3.3-5.5c-4.4-1.4-6.8-6.6-12.5-5.8
		c-1,0.1-2.3-1.8-3.6-2.6c-2.3-1.5-3.2-5.9-6.9-4.3c-2.7,1.2-4.8,0.8-7.3,0.2c-2.2-0.5-4.5-1.1-6.8-1.3c-2.9-0.3-5.7,3.1-4.8,5.9
		c1.3,3.8,2.8,7.7,4.5,11.3c1.1,2.3,2.4,4.7,4.2,6.6c2.3,2.5,5.2,4.5,7.9,6.7c2,1.6,2.9,3.2,0.3,5.3c1.4,0.4,3,0.4,3.2,0.9
		c1.5,3.5,4.6,3.8,7.7,4.5c4.4,0.9,6.1,3.3,5.4,7c1.6,0.6,3.8,0.8,4.6,2c2.8,4,7.7,4.2,11.5,5.3c4.7,1.4,8.2,4.2,11.6,6.9
		c3.5,2.9,7.9,5.6,8.8,10.9c0.1,0.5,1.3,1.1,2,1.2c3.1,0.6,5,2.1,4.9,5.7c2,0.5,5.3-0.3,3.5,3.7c2.3,0.4,4.9-0.2,5.2,3.3
		c0.1,1.4,1.9,2.9,3.2,4c4.3,3.6,8.6,6.9,13,10.4c1.2,1,2.4,2.3,3.8,2.8c3.6,1.4,5.5,3.8,6.3,7.7c2.8-1.2,4.6-0.5,6.7,1.8
		c2.5,2.8,6,4.8,9.2,7c0.4,0.3,1.7-0.2,2.3-0.7c4.7-4,9.4-8.1,14.1-12.2c2.8-2.4,6-3.5,9.9-3.9c-1.6-6.1,4.5-8.4,7.6-12.2
		c4.9-6,11.1-10.9,16.3-16.7c2.2-2.5,4.4-5,6.2-8c2.3-4.1,6.9-6.8,9-11.4C335.1,223,337,223,337.6,222.9z"/>
	<path class="st1" d="M337.6,222.9c-0.5,0.2-2.4,0.2-2.8,0.9c-2.1,4.6-6.7,7.4-9,11.4c-1.8,3.1-4,5.6-6.2,8
		c-5.2,5.8-11.4,10.7-16.3,16.7c-3.1,3.8-9.2,6.1-7.6,12.2c-3.9,0.5-7.1,1.5-9.9,3.9c-4.7,4.1-9.4,8.2-14.1,12.2
		c-0.6,0.5-1.9,1-2.3,0.7c-3.2-2.2-6.7-4.2-9.2-7c-2.1-2.3-3.9-3.1-6.7-1.8c-0.7-3.8-2.7-6.3-6.3-7.7c-1.4-0.5-2.5-1.8-3.8-2.8
		c-4.3-3.4-8.7-6.8-13-10.4c-1.3-1.1-3.1-2.6-3.2-4c-0.3-3.5-2.9-2.9-5.2-3.3c1.7-3.9-1.6-3.2-3.5-3.7c0.1-3.6-1.8-5.1-4.9-5.7
		c-0.8-0.1-2-0.7-2-1.2c-0.9-5.3-5.2-8-8.8-10.9c-3.4-2.7-6.9-5.5-11.6-6.9c-3.8-1.1-8.6-1.2-11.5-5.3c-0.8-1.2-3-1.4-4.6-2
		c0.7-3.7-1-6.1-5.4-7c-3.1-0.6-6.2-0.9-7.7-4.5c-0.2-0.6-1.8-0.6-3.2-0.9c2.6-2,1.7-3.7-0.3-5.3c-2.7-2.2-5.5-4.2-7.9-6.7
		c-1.8-1.9-3.1-4.2-4.2-6.6c-1.7-3.7-3.2-7.5-4.5-11.3c-1-2.8,1.8-6.2,4.8-5.9c2.3,0.2,4.5,0.8,6.8,1.3c2.5,0.6,4.6,1,7.3-0.2
		c3.6-1.7,4.5,2.8,6.9,4.3c1.3,0.8,2.5,2.7,3.6,2.6c5.7-0.8,8.1,4.5,12.5,5.8c-1.3,3.7-0.6,5,3.3,5.5c2.3,0.3,3,1.6,4.3,3.1
		c1.8,2.1,4.3,3.6,6.8,5.1c1.9,1.1,4,1.8,6.1,2.6c1.2,0.5,2.6,0.7,3.6,1.5c1.8,1.4,4.8,3.1,4.9,4.7c0.1,3.9,2.9,5.4,5.2,5.4
		c4.8,0,6.3,3.9,9.2,6.2c1.8,1.3,3.2,3.4,5.1,4.1c5.4,2,8.8,5.8,11.4,10.6c2.1,3.8,5.9,4,9.4,4.3c2.8,0.3,5.7-0.5,8.5-0.8
		c0.5-0.1,1-0.2,1.3-0.5c3.2-2.1,6.4-4.2,9.5-6.4c0.4-0.2,0.8-0.7,0.8-1.2c0.7-8.1,7.9-11.3,12.3-16.6c2.3-2.8,4.7-5.6,6.8-8.6
		c2.3-3.3,3.8-7.3,8.9-7.2c1,0,2.2-1.4,3-2.5c1.7-2.2,3.1-4.6,5-7.5c0-0.1-0.4-1.2-0.8-2.3c2.3,2.1,4,1.5,5.7-0.7
		c0.5-0.7,2.2-0.5,3-1c1.4-1,2.6-2.2,3.9-3.4c1.6-1.5,3-3.7,4.9-4.6c3.8-1.8,5.8-3.8,5.5-7.3c6.1,1.3,10.4-2.3,15.1-5.2
		c1.4-0.8,3.3-0.7,5-1.1c1-0.2,2-0.6,3-0.9c0.7-0.2,1.6-1,1.8-0.8c3.6,2.9,7.5-0.4,11.3,0.7c0.5,4.4,2.4,8.5,0.4,13.3
		c-2.1,5.1-2.6,10.7-4.2,16c-0.7,2.4-2.1,4.8-3.5,6.9c-4.1,6-8.3,11.8-13.8,16.7C342.8,213.3,340.7,218.2,337.6,222.9z"/>
	<g>
		<path class="st2" d="M258.2,420.1c-2.2-3.7-6.2-5.5-9.3-6.7c-0.7-0.7-1.5-1.5-2.2-2.3c-2.4-2.4-4.8-5-7.4-7.4
			c-1.6-1.6-3.4-2.6-4.6-3.3c-0.4-0.3-1-0.6-1.2-0.7c-2-1.7-4-3.5-6.3-5.5c-1-0.9-2-1.8-3-2.7c-0.8-0.8-1.7-1.4-2.7-1.9c0,0,0,0,0,0
			c-1.7-2.1-3.5-4.2-5.7-6.2c-2.6-2.4-5.3-4.6-7.9-6.7c-2.4-2-4.7-3.9-6.9-5.8c-0.8-0.7-1.7-1.9-2.7-3.1c-0.6-0.7-1.2-1.5-1.8-2.2
			c-0.7-0.8-1.4-1.7-2.1-2.5c-1.3-1.5-2.5-3-3.8-4.5c-2-2.3-5-3.8-8-3.9c-0.3-0.4-0.7-0.8-1.2-1.1c-2.9-2.6-5.6-5.5-8.5-8.6
			c-1.4-1.5-2.7-3-4.1-4.4l-0.2-0.3c-0.9-1-2.6-2.7-5.1-3.9c-0.2-0.5-0.4-1.1-0.6-1.6c-0.2-0.5-0.3-0.9-0.5-1.4
			c-1-2.7-3.1-8.4-9-11.8c-2.2-4.3-5.6-6.8-8.1-8.7c-0.8-0.6-1.5-1.1-2.1-1.6c-1.1-1.1-2.3-3-3.6-5.1c-0.5-0.9-1.1-1.8-1.7-2.7
			c-0.9-1.8-2.2-3.1-3.7-4c-1.2-3.8-3.9-6.3-5.5-7.6c-0.7-1.1-2.3-3.3-5.2-4.9c-1.4-5.8-5.9-8.7-7.7-9.8c-0.2-0.1-0.3-0.2-0.5-0.3
			c-0.1-0.1-0.2-0.2-0.3-0.3c-1.7-4.4-4.8-7.4-6.5-9c-0.8-0.8-1.7-1.6-2.5-2.4c-0.6-0.6-1.2-1.2-1.8-1.8c-0.5-0.5-1-1-1.5-1.4
			c-0.1-2.4-1.2-4.8-2.9-6.5l-6.8-6.7c-1.1-1-2.3-1.8-3.7-2.3c-0.4-0.3-0.9-0.8-1.3-1.1c-1-0.9-2-1.8-3.2-2.6
			c-0.1-0.1-0.1-0.1-0.2-0.2c-1-1.3-2-2.6-2.8-3.8c-1.5-2.3-2.7-4.3-3.6-6.3c-1.5-3.1-4.2-5.7-10.4-11.2c-2.5-2.3-6.7-6-8-7.7
			c-1.3-3-3-5.4-4.4-7.4c-0.5-0.8-1.1-1.5-1.5-2.1c-0.1-0.1-0.1-0.2-0.2-0.2c-0.6-4.9-3.7-8-5.1-9.5l-0.4-0.4
			c-0.8-0.9-1.7-1.6-2.4-2.3c-0.5-0.5-1.3-1.2-1.7-1.6c-0.5-3.2-2.3-5.7-5.3-7.6c0-0.1-0.1-0.2-0.1-0.2c-0.9-1.7-1.7-3.2-2.2-4.5
			c-0.9-2.4-2.1-4.2-3-5.8c-0.3-0.4-0.6-1-0.9-1.4c0.8-4.1-0.6-8-3.5-10.4c-0.6-2.2-2-5.6-5.5-7.8l0-0.5c-0.1-1.4-0.4-2.5-0.7-3.6
			c0-0.1,0-0.2-0.1-0.3c0-0.3,0-0.7,0-1c-0.1-1.7-0.5-3-1.1-4.2c0.2-0.4,0.4-0.9,0.5-1.3c1.5-3.9,0.7-7.3-0.9-9.7
			c0-0.2,0-0.5-0.1-0.7c0.2-0.2,0.3-0.4,0.5-0.6c2.7-3.6,2.2-6.5,1.1-12.8c-0.4-2.4-1.3-7.5-1.5-9.9c1.2-2.7,4-8.5,5.2-10.5
			c0.8-0.9,1.5-2,1.9-3.2l3-8.4c0.7-1.9,0.8-3.9,0.3-5.9c2-1.5,3.5-3.7,4-6.3c0.2-0.8,0.3-1.7,0.4-2.6c0.2-1.2,0.4-2.3,0.6-3
			c0.8-0.6,1.8-1.2,3-1.8c0.9-0.5,2-1.1,3-1.7c2.4-1.5,4.7-4.3,5.4-7.6c0.2-0.1,0.4-0.3,0.6-0.5c2.8-2.3,5.5-4.7,8.2-7
			c2.9-2.5,5.9-5.1,8.8-7.5c0.3-0.1,0.9-0.4,1.3-0.5c0.5-0.2,1.1-0.4,1.6-0.6c1.1-0.5,2.1-0.9,3-1.4c1.1-0.5,2.8-1.3,3.3-1.4
			c3-0.4,5.3-1.5,7.1-2.3c0.1-0.1,0.3-0.1,0.4-0.2c1.3,0.5,2.7,0.8,4.2,0.8c1.8,0,5.2-0.4,8-3.1c0.9-0.8,2.9-1.4,5.1-2.1
			c2.3-0.7,5.1-1.5,7.8-3c0.5,0,1.2-0.1,1.9-0.2c1.6-0.3,3.2-0.9,4.5-1.9c0.4,0,0.8,0,1.2,0c2.2,0,4-0.5,5.3-0.9
			c0.3-0.1,0.5-0.2,0.8-0.2c1.7-0.2,3.5-0.5,5.1-0.8c3.5-0.6,6.9-1.2,9.8-1.2l0.4,0c1.2,0,3.3,0.8,5.3,1.5c1.2,0.4,2.5,0.9,3.8,1.3
			c0.9,0.4,2.6,1.1,4.8,1.1c1.2,0,2.4-0.2,3.5-0.6c0.6,0.1,1.8,0.5,2.7,0.8c1.2,0.4,2.6,0.9,4.2,1.3c4.3,1,8.5,1.7,12.6,2.4
			c2.5,0.4,4.9,0.8,7.2,1.3c0.9,0.2,2,0.5,3.2,0.9c1,0.3,2,0.6,3.1,0.9c1,0.3,1.9,0.4,2.6,0.4c0.5,0.2,1.1,0.5,1.7,0.8l0.5,0.2
			c0.2,0.1,0.4,0.3,0.6,0.4c1.7,1.1,4.5,2.9,8.4,2.9c0.4,0,0.9,0,1.3-0.1c0.2,0.1,0.4,0.2,0.5,0.3c1.8,0.9,3.4,1.8,5.1,2.6
			c3.5,1.8,6.9,3.4,9.6,5.4c1.9,1.4,3.8,3.5,5.8,5.8c1.2,1.3,2.4,2.7,3.7,4.1c0.9,0.9,1.7,1.6,2.4,2.2c0.3,0.3,0.7,0.6,0.9,0.8
			c0.3,0.3,0.8,0.9,1.4,1.6c0.4,0.5,0.8,1,1.3,1.6c1.2,1.4,2.6,2.4,4.3,3c0.1,0.1,0.1,0.3,0.2,0.5c1.8,6.4,5.1,11.6,10.3,16.1
			c0.1,0.2,0.2,0.4,0.3,0.6c0.2,0.4,0.4,0.9,0.6,1.4c0.1,0.3,0.2,0.6,0.4,0.8c2.6,5,10.3,7.8,14.6,7.8c0.5,0,0.9,0,1.4-0.1
			c6-0.6,8.8-5.6,10-7.8c0.1-0.2,0.2-0.5,0.4-0.7c0.6-1,1-1.9,1.3-2.7c1.4-1.8,3-3.4,3.8-4l0.1,0c3.7-1,9.7-2.6,13.7-8.5
			c1.3-0.5,2.6-1,4-1.5c3.1-1.2,6.4-2.4,9.6-3.9c4.8-2.2,8.5-5.5,11.1-9.8c0.3-0.2,0.9-0.5,1.9-0.9c0.4-0.1,1.7-0.2,2.6-0.2
			c0.9,0,1.9-0.1,3-0.2c1.7-0.2,3.3-0.8,4.7-1.7l2.5-1.7c1.7-1.2,3.5-2.4,5.3-3.7c0.1,0,0.1,0,0.2,0c6.1,0,19.6-3.4,27.5-10
			c0.6,0,1.2,0,1.9,0l5.2,0c2.2,0,4.2-0.7,5.9-1.9c1,0.1,2.1,0.2,3.2,0.2c3.1,0,6.2-0.6,9.4-1.8c1-0.4,2-0.8,2.9-1.2
			c2.3-1,4.4-1.9,5.9-1.9c0.3,0,0.6,0,0.9,0.1c3.8,1.1,7.5,1.2,10.4,1.2c0.8,0,1.7,0,2.5,0.1c1.8,0.1,3.6,0.1,5.4,0.1
			c2.9,0,5.7,0.1,8.2,0.4c4,0.5,8.1,1.7,11.2,2.7c5.4,1.7,10.3,3.3,14.6,5.4c0.6,0.3,1.9,1.5,2.9,2.4c1,0.9,2,1.9,3.3,2.9
			c2,1.6,4.1,3,5.7,4c4.8,3.1,8.5,6.9,11.2,11.5c1.3,2.1,2.6,4,3.9,5.8c1.3,1.9,2.6,3.6,3.5,5.3c1.3,2.4,2.5,5,3.7,7.7
			c2.1,4.6,4.2,9.3,7.2,13.9c2,3.1,2.8,6.6,3.4,12c0.5,4.2,0.5,8.7,0.6,13.3c0,1.8,0.1,3.7,0.1,5.5c0.1,3-0.2,5.2-0.8,7.4
			c-0.8,2.8-0.8,5.5-0.7,7.6c0,0.9,0,2.2-0.1,2.6c-0.4,1.6-0.4,3.1-0.5,4.1c0,0.3,0,0.8-0.1,0.9c-0.2,1-0.4,2-0.5,3
			c-0.6,3.6-1.2,7-2.1,10.2c-0.5,1.9-1.3,3.9-2.1,6.1c-0.6,1.5-1.2,3-1.7,4.6c-0.7,1.9-0.7,3.6-0.8,4.6l0,0.1c0,0.1,0,0.1,0,0.2
			c-4.4,4.2-7,9.1-9.3,13.6c-0.8,1.5-1.5,2.9-2.3,4.2c-1.6,2.6-3.1,5.3-4.6,7.9c-2.4,4.2-4.7,8.2-7.1,12.1c-1.7,2.7-3.7,5.3-5.7,8.1
			c-1.9,2.6-3.9,5.3-5.8,8.2c-2,3-3.8,6.1-5.6,9.1c-2.4,3.9-4.6,7.7-7,11.2c-0.6,0.8-1.1,1.6-1.7,2.4c-2.4,3.5-4.4,6.5-7.1,7.9
			c-4.6,2.4-8.3,7.5-9,12.4c-0.3,0.2-0.9,0.7-2.4,1.5c-7.9,4.5-12.6,11.3-15.8,16.7c-0.3,0.5-1.3,1.4-2,2.2
			c-0.8,0.8-1.6,1.6-2.5,2.6c-0.6,0.7-1.2,1.4-1.8,2.1c-2.1,2.3-4.2,4.7-6.2,7.5c-1.5,2-2.7,4-3.9,5.9c-1.3,2.1-2.6,4.1-3.9,5.8
			c-1.1,1.4-2.7,2.8-4.4,4.3c-1.1,1-2.2,2-3.4,3.1l-0.7,0.7c-1.7,1.6-3.5,3.4-5.2,5.6c-2.4,3.1-5.6,5.9-9.1,8.8
			c-1.3,1.1-2.6,2.2-3.9,3.4c-0.5,0.4-1.3,1-2.1,1.5c-2.7,1.9-6.5,4.5-8.9,9.4c-0.3,0.3-0.7,0.6-1.1,0.9l-3.3,2.9
			c-3.1,2.7-6.3,5.6-9.4,8.4l-1.5,1.3c-4.3,3.9-8.8,8-13.1,12.2c-1.8,1.8-3.1,3.6-4.2,5.2c-4.8,1.3-7.7,4.4-9.5,6.3
			c-0.4,0.4-0.9,1-1.2,1.2c-1.2,0.9-2.7,1.7-4.3,2.7c-1.6,0.9-3.5,2-5.3,3.2c-2.3,1.6-3.9,3.4-5.2,4.9c-0.3,0.3-0.6,0.7-0.9,1
			c-0.1,0.1-0.2,0.2-0.3,0.3c-3.7,1.5-6.5,3.7-8.4,5.3c-3.3,2.9-7,5.6-9.9,7.6l-0.4,0.3c-2.1,1.5-4.4,3.1-5.6,3.1
			c-0.1,0-0.3,0-0.4,0c-0.8-0.2-1.7-0.2-2.5-0.2c-1.8,0-3.2,0.4-4,0.5C258.3,420,258.2,420.1,258.2,420.1z M225.1,319.8
			c1.6,3.3,4.7,6.2,8.2,7.6c2.8,1.1,5.4,3.4,8.4,5.9c1.9,1.6,3.9,3.3,6.2,4.9c1.5,1,2.9,2.2,4.5,3.5c1.3,1.1,2.6,2.1,4.1,3.2
			c1.9,1.4,4.3,2.2,6.8,2.2c2.5,0,5-0.8,7-2.2c2.9-2.1,5.2-3.9,7.3-5.7c1.3-1.1,2.5-2.2,3.6-3.3c1.5-1.5,3-2.9,4.4-3.8
			c0.3-0.2,1.2-0.4,1.8-0.6c1.7-0.5,3.8-1.2,6-2.5c5.6-3.3,11.1-6.8,16.5-10.3l2.5-1.6c1.4-0.9,2.5-1.9,3.4-2.6
			c0.3-0.3,0.7-0.6,0.9-0.7c1.1-0.7,2.2-1.5,3.4-2.3c2.4-1.6,5.2-3.4,7.8-5.6c2.8-2.4,5.2-4.9,7.5-7.4c1.1-1.2,2.2-2.3,3.2-3.3
			c0,0,0,0,0.1-0.1c6-2.6,9.6-6.9,12.6-10.4c0.8-0.9,1.5-1.8,2.2-2.6l1.3-1.4c1.8-1.9,3.5-3.8,5.2-5.5c0.1-0.1,0.2-0.2,0.4-0.2
			c1.5-0.9,4-2.5,5.7-5.6c0.3-0.6,1.3-2.3,1.9-2.9c3.9-0.7,7.6-3.9,8.7-8.2c1.5-1.2,3.6-3.1,5.1-6c0.1-0.1,0.2-0.1,0.2-0.2
			c1.3-1,3.2-2.5,4.7-4.7c0.4-0.6,1.9-1.6,3.1-2.4c3.5-2.3,8.5-5.7,10.8-12.3c0.2-0.2,0.3-0.5,0.5-0.7c1.1-1.7,2.5-3.4,4-5.3
			c3.6-4.4,7.6-9.3,9.7-16.4c0.8-2.7,2.4-5.6,4.1-8.6c1.6-2.8,3.2-5.8,4.6-9.1c1.7-4.3,2-8.7,2.2-12.2c0-0.7,0.1-1.3,0.1-2
			c0.2-2.2,0.1-4.2,0-5.9c0-1.2-0.1-2.4,0-3.3c0-0.9,0.2-2,0.3-3.1c0.3-1.9,0.6-4.2,0.5-6.6c0-2.9-1-5.3-1.6-6.7
			c-0.1-0.1-0.1-0.3-0.2-0.4c-0.1-0.7-0.1-1.7-0.1-2.7c-0.1-2.9-0.2-6.4-1.6-10.4c-0.3-0.9-0.5-2.7-0.6-4.4c-0.3-3-0.6-6.8-2.2-10.6
			c-4.6-10.6-10.6-22.4-24.1-28.7c-3.2-1.5-6.3-2.1-9-2.7l-0.3-0.1c-1.6-0.3-3-0.4-4.1-0.5c-0.6,0-1.4-0.1-1.7-0.2
			c-3.4-1.1-6.6-1.6-9.8-1.6c-3.9,0-7.6,0.8-11.2,2.4c-0.2,0.1-0.3,0.1-0.4,0.1c-3.5,0.5-7.4,2.4-12.5,5.2c0,0,0,0-0.1,0
			c-1.9,0.6-3.5,1.6-4.6,2.5c-2.7,0-4.8,1-6,1.5l-0.2,0.1c-2.7,1.2-4.9,2.8-6.7,4.1c-1.4,1-2.9,2.2-3.7,2.2
			c-2.9,0.3-5.4,1.8-7.4,4.3c-0.1,0.1-0.2,0.2-0.3,0.2c-0.1,0-0.1,0-0.2,0c-2.5,0.6-8,1.7-11.5,6.9c-1.5,1.1-3.6,2.7-4.7,5.2
			c-3.5,4.1-15.7,14.9-19,16.9c-2.5,1.3-4,3.2-4.8,4.3c-0.1,0.1-0.2,0.2-0.3,0.4c-1,1.2-1.9,2.4-2.6,3.5c0,0-0.1,0.1-0.1,0.1
			c-3,0.7-5.4,2.3-7,4.7c-0.9,1.4-1.5,2.8-1.8,4.4c-1.4,1.3-2.9,2.7-4.2,4.5c-1.8,2.3-2.7,4.6-3.4,6.4c-0.1,0.1-0.1,0.3-0.2,0.4
			c-1,0.4-2.1,0.7-3,1c-0.2-0.5-0.4-0.9-0.7-1.4c-1.1-2.4-2.3-5.1-4.3-7.5c-3.1-3.8-3.5-4.7-3.4-5.7c0.5-3.1-0.4-6-2.6-8.7
			c-0.2-0.3-0.4-0.6-0.6-1c-0.4-0.7-0.8-1.4-1.3-2.1c-0.7-1.2-1.5-2.4-2.3-3.6l-1.3-2.1c-0.9-1.5-2-2.6-2.8-3.5
			c0.1-4.2-2-7.4-3.3-9.2c-0.2-0.2-0.3-0.5-0.5-0.7c-1.1-1.9-2.2-3.7-3.3-5.6c-1.1-1.7-2.1-3.5-3.1-5.2c-0.3-0.6-0.7-1.3-1.1-2.1
			c-0.4-0.8-0.7-1.5-1.1-2.2l-0.3-0.5c-0.6-1.2-1.4-2.8-2.6-4.3c-0.3-0.4-0.6-0.9-1-1.5c-1.5-2.3-3.6-5.8-7.4-7.9
			c-0.2-0.3-0.3-0.7-0.5-1c-1.9-4-5-10.4-12.1-13.5c-2.6-4.7-6.8-7.1-9.5-8.7c-0.8-0.5-1.7-1-2.1-1.3c-4.5-3.8-10-5.3-14.4-6.5
			c-0.8-0.2-1.6-0.4-2.4-0.7c-1.4-0.4-2.8-0.6-4.4-0.6c-1,0-1.9,0.1-2.6,0.1c-0.1,0-0.2,0-0.3,0c-2.6-0.8-5.3-1.2-8.1-1.2
			c-4.3,0-8.1,0.9-11.5,1.7c-1.1,0.3-2.1,0.5-3.2,0.7c-3.9,0.8-7.5,2.1-10.5,3.3c-0.5,0.2-1.1,0.4-1.6,0.6
			c-3.2,1.2-6.8,2.6-10.2,5.1c-4.4,3.2-8.4,6.7-12.2,10c-1,0.8-1.9,1.7-2.9,2.5c-0.5,0.4-0.9,0.8-1.4,1.2c-2.2,1.8-4.9,4.1-7.1,7.2
			c-4.4,6.4-8.5,12.9-12.5,19.3l-0.7,1.2c-1.7,2.8-2.9,6-3.1,9.1c-0.6,6.5-1,12.5-1.2,18.3c-0.1,3.5,0.1,7,0.8,10.5
			c0.6,3.2,1.4,6.3,2.2,9.3c0.2,0.9,0.5,1.7,0.7,2.6l0.5,2c1.3,5.3,2.7,10.8,4.2,16.2c0.9,3.1,2.9,6,5.7,8c0.7,0.5,1.6,2.1,2.5,3.9
			c0.4,0.7,0.7,1.4,1.1,2.1c1.3,2.4,2.7,4.7,4.1,7c0.5,0.8,0.9,1.6,1.4,2.4c0.6,1,1.8,2.6,4,3.8c0,0,0,0,0,0c0.2,0.5,0.4,1,0.5,1.5
			l0.3,0.7c1.2,3.2,3,8,7.7,10.8c1.2,0.8,2.4,1.3,3.4,1.7c0.3,0.1,0.7,0.3,1,0.5c0.9,1.6,2.9,3.8,6.5,4.7c0.4,0.4,0.9,1,1.3,1.5
			c1.2,1.5,2.8,3.4,4.9,5c0.3,0.5,0.7,1.1,1,1.7c1.7,2.8,3.7,6.1,6.5,9c4,4.2,9.4,6.9,14.3,7.5c0.4,0.5,1.1,1.5,1.6,2.2
			c0.5,0.7,1,1.5,1.6,2.2c2.9,3.8,5.9,6.9,9.3,9.6c0.1,0.2,0.3,0.5,0.4,0.7c0.6,1,1.3,2.2,2.3,3.5c1.9,2.3,3.9,4.6,5.7,6.7
			c0.7,0.9,1.5,1.7,2.2,2.5c1.3,1.6,3.1,2.7,5.1,3.2c0.5,0.1,0.9,0.2,1.3,0.3c0.8,0.7,1.6,1.5,2.4,2.2c3,2.8,6.4,5.9,10.6,8.3
			c1.7,5.1,6,9.6,14.1,10.8C213,310.5,222.9,317,225.1,319.8z"/>
		<path d="M123.7,30.3L123.7,30.3L123.7,30.3 M393.1,30.8L393.1,30.8L393.1,30.8 M136.1,32.6c0.6,0.2,1.8,0.6,2.7,0.9
			c1.1,0.4,2.4,0.9,3.8,1.3c2,0.8,4.7,1.7,8.3,1.7c1.1,0,2.1-0.1,3.2-0.2c1.3,0.5,3,1,4.9,1.4c4.6,1.1,9,1.8,13.3,2.5
			c2.4,0.4,4.8,0.8,7,1.2c0.4,0.1,1.4,0.4,2.2,0.6c1,0.3,2.2,0.7,3.5,1c0.8,0.2,1.6,0.4,2.3,0.5c0.1,0,0.1,0.1,0.2,0.1
			c0,0,0,0,0.1,0c2.2,1.4,6.5,4.2,12.7,4.5c1.2,0.6,2.4,1.2,3.5,1.8c3.2,1.6,6.1,3.1,8.2,4.5c1,0.7,2.7,2.7,4.2,4.4
			c1.2,1.4,2.6,2.9,4.1,4.4c1.2,1.3,2.4,2.2,3.1,2.9c0.1,0.1,0.2,0.1,0.2,0.2c0.2,0.2,0.5,0.6,0.7,0.8c0.4,0.5,0.9,1.1,1.4,1.7
			c1.1,1.3,2.3,2.4,3.7,3.4c2.3,6,5.7,11.2,10.5,15.8c0,0,0,0,0,0.1c0.2,0.4,0.4,0.8,0.6,1.2c5,9.7,17.1,13.3,23.5,13.3
			c0.8,0,1.6,0,2.4-0.1c2.8-0.3,11.3-1.2,17.7-12.9c0.1-0.1,0.1-0.2,0.2-0.3c0.6-1,1.1-1.9,1.5-2.8c0-0.1,0.1-0.1,0.1-0.2
			c4-1.2,10-3.6,14.8-9.1c0.4-0.2,0.9-0.3,1.4-0.5c3.2-1.2,6.7-2.5,10.4-4.2c5.2-2.4,9.5-5.8,12.8-10c0.7,0,1.5-0.1,2.4-0.2
			c3.4-0.3,6.6-1.5,9.4-3.4c0.8-0.6,1.7-1.2,2.5-1.7c1-0.7,2-1.4,3-2.1c7.3-0.7,18.8-3.8,27.7-9.8c0.3,0,0.7,0,1,0
			c0.9,0,1.8,0,2.7,0c2.8,0,5.6-0.6,8-1.7c0.3,0,0.7,0,1,0c4.3,0,8.7-0.8,13-2.5c1.2-0.5,2.3-0.9,3.3-1.3c0.6-0.3,1.4-0.6,2-0.8
			c4.3,1,8.2,1.1,11.2,1.1c0.8,0,1.6,0,2.2,0c2,0.1,3.9,0.1,5.7,0.2c2.6,0,5.1,0.1,7,0.3c3.2,0.4,6.8,1.5,9.5,2.3
			c4.9,1.5,9,2.9,12.5,4.5c0.3,0.3,0.8,0.7,1.2,1.1c1,1,2.3,2.2,3.9,3.4c2.4,1.9,4.7,3.4,6.5,4.6c3.6,2.3,6.1,4.9,8.1,8.2
			c1.5,2.5,3,4.6,4.3,6.5c1.1,1.6,2.2,3.1,2.8,4.2c1.1,2.1,2.2,4.6,3.4,7.1c2.1,4.7,4.6,10,8,15.3c0.9,1.4,1.3,3.8,1.8,7.6
			c0.4,3.8,0.5,7.9,0.5,12.4c0,1.8,0.1,3.7,0.1,5.6c0.1,2.2-0.1,3.3-0.4,4.3c-1.2,4.3-1.2,8.1-1.1,10.6c0,0.3,0,0.8,0,1.1
			c-0.4,2.1-0.5,3.9-0.6,5c0,0,0,0.1,0,0.1c-0.2,0.8-0.3,1.7-0.5,2.5c-0.6,3.4-1.2,6.6-1.9,9.4c-0.4,1.4-1.1,3.2-1.8,5.1
			c-0.6,1.5-1.2,3.2-1.8,5c-0.5,1.4-0.8,2.7-1,3.8c-4,4.6-6.5,9.4-8.5,13.2c-0.7,1.4-1.4,2.7-2.1,3.8c-1.6,2.7-3.2,5.4-4.6,8
			c-2.3,4.1-4.6,8-6.9,11.7c-1.5,2.4-3.4,4.9-5.3,7.6c-2,2.7-4.1,5.5-6.1,8.6c-2.1,3.2-4,6.4-5.8,9.4c-2.3,3.8-4.4,7.3-6.6,10.5
			c-0.6,0.8-1.2,1.7-1.8,2.6c-1.1,1.6-2.8,4.1-3.6,4.7c-5.9,3.1-10.6,8.6-12.9,14.8c-8.8,5.4-14.1,12.8-17.8,18.9
			c-0.2,0.3-0.6,0.6-0.9,0.9c-0.8,0.8-1.9,1.9-3,3.1c-0.6,0.7-1.2,1.3-1.8,2c-2.1,2.4-4.6,5.1-6.9,8.2c-1.7,2.3-3.1,4.5-4.3,6.5
			c-1.2,1.9-2.3,3.6-3.3,4.8c-0.6,0.7-2,1.9-3.3,3.1c-1.1,1-2.4,2.1-3.7,3.4l-0.7,0.7c-1.8,1.8-4.1,3.9-6.3,6.8
			c-1.7,2.2-4.4,4.5-7.6,7.2c-1.3,1.1-2.7,2.2-4.1,3.5c-0.2,0.2-0.8,0.6-1.2,0.9c-2.7,1.8-7.5,5.2-11,11.1c-1.1,0.9-2.1,1.9-3.2,2.8
			c-3.1,2.8-6.3,5.6-9.5,8.5l-1.5,1.4c-4.4,4-8.9,8.1-13.3,12.4c-1.4,1.3-2.5,2.7-3.5,3.9c-5.4,2.4-8.9,6-10.5,7.8
			c-0.1,0.1-0.2,0.2-0.3,0.3c-0.7,0.5-1.8,1.1-2.9,1.7c-1.8,1-3.8,2.2-6,3.7c-3.1,2.1-5.2,4.5-6.7,6.2c-3.9,1.9-6.8,4.2-9,6.1
			c-3,2.6-6.4,5.1-9.1,7l-0.4,0.3c-0.5,0.3-1,0.7-1.5,1c-0.4,0-0.9,0-1.3,0c-0.1,0-0.1,0-0.2,0c-2.5-2.1-5.2-3.6-7.5-4.6
			c-0.2-0.3-0.5-0.5-0.7-0.8c-2.4-2.5-5-5.1-7.7-7.7c-2.5-2.3-4.9-3.8-6.4-4.7c-0.1-0.1-0.2-0.1-0.3-0.2c-1.7-1.4-3.5-3.1-5.6-4.9
			c-0.9-0.8-1.9-1.7-2.9-2.6c-0.9-0.9-2-1.7-3-2.4c-1.6-1.8-3.4-3.8-5.6-5.8c-2.8-2.5-5.5-4.8-8.2-7c-2.3-1.9-4.5-3.7-6.6-5.6
			c-0.3-0.3-1-1.2-1.5-1.9c-0.6-0.7-1.2-1.6-2-2.4c-0.7-0.8-1.4-1.7-2.1-2.5c-1.3-1.5-2.6-3-3.9-4.6c-2.8-3.3-6.7-5.7-10.9-6.8
			c-2.3-2.1-4.6-4.6-7-7.2c-1.4-1.5-2.8-3-4.3-4.5l-0.2-0.2c-0.8-0.8-2.2-2.3-4.2-3.8c-1.1-3-3.9-10-10.8-15.1
			c-3.2-4.9-7.2-7.8-9.5-9.6c-0.4-0.3-0.9-0.7-1.2-0.9c-0.4-0.6-1.3-2-2-3.1c-0.4-0.7-0.9-1.4-1.3-2.2c-1.2-2.2-2.7-4-4.3-5.5
			c-1.3-2.7-3.3-5.4-6.2-8.1c-1.4-1.8-2.8-3.2-4.3-4.5c-1.8-4.1-4.8-7.7-8.9-10.7c-2.5-4.8-5.9-8-7.6-9.6c-0.8-0.8-1.6-1.5-2.3-2.2
			c-0.4-0.4-0.8-0.7-1.1-1.1c-0.9-3.2-2.7-6.2-5.1-8.6l-4-4l-2.8-2.7c-1.6-1.6-3.4-2.8-5.3-3.8c0,0,0,0,0,0
			c-0.8-0.7-1.7-1.6-2.8-2.4c-0.7-0.8-1.2-1.6-1.7-2.3c-1.2-1.9-2.2-3.5-2.9-5.1c-2.4-5-6.3-8.5-12.7-14.4c-1.9-1.7-4.8-4.3-6.3-5.9
			c-1.5-3.2-3.3-5.7-4.7-7.6c-0.1-0.1-0.2-0.3-0.3-0.4c-1.6-6.6-5.7-10.8-7.4-12.6l-0.3-0.3c-0.9-0.9-1.7-1.7-2.4-2.3
			c-1.1-2.9-3-6.2-6.5-9c-0.3-0.6-0.6-1.1-0.7-1.4c-0.9-2.5-2.1-4.6-3.1-6.3c-0.1-5-1.9-9.7-5.1-13.3c-1.2-2.9-2.8-5.4-4.7-7.5
			c-0.1-0.2-0.1-0.4-0.2-0.6c0-0.1,0-0.1,0-0.2c-0.1-1.1-0.2-2.3-0.5-3.4c1.1-4,0.9-7.7,0-10.9c2.3-5.5,1.4-10.9,0.5-16.1
			c-0.3-1.5-0.8-4.4-1.1-6.6c1-2.2,2.4-5,3.2-6.5c1.3-1.6,2.3-3.5,3-5.5l1.2-3.4l1.8-5.1c0.6-1.8,1-3.6,1.1-5.5
			c1.7-2.3,3-5.1,3.6-8.1c0.1-0.4,0.1-0.8,0.2-1.2c0.7-0.4,1.5-0.8,2.3-1.3c3.9-2.5,6.9-6.1,8.6-10.2c2.3-2,4.6-3.9,6.8-5.8
			c2.6-2.2,5-4.3,7.5-6.4c0.5-0.2,1.1-0.4,1.6-0.7c1.3-0.6,2.4-1.1,3.4-1.6c0.4-0.2,1-0.5,1.4-0.7c2.3-0.4,4.3-1.1,6-1.7
			c1.1,0.2,2.2,0.2,3.2,0.2c5.2,0,10.1-1.8,14-5c0.6-0.2,1.4-0.4,2-0.6c2.2-0.7,4.9-1.5,7.8-2.8c0.2,0,0.4-0.1,0.6-0.1
			c2-0.3,3.9-0.9,5.6-1.8c2.8-0.2,5.1-0.8,6.4-1.2c0,0,0.1,0,0.1,0c1.7-0.2,3.3-0.5,4.9-0.8C131.2,33.2,134,32.7,136.1,32.6
			 M84.9,200.1c0.2,0.4,0.5,0.9,0.7,1.3c0.4,0.8,0.8,1.5,1.2,2.3c1.4,2.6,2.9,5,4.2,7.3c0.5,0.8,0.9,1.6,1.4,2.3
			c1.2,2,2.6,3.7,4.3,5.1c1.5,4,4.4,10.8,11.6,15.2c1.1,0.7,2.1,1.2,3,1.6c1.7,1.9,4,3.9,7.1,5.3c1.1,1.3,2.5,3,4.4,4.6
			c0,0.1,0.1,0.1,0.1,0.2c1.9,3.1,4.3,7,7.9,10.7c2.3,2.3,7.8,7.3,15.7,9.6c0.3,0.5,0.7,1,1.1,1.5c3,4,6.1,7.2,9.6,10.2
			c0.6,1.1,1.5,2.4,2.7,3.9c2,2.5,4,4.8,5.9,7c0.7,0.8,1.5,1.7,2.2,2.5c2.4,2.8,5.6,4.9,9.1,6c0.2,0.2,0.3,0.3,0.5,0.5
			c2.5,2.3,5.6,5.2,9.5,7.8c3.3,6.4,9.5,11.7,18.9,13.6c3.1,1.6,8.6,5.3,10.8,7.3c2.8,4.8,7.4,8.8,12.5,10.9
			c1.3,0.6,3.6,2.5,5.8,4.3c2,1.7,4.3,3.6,6.9,5.4c1.2,0.8,2.5,1.9,4,3.1c1.3,1.1,2.8,2.3,4.4,3.5c3.7,2.7,8.1,4.2,12.8,4.2
			c4.6,0,9.2-1.4,12.8-4.1c3.2-2.3,5.7-4.3,7.9-6.2c1.5-1.3,2.8-2.6,4-3.7c0.7-0.7,1.6-1.5,2.2-2.1c2-0.6,4.9-1.5,8-3.3
			c5.8-3.4,11.4-7,16.8-10.5l2.5-1.6c2.1-1.3,3.6-2.7,4.6-3.6c0.1-0.1,0.2-0.2,0.3-0.2c0.8-0.6,1.8-1.2,2.8-1.8
			c2.7-1.7,5.8-3.7,8.9-6.4c3.2-2.7,5.9-5.6,8.3-8.1c0.6-0.7,1.3-1.3,1.9-2c7-3.5,11.4-8.7,14.4-12.3c0.7-0.8,1.3-1.6,1.9-2.2
			c0.5-0.5,0.9-1,1.4-1.5c1.4-1.6,2.8-3,4.2-4.4c2-1.3,5.5-3.8,8.2-8.2c4.9-2.2,8.7-6.1,10.7-10.8c1.3-1.3,2.9-3,4.2-5.1
			c1.4-1.1,3.1-2.7,4.7-4.8c0.4-0.3,0.9-0.6,1.3-0.9c3.6-2.4,10.5-7.1,14.1-15.9c0,0,0,0,0,0c0.8-1.2,2-2.8,3.4-4.4
			c3.7-4.6,8.9-10.8,11.5-19.8c0.5-1.6,1.8-4.1,3.3-6.6c1.6-3,3.5-6.3,5.1-10.2c2.4-5.8,2.7-11.4,2.9-15.4c0-0.6,0.1-1.2,0.1-1.8
			c0.2-2.7,0.1-5.1,0-7.1c0-1-0.1-1.9-0.1-2.5c0-0.5,0.1-1.4,0.3-2.3c0.3-2.2,0.7-4.9,0.6-8c0-4-1.1-7.2-1.9-9.3c0-0.2,0-0.5,0-0.7
			c-0.1-3.1-0.2-7.8-2.1-13.1c-0.1-0.5-0.2-1.5-0.2-2.3c-0.3-3.5-0.7-8.4-3-13.6c-3.8-8.9-11-25.5-29.1-33.8
			c-4.2-1.9-8.2-2.8-11.1-3.4l-0.3-0.1c-2.2-0.4-4-0.6-5.4-0.7c-0.1,0-0.2,0-0.4,0c-4-1.2-8-1.8-11.9-1.8c-5,0-9.8,1-14.4,2.9
			c-4.9,1-9.6,3.4-14,5.8c-1.5,0.6-2.9,1.3-4,2c-3.1,0.5-5.5,1.6-6.6,2.1l-0.1,0c-3.6,1.6-6.4,3.7-8.4,5.2c-0.3,0.2-0.7,0.5-1,0.7
			c-2.9,0.6-6.4,2-9.6,5c-3.8,1.1-9.5,3.4-13.9,9c-2.4,1.9-4.2,4-5.6,6.3c-3.4,3.7-12.9,12.1-16.1,14.2c-4,2.3-6.3,5.2-7.4,6.6
			l-0.1,0.1c-0.5,0.6-1,1.2-1.4,1.7c-4.7,2.1-7.5,5.2-9,7.4c-0.8,1.2-1.7,2.7-2.4,4.7c-0.1,0.1-0.1,0.1-0.2,0.2
			c-0.2-3.3-1.2-7.5-4.4-11.6c-0.1-0.1-0.2-0.3-0.2-0.4c-0.4-0.7-0.9-1.5-1.4-2.2c-0.8-1.2-1.5-2.5-2.3-3.7c-0.4-0.7-0.9-1.3-1.3-2
			c-0.5-0.8-1.1-1.6-1.6-2.2c-0.9-5.2-3.5-8.9-4.7-10.7c-0.1-0.1-0.1-0.2-0.2-0.3c-1.1-1.9-2.2-3.8-3.3-5.6c-1.1-1.8-2.1-3.4-3-5.1
			c-0.1-0.2-0.4-0.9-0.7-1.4c-0.4-0.8-0.8-1.6-1.3-2.6l-0.3-0.5c-0.8-1.4-1.8-3.4-3.3-5.5c-0.1-0.2-0.4-0.6-0.6-1
			c-1.5-2.3-3.9-6.2-8-9.4c-2.1-4.2-6-11-13.5-15.4c-3.9-5.3-8.8-8.1-11.4-9.6c-0.3-0.2-0.7-0.4-1-0.6c-6.1-5-12.9-6.9-17.9-8.2
			c-0.7-0.2-1.5-0.4-2.2-0.6c-2.3-0.7-4.7-1-7.2-1c-0.7,0-1.4,0-2,0.1c-2.9-0.7-5.9-1.1-9-1.1c-5.5,0-10.1,1.1-13.9,2
			c-1,0.2-2,0.5-2.9,0.7c-4.7,0.9-9,2.5-12.2,3.8c-0.5,0.2-1,0.4-1.5,0.6c-3.4,1.3-8.1,3.1-12.5,6.3c-4.7,3.4-8.9,7.1-12.9,10.6
			c-0.9,0.8-1.9,1.6-2.8,2.5c-0.4,0.4-0.8,0.7-1.2,1c-2.5,2.1-6,4.9-8.9,9.1c-4.6,6.6-8.8,13.3-12.8,19.8l-0.7,1.2
			c-1.8,2.9-4.1,7.6-4.6,13.5c-0.6,6.7-1,12.8-1.2,18.9c-0.1,4.2,0.2,8.5,0.9,12.7c0.7,3.6,1.5,7,2.3,10c0.2,0.9,0.4,1.7,0.7,2.6
			l0.5,2c1.4,5.4,2.8,10.9,4.3,16.4C77.9,192.4,80.9,196.8,84.9,200.1 M158,35.3L158,35.3L158,35.3 M101.9,40.1L101.9,40.1
			L101.9,40.1 M87.3,44.1L87.3,44.1L87.3,44.1 M205.6,47.8L205.6,47.8L205.6,47.8 M72.6,49.3L72.6,49.3L72.6,49.3 M346.7,52.3
			L346.7,52.3L346.7,52.3 M328.2,58L328.2,58L328.2,58 M46.6,70.6L46.6,70.6L46.6,70.6 M303.9,72.5L303.9,72.5L303.9,72.5 M287,81.9
			L287,81.9L287,81.9 M286.7,85.4L286.7,85.4L286.7,85.4 M284.2,89.3L284.2,89.3L284.2,89.3 M35.5,102.1L35.5,102.1L35.5,102.1
			 M410.9,231.6L410.9,231.6L410.9,231.6 M394.6,253.1L394.6,253.1L394.6,253.1 M375.3,272.9L375.3,272.9L375.3,272.9 M366.9,282.2
			L366.9,282.2L366.9,282.2 M345.4,302.2L345.4,302.2L345.4,302.2 M322.6,321.7L322.6,321.7L322.6,321.7 M136.4,12.6
			c-5.5,0-11,1.3-16.5,2.1c-1.5,0.2-3.2,1-4.6,1c-0.3,0-0.7,0-1-0.1c-0.7-0.3-1.4-0.4-2-0.4c-2.1,0-3.3,1.3-4.2,2.5
			c-1.8,0.3-3.1,0.1-4,0.7c-5.1,3.2-11.7,2.9-16.2,7.3c-0.2,0.2-0.7,0.3-1.1,0.3c-0.2,0-0.5,0-0.6-0.1c-1.1-0.7-2.2-1-3.3-1
			c-3.2,0-5.9,2.5-9,2.9c-3.1,0.4-6,2.3-9,3.5c-1.7,0.7-3.7,1.3-5.1,2.5c-5.8,4.8-11.5,9.9-17.3,14.7c-1.9,1.6-4.5,2.6-4,5.9
			c0.1,0.4-0.5,1.1-0.9,1.4c-2.3,1.4-4.8,2.6-6.9,4.2c-1.3,1-2.6,2.6-3.1,4.2c-0.8,2.3-1,4.9-1.5,7.3c-0.1,0-0.3,0-0.4,0
			c-3.1,0-4.6,1.5-4.8,4.5c-0.1,1.8-0.5,3.7-0.8,5.7c0.2,0.1,1.2,0.3,2.1,0.5c-1,2.7-1.9,5.2-3,8.4c-1.1,0.5-7.9,15.2-7.6,15.2
			c-0.6,3.5,2.7,18.5,2.3,18.5c-4.9,0.6-4.8,0.8-2.9,5.5c0.9,2.3-0.2,5.4,2.2,7.5c0.1,0.1-0.1,0.4-0.2,0.7c-1.1,3.1-4,6.1-0.1,9.2
			c0.1,0.1,0,0.2,0.1,0.4c-0.5,0.7,0.7,3.9,0.8,4.7c0.2,3.3,0.1,6.3,4.1,8c2.9,1.3,1.1,6.4,5,7.5c0.1,0,0.1,0.7,0,1
			c-1.3,5.1,2.9,8.2,4.4,12.2c1.1,2.9,2.7,5.5,4.4,8.8c0.5,0.3,2.7,0.9,2.8,1.8c0.6,4.4,4.1,6.5,6.7,9.2c1.7,1.7,3.3,3,2.8,5.8
			c-0.1,0.8,1.1,1.9,1.7,2.9c1.8,2.8,4.1,5.4,5.3,8.4c1.5,3.9,16.9,15.7,18.4,18.8c1.2,2.6,2.7,5.1,4.2,7.4c1.5,2.2,3.2,4.3,4.8,6.4
			c0,0,0,0,0,0c1.3,0,5.6,5.3,7.7,5.3c0,0,0,0,0,0c2.8,2.8,4.7,4.7,6.8,6.7c0,0.9-0.5,2.6,0.1,3.4c1.8,2.3,4.1,4.2,6.1,6.3
			c0.9,0.9,1.7,1.7,2.6,2.5c2.4,2.3,4.6,4.6,4.7,8.2c0,0.3,1.4,0.3,1.8,0.8c1.9,2.2,5.6,2.6,5.8,6.7c0.1,1.5-0.4,5,2.5,5
			c0.1,0,0.2,0,0.3,0c0.1,0,0.3,0,0.4,0c2.8,0,3.1,2.4,4.7,3.7c1.9,1.6,3.6,2.9,2.6,5.7c-0.1,0.4,0.8,1.5,1.4,1.7
			c1.2,0.5,3.3,1.2,3,1.4c2.5,3.6,4.4,7.8,7.5,10.6c3.3,3,7.6,4.8,8.8,9.7c0.1,0.5,0.8,0.9,1.3,1.1c3.7,1.2,5.1,4.1,6.3,7.5
			c1.2,3.3,2.1,7,6.1,8.5c1,0.3,1.7,1.3,2.5,2.1c4.4,4.5,8.5,9.3,13.1,13.5c1.6,1.5,3.2,3.9,5.9,3.9c0.4,0,0.9-0.1,1.4-0.2
			c0,0,0.1,0,0.1,0c0.3,0,0.7,0.2,0.8,0.5c2,2.3,3.9,4.6,5.9,7c1.8,2.1,3.4,4.4,5.4,6.3c4.8,4.3,9.9,8.2,14.7,12.5
			c2.5,2.3,4.6,5,7.2,8c0.2,0,1-0.1,1-0.1c0,0,0,0,0,0c3.8,3.4,6.8,6.2,9.9,8.8c1.6,1.4,3.8,2.2,5.3,3.6c3.7,3.5,7.2,7.3,10.8,10.9
			c0.3,0.3,5.6,1.8,6.4,3.5c1.7,3.7,4.2,4.9,7.2,4.9c1.2,0,2.5-0.2,3.8-0.5c0.5-0.1,1.1-0.3,1.6-0.3c0.2,0,0.4,0,0.5,0
			c0.8,0.2,1.6,0.2,2.4,0.2c4.5,0,8.2-2.7,11.8-5.2c3.7-2.6,7.3-5.3,10.7-8.3c2.3-2,4.7-3.6,7.8-4.2c0.7-0.1,1.1-1.5,1.7-2.2
			c1.4-1.5,2.7-3.3,4.4-4.5c3.2-2.2,6.8-3.8,9.9-6.1c2.9-2.2,4.6-6,8.9-6c0.2,0,0.4,0,0.6,0c0,0,0,0,0,0c0.5,0,1.1-0.8,1.5-1.4
			c1.6-2,3-4.3,4.8-6.1c4.6-4.5,9.5-8.9,14.3-13.2c4.2-3.8,8.4-7.5,12.6-11.2c1-0.9,2.6-1.6,2.9-2.6c1.5-4.7,5.9-6.3,9.1-9.1
			c5-4.4,10.4-8.3,14.4-13.6c1.4-1.9,3.2-3.5,4.9-5.2c2.9-2.8,6.2-5.2,8.7-8.3c3-3.8,5.3-8.2,8.2-12.1c2.3-3.1,5-5.9,7.5-8.9
			c1.9-2.1,4.2-4,5.6-6.4c3.1-5.3,6.6-10,12.1-13.1c3.5-2,6.7-4.1,7.4-8.8c0.3-1.9,2.1-4.1,3.8-5c5.8-3,8.8-8.5,12.3-13.4
			c4.7-6.6,8.4-13.8,12.8-20.5c3.7-5.6,8-10.8,11.5-16.4c4.2-6.6,7.9-13.5,11.8-20.2c3.6-6,6-12.8,11.9-17.3
			c0.9-0.7,0.8-2.8,1.1-4.3c0.2-1,0-2.1,0.3-3c1.3-3.8,3-7.5,4-11.4c1.2-4.6,2-9.3,2.8-14c0.3-1.5,0.1-3.1,0.5-4.6
			c0.7-3.3-0.2-7,0.6-9.7c1-3.6,1.3-6.9,1.2-10.4c-0.2-6.5,0-13.1-0.8-19.6c-0.6-5.7-1.5-11.2-4.9-16.4c-4.3-6.4-6.8-14-10.5-20.8
			c-2.2-4-5.3-7.6-7.6-11.5c-3.6-6.1-8.5-10.9-14.4-14.7c-1.7-1.1-3.4-2.2-5-3.5c-2.7-2.1-5-5-8.1-6.4c-5.1-2.4-10.5-4.2-15.9-5.9
			c-4.2-1.3-8.6-2.5-12.9-3.1c-4.7-0.6-9.6-0.4-14.3-0.6c-3.5-0.2-7.3,0.1-10.6-0.9c-1.3-0.4-2.6-0.6-3.8-0.6
			c-4.5,0-8.6,2.3-12.5,3.8c-2,0.8-4,1.2-5.8,1.2c-1.3,0-2.5-0.2-3.6-0.6c-1.1-0.4-2-0.6-2.7-0.6c-1.5,0-2.2,0.9-2.8,2.8
			c-1.8,0-3.5,0-5.2,0c-1.7,0-3.3,0-5,0c-0.6,0-1.3,0.2-1.6,0.6c-4.2,5.3-17.5,9.3-22.7,9.3c-0.7,0-1.2-0.1-1.6-0.2
			c-0.1,0-0.3-0.1-0.4-0.1c-0.5,0-1.2,0.3-1.7,0.6c-3.4,2.3-6.8,4.6-10.1,6.9c-2.5,0.2-5.5,0-8,0.9c-2.5,0.9-5.5,2.5-6.8,4.7
			c-1.7,3.1-4.1,5-7,6.3c-4.8,2.2-9.9,3.8-14.8,5.8c-1,0.4-2,1.4-2.5,2.4c-2,3.6-5.7,4.3-9,5.2c-3.9,1.1-8.7,7.6-9.7,9
			c-0.4,0.5-0.3,1.3-0.6,1.8c-0.9,1.4-1.8,3.8-3,3.9c-0.1,0-0.2,0-0.3,0c-2.3,0-6-2.2-5.7-2.5c-1-1.7-1.6-3.9-3-5.1
			c-3.8-3.2-6.4-6.8-7.8-11.8c-0.9-3.1-3.1-6.7-6.4-7.1c-1.4-1.6-2.2-2.8-3.2-3.7c-1-1-2.2-1.8-3.2-2.9c-3.6-3.7-6.7-8.1-10.8-11
			c-4.8-3.5-10.5-5.9-15.8-8.7c-1.6-0.8-3-1.6-4.9-1.6c-0.5,0-0.9,0-1.5,0.2c-0.1,0-0.2,0-0.3,0c-1.4,0-3.1-1.6-4.6-2.3
			c-1.3-0.6-2.6-1.3-3.9-1.7c-0.9-0.3-1.8-0.2-2.7-0.4c-2.3-0.6-4.6-1.5-6.9-1.9c-6.5-1.3-13.1-2.1-19.5-3.6
			c-3.1-0.7-6.1-2.3-9.3-2.3c-1,0-2.1,0.2-3.2,0.6c-0.1,0-0.1,0-0.2,0c-0.4,0-1-0.4-1.5-0.5c-4.1-1.2-8.2-3.3-12.3-3.4
			C136.8,12.6,136.6,12.6,136.4,12.6L136.4,12.6z M263.3,337.1c-0.3,0-0.6-0.1-0.8-0.2c-3-2.2-5.8-4.8-8.8-6.9
			c-5.6-3.9-10.1-9.2-16.6-11.9c-1.2-0.5-2.5-1.7-3-2.9c-2.5-5.6-19.8-15.9-22.6-16.2c-4-0.4-7.2-1.9-7.1-6.8c0-0.4-0.6-1.2-1-1.3
			c-6.6-2.6-10.9-8-16.2-12.3c-1-0.8-2.6-0.7-3.8-1c-2.6-3-5.2-5.9-7.8-9.1c-1.4-1.7-2.2-4.1-3.9-5.4c-3.1-2.4-5.6-5-8-8.2
			c-2.4-3.2-4.4-7.8-10-8.4c-3-0.3-6.2-2.3-8.4-4.5c-2.9-3-4.9-6.9-7.2-10.4c-0.1-0.1,0-0.3-0.1-0.3c-4.3-2.1-5.7-7.5-10.6-9
			c-0.3-0.1-0.9-0.1-1-0.3c-1.6-3.4-5-3.9-7.7-5.6c-1.9-1.2-2.9-4.2-3.8-6.6c-1.1-2.7-1.6-5.7-4.9-6.7c-0.1,0-0.3,0-0.3-0.1
			c-1.8-3-3.6-6-5.3-9.1c-1.8-3.3-3.3-6.9-6.6-9.3c-0.8-0.6-1.6-1.5-1.9-2.5c-1.6-6-3.2-12-4.7-18c-0.9-3.7-2-7.4-2.7-11.2
			c-0.5-2.8-0.7-5.6-0.6-8.4c0.2-5.9,0.6-11.8,1.1-17.7c0.1-1.6,0.8-3.3,1.7-4.7c4.2-6.8,8.4-13.5,12.9-20c1.8-2.5,4.4-4.5,6.8-6.5
			c4.7-4.1,9.4-8.3,14.4-12c2.8-2,6.3-3.2,9.6-4.5c2.9-1.1,5.8-2.2,8.8-2.8c4.2-0.9,8.4-2.3,12.8-2.3c1.9,0,3.8,0.3,5.8,1
			c0.6,0.2,1.1,0.3,1.8,0.3c1.1,0,2.3-0.2,3.4-0.2c0.6,0,1.1,0,1.6,0.2c4.5,1.3,9.7,2.2,13.1,5.1c3.4,2.9,8.9,4,10.2,9.4
			c0.1,0.6,1.2,1.3,1.9,1.4c5.6,1.3,7.5,6.1,9.6,10.5c0.9,1.9,1.5,3.1,3.8,4.1c2.3,1.1,3.7,4.3,5.5,6.7c0.8,1.1,1.4,2.4,2.1,3.6
			c0.8,1.6,1.5,3.2,2.4,4.7c2.1,3.6,4.4,7.2,6.5,10.8c0.9,1.6,2.7,3.5,2.4,4.9c-1,4.4,2.6,6,4.4,8.8c1.2,1.9,2.4,3.7,3.5,5.6
			c0.7,1.2,1.4,2.3,2.1,3.5c0.3,0.5,1,1,0.9,1.4c-0.9,5.7,2.1,9.4,5.5,13.5c2,2.5,3.2,6.4,5.1,9.5c1.5,2.4,3.4,3.7,5.8,3.7
			c0.6,0,1.2-0.1,1.8-0.2c3.2-0.7,6.3-1.8,9.3-3c0.9-0.4,1.7-1.6,2.2-2.6c1.1-2.1,1.6-4.6,3-6.4c1.8-2.4,4.3-4.2,6.8-6.6
			c-0.5-1.6-1.9-3.5,2.5-3.6c2,0,4-4.2,6.1-6.5c0.8-0.9,1.5-2,2.4-2.5c3.7-2,20.7-16.8,23.4-21.3c-0.7-0.4,3-2.3,3.2-2.8
			c1.5-3.6,4.8-3.5,7.8-4.4c1.3-0.4,2.4-1.5,3.5-2.4c0.6-0.4,1-1.4,1.5-1.5c5.4-0.6,8.7-5.1,13.3-7.2c0.6-0.3,1.4-0.7,2-0.7
			c0.1,0,0.3,0,0.4,0.1c0.6,0.3,1.1,0.4,1.6,0.4c2.6,0,3.8-3.3,6.3-3.6c0.4,0,7.1-4.3,10.4-4.8c1-0.1,2.1-0.5,3.1-0.9
			c2.4-1.1,4.7-1.5,7.1-1.5c2.2,0,4.5,0.4,6.8,1.2c2.1,0.7,4.5,0.5,6.7,1c2.4,0.5,4.9,1,7.1,2c10.2,4.7,15,14,19.1,23.5
			c1.9,4.4,1,9.9,2.7,14.4c1.5,4,0.7,7.8,1.3,11.6c0.3,1.8,1.6,3.5,1.6,5.3c0,3-0.7,6.1-0.9,9.1c-0.1,3,0.3,6,0.1,9
			c-0.3,3.8-0.2,7.8-1.6,11.2c-2.6,6.4-7,12.1-9,18.6c-2.4,7.9-8.4,12.7-12.5,19.1c-0.3,0.5-1.1,0.9-1.2,1.4
			c-1.4,7.4-9.5,8.6-13.2,13.9c-1.5,2.1-4.7,3.3-5.4,5.5c-1.3,3.6-6.3,4.3-6.1,8.7c0,0.2-0.5,0.7-0.7,0.7c-4.6,0.8-6.7,4.2-8.8,7.9
			c-0.8,1.4-2.8,2.1-4.1,3.3c-2.5,2.4-4.8,5-7.1,7.5c-3.7,4-6.6,8.8-12.1,10.9c-1,0.4-1.8,1.2-2.6,2c-3.4,3.4-6.5,7.1-10.1,10.2
			c-3.2,2.8-7,4.8-10.5,7.3c-1.4,1-2.5,2.3-3.9,3.1c-6.1,3.9-12.3,7.9-18.6,11.6c-2.6,1.5-5.9,1.7-8.3,3.4c-3.3,2.2-5.9,5.3-8.9,7.9
			c-2.1,1.8-4.3,3.5-6.5,5.1C264.1,337,263.7,337.1,263.3,337.1L263.3,337.1z"/>
	</g>
</g>
</svg>
