<?xml version="1.0" encoding="utf-8"?>
<!-- Generator: Adobe Illustrator 23.0.1, SVG Export Plug-In . SVG Version: 6.00 Build 0)  -->
<svg version="1.1" id="Layer_1" xmlns="http://www.w3.org/2000/svg" xmlns:xlink="http://www.w3.org/1999/xlink" x="0px" y="0px"
	 viewBox="0 0 413 500" style="enable-background:new 0 0 413 500;" xml:space="preserve">
<style type="text/css">
	.st0{fill:#FFFFFF;}
</style>
<g>
	<path d="M63.4,95.4c1.1-10.4,1.8-20.9,3.4-31.2c1.3-8.3,4.4-16.1,10.9-21.9c7.9-7,17-11.6,27.2-14c9.7-2.3,19.3-0.9,28.8,1.5
		c3,0.8,6.5,2.8,9,2c2.6-0.8,4.4-4.3,6.3-6.9c12.8-17.7,36.5-21.3,54-11.8c12.8,7,25.4,14.4,36.9,23.4c10.6,8.2,19.9,17.6,26.1,29.6
		c3.3,6.5,6,13.4,9.1,20c0.4,1,1.7,2.2,2.7,2.3c10,1.4,20.1,2.4,30,4.1c12.9,2.3,25.3,6.5,36.4,13.7c14.6,9.4,23.5,22.1,22.1,40.1
		c-1.1,13.4-6.7,24.3-19.8,30.1c-2.2,1-4.5,2.1-6.8,2.9c-2.1,0.7-2.4,1.6-1.6,3.6c5.2,13.2,9.7,26.6,12.9,40.5
		c3.4,14.6,5.5,29.4,5.6,44.4c0.1,19.2-2.4,38.2-5.8,57.1c-3.2,18.2-9.1,35.5-18.7,51.3c-12.2,20.1-27.5,38-42.9,55.6
		c-8.9,10.2-18.1,20.1-27.2,30.1c-1.5,1.7-3.1,3.4-4.8,4.9c-2.7,2.3-5.8,3-9.2,1c-2.6-1.6-5.2-3.2-8-4.4
		c-12.9-5.6-25.4-11.8-37.1-19.6c-15.5-10.3-29.6-22.2-42.9-35.1c-15.9-15.3-31.7-30.6-45.9-47.5c-13.1-15.5-23.2-33-33.6-50.3
		c-7-11.7-13.1-23.9-17.4-36.9c-0.3-0.9-1.8-1.8-2.9-2c-5.3-1.1-10.8-1.6-15.9-3.2c-15.7-5-27.2-14.9-32.2-31
		c-4-13.1-2.3-25.9,2.9-38.3c6.4-15.1,16.8-27.4,29-38.1c7.9-6.9,16.5-12.9,24.8-19.3c1.5-1.1,1.7-2,1.1-3.8
		c-1.8-5.5-4-10.9-4.6-16.5c-1-8.7-0.9-17.5-1.2-26.3C63.9,95.5,63.7,95.5,63.4,95.4z M325.7,181c-11.6-27.4-44.1-44.3-70.4-42.5
		c-8.4,0.6-16.7,1.3-24.4,5.1c-11.7,5.8-18.5,15.8-22.2,28c-0.6,2-0.7,4.2-1.5,6.1c-0.7,1.6-1.9,3.8-3.3,4.1c-1.5,0.3-4-0.7-5.1-2
		c-9.2-10.3-20.5-17-33.5-21c-16.6-5.1-33.4-4.7-50-0.1c-10.1,2.8-17.4,10.1-24.5,17.3c-8.8,9-13.1,20.1-16.2,32.2
		c-5.8,22.9-5.2,45.6,1.6,68c2.9,9.3,7.9,18.1,12.4,26.9c8.8,17,18.4,33.5,30.4,48.6c26.2,32.8,56.1,61.5,91.3,84.5
		c11.7,7.7,24.2,14,37.3,19.1c2.3,0.9,3.8,0.5,5.3-1.2c6.3-6.9,12.5-13.9,19.1-20.5c16.5-16.4,31.4-34,45.3-52.6
		c11.3-15.2,18.2-32.3,21.9-50.8c3.8-18.6,5.1-37.5,5.9-56.5C346.7,241.1,338.4,210.5,325.7,181z M260.6,76.1
		c-0.4-0.8-1.9-1.4-3-1.5c-13.1-1.4-26-0.5-39,1.5c-14,2.1-28,4-41.8,7.7c-18,4.8-35.3,11.2-52.6,18.1
		c-15.2,6.1-29.7,13.3-43.8,21.5c-1.9,1.1-2.7,2.1-2.1,4.3c0.7,2.4,1,5,1.6,7.6c8.1-3.7,15.7-7.3,23.4-10.8c24.4-11.1,50-19,76-25.4
		c17.5-4.3,35-8.6,53-10.1c9.9-0.8,19.8-0.8,29.7-1.1c1.1,0,2.1,0,4,0C264,83.5,262.4,79.7,260.6,76.1z M339.3,120.2
		c-11-8.5-23.8-12-37.5-12.8c-2.2-0.1-4.4,0.3-4.8,3c-0.4,2.6,1.4,3.9,3.5,4.5c4.7,1.2,9.5,2.1,14.2,3.3c6.9,1.8,13.8,3.7,19.7,8.1
		c7.5,5.6,10.3,14.9,6.5,22.2c-1,2-3,3.6-4.6,5.3c-0.9,0.8-2,1.4-2.9,2.3c-1.5,1.4-2,3.1-0.8,4.9c1.2,1.8,2.9,2.4,5,1.5
		c5.6-2.3,9.3-6.7,11.5-12.1c1.2-2.8,1.6-5.9,2.3-8.8C350.8,132.4,346.3,125.5,339.3,120.2z M285.7,112.3c1.3-0.5,2.9-1.8,3.2-3
		c0.2-0.9-1-3-2.1-3.4c-5-2.1-10.1-1.9-15,0.2c-1,0.5-2.1,2.1-2,3c0.1,1.1,1.4,2.6,2.5,2.9c2.7,0.7,5.5,0.7,8.2,1c0-0.1,0-0.2,0-0.3
		C282.2,112.6,284,112.9,285.7,112.3z"/>
	<path d="M172.4,480.5c1.9-7.8,5.9-14.8,10.6-21.3c2.4-3.4,7.6-3.7,11.4-1.3c3.2,1.9,5,6.3,3.5,9.7c-2.7,6.2-5.6,12.5-8.8,18.5
		c-1.6,3-4.1,5.3-7.8,4.9C175.1,491,170.9,486.3,172.4,480.5z M180.2,483.4c0.9,0.3,2.3,0.2,3.1-0.4c1.1-0.8,1.9-2.1,2.6-3.3
		c2.1-3.9,4.1-7.9,6.1-11.9c1.8-3.6,1.8-6,0-7c-1.9-1-4.2,0.3-6,3.9c-2.2,4.2-4.1,8.4-6.1,12.6c-0.5,1.1-0.7,2.3-1.2,3.9
		C179.1,481.9,179.5,483.1,180.2,483.4z"/>
	<path d="M43.7,343.5c-3.8,0.1-5.8-1.1-7-3.8c-1.3-3-0.7-7.2,2.2-9c6.7-4,13.5-7.7,20.6-10.9c3.7-1.6,8.2,1.2,9.9,5.2
		c1.6,3.7,0.5,7.5-3.2,9.9c-2.1,1.3-4.3,2.5-6.6,3.4c-5.2,2.1-10.4,4-15.6,6C43.9,344,43.8,343.7,43.7,343.5z M58.8,326.1
		c-4.9,2.2-9.9,4.3-14.7,6.8c-1.4,0.7-3.2,2.9-2.9,3.8c0.8,2.4,3.1,1.9,5.1,1.1c2.1-0.9,4.2-1.8,6.3-2.7c3.3-1.4,6.7-2.6,9.9-4.2
		c1-0.6,2.3-2.2,2.2-3.1c-0.2-1.1-1.7-2-2.5-2.8C60.5,325.4,59.5,325.6,58.8,326.1z"/>
	<path d="M372,250.6c-3-3.5-2.1-8.5,2.2-10.2c7.3-2.9,15-3.7,22.7-3.2c4.1,0.3,7,3.5,7.3,6.9c0.3,4.6-1.3,7.4-6,8.7
		c-4.3,1.2-8.8,1.8-13.3,2.7C379.9,255.2,375.4,254.4,372,250.6z M380,244.6c-1.4,0.5-3,1.5-2.4,3.6c0.6,2,2.1,2.3,4.1,2.1
		c4.2-0.5,8.3-0.7,12.5-1.1c1-0.1,2.2-0.1,3-0.6c0.9-0.5,2-1.6,2-2.4c0-1-0.8-2.5-1.7-2.9c-1.8-0.8-4-1-6.4-1.6
		C387.6,242.5,383.8,243.4,380,244.6z"/>
	<path d="M142.9,427.7c3.1-2.2,7.4-1.9,10.3,0.6c2.6,2.2,3.5,6.5,1.6,9.7c-2.6,4.2-5.3,8.4-8.3,12.3c-2,2.6-4.6,4.7-8.3,4.9
		c-4.2,0.2-6.6-1.9-6.6-5.9C131.7,444.1,138.7,430.7,142.9,427.7z M140.2,448c1.1-0.4,2.3-1.1,3-2c2.5-3.2,4.9-6.5,7.2-9.9
		c0.6-1,1-2.4,0.9-3.5c-0.2-2.1-3.1-3.4-4.3-1.8c-3.4,4.7-6.4,9.7-9.5,14.5c-0.1,0.2-0.1,0.4-0.1,0.6
		C137.4,447.8,138.3,448.6,140.2,448z"/>
	<path d="M26.5,296.2c-3.4-0.6-5.2-2.3-5.6-5.2c-0.4-3,0.9-5.4,4.1-6.7c2.4-0.9,4.9-1.6,7.4-2.1c5.2-1.1,10.4-2.3,15.7-2.7
		s8.1,3.7,7,8.9c-0.9,4.1-2.7,5.9-7.2,6.4c-5.9,0.7-11.8,1-18.3,1.6C29,296.4,27.8,296.4,26.5,296.2z M48.5,289.2c1.5-0.2,3-1,2.6-3
		c-0.4-1.9-1.6-2.3-3.4-2c-5.5,1-11.1,1.8-16.6,2.7c-0.7,0.1-1.4,0.2-1.9,0.6c-0.8,0.7-1.5,1.7-2.2,2.5c1,0.6,1.9,1.3,2.9,1.7
		c0.6,0.2,1.3,0,2,0c0,0,0,0.1,0,0.2C37.4,291,42.9,290.2,48.5,289.2z"/>
	<path d="M92.3,366.2c1.2,2.7,0.5,5.9-1.7,8.1c-0.8,0.7-1.6,1.3-2.5,1.9c-3.6,2.4-7.2,4.9-11,7.1c-2.1,1.2-4.5,2.4-6.8,2.7
		c-4.7,0.7-8.2-3.2-7-7.8c0.6-2.3,2.1-4.8,4-6.2c4.3-3.3,9-6,13.6-8.8c1.3-0.8,3-1,3.9-1.2C88.5,362.1,91,363.1,92.3,366.2z
		 M73.9,378.3c3.6-1.9,7.2-3.8,10.8-5.8c0.9-0.5,2-1,2.5-1.8s1-2.2,0.6-2.9c-0.4-0.8-1.8-1.2-2.8-1.4c-0.6-0.1-1.5,0.3-2.1,0.7
		c-4.3,2.5-8.5,5-12.7,7.6c-0.7,0.4-1.5,1.1-1.8,1.8c-0.3,0.6-0.4,1.6-0.1,2.3c0.2,0.5,1.2,0.7,1.8,1.1
		C71.5,379.3,72.8,378.9,73.9,378.3z"/>
	<path d="M383.8,375.2c3.4,1.8,4,6.1,2.1,9.6s-5.6,5-9.2,3.7c-4.6-1.7-9.1-3.4-13.6-5.2c-1.4-0.5-2.6-1.2-3.8-2
		c-3.2-2.3-4.6-5.6-3.6-8.6s3.7-4.5,9.2-4.5C370.8,369,377.4,371.8,383.8,375.2z M381.1,380.5c0.7-1.6-0.4-3-2-3.5
		c-4.6-1.4-9.1-2.8-13.7-3.8c-1-0.2-3,0.9-3.3,1.8c-0.3,0.9,0.6,3,1.5,3.4c4.6,1.8,9.3,3.3,14.4,5
		C379.2,382.4,380.7,381.7,381.1,380.5z"/>
	<path d="M364.9,209.4c-1.1-2.9-0.5-5.9,2.2-7.9c6.1-4.6,13.1-6.5,20.7-5.9c3.5,0.2,6.2,3.3,6.5,6.6c0.3,4-1.3,6.5-5.3,7.7
		c-1.6,0.5-3.3,0.8-5,1.2c-4,1.1-8.1,2.1-11.2,2.9C368.4,214.1,366.1,212.6,364.9,209.4z M387.6,205c0.8-0.3,1.9-2.3,1.6-2.8
		c-0.5-0.9-1.9-1.6-3-1.9c-0.8-0.2-1.8,0.3-2.7,0.6c-3.6,1.2-7.3,2.2-10.8,3.6c-1,0.4-2.1,1.9-2.2,3c-0.1,0.6,1.7,1.5,2.6,2.2
		C378.3,208.1,383.1,206.7,387.6,205z"/>
	<path d="M120.9,410.2c-5.3,4.5-10.6,9.2-16.5,12.9c-4.1,2.6-9.6-1.4-8.8-6.3c0.4-2.6,2.1-5.3,4-7.2c3.3-3.4,7.2-6.2,10.9-9.2
		c0.9-0.8,2.1-1.4,3.2-1.8c4.5-1.6,9.2,1.7,9.7,6.6C122.6,406.8,122.3,409,120.9,410.2z M104.9,417.7c1.2-0.4,2.2-1.2,3.1-2
		c3-2.8,6-5.6,8.7-8.6c0.6-0.7,0.7-2.7,0.2-3.2c-0.6-0.7-2.6-0.9-3.2-0.4c-4.1,3.3-7.9,6.8-11.8,10.3c-0.4,0.4-0.5,1-0.6,1.3
		C101.4,417.1,103.3,418.4,104.9,417.7z"/>
	<path d="M370.3,339.8c-3.8-1.1-5.3-4.5-4.7-7.9c0.5-3.2,3.2-5.6,7.1-5.2c6.6,0.8,13.1,2.2,19.6,3.6c2.3,0.5,3.7,2.5,4,5
		c0.6,5.1-2.3,8.1-10.8,8C382,342.6,376,341.6,370.3,339.8z M389.2,339.2c1-0.6,2.4-1.5,2.4-2.3c0.1-1-0.9-2.6-1.8-3
		c-1.8-0.8-3.8-0.9-5.8-1.1c-3-0.3-6.1-0.6-9.1-0.5c-1.2,0.1-3.1,1.1-3.4,2.1c-0.6,1.8,1.1,2.9,2.8,3.2c4.1,0.7,8.3,1.3,11.9,1.8
		C387.6,339.3,388.6,339.6,389.2,339.2z"/>
	<path d="M359.2,431.9c-5.6-2.9-11.4-5.7-16.8-8.9c-2.4-1.4-2.8-4.2-1.9-6.9c1-2.6,3.2-4,5.8-3.9c8,0.3,14.8,3.8,20.5,9.3
		c1.9,1.9,1.8,4.6,0.7,7c-1.2,2.6-3.4,3.8-6.9,3.6C360.6,432,359.8,432.2,359.2,431.9z M362.2,425.2c0.1-0.8-0.1-2.2-0.7-2.5
		c-4-2.4-8.1-4.9-12.3-6.9c-1-0.5-2.7,0.7-4,1.1c0.8,1.1,1.3,2.6,2.3,3.2c3,1.9,6.2,3.5,9.4,5.2c1,0.5,2.1,0.8,3.4,1.3
		C360.9,426.2,361.9,425.8,362.2,425.2z"/>
	<path d="M390.6,299.3c-1,0-2.1,0-3.2-0.1c-3.6-0.5-7.3-0.8-10.9-1.8c-3-0.8-4.3-3.4-4.1-6.4c0.2-2.8,1.9-4.8,4.4-4.9
		c6.6-0.2,13.2-0.1,19.8,0.5c3.6,0.4,5.1,3.4,4.8,7c-0.3,3.3-2.3,5.3-6,5.7C393.8,299.4,392.2,299.3,390.6,299.3L390.6,299.3z
		 M382.1,289.7c-1.4-0.1-2.9,0-4.2,0.4c-0.7,0.2-1.6,1.4-1.5,1.9c0.2,0.8,1.2,1.9,1.9,2c4.4,0.3,8.7,0.5,13.1,0.5
		c1.5,0,3.4-0.5,2.9-2.5c-0.3-0.9-2-1.6-3.2-2c-1-0.4-2.3-0.1-3.4-0.1c0,0.1,0,0.1,0,0.2C385.8,290,383.9,289.7,382.1,289.7z"/>
	<path class="st0" d="M339.2,329.9c-3.7,18.5-10.6,35.6-21.9,50.8c-13.8,18.6-28.8,36.3-45.3,52.6c-6.6,6.6-12.8,13.6-19.1,20.5
		c-1.6,1.7-3,2.1-5.3,1.2c-13.1-5.1-25.5-11.4-37.3-19.1c-35.2-23-65.1-51.7-91.3-84.5c-12-15-21.6-31.6-30.4-48.6
		c-4.6-8.7-9.5-17.5-12.4-26.9c-6.8-22.3-7.4-45.1-1.6-68c3-12,7.4-23.2,16.2-32.2c7.1-7.2,14.4-14.5,24.5-17.3
		c16.6-4.6,33.4-5,50,0.1c13,4,24.3,10.8,33.5,21c1.1,1.3,3.6,2.3,5.1,2c1.4-0.3,2.6-2.5,3.3-4.1c0.8-1.9,0.9-4.1,1.5-6.1
		c3.7-12.2,10.5-22.2,22.2-28c7.6-3.8,16-4.5,24.4-5.1c26.3-1.8,58.8,15.1,70.4,42.5c12.6,29.8,21,60.3,19.4,93
		C344.3,292.7,343.1,311.6,339.2,329.9z M184.4,273.2c-11,0.6-21.4,3.5-31,9.1c-1.4,0.8-2.7,1.7-3.9,2.8c-2.1,1.9-2.3,4.6-0.7,6.6
		c1.9,2.2,4.5,2.7,6.8,0.5c11-10.4,24.7-12.4,38.9-13.1c0.4,0,0.9,0.2,1.4,0.9c-1,0.3-2.1,0.7-3.2,1c-7.4,2.3-14.1,6.2-20.5,10.5
		c-3.5,2.4-7.1,4.7-10.7,7.1c-0.8,0.4-1.5,0.9-2.1,1.5c-2.3,2.1-2.8,4.9-1.3,7.2c1.4,2.1,4.7,2.9,7.2,1.4c2.2-1.3,4.2-3,6-4.8
		c11.7-11.4,25.9-17,41.9-18.9c1.8-0.3,2.4,0.7,2.8,2.1c1.1,4.3,2.3,8.5,3.5,12.7c1,3.7,2.2,7.4,3.4,11.4c-4.6,1-9,1.9-13.4,3
		c-11.1,2.7-21.7,6.6-31.5,12.5c-2.1,1.2-4.1,2.9-5.8,4.6c-1.7,1.6-1.9,3.8-0.7,5.8c1.3,2.1,3.4,1.9,5.4,1.4
		c1.2-0.3,2.3-0.9,3.4-1.5c21.4-12.9,44.3-19.9,69.5-17.2c9.9,1,19.5,3.1,27.8,9.3c3.3,2.5,5.6,2.3,7,0.2c1.6-2.3,0.7-5-2.6-7.2
		c-2.2-1.5-4.6-2.7-7-3.9c-1.4-0.7-1.9-1.4-1.3-2.9c4.4-10.8,5-22.1,4.6-33.5c-0.1-2.4,0.2-3.6,3-4.2c8.1-1.9,14-6.7,17-14.6
		c1.2-3.1,0.6-4.9-1.6-5.8c-2.2-0.8-4.1,0-5.3,3c-2.4,6.4-7.3,9.4-14.1,11c-0.9-3.9-1.9-7.6-2.7-11.4c-0.1-0.4,1.2-1.2,2-1.5
		c5.1-1.6,10-3.8,12.7-8.6c1.6-2.8,2.4-6.3,2.9-9.6c0.2-1.1-1.2-3.2-2.3-3.6c-1.8-0.7-3.3,0.8-3.6,2.7c-1.1,8-7.4,10.8-13.7,13.9
		c-1.5-3.1-2.9-6.1-4.4-9.3c0.7-0.5,1.4-1.1,2.2-1.6c6-3.8,8.5-9.5,9.2-16.3c0.1-0.9,0-2.1-0.4-2.8c-0.5-0.8-1.5-1.8-2.4-2
		c-0.8-0.1-2.1,0.7-2.5,1.4c-0.8,1.5-1.3,3.2-1.5,4.9c-0.6,5-3.2,8.6-7.6,11.6c-1.9-2.3-3.8-4.5-5.7-6.7
		c-4.9-5.7-10.4-10.6-18.1-11.8c-14.5-2.3-25,4.7-29.4,19.5c-2.6,8.8-2.5,17.8-1.3,26.9c0.1,0.6,0.1,1.2,0.2,2.3
		c-3.1-1.5-6-2.7-8.8-4c-16.9-7.7-34.3-9-52.2-4.5c-2.4,0.6-4.7,2-6.8,3.4c-1.9,1.3-2.4,3.5-1.6,5.7c0.8,2.1,2.7,2.8,4.7,2.5
		c3.4-0.5,6.9-1.1,10.3-2c13.8-3.7,27.4-3.1,40.9,1.1c0.6,0.2,1.1,0.4,1.6,0.7c0.3,0.1,0.4,0.3,0.9,0.7
		C194.5,272.8,189.5,272.5,184.4,273.2z M196.5,386.7c5.8,7.7,13.8,12.6,22.5,16.1c8.4,3.3,17.1,5.8,25.7,8.6c0.5,0.1,1,0.3,1.6,0.5
		c-0.6,2.3-1.2,4.5-1.6,6.7c-0.3,2-0.2,4.1,2,4.9c2.2,0.9,4.6,0.5,5.9-1.5s2.5-4.4,2.8-6.7c1-7.2,0.3-14.3-2.4-21.1
		c-0.4-1-0.8-2.4-1.6-2.9c-1.4-0.9-3.4-1.8-4.7-1.4c-1,0.3-2.2,2.6-2.1,4c0.2,2.7,1.1,5.3,1.9,8.8c-5.5-1.4-10.7-2.4-15.7-4.1
		c-4.5-1.5-8.9-3.5-13.1-5.7c-6.8-3.5-12.4-8.4-16.1-15.3c-3.2-6-6.3-11.9-9.3-18c-0.8-1.6-0.8-3.5-1.1-5.3
		c-0.3-1.9,0.2-2.9,2.4-2.6c1,0.1,1.9,0,2.9,0c2.1-0.1,3.9-0.7,4.2-3.1c0.3-2.5-1.3-3.8-3.3-4.4c-4.3-1.4-8.7-1.3-12.9,0.2
		c-5.8,2.1-10.9,5.5-14.8,10.4c-1.4,1.8-2.4,4-3,6.1c-0.7,2.2,0.2,4.4,2.5,5.4c2.2,1,4.4,0.4,5.8-1.6c1.2-1.8,2-3.9,3.2-5.7
		c1-1.5,2.2-2.7,3.3-4c0.3,0.2,0.6,0.3,0.9,0.5C183.4,367.6,189.7,377.2,196.5,386.7z M110.7,233.9c0.6,2.2,2.2,4.2,5,4.5
		c3,0.3,5.1-1.2,5.1-4.3c0-2.1-0.1-4.3-0.9-6.2c-5.4-13.1,1.7-31.2,19-38.7c7.3-3.2,14.8-4.6,22.5-1.7c2.2,0.9,4.1,2.6,6.3,3.8
		c1.3,0.7,2.9,1.6,4.2,1.4c1.2-0.2,3.1-1.5,3.3-2.5c0.2-1.6-0.2-3.9-1.3-5.1c-3.4-3.9-8.1-6-13.1-7.1c-20.6-4.6-44.9,9.2-51.3,29.4
		c-1.1,3.7-1.4,7.6-2.2,12.1C108.3,224.1,109.3,229.1,110.7,233.9z M291.2,199.7c0.5,1.6,0.8,3.4,1.7,4.8c0.7,1,2.4,2,3.4,1.8
		c1.2-0.2,2.7-1.8,2.8-2.9c0.2-2.5-0.1-5.2-0.8-7.6c-6.8-22.7-34.7-41-61.2-26.8c-4.1,2.2-7.6,5.5-10.9,8.7
		c-2.5,2.5-2.2,5.6-0.1,7.7c2.1,2.1,4.9,2.1,7.7-0.1c0.9-0.7,1.8-1.4,2.5-2.3c5.7-6.8,13.5-8.8,20.4-9.2
		C273.4,173.8,287.6,185,291.2,199.7z M226.7,329.6c-3.7,1.7-5.3,5-4.9,9.2c0.4,3.9,2.6,6.6,6.2,7.8c6.5,2.2,12.7,1.4,18.1-2.9
		c3.2-2.6,4.6-6.1,3.5-10.2c-1-3.9-4.2-5.2-7.7-5.8c-1.8-0.3-3.6-0.5-5.4-0.8c-0.1-0.1-0.1-0.3-0.2-0.4
		C233.1,327.5,229.7,328.2,226.7,329.6z M212,411.7c0.3-2.2-0.7-3.8-2.9-4.6c-3.1-1.2-6.4-2.1-9.2-3.7c-3.6-2-6.1-5.3-7.8-9.2
		c-0.7-1.4-1.6-2.9-2.8-3.8c-0.9-0.7-2.8-0.7-3.9-0.3c-0.7,0.3-1.2,2.1-1.1,3.1c1.3,10,13.7,21.1,24,21.3
		C209.9,414.4,211.8,414.1,212,411.7z"/>
	<path class="st0" d="M262,88c-9.9,0.3-19.8,0.3-29.7,1.1c-18,1.4-35.5,5.8-53,10.1c-26,6.4-51.5,14.4-76,25.4
		c-7.7,3.5-15.3,7.1-23.4,10.8c-0.5-2.6-0.9-5.2-1.6-7.6c-0.6-2.2,0.3-3.2,2.1-4.3c14.1-8.2,28.6-15.4,43.8-21.5
		c17.2-6.9,34.6-13.3,52.6-18.1c13.7-3.6,27.8-5.6,41.8-7.7c13-2,25.9-2.9,39-1.5c1.1,0.1,2.6,0.7,3,1.5c1.8,3.6,3.4,7.3,5.4,11.7
		C264.1,87.9,263.1,87.8,262,88z"/>
	<path class="st0" d="M349.2,150.3c-2.2,5.5-5.9,9.8-11.5,12.1c-2.1,0.9-3.8,0.3-5-1.5c-1.1-1.8-0.6-3.5,0.8-4.9
		c0.9-0.8,2.1-1.4,2.9-2.3c1.6-1.7,3.5-3.3,4.6-5.3c3.8-7.3,1-16.6-6.5-22.2c-5.9-4.4-12.8-6.3-19.7-8.1c-4.7-1.2-9.5-2.1-14.2-3.3
		c-2.1-0.6-3.9-1.9-3.5-4.5c0.4-2.7,2.6-3.1,4.8-3c13.7,0.8,26.5,4.3,37.5,12.8c6.9,5.4,11.4,12.2,12,21.5
		C350.6,144.5,350.2,147.6,349.2,150.3z"/>
	<path class="st0" d="M280.4,113c-2.8-0.3-5.6-0.3-8.2-1c-1-0.2-2.3-1.8-2.5-2.9c-0.1-0.9,1-2.6,2-3c4.9-2.1,10.1-2.3,15-0.2
		c1.1,0.4,2.3,2.5,2.1,3.4c-0.3,1.3-1.9,2.5-3.2,3c-1.5,0.6-3.4,0.3-5.1,0.4C280.5,112.8,280.5,112.9,280.4,113z"/>
	<path class="st0" d="M179.9,477.3c2-4.2,4-8.5,6.1-12.6c1.8-3.6,4.1-5,6-3.9c1.8,1,1.8,3.4,0,7c-2,4-4,8-6.1,11.9
		c-0.7,1.2-1.5,2.5-2.6,3.3c-0.7,0.6-2.2,0.7-3.1,0.4c-0.7-0.2-1.1-1.5-1.5-2.2C179.2,479.6,179.4,478.4,179.9,477.3z"/>
	<path class="st0" d="M64.6,327.7c0.1,1-1.1,2.6-2.2,3.1c-3.2,1.6-6.6,2.8-9.9,4.2c-2.1,0.9-4.2,1.9-6.3,2.7c-2,0.8-4.3,1.3-5.1-1.1
		c-0.3-0.9,1.6-3.1,2.9-3.8c4.8-2.5,9.8-4.6,14.7-6.8c0.9-0.4,1.8-0.5,3.5-1C62.9,325.7,64.5,326.6,64.6,327.7z"/>
	<path class="st0" d="M397.6,243.3c0.9,0.4,1.7,1.9,1.7,2.9c0,0.8-1.1,1.9-2,2.4c-0.8,0.5-2,0.5-3,0.6c-4.2,0.4-8.4,0.6-12.5,1.1
		c-2,0.2-3.5-0.1-4.1-2.1c-0.7-2.1,0.9-3.1,2.4-3.6c3.7-1.2,7.5-2,11-2.9C393.6,242.2,395.7,242.5,397.6,243.3z"/>
	<path class="st0" d="M137.4,445.3c3.1-4.9,6.1-9.8,9.5-14.5c1.2-1.6,4.1-0.3,4.3,1.8c0.1,1.2-0.3,2.5-0.9,3.5
		c-2.3,3.4-4.7,6.7-7.2,9.9c-0.7,0.9-1.9,1.6-3,2c-1.8,0.6-2.8-0.2-2.7-2.1C137.5,445.7,137.4,445.5,137.4,445.3z"/>
	<path class="st0" d="M31.9,291.7c-0.7,0-1.4,0.2-2,0c-1-0.4-1.9-1.1-2.9-1.7c0.7-0.8,1.4-1.8,2.2-2.5c0.5-0.4,1.3-0.5,1.9-0.6
		c5.5-0.9,11.1-1.8,16.6-2.7c1.8-0.3,3,0.1,3.4,2c0.4,2-1.1,2.7-2.6,3c-5.5,0.9-11.1,1.8-16.6,2.7C31.9,291.8,31.9,291.8,31.9,291.7
		z"/>
	<path class="st0" d="M68.3,378.8c-0.3-0.6-0.2-1.6,0.1-2.3c0.4-0.7,1.1-1.4,1.8-1.8c4.2-2.6,8.4-5.1,12.7-7.6
		c0.6-0.4,1.5-0.8,2.1-0.7c1,0.2,2.4,0.6,2.8,1.4c0.4,0.7-0.1,2.1-0.6,2.9s-1.6,1.3-2.5,1.8c-3.6,2-7.2,3.9-10.8,5.8
		c-1.1,0.6-2.4,1-3.8,1.6C69.5,379.6,68.6,379.3,68.3,378.8z"/>
	<path class="st0" d="M363.6,378.5c-0.9-0.4-1.8-2.5-1.5-3.4c0.3-1,2.3-2,3.3-1.8c4.6,1,9.2,2.4,13.7,3.8c1.7,0.5,2.7,1.9,2,3.5
		c-0.5,1.1-1.9,1.8-3.1,2.8C372.9,381.7,368.2,380.2,363.6,378.5z"/>
	<path class="st0" d="M370.6,207.5c0.1-1.1,1.2-2.6,2.2-3c3.5-1.4,7.2-2.4,10.8-3.6c0.9-0.3,1.9-0.8,2.7-0.6c1.1,0.3,2.5,1,3,1.9
		c0.3,0.5-0.8,2.5-1.6,2.8c-4.6,1.7-9.4,3.1-14.6,4.7C372.2,209,370.4,208.1,370.6,207.5z"/>
	<path class="st0" d="M102,413.8c3.9-3.5,7.8-7,11.8-10.3c0.6-0.5,2.6-0.2,3.2,0.4c0.5,0.6,0.4,2.5-0.2,3.2c-2.8,3-5.7,5.8-8.7,8.6
		c-0.9,0.8-2,1.6-3.1,2c-1.8,0.7-3.7-0.6-3.7-2.6C101.5,414.8,101.6,414.1,102,413.8z"/>
	<path class="st0" d="M374.4,337.6c-1.7-0.3-3.4-1.4-2.8-3.2c0.3-1,2.2-2,3.4-2.1c3-0.2,6.1,0.2,9.1,0.5c1.9,0.2,4,0.4,5.8,1.1
		c0.9,0.3,1.8,2,1.8,3c0,0.8-1.4,1.8-2.4,2.3c-0.7,0.3-1.7,0.1-3.1,0.2C382.5,338.9,378.4,338.3,374.4,337.6z"/>
	<path class="st0" d="M356.8,425.3c-3.1-1.7-6.4-3.3-9.4-5.2c-1-0.7-1.5-2.1-2.3-3.2c1.4-0.4,3.1-1.5,4-1.1c4.2,2,8.3,4.4,12.3,6.9
		c0.6,0.4,0.9,1.7,0.7,2.5c-0.1,0.6-1.2,1-1.8,1.4C359,426.1,357.8,425.8,356.8,425.3z"/>
	<path class="st0" d="M387.6,289.9c1.1,0,2.4-0.2,3.4,0.1c1.2,0.4,3,1.1,3.2,2c0.5,1.9-1.3,2.5-2.9,2.5c-4.4,0-8.7-0.2-13.1-0.5
		c-0.7-0.1-1.7-1.2-1.9-2c-0.2-0.5,0.8-1.7,1.5-1.9c1.3-0.4,2.8-0.4,4.2-0.4c1.9,0,3.8,0.2,5.7,0.4C387.7,290,387.7,290,387.6,289.9
		z"/>
	<path d="M199.1,271.8c-0.5-0.3-1.1-0.5-1.6-0.7c-13.6-4.2-27.1-4.8-40.9-1.1c-3.3,0.9-6.8,1.5-10.3,2c-2,0.3-3.9-0.4-4.7-2.5
		c-0.8-2.3-0.3-4.4,1.6-5.7c2.1-1.4,4.4-2.8,6.8-3.4c17.9-4.5,35.3-3.2,52.2,4.5c2.8,1.3,5.6,2.6,8.8,4c-0.1-1-0.1-1.7-0.2-2.3
		c-1.2-9-1.3-18,1.3-26.9c4.4-14.8,14.9-21.8,29.4-19.5c7.8,1.3,13.2,6.2,18.1,11.8c1.9,2.2,3.8,4.5,5.7,6.7c4.4-3,7-6.6,7.6-11.6
		c0.2-1.7,0.7-3.4,1.5-4.9c0.4-0.7,1.8-1.5,2.5-1.4c0.9,0.1,1.9,1.1,2.4,2c0.5,0.8,0.5,1.9,0.4,2.8c-0.7,6.7-3.2,12.5-9.2,16.3
		c-0.7,0.5-1.5,1.1-2.2,1.6c1.5,3.2,2.9,6.2,4.4,9.3c6.3-3.1,12.6-5.9,13.7-13.9c0.2-1.9,1.8-3.4,3.6-2.7c1.1,0.4,2.5,2.5,2.3,3.6
		c-0.5,3.3-1.3,6.7-2.9,9.6c-2.7,4.8-7.6,6.9-12.7,8.6c-0.8,0.3-2.1,1.1-2,1.5c0.7,3.8,1.7,7.6,2.7,11.4c6.7-1.6,11.6-4.6,14.1-11
		c1.2-3.1,3.1-3.9,5.3-3c2.2,0.9,2.8,2.7,1.6,5.8c-3,7.9-8.9,12.7-17,14.6c-2.8,0.6-3.1,1.8-3,4.2c0.4,11.5-0.2,22.7-4.6,33.5
		c-0.6,1.5-0.1,2.2,1.3,2.9c2.4,1.2,4.8,2.4,7,3.9c3.2,2.2,4.1,4.9,2.6,7.2c-1.4,2.2-3.7,2.3-7-0.2c-8.2-6.2-17.9-8.3-27.8-9.3
		c-25.2-2.6-48.1,4.3-69.5,17.2c-1.1,0.6-2.2,1.2-3.4,1.5c-2,0.6-4.1,0.7-5.4-1.4c-1.1-2-0.9-4.2,0.7-5.8c1.8-1.7,3.7-3.3,5.8-4.6
		c9.8-5.9,20.4-9.8,31.5-12.5c4.4-1.1,8.9-2,13.4-3c-1.2-4-2.3-7.7-3.4-11.4c-1.2-4.2-2.3-8.5-3.5-12.7c-0.4-1.3-1-2.3-2.8-2.1
		c-16,1.8-30.2,7.5-41.9,18.9c-1.8,1.8-3.8,3.5-6,4.8c-2.6,1.6-5.8,0.7-7.2-1.4c-1.5-2.4-1-5.1,1.3-7.2c0.7-0.5,1.4-1,2.1-1.5
		c3.5-2.4,7.1-4.7,10.7-7.1c6.4-4.3,13-8.2,20.5-10.5c1-0.3,2.1-0.7,3.2-1c-0.6-0.7-1-0.9-1.4-0.9c-14.2,0.7-27.9,2.7-38.9,13.1
		c-2.3,2.1-4.9,1.7-6.8-0.5c-1.6-1.9-1.4-4.7,0.7-6.6c1.2-1,2.5-2,3.9-2.8c9.6-5.5,20-8.4,31-9.1c5-0.3,10-0.1,15.4-0.1
		C199.4,272.4,199.2,272.1,199.1,271.8z M259.7,243.9c-3.8-5.5-8.5-10-14.7-12.8c-10-4.6-19.5-0.3-22.9,10.2
		c-2.1,6.4-2.3,13-1.5,19.5c1.9,15.5,4.9,30.9,9.7,45.8c1,3,2.4,4.2,5.8,4.4c9.2,0.6,18.3,1.7,27.5,2.8c2,0.2,2-1.2,2.3-2.2
		c3-9.5,4.6-19.3,4.5-29.3C270.5,268.5,267.6,255.4,259.7,243.9z"/>
	<path d="M181.6,354.8c-1.1,1.4-2.4,2.6-3.3,4c-1.2,1.8-1.9,3.9-3.2,5.7c-1.4,2-3.5,2.6-5.8,1.6s-3.2-3.1-2.5-5.4
		c0.7-2.2,1.6-4.4,3-6.1c3.9-4.9,9-8.3,14.8-10.4c4.2-1.5,8.6-1.5,12.9-0.2c2.1,0.7,3.7,1.9,3.3,4.4c-0.4,2.4-2.1,3-4.2,3.1
		c-1,0.1-2,0.1-2.9,0c-2.2-0.3-2.8,0.7-2.4,2.6c0.3,1.8,0.3,3.7,1.1,5.3c3,6.1,6.1,12.1,9.3,18c3.6,6.8,9.3,11.8,16.1,15.3
		c4.3,2.2,8.6,4.2,13.1,5.7c5,1.7,10.2,2.7,15.7,4.1c-0.8-3.5-1.8-6.1-1.9-8.8c-0.1-1.4,1-3.7,2.1-4c1.3-0.4,3.3,0.6,4.7,1.4
		c0.8,0.5,1.2,1.8,1.6,2.9c2.7,6.8,3.4,13.9,2.4,21.1c-0.4,2.3-1.5,4.7-2.8,6.7c-1.3,2-3.7,2.3-5.9,1.5c-2.2-0.9-2.3-3-2-4.9
		c0.4-2.2,1-4.4,1.6-6.7c-0.6-0.2-1.1-0.3-1.6-0.5c-8.6-2.8-17.3-5.3-25.7-8.6c-8.8-3.4-16.8-8.3-22.5-16.1
		c-6.9-9.3-13.2-18.9-14.2-31C182.1,355.4,181.8,355.2,181.6,354.8z"/>
	<path d="M109.4,207.5c6.4-20.2,30.7-34,51.3-29.4c5,1.1,9.7,3.2,13.1,7.1c1.1,1.2,1.5,3.5,1.3,5.1c-0.1,1-2,2.3-3.3,2.5
		c-1.3,0.2-2.9-0.7-4.2-1.4c-2.1-1.2-4-3-6.3-3.8c-7.7-2.9-15.2-1.5-22.5,1.7c-17.3,7.5-24.3,25.6-19,38.7c0.8,1.9,0.9,4.1,0.9,6.2
		c0,3.1-2.1,4.6-5.1,4.3c-2.8-0.2-4.4-2.2-5-4.5c-1.4-4.9-2.3-9.9-3.3-14.5C108.1,215,108.4,211.1,109.4,207.5z"/>
	<path d="M236.3,183c-0.7,0.9-1.6,1.6-2.5,2.3c-2.8,2.2-5.6,2.2-7.7,0.1c-2.1-2.1-2.4-5.2,0.1-7.7c3.3-3.3,6.9-6.5,10.9-8.7
		c26.5-14.2,54.5,4.2,61.2,26.8c0.7,2.4,1,5.1,0.8,7.6c-0.1,1.1-1.7,2.6-2.8,2.9c-1,0.2-2.7-0.8-3.4-1.8c-1-1.3-1.3-3.1-1.7-4.8
		c-3.5-14.7-17.8-25.9-34.5-25.9C249.7,174.2,242,176.2,236.3,183z"/>
	<path d="M236.5,326.9c1.8,0.3,3.6,0.5,5.4,0.8c3.5,0.6,6.7,1.9,7.7,5.8c1.1,4.1-0.2,7.6-3.5,10.2c-5.5,4.3-11.6,5.1-18.1,2.9
		c-3.6-1.2-5.8-3.8-6.2-7.8c-0.4-4.2,1.2-7.5,4.9-9.2c3-1.4,6.4-2.1,9.6-3.1C236.4,326.6,236.4,326.8,236.5,326.9z M230.9,336
		c-0.8,0.4-1.9,1.7-1.7,2.2c0.3,0.9,1.4,1.8,2.3,2.1c3.4,1,6.6,0.1,9.3-2.1c0.7-0.5,1-1.6,1.5-2.5c-1-0.5-1.9-1.1-2.9-1.5
		c-0.4-0.1-0.9,0-1.4,0c0-0.1-0.1-0.3-0.1-0.4C235.6,334.6,233.2,335.2,230.9,336z"/>
	<path d="M184.4,393.3c-0.2-1,0.4-2.8,1.1-3.1c1.1-0.4,2.9-0.4,3.9,0.3c1.3,0.8,2.2,2.4,2.8,3.8c1.7,3.8,4.2,7.1,7.8,9.2
		c2.9,1.7,6.1,2.6,9.2,3.7c2.2,0.8,3.2,2.4,2.9,4.6c-0.3,2.3-2.2,2.6-3.8,2.7C198,414.3,185.6,403.2,184.4,393.3z"/>
	<path class="st0" d="M265.8,311.5c-0.3,1.1-0.3,2.4-2.3,2.2c-9.1-1.1-18.3-2.3-27.5-2.8c-3.4-0.2-4.8-1.4-5.8-4.4
		c-4.8-15-7.8-30.3-9.7-45.8c-0.8-6.5-0.6-13.1,1.5-19.5c3.4-10.5,12.8-14.8,22.9-10.2c6.2,2.8,10.9,7.3,14.7,12.8
		c8,11.6,10.9,24.6,10.8,38.5C270.5,292.3,268.9,302.1,265.8,311.5z M238.3,290.9c2.1,3.4,4.8,5.7,8.7,6.5
		c6.2,1.2,11.4-2.4,12.5-9.1c2.1-12.6-1.2-24-8.4-34.3c-1.7-2.5-4.9-4.2-7.7-5.6c-4.9-2.3-9.4-0.5-11.4,4.6
		c-1.2,3.2-1.7,6.6-2.1,8.5C230.8,272.9,233.2,282.3,238.3,290.9z"/>
	<path class="st0" d="M238.1,334.3c0.5,0,1-0.2,1.4,0c1,0.4,2,1,2.9,1.5c-0.5,0.8-0.8,1.9-1.5,2.5c-2.7,2.2-5.9,3.1-9.3,2.1
		c-0.9-0.3-2-1.2-2.3-2.1c-0.2-0.5,0.9-1.9,1.7-2.2c2.2-0.9,4.6-1.6,6.9-2.3C237.9,334,237.9,334.1,238.1,334.3z"/>
	<path d="M232,253c2-5.1,6.5-6.9,11.4-4.6c2.8,1.4,6,3.1,7.7,5.6c7.1,10.3,10.4,21.7,8.4,34.3c-1.1,6.7-6.3,10.3-12.5,9.1
		c-3.9-0.8-6.7-3.2-8.7-6.5c-5.2-8.5-7.5-18-8.4-29.4C230.4,259.6,230.8,256.1,232,253z M248.7,261c-1-1.5-2.8-2.8-4.5-3.6
		c-0.8-0.4-2.8,0.2-3.3,1s-0.3,3,0.4,3.5c7.4,5.6,6.6,13.3,5.8,21.1c-0.2,1.8-0.6,3.7,1.7,4.2c2.2,0.5,3.2-1.2,3.6-3.1
		c0.5-2.4,0.7-4.7,0.9-5.9C253.2,271.3,252.1,265.8,248.7,261z"/>
	<path class="st0" d="M252.5,284.2c-0.3,1.9-1.3,3.6-3.6,3.1s-1.9-2.5-1.7-4.2c0.8-7.8,1.6-15.5-5.8-21.1c-0.7-0.5-0.9-2.7-0.4-3.5
		s2.5-1.4,3.3-1c1.7,0.8,3.4,2.1,4.5,3.6c3.3,4.7,4.4,10.2,4.5,17.1C253.2,279.4,252.9,281.8,252.5,284.2z"/>
</g>
</svg>
