<?xml version="1.0" encoding="utf-8"?>
<!-- Generator: Adobe Illustrator 23.0.1, SVG Export Plug-In . SVG Version: 6.00 Build 0)  -->
<svg version="1.1" id="Layer_1" xmlns="http://www.w3.org/2000/svg" xmlns:xlink="http://www.w3.org/1999/xlink" x="0px" y="0px"
	 viewBox="0 0 510 470" style="enable-background:new 0 0 510 470;" xml:space="preserve">
<style type="text/css">
	.st0{fill:#FF4656;}
	.st1{fill:#FFE4E4;}
	.st2{fill:#D5B3B3;}
	.st3{fill:#D4D2D2;}
	.st4{fill:#B1B1B1;}
</style>
<g>
	<g>
		<g>
			<path class="st0" d="M502.1,178.4c-1.1,6.8-1.8,13.6-3.3,20.3c-3.9,18.1-10.3,35.4-18,52.3c-7.1,15.6-15.2,30.8-25.2,44.8
				c-7.1,10-14.7,19.7-22.4,29.3c-4.7,5.7-10,11-15.1,16.3c-4.8,5-9.5,9.9-14.5,14.5c-6.5,5.9-13.1,11.6-19.8,17.2
				c-9.7,8-19.4,16.1-29.4,23.9c-9.3,7.2-18.7,14.4-28.5,21.1c-13.1,9-26.5,17.6-40.1,25.9c-8.4,5-17.3,9.2-26,13.7
				c-0.5,0.3-1.1,0.6-1.6,0.9c-2,0-3.9,0-5.9,0c-3-1.7-6.1-3.2-8.9-5.2c-15.9-11.1-31.8-22.1-47.5-33.5c-13.6-10-27-20.3-40.3-30.6
				c-6.1-4.7-11.9-9.8-17.7-14.9c-6.4-5.6-12.8-11.2-19-17.1c-7-6.7-14.1-13.4-20.8-20.5c-15.4-16.3-29.6-33.7-42.4-52.3
				c-10.2-14.9-19.5-30.3-27.1-46.7c-7.6-16.5-13.5-33.6-16.5-51.6c-1.4-8.7-2.1-17.5-3.2-26.2c-0.1-0.5-0.4-1.1-0.6-1.6
				c0-6.5,0-12.9,0-19.4c0.2-0.7,0.6-1.3,0.6-2c0.9-18.6,4.6-36.5,12-53.7c4.1-9.6,9.4-18.4,16-26.3c9-10.8,19.7-19.8,32-26.8
				c12.9-7.3,26.4-12.9,40.9-16c4.7-0.9,9.4-1.5,14.1-2.1c2.8-0.3,5.5-0.3,8.3-0.5c0.5,0,1-0.4,1.5-0.6c1.4,0,2.7,0,4.1,0
				c0.7,0.2,1.5,0.6,2.2,0.6c15.9,0.3,31,4.1,45.6,10.3c9.2,3.9,17.9,8.7,26.2,14.1c7.4,4.8,14.1,10.7,20,17.5
				c8.3,9.5,15,20.1,20.9,31.2c0.6,1.1,1.3,2.1,2.2,3.5c2.3-3.6,4.2-7,6.5-10.2c3.8-5.4,7.6-10.9,11.8-16c3.8-4.6,7.8-9,12.1-13
				c10.8-10.1,22.9-18.3,36.5-24.2c9.6-4.2,19.7-7,30.1-8.7c3.5-0.6,7.1-0.7,10.7-1c2.8-0.2,5.7-0.4,8.5-0.4
				c21.6,0.3,42.1,5,61.1,15.6c7.9,4.4,15.2,9.6,21.9,15.6C466.6,57,476.4,70,484.3,84.7c7.1,13.2,12.1,27.2,15,41.9
				c1.4,7.3,2.1,14.7,3.2,22.1c0,0.4,0.3,0.7,0.5,1.1c0,7.4,0,14.7,0,22.1C502.6,174,502.3,176.2,502.1,178.4z"/>
		</g>
	</g>
	<g>
		<g>
			<g>
				<path class="st1" d="M333,140.4c20.2,2.6,38.9,9.3,55.9,20.4c32.2,20.9,52.2,50.2,59.7,87.9c1.1,5.8,1.4,11.7,2.1,17.6
					c0,0.4,0.2,0.9,0.3,1.3c0,2.3,0,4.5,0,6.8c-0.7,3.9-1.2,7.7-2.1,11.5c-1.9,7.6-6.5,13.8-11.3,19.8c-21.3,27-46,50.6-72.8,72.1
					c-27.3,22-56.3,41.6-85.8,60.3c-3.3,2.1-6.9,3.9-10.4,5.7c-8.5,4.3-16.9,4-24.9-0.9c-8.2-5.1-16.2-10.6-24.2-16
					c-1.9-1.3-3.7-2.8-5.3-4.5c-4.9-5-6.2-11.2-5.9-18c1.3-24.5,2.4-48.9,3.9-73.3c1.2-20.5,2.9-40.9,4.4-61.3
					c1.4-18.5,2.9-37.1,4.4-55.6c0.5-5.3,2.3-7.1,7.6-6.9c5.8,0.3,11.7,0.8,17.5,1.1c7.8,0.4,15.4-0.3,22.8-3.1
					c4.1-1.6,7.1-0.6,9.8,2.8c1,1.2,1.7,2.5,2.6,3.7c4.9,6.9,16.5,7.4,22,1c2.6-3,2.9-6.5,2.2-10.2c0.8,0.2,1.7,0.3,2.5,0.6
					c13.8,5.7,28.1,8.8,43,7.9c13.8-0.8,26.7-4.6,38.6-11.6c2-1.2,3.8-2.8,5.4-4.6c2.6-3,3-6.6,0.9-9.8c-1.9-2.9-4.2-5.6-6.8-7.7
					c-10.2-8.3-21.6-14.1-34.6-16.3c-13.7-2.3-26.7,0.1-39.2,5.7c-4,1.7-8,3.9-11.5,6.5c-6,4.4-7.5,10-4.7,16.9
					c1.4,3.5,3.5,6.7,5.3,10.1c0.5,0.8,0.8,1.6,1.2,2.4c-2.5-1.3-4.5,0-6.6,1c-2.6,1.2-5.1,2.7-8.2,2.3c0-0.2-0.1-0.4,0-0.5
					c3.2-3.8,2.5-5.9-1.4-9.5c-2.7-2.6-2.7-2.6-1-5.8c3.5-6.5,2.5-11-3.2-15.6c-8-6.4-16.5-12.1-26.6-15c-2.3-0.7-4.5-2-6.7-3
					c-0.1-0.3-0.1-0.5-0.2-0.8c3-1.6,6-3.4,9.2-4.8c14.8-6.5,30.3-10.4,46.5-11.3c0.5,0,1.1-0.2,1.7-0.3c4.4,0,8.7,0,13.1,0
					C325.8,139.8,329.4,140.2,333,140.4z"/>
				<path class="st1" d="M140.5,230.2c-0.4,4.4-1.1,4.3,2.9,6.2c4.7,2.3,6.1,5.4,4.4,10.3c-0.6,1.9-1.6,3.7-2.2,5.6
					c-0.8,2.6-1.7,5.3-1.7,8c0.2,10.6,0.5,21.3,1,31.9c0.9,17.8,1.9,35.5,3,53.3c0.3,5.6,0.9,11.2,1.2,16.8c0.1,1.7-0.2,3.5-0.7,5.2
					c-0.4,1.1-1.4,1.5-2.7,0.6c-6-3.8-11.7-7.9-16.6-13.1c-8.7-9.2-13-20.1-11.6-32.8c1.2-10.5,1.5-21.1-0.1-31.6
					c-3.2-21.1-3.8-42.3-4.9-63.5c-0.1-0.5,0-0.9,0.1-1.5c1.5,1.3,2.5-0.7,3.9,0.4c1.6,1.3,2.7,3.4,4.5,2.3c2.5-1.5,6.2-0.3,9,0
					c3.2,0.3,7.9,0,11.3,0C141.3,228.9,140.5,229.8,140.5,230.2z"/>
			</g>
		</g>
		<g>
			<g>
				<path class="st2" d="M128.7,228.7c-2.9-0.5-3.2-0.3-5,0c0.2-1.8,0.5-3.7,0.4-5.6c-0.1-3.1,0.4-6.1,1.9-8.8c0.2,0,0.3,0,0.5,0
					C127.1,218.9,128.7,228.4,128.7,228.7z"/>
			</g>
		</g>
		<g>
			<path class="st2" d="M141.8,224.7c0,1.5,0,3,0,4.5c-1.9,0-3.4,0-5.4,0c0-0.6-0.5-1.2-0.5-1.8c0.3-3.5,0.6-6.9,0.9-10.4
				c0.2,0,0.3,0,0.5,0C138.8,219.5,140.3,222.1,141.8,224.7z"/>
		</g>
		<g>
			<path d="M233.9,449.9c-6.4-4.2-12.6-8.7-18.8-13.2c-9.5-6.9-19.1-13.7-28.6-20.7c-8.5-6.3-17-12.7-25.4-19.2
				c-5.4-4.2-10.6-8.6-15.8-13c-6.2-5.2-12.2-10.4-18.3-15.6c-1.8-1.6-3.6-3.3-5.4-5c-8.6-8.3-17.3-16.5-25.5-25.1
				c-6.6-6.9-12.7-14.4-19-21.6C66,303.7,56.2,290,46.9,275.9c-8.1-12.3-15.1-25.1-21.3-38.4C19.4,224,14.4,210.1,11,195.6
				c-1.6-6.8-2.7-13.8-3.7-20.8c-0.7-5.4-0.9-10.8-1.4-16.2c0-0.3-0.3-0.5-0.4-0.7c0-6.6,0-13.2,0-19.8c0.1-0.6,0.4-1.3,0.4-2
				c0.2-9,1.4-17.9,3.4-26.6c1.7-7.3,3.6-14.7,6.4-21.7c3-7.5,6.8-14.7,10.8-21.7c5.2-9,12.2-16.6,19.9-23.6
				c6.2-5.7,13.2-10.6,20.6-14.8C77.2,22,87.7,17.1,99,14.1c6.3-1.7,12.8-2.9,19.2-4c4.2-0.7,8.5-0.7,12.7-1c0.5,0,0.9-0.2,1.4-0.4
				c1.5,0,3,0,4.5,0c0.8,0.1,1.5,0.4,2.3,0.4c10.3,0,20.2,2,30.1,4.7c8.8,2.4,17.1,5.8,25.2,9.9c9.1,4.6,18,9.9,25.9,16.4
				c7,5.8,13.4,12.4,18.4,20c5.5,8.3,10.6,17,15.8,25.5c0.1,0.3,0.2,0.5,0.4,0.8c3.5-5.5,6.7-10.9,10.4-16
				c3.3-4.7,7.1-9.1,10.8-13.5c2.7-3.2,5.6-6.2,8.6-9.1c7.7-7.3,16-13.6,25.1-18.9c10.4-6.1,21.6-10.4,33.3-13.2
				c5.2-1.2,10.6-1.8,15.9-2.4c4.6-0.5,9.3-1,14-0.9c12.2,0.3,24.2,1.7,35.9,5.1c12.2,3.5,23.4,8.8,33.9,15.7
				c4.8,3.1,9.2,7,13.6,10.7c9.5,8,17.3,17.7,24,28.1c8.2,12.8,14.6,26.5,18.5,41.2c2,7.8,3.7,15.7,5.3,23.6c0.7,3.4,0.7,7.1,1,10.6
				c0,0.5,0.2,0.9,0.4,1.4c0,7.5,0,15,0,22.5c-0.3,2.2-0.6,4.4-0.9,6.5c-1.1,6.8-1.7,13.8-3.3,20.5c-2.2,9.2-4.9,18.4-8,27.4
				c-2.9,8.5-6.6,16.8-10.2,25.1c-2.9,6.8-6.1,13.4-9.6,19.9c-6.1,11.2-12.7,22.1-20.4,32.3c-5.4,7.2-10.8,14.4-16.5,21.4
				c-3.9,4.8-8.2,9.2-12.4,13.8c-2.6,2.9-5.2,5.8-8,8.5c-6.9,6.5-13.7,13.2-20.8,19.4c-7.6,6.7-15.5,13.1-23.4,19.4
				c-11.7,9.3-23.3,18.8-35.4,27.6c-12.8,9.3-26.1,18.2-39.5,26.6c-10.9,6.8-22.2,12.8-33.4,19c-1.7,0.9-3.7,1.5-5.6,2.2
				c-2,0-3.9,0-5.9,0C245.5,458.4,240.2,453.6,233.9,449.9z M202.6,337.5c0.7-10.8,0.9-21.7,1.5-32.6c0.7-11,1.5-22,2.5-33
				c1.1-13.1,2.5-26.3,3.8-39.4c0.6-6.7,1.4-13.5,1.7-20.2c0.3-6.8-2.6-12.3-8-16.5c-2.5-2-5.1-4-7.1-6.5c-5.5-6.7-4.3-15,2.8-20
				c2-1.5,4.4-2.5,6.7-3.6c15-6.9,30-14,45.1-20.7c13.9-6.2,28.3-11.1,43.4-13.5c10.1-1.7,20.3-2,30.5-1.5
				c14.6,0.7,28.8,3.2,42.5,8.1c41.1,14.7,69,42.8,84,83.7c4.2,11.5,6.9,23.4,8.2,35.6c0.2,2.7,0.7,5.4,3.4,7.3
				c2.1-4,4.3-7.8,6.3-11.7c9.8-19.1,17.8-38.9,22.4-60c10.4-47.5,0-90-30.9-127.4c-18.5-22.3-42.3-35.7-70.9-39.9
				c-37.4-5.5-70.5,4.3-98.4,30C279,67.8,269,82.1,264.2,99.6c-0.9,3.2-1.3,6.5-2.1,9.7c-0.6,2.2-1.6,4.2-4.1,4.9
				c-3.6,1.1-6.2-0.5-7.2-4.6c-3.1-13.1-8.5-25.3-15.7-36.6c-14.6-22.8-35.5-37.4-60.9-45.9c-13.3-4.5-27.1-6.9-41.1-6.7
				C103.4,20.7,77,30.1,55,50.5c-17.6,16.4-28.4,36.8-34,60c-7.8,32.6-5.5,64.7,5.1,96.4c8.4,25.1,21.1,47.9,35.6,69.9
				c12,18.1,25.4,35.1,40.8,50.5c1.8,1.8,3.6,3.5,5.5,5.3c0.2,0.2,0.4,0.3,0.9,0.6c-0.2-4.7-0.4-9-0.7-13.4
				c-0.7-11.9-1.5-23.8-2.2-35.7c-0.9-14.2-1.7-28.3-2.5-42.5c-0.3-5-0.5-10.1-0.7-15.1c-0.3-8.7,3.9-15.2,10.5-20.1
				c7.7-5.8,16.2-8.1,25.8-5.4c5.4,1.6,8.5,5.3,9.7,10.7c0.2,0.7,0.3,1.5,0.5,2.2c1,4.9,3.6,8,8.6,9.3s7.6,5.1,7,10
				c-0.3,1.8-0.9,3.7-1.9,5.2c-8.1,12.1-9.8,25.6-9.2,39.6c0.5,12.3,0.9,24.5,1.7,36.7c0.5,9.2,1.6,18.4,2.3,27.6
				c0.7,7.9,1.5,15.7,1.7,23.6c0.2,10.8,4.4,19,13.4,25.2c7.6,5.2,14.7,11,22,16.5c0.5,0.4,1,0.8,2,1.5
				C198.6,385,200.5,361.4,202.6,337.5z M304.9,201.8c-0.1-0.1-0.4-0.6-0.7-1.2c-1.7-3.3-3.8-6.5-5.2-9.9c-2.8-7.1-1.1-12.9,5-17.5
				c7.5-5.5,16.1-8.8,25-10.9c21.2-5.1,40.2,0.4,57.4,13.1c3.2,2.3,6.1,5,8.5,8c3.8,4.8,3.1,9.9-1.6,13.9
				c-5.5,4.7-12.2,7.3-18.9,9.6c-22.4,7.7-44.4,5.6-66.1-3.2c-0.6-0.2-1.1-0.5-1.7-0.7c-0.2,0-0.3,0-0.6,0c0,0.3-0.1,0.7-0.1,1
				c0.4,7.5-2.8,11.7-10.2,13.2c-6.8,1.4-11.4-0.6-15.3-6.3c-0.8-1.3-1.7-2.5-2.7-3.6c-2.1-2.2-4.7-3-7.6-1.9
				c-11.9,4.6-24.2,3.7-36.5,2.6c-2.1-0.2-4.3-0.3-6.5-0.3c-3.1,0.1-4.9,1.4-5.4,4.4c-0.7,4.4-1,8.9-1.4,13.4
				c-1.2,15-2.4,29.9-3.5,44.9c-1.2,15-2.3,29.9-3.3,44.9c-1,15.4-2.1,30.7-3,46.1c-0.6,11.7-1.1,23.4-1.6,35.1
				c-0.2,4.4-0.4,8.8-0.2,13.1c0.4,7.1,3.9,12.6,9.6,16.6c7.8,5.5,15.8,10.8,23.9,16c2.7,1.7,5.8,2.9,8.8,3.9
				c7.4,2.4,14.3,0.1,20.6-3.6c9.6-5.7,19.1-11.7,28.4-17.8c20.9-13.7,41.4-28.1,61-43.6c29.4-23.2,56.4-48.9,79.4-78.6
				c7.8-10.1,11.1-21.3,10.5-33.8c-1.3-29.3-10.9-55.6-29.4-78.4c-19.7-24.2-44.9-39.9-75.3-47s-59.9-3.8-88.2,9.4
				c-2.1,1-4,2.3-6.6,3.8c3.6,1.5,6.5,3.1,9.6,4c9.6,2.7,17.2,8.7,24.8,14.6c5.4,4.2,6.1,9,2.7,15.3c-1.7,3-1.7,3,1,5.5
				c0.7,0.6,1.3,1.2,1.9,1.9c2,2.3,2,4.2,0.3,6.7c-0.3,0.4-0.5,0.9-0.8,1.3c0.1,0.3,0.2,0.5,0.3,0.7
				C295.8,204.8,300.3,203.2,304.9,201.8z M136,229.2c-2.7-0.2-5.4-0.3-8.2-0.4c-0.5-4.5-1-8.9-1.5-13.3c-0.2-0.1-0.5-0.1-0.7-0.2
				c-0.5,1.9-1.2,3.8-1.4,5.7c-0.2,1.8,0.1,3.6,0.1,5.4c0.1,3.1-2,5-5,4.1c-2-0.6-3.6-2.2-5.4-3.4c-0.4-0.3-0.7-0.8-1.5-1.6
				c0.2,4.6,0.4,8.7,0.6,12.8c0.5,9.3,0.9,18.6,1.7,27.9c0.7,8.9,1.9,17.7,2.9,26.6c1,8.9,1.2,17.8,0,26.7
				c-2.1,15.2,2.8,28.1,14.3,38.3c4.2,3.8,9,6.8,13.5,10.2c1.3,1,2.4,0.5,2.8-0.8c0.5-1.4,0.7-3,0.6-4.4c-0.3-5-0.9-10-1.2-15
				c-1.5-25.8-3-51.5-4.3-77.3c-0.4-7.6-0.2-15.2,3.5-22.4c3.2-6.3,1.2-10.2-5.5-12.5c-1.6-0.6-2.1-1.3-1.9-2.9
				c0.3-1.8,0.1-3.7,1.4-5.5c0.6-0.8,0.2-2.6-0.3-3.7c-0.7-1.5-1.9-2.8-3.4-4.8C136.8,222.5,136.6,225.6,136,229.2z M215.4,181.2
				c0-3.3-2-6.2-4.5-6.3c-3.1-0.1-6.3,3.1-5.8,6.4c0.4,1.9,1.7,3.7,2.8,5.4c0.6,1,1.8,1.6,2.8,2.2c1.4,0.9,2.8,1.6,4.6,2.6
				C215.3,187.9,215.2,184.6,215.4,181.2z M264,196c3.8-3.6,8.2-7.1,11.3-11.9c1.2-1.8,0.4-3.4-1.2-4.4c-2.3-1.4-4.7-2.6-6.9-3.9
				C266.1,182.8,265,189.5,264,196z M372.7,195.2c4.7-1,9-2.2,12.2-5.8c0.4-0.4,0.4-1.5,0.1-1.9c-1-1.2-2.2-2.5-3.5-3.4
				c-2-1.3-4.3-2.4-6.8-3.8C374.1,185.5,373.4,190.2,372.7,195.2z M316.7,179c-5.5,0.8-8.8,3.5-8.6,7.2c0.1,3.7,3.3,6.2,8.6,6.4
				C316.7,188,316.7,183.5,316.7,179z"/>
			<path class="st3" d="M210.6,189c-1-0.7-2.2-1.3-2.8-2.2c-1.2-1.7-2.5-3.5-2.8-5.4c-0.5-3.3,2.7-6.5,5.8-6.4c2.6,0,4.6,3,4.5,6.3
				s0,6.6,0,10.2C213.5,190.5,212,189.8,210.6,189z"/>
			<path class="st4" d="M274,179.7c1.6,1,2.4,2.6,1.2,4.4c-3,4.8-7.5,8.3-11.3,11.9c1.1-6.5,2.2-13.2,3.3-20.2
				C269.5,177.1,271.9,178.3,274,179.7z"/>
			<path class="st3" d="M381.5,184.1c1.4,0.9,2.5,2.1,3.5,3.4c0.3,0.4,0.2,1.5-0.1,1.9c-3.2,3.6-7.5,4.8-12.2,5.8
				c0.7-5,1.3-9.7,2-14.9C377.3,181.7,379.5,182.8,381.5,184.1z"/>
			<path class="st3" d="M308.1,186.2c-0.2-3.7,3.1-6.5,8.6-7.2c0,4.5,0,9,0,13.6C311.5,192.3,308.3,189.9,308.1,186.2z"/>
		</g>
	</g>
</g>
</svg>
