<?xml version="1.0" encoding="utf-8"?>
<!-- Generator: Adobe Illustrator 23.0.1, SVG Export Plug-In . SVG Version: 6.00 Build 0)  -->
<svg version="1.1" id="Layer_1" xmlns="http://www.w3.org/2000/svg" xmlns:xlink="http://www.w3.org/1999/xlink" x="0px" y="0px"
	 viewBox="0 0 520 470" style="enable-background:new 0 0 520 470;" xml:space="preserve">
<style type="text/css">
	.st0{fill-rule:evenodd;clip-rule:evenodd;fill:#FF4656;}
	.st1{fill:#FFFFFF;}
</style>
<g>
	<g>
		<g>
			<g>
				<path class="st0" d="M10.1,93.5v203.4c0,46.5,37.7,84.2,84.2,84.2h64.3C202.3,387,221,462,258.4,462c39.8,0,63.2-75,104.9-80.9
					h62.6c46.5,0,84.2-37.7,84.2-84.2V93.5c0-46.5-37.7-84.2-84.2-84.2H94.3C47.8,9.3,10.1,47,10.1,93.5z"/>
			</g>
		</g>
	</g>
	<g>
		<g>
			<path class="st1" d="M243.4,206.7c11.3,20.1,37.7,44.3,60.8,56.1c1.7,0.9,4.6,1.4,7.5,1.4c2.8,0,5.7-0.5,7.5-1.4
				c23.1-11.8,49.4-36,60.8-56.1c19.3-31.2,0-70.9-34.9-70.9c-17.8,0-33.4,12.3-33.4,12.3h-0.2c0,0-15.6-12.3-33.4-12.3
				C243.1,135.8,223.9,175.4,243.4,206.7z"/>
		</g>
		<polygon class="st1" points="145.4,141.9 145.4,254.5 162.6,254.5 162.6,163.5 191.1,183.3 191.1,163.3 162.6,141.9 		"/>
	</g>
</g>
</svg>
