<?xml version="1.0" encoding="utf-8"?>
<!-- Generator: Adobe Illustrator 23.0.1, SVG Export Plug-In . SVG Version: 6.00 Build 0)  -->
<svg version="1.1" id="Layer_1" xmlns="http://www.w3.org/2000/svg" xmlns:xlink="http://www.w3.org/1999/xlink" x="0px" y="0px"
	 viewBox="0 0 510 470" style="enable-background:new 0 0 510 470;" xml:space="preserve">
<style type="text/css">
	.st0{fill:#FF4656;}
	.st1{fill:#FFE4E4;}
	.st2{fill:#D5B3B3;}
	.st3{fill:#D4D2D2;}
	.st4{fill:#B1B1B1;}
</style>
<g>
	<g>
		<g>
			<path class="st0" d="M8.1,171.9c0-7.4,0-14.7,0-22.1c0.2-0.4,0.5-0.7,0.5-1.1c1.1-7.4,1.8-14.8,3.2-22.1
				c2.9-14.7,7.9-28.7,15-41.9C34.7,70,44.5,57,57,45.9c6.7-6,14-11.2,21.9-15.6c19-10.6,39.5-15.3,61.1-15.6c2.8,0,5.7,0.2,8.5,0.4
				c3.6,0.3,7.2,0.4,10.7,1c10.4,1.7,20.5,4.5,30.1,8.7c13.6,5.9,25.7,14.1,36.5,24.2c4.3,4,8.3,8.4,12.1,13c4.2,5.1,8,10.6,11.8,16
				c2.3,3.2,4.2,6.6,6.5,10.2c0.9-1.4,1.6-2.4,2.2-3.5c5.9-11.1,12.6-21.7,20.9-31.2c5.9-6.8,12.6-12.7,20-17.5
				c8.3-5.4,17-10.2,26.2-14.1c14.6-6.2,29.7-10,45.6-10.3c0.7,0,1.5-0.4,2.2-0.6c1.4,0,2.7,0,4.1,0c0.5,0.2,1,0.6,1.5,0.6
				c2.8,0.2,5.5,0.2,8.3,0.5c4.7,0.6,9.4,1.2,14.1,2.1c14.5,3.1,28,8.7,40.9,16c12.3,7,23,16,32,26.8c6.6,7.9,11.9,16.7,16,26.3
				c7.4,17.2,11.1,35.1,12,53.7c0,0.7,0.4,1.3,0.6,2c0,6.5,0,12.9,0,19.4c-0.2,0.5-0.5,1.1-0.6,1.6c-1.1,8.7-1.8,17.5-3.2,26.2
				c-3,18-8.9,35.1-16.5,51.6c-7.6,16.4-16.9,31.8-27.1,46.7c-12.8,18.6-27,36-42.4,52.3c-6.7,7.1-13.8,13.8-20.8,20.5
				c-6.2,5.9-12.6,11.5-19,17.1c-5.8,5.1-11.6,10.2-17.7,14.9c-13.3,10.3-26.7,20.6-40.3,30.6c-15.7,11.4-31.6,22.4-47.5,33.5
				c-2.8,2-5.9,3.5-8.9,5.2c-2,0-3.9,0-5.9,0c-0.5-0.3-1.1-0.6-1.6-0.9c-8.7-4.5-17.6-8.7-26-13.7c-13.6-8.3-27-16.9-40.1-25.9
				c-9.8-6.7-19.2-13.9-28.5-21.1c-10-7.8-19.7-15.9-29.4-23.9c-6.7-5.6-13.3-11.3-19.8-17.2c-5-4.6-9.7-9.5-14.5-14.5
				c-5.1-5.3-10.4-10.6-15.1-16.3c-7.7-9.6-15.3-19.3-22.4-29.3c-10-14-18.1-29.2-25.2-44.8c-7.7-16.9-14.1-34.2-18-52.3
				c-1.5-6.7-2.2-13.5-3.3-20.3C8.8,176.2,8.5,174,8.1,171.9z"/>
		</g>
	</g>
	<g>
		<g>
			<g>
				<path class="st1" d="M188.9,139.4c4.4,0,8.7,0,13.1,0c0.6,0.1,1.2,0.3,1.7,0.3c16.2,0.9,31.7,4.8,46.5,11.3
					c3.2,1.4,6.2,3.2,9.2,4.8c-0.1,0.3-0.1,0.5-0.2,0.8c-2.2,1-4.4,2.3-6.7,3c-10.1,2.9-18.6,8.6-26.6,15c-5.7,4.6-6.7,9.1-3.2,15.6
					c1.7,3.2,1.7,3.2-1,5.8c-3.9,3.6-4.6,5.7-1.4,9.5c0.1,0.1,0,0.3,0,0.5c-3.1,0.4-5.6-1.1-8.2-2.3c-2.1-1-4.1-2.3-6.6-1
					c0.4-0.8,0.7-1.6,1.2-2.4c1.8-3.4,3.9-6.6,5.3-10.1c2.8-6.9,1.3-12.5-4.7-16.9c-3.5-2.6-7.5-4.8-11.5-6.5
					c-12.5-5.6-25.5-8-39.2-5.7c-13,2.2-24.4,8-34.6,16.3c-2.6,2.1-4.9,4.8-6.8,7.7c-2.1,3.2-1.7,6.8,0.9,9.8
					c1.6,1.8,3.4,3.4,5.4,4.6c11.9,7,24.8,10.8,38.6,11.6c14.9,0.9,29.2-2.2,43-7.9c0.8-0.3,1.7-0.4,2.5-0.6
					c-0.7,3.7-0.4,7.2,2.2,10.2c5.5,6.4,17.1,5.9,22-1c0.9-1.2,1.6-2.5,2.6-3.7c2.7-3.4,5.7-4.4,9.8-2.8c7.4,2.8,15,3.5,22.8,3.1
					c5.8-0.3,11.7-0.8,17.5-1.1c5.3-0.2,7.1,1.6,7.6,6.9c1.5,18.5,3,37.1,4.4,55.6c1.5,20.4,3.2,40.8,4.4,61.3
					c1.5,24.4,2.6,48.8,3.9,73.3c0.3,6.8-1,13-5.9,18c-1.6,1.7-3.4,3.2-5.3,4.5c-8,5.4-16,10.9-24.2,16c-8,4.9-16.4,5.2-24.9,0.9
					c-3.5-1.8-7.1-3.6-10.4-5.7c-29.5-18.7-58.5-38.3-85.8-60.3c-26.8-21.5-51.5-45.1-72.8-72.1c-4.8-6-9.4-12.2-11.3-19.8
					c-0.9-3.8-1.4-7.6-2.1-11.5c0-2.3,0-4.5,0-6.8c0.1-0.4,0.3-0.9,0.3-1.3c0.7-5.9,1-11.8,2.1-17.6c7.5-37.7,27.5-67,59.7-87.9
					c17-11.1,35.7-17.8,55.9-20.4C181.7,140.2,185.3,139.8,188.9,139.4z"/>
				<path class="st1" d="M369.8,228.3c3.4,0,8.1,0.3,11.3,0c2.8-0.3,6.5-1.5,9,0c1.8,1.1,2.9-1,4.5-2.3c1.4-1.1,2.4,0.9,3.9-0.4
					c0.1,0.6,0.2,1,0.1,1.5c-1.1,21.2-1.7,42.4-4.9,63.5c-1.6,10.5-1.3,21.1-0.1,31.6c1.4,12.7-2.9,23.6-11.6,32.8
					c-4.9,5.2-10.6,9.3-16.6,13.1c-1.3,0.9-2.3,0.5-2.7-0.6c-0.5-1.7-0.8-3.5-0.7-5.2c0.3-5.6,0.9-11.2,1.2-16.8
					c1.1-17.8,2.1-35.5,3-53.3c0.5-10.6,0.8-21.3,1-31.9c0-2.7-0.9-5.4-1.7-8c-0.6-1.9-1.6-3.7-2.2-5.6c-1.7-4.9-0.3-8,4.4-10.3
					c4-1.9,3.3-1.8,2.9-6.2C370.6,229.8,369.8,228.9,369.8,228.3z"/>
			</g>
		</g>
		<g>
			<g>
				<path class="st2" d="M384.6,214.3c0.2,0,0.3,0,0.5,0c1.5,2.7,2,5.7,1.9,8.8c-0.1,1.9,0.2,3.8,0.4,5.6c-1.8-0.3-2.1-0.5-5,0
					C382.4,228.4,384,218.9,384.6,214.3z"/>
			</g>
		</g>
		<g>
			<path class="st2" d="M373.8,217c0.2,0,0.3,0,0.5,0c0.3,3.5,0.6,6.9,0.9,10.4c0,0.6-0.5,1.2-0.5,1.8c-2,0-3.5,0-5.4,0
				c0-1.5,0-3,0-4.5C370.8,222.1,372.3,219.5,373.8,217z"/>
		</g>
		<g>
			<path d="M258.8,460.9c-2,0-3.9,0-5.9,0c-1.9-0.7-3.9-1.3-5.6-2.2c-11.2-6.2-22.5-12.2-33.4-19c-13.4-8.4-26.7-17.3-39.5-26.6
				c-12.1-8.8-23.7-18.3-35.4-27.6c-7.9-6.3-15.8-12.7-23.4-19.4c-7.1-6.2-13.9-12.9-20.8-19.4c-2.8-2.7-5.4-5.6-8-8.5
				c-4.2-4.6-8.5-9-12.4-13.8c-5.7-7-11.1-14.2-16.5-21.4c-7.7-10.2-14.3-21.1-20.4-32.3c-3.5-6.5-6.7-13.1-9.6-19.9
				c-3.6-8.3-7.3-16.6-10.2-25.1c-3.1-9-5.8-18.2-8-27.4c-1.6-6.7-2.2-13.7-3.3-20.5c-0.3-2.1-0.6-4.3-0.9-6.5c0-7.5,0-15,0-22.5
				c0.2-0.5,0.4-0.9,0.4-1.4c0.3-3.5,0.3-7.2,1-10.6c1.6-7.9,3.3-15.8,5.3-23.6C16.1,98.5,22.5,84.8,30.7,72
				c6.7-10.4,14.5-20.1,24-28.1c4.4-3.7,8.8-7.6,13.6-10.7c10.5-6.9,21.7-12.2,33.9-15.7c11.7-3.4,23.7-4.8,35.9-5.1
				c4.7-0.1,9.4,0.4,14,0.9c5.3,0.6,10.7,1.2,15.9,2.4c11.7,2.8,22.9,7.1,33.3,13.2c9.1,5.3,17.4,11.6,25.1,18.9
				c3,2.9,5.9,5.9,8.6,9.1c3.7,4.4,7.5,8.8,10.8,13.5c3.7,5.1,6.9,10.5,10.4,16c0.2-0.3,0.3-0.5,0.4-0.8
				c5.2-8.5,10.3-17.2,15.8-25.5c5-7.6,11.4-14.2,18.4-20c7.9-6.5,16.8-11.8,25.9-16.4c8.1-4.1,16.4-7.5,25.2-9.9
				c9.9-2.7,19.8-4.7,30.1-4.7c0.8,0,1.5-0.3,2.3-0.4c1.5,0,3,0,4.5,0c0.5,0.2,0.9,0.4,1.4,0.4c4.2,0.3,8.5,0.3,12.7,1
				c6.4,1.1,12.9,2.3,19.2,4c11.3,3,21.8,7.9,32,13.6c7.4,4.2,14.4,9.1,20.6,14.8c7.7,7,14.7,14.6,19.9,23.6c4,7,7.8,14.2,10.8,21.7
				c2.8,7,4.7,14.4,6.4,21.7c2,8.7,3.2,17.6,3.4,26.6c0,0.7,0.3,1.4,0.4,2c0,6.6,0,13.2,0,19.8c-0.1,0.2-0.4,0.4-0.4,0.7
				c-0.5,5.4-0.7,10.8-1.4,16.2c-1,7-2.1,14-3.7,20.8c-3.4,14.5-8.4,28.4-14.6,41.9c-6.2,13.3-13.2,26.1-21.3,38.4
				c-9.3,14.1-19.1,27.8-30.2,40.6c-6.3,7.2-12.4,14.7-19,21.6c-8.2,8.6-16.9,16.8-25.5,25.1c-1.8,1.7-3.6,3.4-5.4,5
				c-6.1,5.2-12.1,10.4-18.3,15.6c-5.2,4.4-10.4,8.8-15.8,13c-8.4,6.5-16.9,12.9-25.4,19.2c-9.5,7-19.1,13.8-28.6,20.7
				c-6.2,4.5-12.4,9-18.8,13.2C270.9,453.6,265.6,458.4,258.8,460.9z M314.2,409.1c1-0.7,1.5-1.1,2-1.5c7.3-5.5,14.4-11.3,22-16.5
				c9-6.2,13.2-14.4,13.4-25.2c0.2-7.9,1-15.7,1.7-23.6c0.7-9.2,1.8-18.4,2.3-27.6c0.8-12.2,1.2-24.4,1.7-36.7
				c0.6-14-1.1-27.5-9.2-39.6c-1-1.5-1.6-3.4-1.9-5.2c-0.6-4.9,2-8.7,7-10c5-1.3,7.6-4.4,8.6-9.3c0.2-0.7,0.3-1.5,0.5-2.2
				c1.2-5.4,4.3-9.1,9.7-10.7c9.6-2.7,18.1-0.4,25.8,5.4c6.6,4.9,10.8,11.4,10.5,20.1c-0.2,5-0.4,10.1-0.7,15.1
				c-0.8,14.2-1.6,28.3-2.5,42.5c-0.7,11.9-1.5,23.8-2.2,35.7c-0.3,4.4-0.5,8.7-0.7,13.4c0.5-0.3,0.7-0.4,0.9-0.6
				c1.9-1.8,3.7-3.5,5.5-5.3c15.4-15.4,28.8-32.4,40.8-50.5c14.5-22,27.2-44.8,35.6-69.9c10.6-31.7,12.9-63.8,5.1-96.4
				c-5.6-23.2-16.4-43.6-34-60c-22-20.4-48.4-29.8-78.1-30.1c-14-0.2-27.8,2.2-41.1,6.7c-25.4,8.5-46.3,23.1-60.9,45.9
				c-7.2,11.3-12.6,23.5-15.7,36.6c-1,4.1-3.6,5.7-7.2,4.6c-2.5-0.7-3.5-2.7-4.1-4.9c-0.8-3.2-1.2-6.5-2.1-9.7
				c-4.8-17.5-14.8-31.8-27.9-43.9c-27.9-25.7-61-35.5-98.4-30c-28.6,4.2-52.4,17.6-70.9,39.9c-30.9,37.4-41.3,79.9-30.9,127.4
				c4.6,21.1,12.6,40.9,22.4,60c2,3.9,4.2,7.7,6.3,11.7c2.7-1.9,3.2-4.6,3.4-7.3c1.3-12.2,4-24.1,8.2-35.6c15-40.9,42.9-69,84-83.7
				c13.7-4.9,27.9-7.4,42.5-8.1c10.2-0.5,20.4-0.2,30.5,1.5c15.1,2.4,29.5,7.3,43.4,13.5c15.1,6.7,30.1,13.8,45.1,20.7
				c2.3,1.1,4.7,2.1,6.7,3.6c7.1,5,8.3,13.3,2.8,20c-2,2.5-4.6,4.5-7.1,6.5c-5.4,4.2-8.3,9.7-8,16.5c0.3,6.7,1.1,13.5,1.7,20.2
				c1.3,13.1,2.7,26.3,3.8,39.4c1,11,1.8,22,2.5,33c0.6,10.9,0.8,21.8,1.5,32.6C310.6,361.4,312.5,385,314.2,409.1z M219.9,206.5
				c0.1-0.2,0.2-0.4,0.3-0.7c-0.3-0.4-0.5-0.9-0.8-1.3c-1.7-2.5-1.7-4.4,0.3-6.7c0.6-0.7,1.2-1.3,1.9-1.9c2.7-2.5,2.7-2.5,1-5.5
				c-3.4-6.3-2.7-11.1,2.7-15.3c7.6-5.9,15.2-11.9,24.8-14.6c3.1-0.9,6-2.5,9.6-4c-2.6-1.5-4.5-2.8-6.6-3.8
				c-28.3-13.2-57.8-16.5-88.2-9.4c-30.4,7.1-55.6,22.8-75.3,47c-18.5,22.8-28.1,49.1-29.4,78.4c-0.6,12.5,2.7,23.7,10.5,33.8
				c23,29.7,50,55.4,79.4,78.6c19.6,15.5,40.1,29.9,61,43.6c9.3,6.1,18.8,12.1,28.4,17.8c6.3,3.7,13.2,6,20.6,3.6
				c3-1,6.1-2.2,8.8-3.9c8.1-5.2,16.1-10.5,23.9-16c5.7-4,9.2-9.5,9.6-16.6c0.2-4.3,0-8.7-0.2-13.1c-0.5-11.7-1-23.4-1.6-35.1
				c-0.9-15.4-2-30.7-3-46.1c-1-15-2.1-29.9-3.3-44.9c-1.1-15-2.3-29.9-3.5-44.9c-0.4-4.5-0.7-9-1.4-13.4c-0.5-3-2.3-4.3-5.4-4.4
				c-2.2,0-4.4,0.1-6.5,0.3c-12.3,1.1-24.6,2-36.5-2.6c-2.9-1.1-5.5-0.3-7.6,1.9c-1,1.1-1.9,2.3-2.7,3.6c-3.9,5.7-8.5,7.7-15.3,6.3
				c-7.4-1.5-10.6-5.7-10.2-13.2c0-0.3-0.1-0.7-0.1-1c-0.3,0-0.4,0-0.6,0c-0.6,0.2-1.1,0.5-1.7,0.7c-21.7,8.8-43.7,10.9-66.1,3.2
				c-6.7-2.3-13.4-4.9-18.9-9.6c-4.7-4-5.4-9.1-1.6-13.9c2.4-3,5.3-5.7,8.5-8c17.2-12.7,36.2-18.2,57.4-13.1
				c8.9,2.1,17.5,5.4,25,10.9c6.1,4.6,7.8,10.4,5,17.5c-1.4,3.4-3.5,6.6-5.2,9.9c-0.3,0.6-0.6,1.1-0.7,1.2
				C210.8,203.2,215.3,204.8,219.9,206.5z M374,218.7c-1.5,2-2.7,3.3-3.4,4.8c-0.5,1.1-0.9,2.9-0.3,3.7c1.3,1.8,1.1,3.7,1.4,5.5
				c0.2,1.6-0.3,2.3-1.9,2.9c-6.7,2.3-8.7,6.2-5.5,12.5c3.7,7.2,3.9,14.8,3.5,22.4c-1.3,25.8-2.8,51.5-4.3,77.3
				c-0.3,5-0.9,10-1.2,15c-0.1,1.4,0.1,3,0.6,4.4c0.4,1.3,1.5,1.8,2.8,0.8c4.5-3.4,9.3-6.4,13.5-10.2c11.5-10.2,16.4-23.1,14.3-38.3
				c-1.2-8.9-1-17.8,0-26.7c1-8.9,2.2-17.7,2.9-26.6c0.8-9.3,1.2-18.6,1.7-27.9c0.2-4.1,0.4-8.2,0.6-12.8c-0.8,0.8-1.1,1.3-1.5,1.6
				c-1.8,1.2-3.4,2.8-5.4,3.4c-3,0.9-5.1-1-5-4.1c0-1.8,0.3-3.6,0.1-5.4c-0.2-1.9-0.9-3.8-1.4-5.7c-0.2,0.1-0.5,0.1-0.7,0.2
				c-0.5,4.4-1,8.8-1.5,13.3c-2.8,0.1-5.5,0.2-8.2,0.4C374.5,225.6,374.3,222.5,374,218.7z M295.8,191.5c1.8-1,3.2-1.7,4.6-2.6
				c1-0.6,2.2-1.2,2.8-2.2c1.1-1.7,2.4-3.5,2.8-5.4c0.5-3.3-2.7-6.5-5.8-6.4c-2.5,0.1-4.5,3-4.5,6.3
				C295.9,184.6,295.8,187.9,295.8,191.5z M243.9,175.8c-2.2,1.3-4.6,2.5-6.9,3.9c-1.6,1-2.4,2.6-1.2,4.4c3.1,4.8,7.5,8.3,11.3,11.9
				C246.1,189.5,245,182.8,243.9,175.8z M136.4,180.3c-2.5,1.4-4.8,2.5-6.8,3.8c-1.3,0.9-2.5,2.2-3.5,3.4c-0.3,0.4-0.3,1.5,0.1,1.9
				c3.2,3.6,7.5,4.8,12.2,5.8C137.7,190.2,137,185.5,136.4,180.3z M194.4,192.6c5.3-0.2,8.5-2.7,8.6-6.4c0.2-3.7-3.1-6.4-8.6-7.2
				C194.4,183.5,194.4,188,194.4,192.6z"/>
			<path class="st3" d="M295.8,191.5c0-3.6,0.1-6.9,0-10.2c-0.1-3.3,1.9-6.3,4.5-6.3c3.1-0.1,6.3,3.1,5.8,6.4
				c-0.3,1.9-1.6,3.7-2.8,5.4c-0.6,0.9-1.8,1.5-2.8,2.2C299.1,189.8,297.6,190.5,295.8,191.5z"/>
			<path class="st4" d="M243.9,175.8c1.1,7,2.2,13.7,3.3,20.2c-3.8-3.6-8.3-7.1-11.3-11.9c-1.2-1.8-0.4-3.4,1.2-4.4
				C239.2,178.3,241.6,177.1,243.9,175.8z"/>
			<path class="st3" d="M136.4,180.3c0.7,5.2,1.3,9.9,2,14.9c-4.7-1-9-2.2-12.2-5.8c-0.3-0.4-0.4-1.5-0.1-1.9c1-1.3,2.1-2.5,3.5-3.4
				C131.6,182.8,133.8,181.7,136.4,180.3z"/>
			<path class="st3" d="M194.4,192.6c0-4.6,0-9.1,0-13.6c5.5,0.7,8.8,3.5,8.6,7.2C202.8,189.9,199.6,192.3,194.4,192.6z"/>
		</g>
	</g>
</g>
</svg>
