<?xml version="1.0" encoding="utf-8"?>
<!-- Generator: Adobe Illustrator 23.0.1, SVG Export Plug-In . SVG Version: 6.00 Build 0)  -->
<svg version="1.1" id="Layer_1" xmlns="http://www.w3.org/2000/svg" xmlns:xlink="http://www.w3.org/1999/xlink" x="0px" y="0px"
	 viewBox="0 0 527 408" style="enable-background:new 0 0 527 408;" xml:space="preserve">
<style type="text/css">
	.st0{fill:#EB9DC5;}
	.st1{fill:#F8CC15;}
	.st2{fill:#F2E49D;}
</style>
<g>
	<path class="st0" d="M282.2,104.7l27.3-32.9L362,82.3l19.6,11.9l14.7,42l1.4,46.2L359.2,230L278,277.6c0,0-4.9,14-16.1,14.7
		s-15.4-6.3-15.4-6.3l-95.8-50.5l-30.8-30.8l-1.4-85.4c0,0,39.9-35.7,41.3-35.7s40.6,4.2,40.6,4.2s49,29.4,51.1,30.1s3.5,2.1,4.9,0
		s5.6-5.6,5.6-5.6L282.2,104.7z"/>
	<g>
		<g>
			<path class="st1" d="M254,85.4l2.8,16.1l9.1,27.3c0,0,0.7,9.1,7.7,12.6c7,3.5,13.3-2.8,13.3-2.8l16.1-36.4l40.6-10.5l29.4,23.8
				v25.9l7,23.1l-9.1,17.5l-9.1,24.5l-37.1,9.8c0,0-32.2,7.7-41.3,18.2s-13.3,23.1-14,29.4c-0.7,6.3,8.4,13.3,14.7,17.5
				c6.3,4.2,22.4-9.1,29.4-11.2s30.8-10.5,37.8-11.2c6.9-0.7,47.4,11,48.3,11.2c-0.2,0-1,0.2,3.5,11.2c4.9,11.9-2.8,77.7-2.8,77.7
				s-1.4,9.8,0,21.7c9.8-0.7,25.2,3.5,25.2,3.5c8.4,3.5,21.7,2.1,32.9,3.5c15,1.9,18.9-1.4,18.9-1.4s22.4-72.8,26.6-88.9
				c4.2-16.1,2.1-30.8,2.1-30.8l-16.9-62.3l-24.5-49l-35-60.2l-7-7.7L375,56l-10.5-4.8c-3.6-2.5-7.3-5-10.9-7.5
				c-6.9-4.9-13.8-9.9-20.8-14.7c-6.8-4.7-13.6-4.7-20.4,0.1c-10.9,7.7-21.8,15.5-32.7,23.2c-7.9,5.6-12.3,13.7-15.5,22.6
				c-0.2,0.5-0.4,1-0.6,1.5L254,85.4z"/>
			<path class="st1" d="M19.4,313.5c4.2,16.1,15.6,60.9,15.6,60.9s7.4,10.9,22.4,9c13.3-4.9,22.4-1.5,30.8,0.6
				c8.4,2.1,16.1-3.5,32.2,2c1.4-11.9,0.6-27.3,0.6-27.3s-7.3-58.1-2.4-70c4.8-11.9,4.1-15.4,4.1-15.4s35.7-8.6,42.7-7.9
				s27.3,7.6,34.3,9.7c7,2,36.5,17.3,42.8,13.1c6.3-4.3,12.5-16.9,11.8-23.2s-13.5-15.6-21.1-19.5c-13.3-6.9-46.3-25-46.3-25
				l-25.2,0.1l-12-33.6l-11.3-16.1l-0.1-21.7l9-29.4l32.1-24.6l30.8,9.7l21.1,28.6c0,0,9.1,5.5,16.1,2s-2.2-25.9-2.2-25.9l-3.6-36.4
				l-2.2-17.5l-16.8-9L169.3,35l-37,18.3l-37,34.4l-7,7.7L52,136.1l-22.9,68.7L16,247.6C16,247.6,14.8,297.3,19.4,313.5z"/>
		</g>
		<path d="M12.1,257.7c0.1-0.8,0.8-8.2,1-9.5c0.6-3.9,0.9-7.9,1.9-11.7c2.4-8.8,5-17.7,7.8-26.4c3.8-12.1,7.9-24.1,12-36.1
			c3.1-8.8,6.9-17.4,9.4-26.3c3.5-12.5,10.2-22.8,19.6-31.6c11.4-10.7,22.9-21.2,33.8-32.4c10.4-10.6,19.9-22,29.8-33
			c3-3.3,6.4-5.8,11.1-5.9c0.8,0,1.6-0.3,2.3-0.7c6.2-3.4,12.4-6.8,18.5-10.4c4.6-2.6,9.4-5.4,14.8-4.3c9.1,1.8,18.2,3.9,27,6.7
			C212,39.6,222.7,44,233.5,48c8.3,3.1,13,8.8,13.2,17.8c0.1,4,0.2,8.1-0.1,12.2c-0.8,9.8,0.4,19.2,3.6,28.5
			c2.3,6.7,3.9,13.6,5.1,20.6c1.5,8.6-3.5,13.6-12.1,12.7c-5.8-0.6-11.3-2.6-15.2-7.1c-6.5-7.5-12.8-15.4-18.8-23.4
			c-2.2-2.9-4.2-5.3-8.1-5.9c-3.2-0.4-6.3-1.7-9.4-2.7c-2.9-0.9-6.3-3.2-8.8-2.5c-2.6,0.8-4.5,4.4-6.7,6.7c-1.1,1.2-2.1,2.5-3.4,3.5
			c-7,5.1-13.8,10.4-21,15.1c-3.4,2.3-4.6,4.7-4.9,8.7c-0.9,12.1-2.4,24.1-3.9,36.1c-0.4,2.7-0.2,5,1.6,7.2
			c8.5,10.7,16.2,21.9,21.3,34.8c0.5,1.3,2.3,2.6,3.8,2.9c5.8,1.3,11.8,1.9,17.5,3.4c22.9,5.9,42.5,17.8,60.1,33.6
			c8.3,7.4,11,15.9,8.7,26.6c-1.6,7.5-6.1,14-11.7,14.6c-3.8,0.5-8,0.5-11.7-0.6c-8-2.3-15.7-5.3-23.4-8.2c-7-2.6-14.1-4.9-20.8-8
			c-7.3-3.3-14.8-4.6-22.7-4.3c-10.7,0.3-21.4,0.9-32.1,1.3c-3.8,0.2-5.6,1.7-6.2,5.6c-1.1,6.8-2.1,13.6-3.3,20.3
			c-3.3,17.8-2.1,35.8-1.4,53.7c0.5,10.4,1.2,20.9,1.7,31.4c0.2,3.4-1.7,5.6-4.3,5.7s-4.6-2.2-4.7-5.5c-0.2-5.8-0.2-11.7-0.4-17.5
			c-0.5-16-1.6-31.9-1.6-47.9c0-8.7,1.7-17.3,2.8-26c0.6-5.1,1.7-10.1,2.3-15.2c0.4-4.4-0.5-5.3-4.8-6.1c-4.7-0.9-9.4-1.7-14-3
			c-1.2-0.4-2.8-2.6-2.8-3.9c0-2.2,2-3.2,4.3-2.9c0.6,0.1,1.1,0.2,1.7,0.3c8.6,0.8,17.1,2.1,25.7,2.4c8.3,0.3,16.8,0.1,25.1-0.7
			c11.8-1.1,23.4-1.8,34.7,3c6.6,2.9,13.4,5.4,20.1,8c4.2,1.7,4.6,1,5.5-3.5c1.1-5.2,2.5-10.5,4.6-15.3c2.3-5.3,6.6-6.2,11.5-3.3
			c3.6,2.2,6.9,4.7,10.3,7.2c4.4,3.3,4.7,5.1,2.8,10.2c-1.4,3.6-2.7,7.4-3.7,11.2c-0.7,2.8,1,4.3,3.5,2.8c1.8-1.1,3.5-3.2,4.1-5.2
			c2.6-8,1.1-15.3-5.4-21c-11.9-10.4-25-19-39.4-25.7c-17.9-8.3-37.3-9.8-56.4-12c-10.3-1.2-18.5-4.7-24.7-13
			c-2.4-3.2-2.7-5.6-0.5-7.4c2.9-2.4,4.8-0.4,6.7,1.7c3.7,4.2,7.8,8.1,13.5,9.5c4.1,1,8.2,1.5,12.4,2.1c0.9,0.2,2.4,0,2.8-0.6
			s0-2-0.5-2.8c-4-6.8-8.1-13.6-12.3-20.3c-1-1.5-2.2-2.9-3.7-4.9c-1,2.6-1.3,4.8-2.5,6.4c-0.9,1.2-3,2.5-4.3,2.3
			c-1.2-0.2-2.3-2.3-3-3.8c-0.4-0.8,0.1-2.1,0.4-3.1c1.8-6.8,4.4-13.4,5.5-20.2c1.5-10.2,2-20.6,3-30.9c0.2-2.3-0.3-3.5-3.1-3.8
			c-1.3-0.1-3.2-2.1-3.5-3.5c-0.2-1,1.4-3.2,2.7-3.7c13.6-5.1,25.1-13.2,35-23.6c2.2-2.4,3.8-4.7,0.6-7.7c-0.8-0.7-1.1-2.9-0.6-3.7
			c0.7-1.1,2.4-1.9,3.7-1.9c1.9,0,3.8,0.8,5.7,1.4c6.5,2.2,12.8,5.6,19.5,6.5c9.3,1.3,15.1,6.3,19.6,13.8c0.6,1.1,1.4,2.1,2.1,3.2
			c1.9,2.7,3.7,5.4,5.6,8.1c-1.1-5,1.2-8.2,4.7-10.8c1.8-1.4,3.9-2.5,6.1-3.3c2.5-0.9,3.3-2.1,2.3-4.7c-2-4.9-3.8-10-5.6-15
			c-3.4-9.6-9.9-16-19.9-18.3c-10.4-2.4-20.9-4.5-31.4-6.4c-11.5-2.1-23.1-3.4-34.5-5.7c-8.1-1.6-14.2,0.3-19.1,6.8
			c-0.5,0.7-1.2,1.4-1.8,2.1C110.1,82.4,94,102,74.5,118.3c-8.1,6.8-15.9,14.2-19.6,24.6c-4.1,11.4-8.2,22.8-12.1,34.2
			c-4.9,14.2-9.7,28.4-14.2,42.7c-2.8,8.6-6.1,17.3-7.2,26.2c-2.6,20.9-1.1,41.9,2.9,62.6c2.6,13.8,6.3,27.4,9.2,41.2
			c2,9.4,3.4,19,5,28.5c0.4,2.9-1,4.5-3.5,5.3c-2.4,0.8-4-0.7-5-2.7c-0.4-0.8-0.5-1.6-0.6-2.4c-2.4-13.3-4.7-26.8-7.3-40.1
			c-2.9-14.7-6.6-28.4-8.7-43.8C11.9,287.1,11.8,265.7,12.1,257.7z M229.6,56c-13.8-4.9-27.7-9.4-41.6-14c-3.2-1.1-6.5-1.8-9.7-2.8
			c-7.3-2.3-13.1,1.3-18.8,5c-0.7,0.4-1.2,1.9-0.9,2.6s1.5,1.3,2.4,1.5c11.7,2.1,23.4,4,35,6.2c8.6,1.6,17.2,3.6,25.8,5.7
			c5,1.2,9.2,4,12.2,8.3c1.2,1.5,2.4,3,4,5.1C239.6,65.4,236.3,58.2,229.6,56z M229.7,281.1c0.7-0.1,1.4-1.1,1.7-1.9
			c1.2-3.4,2.1-6.9,3.3-10.3c1-2.9,0.3-4.8-2.2-6.6c-6.7-4.8-7.8-4.5-9.8,3.4c-0.7,2.7-1.1,5.5-1.6,8.2
			C221.3,277.8,226.1,282,229.7,281.1z M245.3,118.3c-0.3-4.2-1.9-7-4.2-6.3c-2.2,0.7-4.6,2.1-6,3.9c-1,1.2,4.2,5.5,6.9,5.4
			C243.6,121.2,245.5,121.2,245.3,118.3z M238.5,129.5c0,0.3,0,0.7,0,1c2.3,0,4.5,0,6.8,0c0-0.5-0.1-1.1-0.1-1.7
			C243,129,240.7,129.3,238.5,129.5z"/>
		<path d="M313,265.1c11.7-5.5,23.7-10.3,36.9-8.9c11,1.2,22,3.4,32.9,5.9c14.5,3.3,29,5.8,43.8,1.8c2.4-0.6,4.5,0,5.2,2.7
			c0.7,2.6-0.6,4.4-3.2,4.9c-6,1.1-11.9,2-17.9,2.8c-2.3,0.3-3.4,0.7-3,3.4c0.7,5,1.3,10,1.3,15c0,14.7-1,29.4-0.6,44.1
			c0.4,15.3-5.6,29.2-7.9,43.9c-0.2,1.2-2.8,3.1-3.9,2.9c-1.5-0.3-3.3-2.2-3.7-3.7c-0.5-1.9-0.1-4.2,0.4-6.2
			c1.5-6.5,4-12.8,4.7-19.3c1.4-14.3,2.5-28.8,2.8-43.2c0.2-10.8-1.3-21.6-1.8-32.4c-0.2-3.7-1.8-5-5.2-5.6
			c-10.5-1.9-21-3.9-31.5-6.1c-13.7-2.8-27.1-2.1-40,3.6c-7.3,3.2-14.2,7.1-21.5,10.1c-12.6,5.1-19.4,5.2-27.8-4.3
			c-5-5.6-8.5-12.2-6.5-19.8c3.3-12.5,9.3-23.5,21-30.2c13.3-7.6,28-10.9,42.6-14.4c9.1-2.2,18.5-3.8,26.8-8.5
			c1.7-1,3.9-2.5,4.3-4.1c2.4-10,7.2-18.9,12.2-27.7c2.3-4.1,3.4-8.3,1.4-12.7c-4.7-10.4-5.9-21.3-5.5-32.5
			c0.2-5.3-1.6-9.9-5.8-13.3c-6.7-5.6-13.6-11-20.3-16.6c-2.8-2.3-5.1-2.5-8.2-0.6c-8.1,5-17,8.1-26.4,9.8c-1.1,0.3-2.5,1.5-3,2.6
			c-3.9,9.2-7.5,18.5-11.5,27.7c-2.3,5.3-6.2,8.9-12.2,10c-10.6,1.9-18.2-3.6-19.2-14.2c-0.4-4.2-0.3-8.4-0.8-12.6
			c-0.3-2-1-4.1-2-5.8c-2.8-4.6-5.9-9-8.8-13.5c-3.1-4.8-3.6-9.7-0.8-15.1c3-5.8,5.9-11.7,7.8-17.9c2.5-8.1,7-14.4,13.7-19.3
			c12.7-9.3,25.4-18.5,38.2-27.7c4.2-3,8.8-5.5,14-4.3c4.1,1,8.4,2.5,11.8,4.9C358,36.2,379.9,51.9,402,67.5
			c4.6,3.2,9.5,6.2,14.5,8.9c4.5,2.4,8.7,5.1,11.4,9.5c10.7,17.5,21.5,34.9,31.7,52.7c8.2,14.5,15.4,29.6,23.5,44.1
			c4.1,7.2,7.8,14.5,10.2,22.5c4.6,15.9,9.4,31.6,14,47.5c2.9,10,5.9,20.1,4.2,30.6c-1.1,7.3-3.3,14.5-5.4,21.6
			c-5.1,17-10.5,34-15.6,51c-2.9,9.5-5.1,19.2-7.7,28.7c-0.9,3.3-3,4.7-5.6,3.8c-2.8-0.9-3.5-3-2.7-5.8c4.2-14.5,8.3-29.1,12.5-43.6
			c3.9-13.5,7.9-27,11.6-40.6c1.7-6,3.3-12.1,4.1-18.3c1.2-9.5-2.3-18.4-4.7-27.4c-2.5-9.2-5.3-18.3-7.9-27.5
			c-3.1-11.1-5.9-22.3-11.6-32.5c-6.3-11.3-12.5-22.7-18.4-34.2c-11.5-22.5-23.7-44.5-38.2-65.3c-2.4-3.4-6-6.6-9.8-8.5
			c-13.5-6.7-27.3-12.5-40.8-19.1c-10-5-19.6-10.7-29.4-16.1c-8.4-4.6-16.4-5.4-24.2,1.5c-4.3,3.7-9.2,6.7-13.8,10.1
			c-10.3,7.5-20.6,14.9-30.7,22.5c-1.7,1.3-3.5,3.5-3.9,5.5c-0.8,3.9-0.9,8.1-0.9,12.1c-0.1,5.5,0.3,5.8,5.8,6.2
			c9.1,0.7,13.2,6.3,10.9,15c-0.2,0.8-0.4,1.6-0.6,2.4c-2.2,7.1-2.2,7.1-9.5,6.7c-0.5,0-0.9,0-1.4,0c-1.9,0-2.7,1.1-1.8,2.7
			c0.7,1.3,1.8,2.6,3,3.2c3.8,2,8.5,0.5,10.9-4.1c3.9-7.5,7.5-15.3,11-23c0.7-1.6,1.1-3.8,0.6-5.4c-1.1-3.3,0-5.2,2.9-6.4
			c1.6-0.7,3.3-1.2,5-1.6c6.2-1.5,12.7-2.2,18.5-4.6c6.6-2.8,12.6-7.1,18.9-10.5c1.3-0.7,4-1,4.5-0.4c1,1.4,1.6,3.8,1,5.2
			c-0.9,2.3-0.5,3.4,1.3,4.7c4.8,3.6,9.5,7.2,14,11.1c5.9,5.2,12.6,9.7,15.8,17.5c3,7.2,6.5,14.2,9.9,21.2c1.1,2.2,2.1,4.5-0.6,6.1
			s-4.6,0.1-6.1-2.2c-1.1-1.6-2.3-3.1-3.5-4.7c-0.4,0.2-0.7,0.4-1.1,0.6c0.2,1,0.3,2.1,0.5,3.2c2.3,10.7,7.5,20.3,13,29.6
			c1.2,1.9,1.7,3.7-0.4,5.2c-2.2,1.6-4.2,1-5.8-1c-1-1.1-1.8-2.3-3.4-4.2c-3.1,7.3-7.8,12.8-9.2,20c1.6-0.2,2.7-0.9,3.8-1.4
			c5.7-2.7,11.3-5.4,17-8c2.4-1.1,4.7-0.9,5.9,1.8c1.2,2.6-0.2,4.7-3.4,6.2c-5.4,2.5-10.7,5-16,7.8c-7.9,4.2-15.4,9.6-23.7,12.6
			c-12.7,4.6-26.1,7.6-39.2,11.2c-9.6,2.7-19.4,4.8-27.4,11c-8.6,6.6-14.5,15.1-14.7,26.5c-0.1,5.4,3.1,10.4,6.9,11.5
			c0-0.6,0.2-1.2,0.1-1.7c-1-4.3-1.8-8.7-3.2-12.8c-1.5-4.3-1.2-6.2,2.5-8.6c2.7-1.7,5.5-3.4,8.4-4.9c4.7-2.5,8.4-1.8,11.7,2.5
			c1.5,1.9,2.8,4.3,3.5,6.7c1.1,4.2,1.7,8.4,2.7,13.4C309.2,266.6,310.7,265.9,313,265.1z M353.4,43.6c-6.9-4.9-13.8-9.9-20.8-14.7
			c-6.8-4.7-13.6-4.7-20.4,0.1c-10.9,7.7-21.8,15.5-32.7,23.2c-7.9,5.6-12.3,13.7-15.5,22.6c-1.6,4.5-3.6,8.9-5.1,13.4
			c-0.6,2.1-0.4,4.5-0.6,6.8c0.5,0,0.9,0.1,1.3,0.1c0.2-1.9,0.6-3.7,0.7-5.6c0.2-5.4,2.3-9.9,7.1-12.4c12.5-6.4,22.3-16.3,33.7-24.2
			c5.9-4.1,11.8-8.2,17.9-12.1c7-4.5,14.3-4.4,21.6-0.6c8.6,4.5,17.1,8.9,25.7,13.4c0.6,0.3,1.2,0.5,1.8,0.7
			c0.2-0.2,0.3-0.4,0.4-0.6C363.5,50.3,358.6,47,353.4,43.6z M296.7,255.6c-0.5-2.2-1.8-4-4.5-2.7c-5.3,2.5-5.7,3-4.7,6.1
			c1.3,4.3,1.8,8.8,2.3,13.3c0.3,2.4,1,3,3.3,2.3c4.7-1.3,6.1-2.6,5.9-7.3C298.4,264.3,297.7,259.9,296.7,255.6z M277.9,119.1
			c0-0.8-0.6-2.3-1.2-2.5c-2.1-0.6-4.3-0.9-6.4-1.1c-0.1-0.1-0.7,1.9-0.7,2.9c0,1.6,0.3,3.2,0.5,4.7
			C275.9,123.8,277.7,122.9,277.9,119.1z"/>
		<path d="M111,167.4c4.1-6,8.3-12,12.5-18c1.6-2.4,3.3-4.8,5.3-6.9c0.7-0.8,2.8-1.3,3.6-0.8c1.1,0.8,1.9,2.5,2.3,3.9
			c0.3,0.8-0.4,2-0.9,2.9c-4.2,6.9-8.2,14-12.8,20.7c-1.4,2.2-4,3.9-6.4,5c-2.5,1.1-4.9-1-4.9-4.4C110,169.3,110.3,168.2,111,167.4z
			"/>
		<path d="M39.7,239.5c0.5-3.4,0.9-6.8,1.7-10.2c0.6-2.4,2.4-4.2,5.1-3.8c2.6,0.4,2.8,2.7,2.7,4.9c-0.2,4.5-0.3,9-0.3,13.5
			c0,2.6-0.8,4.6-3.7,4.9c-2.8,0.3-4.3-1.4-4.8-4c-0.3-1.7-0.3-3.5-0.4-5.2C39.9,239.6,39.8,239.6,39.7,239.5z"/>
		<path d="M161.2,248.7c0,0.9,0,1.9,0,2.8c0,2.7-1.1,4.5-4.1,4.5c-3.1,0.1-4.1-1.9-4.1-4.5c0-2.7-0.1-5.5,0.6-8
			c0.8-2.5,2.2-5.1,4-7.1c0.8-0.9,3.7-0.9,4.8-0.1c0.9,0.6,1,3.1,0.7,4.6c-0.6,2.6-1.7,5.1-2.6,7.7
			C160.8,248.6,161,248.7,161.2,248.7z"/>
		<path d="M473.6,265c1.2-1,2.2-2.7,3.5-3c1-0.2,3.1,1.3,3.4,2.3c0.9,3.8,1.7,7.7,1.7,11.6c0,2.1-1.3,4.4-2.5,6.3
			c-1,1.7-2.8,2.5-4.8,1.2s-2.7-2.8-1.8-5.3c0.9-2.5,1.2-5.1,1.5-7.7c0.2-1.5-0.2-3.2-0.3-4.8C474.1,265.4,473.9,265.2,473.6,265z"
			/>
		<path d="M361,236.1c-0.2,1.5-0.2,3.1-0.6,4.5c-0.6,2.6-2.6,3.8-5.2,3.3c-2.6-0.4-2.9-2.4-2.9-4.7c0-3.1-0.3-6.2-1-9.2
			c-0.5-2.2-0.2-3.8,1.8-5c2.2-1.3,4.2-0.4,5.1,1.4c1.6,3,2.5,6.2,3.7,9.4C361.7,235.9,361.4,236,361,236.1z"/>
		<path d="M393.8,157.6c1.3-0.3,3.6,0.1,4.5,1.1c1.9,2.1,3.3,4.8,4.4,7.4c0.5,1.1,0.2,3.5-0.7,4.2c-1,0.9-3.3,1.2-4.6,0.6
			c-4-1.8-4.9-5.9-6.4-10.2C391.9,159.7,392.6,157.8,393.8,157.6z"/>
		<path class="st1" d="M234,68.3c-3.1-4.3-7.2-7.1-12.2-8.3c-8.5-2.1-17.1-4-25.8-5.7c-11.6-2.2-23.3-4.1-35-6.2
			c-0.9-0.1-2.1-0.8-2.4-1.5c-0.3-0.7,0.3-2.2,0.9-2.6c5.7-3.8,11.5-7.3,18.8-5c3.2,1.1,6.5,1.7,9.7,2.8c13.9,4.6,27.8,9.1,41.6,14
			c6.6,2.4,10,9.7,8.4,17.8C236.4,71.5,235.2,70,234,68.3z"/>
		<path class="st2" d="M222.6,265.6c2-7.9,3.1-8.2,9.8-3.4c2.5,1.8,3.2,3.7,2.2,6.6c-1.2,3.4-2.1,6.9-3.3,10.3
			c-0.3,0.7-1,1.7-1.7,1.9c-3.5,1-8.3-3.2-8.5-7.1C221.6,271.2,222,268.4,222.6,265.6z"/>
		<path class="st2" d="M235.1,115.9c1.4-1.8,3.8-3.2,6-3.9c2.4-0.8,4,2.1,4.2,6.3c0.1,2.9-1.8,2.9-3.3,3
			C239.4,121.4,234.2,117.1,235.1,115.9z"/>
		<path class="st2" d="M293.2,274.6c-2.3,0.7-3,0.1-3.3-2.3c-0.5-4.5-1-9-2.3-13.3c-1-3.2-0.5-3.6,4.7-6.1c2.6-1.3,4,0.5,4.5,2.7
			c0.9,4.3,1.6,8.7,2.2,11.7C299.2,271.9,297.8,273.3,293.2,274.6z"/>
		<path class="st2" d="M269.6,118.4c0-1,0.5-2.9,0.7-2.9c2.2,0.1,4.4,0.4,6.4,1.1c0.6,0.2,1.3,1.7,1.2,2.5c-0.3,3.7-2.1,4.7-7.8,4
			C269.9,121.6,269.6,120,269.6,118.4z"/>
	</g>
</g>
</svg>
