<?xml version="1.0" encoding="utf-8"?>
<!-- Generator: Adobe Illustrator 23.0.1, SVG Export Plug-In . SVG Version: 6.00 Build 0)  -->
<svg version="1.1" id="Layer_1" xmlns="http://www.w3.org/2000/svg" xmlns:xlink="http://www.w3.org/1999/xlink" x="0px" y="0px"
	 viewBox="0 0 510 450" style="enable-background:new 0 0 510 450;" xml:space="preserve">
<style type="text/css">
	.st0{fill:#B381A8;}
	.st1{fill:#D5767D;}
</style>
<g>
	<path class="st0" d="M255.5,171.2c3.8-8.6,7.2-16.7,10.9-24.8c14-30.6,30.8-59.5,52.8-85.1c14.7-17.1,30.8-32.5,50.6-43.7
		c12.7-7.2,26.1-12.6,40.5-14.7c15.5-2.3,30.2,0.7,44.2,7.4c19.8,9.5,35,23.9,44.4,43.9c4.6,9.9,6.2,20.5,6.5,31.3
		c0.8,28.6-6.6,55.3-18.6,80.9c-15.7,33.6-35.6,64.6-57.4,94.6c-24.3,33.5-50.9,65-79.5,94.8c-24.2,25.4-49.1,50.1-73.8,75.1
		c-4,4.1-8.1,8.1-12.3,12c-6,5.7-10.7,5.8-16.5,0c-20.1-19.8-40.3-39.5-60-59.7c-16.9-17.4-33.5-35-49.7-53.1
		c-37.3-41.6-70.8-86-98.1-134.9c-8.9-15.9-17.5-32-23.4-49.3C9.2,125.4,5,104.4,5.5,82.8c0.4-18.9,8.1-35.2,20.4-49.3
		C41,16.3,59.9,5.6,82.7,2.7c17.5-2.3,33.7,1.6,49.2,9.8c27.6,14.6,49.7,35.4,68.8,59.7c22.8,29.1,39.6,61.6,53.4,95.7
		C254.5,168.9,254.9,169.9,255.5,171.2z"/>
	<g>
		<path d="M369,277.7c-0.3,0.7-0.6,1.5-0.9,2.2c-1.4,2.7-4.2,4.1-7.3,3.5c-2.8-0.5-4.8-2.6-5.2-5.5c-0.2-1.7-0.2-3.4-0.6-5
			c-1.6-6.7-6-10.4-13.2-10.8c-10.2-0.5-18.5,4.5-20.3,14.8c-0.7,3.8-4,5.9-7.9,5.2c-3.4-0.6-5.6-3.7-5.2-7.4
			c1.2-12.2,11.3-22.8,24-25.2c1.5-0.3,2.9-0.6,4.3-0.9c2.5,0,4.9,0,7.4,0c0.7,0.2,1.3,0.4,2,0.5c10.6,1.8,17.6,7.9,21,18.1
			c0.8,2.6,1.3,5.3,1.9,7.9C369,276,369,276.8,369,277.7z"/>
		<path d="M178.4,248.6c1.6,0.4,3.2,0.7,4.8,1.1c14.4,3.7,19.9,17.4,19.5,27.8c-0.1,3.4-2.8,5.8-6.3,5.9c-3.4,0.1-6.2-2.1-6.8-5.4
			c-0.2-0.9-0.1-1.8-0.2-2.6c-0.8-8.5-6.4-13.6-15-13.5c-9.5,0.2-17.1,4.6-19,14.8c-0.8,4-4.2,6.1-8.1,5.2c-3.4-0.7-5.4-4.1-4.9-7.9
			c1.9-13.3,12.2-23,26.6-25.1c0.5-0.1,1-0.3,1.4-0.4C173.2,248.6,175.8,248.6,178.4,248.6z"/>
		<path d="M187.5,307.5c1.3,0,2.2,0,3.2,0c42.8,0,85.5,0,128.3,0c3.5,0,3.4,0,3.5,3.4c0.1,10.2-1.6,20-5.4,29.4
			c-6.9,17.2-19.4,28.6-37.2,33.6c-17.5,4.9-35.3,5-52.7-0.5c-21.5-6.8-33.6-22.2-38.3-43.9C187.4,322.4,186.8,315.2,187.5,307.5z"
			/>
	</g>
	<ellipse class="st1" cx="254.7" cy="353.7" rx="17.5" ry="14.6"/>
</g>
</svg>
