<svg xmlns="http://www.w3.org/2000/svg" viewBox="0 0 403.94 274.43"><defs><style>.cls-1{fill:#eea3c8;}.cls-2{fill:#be2571;}.cls-3{fill:#e66fa7;}.cls-4{fill:#bd1966;}.cls-5{fill:#c94888;}.cls-6{fill:#fff;}</style></defs><title>Asset 16</title><g id="Layer_2" data-name="Layer 2"><g id="Camada_1" data-name="Camada 1"><path class="cls-1" d="M57.74,163.81a67.83,67.83,0,0,0-33.42,4.7C7.14,175.76,1.16,189.11.16,199s2.95,15.3,7.92,20.27,26.3,25.5,33,33,16.78,20.94,30.74,20.81,26.71-4.43,36.78-16.51l13.55,13.69s7.79,8.32,18.52,1.48,50.74-32.62,50.74-32.62,73.69.34,105.09-3.29,94-10.67,98.25-52.54a33.4,33.4,0,0,0-10.06-27c-12.35-12.22-16.65-16.11-16.65-16.11l3.22-3.76a35.48,35.48,0,0,0,12.22,2.69c6,0,16.91-3.63,16.91-13.83s-12.08-17.61-12.08-17.61l.2-1.41,15-42.28s2.31-8.26-3.93-14.3-45.9-45.93-45.9-45.93A14.57,14.57,0,0,0,344.56,0c-5.23,0-10.73,2.68-12.28,7.52s-7.11,21.07-7.11,21.07L314.23,17.38s-4.43-3.76-9.6-3.76-8.86,2.42-10.2,5-6.67,13.52-9.69,16.74c0,0-5-5.23-14.8-5.23S246.48,39,236.62,57.65a14.16,14.16,0,0,0-5.49-1.36s-10.92-13.54-18.87-12.43a11.5,11.5,0,0,0-5.84,2l-29.63-30a37.76,37.76,0,0,0-27.45-12c-17.41,0-30.3,15.81-35,22.65s-17.51,31.48-28,62.88S57.74,163.81,57.74,163.81Z"/><path class="cls-2" d="M25,230s26,4.3,45.77-16c0,0-1.21,7.79,3.89,12.48s27.74,22.73,30.47,26.85c0,0-15.44,15.57-30.47,15S54.38,258.71,50,254.81,25,230,25,230Z"/><path class="cls-2" d="M88.07,231.59s6.71,0,16.24-5.36,47.25-28.32,47.25-28.32l35.7,38.79-51.54,32.48a9.14,9.14,0,0,1-10.87-2C119.75,261.93,102.3,241.66,88.07,231.59Z"/><path class="cls-2" d="M156.59,196.56,191.22,234s60.4,1.19,91-1.43,99.12-8.52,106.9-45.3c0,0,4.57-15.3-6.44-26.44S349,127.44,349,127.44s3.36,22.42-8.05,34S312,199.76,156.59,196.56Z"/><path class="cls-2" d="M330,101.34s14.16,8.38,16,17L365,136.7l3.16-3.22-34-32.14Z"/><path class="cls-2" d="M355.1,80.8S357,95.09,340.2,99.72v1.11l33.42,31.31s13.49,5.74,19.53-1.61-.3-13.09-2.11-14.6-4.94-3.82-4.94-3.82Z"/><path class="cls-2" d="M343.62,64.63a17.07,17.07,0,0,1,7.65,6l33.43,33.69,14.49-41.75A10.78,10.78,0,0,0,395.7,52c-5.23-4.83-37.31-37-37.31-37a31.78,31.78,0,0,1-1.21,9.26C355.84,28.12,343.62,64.63,343.62,64.63Z"/><path class="cls-3" d="M37.91,223.24s22,.1,33.32-18.92c0,0,3.92-6.48,24.26-6.41,0,0,1.31.47-.91,1.67S80.79,206,79.18,212.07s2.68,13,8.89,13.28,9.23-.9,14.06-4.12,48.72-30.71,48.72-30.71,69.83.14,104.06-3.75,82.67-13.07,88.71-43.11S319.06,114.22,315,110s-3.83-7.85-1.36-9.36a52.64,52.64,0,0,0,8.8-6.81s7.79,3.69,14.37,2.35,15.77-6.85,13.22-18.66-14.23-6-9.87-17.85S354,19.53,354,19.53s2.85-10.1-6.21-12.32S337.58,15,337.58,15s-14.19,32.61-16.5,34.22-7.15,3-8.06-.9S316,35.6,316.34,33,315,21.91,308.39,20.3s-11.17.81-12.88,4.73-6.24,15.2-10.67,15.4-7.45-2.92-12.59-3-11.77.31-16,3.83-12.38,12.08-18.63,21c0,0-7.24.8-8.25-.61S224,50.6,217.19,50.3s-9.76,2.92-9.76,2.92l-4.53,5.53a17.05,17.05,0,0,0-16.41-.3s9-43.08-30.5-45.9S99.21,90.13,99.21,90.13L66.06,171.06,30.76,175s-15.84,12.49-15.84,16.38,1.21,16.11,1.21,16.11Z"/><path class="cls-4" d="M311.61,116.15s-83.39,14.51-127,36.79-43.29,26-43.29,26L92.94,210.25s-6.28,3.59-6.11,6.45,2.25,5.47,4.86,4.63S114.34,208,114.34,208l32.08-19.23s57.62.91,107.68-4.33,83.45-16.23,87.31-42.27S311.61,116.15,311.61,116.15ZM278.53,164l-95,11.81-4.29-4s50.19-22.28,78.92-30.06,63.88-16.91,68.72-1.88S278.53,164,278.53,164Z"/><path class="cls-4" d="M40,175.09c-7.78,1.61-24.43,6-27.38,16.91s0,13.42,0,13.42.81,16.91,18.92,17.92,29.4-8.66,36-17.92a89.09,89.09,0,0,0,9.87-17.51l41.27,1.41,12.89-6.45,4.83-1.2,1.2-1.46.76-2.62S47.81,173.48,40,175.09ZM52.23,197c-.26,1.19-6.57,5.52-10.47,8.2s-12.88.81-12.88.81-2-4,4.7-11,21.34-7.65,21.34-7.65S52.5,195.76,52.23,197Z"/><path class="cls-4" d="M70.89,170.26,84.72,172l17.18-44.56,9-24.43s13.69-43.08,23.22-56.77,16.14-18.69,23.49-16.68,8.25,7.25,8.25,7.25,2-10-2.21-13.79-12.49-7.52-18.39-6.18-18.66,14.9-18.66,14.9L114.11,53.42l-30.2,78.29Z"/><path class="cls-4" d="M144.61,45s1.51-2.31,5.94-1.61,5.94,4.33,5.44,6.95-3,10.06-.91,13.39,13-6.31,13.52-12.22-2.55-29.93-5-32.08S158.27,15,158.27,15s9.26-.41,17.45,8.72S184,47.18,182.29,55.1s-9,26-22.68,25.77-18.52-9.8-19.19-15.71S144.61,45,144.61,45Z"/><path class="cls-4" d="M155.05,149.18c-2-1.2-5.91-.94-5.91-.94a59.63,59.63,0,0,1-.67-6c-.13-2.82,5.1-18.8,5.1-20.81s8.05-27.25,7.65-27.12-4-2.27-5.64-2.41-9.39.81-9.39.81h-5.84a61.16,61.16,0,0,0-8.52,1.6c-6.31,1.48-19.2,15.31-25.77,28.87s-7.52,34.76-7.52,34.76,2.55,10.6,5,12.48,11.4,3.89,17.58,2.82,17.33-15.44,17.33-15.44c4.31,4.64,7.5,4.84,11.86,5.1a7.73,7.73,0,0,0,8.39-6C159.68,153,157.06,150.39,155.05,149.18Zm-21.34-10.46-11.82,13.69-8.45,4.69c-.67-9.39,2.15-21.34,11-34.76s15-14.76,15-14.76l2.14,9.39Z"/><path class="cls-4" d="M185.65,88s-8.46,10.34-12.22,17.72-7.51,17.85-7.91,23.22,0,9.26.79,9.93,6.45-1.64,6.45-1.64,18.39-21,19.73-25.34-.8-5.5-.8-5.5-3.63.4-5.24-1.88-2.79-8.72-1.8-10.87,9.86-21.75,9.86-21.75A6.62,6.62,0,0,1,200,70.8a17.14,17.14,0,0,0,5,.67l.8-2.68s2.69-12.89,3.36-13.16,3.49-2.28,9-1.07,6.71,7.52,6.31,10.47a56.73,56.73,0,0,0,.07,8.86l-12.29,27.65s-11.5,26.44-17.29,34.22-14.52,18.66-22.7,19.6-18.12-.4-20.54-15.84,4.9-33.82,4.9-33.82,14.56-25.1,19.13-27.52,9.39-4.56,10.87-3.22,1.26,3.89,1.26,3.89Z"/><path class="cls-4" d="M351.78,19.14c1.05-4.48-2.77-7.45-5.94-8.7s-4.12,1-4.12,1-17.83,44.29-18.9,48.18-22,34.23-25.1,28.05,6-28.32,6-28.32,8.26-21.81,8.93-25.7.27-5.57-2.49-8.19-7.11-1.34-7.11-1.34l-1.95,2.95s-16,22.89-18.22,18.46-11.57-5.34-11.57-5.34l-13.59,3.42-3.53,2.42-.7,3.22-7.05,12.18s-6.34,9.8-8.29,7-8.38-1.41-8.38-1.41-9.26,21.54-11.28,27.17-4.66,22.36-4.66,22.36c.7,6.84,4.13,12.28,12.48,12.68s14.19-9.66,14.19-9.66c4.43,3.52,10.2,2.14,10.2,2.14,18.12-1.74,30.87-35.09,30.87-35.09.68,10.46,5.58,17.91,18.66,17.65S325,85.9,325,85.9c5.17,4.5,8.86,4.7,13.49,3.69s8.32-5.37,8.05-9.19-4.43-4.36-5.57-4.16-2.55,1.47-5.44-2.35,3.39-16.44,3.39-16.44S350.72,23.62,351.78,19.14ZM266.05,87c-3.76,7.25-18.53,17.84-18.53,17.84C245.26,87.8,261,65.43,261,65.43c6,5,10.46,3.49,10.46,3.49S269.8,79.79,266.05,87Z"/><path class="cls-5" d="M61.86,224.5S49.28,231,43.14,231.75s-16.42,0-16.42,0l4.55,4.61s9.86.37,14.84-1.29,16.61-8.66,16.76-9.06S63.42,224.25,61.86,224.5Z"/><path class="cls-5" d="M68.86,233s-8.81,4.63-15.75,6.14-18.28.87-18.28.87l3.89,3.9s8.55.42,14.79-1.24,15.05-6.9,15.95-7.6S71.08,232.85,68.86,233Z"/><path class="cls-5" d="M77.12,240.81s-12.64,6.29-16.66,6.79-17.37.61-17.37.61l4.09,4s9,.51,16.85-2.1a49.59,49.59,0,0,0,14.34-8.21S79.38,240.6,77.12,240.81Z"/><path class="cls-5" d="M84.92,249s-13,6.34-18.78,6.79-15.19,0-15.19,0l3.77,3.93s6.49,1.51,15.9-1.46A45.17,45.17,0,0,0,86.07,250C86.12,249.87,86.63,248.66,84.92,249Z"/><path class="cls-5" d="M92.57,256.86s-11.28,5.84-18.73,6.7a93.6,93.6,0,0,1-13.74.53s4.54,2.74,7.84,3.37,11.39-.63,17-3.7,9-5.79,9.11-6.24S94.19,256.06,92.57,256.86Z"/><path class="cls-5" d="M172.49,240.19s-17.11,8.65-22.68,11.54-19.66,11.74-20.4,12.48-2.21,2.68-.54,2.75,11.55-5,20.81-10.4S173,241.49,173,241.49,174,240.29,172.49,240.19Z"/><path class="cls-5" d="M171.82,228.37s-19.73,13.56-29.66,19.73-19,11.14-21.74,10.74,14.49-11.52,21.34-15.22,29.66-16.32,29.66-16.32S172.7,227.23,171.82,228.37Z"/><path class="cls-5" d="M164.58,220.25s-17.39,12-29,18.93-21.74,12.28-23.08,11.88,5.3-5.95,8.79-8S151,225.77,156,223.41s7.78-4,8.18-4S165.2,219.82,164.58,220.25Z"/><path class="cls-5" d="M154.78,212s-22.65,11.27-34.43,18.87-15.95,10.87-15.95,11.32.75,1.7,6-1,32.5-19.21,41.08-25.51C158,210.86,154.78,212,154.78,212Z"/><path class="cls-5" d="M147.66,204.42s-20.33,10.46-31.54,16.64-20.2,12.55-19.86,13.69,4.9-.81,9.39-3.22,24.77-14,33.36-19.33S151.42,203.54,147.66,204.42Z"/><path class="cls-5" d="M384.16,172s-.67,20.84-18.49,33.12S316,225.05,284.53,227s-85.66,3.43-85.66,3.43-8.55.2-9.41.5-.59.6-.59.6l1.18,1.27s24.37.6,30.26.6,54.86-.15,83.15-4.68,55.87-12.1,68.89-26,12.48-23.36,13.22-29.67c0,0,.23-2.27-.62-2.27S384.16,172,384.16,172Z"/><path class="cls-5" d="M377.75,164.6s1.27,23.66-25.4,38.94c-25.77,14.77-62.68,19.06-75.57,19.73s-40.46,2.27-50.83,2.13c-8.83-.13-35.49-.44-43.19-.53h0L181,223a17.4,17.4,0,0,1,3.64-.44c6.27-.31,79.85-1,103.81-4.23s63.71-12.26,76.1-27.58c9.77-12.08,10.57-19.23,11.28-24.77S377.75,163.6,377.75,164.6Z"/><path class="cls-5" d="M369.86,155.9s.07,13.62-6.57,22.34-17.05,19.33-37.79,25.5-45.29,12.76-91,13.36-58.85.09-58.85.09a21.92,21.92,0,0,1-2.11-2.28c.2,0,39-.9,43.52-.9s69.27-1.13,98.18-9.73,45.29-22,49.72-32.28S367.65,152.61,369.86,155.9Z"/><path class="cls-5" d="M361.74,147.44s3.49,25.9-26,41.07-65,18-76.51,18.93-54,2.68-70.37,2c-11.78-.48-17.87-.44-20.35-.6l-.5,0-1.4-1.5a9.43,9.43,0,0,1,3-.6c2.06-.1,75.49-2.44,79.92-2.5s63.52-5.92,84.46-18,25.37-28.48,25.77-31.7.45-6.8.55-7.15S361.68,146.82,361.74,147.44Z"/><path class="cls-5" d="M354.38,139.69s-.22,21.51-16.8,34.22c-17.31,13.29-44.69,22.79-96,26.28s-81.07.66-81.07.66l-1.65-1.79s36.24-.72,51-1.15,85.37-4,107.11-15.44,28.73-17.06,34-32.48a69.38,69.38,0,0,0,1.67-8.93C352.89,138,353.94,139.32,354.38,139.69Z"/><path class="cls-5" d="M390.06,119.79s-1.2,4.3-4.43,6.51-5.77,3.76-5,5.1,4.3,1,6.44-.8a15.65,15.65,0,0,0,4.77-8.53C392.28,119,391.2,117.11,390.06,119.79Z"/><path class="cls-5" d="M373.62,125.36s8.66-3.49,9.67-10.27-.41-6.24-.41-6.24l-.77-.77s-.81,5.43-3.47,8.07-7.7,6.53-7.64,7.6S371.41,125.57,373.62,125.36Z"/><path class="cls-5" d="M373.77,101.69s-1.66,6.69-5.28,9.56-6,4.43-5.69,5.49,4.53.75,7-1.21a15.55,15.55,0,0,0,5.18-8C375.53,104.86,375.48,100.63,373.77,101.69Z"/><path class="cls-5" d="M365.62,95.19s-2.87,6.5-5.64,8.41-5.28,4.13-5,5.08,3.32,1.51,6.29-.6a14.64,14.64,0,0,0,5.54-8.25c.55-2.67.65-4.89,0-5.19S365.87,94.65,365.62,95.19Z"/><path class="cls-5" d="M359,89.26S358.88,95,355,98.52s-7.62,2.92-8.07,2.56-.26-1.46,3.07-3.87,5.63-5.14,6.19-6.75S358,87.7,359,89.26Z"/><path class="cls-5" d="M393.08,53s-8.32,21.47-9.93,26.57a160.34,160.34,0,0,0-4.09,17.25c.07.74.4,2.68,1.68,1.14s5.43-13.22,7.65-20.6,6.1-22.08,6.1-23.09S394.16,51.94,393.08,53Z"/><path class="cls-5" d="M385.3,44.9S378.05,63,374.76,73.55s-3.82,15-3.76,15.71.88,2,1.95.47,8.73-22.89,11.14-33.09S387.25,43.29,385.3,44.9Z"/><path class="cls-5" d="M377.51,36.71s-10.33,26-11.87,31.41S363.27,80,363.42,81.54s1.41,1.27,2.35-.74,6.58-16,9-26.11,3.56-17.11,3.56-17.11S378.52,35.43,377.51,36.71Z"/><path class="cls-5" d="M369.46,28.59s-8,20.4-10.8,29.59S355.08,71.63,355,73s1.34,2.62,2.48.53,6.51-16.91,8.39-23.89,5.16-19.59,5-20.06S370.33,28.05,369.46,28.59Z"/><path class="cls-5" d="M362.92,22.08s-5.2,21.47-7.42,28.39-5.73,15.5-6.44,16.24-2.89-1.14-2.89-1.88,6.48-20.87,8.38-26.44,6.59-17.32,7-17.52A1,1,0,0,1,362.92,22.08Z"/><path class="cls-6" d="M333.36,127.44c-2-11.21-19.53-15.84-41.68-12.21S201.21,134.85,143.24,172c0,0-56,.71-71-1.26,0,0,18.12-44.24,23.89-62s20.81-59.72,30.47-72.21,16.6-17.65,27.11-15.3S165.52,37,165.38,40.74s-2,20.67-11.68,23.08S144,53.89,144.44,50.4s3-7.79-.13-8.73-5,.61-6,4.17S134.91,61,142.09,67.51s16.24,4.83,20.47.54,11.65-13.22,11.34-27.52-7.34-29.19-25.46-28.48S119,31.88,116.22,36.61,101,70.73,91.56,96.91,63,170.51,63,170.51s-17.64-1.06-27.3,1.49-24.16,9.67-26.58,23.49,12,20.27,21.48,19.33,27.91-9.26,37.17-34.77l-7.71-.87.23-1.33c16.57,1,50.27,2.32,63.86,2.07l12.55-.33v1.28h-8.39L86.83,208.14l-.45.4s-3.78,1.85-3.83,3.32.71,2.62,2.62,1.67,12.58-7.6,16-9.72,39.56-24.56,40.72-24.81c0,0,38.44.18,71.86-1.43s83.42-9,100.73-19.46S335.36,138.65,333.36,127.44ZM51.29,193.34c-4.36,4.9-15.56,15.78-26.84,13.26s-7.11-15.42-1.07-20.31S42,176.7,56.8,177.64l2.49.15C58.84,179.1,55.36,188.78,51.29,193.34Zm250.06-37.75s-39.73,18.19-144.29,15.15c0,0,44-22.63,80.8-34.31s80.3-22.16,87.14-9.73C332.34,140,313.83,151.66,301.35,155.59Z"/><path class="cls-6" d="M152.87,94.69c1-3-.11-4.83-3.33-5s-4.83,7.45-4.83,7.45a10,10,0,0,0-8-6.44c-6.44-1.21-13.39,3-23.42,13.69s-17.25,34-17,39.3-2,24.21,12.18,22.5S132.63,145,132.63,145c1.71,6.75,6.14,8.76,10.57,9.26s5.84-1.71,5.84-4.83-3.22-2.71-5.94-2.38S140,145.53,139,142s.1-7.95.51-10.29S151.86,97.71,152.87,94.69Zm-22.05,39c-4.93,12-16.21,25.37-23.25,25.37s-7-20.94,5.77-41.78,22.51-19.53,22.51-19.53C144.61,101,135.75,121.67,130.82,133.65Z"/><path class="cls-6" d="M342.52,14.11s.9-3.67-1.56-4.68-4.23,0-4.79,1.16S322.82,50.53,321.41,54,305.77,86.91,295,87.85s-6.85-16.65-6.85-16.65L301.35,33l2.34-6.44s.68-3.36-1.81-4-4.43.67-5.43,3.22-9,19.46-17.79,23.82c0,0-2.67-10.65-10.27-10.73s-13.85,4.09-22,14.86S233.3,80.5,232,87s-1.71,14.3-3.53,17.32-6.14,9.36-7.55,9.1-3.12-3.06-2.41-8,8.86-28.18,10.37-31.4,2.51-6.15,1.71-8.16-3.22-2.05-6.14-.87-7.25,2.72-11.08,1.85a21.3,21.3,0,0,0,2.22-8.36c.07-4.31-2.69-6.11-5.84-6s-5.84,2.75-6.24,8.93S205,69.7,205,69.7s-10.14,31.13-19.4,45.93-15.23,23.49-22.48,24-8.86-10.46-6.51-21.74,18.34-40.13,28.06-40.53c0,0,2.54.45.73,6.59s-3.12,9.2-3.07,10.31,0,3.1,3.2,3.77a4.48,4.48,0,0,0,4.1-3.43c.87-3.35,7.65-21,7.65-21s.65-4.23-2.17-4.63-3.82.4-4.32,1.41-.56,2.12-.86,2.22a1.4,1.4,0,0,1-.81-.16s-3.12-4.39-9.89-1S163,84.22,155.28,101.64s-7.05,29.19-4.93,36.34,12.21,14.56,25,3,19.6-27.54,19.6-27.54,12.21-25.61,15.17-38c0,0-4.72-2.6-4.62-3.21a2.34,2.34,0,0,1,.61-1.1,17.15,17.15,0,0,0,15.15,2.66s.8.07.23,1.38a168.38,168.38,0,0,0-8.19,22.47c-2.61,10-3.62,22.26,6.24,22.76s14.6-12,14.6-12,4.93,9.57,18,.91,24.13-31.88,26.14-50.27c0,0-2.84,1-3.89.69l-.2-1.46s9.06-1.51,13.23-6.59c0,0-7.19,15.75-6.79,27.43s6.54,16.21,12.88,16.11,17.72-6.25,26.65-22.62c0,0,2.41,9.19,10.2,8.72s8.79-2.88,8.79-4.36-.53-4.13-3.92-3.64-6.22,2.17-8.16-2.13-.47-12,1.94-18.65S342.52,14.11,342.52,14.11ZM210.91,62c0,.27,0,1.38-1.07,1.21s-1.58-1.24-1.44-2.69a2,2,0,0,1,1.88-2c.63.1.9.82.47,1.07a1.39,1.39,0,0,0-.91,1.18C209.81,61.64,210.88,61.74,210.91,62Zm47.75,30.4C247,108,243.5,106.1,241.21,105.43s-6-7.11-1.2-23.09A83,83,0,0,1,254.54,55.1s-1.26-7.59,1.44-9.63l.84.22s-1.21,1.12-1.34,4.27.4,3.86.4,3.86,4.33,8.12,15.53,6.31A66.56,66.56,0,0,1,258.66,92.41Zm3-43s2.42-4.12,6.09-3.72,4.08,7.45,4.08,7.45S264.21,55.56,261.63,49.44Z"/></g></g></svg>