<?xml version="1.0" encoding="utf-8"?>
<!-- Generator: Adobe Illustrator 23.0.1, SVG Export Plug-In . SVG Version: 6.00 Build 0)  -->
<svg version="1.1" id="Layer_1" xmlns="http://www.w3.org/2000/svg" xmlns:xlink="http://www.w3.org/1999/xlink" x="0px" y="0px"
	 viewBox="0 0 403.9 274.4" style="enable-background:new 0 0 403.9 274.4;" xml:space="preserve">
<style type="text/css">
	.st0{fill:#FFFFFF;}
</style>
<title>Asset 16</title>
<path class="st0" d="M61.9,224.5c0,0-12.6,6.5-18.7,7.3s-16.4,0-16.4,0l4.6,4.6c0,0,9.9,0.4,14.8-1.3s16.6-8.7,16.8-9.1
	S63.4,224.3,61.9,224.5z"/>
<path class="st0" d="M68.9,233c0,0-8.8,4.6-15.8,6.1S34.8,240,34.8,240l3.9,3.9c0,0,8.5,0.4,14.8-1.2s15.1-6.9,15.9-7.6
	S71.1,232.9,68.9,233z"/>
<path class="st0" d="M77.1,240.8c0,0-12.6,6.3-16.7,6.8s-17.4,0.6-17.4,0.6l4.1,4c0,0,9,0.5,16.9-2.1c5.2-1.9,10.1-4.7,14.3-8.2
	C78.4,241.9,79.4,240.6,77.1,240.8z"/>
<path class="st0" d="M84.9,249c0,0-13,6.3-18.8,6.8s-15.2,0-15.2,0l3.8,3.9c0,0,6.5,1.5,15.9-1.5c5.6-1.7,10.9-4.5,15.4-8.3
	C86.1,249.9,86.6,248.7,84.9,249z"/>
<path class="st0" d="M92.6,256.9c0,0-11.3,5.8-18.7,6.7c-4.6,0.5-9.2,0.7-13.7,0.5c0,0,4.5,2.7,7.8,3.4s11.4-0.6,17-3.7
	s9-5.8,9.1-6.2S94.2,256.1,92.6,256.9z"/>
<path class="st0" d="M172.5,240.2c0,0-17.1,8.6-22.7,11.5s-19.7,11.7-20.4,12.5s-2.2,2.7-0.5,2.8c1.7,0.1,11.6-5,20.8-10.4
	s23.3-15.1,23.3-15.1S174,240.3,172.5,240.2z"/>
<path class="st0" d="M171.8,228.4c0,0-19.7,13.6-29.7,19.7s-19,11.1-21.7,10.7s14.5-11.5,21.3-15.2s29.7-16.3,29.7-16.3
	S172.7,227.2,171.8,228.4z"/>
<path class="st0" d="M164.6,220.3c0,0-17.4,12-29,18.9s-21.7,12.3-23.1,11.9s5.3-5.9,8.8-8s29.7-17.3,34.7-19.6s7.8-4,8.2-4
	S165.2,219.8,164.6,220.3z"/>
<path class="st0" d="M154.8,212c0,0-22.6,11.3-34.4,18.9s-15.9,10.9-15.9,11.3s0.8,1.7,6-1s32.5-19.2,41.1-25.5
	C158,210.9,154.8,212,154.8,212z"/>
<path class="st0" d="M147.7,204.4c0,0-20.3,10.5-31.5,16.6s-20.2,12.6-19.9,13.7s4.9-0.8,9.4-3.2s24.8-14,33.4-19.3
	S151.4,203.5,147.7,204.4z"/>
<path class="st0" d="M384.2,172c0,0-0.7,20.8-18.5,33.1S316,225.1,284.5,227s-85.7,3.4-85.7,3.4s-8.6,0.2-9.4,0.5s-0.6,0.6-0.6,0.6
	l1.2,1.3c0,0,24.4,0.6,30.3,0.6s54.9-0.1,83.2-4.7s55.9-12.1,68.9-26s12.5-23.4,13.2-29.7c0,0,0.2-2.3-0.6-2.3S384.2,172,384.2,172z
	"/>
<path class="st0" d="M377.8,164.6c0,0,1.3,23.7-25.4,38.9c-25.8,14.8-62.7,19.1-75.6,19.7s-40.5,2.3-50.8,2.1
	c-8.8-0.1-35.5-0.4-43.2-0.5l0,0L181,223c1.2-0.3,2.4-0.4,3.6-0.4c6.3-0.3,79.8-1,103.8-4.2s63.7-12.3,76.1-27.6
	c9.8-12.1,10.6-19.2,11.3-24.8S377.8,163.6,377.8,164.6z"/>
<path class="st0" d="M369.9,155.9c0,0,0.1,13.6-6.6,22.3s-17,19.3-37.8,25.5s-45.3,12.8-91,13.4s-58.9,0.1-58.9,0.1
	c-0.8-0.7-1.5-1.5-2.1-2.3c0.2,0,39-0.9,43.5-0.9s69.3-1.1,98.2-9.7s45.3-22,49.7-32.3S367.6,152.6,369.9,155.9z"/>
<path class="st0" d="M361.7,147.4c0,0,3.5,25.9-26,41.1s-65,18-76.5,18.9s-54,2.7-70.4,2c-11.8-0.5-17.9-0.4-20.4-0.6H168l-1.4-1.5
	c1-0.4,2-0.6,3-0.6c2.1-0.1,75.5-2.4,79.9-2.5s63.5-5.9,84.5-18s25.4-28.5,25.8-31.7s0.5-6.8,0.5-7.1S361.7,146.8,361.7,147.4z"/>
<path class="st0" d="M354.4,139.7c0,0-0.2,21.5-16.8,34.2c-17.3,13.3-44.7,22.8-96,26.3s-81.1,0.7-81.1,0.7l-1.6-1.8
	c0,0,36.2-0.7,51-1.1s85.4-4,107.1-15.4s28.7-17.1,34-32.5c0.8-2.9,1.3-5.9,1.7-8.9C352.9,138,353.9,139.3,354.4,139.7z"/>
<path class="st0" d="M390.1,119.8c0,0-1.2,4.3-4.4,6.5c-3.2,2.2-5.8,3.8-5,5.1s4.3,1,6.4-0.8c2.5-2.3,4.1-5.3,4.8-8.5
	C392.3,119,391.2,117.1,390.1,119.8z"/>
<path class="st0" d="M373.6,125.4c0,0,8.7-3.5,9.7-10.3s-0.4-6.2-0.4-6.2l-0.8-0.8c0,0-0.8,5.4-3.5,8.1s-7.7,6.5-7.6,7.6
	S371.4,125.6,373.6,125.4z"/>
<path class="st0" d="M373.8,101.7c0,0-1.7,6.7-5.3,9.6s-6,4.4-5.7,5.5s4.5,0.8,7-1.2c2.5-2.1,4.3-4.9,5.2-8
	C375.5,104.9,375.5,100.6,373.8,101.7z"/>
<path class="st0" d="M365.6,95.2c0,0-2.9,6.5-5.6,8.4s-5.3,4.1-5,5.1s3.3,1.5,6.3-0.6c2.8-2,4.7-4.9,5.5-8.3c0.5-2.7,0.6-4.9,0-5.2
	S365.9,94.7,365.6,95.2z"/>
<path class="st0" d="M359,89.3c0,0-0.1,5.7-4,9.3s-7.6,2.9-8.1,2.6s-0.3-1.5,3.1-3.9s5.6-5.1,6.2-6.8S358,87.7,359,89.3z"/>
<path class="st0" d="M393.1,53c0,0-8.3,21.5-9.9,26.6c-1.7,5.7-3,11.4-4.1,17.3c0.1,0.7,0.4,2.7,1.7,1.1s5.4-13.2,7.6-20.6
	s6.1-22.1,6.1-23.1S394.2,51.9,393.1,53z"/>
<path class="st0" d="M385.3,44.9c0,0-7.3,18.1-10.5,28.7s-3.8,15-3.8,15.7s0.9,2,2,0.5s8.7-22.9,11.1-33.1S387.3,43.3,385.3,44.9z"
	/>
<path class="st0" d="M377.5,36.7c0,0-10.3,26-11.9,31.4s-2.4,11.9-2.2,13.4s1.4,1.3,2.4-0.7s6.6-16,9-26.1s3.6-17.1,3.6-17.1
	S378.5,35.4,377.5,36.7z"/>
<path class="st0" d="M369.5,28.6c0,0-8,20.4-10.8,29.6S355.1,71.6,355,73s1.3,2.6,2.5,0.5s6.5-16.9,8.4-23.9s5.2-19.6,5-20.1
	S370.3,28,369.5,28.6z"/>
<path class="st0" d="M362.9,22.1c0,0-5.2,21.5-7.4,28.4s-5.7,15.5-6.4,16.2s-2.9-1.1-2.9-1.9s6.5-20.9,8.4-26.4s6.6-17.3,7-17.5
	c0.5-0.2,1.1,0,1.3,0.5C363,21.6,363,21.8,362.9,22.1z"/>
<g>
	<path class="st0" d="M107.6,159.1c7,0,18.3-13.4,23.3-25.4v0c4.9-12,13.8-32.6,5-35.9c0,0-9.7-1.3-22.5,19.5
		C100.6,138.1,100.5,159.1,107.6,159.1z"/>
	<path class="st0" d="M301.4,155.6c12.5-3.9,31-15.6,23.6-28.9c-6.8-12.4-50.3-2-87.1,9.7c-36.8,11.7-80.8,34.3-80.8,34.3
		C261.6,173.8,301.4,155.6,301.4,155.6z"/>
	<path class="st0" d="M241.2,105.4c2.3,0.7,5.8,2.6,17.5-13v0c7-9.4,11.4-20.6,12.8-32.3c-11.2,1.8-15.5-6.3-15.5-6.3l-1.3,1.3
		c-6.5,8.1-11.4,17.3-14.5,27.2C235.2,98.3,238.9,104.8,241.2,105.4z"/>
	<path class="st0" d="M51.3,193.3c4.1-4.6,7.6-14.2,8-15.5l-2.5-0.1c-14.8-0.9-27.4,3.8-33.4,8.6s-10.2,17.8,1.1,20.3
		C35.7,209.1,46.9,198.2,51.3,193.3z"/>
	<path class="st0" d="M271.8,53.1c0,0-0.4-7-4.1-7.5c-3.7-0.4-6.1,3.7-6.1,3.7l0,0C264.2,55.6,271.8,53.1,271.8,53.1z"/>
	<path class="st0" d="M403.5,64c0,0,2.3-8.3-3.9-14.3c-6.2-6-45.9-45.9-45.9-45.9c-2.5-2.3-5.7-3.6-9.1-3.8
		c-5.2,0-10.7,2.7-12.3,7.5c-1.5,4.8-7.1,21.1-7.1,21.1l-10.9-11.2c0,0-4.4-3.8-9.6-3.8c-5.2,0-8.9,2.4-10.2,5s-6.7,13.5-9.7,16.7
		c0,0-5-5.2-14.8-5.2s-23.5,8.9-33.3,27.5c-1.7-0.8-3.6-1.3-5.5-1.4c0,0-10.9-13.5-18.9-12.4c-2.1,0.1-4.1,0.8-5.8,2l-29.6-30
		c-7.1-7.6-17-12-27.4-12c-17.4,0-30.3,15.8-35,22.7c-4.7,6.8-17.5,31.5-28,62.9c-10.5,31.4-28.6,74.4-28.6,74.4
		c-11.4-1.3-22.9,0.3-33.4,4.7C7.1,175.8,1.2,189.1,0.2,199c-1,9.9,3,15.3,7.9,20.3c5,5,26.3,25.5,33,33s16.8,20.9,30.7,20.8
		c14-0.1,26.7-4.4,36.8-16.5l13.6,13.7c0,0,7.8,8.3,18.5,1.5c10.7-6.8,50.7-32.6,50.7-32.6s73.7,0.3,105.1-3.3
		c31.4-3.6,94-10.7,98.3-52.5c0.9-10.1-2.8-20-10.1-27c-12.3-12.2-16.6-16.1-16.6-16.1l3.2-3.8c3.9,1.6,8,2.5,12.2,2.7
		c6,0,16.9-3.6,16.9-13.8s-12.1-17.6-12.1-17.6l0.2-1.4L403.5,64z M179.2,71.4c6.8-3.4,9.9,1,9.9,1c0.2,0.1,0.5,0.2,0.8,0.2
		c0.3-0.1,0.4-1.2,0.9-2.2s1.5-1.8,4.3-1.4c2.8,0.4,2.2,4.6,2.2,4.6s-6.8,17.7-7.7,21c-0.5,1.9-2.1,3.3-4.1,3.4
		c-3.2-0.7-3.2-2.7-3.2-3.8s1.3-4.2,3.1-10.3s-0.7-6.6-0.7-6.6c-9.7,0.4-25.7,29.3-28.1,40.5c-2.4,11.3-0.7,22.3,6.5,21.7
		s13.2-9.2,22.5-24c9.3-14.8,19.4-45.9,19.4-45.9s-1.9-2.1-1.5-8.3s3.1-8.8,6.2-8.9c3.2-0.1,5.9,1.7,5.8,6c-0.2,2.9-0.9,5.8-2.2,8.4
		c3.8,0.9,8.2-0.7,11.1-1.8s5.3-1.1,6.1,0.9s-0.2,4.9-1.7,8.2c-1.5,3.2-9.7,26.5-10.4,31.4c-0.7,4.9,1,7.7,2.4,8
		c1.4,0.3,5.7-6.1,7.6-9.1c1.8-3,2.2-10.8,3.5-17.3s6.2-22.5,14.4-33.3c8.2-10.8,14.4-14.9,22-14.9s10.3,10.7,10.3,10.7
		c8.8-4.4,16.8-21.3,17.8-23.8c1-2.5,2.9-3.9,5.4-3.2s1.8,4,1.8,4l-2.3,6.4l-13.2,38.2c0,0-3.9,17.6,6.8,16.6
		c10.8-0.9,25-30.4,26.4-33.8c1.4-3.5,14.2-42.3,14.8-43.4c0.6-1.2,2.3-2.2,4.8-1.2c2.5,1,1.6,4.7,1.6,4.7S331.4,45.9,329,52.5
		c-2.4,6.7-3.9,14.4-1.9,18.7s4.8,2.6,8.2,2.1s3.9,2.2,3.9,3.6c0,1.5-1,3.9-8.8,4.4c-7.8,0.5-10.2-8.7-10.2-8.7
		c-8.9,16.4-20.3,22.5-26.7,22.6c-6.3,0.1-12.5-4.4-12.9-16.1c-0.4-11.7,6.8-27.4,6.8-27.4c-2.3,2.7-5.9,4.5-8.9,5.4
		c-0.1,0.8-0.3,1.9-0.3,1.9c-2,18.4-13.1,41.6-26.1,50.3s-18-0.9-18-0.9s-4.7,12.5-14.6,12c-9.9-0.5-8.9-12.8-6.2-22.8
		c2.2-7.7,4.9-15.2,8.2-22.5c0.6-1.3-0.2-1.4-0.2-1.4c-3.5,1.1-7.3,0.9-10.6-0.3c-0.3,0.9-0.5,1.9-0.5,1.9c-3,12.4-15.2,38-15.2,38
		s-6.8,16-19.6,27.5c-12.8,11.6-22.9,4.2-25-3c-2.1-7.1-2.8-18.9,4.9-36.3C163,84.2,172.5,74.8,179.2,71.4z M96.3,143.7
		c-0.3-5.3,7-28.6,17-39.3c10-10.7,17-14.9,23.4-13.7c3.6,0.5,6.7,3,8,6.4c0,0,1.6-7.6,4.8-7.5c3.2,0.2,4.3,2,3.3,5
		c-1,3-13,34.7-13.4,37c-0.4,2.3-1.5,6.8-0.5,10.3c1,3.5,1.4,5.4,4.1,5c2.7-0.3,5.9-0.7,5.9,2.4s-1.4,5.3-5.8,4.8s-8.9-2.5-10.6-9.3
		c0,0-10,19.5-24.2,21.2C94.3,167.9,96.5,149,96.3,143.7z M9.1,195.5c2.4-13.8,16.9-20.9,26.6-23.5c9.7-2.5,27.3-1.5,27.3-1.5
		s19.1-47.4,28.6-73.6c9.4-26.2,21.9-55.6,24.7-60.3c2.8-4.7,14.1-23.8,32.2-24.6c18.1-0.7,25.2,14.2,25.5,28.5
		c0.3,14.3-7.1,23.2-11.3,27.5c-4.2,4.3-13.3,6-20.5-0.5s-4.8-18.1-3.8-21.7s2.9-5.1,6-4.2s0.6,5.2,0.1,8.7
		c-0.4,3.5-0.4,15.8,9.3,13.4c9.7-2.4,11.5-19.3,11.7-23.1s-1.2-17.2-11.7-19.5c-10.5-2.3-17.5,2.8-27.1,15.3
		C116.9,49,101.9,91,96.1,108.7s-23.9,62-23.9,62c15,2,71,1.3,71,1.3c58-37.2,126.3-53.1,148.4-56.8c22.2-3.6,39.7,1,41.7,12.2
		c2,11.2-1.6,20.2-18.9,30.7c-17.3,10.5-67.3,17.9-100.7,19.5c-33.4,1.6-71.9,1.4-71.9,1.4c-1.2,0.3-37.3,22.7-40.7,24.8
		c-3.4,2.1-14.1,8.8-16,9.7c-1.9,1-2.7-0.2-2.6-1.7c0.1-1.5,3.8-3.3,3.8-3.3l0.5-0.4l41.5-27.3l1.7-1.1l-5.8,0.2
		c-13.6,0.3-44.9-1-55.7-1.6l-0.6,1.7c-9.3,25.5-27.7,33.8-37.2,34.8C21.1,215.8,6.7,209.3,9.1,195.5z M74.7,268.3
		c-15-0.6-20.3-9.6-24.7-13.5c-4.4-3.9-25-24.8-25-24.8s26,4.3,45.8-16c0,0-1.2,7.8,3.9,12.5c5.1,4.7,27.7,22.7,30.5,26.9
		C105.1,253.3,89.7,268.9,74.7,268.3z M135.7,269.2c-3.7,1.8-8.1,1-10.9-2c-5.1-5.3-22.5-25.5-36.8-35.6c0,0,6.7,0,16.2-5.4
		c9.5-5.4,47.3-28.3,47.3-28.3l35.7,38.8L135.7,269.2z M382.7,160.8c11,11.1,6.4,26.4,6.4,26.4c-7.8,36.8-76.3,42.7-106.9,45.3
		c-30.6,2.6-91,1.4-91,1.4l-34.6-37.4c155.4,3.2,173-23.5,184.4-35.1s8-34,8-34S371.7,149.7,382.7,160.8z M365,136.7l-19-18.4
		c-1.8-8.6-16-17-16-17h4.2l34,32.1L365,136.7z M391,115.9c1.8,1.5,8.1,7.3,2.1,14.6c-6,7.4-19.5,1.6-19.5,1.6l-33.4-31.3v-1.1
		c16.8-4.6,14.9-18.9,14.9-18.9l31,31.3C386.1,112.1,389.2,114.4,391,115.9z M384.7,104.3l-33.4-33.7c-1.9-2.7-4.6-4.8-7.7-6
		c0,0,12.2-36.5,13.6-40.4c0.9-3,1.3-6.1,1.2-9.3c0,0,32.1,32.2,37.3,37c3,2.6,4.4,6.7,3.5,10.6L384.7,104.3z"/>
</g>
</svg>
