<?xml version="1.0" encoding="utf-8"?>
<!-- Generator: Adobe Illustrator 23.0.1, SVG Export Plug-In . SVG Version: 6.00 Build 0)  -->
<svg version="1.1" id="Layer_1" xmlns="http://www.w3.org/2000/svg" xmlns:xlink="http://www.w3.org/1999/xlink" x="0px" y="0px"
	 viewBox="0 0 398.6 304.4" style="enable-background:new 0 0 398.6 304.4;" xml:space="preserve">
<style type="text/css">
	.st0{fill:#FFFFFF;}
</style>
<title>Asset 10</title>
<g>
	<path class="st0" d="M0.1,108.9v77.4c0,0-2.1,16,21.5,16h13.5V95.9h-23C12.1,95.9,0.1,95.6,0.1,108.9z"/>
	<path class="st0" d="M194.3,169.3c-2.2-0.4-4.4-0.5-6.6-0.3c0,0-4.5,0.9-4.5,5.5v41.5c0,0-0.5,6.3,4.5,8.5s7.8,2.2,9.5,1.1
		s2-3.4,2-4.8l0-44.2C199.2,176.5,198.7,169.9,194.3,169.3z"/>
	<path class="st0" d="M366.6,75.3c1.8,2.5,4.1,3.1,6.1,1.7c2-1.4,2.4-4,0.7-6.4c-4.4-6.3-9.3-12.3-14.7-17.8
		c-0.7-0.9-1.8-1.3-2.9-1.3v0c-1.3-0.1-2.5,0.4-3.4,1.4c-1.5,1.7-1.3,4.2,0.4,5.6C357.8,63.7,362.4,69.4,366.6,75.3z"/>
	<path class="st0" d="M87.4,164c-1.8-0.2-3.6-0.2-5.4,0c0,0-5-0.4-5,2.9v26.2c0,0,0.9,3.7,5.8,4.8c4.9,1.1,9.3,1.2,9.3-1.5l-0.1-28
		C91.8,166,89.8,164.2,87.4,164z"/>
	<path class="st0" d="M352.5,101.1c-4.6-8.6-10.3-16.7-17-23.8c-1.6-2-4.1-2.9-6.6-2.5c-2.6,0.4-4.7,2.3-5.3,4.9
		c-0.7,2.5,0.3,4.5,2,6.4c15.8,17.1,24.7,37.2,25.9,60.6c1.5,26.5-8.2,52.5-26.8,71.5c-1.2,1.2-2,2.8-2.2,4.4
		c-0.2,1.9,0.5,3.8,1.9,5.2c2.6,2.5,6.7,2.5,9.2,0c4.8-4.7,9.1-9.9,12.8-15.5c12.3-18.3,18.3-38.6,18.5-62.2
		C364.7,132.9,360.4,116.2,352.5,101.1z"/>
	<path class="st0" d="M298.5,6.6c0-9.5-9-6-9-6S49.2,86.9,45.7,88.4c-3.5,1.5-2.9,6-2.9,6v109.1c0,5.7,4.3,7.4,4.3,7.4
		s230.4,88.5,241.1,92.4s10.4-4.1,10.4-4.1V6.6z M224.9,141.4V57.5c0-5.9,2.4-5.9,2.4-5.9S260.8,40.8,266,39s5.4,1.1,5.4,1.1v8.7
		c0.1,1.9-1.2,3.7-3.1,4.2l-29.2,8.5v28.5c0,0,17.5-3.6,22.4-4.6c4.9-0.9,4.9,2.2,4.9,2.2s-0.1,4.4-0.1,8.1c0.1,2-1.3,3.7-3.3,3.9
		l-23.9,3.6v30c0,0,24.4-2.1,28.7-2.1c4.3,0,4,2.5,4,2.5v8.9c0,3.4-2.8,3.2-2.8,3.2s-36.9,0.9-40.7,0.9S224.9,141.4,224.9,141.4z
		 M69.2,102.2c0,0,6.2-2.1,7.7-2.3c1.5-0.2,1.1,0.8,1.1,0.8L78,141.2c0,0,17-0.6,19.2-0.6s2.1,1,2.1,1v4.2c0,2.2-1.6,1.9-1.6,1.9
		H69.5c-1.2,0-1.1-0.9-1.1-0.9v-42.2c0,0,0-1.1,0-1.6C68.4,102.4,69.2,102.2,69.2,102.2z M102.7,197.4c0,5-0.4,6.3-2.7,8.5
		s-9.8,1.5-9.8,1.5s-9.2-2.4-16.5-5c-7.3-2.6-6.8-8.3-6.8-8.3v-30.3c0-8,10.5-8.2,10.5-8.2c4.9-0.2,9.7,0,14.6,0.6
		c5.1,0.5,9.4,4.2,10.7,9.1V197.4z M117.7,90.5v53.9c0,2.3-1.3,2.5-1.3,2.5s-4.6,0.4-7.1,0.4c-0.1,0-0.3,0-0.4,0
		c-1.1-0.1-2-1.1-1.8-2.3V93.8c0-1.6,0.7-2.1,0.7-2.1s5.1-2,7.8-2.7C118.1,88.3,117.7,90.5,117.7,90.5z M164.1,178.7
		c0,3.3-1.5,2.8-1.5,2.8c-1.9,0.1-3.7,0-5.6-0.3c-1.8-0.1-3.4-1.5-3.6-3.3v-6.7c0-4.5-6-5.5-10.8-5.5c-4.8,0-4.7,5.6-4.7,5.8
		c0,2,0.4,4,1.3,5.9c1.3,2.3,14.7,10.6,18.8,13.7c4,3.1,5.7,10.9,5.7,10.9v12.6c0,9.1-9.2,8.8-12.8,8.4s-13-4.1-17.9-7.3
		c-5-3.2-5.9-9.2-5.9-9.2v-9.8c0-0.3,0-0.5,0.1-0.7c0.3-0.7,1.2-1.1,1.9-0.8c2.1,0.3,4.1,0.7,6.2,1.3c2.7,0.8,2.4,2.7,2.4,2.7v8
		c2.5,4.9,9.1,6.9,12.5,6.9c3.5,0,3.3-4.6,3.3-4.6v-5.4c0-5.7-9.9-11.3-9.9-11.3s-11.7-8.4-14-10.7c-2.3-2.3-2.2-7.4-2.2-14.5
		c0-7.1,7.8-9.5,7.8-9.5s4.5-1.3,15.3-0.5c10.8,0.8,13.5,11.4,13.5,11.4V178.7z M166.3,142.7c0,0-0.1,3.8-2.6,3.8h-4.9
		c-1.2,0.2-2.3-0.6-2.5-1.8c0-0.2,0-0.3,0-0.5v-2.5l-0.6,0.8c-2.2,2.5-5.4,4-8.7,4.1h-6.5c0,0-11.9-1.4-11.9-10.9V96.9
		c0,0,0.1-10.3,11.9-14.6S155,78,158.2,78c3.2,0,8.1,3,8.1,7.6v10.5c0,0,0.6,2-1.8,2.9c-2.3,0.7-4.6,1.2-7,1.5c0,0-1.7,0.6-1.7-1.8
		v-7c-0.2-2.2-2.1-3.8-4.3-3.6c-4,0-11.8,3.3-11.8,7.7v34.8c0,0-0.8,6.9,4.6,6.9c4.1,0,4.6,0,4.5,0.1c0.6-0.1,6.7-1.3,6.7-5.9v-15.3
		c0,0-0.4-1.9,3.7-2.7c4-0.8,7.2-1,7.2,1.3V142.7z M209.4,230c0,5.1-6.2,7.8-10.8,8s-13.8-4-19.2-8s-6.3-12.8-6.3-12.8v-44.5
		c0-9.5,5.8-11.9,5.8-11.9s3.4-3.1,16.7-2c13.3,1.1,13.8,13.9,13.8,13.9V230z M213.6,61.8v68.8c-0.9,16.2-16.4,15.1-16.4,15.1h-8.4
		c-11.2,0-12.4-13.8-12.4-13.8V74.3c0,0-0.1-1.8,0-2.7s4.4-2.8,8-4s3,1.9,3,1.9s-0.2,50.8-0.2,57.7c0,6.9,4.5,7.3,4.5,7.3h5.8
		c4.8,0,5.6-6.5,5.6-6.5V64.7c0-2.5,1.5-3.2,1.5-3.2s4-1.8,6.8-2.8C214.1,57.7,213.6,61.8,213.6,61.8z M272,164.1v96.7
		c0,3.7-2.9,2.5-2.9,2.5s-7.8-2.7-8.9-3.3c-1.2-0.6-1.2-3.2-1.2-3.2v-63.1c0,0-8,25.3-8.7,25.9s-5.1-0.2-7.3-1
		c-1.3-0.5-2.3-1.5-2.8-2.8l-7.7-25.8v59c0,2-2.6,1.3-2.6,1.3s-5.2-1.4-7.6-2.2c-1.4-0.5-2.3-1.8-2.3-3.2v-82.6c0-0.1,0-0.3,0-0.4
		c0.1-1.4,1.2-2.4,2.6-2.4c0,0,6.8-0.1,9.5,0c1.5,0,2.8,1,3,2.5l11.2,39.3c0,0,10.4-35.9,11.2-38.8s3.1-2.3,3.1-2.3s5.1,0.1,8.5,0.2
		C272.5,160.5,272,164.1,272,164.1z"/>
	<path class="st0" d="M397,129c-1.3-8.6-3.5-17-6.4-25.1c-2-5.8-4.4-11.4-7.3-16.8c-1.3-2.4-3.6-3-5.7-1.9c-2.1,1.1-2.7,3.3-1.6,5.7
		c5.1,10.3,9,21.2,11.4,32.4c1.6,7.2,2.6,14.6,3,22c0.7,14.1-1,28.3-4.8,41.9c-2.1,7.6-4.8,15-8.2,22.1c-6.3,13.3-14.8,25.4-25.1,36
		c-0.9,0.8-1.5,1.9-1.7,3.1c-0.1,1.8,0.9,3.5,2.6,4.2c2,1,3.5,0.1,4.8-1.3c2.9-3,5.7-6.1,8.3-9.3c14.3-17.3,24.3-37.7,29.1-59.6
		c2.3-10.1,3.3-20.4,3-30.8C398.7,144.1,398.2,136.5,397,129z"/>
</g>
</svg>
