<svg xmlns="http://www.w3.org/2000/svg" viewBox="0 0 398.56 304.37"><defs><style>.cls-1{fill:#009b37;}.cls-2{fill:#008b3a;}.cls-3{fill:#00973a;}.cls-4{fill:#4dad68;}.cls-5{fill:#009d3a;}.cls-6{fill:#dcede1;}.cls-7{fill:#008637;opacity:0.43;}</style></defs><title>Asset 10</title><g id="Layer_2" data-name="Layer 2"><g id="Camada_1" data-name="Camada 1"><path class="cls-1" d="M42.71,203.47V94.4s-.6-4.5,2.94-6S289.49.64,289.49.64s9-3.51,9,6V299.14s.21,8.08-10.42,4.15S47,210.91,47,210.91,42.71,209.21,42.71,203.47Z"/><path class="cls-2" d="M43.14,95.92h-31s-12-.28-12,13v77.39s-2.13,16,21.54,16H43.14Z"/><path class="cls-3" d="M43.14,150.92v-55h-31s-12-.28-12,13v42Z"/><path class="cls-4" d="M36.83,102.16h-21s-9.63.21-9.63,8.5v8.86s-.22,3.9,4.32,3.9H36.83s2.69-.07,2.69-3.69V104.5S39.88,102.16,36.83,102.16Z"/><path class="cls-4" d="M282.47,17.75s6.27-2.44,6.27,4.15V63.57s1.17,2.87-5,4.36S56.89,120.44,56.89,120.44s-5.81,1.21-5.81-3.19V99s-.5-2,6.09-4S282.47,17.75,282.47,17.75Z"/><path class="cls-5" d="M364.92,149.93c-.19,23.65-6.16,43.91-18.47,62.23a94.59,94.59,0,0,1-12.75,15.48,6.51,6.51,0,0,1-11.11-5.13,7.18,7.18,0,0,1,2.18-4.45,94.32,94.32,0,0,0,26.78-71.46c-1.23-23.37-10.15-43.45-25.93-60.6-1.67-1.82-2.71-3.86-2-6.35a6.29,6.29,0,0,1,5.25-4.91,7,7,0,0,1,6.58,2.55,112.74,112.74,0,0,1,17,23.83A107.65,107.65,0,0,1,364.92,149.93Z"/><path class="cls-5" d="M398.49,151.67a122.71,122.71,0,0,1-3,30.75A140.77,140.77,0,0,1,366.36,242c-2.64,3.2-5.45,6.27-8.32,9.28-1.23,1.3-2.79,2.2-4.75,1.25a4.11,4.11,0,0,1-2.64-4.16,4.84,4.84,0,0,1,1.7-3.07,134.62,134.62,0,0,0,25.09-35.95,136.7,136.7,0,0,0,8.21-22.13,132.83,132.83,0,0,0,4.77-41.91,134.49,134.49,0,0,0-3-22A140.53,140.53,0,0,0,376,90.93c-1.15-2.36-.53-4.51,1.56-5.65s4.41-.54,5.71,1.85a122.83,122.83,0,0,1,7.29,16.77A135.52,135.52,0,0,1,397,129,116.52,116.52,0,0,1,398.49,151.67Z"/><path class="cls-5" d="M355.83,51.46a3.66,3.66,0,0,1,2.92,1.29,136.09,136.09,0,0,1,14.67,17.82c1.71,2.43,1.36,5-.66,6.4s-4.39.85-6.15-1.67a143,143,0,0,0-13.78-16.81,4,4,0,0,1,3-7Z"/><path class="cls-6" d="M68.37,104.6v42.24s-.14.85,1.1.85H97.74s1.56.29,1.56-1.88V141.6s.07-1-2.12-1-19.17.63-19.17.63l.06-40.54s.42-1-1.12-.8-7.73,2.31-7.73,2.31-.86.21-.86.75S68.37,104.6,68.37,104.6Z"/><path class="cls-6" d="M107,93.76V145a2.08,2.08,0,0,0,2.28,2.29c2.5,0,7.13-.43,7.13-.43s1.32-.11,1.32-2.45V90.46s.38-2.12-2.28-1.43-7.76,2.66-7.76,2.66S107,92.17,107,93.76Z"/><path class="cls-6" d="M155.7,142.45a12,12,0,0,1-8.74,4.07h-6.52s-11.9-1.41-11.9-10.91V96.91s.14-10.34,11.9-14.6S155,78,158.16,78s8.08,3,8.08,7.58V96.06s.57,2-1.84,2.91a40,40,0,0,1-7,1.49s-1.7.56-1.7-1.77v-7a4,4,0,0,0-4.32-3.61c-4,0-11.77,3.26-11.77,7.72v34.8s-.78,6.94,4.61,6.94,4.47.07,4.47.07,6.8-1.06,6.8-5.88V116.4s-.36-1.91,3.68-2.69,7.15-1,7.15,1.28V142.7s-.06,3.82-2.61,3.82H158.8a2.17,2.17,0,0,1-2.48-2.34V141.7Z"/><path class="cls-6" d="M176.38,74.31v57.51s1.27,13.82,12.43,13.82h8.4s15.52,1.06,16.37-15.1V61.76s.5-4.11-2.27-3.08-6.8,2.83-6.8,2.83-1.49.75-1.49,3.23V128s-.85,6.52-5.6,6.52h-5.81s-4.46-.43-4.46-7.3.21-57.69.21-57.69.64-3.12-3-1.92-7.93,3.12-8,4S176.38,74.31,176.38,74.31Z"/><path class="cls-6" d="M224.85,57.51v83.91s-.35,5.1,3.47,5.1,40.68-.87,40.68-.87,2.84.16,2.84-3.24v-8.86s.28-2.55-4-2.55-28.7,2.13-28.7,2.13v-30l23.88-3.61a3.66,3.66,0,0,0,3.33-3.9c0-3.69.07-8.08.07-8.08s0-3.12-4.89-2.2S239.1,89.9,239.1,89.9V61.44l29.23-8.5a4,4,0,0,0,3.08-4.15V40.08S271.2,37.21,266,39,227.3,51.66,227.3,51.66,224.85,51.66,224.85,57.51Z"/><path class="cls-6" d="M92.07,156.16a93,93,0,0,0-14.56-.57S67,155.84,67,163.82v30.29s-.53,5.67,6.8,8.26,16.48,5,16.48,5,7.55.75,9.78-1.49,2.66-3.51,2.66-8.5V165.3A12.3,12.3,0,0,0,92.07,156.16Zm0,40.26c0,2.69-4.39,2.55-9.28,1.48s-5.82-4.81-5.82-4.81V166.93c0-3.33,5-2.9,5-2.9a30.57,30.57,0,0,1,5.45,0A4.85,4.85,0,0,1,92,168.42Z"/><path class="cls-6" d="M127.12,196.7v9.85s.92,6,5.88,9.21,14.32,6.88,17.93,7.3,12.76.64,12.76-8.43V202s-1.7-7.73-5.74-10.85-17.51-11.41-18.78-13.68a13.8,13.8,0,0,1-1.28-5.88c0-.21-.14-5.81,4.68-5.81s10.84,1,10.84,5.46v6.66a3.92,3.92,0,0,0,3.62,3.35,32.16,32.16,0,0,0,5.6.25s1.48.51,1.48-2.82V169s-2.69-10.62-13.53-11.4-15.31.5-15.31.5-7.8,2.4-7.8,9.49-.14,12.19,2.2,14.46,14,10.7,14,10.7,9.93,5.6,9.93,11.34v5.39s.14,4.6-3.33,4.6-10.07-2-12.55-6.94v-8s.28-1.91-2.41-2.69a54.26,54.26,0,0,0-6.16-1.28A1.47,1.47,0,0,0,127.12,196.7Z"/><path class="cls-6" d="M195.51,158.71c-13.29-1.06-16.69,2-16.69,2S173,163.18,173,172.64v44.54s.85,8.81,6.28,12.8,14.56,8.25,19.24,8,10.84-2.89,10.84-8V172.64S208.8,159.78,195.51,158.71Zm3.62,62c0,1.38-.32,3.61-2,4.78s-4.47,1.17-9.47-1.06-4.46-8.5-4.46-8.5V174.45c0-4.57,4.46-5.47,4.46-5.47a29.18,29.18,0,0,1,6.64.33c4.37.6,4.85,7.16,4.85,7.16Z"/><path class="cls-6" d="M220,162.26v82.63a3.44,3.44,0,0,0,2.32,3.23c2.39.85,7.6,2.23,7.6,2.23s2.61.69,2.61-1.33V190l7.74,25.79a4.72,4.72,0,0,0,2.76,2.84c2.2.85,6.6,1.56,7.3,1s8.72-25.9,8.72-25.9v63.14s0,2.55,1.17,3.19,8.93,3.3,8.93,3.3,2.87,1.17,2.87-2.55V164.13s.43-3.61-3-3.72-8.54-.21-8.54-.21-2.37-.6-3.11,2.3-11.15,38.79-11.15,38.79L235.06,162a3,3,0,0,0-3-2.51c-2.66-.11-9.46,0-9.46,0A2.5,2.5,0,0,0,220,162.26Z"/><path class="cls-7" d="M298.52,190.46V299.14s.21,8.08-10.42,4.15S47,210.91,47,210.91s-4.29-1.7-4.29-7.44V155.59Z"/></g></g></svg>