<svg xmlns="http://www.w3.org/2000/svg" viewBox="0 0 421.24 206.28"><defs><style>.cls-1{fill:#fae000;}.cls-2{fill:#e45e80;}.cls-3{fill:#e02546;}.cls-4{fill:#e02847;}.cls-5{fill:#e2455d;}.cls-6{fill:#cb1335;}.cls-7{fill:#e02544;}.cls-8{fill:#cd1334;}.cls-9{fill:#f7be59;}.cls-10{fill:#ee8b20;}.cls-11{fill:#e3651c;}.cls-12{fill:#f5ad23;}.cls-13{fill:#ee8b22;}.cls-14{fill:#e1641a;}.cls-15{fill:#ee8a23;}.cls-16{fill:#e35578;}.cls-17{fill:#e02545;}.cls-18{fill:#cd1333;}.cls-19{fill:#e2455c;}.cls-20{fill:#f7bd5b;}.cls-21{fill:#f8bf5a;}.cls-22{fill:#e1641b;}.cls-23{fill:#e45f81;}.cls-24{fill:#cd1335;}.cls-25{fill:#e02547;}</style></defs><title>Asset 14</title><g id="Layer_2" data-name="Layer 2"><g id="Camada_1" data-name="Camada 1"><path class="cls-1" d="M223.61,46.76c-2.66,0-3.21,1.56-5.38.89s-1-3.22.45-4.77,4.38-6.49,4.38-10.48-3.27-6.21-6.55-6.21c0,0-2.66-3.38-8.92-3.38s-13,4.16-15.47,8.65-8.38,16.41-14.2,20.68c0,0,.17-8.65,2.33-13.08s3.6-7.1,3.6-9.43-1.11-4.71-5.71-4.71c0,0,1-6.1-7.1-6.1s-12.71,4.88-15.82,10.86-12.34,30.76-18.63,30S132.08,36.93,133,34.12s2.74-10.42-3-10.42-6.28,4.88-6.88,7.46-8.53,30-15,30-7.43-23.29-7.65-28.83S101.18,9.5,88.39,9.5C77.81,9.5,77.81,21,77.81,21S75.59,1,64.36,1,50.09,11.42,50.09,15.12c0,0-2.31-8.56-11.13-8.56s-16,8.15-16,13.59S25,26,26.54,26c0,0,3.16-.34,3.38-2s.33-5.15,3.44-7.26,4.55-1.72,5.21-1.5S41.45,17.6,43,27.08,46.5,52,47.17,63.73s1.88,29.22,5,32.77,5.1,2.55,6.32,1.83,1.11-4.16.5-8.09-3-25.68-3-30.83-1.55-45.47,6.43-49c0,0,.63-.11,1,1.48s1.63,8.43,2.81,19,5.25,35,5.47,36.3.67,14.42,7.17,14.42S82.47,73.6,82,71s-1-20.7.37-33.19,4.73-19.67,6.06-19.52,2,2.59,2.22,12.12-1.15,40.86,16,40.82c14.42,0,18.48-17.08,18.48-17.08s-3.84,15.41,10.5,15.75c12.72.29,18.64-15.83,18.64-15.83s5.95,6.92,13.93,1.52c0,0,1.33,3.25-.74,4.84s-16.6,12.5-18.89,14.27-11.9,8.8-7.76,20.26,8.35,18.85,16.93,18.63,17.34-8.17,18.34-13.82a84.73,84.73,0,0,0,1.44-12.87c0-2.55-.28-21.68-.28-21.68s11-8.76,12.92-11.92a13.81,13.81,0,0,0,10.65,4.77c7,0,8.81-3.72,8.81-3.72a10.89,10.89,0,0,0,8.49,3.83c5.65,0,10.31-2.89,10.31-6A5.05,5.05,0,0,0,223.61,46.76ZM170.23,83.58c0,1.78-1.11,12-7.5,12s-7.51-7-7.51-8.21A19.44,19.44,0,0,1,157.51,79c1.85-3.25,12.72-11.24,12.72-11.24C170.67,74.19,170.23,81.81,170.23,83.58Zm2-45.41c-.94,3.94-5.1,10-8.37,10s-2.61-6.88-.78-13.14,7-8.43,7.82-8.43a5.36,5.36,0,0,1,1.83.5C173.71,28.91,173.21,34.23,172.26,38.17Zm36.38-6c-2.44,3.38-2.88,10-2.88,11.48s-2,5.16-4.61,5.16-3.6-3.94-3.6-5.49.89-5.38,4.77-9.32S209,30.74,209,30.74C209.42,32,208.64,32.18,208.64,32.18Z"/><path class="cls-1" d="M133.6,0s-8.54.22-8.54,9.5,8.31,9,9.05,9,7.73-1.26,7.73-8.8S136.37,0,133.6,0Z"/><path class="cls-1" d="M261.5,66.5s-5.65-3.25-8.2-3-2.55.93-2.48,1.78,7,7.58,18.15,10.63,19.52,4,24.73-1.22.11-9.87-1.83-11.43S281.06,57,267.16,51.5s-38.11-15.16-38.11-29.91S241.8,2.4,259.54,2.4,295,6.06,295,15.82s-11.31,9.8-14.34,9.8-9.83.74-9.83-4.44,6.35-4.29,6.35-4.29,5,1.21,5-.46-3.11-5.08-21.66-5.08-21.45,6.58-21.45,7.54-.07,5.77,17.82,14.2S305.13,54,305.13,70.16,287.6,87.58,282.61,87.58s-22.73-2.11-35.82-13.09c0,0-5-2.83-5-10.15S247.73,55,253.56,55s12.92,3.43,12.92,7.76S263.13,66.5,261.5,66.5Z"/><path class="cls-1" d="M394.14,63.25c-1.88,0-5.65,2.81-9.16,2.81s-6.6-6.1-6.6-8.93c0,0-.09-.75.19-.75s.17.78.44.78,4.23-5.07,4.23-11.21-2.44-8.13-5.84-8.13a8.6,8.6,0,0,0-5.4,1.77,7.82,7.82,0,0,0,1.18-3.4c0-1.55.08-4.51-7-4.51s-16.86,4.88-19,13.46-.45,9.39-2.15,11-3.47,3.55-6.72,3.55-4.22-5.84-4.22-8.2,1.11-9.17,1.11-11.91,1.55-11.53-5.91-11.53-6.88,8.8-6.88,8.8.37,12.71.44,13.67a25.25,25.25,0,0,1-.07,2.89S320.61,57,318,57s-7.76-5.18-7.76-13.46,2.51-18.41-4.14-18.63c0,0-3.77-.52-5,5.69a67.55,67.55,0,0,0-1.4,13.24c0,2.29,1.4,23.88,18,23.88,0,0,5.7.29,9.61-3a14.25,14.25,0,0,0,11.17,5.32,13.26,13.26,0,0,0,10.87-5.47s3.69,8.28,12.79,8.28c7.71,0,9.54-3.62,9.54-3.62a15.8,15.8,0,0,0,11.75,5.3c7.54,0,14.75-4.19,14.75-7.22A3.7,3.7,0,0,0,394.14,63.25Zm-26.87-12c-.08,3.47,0,6.51-.82,7.91s-1.62,3.77-4.43,3.77-6.36-3.47-6.36-9.31,5.69-13.24,9.24-13.24,2.59,1.48,5.33,1.48C370.23,41.81,367.34,47.72,367.27,51.2Z"/><path class="cls-2" d="M374.29,186.13s-8,9.61-10.2,10.28-20.48,1.7-23.88,2.14-9.54.45-9.54.45l-.59-.74.77-11.28,3.44-37.74,2.37-13.68L340,101l.88-5.4,17.38-19.51,33.42.51,29.57,100.48v.78l-20.7,14.16-2.89,1.1s-10.57-.07-13.38.45-6.5,1.11-6.5,1.11h-1.19Z"/><polygon class="cls-3" points="336.14 195.82 363.64 193.54 374.66 181.84 347.97 184.21 336.14 195.82"/><polygon class="cls-4" points="356.75 79.37 342.67 95.56 354.75 95.06 355.31 94.45 356.75 79.37"/><path class="cls-5" d="M345.27,181.84,333.81,194s-.11-10.72,3.51-48,7.26-50.56,7.26-50.56l10.17-.42s-3.9,31.9-5,46.25S345.27,181.84,345.27,181.84Z"/><polygon class="cls-3" points="358.25 78.19 357.03 94.34 369 93.6 388.86 79.37 358.25 78.19"/><polygon class="cls-6" points="348.12 182.29 360.32 180.96 363.2 155.3 376.07 151.9 377.55 150.72 383.61 150.2 380.5 138.89 377.55 142.73 361.13 144.55 360.54 122.69 372.94 109.9 369 93.6 357.03 94.34 348.12 182.29"/><path class="cls-5" d="M390.26,79.37h-1.4L369,93.6l3.93,16.3-12.4,12.79.81,20.95L373.66,135l.78-28.34h8.06a90,90,0,0,0,1.85,11.26c.88,3.41,1.7,14.69,1.7,14.69l-1.07.81-4.48,5.48,3.11,11.31,3.8-.44,5.66,28.87,24.29-3.55Z"/><polygon class="cls-7" points="377.55 142.73 361.13 144.55 361.35 143.64 373.66 134.99 384.98 133.41 377.55 142.73"/><polygon class="cls-7" points="376.21 108.48 380.32 108.48 376.21 114.03 376.21 108.48"/><polygon class="cls-5" points="380.32 112.34 376.21 118.48 376.21 124.99 379.47 132.23 383.61 131.27 380.32 112.34"/><polygon class="cls-3" points="376.21 133.41 379.47 132.23 376.21 124.99 376.21 133.41"/><polygon class="cls-5" points="363.2 155.3 376.07 151.9 375.66 179.33 360.32 180.96 363.2 155.3"/><path class="cls-3" d="M381.54,191.31,393.07,181l21.52-1.56s-13.09,9.91-17.75,11Z"/><path class="cls-8" d="M379.32,152.93l6.28-.44,1,1.26,5,26-13.16,10.8h-1v-7.69l1.55-2.29S379.69,163.14,379.32,152.93Z"/><path class="cls-9" d="M327.71,140.44l18.93-6.36s8.13-46.73-36.38-50.42c0,0-18.63-1.19-31.2,12.86L256,113.61l-7.55,19.88V171.2s2.07,25.28,29.43,27.8l37.86-3s31.1-5.42,31.48-47.4c0,0-14.15-.07-25.63-1.23l-17.74,12.42s-12.22-2.24-11.63-21.9c0,0-.29-12.72,10.65-17.6,0,0,4.88,7.39,4,14.79C306.86,135.12,321.65,137.78,327.71,140.44Z"/><path class="cls-10" d="M323.76,149.76l19.07,2s-.33,33.73-26.73,40.93c0,0,16-10.32,12.65-35.05l-7.54-.78A11.41,11.41,0,0,0,323.76,149.76Z"/><path class="cls-11" d="M319.76,151.18l-13.19,9.54s4.6,1.88,9.26-2.61S319.76,151.18,319.76,151.18Z"/><path class="cls-12" d="M327.49,137.56c-1.11-.67-14.93-4.15-14.93-4.15l8.57-4.13a21,21,0,0,1,6.29,1.1l.44,7.18Z"/><path class="cls-12" d="M322,126.39h4S319.43,91.05,279.8,100a51.72,51.72,0,0,0-13.9,40.44c2.37,25.14,10.35,44.51,38.3,52.94,0,0,8,.66,11.9-.66s16.31-15.87,12.65-35.05l-7.54-.78a19,19,0,0,1-9.84,7.5l-19.81,12.13s-16.05.59-19.74-17.38,7.54-24.62,7.54-24.62l15.53-11.38s7.46-7.62,16.11-7.62S321.94,123.5,322,126.39Z"/><path class="cls-13" d="M343.76,130.53,326,126.39S319.14,91.46,279.8,100c0,0,11.68-13.64,31.2-13s26.56,14.42,29.95,21.74C343.42,114.12,344.13,126.91,343.76,130.53Z"/><path class="cls-13" d="M311.37,164.39s-20.77,3.26-22-23.8A25.84,25.84,0,0,1,296,122.14L277.53,136s-10.09,7.07-5.24,25.14c0,0,4.26,15.56,19.27,15.41Z"/><path class="cls-14" d="M305.18,119.29s4.55,6.66,4.55,12.37L320.21,127S318.12,113.66,305.18,119.29Z"/><polygon class="cls-13" points="340.2 133.99 327.86 137.56 327.42 130.38 339.84 133.13 340.2 133.99"/><path class="cls-15" d="M271.82,105,256.51,116.8l-1.85,19.52-3.84,37.24s8.13,20.85,24.69,22.92l25.29-.74s-31.35-8.25-36.67-46.76C260,119,271.82,105,271.82,105Z"/><path class="cls-16" d="M177.59,91.24l-21.18,12v33.38L154.63,167s-2.29,39.26,42.81,39.26c0,0,23.81,1.18,36.67-9.31s20.55-24.7,20.55-34,2.67-63,2.67-63,.66-1.53-2.78-2.42S236.92,95.34,230,96.3l-16.63,10.2a3.65,3.65,0,0,0-1.18,2.89c0,2-1.15,16.23-1.26,25.1s-1.22,18.63-3.33,19.07-3.32-13.31-2.77-21.29,2.55-41,2.55-41S190.9,90.68,177.59,91.24Z"/><path class="cls-17" d="M178.2,93.29h26.45a4.32,4.32,0,0,1,.28,1.11c0,.38-.34,2.82-.34,2.82l-18,12-8.93-1.17Z"/><path class="cls-8" d="M231.32,114.08l6.27.83s8.87,67.15-13.65,77.14c0,0-37.15,7.09-44.47-24.85,0,0-2.88-10-2.88-30.88,0,0,.11-21.57,1.11-28.23l8.93,1.17s.27,23.36.27,25.4.11,27.89.11,27.89l8.77,7.65,21.92-9.43S228.09,156.19,231.32,114.08Z"/><path class="cls-5" d="M217.7,160.77s-4.18,2.66-7.95.67-7.87-6-7.87-21.52,2.71-42.7,2.71-42.7l-18,12s-.95,31.77-.95,40.42-1.44,27.39,11.87,25.62Z"/><path class="cls-18" d="M214.52,111.24l13.16,2.37s.37-12.36.29-13.61l-13.45,9.26Z"/><path class="cls-17" d="M209.05,156.56a8.17,8.17,0,0,0,5.47,2.58c3.18,0,7.17-6.5,10.13-19.44a137.62,137.62,0,0,0,3-26.09l-13.16-2.37s-.15,28.76-1,33.86S211.9,154.49,209.05,156.56Z"/><path class="cls-17" d="M231.32,98.33s10.92.17,18,.72c0,0,4.55.23,4.6.5s.06,2.83-.27,3.11-16.08,12.25-16.08,12.25l-6.27-.83Z"/><path class="cls-19" d="M223.94,192.05s11.58-3.07,13.76-28.28a318,318,0,0,0-.11-48.86l16.08-12.25-1.33,42.14S255.88,189.72,223.94,192.05Z"/><path class="cls-17" d="M159.07,104.58l16.78-9.91s-1.92,27.88-1.92,39.48-6.36,60.85,40.59,61.67c0,0,14.71-1.09,20.48-3.1,0,0-7.25,10.56-35.34,10.56s-43.56-15.67-43.56-37.85S159.07,104.58,159.07,104.58Z"/><path class="cls-20" d="M156.52,112.64C149.42,97.78,139.66,87,122.58,87c0,0-19.85,1.33-30,13.09s-15.42,18.41-15.42,18.41-6.88,7.76-6.88,25,9,39.37,11.09,42.59,6.55,9.76,29.39,9.76S146.2,184.39,154.85,168,163.61,127.5,156.52,112.64ZM119,144s-5.47-2.09-5-9.89c0,0,4.6.85,5.43,5.38C119.42,139.53,119.9,142.62,119,144Z"/><path class="cls-13" d="M91.31,107.41S97,99,106.13,95s14.93-3.62,20.55-3.62,27.4,6.87,31.39,36.93S147.61,177.15,137,181.79s-26.38-8.08-26.38-8.08l27-14.05,5.62-22.59-7.69-15.49-8.72-6.13-20.85-8.13Z"/><path class="cls-12" d="M109.16,100.66c-12.42,2.07-17.6,6.36-17.6,6.36S80.18,123.14,87,151.23s26.17,34,38,33.72,15.09-7.25,15.09-7.25,6.65-5.32,6.65-34.75S121.58,98.59,109.16,100.66ZM119.09,144a5.35,5.35,0,0,1-.68-.31h0c-2.37-1.41-4.4-4.25-4.4-9.56C121.86,136.43,119.09,144,119.09,144Z"/><path class="cls-21" d="M119.56,121.59a9.46,9.46,0,0,0-6.33,3.32C110.79,128,108.2,137,110,141s11,7.91,15.38,6.5,6.8-6.13,6.8-12.53S126.34,121.29,119.56,121.59ZM122.91,145h-.4l-.26,0-.2,0-.19,0-.56-.08-.29-.06-.28-.06-.27-.08-.38-.11-.37-.14-.32-.13a5.94,5.94,0,0,1-.72-.35l-.21-.11s0,0,0,0h0a8.25,8.25,0,0,1-3.32-3.79c0-.12-.11-.24-.16-.37a13.37,13.37,0,0,1-.85-3.76,1.49,1.49,0,0,1,0-.21c0-.23,0-.46,0-.7s0-.48,0-.73c0-8.72,5.16-9.24,6.63-9.24,5.1,0,8.06,7,8.06,11.39S126.71,145,122.91,145Z"/><path class="cls-22" d="M128.68,136.3c0,4.36-2,8.65-5.77,8.65h-.4l-.26,0-.2,0-.19,0-.56-.08-.29-.06-.28-.06-.27-.08-.38-.11-.37-.14-.32-.13a5.94,5.94,0,0,1-.72-.35l-.21-.11s0,0,0,0a5.35,5.35,0,0,0,.68.31s2.77-7.6-5.1-9.88c0-8.72,5.16-9.24,6.63-9.24C125.72,124.91,128.68,131.94,128.68,136.3Z"/><path class="cls-13" d="M113.23,124.91l-12.94,10.43s-2.37,3.84-1.7,10.87a10.79,10.79,0,0,0,10.35,9.9l2-.37,11.75-8s-10.4-.54-11.59-11.33C110.23,128.5,113.23,124.91,113.23,124.91Z"/><path class="cls-13" d="M86.31,112S80,119.4,77.74,122.84s-5.84,10.87-5,27.4,5.66,23.29,5.66,23.29a25.24,25.24,0,0,0,15,17.19c12.55,5,30.9,3.81,44.47-6.55,0,0-26.44,14.52-45.8-14S86.31,112,86.31,112Z"/><path class="cls-23" d="M11.71,92.83S.92,107.39,0,109.31c0,0-.29,6,.89,20.78S6.8,200.92,6.8,200.92A6.07,6.07,0,0,0,11.71,202c3.29-.45,55.09-6.21,55.09-6.21s11-5.1,14.52-14.75,3.11-21.52-1.55-28.06c0,0-28.39,3.55-29.94,3.55L45.28,88.24s-.15-1.48-3-1.18S17.48,90.46,11.71,92.83Z"/><path class="cls-17" d="M21,188.83l56-5.21v.55s-7,7.77-10.43,9.21l-54.78,6.21Z"/><polygon class="cls-17" points="30.2 171.34 58.52 174.75 77.74 156.11 46.61 158.41 30.2 171.34"/><path class="cls-5" d="M62,181.79l-3.51-7,19.22-18.64s2.86,1.11,2.86,10-2.27,14.25-2.27,14.25Z"/><path class="cls-24" d="M21.84,186.87,62,181.79l-3.51-7L30.2,171.34l-3.85-67.13L15.56,107S16.74,143.69,21.84,186.87Z"/><polygon class="cls-5" points="42.84 90.9 26.35 104.21 30.2 171.34 46.61 158.41 42.84 90.9"/><path class="cls-3" d="M14.75,94.16,15.56,107l10.79-2.81L42.84,90.9s-.22-.66-1.4-.66S14.75,94.16,14.75,94.16Z"/><path class="cls-19" d="M9.07,197.81,18.33,188s-4.86-56.88-4.63-80.09l-11,1.62-.51,2Z"/><path class="cls-25" d="M13.06,96.67l.64,11.24-11,1.62S12,97,12.09,96.89A4.27,4.27,0,0,1,13.06,96.67Z"/></g></g></svg>