<svg xmlns="http://www.w3.org/2000/svg" viewBox="0 0 441.19 244.28"><defs><style>.cls-1{fill:#e8684f;}.cls-2{fill:#e5543b;}.cls-3{fill:#e9714a;}.cls-4{fill:#36afa1;}.cls-5{fill:#5ab8b4;}</style></defs><title>Asset 18</title><g id="Layer_2" data-name="Layer 2"><g id="Camada_1" data-name="Camada 1"><path class="cls-1" d="M.29,233.84s-2.52,10,7.32,10.42,19.25-8.74,22.68-12.78c0,0,11.29,4.15,19.81,1.31l25.64-24.36s1.62-1.91,1.62-5.84-4.32-6.45-7.54-8.09a14,14,0,0,1-4.75-3.77s5.9.5,9.72-2.62a24.83,24.83,0,0,0,12.34,3.66c6.83,0,7.54-1.85,7.54-1.85l15.18-15.13v34.3s-7,6.66-9.72,8.57A9.81,9.81,0,0,0,96,225.91c.27,2.84,3.22,7.93,12.72,7.93h11.42s6,9,19.31,9c0,0,7.43.29,11.44-5.1,0,0,7.27-.13,10.92-3.94a27.52,27.52,0,0,0,17.26,6,9.23,9.23,0,0,0,7.49-2.51c3.22-3.23,11.52-11.69,11.52-11.69s11.25,16.76,40.53,16.76,42-18.46,42-18.46l19.67-20.1s11.5,39.84,53.74,39.84c0,0,23.89.44,39.33-16.31l23-22.42s14.9-13.78,17.19-38.41a10.22,10.22,0,0,0,3.34-7.41c0-4.66-2.32-6.52-3.34-7.34,0,0-.73-19.53-19.95-36.58l26.36-26.57s2.87-5.84-.51-9.39-4.81-9.55-5-12.07,0-63.68-56.37-63.68c0,0-20.67-2-40.59,19L314.86,45.66s-.87.59-1.09-.07S305,0,261.52,0c0,0-21-.58-37.18,15.3s-22.87,23.15-22.87,23.15-.51-10.26,2.4-13.9,7.58-4.74,7.58-10.2S208.9,5.46,200.6,5.46s-15,5.47-15,5.47S178.46,5.46,167,6c0,0-12.09-3.27-22.21,5.39a14.89,14.89,0,0,0-7.14-1.89,11.85,11.85,0,0,0-7.21,2.91l-22,21.71a8.32,8.32,0,0,0-1.85,5.13c0,3.06,2.73,5.35,2.29,7.21S91.23,92.26,91.23,92.26l-24.09-62s-1-3.89.69-6.08,2.92-3.79,2.92-7.72S66.89,9,62.3,9s-12,4.66-12,4.66S44.89,8.67,34.19,8.67c0,0-6.63-.36-10.12,3.21S2.8,33.43,2.8,33.43a10.15,10.15,0,0,0-2,6.34,7.63,7.63,0,0,0,4.72,7.42C7.9,48.14,9.9,52.33,9.9,61v62.15S6,125.34,6,131.09,9.68,138,9.68,138v65.19S7.61,223.51,2.91,229C2.91,229,.54,232,.29,233.84Z"/><path class="cls-2" d="M413.69,107,436.7,84s1.09-1.58-1-4.64-4.64-9.72-5.41-22.39S427,21.41,396.72,10.82,345,19.37,337.55,28.11,320.9,44.86,319.89,46s-6.12,8.88-6.12,8.88-3.57-10.23-5-15.69S295.65,5.46,261.52,5.46s-49.65,31.68-56.74,35.4c0,0-6.66,9.28-7.21,10.59V32.77s.43-10.48,7.21-15.62a4.13,4.13,0,0,0,2.93-4.09c0-3.33-4.35-3.55-7.41-3s-11,3.61-14,7.32c0,0-8.11-8.38-19.52-6.3,0,0-4.17-5-14.56.81,0,0-5,3.23-6.23,5.71,0,0-2.84-4.15-6.66-3.82s-5.68,2-7.87,4.26-17.8,17.69-17.8,17.69-2.62,2.08-1.53,3.94,3.17,4.48,2.18,7-22.39,58.16-22.39,58.16L62.66,29.72a10.06,10.06,0,0,1,1-8c2.4-3.82,2.84-6,1.31-7.75s-5.36-.55-7,.1a29.45,29.45,0,0,0-7.32,5.14S42.89,9.62,28.8,13.06l-22,23S5.2,39.22,8.15,40.86s7.1,5.24,7.1,14.53v69.05s-3.42,3.66-3.42,5.05,3.42,4.19,3.42,4.19v71.15s-2,20.35-7.43,26.1-.07,7.72,2,7.58,9.53-.8,20.5-13.55A28.15,28.15,0,0,0,42,227.66c6.48,0,7.06-.15,9.1-2.26s21.53-21.19,21.53-21.19,2.29-3.64-1.57-5.39-10.49-4.23-10.49-13.26c0,0,10.74,1.19,15.19-4.11,0,0,6.2,4.7,11.5,4.86s6.77-2.4,7.48-3.39,19.94-20.37,19.94-20.37v47l-11.58,11.72S100,225,103.74,227s15.45,2.35,18.9.38c0,0,5.73,9.73,16.38,9.73,0,0,6.12.22,9.56-4.1,0,0,8.14.05,14.15-5.46,0,0,9.17,10.17,20.86,6.29l16.71-16.56s12.09,18.39,38.17,18.39,38.6-16.53,38.6-16.53,23.08-20.1,27.67-30.59c0,0,3.35,41.73,41.36,47.85s58.12-26.74,60.67-29.25,20.1-15.69,23.59-45.44c0,0,2.7-2,2.7-4.4s-2.48-3.79-3.79-4.37c0,0,1.31-27.38-35.83-48.21l3.08-3.21S403.93,109.63,413.69,107ZM60.62,177.57V163s3,1.82,3,7.29S60.62,177.57,60.62,177.57Zm54-19.1a10.4,10.4,0,0,1-4.44-8c0-4.3,4.44-11.35,4.44-11.35Zm117.61-83a114.91,114.91,0,0,1,4.52-31.9s4-1.38,12.52,4.08c12.46,8,17.05,27.46,17.05,34.37s-5.78,12.52-5.78,12.52-9.08-2.17-11.41-4.58-4.08-1.3-4.08-1.3L232.2,102ZM266,195.83s-19.38,4.78-28.61-10.56-7.26-38.61-7.26-38.61l10.23-4.46h29.13S269.79,185.86,266,195.83ZM304.74,88.64c1.31,1.17.76,6.84.76,6.84H272.73c4.11-1,9.07-6.84,9.07-6.84,1.24.52,6.33,2,10.41,1.08s14.13-12,14.13-12A33.77,33.77,0,0,0,302,84C300.52,87,303.43,87.47,304.74,88.64ZM339,140c-6.63-7.06-17.7-5.46-17.7-5.46l-6.41,7.5V118.13c7.43,11,25.49,20.32,25.49,20.32Zm43.22,55.21c-31.21,5.09-31.46-33.47-31.46-33.47a24.6,24.6,0,0,0,2.62,0c1.31-.07,11-10.75,11-10.75,21.52,11.44,19.45,25.28,19.45,25.28s-2.52-.2-2.48,3.21c0,4.37,3.06,3.78,3.2,4.51S382.19,195.18,382.19,195.18ZM371.74,93.66c-18.06-8.09-20.76-22.36-21-23.89a3.4,3.4,0,0,1,1.39-3.42,4.26,4.26,0,0,0,2-3.35c.21-1.82-2.33-3.57-2.92-5.25s1.46-6.48,1.46-6.48,8.45-1.89,18.86,2.92c12.37,5.7,13.69,25.63,13.69,25.63Z"/><path class="cls-3" d="M36.67,108.61l-22,21.75L35.73,107.7a.66.66,0,0,1,.93,0,.65.65,0,0,1,0,.92Z"/><path class="cls-3" d="M40,124.89,23,141.46,39,124a.66.66,0,0,1,.93,0,.67.67,0,0,1,0,.93Z"/><path class="cls-3" d="M40,141.92,23,158.49,39,141a.65.65,0,0,1,1,.88Z"/><path class="cls-3" d="M40,159,23,175.52,39,158a.65.65,0,0,1,1,.88Z"/><path class="cls-3" d="M40,176,23,192.55l16-17.49a.66.66,0,0,1,1,.89Z"/><path class="cls-3" d="M40,193,23,209.57l16-17.48a.66.66,0,0,1,.93,0,.67.67,0,0,1,0,.93Z"/><path class="cls-3" d="M30.76,214.26l-21,20.68,20-21.6a.65.65,0,0,1,1,.89Z"/><path class="cls-3" d="M69.57,203.69l-21,20.68,20-21.59a.64.64,0,0,1,.92,0,.65.65,0,0,1,0,.93Z"/><path class="cls-3" d="M112.49,162l-21,20.68,20-21.59a.66.66,0,0,1,.93,0,.65.65,0,0,1,0,.92Z"/><path class="cls-3" d="M96.71,156.89l-21,20.68,20-21.59a.65.65,0,0,1,1,.89Z"/><path class="cls-3" d="M83.33,160.48l-21,20.68,20-21.59a.64.64,0,0,1,.92,0,.65.65,0,0,1,0,.93Z"/><path class="cls-3" d="M88.94,140.85,68,161.53l20-21.6a.66.66,0,0,1,1,.9Z"/><path class="cls-3" d="M84.05,123.57l-21,20.68,20-21.59a.65.65,0,1,1,1,.89Z"/><path class="cls-3" d="M143.11,106.11l-21,20.68,20-21.6a.66.66,0,0,1,.93,0,.65.65,0,0,1,0,.92Z"/><path class="cls-3" d="M143.11,122.84l-21,20.68,20-21.59a.65.65,0,0,1,.93,0,.66.66,0,0,1,0,.93Z"/><path class="cls-3" d="M143.11,139.57l-21,20.68,20-21.59a.65.65,0,1,1,1,.89Z"/><path class="cls-3" d="M143.11,156.3l-21,20.68,20-21.59a.66.66,0,0,1,.93,0,.65.65,0,0,1,0,.92Z"/><path class="cls-3" d="M143.11,173l-21,20.68,20-21.6a.66.66,0,0,1,1,.9Z"/><path class="cls-3" d="M126.94,202.59l-21,20.68,20-21.6a.66.66,0,1,1,1,.9Z"/><path class="cls-3" d="M165.4,213.16l-21,20.68,20-21.6a.66.66,0,0,1,.93,0,.65.65,0,0,1,0,.92Z"/><path class="cls-3" d="M180.31,171.05l-21,20.68,20-21.6a.66.66,0,0,1,1,.9Z"/><path class="cls-3" d="M180.31,154.68l-21,20.68,20-21.59a.66.66,0,0,1,.93,0,.65.65,0,0,1,0,.92Z"/><path class="cls-3" d="M179.88,137.45l-21,20.68,20-21.59a.65.65,0,0,1,.92,0,.66.66,0,0,1,0,.93Z"/><path class="cls-3" d="M179,121.52,158,142.2l20-21.59a.66.66,0,0,1,.93,0,.65.65,0,0,1,0,.92Z"/><path class="cls-3" d="M215.26,116.67l-21,20.68,20-21.59a.65.65,0,0,1,1,.89Z"/><path class="cls-3" d="M215.26,134.14l-21,20.68,20-21.6a.65.65,0,0,1,.92,0,.66.66,0,0,1,0,.93Z"/><path class="cls-3" d="M215.26,151.6l-21,20.68,20-21.59a.65.65,0,0,1,.92,0,.66.66,0,0,1,0,.93Z"/><path class="cls-3" d="M215.26,169.06l-21,20.68,20-21.59a.65.65,0,0,1,1,.89Z"/><path class="cls-3" d="M224.32,184.27l-21,20.68,20-21.59a.65.65,0,0,1,.92,0,.66.66,0,0,1,0,.93Z"/><path class="cls-3" d="M236.1,197l-21,20.68,20-21.59a.65.65,0,0,1,1,.89Z"/><path class="cls-3" d="M256.59,204.3l-21,20.68,20-21.59a.65.65,0,0,1,.93,0,.66.66,0,0,1,0,.93Z"/><path class="cls-3" d="M279.46,204.3l-21,20.68,20-21.59a.64.64,0,0,1,.92,0,.66.66,0,0,1,0,.93Z"/><path class="cls-3" d="M293.92,171.05l-21,20.68,20-21.6a.66.66,0,1,1,1,.9Z"/><path class="cls-3" d="M296.56,150.14l-21,20.68,20-21.59a.65.65,0,1,1,1,.89Z"/><path class="cls-3" d="M298,130.28l-21,20.68,20-21.59a.65.65,0,1,1,1,.89Z"/><path class="cls-3" d="M297.59,113.45l-21,20.68,20-21.59a.66.66,0,0,1,.93,0,.65.65,0,0,1,0,.93Z"/><path class="cls-3" d="M332.28,58.57l-21,20.68,20-21.59a.65.65,0,0,1,1,.89Z"/><path class="cls-3" d="M287.78,70.87l-21,20.68,20-21.6a.66.66,0,0,1,.93,0,.65.65,0,0,1,0,.92Z"/><path class="cls-3" d="M332.28,73.84l-21,20.68,20-21.59a.65.65,0,0,1,.92,0,.66.66,0,0,1,0,.93Z"/><path class="cls-3" d="M338,89.1l-21,20.68,20-21.6a.66.66,0,1,1,1,.9Z"/><path class="cls-3" d="M352.77,106.11l-21,20.68,20-21.6a.66.66,0,0,1,.93,0,.65.65,0,0,1,0,.92Z"/><path class="cls-3" d="M332.28,145.86l-21,20.68,20-21.6a.65.65,0,0,1,1,.89Z"/><path class="cls-3" d="M333.08,162.17l-21,20.68,20-21.59a.65.65,0,1,1,1,.89Z"/><path class="cls-3" d="M336.87,177.56l-21,20.68,20-21.59a.65.65,0,0,1,.92,0,.66.66,0,0,1,0,.93Z"/><path class="cls-3" d="M345,188.13l-21,20.68,20-21.59a.65.65,0,0,1,.93,0,.66.66,0,0,1,0,.93Z"/><path class="cls-3" d="M358.52,200.17l-21,20.68,20-21.59a.66.66,0,1,1,1,.89Z"/><path class="cls-3" d="M379.69,207.61l-21,20.68,20-21.59a.65.65,0,0,1,.92,0,.66.66,0,0,1,0,.93Z"/><path class="cls-3" d="M403.15,202.59l-21,20.68,20-21.6a.66.66,0,1,1,1,.9Z"/><path class="cls-3" d="M367.79,114.56l-21,20.68,20-21.6a.65.65,0,0,1,.92,0,.64.64,0,0,1,0,.92Z"/><path class="cls-3" d="M388.32,125.12l-21,20.68,20-21.59a.65.65,0,0,1,1,.89Z"/><path class="cls-3" d="M403.15,137.45l-21,20.68,20-21.59a.65.65,0,1,1,1,.89Z"/><path class="cls-3" d="M407.24,156.42l-21,20.68,20-21.59a.66.66,0,0,1,.93,0,.65.65,0,0,1,0,.92Z"/><path class="cls-3" d="M408.81,172.74l-21,20.68,20-21.6a.66.66,0,1,1,1,.9Z"/><path class="cls-3" d="M322.84,137.81,309.44,151l12.45-14.06a.66.66,0,0,1,1,.87Z"/><path class="cls-3" d="M254,121.52,233,142.2l20-21.59a.65.65,0,0,1,.92,0,.64.64,0,0,1,0,.92Z"/><path class="cls-3" d="M246.44,92l-17.63,17.78L245.49,91.1a.66.66,0,1,1,1,.87Z"/><path class="cls-3" d="M178.57,101.67l-21,20.68,20-21.6a.66.66,0,0,1,1,.9Z"/><path class="cls-3" d="M202.5,211.18l-21,20.68,20-21.59a.65.65,0,1,1,1,.89Z"/><path class="cls-4" d="M29.58,214.41s9.9-9.32,9.9-19.95V112.6s-1.53-4.3-3.28-4.44c0,0,3.28-1.61,3.28-3.21V34.53s-.58-15-9.9-18.79c0,0,13.25-4.08,20.82,7.87,0,0,2.59-6.34,11.76-6.89a1.41,1.41,0,0,1,.22,1.86c-.69,1.06-4.55,7.5-1.71,14.06s37.87,95.73,37.87,95.73L138.09,27.43s2.62-6.66-1.61-9.72c0,0-.58-1.26,1.22-1.37s6.61,1.75,8.47,5.95c0,0,5.3-11.57,17.1-10.32,0,0,1,.66,0,2s-6.07,7.92-6.07,23.65v66.93a5.65,5.65,0,0,0,3.32,3.64s-3,2.18-3.35,3.71v77s-.15,16.31,9.25,22.87c0,0-13.77,5.1-20.76-9.32,0,0-7.28,4.66-20.25,0,0,0,13.55-2.63,13.55-12.38V79l-30.15,66.13s-2.4,7.54.33,11.2,4,4.53,4,4.53a15.39,15.39,0,0,1-15.73-5s-3.82,7.32-15.29,5.14c0,0,9-6.56,5.57-14.86S57.58,77.24,57.58,77.24V187.83s.93,8.59,7,11.49l6.06,2.89s-9.89,5.63-19.66-3.88C51,198.33,47.49,210.62,29.58,214.41Z"/><path class="cls-5" d="M41.82,204.35l-1.31-1.16.54-.68c2.28-3.48,2.46-12.72,2.33-16.21V111a5.53,5.53,0,0,0-2.06-2.15L39.81,108l1.56-.73c1-.45,1.84-2.25,2.06-2.84a.87.87,0,0,1,1.64.61,9.43,9.43,0,0,1-1.85,3,6.39,6.39,0,0,1,1.84,2.42l.06.16v75.65A60.29,60.29,0,0,1,44.39,198a11,11,0,0,0,1.77-3.29c.28-3.31.71-5.07,1.48-5.9V108.37a.87.87,0,0,1,1.74,0v81.28l-.41.25c-.17.11-.72.78-1.06,4.9-.16,1.85-3.88,6.76-5.48,8.79A6,6,0,0,1,41.82,204.35Z"/><path class="cls-5" d="M144.43,194.67a.87.87,0,0,1-.87-.87l-.23-124.62a19.09,19.09,0,0,1-1.14-2.27c-.64.44-1.25.83-1.73,1.11-2.41,5.21-31.82,68.72-34.37,73.67-2.46,4.78-1,13.12-.94,13.21l.41,2.21-1.79-1.36a17.07,17.07,0,0,1-5.27-7.05,39.12,39.12,0,0,1-6.23,7L87,160.37l4-5.81c1.65-2.41,1.06-8.42.68-10.68L58.26,70.63a13.31,13.31,0,0,1-2.65-2.09c-.38,1-.79,2-1.09,2.66V190.74a.88.88,0,1,1-1.75,0V70.83l.08-.17c.56-1.25,1-2.51,1.41-3.59a6.32,6.32,0,0,1-1.48-2.72,1.89,1.89,0,0,1,1.36-2.22,2.09,2.09,0,0,1,2.4,1.45,5.91,5.91,0,0,1-.32,3.1,11.91,11.91,0,0,0,3.07,2.52l.29.14,33.76,74,0,.11a31.32,31.32,0,0,1,.28,8.47,25.17,25.17,0,0,0,4.09-5.39,11.68,11.68,0,0,1-.6-4,1.87,1.87,0,0,1,1-1.65,1.23,1.23,0,0,1,1.28.21c.78.64,1,2.18.54,4.33a7.26,7.26,0,0,1-.38,1.24,17.34,17.34,0,0,0,3.51,6.15c-.3-3-.45-8.25,1.43-11.9,2.58-5,34.13-73.16,34.45-73.85l.11-.25.24-.13a25.29,25.29,0,0,0,2.26-1.49,6.32,6.32,0,0,1-.24-1.64,2.18,2.18,0,0,1,1.06-2.1,1.93,1.93,0,0,1,2,.18,2,2,0,0,1,.89,1.92,4.41,4.41,0,0,1-1.66,2.27,17.63,17.63,0,0,0,1.31,2.68l.14.21.22,125.11a.87.87,0,0,1-.87.87ZM54.57,63.83h0a.53.53,0,0,0,0,.31,2.33,2.33,0,0,0,.35.8,2.1,2.1,0,0,0,0-.76.52.52,0,0,0-.27-.34ZM143.24,63h0a1,1,0,0,0-.11.55c0,.12,0,.24,0,.36a1.76,1.76,0,0,0,.43-.58.28.28,0,0,0-.12-.24A.33.33,0,0,0,143.24,63Z"/><path class="cls-5" d="M158.25,206.49l-2-.85a17,17,0,0,1-5.35-4.17l-.21-.25v-2.29c0-1.31-1.67-3.27-2.26-3.86l-.25-.25.21-85.35a.89.89,0,0,1,.88-.88h0a.88.88,0,0,1,.87.88l-.22,84.64c.72.76,2.52,2.9,2.52,4.82v1.64a19,19,0,0,0,2.31,2.14c-.93-2.32-2.13-5.69-2.13-7.53V110.23l2.13-2.45-2-2.42a.87.87,0,0,1,.11-1.23.88.88,0,0,1,1.23.12l2.95,3.56-2.67,3.08v84.29c0,2.12,2.18,7.43,3,9.29Z"/><path class="cls-5" d="M48.51,103.46s-1.6,3.64-2.26,4.91l2.26,2.88L51,108.39Z"/><path class="cls-5" d="M149.22,103.32s-1.6,3.64-2.26,4.92l2.26,2.88,2.33-2.74Z"/><path class="cls-4" d="M166.42,208s9.35-5.57,9.35-16.17.33-80.58.33-80.58.33-2.51-3.28-3.89c0,0,3.29-1.83,3.29-3.9V26.88s-2.34-9.28-9.69-12.78c0,0,2.07-1.42,6.3-.95s11.43,5.69,13.5,7.8c0,0,8.45-10.13,18.56-7.07,0,0-9.89,5-9.89,16.88v73s1.31,2.57,3,3.28c0,0-2.73,2.62-3,3.52l-.17,84S196,205.6,204.78,210c0,0-12.51,2.76-19.58-8.16C185.2,201.81,177.41,210.48,166.42,208Z"/><path class="cls-5" d="M185.56,102s-1.72,3.57-2.38,4.85l2.38,3,2.49-2.92Z"/><path class="cls-5" d="M175.88,204.43a.87.87,0,0,1-.48-1.6l.37-.25c1.78-1.44,3.7-6.68,4.56-9.91l.29-82.56a17.27,17.27,0,0,0-2.17-2.08.88.88,0,0,1,.09-1.41,12,12,0,0,0,2.15-3.52.88.88,0,1,1,1.6.72,18.91,18.91,0,0,1-2,3.49,7.81,7.81,0,0,1,2,2.32.86.86,0,0,1,0,.28l-.29,82.87a.78.78,0,0,1,0,.22,45.84,45.84,0,0,1-2.33,6.67,6.77,6.77,0,0,0,1.68-1.72c.57-1.62,2.34-4.14,4.06-4.43a.9.9,0,0,1,.6.12,8.82,8.82,0,0,1,3.53,4.89A16.53,16.53,0,0,0,192,201.3c-1.16-2.68-2.69-6.48-2.69-7.94V109.9a1,1,0,0,1,.15-.49c.13-.18,1-1.45,1.67-2.34a5.74,5.74,0,0,1-2-3.55.86.86,0,0,1,.8-.93.87.87,0,0,1,.94.8c.11,1.48,2,2.83,2,2.84a.9.9,0,0,1,.37.63.87.87,0,0,1-.24.69c-.33.34-1.3,1.71-1.93,2.62v83.19c0,1.35,2.27,6.74,3.71,9.83a.88.88,0,0,1-1.08,1.2c-3-1-5.52-4.86-5.62-5a.8.8,0,0,1-.11-.25,7.3,7.3,0,0,0-2.48-3.77,6.94,6.94,0,0,0-2.41,3.18c-.52,1.49-4.55,4.33-6.29,5.5a3.12,3.12,0,0,1-.45.29A.78.78,0,0,1,175.88,204.43Z"/><path class="cls-5" d="M185.6,195.26a.87.87,0,0,1-.88-.88V107.79a.88.88,0,0,1,1.75,0v86.59A.87.87,0,0,1,185.6,195.26Z"/><path class="cls-4" d="M251.4,122.9s6.23-7.21,12.78-7.21h29.61s.72,41.76-4.23,55.16-8.74,25.64-27.38,25.06-27.82-10.2-30.59-31.61-1.89-54.91-1.89-54.91l2.48-2.7-2.61-3.23V72.54s-1-54.74,30.57-53.75c28,.88,37,48,25,52.55,0,0,8.63,4.37,16.93-9.18,0,0,6.44,3.82,10.16,2.73s4.8-3.06,4.8-3.06-6.88-4.26-8.08-10.38S301.51,8.74,261.6,8.3s-46.76,38.17-46.76,38.17a203.47,203.47,0,0,0-3.53,35.79V103l-3.6,3.6,3.6,3.61v26.39s-4,71.81,46,71.81c0,0,52,7.21,54-59.42l.08-51.86h-43s-13.8.73-22.32-6.41c0,0-1,11.37,10.42,15.59C256.43,106.33,246.89,113.25,251.4,122.9Z"/><path class="cls-5" d="M261,205.85c-11.59,0-21.19-3.7-28.56-11-17-16.92-16.4-46.92-16.37-48.19V109.31l-1.68-2.24a.88.88,0,0,1,1.4-1l1.86,2.48a.87.87,0,0,1,.17.52v37.65c0,.33-.66,30.56,15.86,46.93,7.44,7.38,17.3,10.91,29.3,10.46,12.37-.45,22.22-4.74,29.29-12.75,14.87-16.86,12.57-44.86,12.55-45.14v-.08l.15-43.23H270a47.15,47.15,0,0,1-12.5-1.82c2.46,2,5,3.88,6.38,4.39A5.38,5.38,0,0,1,269,104.3a2.5,2.5,0,0,1,2,2.76,2.92,2.92,0,0,1-3,2.29,6.7,6.7,0,0,1-3.95-1.6c-1,.77-3.27,2.51-5.31,4.3A64.48,64.48,0,0,1,269.9,111h28a.87.87,0,0,1,.88.87v31.55c.08,1.6,1.37,32.05-13.79,47.75-5.87,6.09-13.48,9.11-22.58,9-23.44-.36-36.58-17.19-37-47.39,0-.58,0-1.05,0-1.22-.29-2.87-.85-40.59-.87-42.19a.74.74,0,0,1,.11-.44l1.6-2.84a.88.88,0,0,1,1.19-.34.87.87,0,0,1,.33,1.19l-1.48,2.64c0,3.28.59,39.12.86,41.8,0,.25,0,.68,0,1.38.06,3.78.22,15.3,4.74,25.71,5.64,13,15.92,19.73,30.54,19.95,8.62.14,15.78-2.7,21.3-8.43C298.4,174.72,297,143.79,297,143.48V112.74H269.9a64.32,64.32,0,0,0-13.81,1.65.88.88,0,0,1-.84-1.46,76.72,76.72,0,0,1,7.29-6.22c-3.65-1.85-9.79-7.47-10.57-8.19A.87.87,0,0,1,253,97.15c6.12,3.94,16.86,4,17,4h35.85a.87.87,0,0,1,.62.26.89.89,0,0,1,.25.62l-.16,44.07c.11,1.28,2.12,29.28-13,46.4-7.4,8.39-17.68,12.88-30.54,13.35C262.4,205.83,261.71,205.85,261,205.85Zm4.32-99.31a4.73,4.73,0,0,0,2.65,1.07,1.22,1.22,0,0,0,1.25-.83c.07-.47-.56-.73-.84-.82A3.45,3.45,0,0,0,265.36,106.54Z"/><polygon class="cls-5" points="221.03 101.98 217.97 105.86 221.03 109.31 223.85 105.83 221.03 101.98"/><path class="cls-5" d="M261.92,203c-10.63,0-19.42-3.22-26.15-9.6-13.26-12.57-13.94-32.76-14-34.17-.11-.83-1.28-10-1.35-14.8s-.29-34.81-.29-35.11a.87.87,0,0,1,.87-.88.89.89,0,0,1,.88.87c0,.3.22,30.2.29,35.09s1.33,14.55,1.34,14.65v.1c0,.21.52,20.75,13.44,33,6.78,6.42,15.81,9.48,26.84,9.08,9.89-.36,18-3.91,24.12-10.56,14.29-15.52,13.18-43,13.17-43.25v-39.5h-31a.88.88,0,0,1,0-1.75h32.76v41.21c.06,1.11,1.15,28.43-13.62,44.48-6.45,7-15,10.74-25.34,11.12Z"/><path class="cls-4" d="M321.56,136.44a29,29,0,0,1,7.21,17.7c.66,11.14-.44,29,13.33,41.84s20.86,14.75,40.2,14.75,37.14-19.89,42.05-36.16c0,0,2.19-9.67,2.24-12.51s1-4.32,3.17-5.41c0,0-3.38-1.36-3.38-3.44s1-27.79-32-44.73-44-18.9-46.42-38.67c0,0-.7-6.05,2.76-6.63,0,0-3.27-2.59-2.55-6.52s8.2-30.44,32.34-30.55S408,47,408,54.4s-1.42,23.82-22.07,25.35c0,0,18.57,14.64,31.46-4.15,0,0,6.89,10.05,16.28,6.77,0,0-6.77-9.72-6.77-19.45s2.18-46.86-46.32-52.1c-42.39.76-50.14,37.68-50.69,45.11,0,0,0,6.19-3.82,7.18a6.42,6.42,0,0,1,3.55,6.1c-.16,4.47.71,26.7,25.62,40.25s49.37,23.27,52,40c0,0,1.68,5.94-2.14,7.39a4.45,4.45,0,0,1,3.09,4.7c-.07,3.93-1.82,35.84-30.55,36.52-27.42.66-29.93-32.44-29.93-36.48s3.82-22.18,21.74-22c0,0-17.63-13.62-30.59,4.44C338.82,144.05,334.74,135.1,321.56,136.44Z"/><path class="cls-5" d="M379.48,208c-.63,0-1.27,0-1.91,0-42.48-1.51-44.86-40.53-44.58-52.45.14-5.82-3.78-13.18-3.82-13.26a.87.87,0,0,1,1.07-1.23c3.62,1.36,6.72,6.69,8.19,9.61,5-11.9,17.1-12.86,17.23-12.87a.88.88,0,0,1,.44,1.66c-5.16,2.51-11.13,9.56-12,19.11-.5,5.22.43,22.6,10.86,33.48,5.93,6.18,13.92,9.05,23.76,8.53,19.56-1,31.5-14.09,33.62-36.73,0-.35.06-.62.08-.81a10,10,0,0,0-1.12-5.85.88.88,0,0,1,.28-1.19c.46-.29.59-2.67.26-4.81-2-15.14-12.92-24.76-44.95-39.62-27.21-12.62-32.73-33.47-33.59-44.78,0-.2,0-.37,0-.49-.2-2-.94-2.45-1.08-2.51a.82.82,0,0,1-.72-.79.91.91,0,0,1,.7-.91c.93-.24,1.55-2.55,1.68-4a.87.87,0,0,1,1.74.15c-.06.65-.36,3.36-1.69,4.78A5.7,5.7,0,0,1,335,66.12c0,.13,0,.31,0,.53.84,10.92,6.19,31.08,32.59,43.33,32.69,15.16,43.85,25.11,45.94,41,.17,1.07.55,4.35-.46,5.93a12,12,0,0,1,1.05,6.38c0,.18-.05.44-.08.76-2.21,23.61-14.73,37.22-35.26,38.31-10.37.55-18.82-2.5-25.12-9.06-10.89-11.35-11.86-29.42-11.34-34.86a27.63,27.63,0,0,1,8.95-17.8,19,19,0,0,0-11.91,12.61.87.87,0,0,1-.79.61.9.9,0,0,1-.85-.53c0-.07-2.48-5.81-5.64-8.91,1.21,2.84,2.76,7.27,2.66,11.21-.27,11.52,2,49.21,42.89,50.67,11.2.4,20.54-2.82,27.76-9.57,15.05-14.06,16-39,16-39.25a2.9,2.9,0,0,1,.44-1.39,3.5,3.5,0,0,1-.61-1.57v-.1a44.28,44.28,0,0,0-4.46-16.2c-5.33-11-14.38-19.72-26.93-25.81l-3.21-1.56C358,96.92,345,90.59,341.81,67.78c-.05-.41-.37-3.5,1.22-5a9.84,9.84,0,0,1-.75-4.72.88.88,0,1,1,1.75.06c-.13,3.27.81,4.28.82,4.29a.86.86,0,0,1,.27.8.89.89,0,0,1-.57.65c-1,.39-1.13,2.64-1,3.66,3,21.87,15,27.67,43.85,41.67l3.22,1.57c12.9,6.27,22.23,15.23,27.73,26.63A45.75,45.75,0,0,1,423,154.28v.07a3,3,0,0,0,.65,1.18.84.84,0,0,1,.21.71.88.88,0,0,1-.42.62c-.17.1-.27.51-.28.64,0,1-1,25.88-16.56,40.45C399.43,204.64,390.32,208,379.48,208Z"/><path class="cls-5" d="M338.82,58.12a35.39,35.39,0,0,1-2.49,4.48s2.44,2.54,2.63,4.07a22.6,22.6,0,0,1,2.32-4.13S339,59.21,338.82,58.12Z"/><path class="cls-5" d="M378.39,205.16a41,41,0,0,1-26.14-8.83c-15-12.15-14.62-42.14-14.59-43.41a.87.87,0,1,1,1.74,0c0,.31-.38,30.41,14,42,15.18,12.29,34.42,8.26,40,5.89,3.51-1.51,21.14-10.51,23.58-40a.88.88,0,0,1,.95-.8.87.87,0,0,1,.79.94c-2.52,30.47-21,39.87-24.63,41.44A43.06,43.06,0,0,1,378.39,205.16Z"/><path class="cls-5" d="M417.76,151.79s-1.54,4.32-3,5.46l3,3.44,2.55-3.44S418.09,153.61,417.76,151.79Z"/></g></g></svg>