<?xml version="1.0" encoding="utf-8"?>
<!-- Generator: Adobe Illustrator 23.0.1, SVG Export Plug-In . SVG Version: 6.00 Build 0)  -->
<svg version="1.1" id="Layer_1" xmlns="http://www.w3.org/2000/svg" xmlns:xlink="http://www.w3.org/1999/xlink" x="0px" y="0px"
	 viewBox="0 0 441.2 244.3" style="enable-background:new 0 0 441.2 244.3;" xml:space="preserve">
<style type="text/css">
	.st0{fill:#FFFFFF;}
</style>
<title>Asset 18</title>
<path class="st0" d="M413.7,107l23-23c0,0,1.1-1.6-1-4.6c-2.1-3.1-4.6-9.7-5.4-22.4c-0.8-12.7-3.3-35.6-33.6-46.2
	c-30.3-10.6-51.7,8.6-59.2,17.3S320.9,44.9,319.9,46c-1,1.1-6.1,8.9-6.1,8.9s-3.6-10.2-5-15.7c-1.4-5.5-13.1-33.7-47.3-33.7
	s-49.7,31.7-56.7,35.4c0,0-6.7,9.3-7.2,10.6V32.8c0,0,0.4-10.5,7.2-15.6c1.8-0.5,3-2.2,2.9-4.1c0-3.3-4.3-3.6-7.4-3
	c-3.1,0.5-11,3.6-14,7.3c0,0-8.1-8.4-19.5-6.3c0,0-4.2-5-14.6,0.8c0,0-5,3.2-6.2,5.7c0,0-2.8-4.2-6.7-3.8s-5.7,2-7.9,4.3
	s-17.8,17.7-17.8,17.7s-2.6,2.1-1.5,3.9c1.1,1.9,3.2,4.5,2.2,7c-1,2.5-22.4,58.2-22.4,58.2L62.7,29.7c-0.8-2.7-0.4-5.6,1-8
	c2.4-3.8,2.8-6,1.3-7.8c-1.5-1.8-5.4-0.5-7,0.1c-2.7,1.3-5.2,3.1-7.3,5.1c0,0-7.8-9.6-21.9-6.1l-22,23c0,0-1.6,3.2,1.4,4.8
	c2.9,1.6,7.1,5.2,7.1,14.5v69c0,0-3.4,3.7-3.4,5.1c0,1.4,3.4,4.2,3.4,4.2v71.1c0,0-2,20.4-7.4,26.1s-0.1,7.7,2,7.6
	c2.1-0.1,9.5-0.8,20.5-13.6c3.7,1.7,7.6,2.6,11.7,2.7c6.5,0,7.1-0.2,9.1-2.3c2-2.1,21.5-21.2,21.5-21.2s2.3-3.6-1.6-5.4
	s-10.5-4.2-10.5-13.3c0,0,10.7,1.2,15.2-4.1c0,0,6.2,4.7,11.5,4.9c5.3,0.2,6.8-2.4,7.5-3.4c0.7-1,19.9-20.4,19.9-20.4v47l-11.6,11.7
	c0,0-3.1,3.7,0.6,5.7s15.5,2.4,18.9,0.4c0,0,5.7,9.7,16.4,9.7c0,0,6.1,0.2,9.6-4.1c0,0,8.1,0,14.1-5.5c0,0,9.2,10.2,20.9,6.3
	l16.7-16.6c0,0,12.1,18.4,38.2,18.4c26.1,0,38.6-16.5,38.6-16.5s23.1-20.1,27.7-30.6c0,0,3.4,41.7,41.4,47.9
	c38,6.1,58.1-26.7,60.7-29.3s20.1-15.7,23.6-45.4c0,0,2.7-2,2.7-4.4c0-2.4-2.5-3.8-3.8-4.4c0,0,1.3-27.4-35.8-48.2l3.1-3.2
	C396.5,101.5,403.9,109.6,413.7,107z M60.6,177.6V163c0,0,3,1.8,3,7.3C63.6,175.8,60.6,177.6,60.6,177.6z M114.6,158.5
	c-2.6-1.8-4.3-4.8-4.4-8c0-4.3,4.4-11.4,4.4-11.4V158.5z M145.7,202.4c0,0-7.3,4.7-20.3,0c0,0,13.5-2.6,13.5-12.4V79l-30.2,66.1
	c0,0-2.4,7.5,0.3,11.2c2.7,3.7,4,4.5,4,4.5c-5.8,1.5-11.9-0.4-15.7-5c0,0-3.8,7.3-15.3,5.1c0,0,9-6.6,5.6-14.9S57.6,77.2,57.6,77.2
	v110.6c0,0,0.9,8.6,7,11.5l6.1,2.9c0,0-9.9,5.6-19.7-3.9c0,0-3.5,12.3-21.4,16.1c0,0,9.9-9.3,9.9-20v-81.9c0,0-1.5-4.3-3.3-4.4
	c0,0,3.3-1.6,3.3-3.2V34.5c0,0-0.6-15-9.9-18.8c0,0,13.3-4.1,20.8,7.9c0,0,2.6-6.3,11.8-6.9c0.5,0.5,0.6,1.3,0.2,1.9
	c-0.7,1.1-4.5,7.5-1.7,14.1c2.8,6.6,37.9,95.7,37.9,95.7l39.5-100.9c0,0,2.6-6.7-1.6-9.7c0,0-0.6-1.3,1.2-1.4s6.6,1.8,8.5,6
	c0,0,5.3-11.6,17.1-10.3c0,0,1,0.7,0,2c-1,1.3-6.1,7.9-6.1,23.6v66.9c0.5,1.7,1.7,3,3.3,3.6c0,0-3,2.2-3.4,3.7v77
	c0,0-0.1,16.3,9.3,22.9C166.4,211.8,152.7,216.9,145.7,202.4z M185.2,201.8c0,0-7.8,8.6-18.8,6.2c0,0,9.4-5.6,9.4-16.2
	s0.3-80.6,0.3-80.6s0.3-2.5-3.3-3.9c0,0,3.3-1.8,3.3-3.9V26.9c0,0-2.3-9.3-9.7-12.8c0,0,2.1-1.4,6.3-1c4.2,0.5,11.4,5.7,13.5,7.8
	c0,0,8.4-10.1,18.6-7.1c0,0-9.9,5-9.9,16.9v73c0,0,1.3,2.6,3,3.3c0,0-2.7,2.6-3,3.5l-0.2,84c0,0,1.3,11,10.1,15.4
	C204.8,210,192.3,212.8,185.2,201.8z M304.7,88.6c1.3,1.2,0.8,6.8,0.8,6.8h-32.8c4.1-1,9.1-6.8,9.1-6.8c1.2,0.5,6.3,2,10.4,1.1
	s14.1-12,14.1-12c-1.7,1.9-3.1,4-4.3,6.3C300.5,87,303.4,87.5,304.7,88.6z M302.1,62.2c-8.3,13.5-16.9,9.2-16.9,9.2
	c12-4.5,3-51.7-25-52.5c-31.6-1-30.6,53.8-30.6,53.8v30.9l2.6,3.2l-2.5,2.7c0,0-0.5,18.9,0.4,37.3c0,0,0,0,0,0l10.2-4.5h29.1
	c0,0,0.3,43.7-3.5,53.6c0,0,0,0,0,0c15.4-1.1,19-12.6,23.6-25c5-13.4,4.2-55.2,4.2-55.2h-29.6c-6.5,0-12.8,7.2-12.8,7.2
	c-4.5-9.7,5-16.6,5.1-16.6c-11.4-4.2-10.4-15.6-10.4-15.6c8.5,7.1,22.3,6.4,22.3,6.4h43l-0.1,51.9c-2,66.6-54,59.4-54,59.4
	c-50,0-46-71.8-46-71.8v-26.4l-3.6-3.6l3.6-3.6V82.3c0.1-12,1.3-24,3.5-35.8c0,0,6.8-38.6,46.8-38.2c39.9,0.4,46.1,37,47.3,43.1
	c1.2,6.1,8.1,10.4,8.1,10.4s-1.1,2-4.8,3.1C308.5,66,302.1,62.2,302.1,62.2z M266.3,82c0,6.9-5.8,12.5-5.8,12.5s-9.1-2.2-11.4-4.6
	c-2.3-2.4-4.1-1.3-4.1-1.3L232.2,102l0-26.5c0-10.8,1.5-21.5,4.5-31.9c0,0,4-1.4,12.5,4.1C261.7,55.6,266.3,75.1,266.3,82z
	 M314.9,142v-23.9c7.4,11,25.5,20.3,25.5,20.3L339,140c-6.6-7.1-17.7-5.5-17.7-5.5L314.9,142z M380.5,26.1
	c-24.1,0.1-31.6,26.6-32.3,30.5c-0.7,3.9,2.5,6.5,2.5,6.5c-3.5,0.6-2.8,6.6-2.8,6.6c2.4,19.8,13.4,21.7,46.4,38.7s32,42.6,32,44.7
	s3.4,3.4,3.4,3.4c-2.2,1.1-3.1,2.6-3.2,5.4c0,2.8-2.2,12.5-2.2,12.5c-4.9,16.3-22.7,36.2-42,36.2s-26.4-1.9-40.2-14.8
	c-13.8-12.8-12.7-30.7-13.3-41.8c-0.3-6.5-2.9-12.8-7.2-17.7c13.2-1.3,17.3,7.6,17.3,7.6c13-18.1,30.6-4.4,30.6-4.4
	c-17.9-0.2-21.7,18-21.7,22s2.5,37.1,29.9,36.5c28.7-0.7,30.5-32.6,30.5-36.5c0.2-2.1-1.1-4.1-3.1-4.7c3.8-1.5,2.1-7.4,2.1-7.4
	c-2.6-16.7-27.1-26.5-52-40c-24.9-13.5-25.8-35.8-25.6-40.3c0.1-2.6-1.3-5-3.5-6.1c3.8-1,3.8-7.2,3.8-7.2
	c0.5-7.4,8.3-44.4,50.7-45.1c48.5,5.2,46.3,42.4,46.3,52.1c0,9.7,6.8,19.4,6.8,19.4c-9.4,3.3-16.3-6.8-16.3-6.8
	c-12.9,18.8-31.5,4.1-31.5,4.1c20.7-1.5,22.1-17.9,22.1-25.3S404.6,26,380.5,26.1z M351.2,57.8c-0.6-1.7,1.5-6.5,1.5-6.5
	s8.5-1.9,18.9,2.9c12.4,5.7,13.7,25.6,13.7,25.6l-13.5,13.8c-18.1-8.1-20.8-22.4-21-23.9c-0.2-1.3,0.3-2.7,1.4-3.4
	c1.2-0.7,1.9-2,2-3.3C354.3,61.2,351.8,59.4,351.2,57.8z M384.6,184c0.1,0.7-2.4,11.2-2.4,11.2l0,0c-31.2,5.1-31.5-33.5-31.5-33.5
	c0.9,0,1.7,0,2.6,0c1.3-0.1,11-10.8,11-10.8c21.5,11.4,19.5,25.3,19.5,25.3s-2.5-0.2-2.5,3.2C381.4,183.9,384.4,183.3,384.6,184z"/>
<path class="st0" d="M41.8,204.4l-1.3-1.2l0.5-0.7c2.3-3.5,2.5-12.7,2.3-16.2V111c-0.5-0.9-1.2-1.6-2.1-2.2l-1.5-0.8l1.6-0.7
	c1-0.4,1.8-2.3,2.1-2.8c0.2-0.5,0.7-0.7,1.1-0.5s0.7,0.7,0.5,1.1c-0.4,1.1-1.1,2.1-1.8,3c0.8,0.6,1.4,1.5,1.8,2.4l0.1,0.2v75.7
	c0.1,3.9-0.1,7.9-0.7,11.7c0.8-1,1.4-2.1,1.8-3.3c0.3-3.3,0.7-5.1,1.5-5.9v-80.4c0-0.5,0.4-0.9,0.9-0.9c0.5,0,0.9,0.4,0.9,0.9l0,0
	v81.3l-0.4,0.3c-0.2,0.1-0.7,0.8-1.1,4.9c-0.2,1.9-3.9,6.8-5.5,8.8C42.2,203.9,42,204.1,41.8,204.4z"/>
<path class="st0" d="M144.4,194.7c-0.5,0-0.9-0.4-0.9-0.9l-0.2-124.6c-0.4-0.7-0.8-1.5-1.1-2.3c-0.6,0.4-1.3,0.8-1.7,1.1
	c-2.4,5.2-31.8,68.7-34.4,73.7c-2.5,4.8-1,13.1-0.9,13.2l0.4,2.2l-1.8-1.4c-2.3-1.8-4.2-4.3-5.3-7.1c-1.8,2.6-3.9,4.9-6.2,7
	l-5.3,4.7l4-5.8c1.7-2.4,1.1-8.4,0.7-10.7L58.3,70.6c-1-0.6-1.9-1.3-2.7-2.1c-0.4,1-0.8,2-1.1,2.7v119.5c0.1,0.5-0.3,0.9-0.8,1
	c-0.5,0.1-0.9-0.3-1-0.8c0-0.1,0-0.1,0-0.2V70.8l0.1-0.2c0.6-1.3,1-2.5,1.4-3.6c-0.7-0.8-1.2-1.7-1.5-2.7c-0.2-1,0.4-2,1.4-2.2
	c1.1-0.2,2.1,0.4,2.4,1.5c0.2,1,0.1,2.1-0.3,3.1c0.9,1,1.9,1.9,3.1,2.5l0.3,0.1l33.8,74v0.1c0.5,2.8,0.6,5.6,0.3,8.5
	c1.6-1.6,3-3.4,4.1-5.4c-0.4-1.3-0.6-2.6-0.6-4c0-0.7,0.4-1.3,1-1.6c0.4-0.2,0.9-0.1,1.3,0.2c0.8,0.6,1,2.2,0.5,4.3
	c-0.1,0.4-0.2,0.8-0.4,1.2c0.7,2.3,1.9,4.4,3.5,6.1c-0.3-3-0.4-8.3,1.4-11.9c2.6-5,34.1-73.2,34.5-73.8l0.1-0.3l0.2-0.1
	c0.8-0.5,1.5-1,2.3-1.5c-0.2-0.5-0.2-1.1-0.2-1.6c-0.1-0.8,0.3-1.7,1.1-2.1c0.6-0.3,1.4-0.2,2,0.2c0.6,0.4,1,1.2,0.9,1.9
	c-0.3,0.9-0.9,1.7-1.7,2.3c0.4,0.9,0.8,1.8,1.3,2.7l0.1,0.2l0.2,125.1C145.3,194.3,144.9,194.7,144.4,194.7L144.4,194.7z M54.6,63.8
	L54.6,63.8c0,0.1,0,0.2,0,0.3c0.1,0.3,0.2,0.6,0.3,0.8c0-0.3,0-0.5,0-0.8C54.9,64,54.8,63.9,54.6,63.8L54.6,63.8z M143.2,63
	L143.2,63c-0.1,0.2-0.1,0.4-0.1,0.5c0,0.1,0,0.2,0,0.4c0.2-0.2,0.3-0.4,0.4-0.6c0-0.1,0-0.2-0.1-0.2C143.4,63,143.3,63,143.2,63z"/>
<path class="st0" d="M158.3,206.5l-2-0.9c-2-1-3.9-2.4-5.4-4.2l-0.2-0.3v-2.3c0-1.3-1.7-3.3-2.3-3.9l-0.3-0.3l0.2-85.3
	c0-0.5,0.4-0.9,0.9-0.9l0,0c0.5,0,0.9,0.4,0.9,0.9l-0.2,84.6c0.7,0.8,2.5,2.9,2.5,4.8v1.6c0.7,0.8,1.5,1.5,2.3,2.1
	c-0.9-2.3-2.1-5.7-2.1-7.5v-85l2.1-2.4l-2-2.4c-0.3-0.4-0.3-0.9,0.1-1.2c0,0,0,0,0,0c0.4-0.3,0.9-0.2,1.2,0.1l2.9,3.6l-2.7,3.1v84.3
	c0,2.1,2.2,7.4,3,9.3L158.3,206.5z"/>
<path class="st0" d="M48.5,103.5c0,0-1.6,3.6-2.3,4.9l2.3,2.9l2.5-2.9L48.5,103.5z"/>
<path class="st0" d="M149.2,103.3c0,0-1.6,3.6-2.3,4.9l2.3,2.9l2.3-2.7L149.2,103.3z"/>
<path class="st0" d="M185.6,102c0,0-1.7,3.6-2.4,4.8l2.4,3l2.5-2.9L185.6,102z"/>
<path class="st0" d="M175.9,204.4c-0.5,0-0.9-0.4-0.9-0.9c0-0.3,0.1-0.6,0.4-0.7l0.4-0.3c1.8-1.4,3.7-6.7,4.6-9.9l0.3-82.6
	c-0.7-0.8-1.4-1.5-2.2-2.1c-0.4-0.3-0.4-0.9-0.1-1.2c0.1-0.1,0.1-0.1,0.2-0.2c0.9-1,1.6-2.2,2.1-3.5c0.2-0.5,0.7-0.7,1.1-0.5
	s0.7,0.7,0.5,1.1c0,0,0,0.1-0.1,0.1c-0.5,1.2-1.2,2.4-2,3.5c0.8,0.6,1.5,1.4,2,2.3c0,0.1,0,0.2,0,0.3l-0.3,82.9c0,0.1,0,0.1,0,0.2
	c-0.6,2.3-1.4,4.5-2.3,6.7c0.7-0.5,1.2-1.1,1.7-1.7c0.6-1.6,2.3-4.1,4.1-4.4c0.2,0,0.4,0,0.6,0.1c1.7,1.2,3,2.9,3.5,4.9
	c0.7,1,1.5,1.9,2.5,2.8c-1.2-2.7-2.7-6.5-2.7-7.9v-83.5c0-0.2,0.1-0.3,0.1-0.5c0.1-0.2,1-1.4,1.7-2.3c-1.1-0.9-1.8-2.2-2-3.6
	c0-0.5,0.3-0.9,0.8-0.9c0,0,0,0,0,0c0.5,0,0.9,0.3,0.9,0.8c0,0,0,0,0,0c0.1,1.5,2,2.8,2,2.8c0.2,0.1,0.3,0.4,0.4,0.6
	c0,0.3-0.1,0.5-0.2,0.7c-0.3,0.3-1.3,1.7-1.9,2.6v83.2c0,1.4,2.3,6.7,3.7,9.8c0.2,0.4,0,1-0.4,1.2c-0.2,0.1-0.4,0.1-0.6,0
	c-3-1-5.5-4.9-5.6-5c-0.1-0.1-0.1-0.2-0.1-0.3c-0.4-1.5-1.3-2.8-2.5-3.8c-1.1,0.8-1.9,1.9-2.4,3.2c-0.5,1.5-4.6,4.3-6.3,5.5
	c-0.1,0.1-0.3,0.2-0.4,0.3C176.2,204.4,176,204.4,175.9,204.4z"/>
<path class="st0" d="M185.6,195.3c-0.5,0-0.9-0.4-0.9-0.9c0,0,0,0,0,0v-86.6c0.1-0.5,0.5-0.8,1-0.8c0.4,0,0.7,0.4,0.8,0.8v86.6
	C186.5,194.9,186.1,195.3,185.6,195.3C185.6,195.3,185.6,195.3,185.6,195.3z"/>
<path class="st0" d="M261,205.9c-11.6,0-21.2-3.7-28.6-11c-17-16.9-16.4-46.9-16.4-48.2v-37.4l-1.7-2.2c-0.2-0.4,0-1,0.5-1.2
	c0.3-0.1,0.7-0.1,0.9,0.2l1.9,2.5c0.1,0.2,0.2,0.3,0.2,0.5v37.7c0,0.3-0.7,30.6,15.9,46.9c7.4,7.4,17.3,10.9,29.3,10.5
	c12.4-0.4,22.2-4.7,29.3-12.8c14.9-16.9,12.6-44.9,12.5-45.1v-0.1l0.1-43.2h-35c-4.2,0-8.4-0.7-12.5-1.8c2.5,2,5,3.9,6.4,4.4
	c1.4-1.3,3.3-1.7,5.1-1.2c1.3,0.3,2.2,1.5,2,2.8c-0.3,1.4-1.6,2.4-3,2.3c-1.5-0.1-2.8-0.7-4-1.6c-1,0.8-3.3,2.5-5.3,4.3
	c3.7-0.7,7.4-1,11.2-1.1h28c0.5,0,0.9,0.4,0.9,0.9c0,0,0,0,0,0v31.5c0.1,1.6,1.4,32.1-13.8,47.8c-5.9,6.1-13.5,9.1-22.6,9
	c-23.4-0.4-36.6-17.2-37-47.4c0-0.6,0-1.1,0-1.2c-0.3-2.9-0.9-40.6-0.9-42.2c0-0.2,0-0.3,0.1-0.4l1.6-2.8c0.2-0.4,0.8-0.6,1.2-0.3
	c0.4,0.2,0.6,0.8,0.3,1.2c0,0,0,0,0,0l-1.5,2.6c0,3.3,0.6,39.1,0.9,41.8c0,0.3,0,0.7,0,1.4c0.1,3.8,0.2,15.3,4.7,25.7
	c5.6,13,15.9,19.7,30.5,19.9c8.6,0.1,15.8-2.7,21.3-8.4c14.7-15.3,13.3-46.2,13.3-46.5v-30.7h-27.1c-4.6,0-9.3,0.6-13.8,1.7
	c-0.5,0.1-0.9-0.2-1.1-0.7c-0.1-0.3,0-0.6,0.2-0.8c2.3-2.2,4.7-4.3,7.3-6.2c-3.6-1.8-9.8-7.5-10.6-8.2c-0.3-0.4-0.3-0.9,0-1.2
	c0.3-0.3,0.7-0.3,1-0.1c6.1,3.9,16.9,4,17,4h35.9c0.2,0,0.5,0.1,0.6,0.3c0.2,0.2,0.3,0.4,0.3,0.6l-0.2,44.1
	c0.1,1.3,2.1,29.3-13,46.4c-7.4,8.4-17.7,12.9-30.5,13.4C262.4,205.8,261.7,205.9,261,205.9z M265.3,106.5c0.8,0.6,1.7,1,2.6,1.1
	c0.6,0,1.1-0.3,1.3-0.8c0.1-0.5-0.6-0.7-0.8-0.8C267.3,105.7,266.2,105.9,265.3,106.5L265.3,106.5z"/>
<polygon class="st0" points="221,102 218,105.9 221,109.3 223.9,105.8 "/>
<path class="st0" d="M261.9,203c-10.6,0-19.4-3.2-26.1-9.6c-13.3-12.6-13.9-32.8-14-34.2c-0.1-0.8-1.3-10-1.4-14.8
	s-0.3-34.8-0.3-35.1c0-0.5,0.4-0.9,0.9-0.9c0,0,0,0,0,0c0.5,0,0.9,0.4,0.9,0.9c0,0.3,0.2,30.2,0.3,35.1s1.3,14.6,1.3,14.6v0.1
	c0,0.2,0.5,20.8,13.4,33c6.8,6.4,15.8,9.5,26.8,9.1c9.9-0.4,18-3.9,24.1-10.6c14.3-15.5,13.2-43,13.2-43.3v-39.5h-31
	c-0.5-0.1-0.8-0.5-0.8-1c0-0.4,0.4-0.7,0.8-0.8h32.8v41.2c0.1,1.1,1.1,28.4-13.6,44.5c-6.5,7-15,10.7-25.3,11.1L261.9,203z"/>
<path class="st0" d="M379.5,208c-0.6,0-1.3,0-1.9,0c-42.5-1.5-44.9-40.5-44.6-52.4c0.1-5.8-3.8-13.2-3.8-13.3
	c-0.2-0.4-0.1-1,0.3-1.2c0.2-0.1,0.5-0.1,0.7-0.1c3.6,1.4,6.7,6.7,8.2,9.6c5-11.9,17.1-12.9,17.2-12.9c0.5,0,0.9,0.4,0.9,0.8
	c0,0.3-0.2,0.7-0.5,0.8c-5.2,2.5-11.1,9.6-12,19.1c-0.5,5.2,0.4,22.6,10.9,33.5c5.9,6.2,13.9,9.1,23.8,8.5
	c19.6-1,31.5-14.1,33.6-36.7c0-0.4,0.1-0.6,0.1-0.8c0.2-2-0.2-4.1-1.1-5.9c-0.2-0.4-0.1-0.9,0.3-1.2c0.5-0.3,0.6-2.7,0.3-4.8
	c-2-15.1-12.9-24.8-45-39.6c-27.2-12.6-32.7-33.5-33.6-44.8c0-0.2,0-0.4,0-0.5c-0.2-2-0.9-2.5-1.1-2.5c-0.4,0-0.7-0.4-0.7-0.8
	c0-0.4,0.3-0.8,0.7-0.9c0.9-0.2,1.5-2.5,1.7-4c0-0.5,0.5-0.8,0.9-0.8c0.5,0,0.8,0.5,0.8,0.9c-0.1,0.7-0.4,3.4-1.7,4.8
	c0.7,0.9,1,2,1.1,3.1c0,0.1,0,0.3,0,0.5c0.8,10.9,6.2,31.1,32.6,43.3c32.7,15.2,43.9,25.1,45.9,41c0.2,1.1,0.5,4.4-0.5,5.9
	c0.9,2,1.3,4.2,1,6.4c0,0.2,0,0.4-0.1,0.8c-2.2,23.6-14.7,37.2-35.3,38.3c-10.4,0.6-18.8-2.5-25.1-9.1
	c-10.9-11.4-11.9-29.4-11.3-34.9c0.7-6.8,3.9-13.2,9-17.8c-5.8,2-10.2,6.7-11.9,12.6c-0.1,0.3-0.4,0.6-0.8,0.6
	c-0.4,0-0.7-0.2-0.9-0.5c0-0.1-2.5-5.8-5.6-8.9c1.2,2.8,2.8,7.3,2.7,11.2c-0.3,11.5,2,49.2,42.9,50.7c11.2,0.4,20.5-2.8,27.8-9.6
	c15-14.1,16-39,16-39.3c0-0.5,0.2-1,0.4-1.4c-0.3-0.5-0.5-1-0.6-1.6v-0.1c-0.4-5.6-2-11.1-4.5-16.2c-5.3-11-14.4-19.7-26.9-25.8
	l-3.2-1.6C358,96.9,345,90.6,341.8,67.8c0-0.4-0.4-3.5,1.2-5c-0.6-1.5-0.9-3.1-0.8-4.7c0-0.5,0.3-0.9,0.8-0.9c0.5,0,0.9,0.3,0.9,0.8
	c0,0.1,0,0.1,0,0.2c-0.1,3.3,0.8,4.3,0.8,4.3c0.2,0.2,0.3,0.5,0.3,0.8c-0.1,0.3-0.3,0.5-0.6,0.7c-1,0.4-1.1,2.6-1,3.7
	c3,21.9,15,27.7,43.9,41.7l3.2,1.6c12.9,6.3,22.2,15.2,27.7,26.6c2.6,5.3,4.2,11,4.6,16.9v0.1c0.1,0.4,0.3,0.8,0.6,1.2
	c0.2,0.2,0.3,0.5,0.2,0.7c0,0.3-0.2,0.5-0.4,0.6c-0.2,0.1-0.3,0.5-0.3,0.6c0,1-1,25.9-16.6,40.4C399.4,204.6,390.3,208,379.5,208z"
	/>
<path class="st0" d="M338.8,58.1c-0.7,1.6-1.6,3-2.5,4.5c0,0,2.4,2.5,2.6,4.1c0.6-1.5,1.4-2.8,2.3-4.1
	C341.3,62.5,339,59.2,338.8,58.1z"/>
<path class="st0" d="M378.4,205.2c-9.5,0.2-18.7-3-26.1-8.8c-15-12.1-14.6-42.1-14.6-43.4c0-0.5,0.4-0.9,0.9-0.9
	c0.5,0,0.9,0.4,0.9,0.9c0,0,0,0,0,0c0,0.3-0.4,30.4,14,42c15.2,12.3,34.4,8.3,40,5.9c3.5-1.5,21.1-10.5,23.6-40c0-0.5,0.5-0.8,1-0.8
	c0.5,0,0.8,0.5,0.8,0.9c-2.5,30.5-21,39.9-24.6,41.4C389.1,204.3,383.8,205.2,378.4,205.2z"/>
<path class="st0" d="M417.8,151.8c0,0-1.5,4.3-3,5.5l3,3.4l2.5-3.4C420.3,157.3,418.1,153.6,417.8,151.8z"/>
</svg>
