<?xml version="1.0" encoding="utf-8"?>
<!-- Generator: Adobe Illustrator 23.0.1, SVG Export Plug-In . SVG Version: 6.00 Build 0)  -->
<svg version="1.1" id="Layer_1" xmlns="http://www.w3.org/2000/svg" xmlns:xlink="http://www.w3.org/1999/xlink" x="0px" y="0px"
	 viewBox="0 0 228 324" style="enable-background:new 0 0 228 324;" xml:space="preserve">
<style type="text/css">
	.st0{fill:#FFE008;}
	.st1{fill:#FF9527;}
	.st2{fill:#E02B4A;}
	.st3{clip-path:url(#SVGID_2_);fill:#FF9527;}
	.st4{clip-path:url(#SVGID_2_);fill:#FFE008;}
	.st5{clip-path:url(#SVGID_2_);fill:#E02B4A;}
	.st6{opacity:0.3;fill:url(#SVGID_3_);}
	.st7{opacity:0.3;fill:url(#SVGID_4_);}
	.st8{opacity:0.3;fill:url(#SVGID_5_);}
	.st9{opacity:0.3;fill:url(#SVGID_6_);}
	.st10{opacity:0.3;fill:url(#SVGID_7_);}
	.st11{opacity:0.3;fill:url(#SVGID_8_);}
</style>
<g>
	<rect x="102.7" y="135.4" class="st0" width="13.4" height="13.4"/>
	<rect x="92.4" y="59.7" class="st1" width="13.4" height="13.4"/>
	<rect x="117.4" y="158" class="st1" width="10" height="10"/>
	<rect x="102.1" y="191.1" class="st2" width="14.7" height="14.7"/>
	<rect x="81.8" y="32.9" class="st0" width="9.8" height="9.8"/>
	<rect x="104.7" y="4.6" class="st2" width="7.9" height="7.9"/>
	<rect x="119.5" y="89.2" class="st2" width="13.4" height="13.4"/>
	<rect x="133.8" y="10.3" class="st0" width="7.8" height="7.8"/>
	<rect x="133.8" y="45.7" class="st0" width="13.4" height="13.4"/>
	<polygon class="st1" points="132.1,46.3 118.9,46.3 118.7,46.3 118.7,46 118.7,32.9 132.1,32.9 	"/>
	<g>
		<defs>
			<polygon id="SVGID_1_" points="136.3,205.7 93.9,205.7 45.6,294.5 184.3,294.5 			"/>
		</defs>
		<clipPath id="SVGID_2_">
			<use xlink:href="#SVGID_1_"  style="overflow:visible;"/>
		</clipPath>
		<rect x="82.3" y="240.8" class="st3" width="17.1" height="17.1"/>
		<rect x="82.3" y="222.4" class="st4" width="17.1" height="17.1"/>
		<rect x="100.9" y="240.8" class="st4" width="17.1" height="17.1"/>
		<rect x="119.5" y="240.8" class="st4" width="17.1" height="17.1"/>
		<rect x="119.5" y="222.4" class="st4" width="17.1" height="17.1"/>
		<rect x="82.3" y="259.2" class="st5" width="17.1" height="17.1"/>
		<rect x="100.9" y="259.2" class="st3" width="17.1" height="17.1"/>
		<rect x="119.5" y="259.2" class="st3" width="17.1" height="17.1"/>
		<rect x="63.8" y="277.6" class="st5" width="17.1" height="17.1"/>
		<rect x="45.2" y="277.6" class="st5" width="17.1" height="17.1"/>
		<rect x="63.8" y="259.2" class="st3" width="17.1" height="17.1"/>
		<rect x="63.8" y="240.9" class="st4" width="17.1" height="17.1"/>
		<rect x="63.8" y="222.6" class="st3" width="17.1" height="17.1"/>
		<rect x="45.2" y="259.2" class="st5" width="17.1" height="17.1"/>
		<rect x="82.3" y="277.6" class="st3" width="17.1" height="17.1"/>
		<rect x="100.9" y="277.6" class="st5" width="17.1" height="17.1"/>
		<rect x="119.5" y="277.6" class="st5" width="17.1" height="17.1"/>
		<rect x="174.9" y="277.6" class="st3" width="17.1" height="17.1"/>
		<rect x="156.5" y="240.8" class="st4" width="17.1" height="17.1"/>
		<rect x="156.5" y="277.6" class="st5" width="17.1" height="17.1"/>
		<rect x="138" y="277.6" class="st3" width="17.1" height="17.1"/>
		<rect x="138" y="259.2" class="st5" width="17.1" height="17.1"/>
		<rect x="138" y="240.8" class="st3" width="17.1" height="17.1"/>
		<rect x="138" y="222.4" class="st5" width="17.1" height="17.1"/>
		<rect x="156.6" y="277.6" class="st5" width="17.1" height="17.1"/>
		<rect x="156.6" y="259.2" class="st3" width="17.1" height="17.1"/>
	</g>
	<polygon class="st2" points="18.6,320.4 209.6,320.4 219.2,304.1 8.9,304.1 	"/>
	<polygon class="st1" points="91.8,181.4 75.5,218.1 75.5,117.3 91.8,117.3 	"/>
	<linearGradient id="SVGID_3_" gradientUnits="userSpaceOnUse" x1="83.6211" y1="191.3547" x2="83.6211" y2="152.9454">
		<stop  offset="0" style="stop-color:#000000"/>
		<stop  offset="1" style="stop-color:#000000;stop-opacity:0"/>
	</linearGradient>
	<polygon class="st6" points="91.8,181.4 75.5,218.1 75.5,117.3 91.8,117.3 	"/>
	<polygon class="st2" points="29.8,304.1 91.8,192.6 91.8,157.7 8.9,304.1 	"/>
	<linearGradient id="SVGID_4_" gradientUnits="userSpaceOnUse" x1="209.0414" y1="312.2354" x2="162.3669" y2="312.2354">
		<stop  offset="0" style="stop-color:#000000"/>
		<stop  offset="1" style="stop-color:#000000;stop-opacity:0"/>
	</linearGradient>
	<polygon class="st7" points="18.6,320.4 209.6,320.4 219.2,304.1 8.9,304.1 	"/>
	<polygon class="st1" points="209.6,320.4 138.4,192.6 138.4,157.7 219.2,304.1 	"/>
	<linearGradient id="SVGID_5_" gradientUnits="userSpaceOnUse" x1="152.4994" y1="202.0866" x2="175.5338" y2="241.6585">
		<stop  offset="0" style="stop-color:#000000"/>
		<stop  offset="1" style="stop-color:#000000;stop-opacity:0"/>
	</linearGradient>
	<polygon class="st8" points="209.6,320.4 138.4,192.6 138.4,157.7 219.2,304.1 	"/>
	<polygon class="st0" points="138.4,192.6 154.8,221.9 154.8,117.3 138.4,117.3 	"/>
	<linearGradient id="SVGID_6_" gradientUnits="userSpaceOnUse" x1="146.5937" y1="118.7076" x2="146.5937" y2="155.9213">
		<stop  offset="0" style="stop-color:#000000"/>
		<stop  offset="1" style="stop-color:#000000;stop-opacity:0"/>
	</linearGradient>
	<polygon class="st9" points="138.4,192.6 154.8,221.9 154.8,117.3 138.4,117.3 	"/>
	<rect x="69.9" y="103.1" class="st0" width="90.3" height="16.3"/>
	<linearGradient id="SVGID_7_" gradientUnits="userSpaceOnUse" x1="19.2006" y1="303.4317" x2="46.9599" y2="255.0006">
		<stop  offset="0" style="stop-color:#000000"/>
		<stop  offset="1" style="stop-color:#000000;stop-opacity:0"/>
	</linearGradient>
	<polygon class="st10" points="29.8,304.1 91.8,192.6 91.8,157.7 8.9,304.1 	"/>
	<linearGradient id="SVGID_8_" gradientUnits="userSpaceOnUse" x1="69.9043" y1="111.2947" x2="160.248" y2="111.2947">
		<stop  offset="0" style="stop-color:#000000"/>
		<stop  offset="1" style="stop-color:#000000;stop-opacity:0"/>
	</linearGradient>
	<rect x="69.9" y="103.1" class="st11" width="90.3" height="16.3"/>
</g>
</svg>
