<?xml version="1.0" encoding="utf-8"?>
<!-- Generator: Adobe Illustrator 23.0.1, SVG Export Plug-In . SVG Version: 6.00 Build 0)  -->
<svg version="1.1" id="Layer_1" xmlns="http://www.w3.org/2000/svg" xmlns:xlink="http://www.w3.org/1999/xlink" x="0px" y="0px"
	 viewBox="0 0 228 324" style="enable-background:new 0 0 228 324;" xml:space="preserve">
<style type="text/css">
	.st0{fill:none;stroke:#FFFFFF;stroke-width:5;stroke-miterlimit:10;}
	.st1{fill:#FFE008;}
	.st2{fill:#FF9527;}
	.st3{fill:#E02B4A;}
	.st4{clip-path:url(#SVGID_2_);fill:#FF9527;}
	.st5{clip-path:url(#SVGID_4_);fill:#FFE008;}
	.st6{clip-path:url(#SVGID_6_);fill:#FFE008;}
	.st7{clip-path:url(#SVGID_8_);fill:#FFE008;}
	.st8{clip-path:url(#SVGID_10_);fill:#FFE008;}
	.st9{clip-path:url(#SVGID_12_);fill:#E02B4A;}
	.st10{clip-path:url(#SVGID_14_);fill:#FF9527;}
	.st11{clip-path:url(#SVGID_16_);fill:#FF9527;}
	.st12{clip-path:url(#SVGID_18_);fill:#E02B4A;}
	.st13{clip-path:url(#SVGID_20_);fill:#E02B4A;}
	.st14{clip-path:url(#SVGID_22_);fill:#FF9527;}
	.st15{clip-path:url(#SVGID_24_);fill:#FFE008;}
	.st16{clip-path:url(#SVGID_26_);fill:#FF9527;}
	.st17{clip-path:url(#SVGID_28_);fill:#E02B4A;}
	.st18{clip-path:url(#SVGID_30_);fill:#FF9527;}
	.st19{clip-path:url(#SVGID_32_);fill:#E02B4A;}
	.st20{clip-path:url(#SVGID_34_);fill:#E02B4A;}
	.st21{clip-path:url(#SVGID_36_);fill:#FF9527;}
	.st22{clip-path:url(#SVGID_38_);fill:#FFE008;}
	.st23{clip-path:url(#SVGID_40_);fill:#E02B4A;}
	.st24{clip-path:url(#SVGID_42_);fill:#FF9527;}
	.st25{clip-path:url(#SVGID_44_);fill:#E02B4A;}
	.st26{clip-path:url(#SVGID_46_);fill:#FF9527;}
	.st27{clip-path:url(#SVGID_48_);fill:#E02B4A;}
	.st28{clip-path:url(#SVGID_50_);fill:#E02B4A;}
	.st29{clip-path:url(#SVGID_52_);fill:#FF9527;}
	.st30{opacity:0.3;fill:url(#SVGID_53_);enable-background:new    ;}
	.st31{opacity:0.3;fill:url(#SVGID_54_);enable-background:new    ;}
	.st32{opacity:0.3;fill:url(#SVGID_55_);enable-background:new    ;}
	.st33{opacity:0.3;fill:url(#SVGID_56_);enable-background:new    ;}
	.st34{opacity:0.3;fill:url(#SVGID_57_);enable-background:new    ;}
	.st35{opacity:0.3;fill:url(#SVGID_58_);enable-background:new    ;}
</style>
<g>
	<g>
		<rect x="102.7" y="135.4" class="st0" width="13.4" height="13.4"/>
		<rect x="92.4" y="59.7" class="st0" width="13.4" height="13.4"/>
		<rect x="117.4" y="158" class="st0" width="10" height="10"/>
		<rect x="81.8" y="32.9" class="st0" width="9.8" height="9.8"/>
		<rect x="104.7" y="4.6" class="st0" width="7.9" height="7.9"/>
		<rect x="119.5" y="89.2" class="st0" width="13.4" height="13.4"/>
		<rect x="133.8" y="10.3" class="st0" width="7.8" height="7.8"/>
		<rect x="133.8" y="45.7" class="st0" width="13.4" height="13.4"/>
		<polygon class="st0" points="132.1,46.3 118.9,46.3 118.7,46.3 118.7,46 118.7,32.9 132.1,32.9 		"/>
		<path class="st0" d="M154.8,187.4v-68h5.4v-16.3H69.9v16.3h5.6v67.1L8.9,304.1l9.7,16.3h191l9.6-16.3L154.8,187.4z M29.8,304.1
			l62-111.5v-11.2v-23.7v-38.3h46.6v38.3v34.9l62.1,111.5H29.8z"/>
		<g>
			<rect x="82.3" y="259.2" class="st0" width="17.1" height="17.1"/>
			<rect x="100.9" y="259.2" class="st0" width="17.1" height="17.1"/>
			<rect x="100.9" y="277.6" class="st0" width="17.1" height="17.1"/>
			<rect x="82.3" y="277.6" class="st0" width="17.1" height="17.1"/>
			<polygon class="st0" points="99.4,222.4 84.7,222.4 82.3,227 82.3,239.5 99.4,239.5 			"/>
			<rect x="100.9" y="240.8" class="st0" width="17.1" height="17.1"/>
			<polygon class="st0" points="80.9,258 80.9,240.9 74.7,240.9 65.4,258 			"/>
			<rect x="119.5" y="277.6" class="st0" width="17.1" height="17.1"/>
			<polygon class="st0" points="63.2,277.6 54.7,277.6 45.4,294.7 63.2,294.7 			"/>
			<rect x="119.5" y="259.2" class="st0" width="17.1" height="17.1"/>
			<rect x="119.5" y="222.4" class="st0" width="17.1" height="17.1"/>
			<rect x="119.5" y="240.8" class="st0" width="17.1" height="17.1"/>
			<rect x="82.3" y="240.8" class="st0" width="17.1" height="17.1"/>
			<polygon class="st0" points="156.5,257.9 164.2,257.9 156.5,243.3 			"/>
			<polygon class="st0" points="75.3,239.7 80.9,239.7 80.9,229.6 			"/>
			<polygon class="st0" points="138,239.5 154.4,239.5 145.4,222.4 138,222.4 			"/>
			<rect x="138" y="259.2" class="st0" width="17.1" height="17.1"/>
			<rect x="138" y="277.6" class="st0" width="17.1" height="17.1"/>
			<polygon class="st0" points="174.9,278.1 174.9,294.7 183.6,294.7 			"/>
			<rect x="64.7" y="277.6" class="st0" width="16.1" height="17.1"/>
			<polygon class="st0" points="173.7,275.8 164.8,259.2 156.6,259.2 156.6,276.3 173.7,276.3 			"/>
			<polygon class="st0" points="63.2,261.9 55.4,276.3 63.2,276.3 			"/>
			<rect x="156.6" y="277.6" class="st0" width="17.1" height="17.1"/>
		</g>
		<rect x="102.1" y="191.1" class="st0" width="14.7" height="14.7"/>
	</g>
	<g>
		<rect x="102.7" y="135.4" class="st1" width="13.4" height="13.4"/>
		<rect x="92.4" y="59.7" class="st2" width="13.4" height="13.4"/>
		<rect x="117.4" y="158" class="st2" width="10" height="10"/>
		<rect x="102.1" y="191.1" class="st3" width="14.7" height="14.7"/>
		<rect x="81.8" y="32.9" class="st1" width="9.8" height="9.8"/>
		<rect x="104.7" y="4.6" class="st3" width="7.9" height="7.9"/>
		<rect x="119.5" y="89.2" class="st3" width="13.4" height="13.4"/>
		<rect x="133.8" y="10.3" class="st1" width="7.8" height="7.8"/>
		<rect x="133.8" y="45.7" class="st1" width="13.4" height="13.4"/>
		<polygon class="st2" points="132.1,46.3 118.9,46.3 118.7,46.3 118.7,46 118.7,32.9 132.1,32.9 		"/>
		<g>
			<g>
				<defs>
					<polygon id="SVGID_1_" points="136.3,205.7 93.9,205.7 45.5,294.5 184.3,294.5 					"/>
				</defs>
				<clipPath id="SVGID_2_">
					<use xlink:href="#SVGID_1_"  style="overflow:visible;"/>
				</clipPath>
				<rect x="82.3" y="240.8" class="st4" width="17.1" height="17.1"/>
			</g>
			<g>
				<defs>
					<polygon id="SVGID_3_" points="136.3,205.7 93.9,205.7 45.5,294.5 184.3,294.5 					"/>
				</defs>
				<clipPath id="SVGID_4_">
					<use xlink:href="#SVGID_3_"  style="overflow:visible;"/>
				</clipPath>
				<rect x="82.3" y="222.4" class="st5" width="17.1" height="17.1"/>
			</g>
			<g>
				<defs>
					<polygon id="SVGID_5_" points="136.3,205.7 93.9,205.7 45.5,294.5 184.3,294.5 					"/>
				</defs>
				<clipPath id="SVGID_6_">
					<use xlink:href="#SVGID_5_"  style="overflow:visible;"/>
				</clipPath>
				<rect x="100.9" y="240.8" class="st6" width="17.1" height="17.1"/>
			</g>
			<g>
				<defs>
					<polygon id="SVGID_7_" points="136.3,205.7 93.9,205.7 45.5,294.5 184.3,294.5 					"/>
				</defs>
				<clipPath id="SVGID_8_">
					<use xlink:href="#SVGID_7_"  style="overflow:visible;"/>
				</clipPath>
				<rect x="119.5" y="240.8" class="st7" width="17.1" height="17.1"/>
			</g>
			<g>
				<defs>
					<polygon id="SVGID_9_" points="136.3,205.7 93.9,205.7 45.5,294.5 184.3,294.5 					"/>
				</defs>
				<clipPath id="SVGID_10_">
					<use xlink:href="#SVGID_9_"  style="overflow:visible;"/>
				</clipPath>
				<rect x="119.5" y="222.4" class="st8" width="17.1" height="17.1"/>
			</g>
			<g>
				<defs>
					<polygon id="SVGID_11_" points="136.3,205.7 93.9,205.7 45.5,294.5 184.3,294.5 					"/>
				</defs>
				<clipPath id="SVGID_12_">
					<use xlink:href="#SVGID_11_"  style="overflow:visible;"/>
				</clipPath>
				<rect x="82.3" y="259.2" class="st9" width="17.1" height="17.1"/>
			</g>
			<g>
				<defs>
					<polygon id="SVGID_13_" points="136.3,205.7 93.9,205.7 45.5,294.5 184.3,294.5 					"/>
				</defs>
				<clipPath id="SVGID_14_">
					<use xlink:href="#SVGID_13_"  style="overflow:visible;"/>
				</clipPath>
				<rect x="100.9" y="259.2" class="st10" width="17.1" height="17.1"/>
			</g>
			<g>
				<defs>
					<polygon id="SVGID_15_" points="136.3,205.7 93.9,205.7 45.5,294.5 184.3,294.5 					"/>
				</defs>
				<clipPath id="SVGID_16_">
					<use xlink:href="#SVGID_15_"  style="overflow:visible;"/>
				</clipPath>
				<rect x="119.5" y="259.2" class="st11" width="17.1" height="17.1"/>
			</g>
			<g>
				<defs>
					<polygon id="SVGID_17_" points="136.3,205.7 93.9,205.7 45.5,294.5 184.3,294.5 					"/>
				</defs>
				<clipPath id="SVGID_18_">
					<use xlink:href="#SVGID_17_"  style="overflow:visible;"/>
				</clipPath>
				<rect x="63.8" y="277.6" class="st12" width="17.1" height="17.1"/>
			</g>
			<g>
				<defs>
					<polygon id="SVGID_19_" points="136.3,205.7 93.9,205.7 45.5,294.5 184.3,294.5 					"/>
				</defs>
				<clipPath id="SVGID_20_">
					<use xlink:href="#SVGID_19_"  style="overflow:visible;"/>
				</clipPath>
				<rect x="45.2" y="277.6" class="st13" width="17.1" height="17.1"/>
			</g>
			<g>
				<defs>
					<polygon id="SVGID_21_" points="136.3,205.7 93.9,205.7 45.5,294.5 184.3,294.5 					"/>
				</defs>
				<clipPath id="SVGID_22_">
					<use xlink:href="#SVGID_21_"  style="overflow:visible;"/>
				</clipPath>
				<rect x="63.8" y="259.2" class="st14" width="17.1" height="17.1"/>
			</g>
			<g>
				<defs>
					<polygon id="SVGID_23_" points="136.3,205.7 93.9,205.7 45.5,294.5 184.3,294.5 					"/>
				</defs>
				<clipPath id="SVGID_24_">
					<use xlink:href="#SVGID_23_"  style="overflow:visible;"/>
				</clipPath>
				<rect x="63.8" y="240.9" class="st15" width="17.1" height="17.1"/>
			</g>
			<g>
				<defs>
					<polygon id="SVGID_25_" points="136.3,205.7 93.9,205.7 45.5,294.5 184.3,294.5 					"/>
				</defs>
				<clipPath id="SVGID_26_">
					<use xlink:href="#SVGID_25_"  style="overflow:visible;"/>
				</clipPath>
				<rect x="63.8" y="222.6" class="st16" width="17.1" height="17.1"/>
			</g>
			<g>
				<defs>
					<polygon id="SVGID_27_" points="136.3,205.7 93.9,205.7 45.5,294.5 184.3,294.5 					"/>
				</defs>
				<clipPath id="SVGID_28_">
					<use xlink:href="#SVGID_27_"  style="overflow:visible;"/>
				</clipPath>
				<rect x="45.2" y="259.2" class="st17" width="17.1" height="17.1"/>
			</g>
			<g>
				<defs>
					<polygon id="SVGID_29_" points="136.3,205.7 93.9,205.7 45.5,294.5 184.3,294.5 					"/>
				</defs>
				<clipPath id="SVGID_30_">
					<use xlink:href="#SVGID_29_"  style="overflow:visible;"/>
				</clipPath>
				<rect x="82.3" y="277.6" class="st18" width="17.1" height="17.1"/>
			</g>
			<g>
				<defs>
					<polygon id="SVGID_31_" points="136.3,205.7 93.9,205.7 45.5,294.5 184.3,294.5 					"/>
				</defs>
				<clipPath id="SVGID_32_">
					<use xlink:href="#SVGID_31_"  style="overflow:visible;"/>
				</clipPath>
				<rect x="100.9" y="277.6" class="st19" width="17.1" height="17.1"/>
			</g>
			<g>
				<defs>
					<polygon id="SVGID_33_" points="136.3,205.7 93.9,205.7 45.5,294.5 184.3,294.5 					"/>
				</defs>
				<clipPath id="SVGID_34_">
					<use xlink:href="#SVGID_33_"  style="overflow:visible;"/>
				</clipPath>
				<rect x="119.5" y="277.6" class="st20" width="17.1" height="17.1"/>
			</g>
			<g>
				<defs>
					<polygon id="SVGID_35_" points="136.3,205.7 93.9,205.7 45.5,294.5 184.3,294.5 					"/>
				</defs>
				<clipPath id="SVGID_36_">
					<use xlink:href="#SVGID_35_"  style="overflow:visible;"/>
				</clipPath>
				<rect x="174.8" y="277.6" class="st21" width="17.1" height="17.1"/>
			</g>
			<g>
				<defs>
					<polygon id="SVGID_37_" points="136.3,205.7 93.9,205.7 45.5,294.5 184.3,294.5 					"/>
				</defs>
				<clipPath id="SVGID_38_">
					<use xlink:href="#SVGID_37_"  style="overflow:visible;"/>
				</clipPath>
				<rect x="156.4" y="240.8" class="st22" width="17.1" height="17.1"/>
			</g>
			<g>
				<defs>
					<polygon id="SVGID_39_" points="136.3,205.7 93.9,205.7 45.5,294.5 184.3,294.5 					"/>
				</defs>
				<clipPath id="SVGID_40_">
					<use xlink:href="#SVGID_39_"  style="overflow:visible;"/>
				</clipPath>
				<rect x="156.4" y="277.6" class="st23" width="17.1" height="17.1"/>
			</g>
			<g>
				<defs>
					<polygon id="SVGID_41_" points="136.3,205.7 93.9,205.7 45.5,294.5 184.3,294.5 					"/>
				</defs>
				<clipPath id="SVGID_42_">
					<use xlink:href="#SVGID_41_"  style="overflow:visible;"/>
				</clipPath>
				<rect x="137.9" y="277.6" class="st24" width="17.1" height="17.1"/>
			</g>
			<g>
				<defs>
					<polygon id="SVGID_43_" points="136.3,205.7 93.9,205.7 45.5,294.5 184.3,294.5 					"/>
				</defs>
				<clipPath id="SVGID_44_">
					<use xlink:href="#SVGID_43_"  style="overflow:visible;"/>
				</clipPath>
				<rect x="137.9" y="259.2" class="st25" width="17.1" height="17.1"/>
			</g>
			<g>
				<defs>
					<polygon id="SVGID_45_" points="136.3,205.7 93.9,205.7 45.5,294.5 184.3,294.5 					"/>
				</defs>
				<clipPath id="SVGID_46_">
					<use xlink:href="#SVGID_45_"  style="overflow:visible;"/>
				</clipPath>
				<rect x="137.9" y="240.8" class="st26" width="17.1" height="17.1"/>
			</g>
			<g>
				<defs>
					<polygon id="SVGID_47_" points="136.3,205.7 93.9,205.7 45.5,294.5 184.3,294.5 					"/>
				</defs>
				<clipPath id="SVGID_48_">
					<use xlink:href="#SVGID_47_"  style="overflow:visible;"/>
				</clipPath>
				<rect x="137.9" y="222.4" class="st27" width="17.1" height="17.1"/>
			</g>
			<g>
				<defs>
					<polygon id="SVGID_49_" points="136.3,205.7 93.9,205.7 45.5,294.5 184.3,294.5 					"/>
				</defs>
				<clipPath id="SVGID_50_">
					<use xlink:href="#SVGID_49_"  style="overflow:visible;"/>
				</clipPath>
				<rect x="156.6" y="277.6" class="st28" width="17.1" height="17.1"/>
			</g>
			<g>
				<defs>
					<polygon id="SVGID_51_" points="136.3,205.7 93.9,205.7 45.5,294.5 184.3,294.5 					"/>
				</defs>
				<clipPath id="SVGID_52_">
					<use xlink:href="#SVGID_51_"  style="overflow:visible;"/>
				</clipPath>
				<rect x="156.6" y="259.2" class="st29" width="17.1" height="17.1"/>
			</g>
		</g>
		<polygon class="st3" points="18.6,320.4 209.6,320.4 219.1,304.1 8.9,304.1 		"/>
		<polygon class="st2" points="91.8,181.4 75.5,218.1 75.5,117.3 91.8,117.3 		"/>
		
			<linearGradient id="SVGID_53_" gradientUnits="userSpaceOnUse" x1="83.6" y1="134.6453" x2="83.6" y2="173.0546" gradientTransform="matrix(1 0 0 -1 0 326)">
			<stop  offset="0" style="stop-color:#000000"/>
			<stop  offset="1" style="stop-color:#000000;stop-opacity:0"/>
		</linearGradient>
		<polygon class="st30" points="91.8,181.4 75.5,218.1 75.5,117.3 91.8,117.3 		"/>
		<polygon class="st3" points="29.8,304.1 91.8,192.6 91.8,157.7 8.9,304.1 		"/>
		
			<linearGradient id="SVGID_54_" gradientUnits="userSpaceOnUse" x1="208.9914" y1="13.75" x2="162.3169" y2="13.75" gradientTransform="matrix(1 0 0 -1 0 326)">
			<stop  offset="0" style="stop-color:#000000"/>
			<stop  offset="1" style="stop-color:#000000;stop-opacity:0"/>
		</linearGradient>
		<polygon class="st31" points="18.6,320.4 209.6,320.4 219.1,304.1 8.9,304.1 		"/>
		<polygon class="st2" points="209.6,320.4 138.3,192.6 138.3,157.7 219.1,304.1 		"/>
		
			<linearGradient id="SVGID_55_" gradientUnits="userSpaceOnUse" x1="152.4379" y1="123.9067" x2="175.4723" y2="84.3348" gradientTransform="matrix(1 0 0 -1 0 326)">
			<stop  offset="0" style="stop-color:#000000"/>
			<stop  offset="1" style="stop-color:#000000;stop-opacity:0"/>
		</linearGradient>
		<polygon class="st32" points="209.6,320.4 138.3,192.6 138.3,157.7 219.1,304.1 		"/>
		<polygon class="st1" points="138.3,192.6 154.8,221.9 154.8,117.3 138.3,117.3 		"/>
		
			<linearGradient id="SVGID_56_" gradientUnits="userSpaceOnUse" x1="146.55" y1="207.2924" x2="146.55" y2="170.0787" gradientTransform="matrix(1 0 0 -1 0 326)">
			<stop  offset="0" style="stop-color:#000000"/>
			<stop  offset="1" style="stop-color:#000000;stop-opacity:0"/>
		</linearGradient>
		<polygon class="st33" points="138.3,192.6 154.8,221.9 154.8,117.3 138.3,117.3 		"/>
		<rect x="69.9" y="103.1" class="st1" width="90.3" height="16.3"/>
		
			<linearGradient id="SVGID_57_" gradientUnits="userSpaceOnUse" x1="19.1704" y1="22.5569" x2="46.9297" y2="70.988" gradientTransform="matrix(1 0 0 -1 0 326)">
			<stop  offset="0" style="stop-color:#000000"/>
			<stop  offset="1" style="stop-color:#000000;stop-opacity:0"/>
		</linearGradient>
		<polygon class="st34" points="29.8,304.1 91.8,192.6 91.8,157.7 8.9,304.1 		"/>
		
			<linearGradient id="SVGID_58_" gradientUnits="userSpaceOnUse" x1="69.85" y1="214.75" x2="160.15" y2="214.75" gradientTransform="matrix(1 0 0 -1 0 326)">
			<stop  offset="0" style="stop-color:#000000"/>
			<stop  offset="1" style="stop-color:#000000;stop-opacity:0"/>
		</linearGradient>
		<rect x="69.9" y="103.1" class="st35" width="90.3" height="16.3"/>
	</g>
</g>
</svg>
