<svg xmlns="http://www.w3.org/2000/svg" viewBox="0 0 409.31 169.3"><defs><style>.cls-1{fill:#520a32;}.cls-2{fill:#831332;}</style></defs><title>Asset 13</title><g id="Layer_2" data-name="Layer 2"><g id="Camada_1" data-name="Camada 1"><path class="cls-1" d="M104,145.14c-.22-1.54-7-36.14-7.56-39.36S96,88.89,97,81.94s0-21.35,0-21.35-4.86-38.28-5-41.6-4.2-4.61-7-4.79-6.58,3.07-8,4.42A10.51,10.51,0,0,1,71,21c-2,.18-2.67,1.14-3.91,3.26S65.62,38,65.18,44.4,58.6,72.25,57.61,76.64s-7.75,29-7.75,29l-1,.37s-2.63-7.39-4.68-12.21-12.43-24.35-14-27.06-3.14-9.57-3.66-10.23-4.53-.22-6.28-.73S16.52,52,15.49,51.45s-3,.15-4.16.66A18.81,18.81,0,0,0,5.7,57.37c-.88,1.69.65,4.32,1.31,5.93S8.33,74.19,8.62,78.58,7.16,95.76,5.91,101.83,4.27,124,4.42,126.55s2,10.52,2.76,11.91,2.46,8.6,2.65,9.73-.2,5.85-.2,7.37.27,2.13.64,2.15,1.06.44,1.38-2-.16-7.47-.49-10.32-2.69-8.83-3.51-11.08-.33-5.6-.33-6.53.28-2.08.82-2.08,1,1,1,2.47A47.29,47.29,0,0,0,11,137.79c.76,1.86,1.86,9.92,1.31,12.34a38.17,38.17,0,0,0-.38,10.47c.38,3,4.44,2.14,5.59,1.87S21.74,152,22.9,149s.71-12.83-.5-16.12-.66-11.63-.55-17,2.31-18.76,2.31-18.76c.55-.8,1.2-1.1,2-.66s.58,6.36.73,9.14a16.65,16.65,0,0,0,1.68,5.71c.07.22,8.12,18.2,9.36,20.91s2.3,5.26,4,4.93,2.88-2.26,3.72-2.19,3,3.62,4.54,4.5,3.18.84,6.1-.77,3.62-8.66,3.62-8.66,10.2-32.63,10.92-34.55S78.28,73.9,78.28,73.9,77,90.13,76.91,91.72s1.1,19.2,1.7,22.82S81,134.73,81.1,135.28s.6.92.71,1.37.26,2.47.64,2.47.31-.51.18-1.66.17-1.67.55-1.68.61,2.9.61,2.9,1.68,10.73,2.34,12.76,2.9,1.37,4.77,1.37,3.07,3,4.82,3.51,4.34-1.31,6.47-3.56S104.22,146.67,104,145.14Zm-94.47-24c-.4.69-.36,1.5-.87,1.61s-.66-1.06-.41-2.85.81-2.2.81-2.2c.62-.14.69.29.8.73A5.18,5.18,0,0,1,9.53,121.1Zm77.53,25.13c-.6-.22-3.24-13-3.68-16.61s.5-4.66.5-4.66c.88-.39.82.49.6,2s.44,4.22,1.18,7.57,2.39,10.09,2.39,11S87.66,146.45,87.06,146.23Z"/><path class="cls-1" d="M10,159.34s-.65,3.4,0,4.17,1.65,2.52,2.25,2.08.44-1.15-.27-2.47-1.37-3.18-1.15-3.78S10.5,158.46,10,159.34Z"/><path class="cls-1" d="M88.76,155.21c-.37.22-1.21.84-.71,1.46s1.59,1.79,2,1.1a1.58,1.58,0,0,0,0-1.87C89.56,155.43,89.17,155,88.76,155.21Z"/><path class="cls-1" d="M83.53,142.06s0,2.45,0,3.28-.11,1-.42.91-.49-.49-.48-1.06,0-2.89,0-2.89a.44.44,0,0,1,.46-.47C83.57,141.83,83.53,142.06,83.53,142.06Z"/><path class="cls-1" d="M193.23,69.73c-.06-1.15-1.59-15.79-3.13-21.44s-8.55-25.21-12.06-29S166.52,6.19,158.71,5s-14.09-.73-16.94,1.39-5.48,6.36-6.87,6.07-1-3.73-2.34-3.22S125.46,19.5,122,27s-8.92,20.4-9.22,28-.47,15.7-.8,17.84a141.42,141.42,0,0,0-.6,14.48c.22.77.82.6,1,2.41s.55,9,.11,9-.71,1.37-.77,2-.05,14.42-.05,14.42.05,1.37.6,1.37,1.32,0,1.21-.82.82-1,.93,0a47.73,47.73,0,0,0,3,9.59c1.26,2.36,3.51,7.13,4.22,7.41s2.58.49,2.14-1.48-2.8-4-2.74-5,2.91,1.94,3.67,3.08,1.81,2,1.81,3.17.39,3-.66,2.19-1.59-1.92-1.86-1.15a1.53,1.53,0,0,0,.16,1.59S130,145.19,138.77,148s22.81,4.72,29.61,1.76,14.48-10.09,16-13.05,2.58-6.06,3.46-6.24a4.32,4.32,0,0,0,2.74-2.76c.71-1.7,1.59-7.89,1.64-11.79s.39-21,.39-21-.71-9.93-1-12.45-.77-8.12-.55-8.88.88-1.65,1.05-1.1-.17,2.52.49,2.74S193.28,70.88,193.23,69.73ZM114,106.91c-.93.39-1.42,0-1.48-1.15s.06-1.86,0-2.69-.63-1,0-1,.71.5.93,1C113.42,103.07,114.92,106.53,114,106.91Zm.61-15.19c-.65,1.32-.22,6.53-.22,7.79s-.61,1.21-.82,1.21-.11-7,0-8.83.49-2.09.87-3.68,0-8,0-8a5,5,0,0,1,.39-2c.38-.61.76.33,1.48,1.31s.71,6.09.71,8.23S115.25,90.41,114.59,91.72Zm4.27,3.13c-.16,1.53-1.42,4.06-1.81,5.87s-.1,7.78,0,8.77.83,1.92.83,4.06-.22,2.47-.61,2.41-.49-2.74-.27-3.73-.55-1.48-.93-2.08-.22-8.61-.39-11,2.75-7.73,2.75-7.73C119.58,90.46,119,93.31,118.86,94.85Zm13.93-74.63c.72-1.54,1.32-3.46,1.81-3.46s1.32-.5,1.48.49c0,0-1.48,4.06-1.81,4.61s-.93,1.48-1.48,1.31S132.08,21.77,132.79,20.22Zm15.3,110.29c-2-.42-5.92-3.25-5.92-3.25-.33-1.54,2.91.22,4,1s5,2.47,5.34,3.18S150.07,130.93,148.09,130.51Zm11.47,2.73c-.17.54-1,.6-1.23.65s-1.24-.65-1.24-.65C158.07,133,159.72,132.69,159.56,133.24Zm6.58,1.86a10.77,10.77,0,0,1-1.92,0c-.39,0-1.26-.72-1.26-.72l.27-.16c3.18-.22,3.4-1,3.51-.32a1.8,1.8,0,0,1,0,.93S167,135,166.14,135.1Zm6.58-34.6a72.79,72.79,0,0,1-2,14.86c-1.59,6.2-7.13,11.68-9.16,12.78s-6.74,1.2-8.11,1.15-1.59-1.15-3.4-2.36-2,0-2.85,0-.83-.77-1.76-1.37-10.86-10.35-13.34-14.74-2.49-19.15-2.63-23.1,2.19-24.28,2.48-30.13,4.24-15.94,4.24-15.94a68.2,68.2,0,0,1,6.95-13.38c3.56-5.59,5.76-4.6,8.3-4.6s5.41,3.18,7.6,5.26,5.65,9.6,6.42,10.53,1.26-.11,2.36,0,1.26,2.8,1.92,4.28,1,8.88,1.31,10.14,0,18.05.17,20.35-.55,7.79-.55,8.61.16,3.56.6,3.51,1.1-4.66,1.1-5.49.49-1.26.93-.76S172.77,98.3,172.72,100.5Zm16.34,23.41c-.82,3.68-2.19,5.71-2.47,4.34s1.21-3.62,1.76-10.31,1.15-27.75,1.75-25C190.1,92.93,189.88,120.24,189.06,123.91Z"/><path class="cls-1" d="M170.61,89.29s-.4,5.7-.25,6.33.15,1.71.77,1.5.29-2.72.33-3.9a20.89,20.89,0,0,0-.11-3.93A.45.45,0,0,0,170.61,89.29Z"/><path class="cls-1" d="M188.78,132.29s.37,2.26,0,2.34-.87-.35-.87-1a1.63,1.63,0,0,1,.42-1.32A.42.42,0,0,1,188.78,132.29Z"/><path class="cls-1" d="M283.55,132.32c-.37-1.83-6.36-9.72-9.87-13.16s-6.51-9.94-8.78-13.31-10-11.33-11.4-12-6.07-5.41-6.07-5.41,8-4.75,11.18-6.65,10-11.7,10-11.7a12.05,12.05,0,0,1-1.39,4.24c-1.24,2.34-.95,2-.07,2.63s1.39-2.56,3.51-6.29S276,55,275.5,40.41,256.2,9.77,245.12,6.92s-25-2.12-32.61-2-8.92,2.56-9.8,3.8-.58,5.12-.36,6.18,1.42,1.14,1.68,2.2-1.28.4-1.21,1.5,1.61.58,2.56.62,9-.19,10.53-.19,1,.26,1,1-4.68.09-5,0a3.58,3.58,0,0,0-2.31.62c-.51.55-.47,6.47-.43,7.86s-.37,1.72-.77,1.47-.4-2.78-.59-3.66-.84-5.48-1.38-6-.56.11-.77.62.65,2.49.77,2.85.18,7.46.18,7.46,0,10.81-.18,11.15-.48.11-.48.11c-.44-.51-.22-13.53-.37-15a31.13,31.13,0,0,0-.66-4.31c-.22-.66-.36-2.27-.8-2.27s.07,6.36.29,6.87a28.07,28.07,0,0,1,.45,3.59l.36,27.05a25.75,25.75,0,0,0,1.9,1.83c.51.37-.15,2.22-.15,2.22l-1,.78a3.65,3.65,0,0,0-.85-.73c-.49-.3-.32,1,0,1.68a1.82,1.82,0,0,0,1.26.8s.4,3.51.4,5.93-.52,12.28-.88,15-.15,18.8-.15,18.8a11.27,11.27,0,0,0,.63-1.61,4.13,4.13,0,0,1,1.35-1.68s.14,3.51.14,4.09a39.78,39.78,0,0,1-1.49,6.51c-.39.66-.77,17.55-1.1,19.41s-.22,4,1.1,8.56,3.5,10.52,4.6,11.26,2.85-1.83,4.06-3.37,4.28-1.2,5.7-1.64,2.85-3.4,4.5-4.28,3,.44,4.06-1.32,1-13.38.87-20.62-.87-25.55-.87-25.55c16.81,16.3,19.74,22.08,22.3,27.78a33.06,33.06,0,0,0,8.92,12.36c3.73,3.29,8,5.7,10.38,8s4.9,3.88,7.53,4,2.85-2.56,3.37-4.09-.59-4.46-.88-5.49.07-1.53,1.53-1.38S283.91,134.15,283.55,132.32ZM209.46,10.56c-1,.11-2.36.33-3-.77s3.83-1,3.83-1C211.38,9.63,210.5,10.45,209.46,10.56Zm-2,85V83.94s.32-1,1.7-.46a30.58,30.58,0,0,0-1,4.82c-.07,1.54.37,9.66,0,9.66S207.49,97.75,207.49,95.56Zm1.7,35.3c-.15,2.63,0,8.12-.85,8s-.54-6.14-.85-8.32.85-17.64.85-17.64c.75-1.09.85,0,.85,0S209.33,128.23,209.19,130.86Zm16.39-42c-.05,1.65-.71.55-2,0s0-6.52,0-6.52a1.46,1.46,0,0,1,2,.27C226,83.06,225.64,87.23,225.58,88.87Zm1.15-15.74s-.11,3-.76,4-.66.55-1.09,1-1.66,1-1.44-.25a4.37,4.37,0,0,1,1.44-2.19s-.12-7.34,0-11.62S223.66,51,223.11,47.47s.33-4.61.77-4.72,0-19.56,0-19.56c5.16-1.4,11.46.64,17.93,3.88s10.75,10.58,13,14.86,1.43,8.94,0,13.43-11.95,12.51-17.44,15A31.6,31.6,0,0,1,226.73,73.13Zm51,59.72c-.38.77-2.52-.44-3.73-1.81s-7.56-10.09-7.56-10.64-.33-.87.49-.65c0,0,8.23,9.59,8.72,9.92S278.12,132.08,277.73,132.85Z"/><path class="cls-1" d="M264.79,78.09s-3.14,3.82-3.62,4.22-1,1.53-.55,1.83,1.25-.48,2.27-1.54a30.89,30.89,0,0,0,3.25-4.24C266.14,78.14,265.93,77.08,264.79,78.09Z"/><path class="cls-1" d="M364.49,138.17c-2.52-4.39-16.56-23.14-19-25.22s-6.15-8.78-7-10.53-7.79-13.93-7.79-13.93a26.14,26.14,0,0,0,7.46-1.76A54.19,54.19,0,0,0,354.4,76c4-4.16,6.91-12.17,6.14-32.35s-17.47-28-27.86-29.83-18.06.87-21.71,1.53-7.53-1.75-11.12-2-4.17,1.46-5.26,3.95.36,10.45.36,11.91-1.31,1-1.53,1.76.88,12.87,1.17,14.62-1.39,11.19-1.54,12.14-1.61,15.79-2.48,18.79.14,23.69.58,29,3.07,32.76,3.58,37.07,2.27,5.05,3.29,4.24,1-4.82,2.05-5.55,1.39.87,2.41,2,1.25,5.27,1.32,8.07,1.9,2.68,3.8,2.9,3.07-3.73,3.66-6.43.66-22.82.66-25.16-.66-24.27-.66-24.27c2.7.44,7.16,10.86,10.67,18s11.52,15,13.93,17.43,9.33,10.09,10.75,14.37,6.69,8.78,8.78,9.43,3.07-1.42,3.62-2.85,2.74-.55,6.47.33,4.6-1.2,4.93-3.74S367,142.56,364.49,138.17Zm-66.83-91.1c-.29,2.33-3.15,25.44-3.15,26.39s.15,5-1.09,5.14-1.24-2.51-.95-4.55,3.14-24.35,3.29-26a61.89,61.89,0,0,0-.29-7.24c-.15-1.61-.88-5.34.87-4.24C296.34,36.54,298,44.73,297.66,47.07Zm15.61,24.42c.33-1.76,1.75-17.11,1.86-18.76s0-17.86,0-18.82c-.88,0,0,0,0,0v0c.71,0,2.53,0,6.8,0,9.66-.11,18,8,20.08,11.84s1.75,9.11-1,15.36-12.29,8.66-17.55,9.76A39.13,39.13,0,0,1,313.27,71.49Z"/><path class="cls-1" d="M295.89,151.43a4.29,4.29,0,0,0-1.27,3.08c0,2,.28,4.06.94,4.17s2.3.55,2.25-1.75S297.91,151.58,295.89,151.43Z"/><path class="cls-1" d="M290.86,27.07s.29,3.69.69,3.54.55-.47.55-.95.29-2.74-.18-2.85S291.11,26.45,290.86,27.07Z"/><path class="cls-1" d="M378.53,29.44s-.51,6.29,0,6.07.8-1.83,1.1-2.41a4.83,4.83,0,0,0,.65-2.71C380.06,29.59,380.06,29.15,378.53,29.44Z"/><path class="cls-1" d="M408.21,76.75C407.63,73,406.09,53.13,405.8,52s-2.78-9-6.07-11.11-10.89-7-13.45-7a5.63,5.63,0,0,0-5,2.59c-1,1.47-2.92,1.68-3.65,2a3,3,0,0,0-1.1,1.54s-.73,12.61,0,17.42.08,14.31-.32,17.53.18,21.35.32,23.83.29,6.51.81,6,.8-4.9,1.38-4.46.66,11.48.66,11.48.73,15.72,1.1,19.89,1.61,7.45,2,13.89a63.06,63.06,0,0,1,0,9.65,8,8,0,0,0,3.29,3.15c2.42,1.31,7.68,2.12,9.44,3.87s6.58,7.6,7.45,6.95,2.05-5.56,2.12-10.31,1.1-17.11,1.1-17.11,1.17,3.21,1.46.14.81-12.5,0-11.91-1.09-.88-1.17-2.71-.14-17,.37-16.23.29,7.24.73,9,1.17,3.44,1.46,1.9.66-20.84.66-20.84S408.8,80.48,408.21,76.75Zm-28,19.52a7.09,7.09,0,0,1-.5,2.31c-.38.6-1.31-.39-1.42-.77s-.49-16.51-.49-16.51c1.09-1.64,2.41.88,2.41.88Zm26.43,9.44c-.22-.17-.27-14.92-.27-14.92,0-.44.87.38.87.38s.06,11.74.22,13S406.88,105.87,406.66,105.71Z"/><path class="cls-2" d="M99.62,140.75c-.22-1.54-7.06-36.14-7.57-39.36s-.44-16.89.51-23.83,0-21.35,0-21.35-4.86-38.28-5-41.61-4.21-4.61-7-4.79-6.58,3.07-8,4.42a10.44,10.44,0,0,1-5.92,2.34c-2,.19-2.67,1.14-3.91,3.26S61.23,33.65,60.79,40s-6.58,27.86-7.57,32.24-7.75,29-7.75,29l-.95.36s-2.63-7.38-4.68-12.21-12.43-24.35-14-27.05-3.14-9.58-3.65-10.24-4.54-.22-6.29-.73-3.73-3.73-4.75-4.31-3,.14-4.17.65A19.11,19.11,0,0,0,1.31,53C.43,54.67,2,57.3,2.62,58.91s1.32,10.9,1.61,15.28S2.77,91.38,1.53,97.44-.12,119.64,0,122.16s2,10.53,2.76,11.92,2.47,8.59,2.65,9.72-.2,5.85-.2,7.37.27,2.14.64,2.16,1.06.43,1.39-2-.17-7.48-.5-10.33-2.68-8.83-3.51-11.08-.32-5.59-.32-6.53.27-2.08.82-2.08,1,1,1,2.47a47.16,47.16,0,0,0,1.87,9.65c.77,1.86,1.86,9.93,1.32,12.34a38.56,38.56,0,0,0-.39,10.47c.39,3,4.44,2.14,5.6,1.87s4.22-10.48,5.37-13.44.71-12.83-.49-16.12-.66-11.63-.55-17,2.3-18.76,2.3-18.76c.55-.8,1.21-1.09,2-.65s.59,6.36.73,9.14a16.65,16.65,0,0,0,1.68,5.7c.08.22,8.12,18.21,9.36,20.91s2.31,5.27,4,4.94,2.89-2.27,3.73-2.2,3,3.62,4.53,4.5,3.18.84,6.11-.77,3.62-8.66,3.62-8.66S65.73,93,66.44,91.12,73.9,69.51,73.9,69.51s-1.26,16.24-1.37,17.83,1.09,19.19,1.7,22.81,2.41,20.2,2.48,20.75.61.91.71,1.37.26,2.46.64,2.46.32-.51.19-1.66.16-1.66.55-1.68.6,2.91.6,2.91,1.68,10.73,2.34,12.76,2.91,1.37,4.77,1.37,3.07,3,4.83,3.51,4.33-1.32,6.47-3.57S99.84,142.28,99.62,140.75Zm-94.47-24c-.41.7-.37,1.5-.88,1.61s-.66-1.06-.4-2.85.8-2.2.8-2.2c.62-.14.7.3.81.74A5.25,5.25,0,0,1,5.15,116.71Zm77.52,25.14c-.6-.22-3.23-13.06-3.67-16.62s.49-4.66.49-4.66c.88-.39.82.49.6,2s.44,4.22,1.18,7.57,2.39,10.09,2.39,11S83.27,142.06,82.67,141.85Z"/><path class="cls-2" d="M5.57,155s-.66,3.4,0,4.17,1.64,2.52,2.25,2.08.43-1.15-.28-2.46S6.17,155.56,6.39,155,6.12,154.07,5.57,155Z"/><path class="cls-2" d="M84.37,150.82c-.36.22-1.21.84-.71,1.46s1.59,1.79,2,1.1a1.57,1.57,0,0,0,0-1.86C85.18,151,84.79,150.56,84.37,150.82Z"/><path class="cls-2" d="M79.14,137.68s0,2.45,0,3.27-.11,1-.42.91-.49-.49-.47-1.06,0-2.88,0-2.88a.44.44,0,0,1,.45-.48C79.18,137.44,79.14,137.68,79.14,137.68Z"/><path class="cls-2" d="M188.84,65.34c-.06-1.15-1.59-15.79-3.13-21.44s-8.55-25.2-12.06-29S162.13,1.8,154.33.63s-14.1-.73-17,1.39-5.48,6.37-6.87,6.07-.95-3.73-2.34-3.21-7.09,10.23-10.53,17.69-8.92,20.4-9.21,28-.48,15.71-.81,17.85a141.24,141.24,0,0,0-.6,14.47c.22.77.82.61,1,2.42s.55,9,.11,9-.71,1.38-.77,2-.05,14.42-.05,14.42.05,1.37.6,1.37,1.32.06,1.21-.82.82-1,.93,0a47.79,47.79,0,0,0,3,9.6c1.26,2.36,3.51,7.13,4.22,7.4s2.58.49,2.14-1.48-2.79-4-2.74-5,2.91,1.94,3.68,3.08,1.81,2,1.81,3.17.38,3-.66,2.19-1.59-1.91-1.87-1.15a1.51,1.51,0,0,0,.17,1.59s5.81,10.09,14.58,12.95,22.82,4.71,29.62,1.75,14.48-10.09,16-13,2.57-6.06,3.45-6.24a4.32,4.32,0,0,0,2.74-2.76c.72-1.7,1.59-7.89,1.65-11.79s.38-21,.38-21-.71-9.92-1-12.45-.76-8.11-.54-8.88.87-1.65,1-1.1-.17,2.52.49,2.74S188.89,66.5,188.84,65.34ZM109.6,102.53c-.94.38-1.43-.06-1.48-1.16s0-1.86,0-2.68-.64-1,0-1,.71.49.93,1C109,98.69,110.53,102.14,109.6,102.53Zm.61-15.19c-.66,1.31-.23,6.52-.23,7.78s-.6,1.21-.82,1.21-.11-7,0-8.83.49-2.08.88-3.67,0-8,0-8a5.15,5.15,0,0,1,.38-2c.38-.6.77.33,1.48,1.32s.71,6.08.71,8.22S110.86,86,110.21,87.34Zm4.27,3.12c-.17,1.54-1.43,4.06-1.82,5.87s-.1,7.79,0,8.77.83,1.92.83,4.06-.22,2.47-.6,2.41-.5-2.74-.28-3.72-.55-1.49-.93-2.09-.22-8.61-.38-11S114,87.06,114,87.06C115.19,86.07,114.64,88.93,114.48,90.46Zm13.93-74.63c.71-1.54,1.31-3.46,1.81-3.46s1.31-.49,1.48.49c0,0-1.48,4.06-1.81,4.61S129,19,128.41,18.79,127.69,17.38,128.41,15.83Zm15.3,110.29c-2-.42-5.93-3.25-5.93-3.25-.32-1.53,2.91.22,3.95,1s5,2.47,5.34,3.18S145.68,126.55,143.71,126.12Zm11.46,2.73c-.17.55-1,.6-1.23.66s-1.24-.66-1.24-.66C153.69,128.63,155.33,128.3,155.17,128.85Zm6.58,1.86a10.77,10.77,0,0,1-1.92,0c-.38,0-1.26-.72-1.26-.72l.27-.15c3.18-.22,3.4-1,3.51-.33a1.8,1.8,0,0,1,0,.93S162.63,130.6,161.75,130.71Zm6.58-34.6a71.86,71.86,0,0,1-2,14.86c-1.59,6.2-7.13,11.68-9.16,12.78s-6.75,1.21-8.12,1.15-1.59-1.15-3.4-2.36-2,.06-2.85,0-.82-.77-1.76-1.37-10.85-10.35-13.34-14.73-2.49-19.16-2.63-23.11,2.19-24.27,2.48-30.12,4.25-15.94,4.25-15.94a67.51,67.51,0,0,1,6.94-13.38c3.57-5.6,5.76-4.61,8.3-4.61s5.41,3.18,7.6,5.26,5.65,9.6,6.42,10.53,1.26-.11,2.36,0,1.26,2.8,1.92,4.28,1,8.89,1.31,10.15-.05,18,.17,20.34-.55,7.79-.55,8.61.17,3.57.6,3.51,1.1-4.66,1.1-5.48.49-1.26.93-.77S168.38,93.92,168.33,96.11Zm16.34,23.42c-.82,3.67-2.19,5.7-2.47,4.33s1.21-3.62,1.76-10.31,1.15-27.75,1.75-25C185.71,88.54,185.49,115.85,184.67,119.53Z"/><path class="cls-2" d="M166.23,84.9s-.4,5.71-.26,6.33.15,1.72.77,1.5.29-2.72.33-3.9A20.13,20.13,0,0,0,167,84.9.45.45,0,0,0,166.23,84.9Z"/><path class="cls-2" d="M184.4,127.9s.36,2.26,0,2.34-.88-.35-.88-1a1.7,1.7,0,0,1,.42-1.33A.44.44,0,0,1,184.4,127.9Z"/><path class="cls-2" d="M279.16,127.93c-.37-1.82-6.36-9.72-9.87-13.16s-6.51-9.94-8.78-13.3-10-11.34-11.4-12S243,84.06,243,84.06s8-4.75,11.19-6.65,10-11.7,10-11.7A11.8,11.8,0,0,1,262.85,70c-1.24,2.34-1,2-.07,2.63s1.39-2.56,3.51-6.28,5.34-15.65,4.83-30.28S251.81,5.39,240.74,2.54s-25-2.12-32.62-2-8.92,2.55-9.79,3.8-.59,5.12-.37,6.18,1.43,1.13,1.68,2.19-1.28.4-1.2,1.5,1.61.58,2.56.62,9-.18,10.52-.18,1,.25,1,1-4.68.09-5,0a3.57,3.57,0,0,0-2.3.63c-.52.54-.48,6.47-.44,7.86s-.37,1.71-.77,1.46-.4-2.78-.58-3.66-.85-5.48-1.39-6-.55.11-.77.62.66,2.49.77,2.86.18,7.45.18,7.45-.05,10.81-.18,11.16-.48.1-.48.1c-.44-.51-.22-13.52-.36-15a32.66,32.66,0,0,0-.66-4.32c-.22-.66-.37-2.27-.81-2.27s.08,6.37.3,6.88A29.64,29.64,0,0,1,200.5,27l.35,27.05a23.81,23.81,0,0,0,1.9,1.83c.51.37-.15,2.23-.15,2.23l-.95.77a3.65,3.65,0,0,0-.85-.73c-.48-.29-.32,1,0,1.68a1.85,1.85,0,0,0,1.26.81s.4,3.5.4,5.92-.51,12.28-.88,15-.15,18.79-.15,18.79a10.71,10.71,0,0,0,.63-1.61,4.22,4.22,0,0,1,1.35-1.68s.14,3.51.14,4.09a39.78,39.78,0,0,1-1.49,6.51c-.39.66-.77,17.55-1.1,19.41s-.22,3.95,1.1,8.56,3.51,10.53,4.6,11.26,2.85-1.83,4.06-3.36,4.28-1.21,5.7-1.65,2.86-3.4,4.5-4.28,3,.44,4.06-1.31,1-13.38.88-20.62S225,90.13,225,90.13c16.82,16.31,19.74,22.08,22.3,27.79a33.1,33.1,0,0,0,8.92,12.35c3.73,3.29,8,5.71,10.38,8s4.9,3.88,7.53,4,2.86-2.56,3.37-4.1-.59-4.46-.88-5.48.07-1.54,1.54-1.39S279.53,129.76,279.16,127.93ZM205.07,6.17c-1,.11-2.36.33-3-.76s3.83-1,3.83-1C207,5.24,206.11,6.06,205.07,6.17Zm-2,85V79.55s.33-1,1.7-.46a31.73,31.73,0,0,0-1,4.83c-.07,1.53.37,9.65,0,9.65S203.1,93.37,203.1,91.17Zm1.7,35.3c-.15,2.63,0,8.12-.85,8s-.54-6.14-.85-8.32.85-17.63.85-17.63c.76-1.1.85,0,.85,0S204.94,123.84,204.8,126.47Zm16.39-42c-.05,1.65-.71.55-2,0s0-6.52,0-6.52a1.46,1.46,0,0,1,2,.27C221.63,78.67,221.25,82.84,221.19,84.48Zm1.16-15.74s-.11,3-.77,4-.66.55-1.09,1-1.65,1-1.43-.24a4.33,4.33,0,0,1,1.43-2.19s-.12-7.35,0-11.63-1.2-13-1.75-16.56.33-4.61.76-4.72,0-19.55,0-19.55c5.16-1.41,11.47.63,17.94,3.87s10.75,10.58,13,14.86,1.43,8.94,0,13.44S238.47,63.48,233,66A31.37,31.37,0,0,1,222.35,68.74Zm51,59.72c-.39.77-2.53-.43-3.73-1.8s-7.57-10.1-7.57-10.64-.33-.88.49-.66c0,0,8.23,9.6,8.72,9.92S273.73,127.7,273.35,128.46Z"/><path class="cls-2" d="M260.4,73.7s-3.14,3.82-3.61,4.22-1,1.54-.55,1.83,1.24-.48,2.26-1.54A30.34,30.34,0,0,0,261.76,74C261.76,73.75,261.54,72.7,260.4,73.7Z"/><path class="cls-2" d="M360.1,133.78c-2.52-4.38-16.56-23.14-19-25.22s-6.14-8.78-7-10.53-7.79-13.93-7.79-13.93a26.29,26.29,0,0,0,7.46-1.75A54.44,54.44,0,0,0,350,71.6c3.95-4.17,6.91-12.18,6.14-32.36s-17.47-28-27.85-29.83-18.06.88-21.72,1.53-7.53-1.75-11.11-2-4.17,1.46-5.27,3.95.37,10.45.37,11.92-1.32,1-1.54,1.75.88,12.87,1.17,14.63-1.39,11.18-1.53,12.13-1.61,15.8-2.49,18.79.15,23.7.58,29,3.08,32.76,3.59,37.07,2.26,5,3.29,4.25,1-4.83,2-5.56,1.39.88,2.42,2,1.24,5.26,1.31,8.06,1.9,2.68,3.81,2.9,3.07-3.73,3.65-6.43.66-22.81.66-25.15-.66-24.28-.66-24.28c2.71.44,7.17,10.86,10.68,18s11.51,15,13.93,17.44,9.32,10.09,10.74,14.36,6.7,8.78,8.78,9.44,3.07-1.43,3.62-2.85,2.74-.55,6.47.32,4.61-1.2,4.94-3.74S362.63,138.17,360.1,133.78Zm-66.83-91.1c-.29,2.34-3.14,25.44-3.14,26.39s.14,5-1.1,5.14-1.24-2.5-.95-4.55,3.14-24.35,3.29-26a59.87,59.87,0,0,0-.29-7.24c-.15-1.61-.88-5.34.88-4.24C292,32.15,293.56,40.34,293.27,42.68ZM308.88,67.1c.33-1.76,1.76-17.11,1.87-18.76s0-17.86,0-18.81c-.88,0,0-.05,0-.05v.05c.7,0,2.52,0,6.8-.05,9.65-.11,18,8,20.07,11.85s1.75,9.1-1,15.35-12.28,8.66-17.55,9.76A39.13,39.13,0,0,1,308.88,67.1Z"/><path class="cls-2" d="M291.5,147a4.32,4.32,0,0,0-1.26,3.09c0,2,.27,4.05.93,4.16s2.3.55,2.25-1.75S293.53,147.19,291.5,147Z"/><path class="cls-2" d="M286.47,22.68s.29,3.69.7,3.55a.88.88,0,0,0,.54-.95c0-.48.3-2.75-.18-2.86S286.73,22.06,286.47,22.68Z"/><path class="cls-2" d="M374.14,25.06s-.51,6.28,0,6.07.81-1.83,1.1-2.42a4.8,4.8,0,0,0,.66-2.7C375.68,25.2,375.68,24.76,374.14,25.06Z"/><path class="cls-2" d="M403.83,72.36c-.59-3.72-2.12-23.61-2.42-24.78s-2.77-9-6.06-11.12-10.9-6.95-13.46-7a5.58,5.58,0,0,0-5,2.6c-1,1.46-2.93,1.68-3.66,2a3,3,0,0,0-1.1,1.54s-.73,12.62,0,17.42.09,14.31-.32,17.53S372,92,372.1,94.45s.29,6.5.8,6,.8-4.9,1.39-4.46.66,11.48.66,11.48.73,15.72,1.09,19.89,1.61,7.46,2,13.89a64.74,64.74,0,0,1,0,9.65,8,8,0,0,0,3.29,3.15c2.41,1.31,7.67,2.12,9.43,3.87s6.58,7.61,7.46,7,2-5.56,2.12-10.31,1.09-17.11,1.09-17.11,1.17,3.22,1.47.15.8-12.51,0-11.92-1.1-.88-1.17-2.71-.15-17,.36-16.23.3,7.24.73,9,1.17,3.44,1.47,1.9.65-20.83.65-20.83S404.41,76.09,403.83,72.36Zm-28,19.53a7.19,7.19,0,0,1-.49,2.3c-.39.6-1.32-.38-1.43-.77s-.49-16.5-.49-16.5c1.1-1.65,2.41.87,2.41.87Zm26.43,9.43c-.22-.17-.27-14.92-.27-14.92,0-.44.88.39.88.39s.05,11.73.22,12.94S402.49,101.48,402.27,101.32Z"/></g></g></svg>