<?xml version="1.0" encoding="utf-8"?>
<!-- Generator: Adobe Illustrator 23.0.1, SVG Export Plug-In . SVG Version: 6.00 Build 0)  -->
<svg version="1.1" id="Layer_1" xmlns="http://www.w3.org/2000/svg" xmlns:xlink="http://www.w3.org/1999/xlink" x="0px" y="0px"
	 viewBox="0 0 409.3 169.3" style="enable-background:new 0 0 409.3 169.3;" xml:space="preserve">
<style type="text/css">
	.st0{fill:#FFFFFF;}
</style>
<title>Asset 13</title>
<path class="st0" d="M83.5,142.1c0,0,0,2.4,0,3.3s-0.1,1-0.4,0.9s-0.5-0.5-0.5-1.1s0-2.9,0-2.9c0-0.2,0.2-0.5,0.4-0.5c0,0,0,0,0.1,0
	C83.6,141.8,83.5,142.1,83.5,142.1z"/>
<path class="st0" d="M170.6,89.3c0,0-0.4,5.7-0.3,6.3s0.1,1.7,0.8,1.5s0.3-2.7,0.3-3.9c0.1-1.3,0.1-2.6-0.1-3.9
	c-0.1-0.2-0.4-0.3-0.6-0.1C170.7,89.2,170.6,89.2,170.6,89.3z"/>
<path class="st0" d="M188.8,132.3c0,0,0.4,2.3,0,2.3s-0.9-0.4-0.9-1c-0.1-0.5,0.1-1,0.4-1.3C188.5,132.2,188.6,132.2,188.8,132.3z"
	/>
<path class="st0" d="M264.8,78.1c0,0-3.1,3.8-3.6,4.2s-1,1.5-0.5,1.8s1.3-0.5,2.3-1.5c1.2-1.3,2.3-2.7,3.3-4.2
	C266.1,78.1,265.9,77.1,264.8,78.1z"/>
<path class="st0" d="M290.9,27.1c0,0,0.3,3.7,0.7,3.5s0.5-0.5,0.5-1s0.3-2.7-0.2-2.9S291.1,26.5,290.9,27.1z"/>
<path class="st0" d="M378.5,29.4c0,0-0.5,6.3,0,6.1s0.8-1.8,1.1-2.4c0.5-0.8,0.7-1.8,0.6-2.7C380.1,29.6,380.1,29.1,378.5,29.4z"/>
<path class="st0" d="M99.6,140.8c-0.2-1.5-7.1-36.1-7.6-39.4s-0.4-16.9,0.5-23.8s0-21.3,0-21.3s-4.9-38.3-5-41.6s-4.2-4.6-7-4.8
	s-6.6,3.1-8,4.4c-1.7,1.4-3.8,2.2-5.9,2.3c-2,0.2-2.7,1.1-3.9,3.3S61.2,33.7,60.8,40s-6.6,27.9-7.6,32.2s-7.8,29-7.8,29l-1,0.4
	c0,0-2.6-7.4-4.7-12.2s-12.4-24.3-14-27s-3.1-9.6-3.6-10.2s-4.5-0.2-6.3-0.7s-3.7-3.7-4.8-4.3s-3,0.1-4.2,0.7
	c-2.2,1.4-4.2,3.2-5.7,5.3c-0.9,1.7,0.7,4.3,1.3,5.9s1.3,10.9,1.6,15.3S2.8,91.4,1.5,97.4s-1.6,22.2-1.5,24.7s2,10.5,2.8,11.9
	s2.5,8.6,2.6,9.7s-0.2,5.9-0.2,7.4s0.3,2.1,0.6,2.2s1.1,0.4,1.4-2s-0.2-7.5-0.5-10.3s-2.7-8.8-3.5-11.1s-0.3-5.6-0.3-6.5
	s0.3-2.1,0.8-2.1s1,1,1,2.5c0.3,3.3,0.9,6.5,1.9,9.6c0.8,1.9,1.9,9.9,1.3,12.3c-0.6,3.5-0.7,7-0.4,10.5c0.4,3,4.4,2.1,5.6,1.9
	s4.2-10.5,5.4-13.4s0.7-12.8-0.5-16.1s-0.7-11.6-0.5-17s2.3-18.8,2.3-18.8c0.5-0.8,1.2-1.1,2-0.7s0.6,6.4,0.7,9.1
	c0.2,2,0.8,3.9,1.7,5.7c0.1,0.2,8.1,18.2,9.4,20.9c1.2,2.7,2.3,5.3,4,4.9s2.9-2.3,3.7-2.2s3,3.6,4.5,4.5s3.2,0.8,6.1-0.8
	s3.6-8.7,3.6-8.7S65.7,93,66.4,91.1s7.5-21.6,7.5-21.6s-1.3,16.2-1.4,17.8s1.1,19.2,1.7,22.8s2.4,20.2,2.5,20.7s0.6,0.9,0.7,1.4
	s0.3,2.5,0.6,2.5s0.3-0.5,0.2-1.7s0.2-1.7,0.6-1.7s0.6,2.9,0.6,2.9s1.7,10.7,2.3,12.8s2.9,1.4,4.8,1.4s3.1,3,4.8,3.5
	s4.3-1.3,6.5-3.6S99.8,142.3,99.6,140.8z M5.2,116.8c-0.4,0.7-0.4,1.5-0.9,1.6s-0.7-1.1-0.4-2.8s0.8-2.2,0.8-2.2
	c0.6-0.1,0.7,0.3,0.8,0.7C5.6,115,5.5,115.9,5.2,116.8L5.2,116.8z M82.7,141.9c-0.6-0.2-3.2-13.1-3.7-16.6s0.5-4.7,0.5-4.7
	c0.9-0.4,0.8,0.5,0.6,2s0.4,4.2,1.2,7.6s2.4,10.1,2.4,11S83.3,142.1,82.7,141.9L82.7,141.9z"/>
<path class="st0" d="M5.6,155c0,0-0.7,3.4,0,4.2s1.6,2.5,2.3,2.1s0.4-1.1-0.3-2.5s-1.4-3.2-1.2-3.8S6.1,154.1,5.6,155z"/>
<path class="st0" d="M84.4,150.8c-0.4,0.2-1.2,0.8-0.7,1.5s1.6,1.8,2,1.1c0.4-0.6,0.4-1.3,0-1.9C85.2,151,84.8,150.6,84.4,150.8z"/>
<path class="st0" d="M79.1,137.7c0,0,0,2.4,0,3.3s-0.1,1-0.4,0.9s-0.5-0.5-0.5-1.1s0-2.9,0-2.9c0-0.2,0.2-0.5,0.4-0.5c0,0,0,0,0.1,0
	C79.2,137.4,79.1,137.7,79.1,137.7z"/>
<path class="st0" d="M188.8,65.3c-0.1-1.2-1.6-15.8-3.1-21.4s-8.6-25.2-12.1-29S162.1,1.8,154.3,0.6s-14.1-0.7-17,1.4
	s-5.5,6.4-6.9,6.1s-0.9-3.7-2.3-3.2s-7.1,10.2-10.5,17.7s-8.9,20.4-9.2,28s-0.5,15.7-0.8,17.8c-0.4,4.8-0.6,9.6-0.6,14.5
	c0.2,0.8,0.8,0.6,1,2.4s0.6,9,0.1,9s-0.7,1.4-0.8,2s-0.1,14.4-0.1,14.4s0.1,1.4,0.6,1.4s1.3,0.1,1.2-0.8s0.8-1,0.9,0
	c0.7,3.3,1.7,6.5,3,9.6c1.3,2.4,3.5,7.1,4.2,7.4s2.6,0.5,2.1-1.5s-2.8-4-2.7-5s2.9,1.9,3.7,3.1s1.8,2,1.8,3.2c0,1.2,0.4,3-0.7,2.2
	s-1.6-1.9-1.9-1.1c-0.3,0.5-0.2,1.1,0.2,1.6c0,0,5.8,10.1,14.6,12.9s22.8,4.7,29.6,1.8s14.5-10.1,16-13s2.6-6.1,3.4-6.2
	c1.3-0.4,2.3-1.5,2.7-2.8c0.7-1.7,1.6-7.9,1.6-11.8s0.4-21,0.4-21s-0.7-9.9-1-12.4s-0.8-8.1-0.5-8.9s0.9-1.7,1-1.1s-0.2,2.5,0.5,2.7
	S188.9,66.5,188.8,65.3z M109.6,102.5c-0.9,0.4-1.4-0.1-1.5-1.2s0-1.9,0-2.7s-0.6-1,0-1s0.7,0.5,0.9,1
	C109,98.7,110.5,102.1,109.6,102.5z M110.2,87.3c-0.7,1.3-0.2,6.5-0.2,7.8s-0.6,1.2-0.8,1.2s-0.1-7,0-8.8s0.5-2.1,0.9-3.7s0-8,0-8
	c0-0.7,0.1-1.4,0.4-2c0.4-0.6,0.8,0.3,1.5,1.3s0.7,6.1,0.7,8.2S110.9,86,110.2,87.3z M114.5,90.5c-0.2,1.5-1.4,4.1-1.8,5.9
	s-0.1,7.8,0,8.8s0.8,1.9,0.8,4.1s-0.2,2.5-0.6,2.4s-0.5-2.7-0.3-3.7s-0.6-1.5-0.9-2.1s-0.2-8.6-0.4-11s2.7-7.7,2.7-7.7
	C115.2,86.1,114.6,88.9,114.5,90.5z M128.4,15.8c0.7-1.5,1.3-3.5,1.8-3.5s1.3-0.5,1.5,0.5c0,0-1.5,4.1-1.8,4.6s-0.9,1.5-1.5,1.3
	S127.7,17.4,128.4,15.8z M143.7,126.1c-2-0.4-5.9-3.3-5.9-3.3c-0.3-1.5,2.9,0.2,3.9,1s5,2.5,5.3,3.2S145.7,126.6,143.7,126.1z
	 M155.2,128.9c-0.2,0.6-1,0.6-1.2,0.7s-1.2-0.7-1.2-0.7C153.7,128.6,155.3,128.3,155.2,128.9L155.2,128.9z M161.8,130.7
	c-0.6,0.1-1.3,0.1-1.9,0c-0.4,0-1.3-0.7-1.3-0.7l0.3-0.1c3.2-0.2,3.4-1,3.5-0.3c0.1,0.3,0.1,0.6,0,0.9
	C162.4,130.4,162.6,130.6,161.8,130.7L161.8,130.7z M168.3,96.1c-0.1,5-0.8,10-2,14.9c-1.6,6.2-7.1,11.7-9.2,12.8s-6.8,1.2-8.1,1.2
	s-1.6-1.2-3.4-2.4s-2,0.1-2.9,0s-0.8-0.8-1.8-1.4s-10.9-10.3-13.3-14.7s-2.5-19.2-2.6-23.1s2.2-24.3,2.5-30.1s4.3-15.9,4.3-15.9
	c1.8-4.7,4.1-9.2,6.9-13.4c3.6-5.6,5.8-4.6,8.3-4.6s5.4,3.2,7.6,5.3s5.6,9.6,6.4,10.5s1.3-0.1,2.4,0s1.3,2.8,1.9,4.3s1,8.9,1.3,10.2
	s-0.1,18,0.2,20.3s-0.6,7.8-0.6,8.6s0.2,3.6,0.6,3.5s1.1-4.7,1.1-5.5s0.5-1.3,0.9-0.8S168.4,93.9,168.3,96.1L168.3,96.1z
	 M184.7,119.5c-0.8,3.7-2.2,5.7-2.5,4.3s1.2-3.6,1.8-10.3s1.1-27.8,1.8-25C185.7,88.5,185.5,115.8,184.7,119.5L184.7,119.5z"/>
<path class="st0" d="M166.2,84.9c0,0-0.4,5.7-0.3,6.3s0.1,1.7,0.8,1.5s0.3-2.7,0.3-3.9c0.1-1.3,0.1-2.6-0.1-3.9
	c-0.1-0.2-0.4-0.3-0.6-0.2C166.3,84.8,166.3,84.8,166.2,84.9z"/>
<path class="st0" d="M184.4,127.9c0,0,0.4,2.3,0,2.3s-0.9-0.4-0.9-1c-0.1-0.5,0.1-1,0.4-1.3C184.1,127.8,184.3,127.8,184.4,127.9z"
	/>
<path class="st0" d="M279.2,127.9c-0.4-1.8-6.4-9.7-9.9-13.2s-6.5-9.9-8.8-13.3s-10-11.3-11.4-12s-6.1-5.4-6.1-5.4s8-4.8,11.2-6.7
	s10-11.7,10-11.7c-0.2,1.5-0.6,3-1.3,4.3c-1.2,2.3-1,2-0.1,2.6s1.4-2.6,3.5-6.3s5.3-15.7,4.8-30.3S251.8,5.4,240.7,2.5
	s-25-2.1-32.6-2s-8.9,2.5-9.8,3.8s-0.6,5.1-0.4,6.2s1.4,1.1,1.7,2.2s-1.3,0.4-1.2,1.5s1.6,0.6,2.6,0.6s9-0.2,10.5-0.2s1,0.3,1,1
	c0,0.8-4.7,0.1-5,0c-0.8-0.1-1.6,0.2-2.3,0.6c-0.5,0.5-0.5,6.5-0.4,7.9s-0.4,1.7-0.8,1.5s-0.4-2.8-0.6-3.7s-0.9-5.5-1.4-6
	s-0.6,0.1-0.8,0.6s0.7,2.5,0.8,2.9s0.2,7.4,0.2,7.4S202.2,37.7,202,38s-0.5,0.1-0.5,0.1c-0.4-0.5-0.2-13.5-0.4-15
	c-0.1-1.5-0.3-2.9-0.7-4.3c-0.2-0.7-0.4-2.3-0.8-2.3s0.1,6.4,0.3,6.9c0.2,1.2,0.4,2.4,0.5,3.6l0.4,27c0.6,0.6,1.2,1.3,1.9,1.8
	c0.5,0.4-0.1,2.2-0.1,2.2l-0.9,0.8c-0.2-0.3-0.5-0.5-0.9-0.7c-0.5-0.3-0.3,1,0,1.7c0.3,0.4,0.7,0.7,1.3,0.8c0,0,0.4,3.5,0.4,5.9
	s-0.5,12.3-0.9,15s-0.1,18.8-0.1,18.8c0.3-0.5,0.5-1.1,0.6-1.6c0.3-0.7,0.8-1.2,1.4-1.7c0,0,0.1,3.5,0.1,4.1
	c-0.3,2.2-0.8,4.4-1.5,6.5c-0.4,0.7-0.8,17.5-1.1,19.4s-0.2,3.9,1.1,8.6s3.5,10.5,4.6,11.3s2.9-1.8,4.1-3.4s4.3-1.2,5.7-1.6
	s2.9-3.4,4.5-4.3s3,0.4,4.1-1.3s1-13.4,0.9-20.6S225,90.1,225,90.1c16.8,16.3,19.7,22.1,22.3,27.8c2,4.8,5,9,8.9,12.4
	c3.7,3.3,8,5.7,10.4,8s4.9,3.9,7.5,4s2.9-2.6,3.4-4.1s-0.6-4.5-0.9-5.5s0.1-1.5,1.5-1.4S279.5,129.8,279.2,127.9z M205.1,6.2
	c-1,0.1-2.4,0.3-3-0.8s3.8-1,3.8-1C207,5.2,206.1,6.1,205.1,6.2z M203.1,91.2V79.6c0,0,0.3-1,1.7-0.5c-0.5,1.6-0.8,3.2-1,4.8
	c-0.1,1.5,0.4,9.7,0,9.7S203.1,93.4,203.1,91.2L203.1,91.2z M204.8,126.5c-0.1,2.6,0,8.1-0.9,8s-0.5-6.1-0.9-8.3s0.9-17.6,0.9-17.6
	c0.8-1.1,0.9,0,0.9,0S204.9,123.8,204.8,126.5L204.8,126.5z M221.2,84.5c-0.1,1.7-0.7,0.6-2,0s0-6.5,0-6.5c0.6-0.5,1.5-0.3,2,0.3
	C221.6,78.7,221.3,82.8,221.2,84.5L221.2,84.5z M222.3,68.7c0,0-0.1,3-0.8,4s-0.7,0.6-1.1,1s-1.6,1-1.4-0.2c0.2-0.9,0.7-1.6,1.4-2.2
	c0,0-0.1-7.3,0-11.6s-1.2-13-1.8-16.6s0.3-4.6,0.8-4.7s0-19.5,0-19.5c5.2-1.4,11.5,0.6,17.9,3.9s10.8,10.6,13,14.9s1.4,8.9,0,13.4
	S238.5,63.5,233,66C229.6,67.5,226,68.5,222.3,68.7L222.3,68.7z M273.3,128.5c-0.4,0.8-2.5-0.4-3.7-1.8S262,116.6,262,116
	s-0.3-0.9,0.5-0.7c0,0,8.2,9.6,8.7,9.9S273.7,127.7,273.3,128.5L273.3,128.5z"/>
<path class="st0" d="M260.4,73.7c0,0-3.1,3.8-3.6,4.2s-1,1.5-0.5,1.8s1.2-0.5,2.3-1.5c1.2-1.3,2.3-2.7,3.3-4.2
	C261.8,73.8,261.5,72.7,260.4,73.7z"/>
<path class="st0" d="M360.1,133.8c-2.5-4.4-16.6-23.1-19-25.2s-6.1-8.8-7-10.5s-7.8-13.9-7.8-13.9c2.6-0.2,5.1-0.8,7.5-1.8
	c6-2.6,11.5-6.2,16.2-10.8c4-4.2,6.9-12.2,6.1-32.4s-17.5-28-27.9-29.8s-18.1,0.9-21.7,1.5s-7.5-1.8-11.1-2s-4.2,1.5-5.3,3.9
	s0.4,10.4,0.4,11.9s-1.3,1-1.5,1.8s0.9,12.9,1.2,14.6s-1.4,11.2-1.5,12.1s-1.6,15.8-2.5,18.8s0.1,23.7,0.6,29s3.1,32.8,3.6,37.1
	s2.3,5,3.3,4.3s1-4.8,2-5.6s1.4,0.9,2.4,2s1.2,5.3,1.3,8.1s1.9,2.7,3.8,2.9s3.1-3.7,3.6-6.4s0.7-22.8,0.7-25.2S306.8,94,306.8,94
	c2.7,0.4,7.2,10.9,10.7,18s11.5,15,13.9,17.4c2.4,2.4,9.3,10.1,10.7,14.4s6.7,8.8,8.8,9.4s3.1-1.4,3.6-2.9s2.7-0.6,6.5,0.3
	s4.6-1.2,4.9-3.7S362.6,138.2,360.1,133.8z M293.3,42.7c-0.3,2.3-3.1,25.4-3.1,26.4s0.1,5-1.1,5.1s-1.2-2.5-1-4.6s3.1-24.3,3.3-26
	c0-2.4,0-4.8-0.3-7.2c-0.1-1.6-0.9-5.3,0.9-4.2C292,32.2,293.6,40.3,293.3,42.7L293.3,42.7z M308.9,67.1c0.3-1.8,1.8-17.1,1.9-18.8
	s0-17.9,0-18.8c-0.9,0,0,0,0,0v0c0.7,0,2.5,0,6.8,0c9.6-0.1,18,8,20.1,11.9s1.8,9.1-1,15.4s-12.3,8.7-17.5,9.8
	C315.7,67.1,312.3,67.3,308.9,67.1z"/>
<path class="st0" d="M291.5,147c-0.8,0.8-1.3,1.9-1.3,3.1c0,2,0.3,4.1,0.9,4.2s2.3,0.6,2.3-1.8S293.5,147.2,291.5,147z"/>
<path class="st0" d="M286.5,22.7c0,0,0.3,3.7,0.7,3.5c0.4-0.2,0.6-0.5,0.5-1c0-0.5,0.3-2.8-0.2-2.9S286.7,22.1,286.5,22.7z"/>
<path class="st0" d="M374.1,25.1c0,0-0.5,6.3,0,6.1s0.8-1.8,1.1-2.4c0.5-0.8,0.7-1.8,0.7-2.7C375.7,25.2,375.7,24.8,374.1,25.1z"/>
<path class="st0" d="M403.8,72.4c-0.6-3.7-2.1-23.6-2.4-24.8s-2.8-9-6.1-11.1s-10.9-7-13.5-7c-2-0.1-3.9,0.9-5,2.6
	c-1,1.5-2.9,1.7-3.7,2c-0.5,0.4-0.9,0.9-1.1,1.5c0,0-0.7,12.6,0,17.4s0.1,14.3-0.3,17.5s0.2,21.4,0.3,23.9s0.3,6.5,0.8,6
	s0.8-4.9,1.4-4.5s0.7,11.5,0.7,11.5s0.7,15.7,1.1,19.9s1.6,7.5,2,13.9c0.2,3.2,0.2,6.4,0,9.6c0.8,1.3,1.9,2.4,3.3,3.1
	c2.4,1.3,7.7,2.1,9.4,3.9s6.6,7.6,7.5,7s2-5.6,2.1-10.3s1.1-17.1,1.1-17.1s1.2,3.2,1.5,0.1s0.8-12.5,0-11.9s-1.1-0.9-1.2-2.7
	s-0.1-17,0.4-16.2s0.3,7.2,0.7,9s1.2,3.4,1.5,1.9s0.6-20.8,0.6-20.8S404.4,76.1,403.8,72.4z M375.8,91.9c0,0.8-0.2,1.6-0.5,2.3
	c-0.4,0.6-1.3-0.4-1.4-0.8s-0.5-16.5-0.5-16.5c1.1-1.7,2.4,0.9,2.4,0.9L375.8,91.9z M402.3,101.3c-0.2-0.2-0.3-14.9-0.3-14.9
	c0-0.4,0.9,0.4,0.9,0.4s0,11.7,0.2,12.9S402.5,101.5,402.3,101.3L402.3,101.3z"/>
</svg>
