<?xml version="1.0" encoding="utf-8"?>
<!-- Generator: Adobe Illustrator 23.0.1, SVG Export Plug-In . SVG Version: 6.00 Build 0)  -->
<svg version="1.1" id="Layer_1" xmlns="http://www.w3.org/2000/svg" xmlns:xlink="http://www.w3.org/1999/xlink" x="0px" y="0px"
	 viewBox="0 0 443.2 129.2" style="enable-background:new 0 0 443.2 129.2;" xml:space="preserve">
<style type="text/css">
	.st0{fill:#FFFFFF;}
</style>
<title>Asset 24</title>
<g>
	<path class="st0" d="M158,32.3c-4-0.6-5.9,1.1-5.8,5.5c0.1,0.8,0.1,2.1,0.2,3.3c0,0.4,0.1,0.7,0.1,1.1c0.2,2.3,2.2,4,4.5,3.8
		c0,0,0.1,0,0.1,0c3.4-0.2,7.2-3.7,7.4-6.8C164.7,36.1,161.8,32.9,158,32.3z"/>
	<path class="st0" d="M45.4,48.9c-3.4-0.1-5.7,2.1-5.1,4.9c0.4,2,0.9,3.9,1.5,5.8c0.5,2,2.5,3.3,4.5,3.1c2.8-0.2,6.5-3.8,6.7-6.5
		C53.4,51.8,50.4,49,45.4,48.9z"/>
	<path class="st0" d="M107.2,45.8c-0.3-3.4-3.3-5.8-6.6-5.5c-0.2,0-0.4,0-0.6,0.1c-4.4,0.7-6.5,3.5-5.8,7.5
		c0.7,4.4,1.5,8.7,2.1,13.1c0.5,3.6,2.6,5.6,6.2,5.6c4.7,0,7.3-2.8,6.7-7.5C108.6,54.7,107.8,50.3,107.2,45.8z"/>
	<path class="st0" d="M440.8,48.5C435,36,424.7,30,411.2,29c-6.5-0.6-12.9,0.9-18.5,4.4c-1.3,0.8-2.1,0.7-2.3-1.2
		c-0.1-1.7-1.3-3.1-3-3.4c-1.8-0.5-3.7-0.9-5.6-1.2c-3.4-0.2-3.6-0.7-1.9-3.5c0.4-0.6,0.8-1.3,1.2-1.8c1.9-2.7,1.9-4.8-0.1-7.5
		c-2.2-2.9-4.5-5.9-6.7-8.8c-1.7-2.2-3.3-4.6-6.3-4.8s-5.9-1.4-9-1.1c-1.2,0-2.3,0.3-3.4,0.9c-3.2,2-6.4,3.9-9.7,5.9
		c-2.1,1.1-3.8,2.9-4.9,5c-1,2.1-2,4.2-3.1,6.3c-0.7,1.3-1.3,2.7-3.2,2.6c-2.6-0.4-5.2,1-6.5,3.4c-0.2,0.3-0.4,0.9-0.9,0.8
		s-0.6-0.6-0.7-1c-0.8-4.7-3.7-5.3-7.7-5.8c-4.2-0.5-8.3-0.9-12.5-1.2c-5.2-0.4-8.3,0.3-11.2,5.3c-0.6,1-0.8,2.4-2.4,2.8
		c-0.5-1.7,0.2-3.5-0.5-5.1c-1.6-3.4-4.5-4.6-8-5c-4.4-0.5-8.8-0.3-13.3-0.8c-5.4-0.6-10,0.9-12.3,6.4c-0.6,1.5-1.5,1.1-2.3,0.2
		c-3.4-3.5-7.7-6.1-12.3-7.7c-7.7-2.8-15.5-2.8-23.4-1.1c-7.4,1.4-14,5.7-18.4,11.8c-3.9,5.7-7.5,11.6-10.7,17.8
		c-1.1,1.9-2.4,3.8-3.8,6c-0.4-1-0.4-2-0.1-3c2.6-9.7-3.3-20.5-11.6-25.5c-6.9-4.1-15-5.9-23-5.1c-6.9,0.6-13.8,1-20.7,2.1
		c-1.8,0.3-3.5,1.2-4.7,2.6c-1.3,1.6-2.3,3.5-2.9,5.5c-0.6,1.7-1.3,2.1-2.9,0.9c-3.8-2.8-8.3-4.5-12.9-5.2
		c-6.8-1.2-13.9-0.6-20.5,1.6C80.7,24.3,74,28.9,70,36.7c-0.8,1.6-1.5,1.8-2.8,0.6c-7.4-6.7-16.3-7.9-25.7-6.6
		c-5.7,0.8-11.3,2.7-17,3.8c-5.5,1.1-9.8,3.3-12,8.9c-0.8,2.1-2.3,3.9-3.4,5.9c-2.7,4.8-5.8,9.4-8.2,14.4c-0.9,1.6-1.1,3.4-0.7,5.2
		c0.7,2.8,1.4,5.6,2.2,8.3c2.3,7.9,4.7,15.8,6.8,23.7c1.4,5.2,3.2,10.2,4.3,15.5c0.4,2,1,4,1.9,5.8c1.4,3.3,5.6,4.9,9.6,3.9
		c3.5-0.9,7-1.7,10.5-2.5c2.8-0.7,5.4-1.5,7-4.2c3.6-5.9,7.3-11.9,10.9-17.9c1.6-2.6,3.8-5,3.1-8.5c-0.1-0.6-0.5-1.7,0.4-2
		c0.9-0.2,1.3,1,1.5,1.6c1.6,4.2,4.3,7.9,7.8,10.6c5,4.1,11.1,6.5,17.6,7c5.3,0.6,10.6,0,15.7-1.6c6.6-2.1,12.5-6.1,16.9-11.5
		c0.5-0.7,0.7-2.1,1.9-1.7c1,0.4,0.8,1.6,0.8,2.6c0,0.4,0,0.7,0,1.1c0.2,3.5,2.5,5.9,6,5.9c4.5-0.1,8.8-1.3,13.2-1.1
		c4.2,0.2,8.3-0.5,10.2-5.2c0.7-1.6,1.8-2,2.8-0.1c1.6,3,4.2,4.1,7.4,4.5c1.8,0.2,3.3-0.9,5-0.8c3.3,0.1,6.7,0.1,10,0
		c2.4-0.1,4.7-0.9,5.9-3.2c1.6-3.2,3.8-6,5.5-9.1c1.4-2.5,2.1-2.6,3.6-0.1c2.4,3.8,5.9,6.7,9.9,8.5c6,2.8,12.5,4,19.1,3.8
		c2.1-0.1,4.1,0.1,6,1.5c1.4,0.9,2.8,1.6,4.3,2.1c3.4,1.4,6.9,2.5,10.5,3.1c3,0.7,6.3-0.1,8-2.7c1.5-2.2,2.8-4.5,4.2-6.7
		c1.7-2.7,1.8-2.7,4.2-0.7c0.3,0.3,0.7,0.5,1.1,0.8c6.8,5,15.1,7.5,23.5,7.2c5.3-0.1,10.4-1.3,15.2-3.6c3.1-1.5,6-3.5,8.5-5.9
		c0.4-0.4,0.5-1,1.3-0.6c0.7,0.3,0.5,1,0.4,1.6c0,0.4-0.2,0.7-0.3,1.1c-0.7,4.3,2.1,8.6,6.1,9.2c6,0.8,11.9,1.7,17.9,2.6
		c9.6,1.4,19.2,3.2,28.7,5.2c3.1,0.5,6.3-0.9,8-3.6c2.7-4.8,5.6-9.5,8.6-14.2c2.8-4.4,6-8.7,6.3-14.2c0-0.6,0.2-1.2,0.5-1.7
		c0.8-1.3,2.2-1,3.2-0.5c1.2,0.5,0.6,1.6,0.1,2.2c-3.8,4.9-4.8,10.9-6.1,16.7c-0.5,1.4-0.3,3,0.4,4.3c0.7,1.1,0.6,2.5-0.4,3.5
		c-1.8,2.4-3.1,5.1-3.8,8c-0.2,0.6-0.2,1.2-0.2,1.8c0,3.8,3.1,6.8,6.9,6.8c4.3-0.2,8.1,1.2,11.9,2.8c4.7,2.1,7.7,0.2,9.5-2.9
		c3.3-5.7,6.9-11.2,10.3-16.8c0.7-1.2,1.8-2.1,3-2.8c3.9-2.1,7.2-5.3,9.5-9.1c4.3-7,8.5-14.2,13-21.1c2.6-4.2,4.2-8.9,4.8-13.7
		C443.6,57.3,442.8,52.7,440.8,48.5z M31.4,103.8c-3.4,5.5-7,10.9-9.9,16.6c-0.3,0.5-0.8,0.8-1.3,0.9c-1.3,0-1.9-1.4-1.1-2.7
		c1.5-2.5,3-5,4.7-7.4c2-2.8,4.1-5.5,6.1-8.3c0.4-0.6,0.8-1.2,1.6-0.8C32.2,102.6,31.7,103.3,31.4,103.8z M49.5,102.2
		c-1.5,2.6-2.9,5.2-4.5,7.8c-2,3.3-4.2,6.6-6.5,10.2c-0.4-1.1-0.4-2.3,0.2-3.4c2.3-4.1,4.4-8.3,6.6-12.5c0.6-1.2,1.3-2.3,2-3.4
		c0.4-0.6,1-1.6,1.9-1.1C50.2,100.4,49.9,101.4,49.5,102.2z M64.8,94.8c-0.3,0.7-1,1.2-1.8,1.3c-1.2-0.6-1-1.6-0.5-2.5
		c1.1-2,2.2-4,3.4-5.9c2-3,4-5.9,6.1-8.8c0.4-0.5,0.8-1.5,1.6-1.1c1,0.5,0.3,1.5,0,2.1C70.8,84.9,67.8,89.8,64.8,94.8z M77.3,87
		c-2.5,4-5.1,7.9-7.7,11.8c-0.5,0.9-1.3,1.7-2.3,2.1c-1-0.9-0.7-1.8-0.2-2.7c1.1-1.8,2.2-3.6,3.4-5.3c1.6-2.3,3.3-4.6,5-6.9
		c0.6-0.8,1.2-1.9,2.2-1.2C78.8,85.5,77.7,86.4,77.3,87z M94.3,103.7c-0.3,0.5-0.8,1.4-1.5,1s-0.5-1.4-0.2-2
		c1.7-3.1,3.5-6.2,5.3-9.3c0.3-0.5,0.6-0.9,1.2-0.6c0.6,0.3,0.4,0.7,0.4,1.1c0,1.2-0.9,1.8-1.4,2.7C97,99,95.7,101.4,94.3,103.7z
		 M109.1,90.6c-2.4,4-4.8,8-7.2,11.9c-0.3,0.5-0.6,1-1,1.4c-0.4,0.4-1.1,0.5-1.7,0.2c-0.6-0.4-0.4-1-0.1-1.5c2.5-4,5-8,7.5-11.9
		c0.4-0.7,0.8-1.4,1.3-2.1c0.2-0.4,0.7-0.6,1.1-0.5c0.6,0.1,0.4,0.7,0.5,1.3C109.4,89.8,109.3,90.2,109.1,90.6z M134.2,86.8
		c-2.6,4.3-5.2,8.5-7.8,12.7c-0.5,0.9-1.2,1.5-2.1,1c-1.1-0.6-0.2-1.3,0.1-2c2.8-5.1,5.9-9.9,9.3-14.6c0.4-0.5,0.9-1.3,1.8-1
		c0.2,0.1,0.3,0.3,0.3,0.4C135.3,84.6,134.8,85.7,134.2,86.8z M125.5,84.4l6.2-10c0.2-0.5,0.8-0.7,1.2-0.4c0,0,0.1,0,0.1,0.1
		c0.5,0.3,0.4,0.9,0.1,1.4c-1.7,2.9-3.4,5.7-5.2,8.6C127.4,85,126.6,84.6,125.5,84.4z M156.1,91.6c-0.9-0.3-1.4-0.8-0.9-1.5
		c2.2-3.1,4.1-6.4,6.6-9.3c0.4-0.5,1-0.8,1.5-0.5c0.5,0.4,0.5,1,0.1,1.6c-2,3-3.9,6.2-6.4,8.9C156.7,91.1,156.4,91.4,156.1,91.6z
		 M166.1,85.8c-1.8,3-3.7,6-5.3,9.1c-0.1,0.1-0.2,0.2-0.3,0.3c-0.7,0.7-1.2,2.4-2.5,1.6s-0.2-2,0.3-2.8c2.2-3.4,4.5-6.9,6.8-10.3
		c0.4-0.7,1-1.3,1.8-1.5C168,83.7,166.7,84.8,166.1,85.8z M186.3,75.1c-3.2,0.3-6.4,0.4-10.7,0.6c-4.5,1.8-7.4-1.3-9.6-5.8
		c-1.1-2.1-2.6-3.9-3.9-6c-1-1.7-2.6-1.9-4.3-1.5s-2,1.9-1.9,3.5c0.2,2.7,0.3,5.5,0.5,8.2c0.1,1.6-0.5,2.3-2.1,2.4
		c-4.9,0.5-9.9,1-14.8,1.6c-1.8,0.2-2.6-0.6-2.7-2.4c-0.2-2.1-0.5-4.1-0.7-6.2c0-1.9-1.4-3.6-3.3-3.9c-2-0.5-4,0.4-4.9,2.2
		c-1.4,2.6-3.2,4.9-5.4,7c-10.8,10.3-28.8,11.4-40.2,2.4c-3.7-2.8-6.4-6.9-7.5-11.4c-0.2-1.7-1.5-3-3.1-3.3c-2-0.4-3.8,0-4.9,1.7
		c-3.8,5.4-9.3,9.4-15.7,11.3c-2.4,0.8-3.4,2.4-2.9,5.3c0.6,3.3,1.5,6.6,2.3,9.9c1.1,4.1,0.6,5-3.7,6c-3.2,0.7-6.5,1.5-9.7,2.4
		c-2.7,0.8-4.6-0.1-5.3-2.8c-1.7-5.8-3.2-11.5-4.8-17.3C25,71.8,23,64.4,20.9,57c-1-3.6-2-7.1-2.9-10.7c-0.6-2.5,0.8-5,3.3-5.8
		c4.2-1.6,8.7-2.3,13.1-3.4c3.6-1,7.2-1.7,10.9-2.1c7.6-0.4,14.4,1.4,19.9,6.9c3,2.9,6.4,2.2,8.3-1.5c4.4-8.5,11.5-13.5,20.7-15.5
		c9.2-2.1,17.9-0.9,25.9,4.4c1.3,1,2.5,2.1,3.6,3.3c1.6,1.5,3.3,2.1,5.5,1.1c2.1-1,2.7-2.8,2.4-5c-0.2-1.6-0.3-3.3-0.3-4.9
		c-0.2-1.6,0.9-3.2,2.6-3.4c0.1,0,0.3,0,0.4,0c7.5-0.8,15-1.8,22.6-2c8-0.2,15.2,2.1,21,7.9c6.6,6.5,7.5,16.9,2,24.4
		c-1.8,2.1-1.9,5.1-0.3,7.3c2.9,4.7,5.7,9.4,8.5,14C189.2,74,188.6,75,186.3,75.1z M347.4,11.6c3.4-2.1,6.8-4.3,10.1-6.4
		c0.1,0,0.1-0.1,0.2-0.1c1.7-0.8,10.1,0.6,11.2,2c2.5,3.1,4.9,6.3,7.3,9.5c0.4,0.5,0.8,1,0.5,1.6c-0.3,0.6-1,0.5-2.1,0.5
		c-1.9,0-3.6-0.9-4.6-2.5c-1-1.5-2.2-2.9-3.4-4.4c-2.4-3.1-4.6-3.5-8-1.6c-1.8,0.9-3.5,1.9-5.2,3c-1.8,1.3-3.8,1.1-5.7,0.8
		c-0.7,0-1.3-0.4-1.5-1.1C346.2,12.1,347,11.9,347.4,11.6z M371,20.9c-0.3,1.3-0.9,2.5-1.7,3.5c-0.3,0.5-0.9,0.6-1.4,0.4
		c-0.1,0-0.1-0.1-0.1-0.1c-0.5-0.4-0.3-0.9,0-1.4c0.5-1,1-2,1.5-3.1c0.2-0.5,0.7-0.8,1.2-0.8C371.2,19.6,371,20.3,371,20.9z
		 M365.4,14.9c0.3,0.4,0.8,0.8,1.2,1.1c-0.8,1.5-1.5,3-2.3,4.3c-0.1,0.1-1,0-1,0c-0.1-0.4-0.2-0.7-0.5-1L365.4,14.9z M362.5,18.8
		c-0.5-0.4-0.7-1.1-0.6-1.7c0.2-1.6,1-3.1,2.2-4.2c0.2-0.1,0.4-0.1,0.6,0c0.1,0.4,0.2,0.8,0.3,1.2C364.3,15.4,363.2,17.5,362.5,18.8
		z M344,15.9c0.1-0.4,0.5-0.5,0.9-0.4c0,0,0,0,0,0c0.5,0.3,0.3,0.8,0.4,1.3c-0.4,1.1-0.7,2.3-1.2,3.4c-0.2,0.4-0.6,0.6-1.1,0.6
		c-0.6-0.1-0.5-0.7-0.5-1.1C342.5,18.2,343.4,17.1,344,15.9z M200.6,71.3c0,0,0.1,0,0.1,0.1c0.6,0.3,0.4,0.9,0.2,1.3
		c-1.2,2.1-2.3,4.2-3.6,6.3c-0.4,0.6-0.6,1.3-0.6,2l0,0c-2.2,0-2.6-0.5-1.6-2.3c1.3-2.3,2.9-4.6,4.3-6.8
		C199.6,71.3,200.1,71.1,200.6,71.3z M191.3,59.9c-0.3,0.5-0.6,0.8-1.2,0.6c-0.4-0.1-0.6-0.5-0.5-0.9c0-0.1,0.1-0.1,0.1-0.2
		c1.8-2.8,2.5-6.3,4.9-8.7c0.3-0.2,0.5-0.4,0.8-0.6c0.5,1,0.4,2.1-0.2,3C193.9,55.3,192.6,57.6,191.3,59.9z M201.3,78.2
		c-1.6,2.8-3.2,5.6-4.9,8.3c-0.4,0.7-1.1,1.4-2,0.9c-0.9-0.5-0.3-1.3,0-2.1c0.6-1.5,2.5-2.5,2.2-4.4l0,0c1.8-0.4,1.8-2.3,2.7-3.5
		c0.7-0.9,1.1-2,2.3-2.5C202.4,76.3,201.9,77.3,201.3,78.2z M223.6,91.3c-0.2-0.4-0.2-0.9,0.1-1.2c2-3.2,4-6.3,6-9.5
		c0.3-0.4,0.7-0.8,1.1-1.1c0.3-0.3,0.9-0.3,1.2,0c0.3,0.3,0.3,0.7,0.1,1c-2.1,3.6-4.1,7.3-6.5,10.7c-0.3,0.4-0.7,0.6-1.1,0.6
		C224.2,91.6,223.8,91.6,223.6,91.3z M233.8,86.2c-0.9,1.5-1.7,3-2.3,4.7c-1,2-2,3.9-3.1,5.8c-0.6,1.1-1.7,1.8-2.8,1
		c-1.1-0.8,0.1-1.5,0.5-2.2c1.8-3.2,3.7-6.3,5.6-9.4c0.3-0.6,0.7-1.2,1.5-0.9C233.7,85.4,233.9,85.8,233.8,86.2z M251.6,88.6
		c-2.4,4-4.9,8-7.4,12c0,0.1-0.1,0.1-0.2,0.2c-0.8,0.6-1.3,2.3-2.5,1.5c-0.7-0.5,0.4-1.6,0.8-2.4c2.2-4.2,4.5-8.3,6.7-12.5
		c0.3-0.7,0.9-1.4,1.6-1.8c1.2-0.7,1.5,0.4,1.9,0.9C252.4,87.1,252,87.8,251.6,88.6z M260.8,95.3c-0.2,0.5-0.5,0.9-1.1,0.8
		c-0.8-0.1-0.7-0.8-0.8-1.7c0.2-0.5,0.4-1.1,0.6-1.6c2.2-4.4,4.4-8.8,6.7-13.1c0.2-0.2,0.4-0.5,0.5-0.7c0.4-0.6,0.9-0.9,1.5-0.5
		c0.6,0.4,0,1-0.2,1.4c-1.7,3.7-3.5,7.3-5.3,11C262.1,92.4,261.4,93.8,260.8,95.3z M269.4,91.2c-0.9,2-1.9,3.9-3,5.8
		c-0.4,0.6-1,1.3-1.8,0.7s-0.3-1.2,0-1.8c0.8-1.6,1.6-3.3,2.6-4.9c0.3-0.6,0.9-1.1,1.5-1.1C269.5,90.1,269.7,90.6,269.4,91.2z
		 M297.8,85.6c-2.9,5.1-5.8,10.2-8.7,15.3c-0.2,0.4-0.6,0.6-1,0.5c-1-0.4-0.6-1-0.2-1.7c2.1-3.8,4.1-7.7,6.1-11.4
		c0.7-1.2,1.3-2.5,2-3.6c0.3-0.6,0.9-1.1,1.6-0.7S298.1,85,297.8,85.6z M307.5,90.6c-0.2,0-0.3,0.1-0.5,0.1c-1-0.1-1-0.8-0.7-1.4
		c0.8-1.5,1.7-2.9,2.6-4.3c0.3-0.4,0.8-0.5,1.2-0.3c0.2,0.2,0.4,0.4,0.4,0.7C310.6,86.1,308,90.5,307.5,90.6z M310.4,103.2
		c-1-0.3-0.8-0.9-0.3-1.6c2.5-4,4.9-8,7.5-11.9c1.3-2,2.6-3.9,3.9-5.8c0.4-0.6,0.9-1.2,1.8-0.6s0.5,1.3,0.2,1.9
		c-2.2,4.3-5,8.3-8.1,12c-1.3,1.6-2.5,3.3-3.5,5C311.5,102.6,311.3,103.2,310.4,103.2z M324.7,90.3c-3,4.3-5.5,8.8-8.7,12.9
		c-0.7,0.9-1.3,1.3-2.2,0.9c-1.2-0.6-0.1-1.4,0.1-2c1-2.6,2.9-4.7,4.6-6.9c2.6-3.2,4.6-6.7,7.1-9.9c0.4-0.4,0.7-0.8,1.3-0.5
		c0.2,0.1,0.3,0.5,0.5,0.8C326.6,87.1,325.8,88.8,324.7,90.3z M336.8,105.9c-0.5-0.1-0.9-0.6-0.9-1.1c0-0.1,0-0.2,0.1-0.2
		c0.9-2.4,2.7-4.2,4.1-6.3c0.3-0.4,0.8-0.4,1.2-0.1c0,0,0,0,0,0c0.3,0.2,0.4,0.7,0.2,1c-1,2.4-2.4,4.5-4.2,6.3
		C337.2,105.7,337,105.8,336.8,105.9z M350.8,94.6c-2.9,4.2-5.7,8.5-8.5,12.7c-0.1,0.1-0.2,0.2-0.3,0.4c-0.4,0.8-1.1,1.4-2,0.9
		c-1.1-0.6-0.3-1.6,0-2.1c1.6-1.9,2.8-4.1,4.3-6.1c1.5-2.2,3.4-4.2,4.8-6.6c0.3-0.5,0.8-0.9,1.3-1.2c0.8-0.5,1.1-0.1,1.1,0.7
		C351.5,93.8,351.1,94.1,350.8,94.6z M368.8,96.2c-2.6,4.5-5.4,8.8-8.5,12.9c-0.3,0.7-1,1.2-1.8,1.3c-1.3-0.5-0.5-1.3-0.1-1.8
		c1.8-2.8,3.7-5.7,5.5-8.5c1.1-1.6,2.1-3.3,3.2-4.9c0.4-0.6,1-1.4,1.8-0.9C369.7,94.7,369.2,95.5,368.8,96.2z M379.6,61.2
		c-1.4,2.3-3,4.4-4.4,6.6c-0.5,0.8-1.1,1.8-2,1.2c-0.9-0.5,0.2-1.3,0.5-1.9c1.9-4,4.1-7.7,6.7-11.3c0.4-0.6,0.9-1.1,1.6-0.8
		c0.5,0.1,0.6,0.6,0.6,1.1C381.7,57.9,380.7,59.6,379.6,61.2z M382.2,64.7c-0.2,0.3-0.7,0.3-1,0c-0.4-0.3-0.5-0.8-0.4-1.2
		c0.5-2,1.9-3.6,2.9-5.3c0.2-0.3,0.7-0.4,1-0.2c0.5,0.2,0.5,0.7,0.5,1.4C384.3,61.1,383.3,62.9,382.2,64.7z M389.1,107.9
		c-2.2,3.3-4.3,6.7-6.5,10.1c-0.4,0.6-0.8,1.2-1.6,1.3c-1-0.1-0.9-0.7-0.6-1.3c2.1-3.9,4.5-7.7,7.1-11.3c0.5-0.7,1.2-1.1,1.9-0.5
		C390,106.8,389.5,107.3,389.1,107.9z M394.5,126.2c-0.4,0.3-1,0.3-1.3-0.2c-0.5-0.4-0.7-0.8-0.2-1.5c2.9-4.7,5.7-9.4,8.7-14
		c0-0.1,0.1-0.1,0.1-0.2c0.5-0.8,1.5-1,2.2-0.6l-9.3,16.1C394.6,126.1,394.6,126.2,394.5,126.2z M407.1,110.6
		c-3.1,4.7-5.9,9.7-9.3,14.2c-0.3,0.5-0.8,0.9-1.3,0.5c-0.2-0.2-0.4-0.3-0.6-0.3l9-15.6c0.1-0.2,0.3-0.3,0.4-0.4
		c0.5-0.5,1.3-0.5,1.8,0C407.7,109.4,407.4,110,407.1,110.6z M411.4,99.1c-0.7,1.6-0.8,3.6-3.4,2.7c-4.3-1.7-8.9-2.8-13.5-3.3
		c-1.4-0.1-2.9-0.8-2.8-2.5c0.2-2.7,1.3-3.8,3.8-3.8c2.8,0.7,6.1,1.4,9.3,2.2c1.7,0.4,3.4,0.9,5.1,1.4
		C411.7,96.4,412.1,97.6,411.4,99.1z M422.3,82.2c-2.1,0.7-4.2,1.3-5,3.8c-0.5,1.4-2,0.9-2.9,0.7c-4-1-8-2.1-12-3.2
		c-1.5-0.4-3-0.9-4.4-1.4c-1.5-0.5-2.3-1.6-1.8-3c1.2-3.9,1.6-8,3.5-11.6c2-3.8,4-4.9,8.2-4.3c1.1,0.2,2.2,0.3,3.3,0.2
		c4.5-0.2,7-4.2,5.2-8.4c-0.8-1.9-2.5-2.5-4.5-2.6c-2.4-0.1-4.6,0.2-5.7,2.5c-0.9,2-2,2.2-4,1.6c-5.2-1.5-10.5-2.7-15.8-3.8
		c-1.5-0.3-2.6-1-2.8-2.4c-0.4-2.5-2-3.4-4.2-3.8c-7.7-1.4-15.4-2.8-23.2-4c-2.7-0.4-4.2,0.6-4.4,2.5c-0.3,1.9,1.1,3.6,3.3,4
		l10.5,1.8c2.2,0.2,3.9,2.1,3.7,4.3c0,0.2,0,0.4-0.1,0.6c-0.2,1.7-0.5,3.4-0.9,5c-0.5,2-2.6,3.3-4.6,2.9c-2.8-0.4-5.5-1-8.3-1.5
		c-1-0.2-2-0.3-3.1-0.4c-1.6-0.3-3.1,0.7-3.5,2.3c0,0.1,0,0.2,0,0.3c-0.4,1.7,0.7,3.4,2.4,3.8c0.1,0,0.2,0,0.3,0.1
		c3.5,0.7,7,1.2,10.5,1.9c4.6,0.8,9.2,1.7,13.7,2.6c2.8,0.6,3.4,1.7,2.9,4.4c-0.6,3.3-1.3,6.7-2,10c-0.3,1.7-1.9,2.9-3.6,2.6
		c-0.1,0-0.1,0-0.2,0c-4.7-0.8-9.3-1.8-14-2.6c-6.3-1.1-12.7-2.2-19-3.2c-4.5-0.7-8.9-1.3-13.4-2c-2.1-0.2-3.6-2.1-3.4-4.2
		c0.1-1.9,0.4-3.7,0.7-5.5c0.3-1.8-0.1-3.4-1.9-4.3c-1.8-0.9-3.3-0.2-4.5,1.2c-7.7,9.3-17.9,12.6-29.4,10.8
		c-10.9-1.6-19.4-7.2-23.9-17.8c-0.4-1.4-1.6-2.4-3.1-2.5c-1.4-0.2-2.8,0.6-3.5,1.9c-0.7,1.2-1.6,2.3-2.4,3.5
		c-1.5,2.3-0.5,4.9,2.2,5.4c1.3,0.1,2.3,1.2,2.2,2.5c0,0.1,0,0.2,0,0.3c-0.1,2.4-0.5,4.7-1.1,7c-0.5,1.8-2.3,2.9-4.2,2.5
		c-5.3-0.8-10.5-2.7-15.1-5.5c-1.9-1.2-4.1-1.7-6.2-1.5c-7.3,0.3-14.3-0.7-20.6-4.8c-6.3-4-9.4-10.2-10.8-17.2
		c-1.4-6.5-1.2-13.2,0.5-19.6c2.8-9.6,9.1-16.1,18.6-18.9c12-3.6,23.1-1.5,32.8,6.7c2.6,2.2,4.7,5,5.9,8.2c0.5,1.3,1.1,2.4,2.6,2.2
		c1.6-0.3,1.8-1.7,1.9-3.1c0-2.6,0.1-5.2,0.2-7.8c0.1-2.9,1.9-4.8,4.8-4.6c5.5,0.3,10.9,0.6,16.4,1c2.6,0,4.6,2.1,4.6,4.7
		c0,0.1,0,0.2,0,0.3c-0.8,10.3-1.5,19.3-2.2,28.4c-0.1,1.1-0.1,2.2,0,3.3c-0.1,2.5,1.9,4.5,4.4,4.6c0.2,0,0.3,0,0.5,0
		c2.7,0,4.5-1.8,4.7-4.6c0.9-10.4,1.8-20.8,2.8-31.2c0.1-2.2,1.9-3.9,4.1-3.9c5.8,0.1,11.7,0.8,17.4,2c1.6,0.3,2.2,1.6,2.4,3.1
		c0.1,1.8,0,3.6-0.4,5.3c-0.5,2.8,0.9,5,3.4,5.3c2.7,0.4,4.3-1,4.7-4c0.2-1.6,0.5-3.2,0.7-4.8c0.4-2.4,1.3-3.3,3.7-3.1
		c3.2,0.2,6.3,0.7,9.5,1.2c7,1.1,14,2.2,21,3.4c6.4,1.1,12.8,2.3,19.2,3.5c1.2,0.2,2.1,1.2,2.1,2.5c0.3,3.6,3,5,6,3
		c3.9-2.6,8.5-4.3,13.2-4.8c11-1.2,25.3,4.8,30.5,16.5C443.9,62.5,437,77.7,422.3,82.2z"/>
	<path class="st0" d="M237.2,37.4c0-3.2-1.6-5-4.8-5.3c-4.2-0.5-7.1,1.9-6.8,6.1c0.3,4.4,0.3,8.9,0.3,13.3c0,3.5,2,5.4,5.6,5.4
		c3.6,0,5.6-2,5.6-5.4c0-2.3,0-4.6,0-6.9V37.4z"/>
</g>
</svg>
