<svg xmlns="http://www.w3.org/2000/svg" viewBox="0 0 443.21 129.16"><defs><style>.cls-1{fill:#06444f;}.cls-2{fill:#f3c2bb;}.cls-3{fill:#006385;}.cls-4{fill:#fffefe;}</style></defs><title>Asset 24</title><g id="Layer_2" data-name="Layer 2"><g id="Camada_1" data-name="Camada 1"><path class="cls-1" d="M188.07,47.46c1.43-2.25,2.75-4.07,3.82-6a168.65,168.65,0,0,1,10.67-17.78,29.42,29.42,0,0,1,18.35-11.84c7.88-1.66,15.69-1.72,23.36,1.13a31.68,31.68,0,0,1,12.28,7.66c.87.91,1.71,1.31,2.35-.21,2.32-5.53,6.85-7.06,12.28-6.43,4.42.51,8.85.22,13.27.77,3.54.44,6.42,1.6,8,5,.72,1.56,0,3.35.49,5.07,1.54-.44,1.82-1.82,2.39-2.81,2.85-5,6-5.7,11.15-5.32,4.19.3,8.37.73,12.54,1.24,4,.49,6.82,1.13,7.65,5.82.07.41.19.94.7,1s.73-.48.93-.82a6.32,6.32,0,0,1,6.45-3.37c1.94.16,2.54-1.3,3.22-2.56,1.12-2.05,2.07-4.19,3.1-6.29a12,12,0,0,1,4.89-5q4.85-2.91,9.66-5.86A7.51,7.51,0,0,1,359,0c3.08-.28,5.95,1,9,1.13s4.67,2.57,6.34,4.76c2.24,2.93,4.46,5.89,6.7,8.82,2,2.63,2.05,4.81.14,7.47-.43.6-.85,1.22-1.23,1.85-1.67,2.82-1.45,3.34,1.94,3.55a44.22,44.22,0,0,1,5.63,1.15,3.74,3.74,0,0,1,3,3.44c.13,1.87,1,2,2.26,1.22a29.89,29.89,0,0,1,18.46-4.37C424.69,30,435,36,440.77,48.52A23.65,23.65,0,0,1,443,61.87a33.84,33.84,0,0,1-4.83,13.74c-4.5,6.93-8.65,14.08-13,21.1a25.3,25.3,0,0,1-9.54,9.06,7.54,7.54,0,0,0-3,2.78c-3.4,5.62-7,11.09-10.27,16.82-1.78,3.13-4.8,5-9.45,2.91-3.79-1.69-7.64-3-11.92-2.84a6.84,6.84,0,0,1-6.63-8.65,23.65,23.65,0,0,1,3.83-8,2.74,2.74,0,0,0,.37-3.46,5.06,5.06,0,0,1-.43-4.25c1.35-5.83,2.35-11.76,6.11-16.71.51-.67,1.13-1.75-.08-2.24-1-.41-2.36-.74-3.2.54a3.61,3.61,0,0,0-.53,1.68c-.32,5.52-3.49,9.78-6.28,14.19-3,4.66-5.9,9.32-8.56,14.16a8.06,8.06,0,0,1-8,3.61c-9.53-2-19.09-3.74-28.72-5.17-6-.89-11.93-1.79-17.91-2.62-4.05-.56-6.8-4.86-6.11-9.18.06-.36.24-.7.27-1.07.06-.56.32-1.25-.41-1.56s-.9.27-1.27.64a29.65,29.65,0,0,1-8.46,5.93,37.35,37.35,0,0,1-15.21,3.59,37.89,37.89,0,0,1-23.55-7.24c-.36-.25-.73-.5-1.08-.78-2.42-2-2.44-2-4.18.74-1.43,2.23-2.77,4.52-4.23,6.73-1.72,2.61-5,3.38-8,2.71a51.33,51.33,0,0,1-10.47-3.13,20.75,20.75,0,0,1-4.35-2.07c-1.87-1.46-3.87-1.59-6-1.52a41.43,41.43,0,0,1-19.1-3.77A22.63,22.63,0,0,1,188.88,90c-1.52-2.49-2.14-2.48-3.58.07-1.75,3.08-3.94,5.9-5.54,9.08-1.18,2.33-3.46,3.13-5.9,3.22-3.33.13-6.67.15-10,0-1.75-.06-3.24,1-5,.82-3.15-.4-5.83-1.48-7.39-4.48-1-1.92-2.19-1.44-2.84.12-1.94,4.7-6,5.41-10.19,5.23-4.48-.2-8.79,1-13.24,1.06-3.49,0-5.81-2.47-6-5.93,0-.37,0-.74,0-1.11,0-1,.17-2.22-.82-2.59-1.22-.45-1.39,1-1.93,1.69a35.59,35.59,0,0,1-16.88,11.53,38.27,38.27,0,0,1-15.72,1.61,31.72,31.72,0,0,1-17.57-7,24.75,24.75,0,0,1-7.85-10.62c-.25-.64-.58-1.84-1.52-1.62s-.55,1.32-.42,1.95c.69,3.48-1.53,5.89-3.09,8.5-3.57,6-7.26,12-10.9,17.92-1.6,2.63-4.25,3.51-7,4.16-3.49.83-7,1.61-10.48,2.5-4,1-8.2-.52-9.61-3.86a31.71,31.71,0,0,1-1.85-5.84c-1.12-5.26-2.93-10.32-4.34-15.5C7.07,93,4.66,85.13,2.4,77.2,1.61,74.44.91,71.64.2,68.85a7.38,7.38,0,0,1,.7-5.17c2.42-5,5.54-9.57,8.21-14.4,1.1-2,2.64-3.8,3.44-5.89,2.15-5.59,6.55-7.78,12-8.88,5.7-1.16,11.27-3.06,17-3.83,9.41-1.25,18.31-.09,25.7,6.64,1.27,1.16,1.94,1,2.76-.6,4-7.86,10.72-12.43,18.85-15.33a41.08,41.08,0,0,1,20.46-1.63A29.65,29.65,0,0,1,122.25,25c1.54,1.13,2.25.77,2.87-.93A16,16,0,0,1,128,18.61,7.74,7.74,0,0,1,132.69,16c6.86-1.08,13.77-1.49,20.67-2.11a37.1,37.1,0,0,1,23,5.08c8.25,5,14.19,15.77,11.58,25.5A4.72,4.72,0,0,0,188.07,47.46Zm8.56,33.59a3,3,0,0,1,.59-2c1.28-2.05,2.43-4.17,3.61-6.28.26-.46.43-1-.17-1.34a.91.91,0,0,0-1.29.45c-1.41,2.29-3,4.52-4.29,6.85-1,1.83-.67,2.29,1.56,2.34.27,2-1.6,2.85-2.19,4.4-.31.79-.86,1.54,0,2.07s1.53-.19,2-.92q2.46-4.15,4.88-8.34c.54-1,1-1.95.33-3.16-1.21.5-1.63,1.61-2.31,2.52C198.45,78.77,198.45,80.63,196.63,81.05ZM290,22.72a4.66,4.66,0,0,0-4.62-4.93c-5.46-.46-10.93-.77-16.4-1-2.9-.12-4.71,1.74-4.81,4.63q-.12,3.88-.2,7.77c0,1.41-.2,2.8-1.87,3.08s-2.14-.92-2.63-2.18a20.08,20.08,0,0,0-5.9-8.2c-9.69-8.18-20.81-10.32-32.82-6.73-9.5,2.85-15.79,9.33-18.59,18.93a41,41,0,0,0-.51,19.56c1.37,7,4.5,13.16,10.77,17.2S225.68,76,233,75.62a10,10,0,0,1,6.26,1.54,41.57,41.57,0,0,0,15.08,5.54,3.54,3.54,0,0,0,4.15-2.49,30,30,0,0,0,1.1-7,2.37,2.37,0,0,0-2.2-2.76c-2.71-.54-3.69-3.12-2.19-5.43.76-1.18,1.66-2.27,2.39-3.47a3.48,3.48,0,0,1,3.5-1.87,3.55,3.55,0,0,1,3.07,2.52C268.6,72.82,277.1,78.4,288,80c11.53,1.72,21.67-1.59,29.42-10.79,1.22-1.44,2.65-2.15,4.49-1.2s2.19,2.42,1.85,4.3-.57,3.66-.71,5.51a3.81,3.81,0,0,0,3.36,4.2c4.46.69,8.94,1.25,13.39,2q9.54,1.51,19.05,3.19c4.67.81,9.31,1.74,14,2.57a3.16,3.16,0,0,0,3.81-2.55q1-5,2-10c.5-2.69-.19-3.83-2.94-4.42-4.55-1-9.13-1.8-13.71-2.65-3.49-.65-7-1.19-10.48-1.89a3.21,3.21,0,0,1-2.73-3.9,2.93,2.93,0,0,1,3.51-2.59c1,.09,2.06.2,3.08.38,2.77.47,5.52,1.07,8.31,1.46a4,4,0,0,0,4.62-2.89c.36-1.66.68-3.33.91-5a4,4,0,0,0-3.59-4.91L355.12,49c-2.22-.38-3.59-2-3.32-4s1.75-3,4.43-2.53c7.74,1.26,15.45,2.68,23.17,4.05,2.19.39,3.81,1.33,4.22,3.83.23,1.4,1.32,2.11,2.82,2.44,5.27,1.15,10.55,2.33,15.74,3.78,2,.56,3,.4,4-1.62,1.07-2.31,3.34-2.62,5.7-2.53,2,.09,3.7.75,4.51,2.64,1.79,4.17-.7,8.11-5.24,8.35a16.87,16.87,0,0,1-3.32-.24c-4.2-.61-6.25.43-8.21,4.27-1.87,3.66-2.3,7.75-3.51,11.61-.46,1.49.29,2.57,1.8,3s2.94,1,4.43,1.42c4,1.1,8,2.2,12,3.18,1,.24,2.48.7,2.94-.66.85-2.51,2.91-3.16,5-3.82C437,77.64,443.87,62.5,437.58,48.51c-5.23-11.61-19.47-17.62-30.52-16.45a29.4,29.4,0,0,0-13.2,4.79c-3.08,2-5.79.61-6.05-3a2.42,2.42,0,0,0-2.09-2.47c-6.39-1.21-12.79-2.44-19.2-3.55-7-1.21-14-2.32-21-3.41-3.13-.48-6.29-.93-9.45-1.17-2.43-.17-3.35.75-3.73,3.13-.25,1.6-.48,3.21-.72,4.82-.45,3-2,4.38-4.71,4-2.42-.34-3.85-2.55-3.36-5.32a21,21,0,0,0,.38-5.3c-.12-1.52-.77-2.81-2.36-3.14a96.9,96.9,0,0,0-17.39-2,4,4,0,0,0-4.1,3.87q-1.4,15.59-2.75,31.16c-.25,2.79-2,4.57-4.71,4.58a4.49,4.49,0,0,1-4.86-4.61,28.43,28.43,0,0,1,.05-3.33C288.49,42.06,289.19,33,290,22.72ZM175.59,75.78c4.31-.21,7.49-.36,10.66-.53,2.34-.13,2.89-1.13,1.69-3.14-2.81-4.69-5.61-9.4-8.49-14a5.85,5.85,0,0,1,.26-7.32,18.71,18.71,0,0,0-2-24.38c-5.82-5.72-13-8-21-7.85-7.55.15-15.06,1.11-22.56,2a3,3,0,0,0-3,3.4c.06,1.63.17,3.26.34,4.88.23,2.18-.3,4-2.43,5s-3.86.36-5.46-1.13A30.3,30.3,0,0,0,120,29.35c-8-5.35-16.62-6.55-25.84-4.42s-16.33,7-20.71,15.54c-1.91,3.71-5.31,4.38-8.27,1.48-5.57-5.45-12.34-7.25-19.92-6.9a56.43,56.43,0,0,0-10.89,2.06C30,38.21,25.49,39,21.26,40.55A4.8,4.8,0,0,0,18,46.32c.94,3.57,1.94,7.12,2.93,10.68Q24,68.1,27.11,79.2C28.72,85,30.28,90.75,32,96.49c.78,2.7,2.67,3.53,5.33,2.78q4.8-1.33,9.66-2.44c4.24-1,4.77-1.84,3.65-6-.88-3.29-1.71-6.59-2.33-9.93-.53-2.84.5-4.49,2.87-5.26A29.1,29.1,0,0,0,66.81,64.37c1.17-1.72,3-2.08,4.94-1.7A3.87,3.87,0,0,1,74.88,66a20.18,20.18,0,0,0,7.5,11.48c11.38,9,29.42,7.9,40.18-2.37a29.38,29.38,0,0,0,5.36-7,4.32,4.32,0,0,1,4.91-2.23,4,4,0,0,1,3.35,3.87c.19,2.07.57,4.11.72,6.17.13,1.77.92,2.56,2.7,2.37,4.93-.53,9.86-1.08,14.79-1.56,1.57-.15,2.23-.81,2.1-2.43-.23-2.72-.3-5.47-.52-8.2-.14-1.65.19-3.07,1.9-3.55s3.2-.28,4.25,1.45c1.22,2,2.8,3.85,3.85,6C168.23,74.47,171.11,77.54,175.59,75.78ZM374.77,18.63c1.12,0,1.83.21,2.13-.44s-.18-1.13-.54-1.59c-2.43-3.16-4.85-6.34-7.34-9.46-1.16-1.44-9.56-2.89-11.23-2a1.22,1.22,0,0,0-.19.12c-3.38,2.12-6.78,4.22-10.14,6.37-.45.29-1.25.54-1.07,1.24a1.71,1.71,0,0,0,1.55,1.09c2,.32,3.9.52,5.74-.79a55.45,55.45,0,0,1,5.18-3c3.39-1.93,5.62-1.48,8,1.59,1.13,1.47,2.32,2.89,3.36,4.41A5.27,5.27,0,0,0,374.77,18.63Zm20.75,73.63c-2.46-.07-3.62,1.1-3.77,3.76-.1,1.78,1.35,2.41,2.78,2.53a54.45,54.45,0,0,1,13.5,3.27c2.58.93,2.74-1.21,3.37-2.67s.3-2.76-1.45-3.27-3.41-1-5.13-1.4C401.6,93.69,398.37,92.94,395.52,92.26ZM20.16,121.35a2,2,0,0,0,1.27-.93c3-5.74,6.51-11.12,9.91-16.6.34-.56.94-1.14,0-1.65s-1.17.19-1.58.75c-2,2.79-4.11,5.51-6.06,8.34-1.66,2.39-3.2,4.87-4.7,7.36C18.24,119.93,18.82,121.33,20.16,121.35Zm290.22-18.17c.89,0,1.09-.58,1.4-1.06a52.25,52.25,0,0,1,3.55-5,65.32,65.32,0,0,0,8.09-12c.3-.61.83-1.3-.18-1.89s-1.41,0-1.83.61c-1.33,1.92-2.65,3.85-3.91,5.83-2.51,3.95-5,7.93-7.45,11.9C309.59,102.28,309.43,102.9,310.38,103.18Zm17.2-17.62c-.22-.34-.32-.68-.53-.78-.58-.25-.95.12-1.3.55-2.57,3.17-4.55,6.75-7.15,9.91-1.75,2.13-3.61,4.24-4.64,6.87-.24.61-1.32,1.42-.09,2,.84.38,1.47,0,2.15-.91,3.24-4.08,5.73-8.66,8.71-12.91C325.77,88.78,326.62,87.15,327.58,85.56ZM63,96.11a2.28,2.28,0,0,0,1.79-1.33q4.47-7.4,8.87-14.84c.39-.66,1-1.59,0-2.12-.8-.42-1.24.58-1.63,1.12C70,81.85,68,84.76,66,87.75c-1.24,1.88-2.36,3.85-3.42,5.85C62.08,94.48,61.79,95.55,63,96.11Zm189.61-9.73c-.48-.55-.72-1.63-1.93-1a4.08,4.08,0,0,0-1.56,1.79c-2.21,4.19-4.49,8.34-6.71,12.52-.42.78-1.58,1.88-.85,2.4,1.22.87,1.71-.86,2.52-1.47a.81.81,0,0,0,.16-.16c2.46-4,4.93-8,7.37-12A19.7,19.7,0,0,0,252.64,86.38Zm-214.1,33.8c2.29-3.6,4.43-6.87,6.47-10.2,1.56-2.55,3-5.17,4.49-7.78.43-.78.78-1.78-.21-2.33s-1.48.47-1.91,1.07a30.1,30.1,0,0,0-2,3.38c-2.22,4.16-4.38,8.36-6.64,12.51A4,4,0,0,0,38.54,120.18Zm97.35-36.81c-.08-.1-.18-.34-.34-.4-.93-.32-1.41.42-1.8,1a132.76,132.76,0,0,0-9.33,14.56c-.36.68-1.26,1.39-.15,2,.9.49,1.56-.08,2.11-1,2.55-4.27,5.21-8.48,7.79-12.74C134.82,85.71,135.3,84.55,135.89,83.37ZM67.31,100.94a4.74,4.74,0,0,0,2.32-2.1C72.19,94.9,74.76,91,77.3,87c.42-.65,1.63-1.43.51-2.19s-1.67.42-2.24,1.19c-1.67,2.3-3.39,4.58-5,6.92-1.2,1.73-2.3,3.54-3.4,5.34C66.61,99.16,66.31,100.08,67.31,100.94Zm42.16-11.6c-.08-.65.11-1.2-.46-1.36a1,1,0,0,0-1.12.53c-.46.67-.83,1.39-1.26,2.08q-3.73,6-7.49,11.91c-.35.56-.54,1.14.08,1.54a1.32,1.32,0,0,0,1.66-.16,6.45,6.45,0,0,0,1.05-1.42q3.61-5.91,7.18-11.86A4.46,4.46,0,0,0,109.47,89.34Zm178.64,12a.92.92,0,0,0,.95-.52c2.88-5.09,5.78-10.16,8.66-15.25.34-.58.64-1.29-.14-1.74s-1.3.14-1.64.71c-.7,1.18-1.31,2.42-2,3.64-2,3.81-4,7.64-6.09,11.44C287.5,100.38,287.14,101,288.11,101.38Zm63.35-8.15c0-.8-.38-1.14-1.1-.68a3.78,3.78,0,0,0-1.26,1.19c-1.37,2.36-3.22,4.35-4.77,6.56-1.43,2-2.65,4.2-4.26,6.12-.39.47-1.12,1.5-.05,2.09.87.48,1.53-.11,2-.9.07-.13.19-.23.27-.35,2.85-4.23,5.68-8.46,8.55-12.68C351.09,94.15,351.47,93.8,351.46,93.23Zm-92.57,1.2c0,.87-.08,1.53.75,1.67.64.11.88-.28,1.11-.82.65-1.47,1.36-2.91,2.05-4.36,1.77-3.66,3.55-7.32,5.29-11,.19-.41.78-.93.15-1.36s-1.12-.09-1.5.47a6.82,6.82,0,0,0-.55.68q-3.35,6.56-6.67,13.12A15.52,15.52,0,0,0,258.89,94.43Zm99.68,16a2.43,2.43,0,0,0,1.75-1.3,133.24,133.24,0,0,0,8.49-12.93c.4-.7.8-1.5.12-1.95s-1.35.29-1.76.92c-1.08,1.64-2.12,3.31-3.19,4.95-1.84,2.82-3.71,5.62-5.52,8.47C358.12,109.14,357.24,109.94,358.57,110.44ZM167,82.17a3,3,0,0,0-1.81,1.53q-3.43,5.11-6.78,10.29c-.56.87-1.7,2-.34,2.83s1.78-.85,2.51-1.59a1.49,1.49,0,0,0,.28-.34c1.54-3.17,3.44-6.12,5.26-9.12C166.71,84.76,168,83.71,167,82.17ZM382.52,56.11c0-.45-.1-.93-.59-1.06-.75-.22-1.22.27-1.63.84a75,75,0,0,0-6.67,11.3c-.3.61-1.3,1.39-.47,1.88s1.48-.48,2-1.24c1.46-2.21,3.07-4.31,4.43-6.58A27.16,27.16,0,0,0,382.52,56.11Zm-1.59,63.16c.81,0,1.23-.67,1.63-1.29,2.17-3.36,4.31-6.73,6.51-10.07.38-.59.92-1.16.26-1.71s-1.42-.14-1.88.51A107.57,107.57,0,0,0,380.37,118C380.06,118.6,379.92,119.18,380.93,119.27ZM233.78,86.19a.83.83,0,0,0-.51-1c-.84-.29-1.2.28-1.55.88-1.87,3.14-3.76,6.27-5.6,9.43-.4.66-1.67,1.39-.48,2.18s2.18,0,2.78-1c1.07-1.92,2.07-3.88,3.06-5.85A30,30,0,0,1,233.78,86.19Zm-9.43,5.54a1.29,1.29,0,0,0,1.14-.49c2.45-3.39,4.43-7.06,6.54-10.66a.82.82,0,0,0-.11-1,.9.9,0,0,0-1.22,0,5.13,5.13,0,0,0-1.06,1.12c-2,3.15-4,6.33-5.95,9.48a1.08,1.08,0,0,0-.12,1.24C223.75,91.58,224.18,91.65,224.35,91.73Zm-68.26-.08a11.57,11.57,0,0,0,.93-.83c2.51-2.7,4.35-5.88,6.39-8.91.35-.52.49-1.18-.12-1.57s-1.11,0-1.53.46c-2.46,2.93-4.41,6.21-6.57,9.34C154.74,90.8,155.22,91.38,156.09,91.65ZM99.66,93.94c0-.42.09-.94-.42-1.14s-1,.15-1.24.62c-1.77,3.08-3.57,6.15-5.3,9.25-.35.64-.5,1.62.17,2s1.15-.44,1.46-1c1.35-2.34,2.68-4.69,3.93-7.09C98.72,95.74,99.67,95.09,99.66,93.94Zm25.82-9.53c1.13.17,1.94.55,2.51-.37,1.74-2.85,3.45-5.72,5.17-8.59.29-.47.4-1-.13-1.36a.91.91,0,0,0-1.33.37Zm70-34.43a8.12,8.12,0,0,0-.83.65c-2.4,2.48-3.13,5.91-4.93,8.73a.72.72,0,0,0,.41,1.09c.58.19.92-.06,1.23-.61,1.28-2.3,2.63-4.57,3.95-6.85A2.93,2.93,0,0,0,195.43,50ZM336.8,105.86a2.65,2.65,0,0,0,.54-.32,20.52,20.52,0,0,0,4.23-6.35.82.82,0,0,0-.21-1,.85.85,0,0,0-1.21.07c-1.46,2-3.27,3.84-4.14,6.26A1,1,0,0,0,336.8,105.86ZM268.72,90a1.8,1.8,0,0,0-1.54,1.14c-.93,1.57-1.72,3.23-2.57,4.85-.32.6-.64,1.33,0,1.79s1.45-.11,1.8-.74c1.05-1.9,2-3.84,3-5.8C269.7,90.62,269.51,90.05,268.72,90Zm116.5-30.57c0-.67.07-1.15-.47-1.35a.81.81,0,0,0-1,.18c-1,1.74-2.37,3.32-2.88,5.32a1.07,1.07,0,0,0,.35,1.2c.31.21.82.28,1,0C383.29,62.91,384.29,61.06,385.22,59.41ZM307,90.75a3.61,3.61,0,0,0,.46-.1c.57-.22,3.14-4.57,3-5.19a1.06,1.06,0,0,0-.38-.71.87.87,0,0,0-1.18.26c-.91,1.42-1.83,2.84-2.62,4.32C305.94,89.94,306,90.67,307,90.75Zm64.09-69.84c-.08-.64.19-1.31-.52-1.44a1.14,1.14,0,0,0-1.2.76c-.48,1-1,2.07-1.52,3.09-.26.49-.47,1,0,1.39a1,1,0,0,0,1.51-.27A9.91,9.91,0,0,0,371.05,20.91Zm-25.76-4.16c-.12-.51,0-1-.42-1.27a.68.68,0,0,0-.9.41c-.56,1.22-1.49,2.32-1.44,3.77,0,.42-.08,1,.49,1.07a1,1,0,0,0,1.09-.56C344.56,19,344.92,17.85,345.29,16.75Z"/><path class="cls-2" d="M290,22.72c-.79,10.28-1.49,19.34-2.18,28.41a28.43,28.43,0,0,0-.05,3.33,4.49,4.49,0,0,0,4.86,4.61c2.67,0,4.46-1.79,4.71-4.58q1.35-15.58,2.75-31.16a4,4,0,0,1,4.1-3.87,96.9,96.9,0,0,1,17.39,2c1.59.33,2.24,1.62,2.36,3.14a21,21,0,0,1-.38,5.3c-.49,2.77.94,5,3.36,5.32,2.67.38,4.26-1,4.71-4,.24-1.61.47-3.22.72-4.82.38-2.38,1.3-3.3,3.73-3.13,3.16.24,6.32.69,9.45,1.17,7,1.09,14,2.2,21,3.41,6.41,1.11,12.81,2.34,19.2,3.55a2.42,2.42,0,0,1,2.09,2.47c.26,3.63,3,5,6.05,3a29.4,29.4,0,0,1,13.2-4.79c11.05-1.17,25.29,4.84,30.52,16.45,6.29,14-.62,29.13-15.29,33.72-2.13.66-4.19,1.31-5,3.82-.46,1.36-2,.9-2.94.66-4-1-8-2.08-12-3.18-1.49-.41-2.95-.94-4.43-1.42s-2.26-1.56-1.8-3c1.21-3.86,1.64-8,3.51-11.61,2-3.84,4-4.88,8.21-4.27a16.87,16.87,0,0,0,3.32.24c4.54-.24,7-4.18,5.24-8.35-.81-1.89-2.5-2.55-4.51-2.64-2.36-.09-4.63.22-5.7,2.53-.93,2-1.95,2.18-4,1.62C397,55.13,391.71,54,386.44,52.8c-1.5-.33-2.59-1-2.82-2.44-.41-2.5-2-3.44-4.22-3.83-7.72-1.37-15.43-2.79-23.17-4.05-2.68-.44-4.17.59-4.43,2.53s1.1,3.58,3.32,4l10.48,1.81a4,4,0,0,1,3.59,4.91c-.23,1.69-.55,3.36-.91,5a4,4,0,0,1-4.62,2.89c-2.79-.39-5.54-1-8.31-1.46-1-.18-2.05-.29-3.08-.38a2.93,2.93,0,0,0-3.51,2.59,3.21,3.21,0,0,0,2.73,3.9c3.48.7,7,1.24,10.48,1.89,4.58.85,9.16,1.68,13.71,2.65,2.75.59,3.44,1.73,2.94,4.42q-.94,5-2,10a3.16,3.16,0,0,1-3.81,2.55c-4.66-.83-9.3-1.76-14-2.57Q349.34,85.54,339.8,84c-4.45-.71-8.93-1.27-13.39-2a3.81,3.81,0,0,1-3.36-4.2c.14-1.85.39-3.69.71-5.51s-.09-3.37-1.85-4.3-3.27-.24-4.49,1.2C309.67,78.44,299.53,81.75,288,80c-10.9-1.63-19.4-7.21-23.86-17.83a3.55,3.55,0,0,0-3.07-2.52,3.48,3.48,0,0,0-3.5,1.87c-.73,1.2-1.63,2.29-2.39,3.47-1.5,2.31-.52,4.89,2.19,5.43a2.37,2.37,0,0,1,2.2,2.76,30,30,0,0,1-1.1,7,3.54,3.54,0,0,1-4.15,2.49,41.57,41.57,0,0,1-15.08-5.54A10,10,0,0,0,233,75.62c-7.3.35-14.3-.74-20.58-4.79s-9.4-10.17-10.77-17.2a41,41,0,0,1,.51-19.56c2.8-9.6,9.09-16.08,18.59-18.93,12-3.59,23.13-1.45,32.82,6.73a20.08,20.08,0,0,1,5.9,8.2c.49,1.26,1.07,2.44,2.63,2.18s1.84-1.67,1.87-3.08q.07-3.89.2-7.77c.1-2.89,1.91-4.75,4.81-4.63,5.47.25,10.94.56,16.4,1A4.66,4.66,0,0,1,290,22.72Zm19,9.42a27.26,27.26,0,0,0-3,0c-1.86.22-3.32,1.07-3.39,3.13-.06,1.85-.32,3.67-.49,5.51-.53,5.57-.91,11.17-1.5,16.74a2.53,2.53,0,0,0,2,3.09,30,30,0,0,1,5.73,2.3c2.75,1.57,5.62,3,8.93,1.14a4.56,4.56,0,0,1,3.89-.12c3.84,1.52,7.53,3.5,9.76,7,1.87,2.94,4.7,4.17,7.54,5.39a35.37,35.37,0,0,0,4.38,1.32c4.73,1.33,9.4,2.26,14.23.64a3,3,0,0,0,2.34-3.51C359.19,73.1,358,73,356.61,73c-2.49,0-4.91.75-7.47.08-3.38-.89-6.9-4.8-6.53-8,.43-3.63,3.71-7.39,7.8-7.31a70.28,70.28,0,0,1,9.41,1.29c1.21.19,2.73.5,3.09-1.18s-1.17-2.42-2.41-2.58a86.79,86.79,0,0,1-12.15-2.85,22.6,22.6,0,0,1-8.82-4.26c-4.34-3.73-9.1-6.61-15-7.47-2.93-.42-5.89-1.64-7.6-4.12C314.85,33.61,312.6,31.47,309,32.14ZM409.18,73.89c2.58.4,5.9-.21,9.19-.54,2.42-.24,4.95.19,7.25-.6,7.4-2.54,9.22-8.32,8.91-14.8-.28-5.85-3.12-10.72-7.43-14.65-3.2-2.91-7-4.57-11.35-4a33.05,33.05,0,0,0-9.57,2.58c-4.07,1.84-8.16,3.63-12.3,5.31-.88.36-1.85.61-1.84,1.59a2.05,2.05,0,0,0,2.07,2,24.49,24.49,0,0,1,4.09.82c1.49.35,3.17.94,4.64-.35a11.1,11.1,0,0,1,11.64-2.28c3.2,1.06,6.46,5.25,6.46,8.38,0,5.33-2.63,9.18-6.36,10.28a15.39,15.39,0,0,1-7.84.57c-3.91-.86-4.23-.55-5.25,3.21-.42,1.56.19,2.47,1.81,2.54S406.71,73.89,409.18,73.89ZM242.46,43.12c0,1,0,1.93,0,2.89-.11,2.61.78,4.62,3.39,5.53a16.42,16.42,0,0,1,5.3,3.06c2.25,1.94,3.8,1.26,5.64-.48a6.09,6.09,0,0,1,3.79-1.57c3.28-.24,6,.44,8.41,5.35,1.44,3,1.8,3,4.93,2.18,2.58-.63,5-1.78,7.64-2.12,1.8-.23,2.43-1.1,2.3-2.81a32.29,32.29,0,0,1-.27-5c.31-4.27.83-8.52,1.08-12.79.14-2.21-1.09-3.2-3.18-2.55a44.23,44.23,0,0,0-7,2.73A31.77,31.77,0,0,1,248.3,39C241.85,36.63,242.52,36.75,242.46,43.12Zm-22.67,1.55c.33-4.32-1.3-9.34,2.73-13.32.77-.76.32-1.7-.91-1.85a6.56,6.56,0,0,0-1.77,0c-3.72.58-7.45,1.08-11.13,1.85a4.66,4.66,0,0,0-4,3.78c-1.59,7-1,13.78.74,20.6.29,1.15.91,1.23,1.87,1.38,1.66.26,2.91-1.07,4.47-.93,2.27.2,4.26-1.09,6.53-1.07,1.19,0,1.54-1.15,1.52-2.32C219.76,50.19,219.79,47.6,219.79,44.67Zm17.4-.18v-7.1c0-3.17-1.63-5-4.75-5.32-4.18-.5-7.06,1.87-6.81,6.08.26,4.44.26,8.86.3,13.3,0,3.47,2,5.38,5.61,5.35s5.59-2,5.65-5.43C237.22,49.08,237.19,46.79,237.19,44.49Z"/><path class="cls-2" d="M175.59,75.78c-4.48,1.76-7.36-1.31-9.62-5.85-1.05-2.1-2.63-3.93-3.85-6-1.05-1.73-2.62-1.9-4.25-1.45s-2,1.9-1.9,3.55c.22,2.73.29,5.48.52,8.2.13,1.62-.53,2.28-2.1,2.43-4.93.48-9.86,1-14.79,1.56-1.78.19-2.57-.6-2.7-2.37-.15-2.06-.53-4.1-.72-6.17a4,4,0,0,0-3.35-3.87,4.32,4.32,0,0,0-4.91,2.23,29.38,29.38,0,0,1-5.36,7c-10.76,10.27-28.8,11.36-40.18,2.37A20.18,20.18,0,0,1,74.88,66a3.87,3.87,0,0,0-3.13-3.33c-2-.38-3.77,0-4.94,1.7A29.1,29.1,0,0,1,51.13,75.66c-2.37.77-3.4,2.42-2.87,5.26.62,3.34,1.45,6.64,2.33,9.93,1.12,4.14.59,5-3.65,6q-4.86,1.1-9.66,2.44c-2.66.75-4.55-.08-5.33-2.78C30.28,90.75,28.72,85,27.11,79.2Q24,68.1,20.9,57c-1-3.56-2-7.11-2.93-10.68a4.8,4.8,0,0,1,3.29-5.77C25.49,39,30,38.21,34.34,37.11a56.43,56.43,0,0,1,10.89-2.06c7.58-.35,14.35,1.45,19.92,6.9,3,2.9,6.36,2.23,8.27-1.48C77.8,31.93,84.93,27,94.13,24.93S112,24,120,29.35a30.3,30.3,0,0,1,3.63,3.25c1.6,1.49,3.35,2.14,5.46,1.13s2.66-2.8,2.43-5c-.17-1.62-.28-3.25-.34-4.88a3,3,0,0,1,3-3.4c7.5-.85,15-1.81,22.56-2,8-.16,15.19,2.13,21,7.85a18.71,18.71,0,0,1,2,24.38,5.85,5.85,0,0,0-.26,7.32c2.88,4.65,5.68,9.36,8.49,14,1.2,2,.65,3-1.69,3.14C183.08,75.42,179.9,75.57,175.59,75.78ZM169.41,65c1.94.13,3.57-.67,5.25-1.22,3.33-1.09,3.44-1.4,1.62-4.43-2.67-4.45-2.44-6.3,1.07-10.27a11,11,0,0,0,3-6.5c0-.78.65-1.68-.09-2.28s-1.68-.22-2.53.11c-2.28.88-4.58,1.7-7.08,1.42-1.76-.19-2.75.53-3.65,2.12a11.39,11.39,0,0,1-13.19,5c-3.08-1.09-5-4.53-5.18-9,0-1,.36-2.14-.87-2.77a46.24,46.24,0,0,0-9.52-4.15c-1.4-.36-2.8-.39-3.91,1.18-3.23,4.59-8.79,5.63-13.43.89-1-1.06-2.17-2.53-3.94-2-3,.87-6.19,1.46-9,3-1.88,1-2,1.86-.34,3.3s3.18,2.91,3.48,5c.67,4.63,1.78,9.21,1.94,13.92.08,2.69,1,3.32,3.65,2.64a36.94,36.94,0,0,1,20.53.31c4,1.23,8.08,2.3,12.12,3.46,1.86.53,3,.37,3.9-1.87a6.53,6.53,0,0,1,5.64-4.1c3.51-.37,5.74,1.41,7.38,4.23C167,64.31,167.75,65.47,169.41,65ZM44.53,81.25c-.54-5.36,2-7.53,5.08-8.92,1.33-.6,2.79-.9,4.13-1.5A22.06,22.06,0,0,0,63.35,63c2.14-3.19,5.18-4.76,8.93-4a7.67,7.67,0,0,1,6.45,6.72A13.35,13.35,0,0,0,81.32,71a3.27,3.27,0,0,0,4.24,1.33c1.59-.6,3.11-1.37,4.72-1.84,3.41-1,4.06-3,3.13-5.61-1.57-4.37-1.59-9-2.6-13.51-.36-1.59-1-2.34-2.62-2.38A32.67,32.67,0,0,0,80,50.3c-5.47,1.26-10.64-.53-15.94-.87-.06,0-.11-.1-.17-.13-4.39-1.82-7.21-.08-6.9,4.54.25,3.77-1.28,6.61-3.77,9.09-3.49,3.48-9.21,4.15-12.3,1.48-3.78-3.27-3.76-7.86-4.32-12.25-.07-.59.57-1.28-.05-1.86-.82-.75-1.38.2-1.94.48-2.29,1.15-4.56,2.38-6.76,3.7S25,57.42,25.69,59.93Q28.86,72,32.09,84.05a4.27,4.27,0,0,0,1.26,2.3c1.6,1.32,9.43.51,10.69-1.14C45,84,44.34,82.48,44.53,81.25Zm57.84-14.61c4.71,0,7.31-2.75,6.74-7.45-.54-4.48-1.27-8.93-1.93-13.39a6.1,6.1,0,0,0-7.25-5.41c-4.38.72-6.5,3.48-5.83,7.53.72,4.37,1.45,8.74,2.07,13.13C96.67,64.63,98.78,66.61,102.37,66.64Zm49.75-28.8c.06.81.14,2.06.24,3.31,0,.37.07.74.12,1.1a4.19,4.19,0,0,0,4.62,3.81c3.43-.16,7.24-3.67,7.41-6.83s-2.75-6.36-6.55-6.92C154,31.73,152.08,33.37,152.12,37.84ZM45.39,48.9C42,48.84,39.72,51,40.26,53.76c.39,2,.92,3.88,1.49,5.78a4.18,4.18,0,0,0,4.52,3.08c2.8-.19,6.45-3.75,6.71-6.55C53.37,51.83,50.37,49,45.39,48.9Z"/><path class="cls-2" d="M374.77,18.63a5.27,5.27,0,0,1-4.57-2.51c-1-1.52-2.23-2.94-3.36-4.41-2.36-3.07-4.59-3.52-8-1.59a55.45,55.45,0,0,0-5.18,3c-1.84,1.31-3.75,1.11-5.74.79a1.71,1.71,0,0,1-1.55-1.09c-.18-.7.62-.95,1.07-1.24,3.36-2.15,6.76-4.25,10.14-6.37a1.22,1.22,0,0,1,.19-.12c1.67-.85,10.07.6,11.23,2,2.49,3.12,4.91,6.3,7.34,9.46.36.46.81,1,.54,1.59S375.89,18.67,374.77,18.63Z"/><path class="cls-2" d="M395.52,92.26c2.85.68,6.08,1.43,9.3,2.22,1.72.43,3.43.91,5.13,1.4s2.12,1.71,1.45,3.27-.79,3.6-3.37,2.67a54.45,54.45,0,0,0-13.5-3.27c-1.43-.12-2.88-.75-2.78-2.53C391.9,93.36,393.06,92.19,395.52,92.26Z"/><path class="cls-3" d="M20.16,121.35c-1.34,0-1.92-1.42-1.13-2.73,1.5-2.49,3-5,4.7-7.36,1.95-2.83,4.05-5.55,6.06-8.34.41-.56.8-1.18,1.58-.75s.31,1.09,0,1.65c-3.4,5.48-6.95,10.86-9.91,16.6A2,2,0,0,1,20.16,121.35Z"/><path class="cls-3" d="M310.38,103.18c-.95-.28-.79-.9-.33-1.63,2.49-4,4.94-8,7.45-11.9,1.26-2,2.58-3.91,3.91-5.83.42-.61.91-1.16,1.83-.61s.48,1.28.18,1.89a65.32,65.32,0,0,1-8.09,12,52.25,52.25,0,0,0-3.55,5C311.47,102.6,311.27,103.23,310.38,103.18Z"/><path class="cls-3" d="M327.58,85.56c-1,1.59-1.81,3.22-2.85,4.71-3,4.25-5.47,8.83-8.71,12.91-.68.86-1.31,1.29-2.15.91-1.23-.56-.15-1.37.09-2,1-2.63,2.89-4.74,4.64-6.87,2.6-3.16,4.58-6.74,7.15-9.91.35-.43.72-.8,1.3-.55C327.26,84.88,327.36,85.22,327.58,85.56Z"/><path class="cls-3" d="M63,96.11c-1.24-.56-1-1.63-.48-2.51,1.06-2,2.18-4,3.42-5.85,2-3,4-5.9,6.13-8.81.39-.54.83-1.54,1.63-1.12,1,.53.35,1.46,0,2.12q-4.41,7.44-8.87,14.84A2.28,2.28,0,0,1,63,96.11Z"/><path class="cls-3" d="M252.64,86.38a19.7,19.7,0,0,1-1,2.17c-2.44,4-4.91,8-7.37,12a.81.81,0,0,1-.16.16c-.81.61-1.3,2.34-2.52,1.47-.73-.52.43-1.62.85-2.4,2.22-4.18,4.5-8.33,6.71-12.52a4.08,4.08,0,0,1,1.56-1.79C251.92,84.75,252.16,85.83,252.64,86.38Z"/><path class="cls-3" d="M38.54,120.18a4,4,0,0,1,.19-3.35c2.26-4.15,4.42-8.35,6.64-12.51a30.1,30.1,0,0,1,2-3.38c.43-.6,1-1.6,1.91-1.07s.64,1.55.21,2.33C48,104.81,46.57,107.43,45,110,43,113.31,40.83,116.58,38.54,120.18Z"/><path class="cls-3" d="M135.89,83.37c-.59,1.18-1.07,2.34-1.72,3.39-2.58,4.26-5.24,8.47-7.79,12.74-.55.91-1.21,1.48-2.11,1-1.11-.6-.21-1.31.15-2a132.76,132.76,0,0,1,9.33-14.56c.39-.55.87-1.29,1.8-1C135.71,83,135.81,83.27,135.89,83.37Z"/><path class="cls-3" d="M67.31,100.94c-1-.86-.7-1.78-.15-2.67,1.1-1.8,2.2-3.61,3.4-5.34,1.62-2.34,3.34-4.62,5-6.92.57-.77,1.19-1.91,2.24-1.19s-.09,1.54-.51,2.19c-2.54,4-5.11,7.89-7.67,11.83A4.74,4.74,0,0,1,67.31,100.94Z"/><path class="cls-3" d="M109.47,89.34a4.46,4.46,0,0,1-.36,1.26q-3.56,6-7.18,11.86a6.45,6.45,0,0,1-1.05,1.42,1.32,1.32,0,0,1-1.66.16c-.62-.4-.43-1-.08-1.54q3.77-6,7.49-11.91c.43-.69.8-1.41,1.26-2.08A1,1,0,0,1,109,88C109.58,88.14,109.39,88.69,109.47,89.34Z"/><path class="cls-3" d="M288.11,101.38c-1-.42-.61-1-.22-1.72C290,95.86,292,92,294,88.22c.65-1.22,1.26-2.46,2-3.64.34-.57.88-1.15,1.64-.71s.48,1.16.14,1.74c-2.88,5.09-5.78,10.16-8.66,15.25A.92.92,0,0,1,288.11,101.38Z"/><path class="cls-3" d="M351.46,93.23c0,.57-.37.92-.66,1.35-2.87,4.22-5.7,8.45-8.55,12.68-.08.12-.2.22-.27.35-.43.79-1.09,1.38-2,.9-1.07-.59-.34-1.62.05-2.09,1.61-1.92,2.83-4.09,4.26-6.12,1.55-2.21,3.4-4.2,4.77-6.56a3.78,3.78,0,0,1,1.26-1.19C351.08,92.09,351.45,92.43,351.46,93.23Z"/><path class="cls-3" d="M258.89,94.43a15.52,15.52,0,0,1,.63-1.59q3.32-6.57,6.67-13.12a6.82,6.82,0,0,1,.55-.68c.38-.56.92-.86,1.5-.47s0,1-.15,1.36c-1.74,3.67-3.52,7.33-5.29,11-.69,1.45-1.4,2.89-2.05,4.36-.23.54-.47.93-1.11.82C258.81,96,258.92,95.3,258.89,94.43Z"/><path class="cls-3" d="M358.57,110.44c-1.33-.5-.45-1.3-.11-1.84,1.81-2.85,3.68-5.65,5.52-8.47,1.07-1.64,2.11-3.31,3.19-4.95.41-.63,1-1.39,1.76-.92s.28,1.25-.12,1.95a133.24,133.24,0,0,1-8.49,12.93A2.43,2.43,0,0,1,358.57,110.44Z"/><path class="cls-3" d="M167,82.17c1,1.54-.27,2.59-.88,3.6-1.82,3-3.72,6-5.26,9.12a1.49,1.49,0,0,1-.28.34c-.73.74-1.21,2.36-2.51,1.59s-.22-2,.34-2.83q3.35-5.17,6.78-10.29A3,3,0,0,1,167,82.17Z"/><path class="cls-3" d="M382.52,56.11a27.16,27.16,0,0,1-2.94,5.14c-1.36,2.27-3,4.37-4.43,6.58-.51.76-1.12,1.77-2,1.24s.17-1.27.47-1.88a75,75,0,0,1,6.67-11.3c.41-.57.88-1.06,1.63-.84C382.42,55.18,382.52,55.66,382.52,56.11Z"/><path class="cls-3" d="M380.93,119.27c-1-.09-.87-.67-.56-1.25a107.57,107.57,0,0,1,7.08-11.31c.46-.65,1.17-1.1,1.88-.51s.12,1.12-.26,1.71c-2.2,3.34-4.34,6.71-6.51,10.07C382.16,118.6,381.74,119.22,380.93,119.27Z"/><path class="cls-3" d="M233.78,86.19a30,30,0,0,0-2.3,4.65c-1,2-2,3.93-3.06,5.85-.6,1.07-1.67,1.76-2.78,1s.08-1.52.48-2.18c1.84-3.16,3.73-6.29,5.6-9.43.35-.6.71-1.17,1.55-.88A.83.83,0,0,1,233.78,86.19Z"/><path class="cls-3" d="M224.35,91.73c-.17-.08-.6-.15-.78-.39a1.08,1.08,0,0,1,.12-1.24c2-3.15,3.95-6.33,5.95-9.48a5.13,5.13,0,0,1,1.06-1.12.9.9,0,0,1,1.22,0,.82.82,0,0,1,.11,1c-2.11,3.6-4.09,7.27-6.54,10.66A1.29,1.29,0,0,1,224.35,91.73Z"/><path class="cls-3" d="M156.09,91.65c-.87-.27-1.35-.85-.9-1.51,2.16-3.13,4.11-6.41,6.57-9.34.42-.51,1-.83,1.53-.46s.47,1,.12,1.57c-2,3-3.88,6.21-6.39,8.91A11.57,11.57,0,0,1,156.09,91.65Z"/><path class="cls-3" d="M196.63,81.05c1.82-.42,1.82-2.28,2.7-3.45.68-.91,1.1-2,2.31-2.52.71,1.21.21,2.2-.33,3.16q-2.42,4.19-4.88,8.34c-.43.73-1.09,1.44-2,.92s-.33-1.28,0-2.07c.59-1.55,2.46-2.45,2.19-4.4Z"/><path class="cls-3" d="M99.66,93.94c0,1.15-.94,1.8-1.4,2.69-1.25,2.4-2.58,4.75-3.93,7.09-.31.54-.77,1.4-1.46,1s-.52-1.39-.17-2c1.73-3.1,3.53-6.17,5.3-9.25.28-.47.63-.87,1.24-.62S99.64,93.52,99.66,93.94Z"/><path class="cls-3" d="M125.48,84.41l6.22-10a.91.91,0,0,1,1.33-.37c.53.33.42.89.13,1.36-1.72,2.87-3.43,5.74-5.17,8.59C127.42,85,126.61,84.58,125.48,84.41Z"/><path class="cls-3" d="M195.43,50a2.93,2.93,0,0,1-.17,3c-1.32,2.28-2.67,4.55-3.95,6.85-.31.55-.65.8-1.23.61a.72.72,0,0,1-.41-1.09c1.8-2.82,2.53-6.25,4.93-8.73A8.12,8.12,0,0,1,195.43,50Z"/><path class="cls-3" d="M196.64,81c-2.23,0-2.6-.51-1.56-2.34,1.34-2.33,2.88-4.56,4.29-6.85a.91.91,0,0,1,1.29-.45c.6.31.43.88.17,1.34-1.18,2.11-2.33,4.23-3.61,6.28a3,3,0,0,0-.59,2Z"/><path class="cls-3" d="M336.8,105.86a1,1,0,0,1-.79-1.36c.87-2.42,2.68-4.22,4.14-6.26a.85.85,0,0,1,1.21-.07.82.82,0,0,1,.21,1,20.52,20.52,0,0,1-4.23,6.35A2.65,2.65,0,0,1,336.8,105.86Z"/><path class="cls-3" d="M268.72,90c.79.07,1,.64.69,1.24-.94,2-1.93,3.9-3,5.8-.35.63-1,1.3-1.8.74s-.34-1.19,0-1.79c.85-1.62,1.64-3.28,2.57-4.85A1.8,1.8,0,0,1,268.72,90Z"/><path class="cls-3" d="M385.22,59.41c-.93,1.65-1.93,3.5-3,5.31-.19.32-.7.25-1,0a1.07,1.07,0,0,1-.35-1.2c.51-2,1.85-3.58,2.88-5.32a.81.81,0,0,1,1-.18C385.29,58.26,385.2,58.74,385.22,59.41Z"/><path class="cls-3" d="M307,90.75c-1-.08-1-.81-.69-1.42.79-1.48,1.71-2.9,2.62-4.32a.87.87,0,0,1,1.18-.26,1.06,1.06,0,0,1,.38.71c.11.62-2.46,5-3,5.19A3.61,3.61,0,0,1,307,90.75Z"/><path class="cls-3" d="M371.05,20.91a9.91,9.91,0,0,1-1.73,3.53,1,1,0,0,1-1.51.27c-.47-.39-.26-.9,0-1.39.54-1,1-2.05,1.52-3.09a1.14,1.14,0,0,1,1.2-.76C371.24,19.6,371,20.27,371.05,20.91Z"/><path class="cls-3" d="M345.29,16.75c-.37,1.1-.73,2.28-1.18,3.42a1,1,0,0,1-1.09.56c-.57-.11-.48-.65-.49-1.07,0-1.45.88-2.55,1.44-3.77a.68.68,0,0,1,.9-.41C345.34,15.73,345.17,16.24,345.29,16.75Z"/><path class="cls-4" d="M309,32.14c3.58-.67,5.83,1.47,8,4.52,1.71,2.48,4.67,3.7,7.6,4.12,5.86.86,10.62,3.74,15,7.47a22.6,22.6,0,0,0,8.82,4.26,86.79,86.79,0,0,0,12.15,2.85c1.24.16,2.8.81,2.41,2.58s-1.88,1.37-3.09,1.18a70.28,70.28,0,0,0-9.41-1.29c-4.09-.08-7.37,3.68-7.8,7.31-.37,3.17,3.15,7.08,6.53,8,2.56.67,5-.07,7.47-.08,1.34,0,2.58.07,2.8,1.78a3,3,0,0,1-2.34,3.51c-4.83,1.62-9.5.69-14.23-.64a35.37,35.37,0,0,1-4.38-1.32c-2.84-1.22-5.67-2.45-7.54-5.39-2.23-3.52-5.92-5.5-9.76-7a4.56,4.56,0,0,0-3.89.12c-3.31,1.84-6.18.43-8.93-1.14a30,30,0,0,0-5.73-2.3,2.53,2.53,0,0,1-2-3.09c.59-5.57,1-11.17,1.5-16.74.17-1.84.43-3.66.49-5.51.07-2.06,1.53-2.91,3.39-3.13A27.26,27.26,0,0,1,309,32.14Z"/><path class="cls-4" d="M409.18,73.89c-2.47,0-4.17,0-5.88,0s-2.23-1-1.81-2.54c1-3.76,1.34-4.07,5.25-3.21a15.39,15.39,0,0,0,7.84-.57c3.73-1.1,6.37-5,6.36-10.28,0-3.13-3.26-7.32-6.46-8.38a11.1,11.1,0,0,0-11.64,2.28c-1.47,1.29-3.15.7-4.64.35a24.49,24.49,0,0,0-4.09-.82,2.05,2.05,0,0,1-2.07-2c0-1,1-1.23,1.84-1.59,4.14-1.68,8.23-3.47,12.3-5.31a33.05,33.05,0,0,1,9.57-2.58c4.39-.55,8.15,1.11,11.35,4,4.31,3.93,7.15,8.8,7.43,14.65.31,6.48-1.51,12.26-8.91,14.8-2.3.79-4.83.36-7.25.6C415.08,73.68,411.76,74.29,409.18,73.89Z"/><path class="cls-4" d="M242.46,43.12c.06-6.37-.61-6.49,5.84-4.13a31.77,31.77,0,0,0,26.19-1.49,44.23,44.23,0,0,1,7-2.73c2.09-.65,3.32.34,3.18,2.55-.25,4.27-.77,8.52-1.08,12.79a32.29,32.29,0,0,0,.27,5c.13,1.71-.5,2.58-2.3,2.81-2.63.34-5.06,1.49-7.64,2.12-3.13.77-3.49.79-4.93-2.18-2.38-4.91-5.13-5.59-8.41-5.35a6.09,6.09,0,0,0-3.79,1.57c-1.84,1.74-3.39,2.42-5.64.48a16.42,16.42,0,0,0-5.3-3.06c-2.61-.91-3.5-2.92-3.39-5.53C242.5,45.05,242.46,44.08,242.46,43.12Z"/><path class="cls-4" d="M219.79,44.67c0,2.93,0,5.52,0,8.12,0,1.17-.33,2.33-1.52,2.32-2.27,0-4.26,1.27-6.53,1.07-1.56-.14-2.81,1.19-4.47.93-1-.15-1.58-.23-1.87-1.38-1.71-6.82-2.33-13.63-.74-20.6a4.66,4.66,0,0,1,4-3.78c3.68-.77,7.41-1.27,11.13-1.85a6.56,6.56,0,0,1,1.77,0c1.23.15,1.68,1.09.91,1.85C218.49,35.33,220.12,40.35,219.79,44.67Z"/><path class="cls-1" d="M237.19,44.49c0,2.3,0,4.59,0,6.88-.06,3.43-2.14,5.41-5.65,5.43s-5.57-1.88-5.61-5.35c0-4.44,0-8.86-.3-13.3-.25-4.21,2.63-6.58,6.81-6.08,3.12.37,4.71,2.15,4.75,5.32v7.1Z"/><path class="cls-4" d="M169.41,65c-1.66.43-2.42-.73-3.16-2-1.64-2.82-3.87-4.6-7.38-4.23a6.53,6.53,0,0,0-5.64,4.1c-.86,2.24-2,2.4-3.9,1.87-4-1.16-8.1-2.23-12.12-3.46A36.94,36.94,0,0,0,116.68,61c-2.65.68-3.57,0-3.65-2.64-.16-4.71-1.27-9.29-1.94-13.92-.3-2.07-1.91-3.6-3.48-5s-1.54-2.26.34-3.3c2.81-1.56,6-2.15,9-3,1.77-.51,2.9,1,3.94,2,4.64,4.74,10.2,3.7,13.43-.89,1.11-1.57,2.51-1.54,3.91-1.18a46.24,46.24,0,0,1,9.52,4.15c1.23.63.84,1.79.87,2.77.14,4.46,2.1,7.9,5.18,9A11.39,11.39,0,0,0,167,44c.9-1.59,1.89-2.31,3.65-2.12,2.5.28,4.8-.54,7.08-1.42.85-.33,1.78-.7,2.53-.11s.14,1.5.09,2.28a11,11,0,0,1-3,6.5c-3.51,4-3.74,5.82-1.07,10.27,1.82,3,1.71,3.34-1.62,4.43C173,64.37,171.35,65.17,169.41,65Z"/><path class="cls-4" d="M44.53,81.25c-.19,1.23.47,2.71-.49,4-1.26,1.65-9.09,2.46-10.69,1.14a4.27,4.27,0,0,1-1.26-2.3Q28.87,72,25.69,59.93c-.66-2.51-.07-4.11,2.15-5.45s4.47-2.55,6.76-3.7c.56-.28,1.12-1.23,1.94-.48.62.58,0,1.27.05,1.86.56,4.39.54,9,4.32,12.25,3.09,2.67,8.81,2,12.3-1.48,2.49-2.48,4-5.32,3.77-9.09-.31-4.62,2.51-6.36,6.9-4.54.06,0,.11.12.17.13,5.3.34,10.47,2.13,15.94.87A32.67,32.67,0,0,1,88.19,49c1.58,0,2.26.79,2.62,2.38,1,4.48,1,9.14,2.6,13.51.93,2.56.28,4.6-3.13,5.61-1.61.47-3.13,1.24-4.72,1.84A3.27,3.27,0,0,1,81.32,71a13.35,13.35,0,0,1-2.59-5.34,7.67,7.67,0,0,0-6.45-6.72c-3.75-.74-6.79.83-8.93,4a22.06,22.06,0,0,1-9.61,7.88c-1.34.6-2.8.9-4.13,1.5C46.51,73.72,44,75.89,44.53,81.25Z"/><path class="cls-1" d="M102.37,66.64c-3.59,0-5.7-2-6.2-5.59-.62-4.39-1.35-8.76-2.07-13.13-.67-4.05,1.45-6.81,5.83-7.53a6.1,6.1,0,0,1,7.25,5.41c.66,4.46,1.39,8.91,1.93,13.39C109.68,63.89,107.08,66.67,102.37,66.64Z"/><path class="cls-1" d="M152.12,37.84c0-4.47,1.85-6.11,5.84-5.53,3.8.56,6.73,3.65,6.55,6.92s-4,6.67-7.41,6.83a4.19,4.19,0,0,1-4.62-3.81c0-.36-.09-.73-.12-1.1C152.26,39.9,152.18,38.65,152.12,37.84Z"/><path class="cls-1" d="M45.39,48.9c5,.1,8,2.93,7.59,7.17-.26,2.8-3.91,6.36-6.71,6.55a4.18,4.18,0,0,1-4.52-3.08c-.57-1.9-1.1-3.83-1.49-5.78C39.72,51,42,48.84,45.39,48.9Z"/><path class="cls-3" d="M364.66,12.86a1.09,1.09,0,0,0-.57.05,6.37,6.37,0,0,0-2.19,4.17,2,2,0,0,0,.65,1.74c.69-1.35,1.75-3.41,2.45-4.72A4.54,4.54,0,0,1,364.66,12.86Z"/><path class="cls-3" d="M365.44,14.86l-2.5,4.43a2.13,2.13,0,0,1,.48,1s.88.13,1,0c.78-1.37,1.47-2.79,2.26-4.34A4.25,4.25,0,0,1,365.44,14.86Z"/><path class="cls-3" d="M401.66,110.59c-3,4.63-5.79,9.32-8.74,14-.47.72-.21,1.06.24,1.48a.94.94,0,0,0,1.54-.09L404,109.84A1.63,1.63,0,0,0,401.66,110.59Z"/><path class="cls-3" d="M407.16,109a1.37,1.37,0,0,0-1.83,0,2.72,2.72,0,0,0-.41.42l-9,15.65a1.75,1.75,0,0,1,.65.32c.42.31.92-.06,1.27-.55,3.36-4.58,6.18-9.5,9.26-14.24C407.41,110,407.66,109.43,407.16,109Z"/></g></g></svg>