<?xml version="1.0" encoding="utf-8"?>
<!-- Generator: Adobe Illustrator 23.0.1, SVG Export Plug-In . SVG Version: 6.00 Build 0)  -->
<svg version="1.1" id="Layer_1" xmlns="http://www.w3.org/2000/svg" xmlns:xlink="http://www.w3.org/1999/xlink" x="0px" y="0px"
	 viewBox="0 0 434.8 227.7" style="enable-background:new 0 0 434.8 227.7;" xml:space="preserve">
<style type="text/css">
	.st0{fill:#FFFFFF;}
</style>
<title>Asset 17</title>
<g>
	<g>
		<path class="st0" d="M309.6,50.5c0-8.7-15.3-6.3-15.3-6.3l-9.5,1.6v19v0C284.8,64.8,309.6,59.3,309.6,50.5z"/>
		<path class="st0" d="M379.3,28.8c0,0-11.2-0.1-16.2,17.6c-5,17.7-3.8,45.2,13,45.2v0c16.8,0,20.2-22.6,20.2-29.2
			S394.6,28.8,379.3,28.8z M392.1,69.7C389,90.6,374.8,89,374.8,89s-2.5-15.2,1.2-30.6c3.6-15.3,13.9-15.6,13.9-15.6
			S395.1,48.8,392.1,69.7z"/>
		<path class="st0" d="M415.5,133.3c-0.1,0-0.2,0-0.4,0c-3.4,0-7,0.1-7,0.1s0-7.7,0.5-8.2c0.5-0.4,26.2-13.8,26.2-51.9
			c0-38.1-21-54.3-21-54.3S402.5,0,381.5,0c-21,0-37.7,16.2-43,33.5c-0.6,0.2-1.4,0.2-2,0c-0.9-0.5-9.8-24.9-44.9-17.5l-30.1,6.7
			c0,0-4.6,1.5-4.6,3.3c-2-1.1-4.4-1.4-6.7-0.8c-3.5,1-61.6,16.3-61.6,16.3s-4.3,1.5-3.9,4.5c-1.7-1.8-4.3-2.5-6.7-1.9
			c-4.1,1.1-21.8,5.7-21.8,5.7s-3.5,1-3.5,6V127c0,0,1.3,14.9-14.5,18.3l0.9-72.3c0,0-0.7-4.6-5-3.7c-1.7,0.4-3.5,0.7-5.2,0.9V61
			c0,0-0.6-4.8-6.3-3.6c-5.8,1.2-21.1,4.2-21.1,4.2c-2.5,0.3-4.3,2.5-4.2,5.1c0,4.6,0,27.2,0,27.2s-7.3-7-7.8-7.7
			C81.8,74.7,68.8,67.8,55,68c-23.4,0-42.2,14.8-49.6,36.6c-7.4,21.8-8.8,52.6,6.3,71.2c3.2,3.5,6.7,6.8,10.3,9.8
			c0,0,18.5,29.6,54.4,13.8c0,0,30.1,36.6,73.7,26.5c43.6-10.1,213.3-62.3,259-61.7h3.9c2.3-0.2,4-2.1,3.9-4.4
			c0-4.1,1.6-23.5,1.6-23.5C418.5,134.8,417.2,133.3,415.5,133.3z M259.5,134.7V27.8c0-1.2,0.8-1.4,0.8-1.4l16.9-4.5
			c16.7-4.5,26.1-3.9,26.1-3.9c25.2-0.6,34,16.4,31.9,33.7s-18.6,26.3-18.6,26.3c2.1,7,19.9,24.5,21.2,25.8c0.8,0.8,0.8,2.1,0,2.9
			c0,0-14.2,15.3-16.1,16.7s-2.8,0.8-2.8,0.8c-5.6-5.3-10.9-10.9-15.9-16.8c-4.7-5.7-8.5-12-11.4-18.8c-1.8,1-6.8,2.1-6.8,2.1v38.4
			c0,2.1-1.1,1.9-1.1,1.9c-1.7,0.2-17.5,4.5-21,5.3C259.3,137.1,259.5,134.7,259.5,134.7z M323.9,133.2l-25.5,6.3v-33.4
			C298.4,106.1,321.1,131.5,323.9,133.2z M242.9,82.6c-1.9,0.2-3.8,0.7-5.6,1.4v-9.8l19.3-5.2v41.3c-3.8-0.7-9.6,0.8-9.6,0.8V85.6
			C246.9,82.8,244.7,82.6,242.9,82.6z M189.5,44c0,0,57.7-15.1,61.8-16c4.2-0.9,4.5,2.8,4.5,2.8v19.3c0,3.4-2.1,3.6-2.1,3.6
			l-40.5,10.5v14.6l16.6-4.4c0,0,0,0,0.1,0c1.7-0.6,3.6,0.3,4.2,2v20.8c0.1,1.2-0.6,2.3-1.8,2.5l-18.9,5.1v18.1
			c0,0,33.1-8.8,37.7-9.8s4.7,1.8,4.7,1.8v20c0,3.4-2.1,3.6-2.1,3.6c-2.4,0.8-53.5,14-59.6,15.4c-6.1,1.4-5.9-3-5.9-3l-0.6-103
			C187.7,44.4,189.5,44,189.5,44z M99.5,129.4l0.9-63.4c0-0.6,0.3-1.1,0.8-1.4c0,0,17.7-3.5,21.5-4.3c3.8-0.8,3.3,1.4,3.3,1.4
			l-0.8,64.4c0,0-3.3,22.6,13.2,22.6c16.5,0,18.2-26.8,18.2-26.8s-0.8-63.4-0.8-66.1s0.8-2.9,0.8-2.9s17.3-4.7,21.3-5.6
			c4-0.9,3.6,1.1,3.6,1.1s0.8,41.5,0.8,68.6c0,27.1-15.8,58.2-50.4,58.2S99.5,129.4,99.5,129.4z M405.3,127.5
			c-0.6,6-1.5,17.7-1.5,20.8c0,3.1-4.1,2.5-4.1,2.5c-39.7,1.5-98.9,17.2-135.9,28c-37,10.8-85.7,26.8-126.5,33.8
			C95.6,219.7,66,185.1,66,185.1c-33.6,16.1-55.8-6.6-61.2-33.1s1-46.2,14.2-64C32.1,70.2,55,71.1,55,71.1s32-1.4,40.1,36.5
			c8.1,37.9-8.9,59.2-8.9,59.2c29.1,29.4,61.8,18.5,68.8,16.7s79.3-22.9,137.7-39.4c35.9-10.2,72.8-16.8,110-19.9
			C406.1,123.9,405.2,127.5,405.3,127.5z M340.6,129.4c0,0,9.3-9.1,10.3-10.3s1-4.6,1-4.6c3.3,6.1,11.3,11.3,11.3,11.3L340.6,129.4z
			 M374.8,117.8c-37,0-46.8-39.3-36.3-77.5c10.5-38.2,42.2-37.8,42.2-37.8c37.8,0.3,41.2,47.9,41.2,63.4S411.8,117.8,374.8,117.8z"
			/>
		<path class="st0" d="M52.2,96.9c0,0-17-0.1-21.7,24s1.7,43.8,17.9,43.3c16.2-0.5,23.1-19.8,23.1-32.8
			C71.6,118.5,68.3,96.9,52.2,96.9z M61.2,154.8c-5.6,7.6-16.4,6.4-16.4,6.4c-8.3-17.6,0.8-38.5,6.7-45.2c3.3-3.9,8.4-5.7,13.4-4.9
			C72.8,126,66.7,147.3,61.2,154.8z"/>
	</g>
	<path class="st0" d="M390.4,136.5c-0.4,0-45.5,4.3-101.5,20.4s-129.7,38.3-130.4,38.5c-0.4,0.1-34.6,10.8-55.2-1.8
		c-11.4-6.9-21.9-15.3-31.2-25c18.4-18.3,13.6-50,12.9-53.6c-1.8-10.3-8.7-34.1-34.7-32.9c-3.8,0.1-7.5,1-10.9,2.6
		c-5.5,2.5-13.1,7.9-18.3,19.6c-5,11.4-7,26.2-5.3,39.4c2,15.1,8.5,26.2,18.3,31.4c3.8,1.8,8,2.8,12.2,3.1c0.8,0.1,1.8,0.1,2.7,0.1
		c7.9,0,15.5-2.9,21.3-8.1c9.4,9.8,20.1,18.3,31.7,25.4c8.1,5,18.1,6.6,27.4,6.6c10-0.1,20-1.6,29.6-4.5
		c0.7-0.2,74.5-22.4,130.4-38.5s100.7-20.3,101.1-20.3c0.6-0.1,1.1-0.6,1-1.2C391.6,136.9,391,136.4,390.4,136.5L390.4,136.5z
		 M46.6,175.9c-3.9-0.3-7.8-1.3-11.4-2.9c-20.8-10.9-21-47.5-12-67.9c3.9-8.8,9.6-15,17-18.4c3.1-1.5,6.5-2.3,10-2.5h0.1
		c24.2-1.1,30.7,21.4,32.4,31.1c0.6,3.5,5.4,35-13,52.4C63.6,173.7,55.2,176.7,46.6,175.9z"/>
	<path class="st0" d="M137.6,162.4c-7.8,0-14.1-2.5-18.6-7.4c-8.8-9.7-7.8-25.2-7.7-26.4v-61c-0.1-0.6,0.4-1.2,1-1.2
		c0.6-0.1,1.2,0.4,1.2,1c0,0.1,0,0.1,0,0.2v61.2c0,0.1-1.3,15.6,7.1,24.7c4,4.4,9.7,6.6,16.9,6.6c25.8,0,31.4-33.1,31.4-41.2
		c0-6.1-0.6-63.6-0.6-64.2c0-0.6,0.5-1.1,1.1-1.1c0.6,0,1.1,0.5,1.1,1.1c0,0,0,0,0,0c0,0.6,0.6,58.1,0.6,64.2
		c-0.4,8.3-2.4,16.4-5.9,24C159.3,155.6,149.7,162.4,137.6,162.4z"/>
	<path class="st0" d="M251.9,41c-0.2-0.6-0.8-1-1.4-0.8l-50.7,13.1c-0.5,0.1-0.9,0.6-0.9,1.1l1.1,83.3c0,0.3,0.2,0.7,0.4,0.9
		c0.2,0.2,0.4,0.2,0.7,0.2h0.3l47.1-11.4c0.6-0.2,0.9-0.8,0.7-1.4c-0.2-0.5-0.7-0.9-1.3-0.8l-45.7,11l-0.5-39.4l26.4-6.2
		c0.6-0.1,1-0.7,1-1.3s-0.7-1-1.3-1c-0.1,0-0.1,0-0.2,0l-25.9,6.1l-0.5-39.2l49.8-12.9C251.7,42.2,252.1,41.6,251.9,41
		C251.9,41,251.9,41,251.9,41z"/>
	<path class="st0" d="M301.9,75.7l-0.4-2c7.5-3,24.7-12.1,22.2-29.3c-0.5-4.3-2.8-8.1-6.3-10.6c-9.3-6.7-24.9-4.1-25.6-4l-21.2,4.5
		c-0.5,0.1-0.9,0.6-0.9,1.1v89.3c0,0.6,0.5,1.1,1.1,1.1s1.1-0.5,1.1-1.1V80.4l4.3-0.2h0.1c7.9-0.9,15.6-2.9,23-5.7l0.3,1.6
		c2.3,13.7,21.6,33.3,22.4,34.2c0.2,0.2,0.5,0.3,0.8,0.3c0.6,0,1.1-0.5,1.1-1.1c0-0.3-0.1-0.6-0.3-0.8
		C323.5,108.4,304,88.7,301.9,75.7z M276.2,78l-4.2,0.2V36.3l20.3-4.3c0.2,0,15.4-2.6,23.9,3.6c3,2.2,5,5.5,5.4,9.1
		c2.5,16.9-16.4,25.3-22.3,27.5C291.8,75.1,284.1,77,276.2,78z"/>
	<path class="st0" d="M374,106.7c-7.5,0-14.4-3.4-19.5-9.8c-9-11.1-11.3-28.8-6.3-48.5c4.6-18.1,12.9-26.3,19.1-30
		c3.8-2.4,8.1-3.7,12.6-3.8c6.2-0.3,12.4,2.1,17.5,7c8.6,8.3,13.4,22.5,13,39c-0.6,27.5-14.2,45.2-35.5,46L374,106.7z M379.7,16.8
		c-4,0.2-7.9,1.4-11.3,3.5c-8.3,5-14.5,14.9-18,28.6c-4.8,18.7-2.6,36.1,5.8,46.5c4.9,6,11.5,9.2,18.6,8.9
		c20-0.8,32.8-17.6,33.4-43.8c0.3-15.9-4.2-29.5-12.3-37.3c-4.7-4.5-10.2-6.7-15.8-6.4c0,0-0.1,0-0.1,0H379.7z"/>
	<path class="st0" d="M9.7,132.6L9.7,132.6c-0.5,0-0.9-0.4-0.9-0.9c0,0,0,0,0,0c0.5-9.4,2.6-18.6,6-27.3c7.4-18.1,20.5-28,37.7-28.5
		c10-0.3,18.4,2.8,24.9,9.3c15.4,15.3,14.9,43.8,14.8,45c0,0.5-0.4,0.9-0.9,0.9c0,0,0,0,0,0c-0.5,0-0.9-0.4-0.9-0.9c0,0,0,0,0,0
		c0-0.3,0.5-28.9-14.3-43.7c-6.1-6.1-14-9-23.6-8.7c-16.7,0.5-28.9,9.7-36.1,27.3c-3.4,8.5-5.4,17.6-5.9,26.7
		C10.6,132.2,10.2,132.6,9.7,132.6z"/>
	<path class="st0" d="M22.2,139.8c-0.5,0-0.9-0.4-0.9-0.8c-0.1-1.1-2.2-26.1,10.2-40.5c5.1-6,12-9.2,20.5-9.7
		c6.5-0.4,12,1.6,16.3,5.9c11.9,11.9,10.4,37.5,10.4,38.5c0,0.5-0.5,0.9-1,0.8s-0.9-0.5-0.8-1c0-0.3,1.5-25.8-9.8-37.1
		c-3.9-3.9-8.9-5.7-14.9-5.3c-8,0.5-14.5,3.5-19.2,9.1c-12,13.9-9.8,39-9.8,39.2c0.1,0.5-0.3,0.9-0.8,1
		C22.3,139.8,22.3,139.8,22.2,139.8L22.2,139.8z"/>
	<path class="st0" d="M105.9,127.4L105.9,127.4c-0.5,0-0.9-0.4-0.9-0.9c0,0,0,0,0,0l0.8-57.2c0-0.5,0.4-0.9,0.9-0.9l0,0
		c0.5,0,0.9,0.4,0.9,0.9l-0.8,57.2C106.8,127,106.4,127.4,105.9,127.4z"/>
	<path class="st0" d="M118.4,119.8L118.4,119.8c-0.5,0-0.9-0.4-0.9-0.9l0.6-51.9c0-0.5,0.4-0.9,0.9-0.9c0,0,0,0,0,0
		c0.5,0,0.9,0.4,0.9,0.9c0,0,0,0,0,0l-0.6,51.9C119.3,119.4,118.9,119.8,118.4,119.8z"/>
	<path class="st0" d="M163.6,113.5c-0.5,0-0.9-0.4-0.9-0.9l-0.8-55.5c0-0.5,0.4-0.9,0.9-0.9c0,0,0,0,0,0l0,0c0.5,0,0.9,0.4,0.9,0.9
		l0.8,55.5C164.4,113.1,164,113.5,163.6,113.5C163.6,113.5,163.6,113.5,163.6,113.5L163.6,113.5z"/>
	<path class="st0" d="M176,107.1c-0.5,0-0.9-0.4-0.9-0.9l-0.8-52.7c0-0.5,0.4-0.9,0.9-0.9c0,0,0,0,0,0l0,0c0.5,0,0.9,0.4,0.9,0.9
		l0.8,52.7C176.9,106.6,176.5,107,176,107.1z"/>
	<path class="st0" d="M194,102.9c-0.5,0-0.9-0.4-0.9-0.9V49.5c0-0.4,0.3-0.8,0.7-0.9l57.3-14.4c0.5-0.1,1,0.2,1.1,0.7
		c0.1,0.5-0.2,1-0.6,1.1l-56.6,14.3V102C194.9,102.5,194.5,102.9,194,102.9z"/>
	<path class="st0" d="M205.9,88.7c-0.5,0-0.9-0.4-0.9-0.9c0,0,0,0,0,0V58.7c0-0.4,0.3-0.8,0.7-0.9l43.9-11.7c0.5-0.1,1,0.2,1.1,0.7
		c0.1,0.5-0.2,1-0.6,1.1l-43.2,11.5v27.3l20.8-5.2c0.5-0.1,1,0.2,1.1,0.7s-0.2,1-0.7,1.1l-21.9,5.5L205.9,88.7z"/>
	<path class="st0" d="M277.5,69.9c-0.5,0-0.9-0.4-0.9-0.9V40.6c0-0.3,0.2-0.7,0.5-0.8c0.6-0.3,15.5-7.4,31.3-3.1
		c3.8,1,6.4,3.1,7.6,6c2.7,6.2-1.5,14.1-1.7,14.5c-0.2,0.4-0.7,0.6-1.2,0.4s-0.6-0.7-0.4-1.2c0,0,0,0,0-0.1c0-0.1,3.9-7.5,1.6-12.9
		c-1-2.4-3.2-4.1-6.5-5c-13.5-3.7-26.8,1.6-29.5,2.8V69C278.4,69.5,278,69.9,277.5,69.9C277.5,69.9,277.5,69.9,277.5,69.9z"/>
	<path class="st0" d="M265,80.3c-0.5,0-0.9-0.4-0.9-0.9v0V30.8c0-0.4,0.2-0.7,0.6-0.9c1.1-0.4,27.6-10.3,48.2-5.8
		c7.5,1.6,12.8,5.9,15.4,12.3c3.6,8.7,1.3,18.4-0.7,21.5c-0.3,0.4-0.8,0.5-1.2,0.3c0,0,0,0,0,0c-0.4-0.3-0.5-0.8-0.3-1.2
		c0,0,0,0,0,0c1.9-3,3.7-12.1,0.5-19.8c-2.4-5.9-7.2-9.7-14.2-11.2c-18.5-4-42.6,4.1-46.6,5.5v48C265.9,79.9,265.5,80.3,265,80.3z"
		/>
	<path class="st0" d="M340.5,64.1L340.5,64.1c-0.5,0-0.9-0.4-0.9-0.9c0.6-9.3,2.7-18.4,6-27.1c7.2-17.9,19.5-27.4,35.7-27.4
		c12.3,0,22,6.5,28.1,18.9c2.8,5.9,4.7,12.2,5.5,18.7c0,0.5-0.3,0.9-0.8,1c-0.5,0-0.9-0.3-1-0.8l0,0c-0.8-6.3-2.6-12.4-5.3-18.1
		c-5.9-11.8-14.8-17.8-26.6-17.8c-15.6,0-27,8.8-34,26.2c-3.3,8.5-5.2,17.4-5.8,26.5C341.4,63.7,341,64.1,340.5,64.1z"/>
	<path class="st0" d="M353.7,65L353.7,65c-0.5,0-0.9-0.4-0.9-0.9c0,0,0,0,0,0c0.2-7,1.4-13.9,3.5-20.6c4.5-13.8,12.8-21.5,23.9-22.2
		c8.4-0.5,15.1,5,19.3,15.9c2,5.3,3.3,10.9,3.9,16.5c0,0.5-0.3,0.9-0.8,1c-0.5,0-0.9-0.3-1-0.8l0,0c0-0.3-2.9-31.9-21.3-30.8
		c-25,1.6-25.8,40.6-25.8,41C354.6,64.6,354.2,65,353.7,65z"/>
</g>
</svg>
