<svg xmlns="http://www.w3.org/2000/svg" viewBox="0 0 434.77 227.74"><defs><style>.cls-1{fill:#001d71;}.cls-2{fill:#e5aa29;}.cls-3{fill:#fff;}.cls-4{fill:#f1d396;}.cls-5{opacity:0.18;}.cls-6{opacity:0.56;}</style></defs><title>Asset 17</title><g id="Layer_2" data-name="Layer 2"><g id="Camada_1" data-name="Camada 1"><path class="cls-1" d="M415.11,133.3c-3.42,0-7,.07-7,.07s0-7.74.45-8.16,26.17-13.84,26.17-51.89-21-54.29-21-54.29S402.51,0,381.53,0s-37.68,16.24-43,33.47a2.84,2.84,0,0,1-2,0c-.9-.46-9.81-24.9-44.89-17.45l-30.12,6.71s-4.62,1.47-4.62,3.27a9.27,9.27,0,0,0-6.66-.84c-3.5,1-61.59,16.31-61.59,16.31S184.39,43,184.73,46A7,7,0,0,0,178,44.07c-4.07,1.09-21.78,5.71-21.78,5.71s-3.53,1-3.53,6V127s1.28,14.89-14.51,18.35l.9-72.35s-.71-4.6-5.05-3.7a38,38,0,0,1-5.22.9V61s-.56-4.78-6.31-3.57-21.1,4.23-21.1,4.23a4.9,4.9,0,0,0-4.23,5.07c0,4.57,0,27.21,0,27.21s-7.3-7-7.83-7.67A40.43,40.43,0,0,0,55,68C31.58,68,12.85,82.8,5.41,104.57s-8.8,52.57,6.31,71.18A116.81,116.81,0,0,0,22,185.6s18.5,29.63,54.37,13.84c0,0,30.08,36.62,73.7,26.54s213.27-62.26,259-61.66l3.92,0a4.29,4.29,0,0,0,3.89-4.4c0-4.06,1.6-23.45,1.6-23.45A3.1,3.1,0,0,0,415.11,133.3ZM61.17,154.84c-5.57,7.6-16.4,6.36-16.4,6.36-8.34-17.6.76-38.54,6.7-45.16a14.51,14.51,0,0,1,13.38-4.89C72.75,126,66.73,147.25,61.17,154.84Zm40.16,19.86c.82-1.06,4.36-9.18,4.36-9.18,1.43,2.11,9.17,8.12,9.17,8.12.83,1.66,7.22,8.5,7.22,8.5A47.76,47.76,0,0,1,101.33,174.7Zm94.53-6L178,174c4.67-3.54,10.61-16.25,10.61-16.25,2.55-.37,7.22-.9,7.22-.9Zm60.65-58.41c-3.78-.74-9.59.84-9.59.84V85.56c0-2.71-2.2-3-4.06-3A23.71,23.71,0,0,0,237.22,84V74.22L256.51,69Zm41.85,29.27V106.15s22.78,25.38,25.49,27.07ZM330.17,90l3.27-2.59c.73,2.76,5.19,12.29,5.19,12.29C336.2,97.69,330.17,90,330.17,90Zm10.38,39.43s9.25-9.14,10.26-10.27,1-4.62,1-4.62c3.27,6.09,11.28,11.28,11.28,11.28ZM392.1,69.71C389.05,90.58,374.84,89,374.84,89S372.36,73.77,376,58.43s13.87-15.56,13.87-15.56S395.14,48.84,392.1,69.71Z"/><path class="cls-2" d="M100.39,66l-.91,63.4S97.42,175.15,132,175.15s50.38-31.14,50.38-58.21-.75-68.58-.75-68.58.42-2-3.59-1.1-21.32,5.64-21.32,5.64-.84.12-.84,2.88.79,66.12.79,66.12-1.66,26.78-18.2,26.78-13.24-22.57-13.24-22.57L126,61.74s.42-2.22-3.34-1.39-21.47,4.29-21.47,4.29A1.77,1.77,0,0,0,100.39,66Z"/><path class="cls-2" d="M187.66,47.9l.6,103s-.22,4.44,5.87,3,57.15-14.67,59.56-15.42c0,0,2.14-.22,2.14-3.64V114.8s-.08-2.86-4.7-1.81-37.68,9.85-37.68,9.85v-18.1l18.86-5.13a2.26,2.26,0,0,0,1.81-2.49V76.31a3.31,3.31,0,0,0-4.29-2l-16.64,4.4V64.15l40.5-10.46s2.14-.22,2.14-3.64V30.8s-.34-3.73-4.51-2.82S189.5,44,189.5,44,187.66,44.37,187.66,47.9Z"/><path class="cls-2" d="M337.84,103.78c-1.36-1.35-19.07-18.84-21.21-25.83,0,0,16.47-9,18.58-26.29s-6.73-34.29-31.89-33.72c0,0-9.36-.57-26.06,3.94L260.34,26.4s-.79.22-.79,1.43V134.69s-.28,2.42,3.22,1.58,19.34-5.08,21-5.3c0,0,1.13.22,1.13-1.87V90.69s5.07-1.12,6.82-2.08a77.08,77.08,0,0,0,11.39,18.78A187.1,187.1,0,0,0,319,124.23s.9.61,2.78-.82,16.1-16.7,16.1-16.7A2.18,2.18,0,0,0,337.84,103.78Zm-53.09-39v-19l9.55-1.58s15.34-2.41,15.34,6.32S284.75,64.82,284.75,64.82Z"/><path class="cls-2" d="M380.63,2.63s-31.74-.45-42.19,37.75-.68,77.46,36.32,77.46S421.84,81.44,421.84,66,418.38,2.93,380.63,2.63Zm-4.55,89c-16.81,0-18.05-27.53-13-45.24s16.24-17.6,16.24-17.6c15.23,0,16.92,27,16.92,33.62S392.89,91.6,376.08,91.6Z"/><path class="cls-2" d="M402.76,124.14a573.07,573.07,0,0,0-110,19.87c-58.36,16.55-130.7,37.6-137.69,39.41s-39.71,12.73-68.81-16.65c0,0,17-21.25,8.87-59.16S55,71.07,55,71.07,32.14,70.16,18.94,88-.65,125.51,4.77,152,32.44,201.17,66,185.07c0,0,29.64,34.6,71.29,27.45,40.76-7,89.49-22.93,126.49-33.76s96.19-26.48,135.89-28c0,0,4.12.56,4.12-2.49s.85-14.72,1.47-20.75C405.24,127.47,406.08,123.86,402.76,124.14ZM48.5,164.24c-16.25.45-22.56-19.17-17.94-43.31s21.66-24,21.66-24c16.13,0,19.4,21.54,19.4,34.52S64.74,163.79,48.5,164.24Z"/><path class="cls-3" d="M390.41,136.5c-.44,0-45.53,4.33-101.54,20.42S159.19,195.2,158.44,195.43c-.35.11-34.64,10.82-55.17-1.84a154.28,154.28,0,0,1-31.21-25c18.4-18.28,13.55-50,12.93-53.64C83.22,104.65,76.29,80.86,50.34,82a27.87,27.87,0,0,0-10.88,2.62c-5.5,2.49-13.12,7.91-18.28,19.6-5,11.43-7,26.17-5.26,39.43,2,15.08,8.46,26.21,18.27,31.36a35.11,35.11,0,0,0,12.18,3.14c.85.06,1.76.1,2.71.1a31.6,31.6,0,0,0,21.33-8.14,156.6,156.6,0,0,0,31.68,25.39c8.11,5,18.06,6.58,27.37,6.58a107.89,107.89,0,0,0,29.65-4.51c.74-.22,74.49-22.44,130.38-38.5s100.68-20.29,101.13-20.34a1.12,1.12,0,1,0-.21-2.24ZM46.64,175.91A33.49,33.49,0,0,1,35.22,173c-20.77-10.91-21-47.49-12-67.88,3.88-8.82,9.62-15,17-18.4a25.76,25.76,0,0,1,10-2.48h.11c24.19-1.08,30.69,21.36,32.37,31.07.61,3.53,5.42,35-13,52.38A29.24,29.24,0,0,1,46.64,175.91Z"/><path class="cls-3" d="M137.57,162.4c-7.83,0-14.08-2.48-18.57-7.38-8.85-9.66-7.77-25.2-7.67-26.4v-61a1.13,1.13,0,1,1,2.25,0v61.16c0,.15-1.25,15.64,7.09,24.73,4,4.41,9.73,6.64,16.9,6.64,25.78,0,31.36-33.06,31.36-41.24,0-6.09-.59-63.64-.6-64.22a1.13,1.13,0,1,1,2.26,0c0,.58.6,58.13.6,64.24a65.5,65.5,0,0,1-5.86,24C159.32,155.65,149.72,162.4,137.57,162.4Z"/><path class="cls-3" d="M251.92,41a1.13,1.13,0,0,0-1.37-.81L199.86,53.28a1.13,1.13,0,0,0-.85,1.1l1.06,83.25a1.11,1.11,0,0,0,.43.88,1.12,1.12,0,0,0,.7.24l.26,0,47.08-11.36a1.13,1.13,0,0,0-.53-2.19l-45.7,11-.5-39.42,26.42-6.22a1.13,1.13,0,1,0-.52-2.19l-25.93,6.1-.5-39.22,49.83-12.86A1.13,1.13,0,0,0,251.92,41Z"/><path class="cls-3" d="M301.87,75.68l-.35-2c7.47-3,24.73-12.06,22.21-29.28a15.39,15.39,0,0,0-6.32-10.64c-9.25-6.7-24.9-4.07-25.6-3.95L270.6,34.32a1.13,1.13,0,0,0-.9,1.1v89.34a1.13,1.13,0,0,0,2.26,0V80.38l4.33-.18h.08a96.67,96.67,0,0,0,23-5.7l.28,1.56c2.29,13.74,21.57,33.33,22.39,34.15a1.1,1.1,0,0,0,.8.34,1.13,1.13,0,0,0,.8-1.92C323.45,108.43,304.05,88.73,301.87,75.68ZM276.16,78l-4.2.17V36.33L292.23,32c.16,0,15.39-2.58,23.86,3.56a13.15,13.15,0,0,1,5.4,9.14C324,61.58,305.06,70,299.21,72.15A95.31,95.31,0,0,1,276.16,78Z"/><path class="cls-3" d="M374,106.65c-7.48,0-14.37-3.44-19.49-9.77-9-11.12-11.28-28.8-6.27-48.5,4.6-18.09,12.94-26.31,19.13-30A24.16,24.16,0,0,1,380,14.59c6.19-.34,12.39,2.15,17.46,7,8.61,8.29,13.35,22.51,13,39-.57,27.55-14.19,45.17-35.52,46Zm5.71-89.81a22.82,22.82,0,0,0-11.31,3.53c-8.29,5-14.5,14.91-18,28.56-4.77,18.73-2.59,36.13,5.83,46.54,4.88,6,11.47,9.18,18.6,8.91,20-.77,32.81-17.55,33.36-43.79.33-15.88-4.16-29.49-12.31-37.34-4.7-4.52-10.17-6.74-15.83-6.41a.29.29,0,0,1-.13,0Z"/><path class="cls-4" d="M9.73,132.58h0a.9.9,0,0,1-.87-.93,88.22,88.22,0,0,1,6-27.3C22.26,86.24,35.31,76.4,52.57,75.88c10-.3,18.43,2.81,24.9,9.25,15.39,15.31,14.86,43.8,14.83,45a.89.89,0,0,1-.92.88.9.9,0,0,1-.88-.92c0-.29.53-28.94-14.31-43.69-6.11-6.08-14-9-23.57-8.73-16.71.5-28.86,9.69-36.08,27.31a86.61,86.61,0,0,0-5.91,26.72A.9.9,0,0,1,9.73,132.58Z"/><path class="cls-4" d="M22.21,139.76a.89.89,0,0,1-.89-.82c-.1-1.05-2.22-26.07,10.23-40.53,5.13-6,12-9.24,20.5-9.74,6.55-.4,12,1.58,16.31,5.87C80.24,106.46,78.79,132,78.73,133.05a.9.9,0,1,1-1.8-.11c0-.26,1.46-25.78-9.85-37.13-3.89-3.9-8.91-5.7-14.92-5.34-8,.47-14.45,3.54-19.24,9.11-12,13.89-9.83,39-9.81,39.2a.9.9,0,0,1-.81,1Z"/><path class="cls-4" d="M105.91,127.36h0a.9.9,0,0,1-.89-.92l.79-57.19a.9.9,0,0,1,.9-.89h0a.92.92,0,0,1,.89.91l-.79,57.2A.91.91,0,0,1,105.91,127.36Z"/><path class="cls-4" d="M118.44,119.8h0a.92.92,0,0,1-.9-.91L118.1,67a.89.89,0,0,1,.91-.9.9.9,0,0,1,.89.92l-.56,51.88A.91.91,0,0,1,118.44,119.8Z"/><path class="cls-4" d="M163.56,113.48a.91.91,0,0,1-.91-.89l-.79-55.5a.9.9,0,0,1,.89-.91h0a.9.9,0,0,1,.9.89l.79,55.5a.9.9,0,0,1-.89.91Z"/><path class="cls-4" d="M176,107.05a.9.9,0,0,1-.9-.89l-.79-52.68a.9.9,0,0,1,.89-.91h0a.9.9,0,0,1,.9.89l.79,52.67a.91.91,0,0,1-.89.92Z"/><path class="cls-4" d="M194,102.88a.91.91,0,0,1-.9-.91V49.52a.9.9,0,0,1,.68-.87L251.1,34.21a.9.9,0,0,1,1.09.65.91.91,0,0,1-.65,1.1L194.92,50.22V102A.91.91,0,0,1,194,102.88Z"/><path class="cls-4" d="M205.86,88.66a.89.89,0,0,1-.9-.9V58.66a.89.89,0,0,1,.67-.87l43.88-11.65a.9.9,0,0,1,.46,1.74L206.76,59.35V86.6l20.82-5.24a.9.9,0,0,1,.44,1.75l-21.94,5.53Z"/><path class="cls-4" d="M277.49,69.94a.9.9,0,0,1-.9-.9V40.61a.89.89,0,0,1,.5-.81c.63-.31,15.55-7.42,31.32-3.11,3.8,1,6.37,3.06,7.64,6,2.67,6.18-1.49,14.15-1.67,14.48a.9.9,0,1,1-1.59-.84c0-.08,3.93-7.55,1.6-12.93-1-2.4-3.21-4.07-6.46-5-13.54-3.7-26.81,1.57-29.54,2.76V69A.9.9,0,0,1,277.49,69.94Z"/><path class="cls-4" d="M265,80.32a.91.91,0,0,1-.91-.91V30.8a.91.91,0,0,1,.59-.85c1.11-.42,27.56-10.31,48.23-5.79,7.46,1.63,12.8,5.87,15.43,12.26,3.6,8.71,1.31,18.44-.66,21.49a.89.89,0,0,1-1.24.27.9.9,0,0,1-.27-1.25c1.9-3,3.69-12.1.51-19.82-2.44-5.9-7.2-9.67-14.16-11.19-18.49-4-42.59,4.07-46.62,5.51v48A.9.9,0,0,1,265,80.32Z"/><path class="cls-4" d="M340.55,64.07h0a.91.91,0,0,1-.87-.94,93.23,93.23,0,0,1,6-27.09c7.16-17.89,19.49-27.35,35.67-27.35,12.31,0,22,6.53,28.12,18.89a59.66,59.66,0,0,1,5.49,18.7.9.9,0,0,1-1.8.17,59.12,59.12,0,0,0-5.33-18.12C401.91,16.49,393,10.49,381.27,10.49c-15.58,0-27,8.81-34,26.18a90.47,90.47,0,0,0-5.84,26.54A.9.9,0,0,1,340.55,64.07Z"/><path class="cls-4" d="M353.74,65h0a.9.9,0,0,1-.89-.91,76,76,0,0,1,3.54-20.57c4.55-13.8,12.83-21.46,23.93-22.17,8.41-.53,15.09,5,19.33,15.9a66.68,66.68,0,0,1,3.85,16.51.9.9,0,1,1-1.8.15c0-.32-2.87-31.92-21.27-30.76-25.05,1.6-25.77,40.57-25.77,41A.9.9,0,0,1,353.74,65Z"/><g class="cls-5"><path class="cls-3" d="M6.08,137.06s12.19-12.86,21.55-17.15c0,0,4.85-26.06,24.82-26.06a19.67,19.67,0,0,1,16.69,10.94,15.72,15.72,0,0,1,8.76,4.07c4,3.72,13.58,7.44,14.7,6.59S90.23,94.3,82,86.29,67.81,74.07,52.52,74.22,7.4,85.58,6.08,137.06Z"/></g><g class="cls-5"><path class="cls-3" d="M102.53,113a28.37,28.37,0,0,1,6.82-1.41c3.11-.11,13.15,0,13.15,0l.62-47.77-19.8,3.61Z"/></g><g class="cls-5"><path class="cls-3" d="M159.76,109.57s5.13-.6,7.67-2.11,12-8.57,12-8.57l-.75-48.65L158.48,55.5Z"/></g><g class="cls-5"><path class="cls-3" d="M190.59,88.29s5.94-4.89,6.85-5.94,10.3-7.37,12.7-8.43V61.67l42.64-11.43V31.06L190.59,47.45Z"/></g><g class="cls-5"><path class="cls-3" d="M262.15,58.32l20.08,5.75V43.91s7.44-3.19,19.51-2.62,13.09,8.91,9,14.21-16.47,9.93-21.1,10.94a177.47,177.47,0,0,0,21,5.53l6.66,1.47S333,62.31,332.87,47.83,323.63,19,300.33,20.76s-38.18,8-38.18,8Z"/></g><g class="cls-5"><path class="cls-3" d="M337.27,73.44s16-4.59,20.42-8.62c0,0-2.25-33.23,19.57-38.65,0,0,7.17-1.13,12,3.16,0,0,5.75-6.66,10.49-8.12a38.34,38.34,0,0,0,6.54-2.48s-7.78-13-25.83-12.53-29.11,15.46-32.26,20.2S338.85,42.87,337.27,73.44Z"/></g><g class="cls-6"><g class="cls-5"><path class="cls-3" d="M6.08,137.06s12.19-12.86,21.55-17.15c0,0,4.85-26.06,24.82-26.06a19.67,19.67,0,0,1,16.69,10.94,15.72,15.72,0,0,1,8.76,4.07c4,3.72,13.58,7.44,14.7,6.59S90.23,94.3,82,86.29,67.81,74.07,52.52,74.22,7.4,85.58,6.08,137.06Z"/></g><g class="cls-5"><path class="cls-3" d="M102.53,113a28.37,28.37,0,0,1,6.82-1.41c3.11-.11,13.15,0,13.15,0l.62-47.77-19.8,3.61Z"/></g><g class="cls-5"><path class="cls-3" d="M159.76,109.57s5.13-.6,7.67-2.11,12-8.57,12-8.57l-.75-48.65L158.48,55.5Z"/></g><g class="cls-5"><path class="cls-3" d="M190.59,88.29s5.94-4.89,6.85-5.94,10.3-7.37,12.7-8.43V61.67l42.64-11.43V31.06L190.59,47.45Z"/></g><g class="cls-5"><path class="cls-3" d="M262.15,58.32l20.08,5.75V43.91s7.44-3.19,19.51-2.62,13.09,8.91,9,14.21-16.47,9.93-21.1,10.94a177.47,177.47,0,0,0,21,5.53l6.66,1.47S333,62.31,332.87,47.83,323.63,19,300.33,20.76s-38.18,8-38.18,8Z"/></g><g class="cls-5"><path class="cls-3" d="M337.27,73.44s16-4.59,20.42-8.62c0,0-2.25-33.23,19.57-38.65,0,0,7.17-1.13,12,3.16,0,0,5.75-6.66,10.49-8.12a38.34,38.34,0,0,0,6.54-2.48s-7.78-13-25.83-12.53-29.11,15.46-32.26,20.2S338.85,42.87,337.27,73.44Z"/></g></g></g></g></svg>