<?xml version="1.0" encoding="utf-8"?>
<!-- Generator: Adobe Illustrator 23.0.1, SVG Export Plug-In . SVG Version: 6.00 Build 0)  -->
<svg version="1.1" id="Layer_1" xmlns="http://www.w3.org/2000/svg" xmlns:xlink="http://www.w3.org/1999/xlink" x="0px" y="0px"
	 viewBox="0 0 284.6 310.6" style="enable-background:new 0 0 284.6 310.6;" xml:space="preserve">
<style type="text/css">
	.st0{fill:#FFFFFF;}
</style>
<title>Asset 9</title>
<path class="st0" d="M0.1,165.7c0-13.2,0-26.4,0-39.5c0-6.8,2.6-12.2,8.3-16c8.6-5.8,17.2-11.6,25.7-17.4c1.3-0.8,1.3-1.2,0.4-2.3
	c-6.5-8-8-16.9-4.6-26.6c1.7-4.6,4.4-8.7,7.9-12.2c7.6-7.9,15.1-15.9,22.6-23.8c4.4-4.6,8.7-9.4,13.1-13.9
	c5.2-5.3,11.8-8.5,18.7-10.8c5.4-2,11.1-3,16.8-3.1c8.7,0.1,17.1,2.7,24.3,7.7c1,0.7,1.4,0.5,2-0.3c2.2-3.1,5.5-4.5,9-5.4
	c6-1.4,12.1-0.7,18.1-0.8c13.4-0.1,26.8,0,40.1,0c4.7,0,7.4,1.7,8.8,5.5c0.3,0.8,0.4,1.5,0.3,2.3c0,4.4-0.1,8.8,0.1,13.2
	c0.2,3.1-1.1,6.1-3.4,8.1c-4.4,4.4-8.7,8.8-13.1,13.1c-0.9,0.7-1.3,1.9-1.3,3c0.1,2.2-0.2,4.3,0.1,6.5c0.4,4.5-1.3,8-4.4,11
	c-0.8,0.8-1.6,1.6-2.4,2.4c-0.3,0.3-1,0.6-0.8,1.2s1,0.4,1.5,0.4c5,0,9.9,0,14.9,0c1.7-0.1,3.3,0.3,4.8,1.2c2.6,1.4,4.2,4.1,4.1,7
	c0,4.7,0,9.3,0,14c0,3.6-1.8,6.4-4.2,8.9c-2.9,3.1-6.3,5.8-9.5,8.7c-0.5,0.4-1.2,0.8-0.9,1.6c0.3,0.8,0.9,1.4,1.6,1.9
	c0.6,0.3,0.9-0.3,1.2-0.7c3.6-3.6,7.4-7.2,10.9-11c2.9-3,6.4-4.3,10.4-4.8c7.7-1.1,15.5-0.4,23.2-0.5c3.9-0.1,6.9,2.2,8.3,6.1
	c2.3,6.2,4.6,12.5,6.9,18.7c2.7,7.4,5.5,14.8,8.2,22.3c2.1,5.7,4.1,11.5,6.2,17.2c2.7,7.3,5.5,14.6,8.2,22c0.6,1.7,1.3,3.4,1.9,5.2
	c0.4,1.5,0.1,3-1,4.1c-4,5.6-8.9,10.5-13.8,15.4c-8.3,8.2-16.4,16.6-24.9,24.6c-2.9,2.7-6.6,4.3-10.5,4.7c-4,0.5-8,0.6-12,0.3
	c-3.2-0.3-6.5,0-9.5-1.5c-1.3-0.7-2.4-1.7-3.1-2.9c-0.6-1-1.2-1.2-2.1-0.3c-6.9,6.9-13.8,13.8-20.7,20.7c-9.5,9.5-19,19-28.5,28.5
	c-8.1,8.1-16.2,16.3-24.3,24.4c-2.1,2.1-4.5,4-7.2,5.4c-6.4,3.3-12.6,1.3-16.9-2.9c-14.2-14.1-28.4-28.3-42.5-42.5
	c-5.4-5.4-11.1-10.6-16.5-16c-2.9-2.9-5.9-5.8-7.8-9.5c-2.9-5.8-2.6-11.6,0.4-17.3c0.7-1.3,0.6-1.4-0.8-1.4
	c-8-0.1-15.9,0.8-23.9,0.4c-3.6-0.2-7.3,0.1-10.9-0.9c-4.8-1.2-6.4-4.3-7.4-8.3s-0.5-8.4-0.5-12.5C0,187.1,0.1,176.4,0.1,165.7z
	 M58.2,112.3c0-1.8-0.1-3.6-0.1-5.4c0-2,0-3.9,0-5.9c-0.1-2.2-1-3.3-2.8-3.3c-6.2,0-12.3,0-18.5,0c-1.7-0.1-3,1.2-3.1,2.9
	c0,0.1,0,0.2,0,0.2c0,1.6,0.1,3.1,0.1,4.7c0,4.2-0.1,8.4-0.1,12.6c0,5.8,0,11.7,0.1,17.5c-0.2,6.4-0.2,12.8,0,19.1
	c0,9.3,0,18.5,0,27.8c0,0.4,0.2,0.9,0.4,1.3c1.1,2,2.8,2.4,4.9,2.4c15.8,0,31.6,0,47.4,0c0.4-0.1,0.9-0.1,1.3,0
	c0.8,0.3,1.8,0.4,1.9,1.6c0.3,1-0.3,1.9-1.2,2.2c-0.1,0-0.2,0-0.3,0.1c-0.7,0.2-1.5,0.3-2.2,0.2c-2-0.1-4.1,0.5-5.8,1.7
	c-6.2,4-8,13.4-2.2,19c2.9,2.8,5.8,5.5,8.7,8.3c8.7,8.2,17.4,16.5,26,24.8c4.2,4.1,8.5,8.1,12.7,12.1l16.6,15.8
	c3.7,3.7,9.6,3.8,13.5,0.3c2.9-2.7,5.8-5.5,8.7-8.3c7.6-7.4,15.2-14.8,22.8-22.2c5.8-5.6,11.6-11.3,17.4-16.9
	c4.6-4.4,9.2-8.9,13.8-13.3c2.6-2.3,4.1-5.6,4.1-9c-0.2-5.4-3.3-10.7-9.5-12.3c-1-0.3-2-0.8-1.9-2.2c0.1-1.1,1-1.9,2.1-1.9
	c1.5-0.1,2.1-1.1,2.4-2.3c0.9-2.9,3-4.1,5.8-4.1c9.7,0,19.3,0,29,0c2.8,0,4.8,1.2,5.6,4.1c0.1,0.4,0.3,0.8,0.5,1.1
	c0.3,0.7,1,1.2,1.8,1.2c6.9,0,13.7,0,20.6,0c1.2,0,1.6-0.7,1.3-1.8s-0.9-2.3-1.3-3.5l-7.4-20.1c-0.4-0.8-0.6-1.6-0.8-2.4
	c-2.4-6.3-4.6-12.7-7-19c-1-2.5-1.5-5.1-2.9-7.5c-0.3-1.5-0.8-3.1-1.4-4.5c-1.9-5.4-3.9-10.8-5.9-16.1c-0.8-2-1.2-4.1-2.3-5.9
	c-0.3-1.4-0.7-2.7-1.3-4c-0.7-2.3-2.9-3.9-5.3-3.8c-5.4-0.1-10.9-0.1-16.3,0c-2.3-0.1-4.6,1.1-5.8,3.1c-1.4,2.6-2.5,5.4-3.1,8.3
	c-0.2,0.4-0.5,0.9-0.6,1.3c-1.5,4.2-3.1,8.4-4.6,12.6c-0.8,1.9-1.5,4-2,6c-0.2,0.4-0.5,0.9-0.6,1.3c-2.4,6.6-4.8,13.1-7.2,19.7
	c-0.5,1.5-1.3,2-2.6,1.7s-1.3-1.3-1.2-2.3c0.5-4.4,0.2-8.9,0.3-13.4c0-1.1-0.4-1.4-1.4-1.4c-11.9,0-23.8,0-35.6,0
	c-2.5,0-3.8,1.4-3.9,3.9c0,4.4,0,8.7,0,13.1c0,2.3,1.1,3.5,3.5,3.5c1.6,0,3.2,0,4.8,0c2.2,0,2.6,0.4,2.8,2.6c-1.2,3.2-3.9,4.4-7,4.7
	c-4.5,0.4-8.2-1.3-11.3-4.4c-1.7-1.7-2.8-3.8-4.1-5.7l-2-6c0.3-1.2-0.4-2.3-0.5-3.5c-0.1-3.6,0.4-7.2,1.7-10.6
	c1.6-4.3,4.1-8,8.1-10.4c3.7-2.4,8.4-2.7,12.3-0.8c2.4,1.3,4.5,3,6.2,5.1c0.8,0.9,2,1.3,3.2,1c1.4-0.2,2.3-1.2,3.4-1.9
	c4.9-3,9.9-6.1,14.8-9.2c0.9-0.5,1.2-1.5,0.7-2.4c0-0.1-0.1-0.1-0.1-0.2c-2-2.5-3.9-5.1-6.6-6.9c-0.4-0.4-0.8-0.9-1.3-1.2
	c-3.1-2.5-6.6-4.5-10.2-6c-1.1-0.4-1.9-1.5-2-2.7c0-1.2,0.6-2.4,1.7-2.9c0.7-0.3,1.4-0.5,2.2-0.3H204c2.1,0.1,3.9-1.5,4.1-3.6
	c0.3-4.7,0.3-9.4,0-14.1c-0.2-2.2-2.1-4-4.4-3.9c-1.8,0-3.5,0-5.3,0c-7.9,0-15.7,0-23.6,0c-2.6,0-3.9-1.2-3.9-3.8v-4.4
	c0-2.8,1-3.8,3.8-3.8c3.8,0,7.6,0,11.4,0c2.7,0,4-1.3,4-3.9c0.1-3.7,0.1-7.5,0-11.3c-0.1-2-1-2.7-2.9-2.7c-4.3,0-8.6,0-12.9,0
	c-1.8,0.1-3.3-1.3-3.3-3.1c0-0.1,0-0.2,0-0.3c0-2.7,0-5.3,0-8s1.1-3.7,3.7-3.7c9.9,0,19.7,0,29.6,0c2.6,0,3.9-1.3,3.9-3.8
	c0-4.3,0.1-8.5,0-12.8c-0.1-3.4-1.8-5-5.3-5.1c-17.1,0-34.3,0-51.4,0c-2.9,0-5,1.6-4.9,4.9c0.1,13.5,0,27,0.1,40.4
	c0.1,1.4-0.4,2.7-1.3,3.7c-0.4,0.3-4.2,1.6-6.2-0.8c-7.3-8.4-17-11.7-27.6-13.1c-2.6-0.2-5.1-0.8-7.5-1.8c-3.5-1.7-5.2-5.7-3.9-9.4
	c2.1-5.6,8.8-7.4,14-5.8c4.1,1.2,6.7,4.2,8.1,8.2c0.4,1.2,1,1.4,2.1,1c5.3-2.2,10.5-4.4,15.7-6.6c0.8-0.2,1.3-1.1,1.1-1.9
	c0-0.1-0.1-0.2-0.1-0.2c-1.5-4-4-7.6-7.3-10.4c-8.2-7-19-10.2-29.7-8.7C96.6,5,89.5,8.3,84,13.4c-4.8,4.6-7.7,10.3-7.8,17.1
	c0,7.3,3.1,13.2,8.6,17.8c6.1,5.2,13.3,7.8,21.2,9c3.4,0.4,6.7,1.2,9.9,2.5c4.5,1.9,6.6,7.2,4.7,11.7c-0.5,1.1-1.1,2.1-2,2.9
	c-1.8,1.8-4.2,2.6-6.7,3c-2.9,0.7-6,0.2-8.6-1.3c-3.2-2-5.8-4.8-7.6-8.2c-0.4-0.9-1.4-1.3-2.3-1c-0.1,0-0.1,0.1-0.2,0.1
	c-5.1,2.1-10.2,4.2-15.3,6.4c-1.6,0.7-1.8,1.3-1.2,2.9c1.8,4.4,4.6,8.2,8.3,11.2c3.4,2.7,7.2,4.9,11.3,6.4c1.2,0.4,2,1.6,1.8,2.9
	c-0.1,2-1.3,3-3.6,3.1c-2,0-3.6,1.6-3.7,3.6c0,2.4,0,4.9,0,7.4c0,5.6,0,11.2,0,16.8c0,13.2-0.1,34.2-0.1,38.9c0,1.3-0.6,2.1-1.8,2.1
	c-1,0-1.8-0.7-1.9-1.7c0-0.1,0-0.3,0-0.4c0.1-1.8-2.8-2.2-4.9-2.2H61.7c-2.5,0-3.5-1.1-3.6-3.5c0.1-2.6,0-5.2-0.1-7.8
	c0-0.6,0.1-1.3,0.1-1.9c0-3.5,0-7,0.1-10.5c0.3-0.3,0.2-0.7,0.2-1v-26.4C58.3,113,58.4,112.6,58.2,112.3z"/>
<path class="st0" d="M58.2,140.8c-0.2-0.4-0.3-0.9-0.2-1.3v-25.8c-0.1-0.4,0-0.9,0.2-1.3c0.3,0.3,0.2,0.7,0.2,1v26.4
	C58.3,140.1,58.4,140.4,58.2,140.8z"/>
<path class="st0" d="M117.2,158.9c1-1.7,2.5-2,4.3-1.8c2.1,1.5,2.4,4,3.5,6c3.9,7.3,9.7,13.4,16.9,17.6c2.6,1.5,5.4,2.7,8.3,3.6
	c1.4,0.4,2.2,2,1.8,3.4c-0.3,1-1.2,1.7-2.2,1.9c-0.3,0-0.6,0-0.9,0c-10.2,0-20.4,0-30.7,0c-1.1,0-2-0.2-2.5-1.2
	c-0.5-1-0.2-2.2,0.7-2.8c0.6-0.6,0.8-1.5,0.7-2.4c0-7,0-13.9,0-20.9C117.1,161.2,117.2,160.1,117.2,158.9z"/>
<path class="st0" d="M241.8,145.1c0.6,2.8,1.6,5.4,2.9,7.9c0.1,1.7,1,3.1,1.5,4.7c0.6,2-0.6,4.1-2.7,4.2c-5.3,0.1-10.5,0.2-15.8,0
	c-2.8-0.1-3.2-2.1-2.5-4.9c0.4-0.9,0.7-1.8,1-2.8c1.3-2.5,2-5.2,3-7.8c0.8-2,1.4-4.1,2.2-6.1c0.4-1.1,0.9-2.2,1.3-3.2
	c0.9-1.9,1.5-2.3,3.4-2.1c1.7,0.1,2.2,1.3,2.8,2.6C239.9,140,240.4,142.7,241.8,145.1z"/>
<path class="st0" d="M180.3,189.6c-2.6,0-5.2,0-7.8,0c-1.1,0.2-2.2-0.5-2.5-1.6c-0.4-1.1,0.2-2.3,1.3-2.6c0.1,0,0.2-0.1,0.4-0.1
	c3-0.7,6-1.8,8.7-3.3c2.5-1.4,4.9-3.1,7.1-5c1.5-1.4,2.7-1.5,4.2-0.5s1.7,2.1,1.1,4.1c-0.7,2.3-1.4,4.6-2,7
	c-0.2,1.3-1.4,2.3-2.7,2.1C185.4,189.6,182.8,189.6,180.3,189.6z"/>
<path class="st0" d="M116.7,122.6c0-7.3,0-12,0-19.3c0-2.2-0.5-2.7-2.6-2.7c-1-0.7-2.2-0.3-3.3-0.5c-1.5-0.3-2.5-1.1-2.4-2.3
	s1.1-2,2.7-1.9c10.4,0.6,19.1-3.3,26.3-10.6c3.1-3.2,7.2-2.2,8.5,0.3c0.5,0.8,0.8,1.8,0.9,2.8c0,1.1,0,2.2,0,3.3s0.1,1.8,1.4,2.2
	c1.1,0.3,1.8,1.4,1.7,2.5c0,1.1-0.6,2.1-1.6,2.6c-1.1,0.7-19.1,0.2-27.7,24.7C120.5,124.4,116.7,125.6,116.7,122.6z"/>
<path class="st0" d="M192.9,208c-0.2-0.5-0.7-0.9-1.3-0.9h-87.9c-0.6,0-1.1,0.3-1.3,0.9c-0.2,0.5-0.1,1.1,0.3,1.5l44.8,42.8
	c0.3,0.3,0.6,0.4,1,0.4s0.7-0.1,1-0.4l43.1-42.8C193,209.2,193.1,208.6,192.9,208z M166.1,218.2l-17.7,17.6
	c-0.1,0.1-0.3,0.2-0.4,0.2c-0.1,0-0.3-0.1-0.4-0.2l-18.4-17.6c-0.2-0.2-0.2-0.4-0.1-0.6c0.1-0.2,0.3-0.4,0.5-0.4h36.1
	c0.2,0,0.4,0.1,0.5,0.4C166.3,217.8,166.3,218.1,166.1,218.2z"/>
</svg>
