<svg xmlns="http://www.w3.org/2000/svg" viewBox="0 0 284.61 310.58"><defs><style>.cls-1{fill:#e65d2a;}.cls-2{fill:#fbcc45;}.cls-3{fill:#f3f2f0;}.cls-4{fill:#a1d2cd;}</style></defs><title>Asset 9</title><g id="Layer_2" data-name="Layer 2"><g id="Camada_1" data-name="Camada 1"><path class="cls-1" d="M.07,165.66q0-19.77,0-39.54c0-6.77,2.58-12.21,8.31-16.05C17,104.31,25.53,98.5,34.1,92.72c1.27-.85,1.31-1.16.37-2.31-6.53-8-8-16.88-4.63-26.58a33.8,33.8,0,0,1,7.9-12.19c7.59-7.9,15.1-15.88,22.64-23.84,4.38-4.63,8.65-9.36,13.14-13.87C78.76,8.65,85.28,5.46,92.25,3.12A50.71,50.71,0,0,1,109.1,0a43.18,43.18,0,0,1,24.28,7.69c1,.66,1.36.55,2-.3,2.23-3.09,5.47-4.54,9-5.38,6-1.42,12.07-.72,18.11-.76,13.38-.11,26.76,0,40.14-.05,4.67,0,7.41,1.71,8.84,5.46A6.53,6.53,0,0,1,211.8,9c0,4.41-.15,8.82.06,13.23a10.31,10.31,0,0,1-3.36,8.14c-4.37,4.36-8.7,8.76-13.1,13.08a3.65,3.65,0,0,0-1.26,3c.09,2.15-.16,4.32.05,6.46.44,4.51-1.26,8-4.45,11-.84.78-1.65,1.59-2.42,2.43-.31.34-1,.59-.78,1.15s1,.36,1.48.36c5,0,9.92,0,14.88,0A8.77,8.77,0,0,1,207.66,69a7.86,7.86,0,0,1,4.14,7c0,4.66,0,9.32,0,14,0,3.57-1.82,6.39-4.16,8.88-2.94,3.12-6.31,5.79-9.48,8.67-.47.43-1.22.8-.87,1.56a3.84,3.84,0,0,0,1.62,1.87c.61.31.89-.33,1.22-.65,3.65-3.63,7.35-7.22,10.89-11,2.88-3,6.43-4.27,10.44-4.83,7.73-1.08,15.5-.37,23.24-.52,3.89-.08,6.87,2.2,8.34,6.12,2.32,6.23,4.56,12.5,6.85,18.74,2.74,7.43,5.52,14.84,8.24,22.28,2.09,5.72,4.1,11.47,6.21,17.19,2.7,7.33,5.46,14.64,8.19,22,.64,1.72,1.27,3.44,1.85,5.17a4.36,4.36,0,0,1-.95,4.15c-4,5.64-8.92,10.51-13.83,15.37-8.29,8.23-16.42,16.62-24.94,24.62a17.59,17.59,0,0,1-10.5,4.66,57.91,57.91,0,0,1-12,.28c-3.18-.28-6.49,0-9.53-1.5a7.67,7.67,0,0,1-3.12-2.9c-.65-1-1.16-1.16-2.07-.25-6.87,6.93-13.78,13.81-20.68,20.72q-14.25,14.25-28.48,28.52c-8.1,8.12-16.16,16.27-24.27,24.38a29,29,0,0,1-7.15,5.36c-6.4,3.31-12.56,1.34-16.86-2.94q-21.29-21.21-42.5-42.5c-5.4-5.44-11.07-10.6-16.47-16-2.9-2.91-5.91-5.79-7.78-9.54-2.9-5.81-2.59-11.61.38-17.31.66-1.26.63-1.37-.83-1.39-8-.09-15.91.8-23.87.36-3.62-.2-7.32.05-10.89-.86-4.82-1.24-6.44-4.32-7.44-8.34S.14,202,.1,197.83C0,187.11.07,176.38.07,165.66ZM58.18,112.3c0-1.8-.06-3.6-.07-5.4,0-2,0-3.91,0-5.86-.08-2.2-1-3.34-2.83-3.35q-9.24-.06-18.48,0a3,3,0,0,0-3.09,3.15c0,1.55.07,3.1.11,4.65,0,4.19-.09,8.38-.09,12.58,0,5.84,0,11.68.07,17.51-.16,6.38-.17,12.76,0,19.14q0,13.91,0,27.8a2.58,2.58,0,0,0,.39,1.26c1.08,2,2.84,2.37,4.93,2.37,15.78,0,31.57,0,47.35,0a4.67,4.67,0,0,1,1.35,0c.83.26,1.76.43,1.92,1.58A1.79,1.79,0,0,1,88.23,190a6,6,0,0,1-2.21.24,9,9,0,0,0-5.75,1.66c-6.16,4-8,13.37-2.23,19,2.86,2.79,5.76,5.54,8.67,8.28q13.1,12.31,26,24.8,6.33,6.09,12.69,12.14L142,271.92a9.85,9.85,0,0,0,13.51.27c2.94-2.72,5.81-5.5,8.68-8.28q11.42-11.07,22.81-22.17,8.7-8.46,17.42-16.92,6.88-6.67,13.82-13.32a11.9,11.9,0,0,0,4.06-9c-.2-5.36-3.33-10.69-9.54-12.34-1-.26-2-.82-1.88-2.16a2,2,0,0,1,2.05-1.86c1.47-.11,2.07-1.09,2.43-2.28.89-2.85,3-4.07,5.76-4.08q14.5,0,29,0c2.78,0,4.78,1.23,5.58,4.06a5.87,5.87,0,0,0,.47,1.1,1.86,1.86,0,0,0,1.76,1.16c6.87,0,13.73,0,20.6,0,1.21,0,1.63-.68,1.27-1.78s-.86-2.31-1.28-3.47l-7.35-20.07a8.51,8.51,0,0,1-.77-2.38c-2.35-6.32-4.61-12.66-7-19-1-2.5-1.55-5.14-2.94-7.47a18.57,18.57,0,0,0-1.43-4.48q-2.83-8.11-5.93-16.12c-.76-2-1.2-4.07-2.31-5.9a18.94,18.94,0,0,0-1.27-4,5.36,5.36,0,0,0-5.3-3.81c-5.45-.09-10.89-.07-16.34,0a6.6,6.6,0,0,0-5.79,3.11,32.4,32.4,0,0,0-3.15,8.3,14.32,14.32,0,0,0-.65,1.3c-1.51,4.21-3.14,8.36-4.59,12.58a40.12,40.12,0,0,0-2,6c-.22.45-.47.88-.64,1.34q-3.62,9.84-7.22,19.7c-.54,1.47-1.34,2-2.57,1.67s-1.33-1.27-1.23-2.27c.48-4.45.24-8.91.33-13.36,0-1.08-.43-1.4-1.42-1.39-11.87,0-23.75,0-35.62,0-2.52,0-3.84,1.42-3.85,3.95q0,6.54,0,13.08c0,2.33,1.14,3.48,3.5,3.53,1.61,0,3.21,0,4.81,0,2.2,0,2.6.37,2.82,2.56-1.24,3.23-3.87,4.45-7,4.73-4.47.39-8.16-1.34-11.34-4.42-1.74-1.67-2.8-3.79-4.12-5.74l-2-6c.31-1.23-.42-2.33-.46-3.53a28,28,0,0,1,1.69-10.62c1.59-4.34,4.07-8,8.08-10.41a12.62,12.62,0,0,1,12.31-.75,19.3,19.3,0,0,1,6.16,5.12,3.19,3.19,0,0,0,3.18,1c1.37-.24,2.31-1.2,3.42-1.88q7.41-4.56,14.77-9.2a1.78,1.78,0,0,0,.59-2.62c-2-2.47-3.86-5.08-6.55-6.89-.43-.41-.83-.86-1.29-1.23a43.74,43.74,0,0,0-10.23-6,3.1,3.1,0,0,1-2-2.73,3.18,3.18,0,0,1,1.72-2.92,3.61,3.61,0,0,1,2.18-.34H204a4,4,0,0,0,4.1-3.59,112.59,112.59,0,0,0,0-14.11,4.35,4.35,0,0,0-4.39-3.92c-1.75,0-3.5,0-5.26,0q-11.8,0-23.6,0c-2.65,0-3.86-1.21-3.87-3.81V63.43c0-2.75,1-3.77,3.8-3.77,3.81,0,7.62,0,11.42,0,2.67,0,4-1.26,4-3.91q.11-5.62,0-11.27c-.05-2-1-2.73-2.94-2.74-4.31,0-8.62,0-12.93,0A3.2,3.2,0,0,1,171,38.34c0-2.65,0-5.31,0-8s1.08-3.68,3.71-3.69q14.81,0,29.62,0c2.57,0,3.92-1.27,3.94-3.83,0-4.26.05-8.52,0-12.78C208.17,6.59,206.46,5,203,4.94c-17.14,0-34.28,0-51.41,0-2.9,0-5,1.57-4.94,4.9.11,13.48,0,27,.06,40.44a5.14,5.14,0,0,1-1.31,3.7,1.11,1.11,0,0,0-.34,1.34,33.06,33.06,0,0,1,2.58,9.44,25.76,25.76,0,0,1-1,11.38,2.12,2.12,0,0,1-2.84,1.18c-1.13-.36-1-1.22-.82-2.18.2-1.18.71-2.27.8-3.49a31.94,31.94,0,0,0-.6-10,19.64,19.64,0,0,0-4-8.52c-7.28-8.43-17-11.71-27.64-13.15a25.32,25.32,0,0,1-7.48-1.84,7.65,7.65,0,0,1-3.93-9.41c2.12-5.6,8.79-7.39,14-5.82,4.12,1.22,6.65,4.24,8.08,8.17.44,1.2,1,1.43,2.11,1,5.25-2.2,10.5-4.38,15.73-6.61a1.56,1.56,0,0,0,1-2.16,25.74,25.74,0,0,0-7.27-10.35,37.43,37.43,0,0,0-29.7-8.68A34.45,34.45,0,0,0,84,13.42C79.16,18,76.3,23.71,76.25,30.5c0,7.29,3.13,13.16,8.61,17.84,6.11,5.22,13.35,7.84,21.18,9a36.07,36.07,0,0,1,9.86,2.49,8.92,8.92,0,0,1,2.69,14.61c-1.83,1.83-4.15,2.55-6.66,3a11.81,11.81,0,0,1-8.62-1.29A21.61,21.61,0,0,1,95.72,68a1.75,1.75,0,0,0-2.49-.86q-7.67,3.17-15.31,6.37c-1.62.68-1.83,1.26-1.19,2.88A27.48,27.48,0,0,0,85,87.54a41.27,41.27,0,0,0,11.32,6.4,2.73,2.73,0,0,1,1.84,2.93c-.09,2-1.26,3-3.63,3.11a3.68,3.68,0,0,0-3.65,3.58c0,2.45,0,4.91,0,7.36q0,8.4,0,16.79,0,19.86,0,39.7c0,4.7-.06,9.4-.06,14.1,0,1.3-.62,2.09-1.83,2.05a1.78,1.78,0,0,1-1.84-2.07c.06-1.8,0-3.6,0-5.4A37.78,37.78,0,0,0,86,167.24c-.48-2-1.61-2.78-3.76-2.78H61.67c-2.51,0-3.53-1.05-3.58-3.52a77.68,77.68,0,0,0-.13-7.78c0-.64.14-1.29.14-1.93,0-3.49,0-7,.07-10.48.27-.3.16-.67.16-1V113.31C58.33,113,58.44,112.61,58.18,112.3Z"/><path class="cls-2" d="M58,153.16a77.68,77.68,0,0,1,.13,7.78c0,2.47,1.07,3.51,3.58,3.52H82.23c2.15,0,3.28.74,3.76,2.78a37.78,37.78,0,0,1,1.24,8.85c0,1.8,0,3.6,0,5.4a1.78,1.78,0,0,0,1.84,2.07c1.21,0,1.83-.75,1.83-2.05,0-4.7,0-9.4.06-14.1a32.53,32.53,0,0,1,5.3,4.64c.69.77,1.23.91,2,0a58.08,58.08,0,0,1,13.13-10.33,23.68,23.68,0,0,1,5.83-2.84c-.06,1.15-.17,2.3-.17,3.44q0,10.45,0,20.89a2.9,2.9,0,0,1-.69,2.37,2.26,2.26,0,0,0-.69,2.83c.51,1,1.47,1.2,2.54,1.2q15.33,0,30.66,0a4.47,4.47,0,0,0,.9,0,2.73,2.73,0,0,0,.41-5.31,38.11,38.11,0,0,1-8.29-3.6A44.41,44.41,0,0,1,125,163.15c-1.11-2-1.49-4.51-3.54-6,1.06-1,2.49-1,3.76-1.44A56.76,56.76,0,0,1,138.77,153c2.62-.26,5.28-.1,7.93-.14.52,0,1.12.19,1.42-.48,1.32,2,2.38,4.07,4.12,5.74,3.18,3.08,6.87,4.81,11.34,4.42,3.17-.28,5.8-1.5,7-4.73,1,1,2.44,1.27,3.63,1.94,6,3.38,11.79,7.06,16.48,12.2.92,1,1.51.86,2.38-.07a55.26,55.26,0,0,1,9-7.6,64.26,64.26,0,0,1,14.57-7.57,47.86,47.86,0,0,1,9.43-2.58,17,17,0,0,1-1,2.79c-.71,2.86-.28,4.78,2.52,4.91,5.24.24,10.5.12,15.75,0,2.1,0,3.29-2.14,2.71-4.18-.45-1.58-1.39-3-1.46-4.68a68.8,68.8,0,0,1,9.77,1.58A68,68,0,0,1,267.2,159c1.33.59,2.5,1.58,4,1.76l7.35,20.06c.42,1.16.91,2.3,1.28,3.47s-.06,1.78-1.27,1.78c-6.87,0-13.73,0-20.6,0a1.86,1.86,0,0,1-1.76-1.16,5.87,5.87,0,0,1-.47-1.1c-.8-2.83-2.8-4.05-5.58-4.06q-14.52,0-29,0c-2.81,0-4.87,1.23-5.76,4.08-.36,1.19-1,2.17-2.43,2.28a2,2,0,0,0-2.05,1.86c-.15,1.34.89,1.9,1.88,2.16,6.21,1.65,9.34,7,9.54,12.34a11.9,11.9,0,0,1-4.06,9q-6.92,6.65-13.82,13.32-8.73,8.44-17.42,16.92-11.42,11.08-22.81,22.17c-2.87,2.78-5.74,5.56-8.68,8.28a9.85,9.85,0,0,1-13.51-.27l-16.59-15.84q-6.36-6.06-12.69-12.14-13-12.45-26-24.8c-2.91-2.74-5.81-5.49-8.67-8.28-5.75-5.63-3.93-15,2.23-19A9,9,0,0,1,86,190.2a6,6,0,0,0,2.21-.24,1.79,1.79,0,0,0,1.45-2.22c-.16-1.15-1.09-1.32-1.92-1.58a4.67,4.67,0,0,0-1.35,0c-15.78,0-31.57,0-47.35,0-2.09,0-3.85-.36-4.93-2.37a2.58,2.58,0,0,1-.39-1.26q0-13.9,0-27.8a6.39,6.39,0,0,0,1.33-.12,43.32,43.32,0,0,1,9.16-1.54,73,73,0,0,1,8.37-.13C54.42,153,56.19,153.08,58,153.16Zm122.32,36.49c2.56,0,5.11-.06,7.67,0a2.47,2.47,0,0,0,2.74-2.15c.62-2.34,1.27-4.67,2-7,.6-1.94.34-3.11-1.08-4.08s-2.64-.81-4.16.54a36.62,36.62,0,0,1-7.06,5,37.44,37.44,0,0,1-8.74,3.27A2.07,2.07,0,0,0,170,188a2.17,2.17,0,0,0,2.47,1.7C175.07,189.62,177.68,189.65,180.28,189.65Zm21.83.59h0c1.75,0,3.5.05,5.25,0,1.13,0,1.66-.76,1.68-1.88s-.34-1.86-1.47-1.87q-5.31-.06-10.63,0a1.6,1.6,0,0,0-1.71,2,1.73,1.73,0,0,0,1.94,1.8C198.82,190.21,200.47,190.24,202.11,190.24Zm-44.4-1.75h1.8a1.48,1.48,0,0,0,1.65-1.53c0-1.05-.39-1.93-1.52-2.05a16,16,0,0,0-3.73,0A1.72,1.72,0,0,0,154.4,187a1.49,1.49,0,0,0,1.67,1.52C156.61,188.48,157.16,188.49,157.71,188.49Z"/><path class="cls-3" d="M91,110.92c0-2.45-.08-4.91,0-7.36A3.68,3.68,0,0,1,94.56,100c2.37-.13,3.54-1.15,3.63-3.11a2.73,2.73,0,0,0-1.84-2.93A41.27,41.27,0,0,1,85,87.54a27.48,27.48,0,0,1-8.3-11.12c-.64-1.62-.43-2.2,1.19-2.88q7.65-3.21,15.31-6.37a1.75,1.75,0,0,1,2.49.86,21.61,21.61,0,0,0,7.59,8.18,11.81,11.81,0,0,0,8.62,1.29c2.51-.5,4.83-1.22,6.66-3a8.92,8.92,0,0,0-2.69-14.61A36.07,36.07,0,0,0,106,57.35c-7.83-1.17-15.07-3.79-21.18-9-5.48-4.68-8.65-10.55-8.61-17.84C76.3,23.71,79.16,18,84,13.42a34.45,34.45,0,0,1,20.2-9.18,37.43,37.43,0,0,1,29.7,8.68,25.74,25.74,0,0,1,7.27,10.35,1.56,1.56,0,0,1-1,2.16c-5.23,2.23-10.48,4.41-15.73,6.61-1.06.44-1.67.21-2.11-1-1.43-3.93-4-6.95-8.08-8.17-5.26-1.57-11.93.22-14,5.82a7.65,7.65,0,0,0,3.93,9.41A25.32,25.32,0,0,0,111.61,40c10.6,1.44,20.36,4.72,27.64,13.15a19.64,19.64,0,0,1,4,8.52,31.94,31.94,0,0,1,.6,10c-.09,1.22-.6,2.31-.8,3.49-.16,1-.31,1.82.82,2.18a2.12,2.12,0,0,0,2.84-1.18,25.76,25.76,0,0,0,1-11.38,33.06,33.06,0,0,0-2.58-9.44,1.11,1.11,0,0,1,.34-1.34,5.14,5.14,0,0,0,1.31-3.7c0-13.48,0-27-.06-40.44,0-3.33,2-4.91,4.94-4.9,17.13.09,34.27,0,51.41,0,3.46,0,5.17,1.65,5.22,5.13.05,4.26,0,8.52,0,12.78,0,2.56-1.37,3.83-3.94,3.83q-14.81,0-29.62,0c-2.63,0-3.71,1.08-3.71,3.69s0,5.32,0,8a3.2,3.2,0,0,0,3.37,3.37c4.31,0,8.62,0,12.93,0,1.95,0,2.89.79,2.94,2.74q.12,5.64,0,11.27c0,2.65-1.36,3.88-4,3.91-3.8,0-7.61,0-11.42,0-2.77,0-3.8,1-3.8,3.77v4.51c0,2.6,1.22,3.81,3.87,3.81q11.81,0,23.6,0c1.76,0,3.51,0,5.26,0a4.35,4.35,0,0,1,4.39,3.92,112.59,112.59,0,0,1,0,14.11,4,4,0,0,1-4.1,3.59H179.65a3.61,3.61,0,0,0-2.18.34,3.18,3.18,0,0,0-1.72,2.92,3.1,3.1,0,0,0,2,2.73,43.74,43.74,0,0,1,10.23,6c.46.37.86.82,1.29,1.23a4.63,4.63,0,0,1-.76.48,37.66,37.66,0,0,1-17.13,2.5,42.34,42.34,0,0,1-4.86-.77c-4.69-.93-8.75-3.41-13.06-5.3a49.18,49.18,0,0,0-8.69-3c.85-1.08,2.26-1.11,3.33-1.77a2.88,2.88,0,0,0,1.63-2.62,2.39,2.39,0,0,0-1.7-2.53c-1.31-.33-1.43-1.07-1.37-2.15s0-2.2,0-3.3a5.48,5.48,0,0,0-.85-2.81c-1.32-2.47-5.49-3.43-8.54-.28-7.16,7.38-15.84,11.2-26.26,10.64-1.62-.08-2.56.64-2.68,1.93s.88,2.08,2.39,2.33c1.11.19,2.32-.21,3.34.53-2.38.21-4,1.83-5.85,3.08-3.59,2.5-7.15,5-11.34,6.47A13,13,0,0,1,91,110.92Z"/><path class="cls-3" d="M226.15,154.17a47.86,47.86,0,0,0-9.43,2.58,64.26,64.26,0,0,0-14.57,7.57,55.26,55.26,0,0,0-9,7.6c-.87.93-1.46,1.08-2.38.07-4.69-5.14-10.48-8.82-16.48-12.2-1.19-.67-2.6-.95-3.63-1.94-.22-2.19-.62-2.55-2.82-2.56-1.6,0-3.2,0-4.81,0-2.36-.05-3.5-1.2-3.5-3.53q0-6.54,0-13.08c0-2.53,1.33-3.94,3.85-3.95,11.87,0,23.75,0,35.62,0,1,0,1.45.31,1.42,1.39-.09,4.45.15,8.91-.33,13.36-.1,1,.1,1.94,1.23,2.27s2-.2,2.57-1.67q3.6-9.85,7.22-19.7c.17-.46.42-.89.64-1.34a1.41,1.41,0,0,0,1.15,1.67,47.61,47.61,0,0,1,9.28,3.76,60.93,60.93,0,0,1,9.18,5.85c-.72,2-1.37,4.09-2.16,6.09C228.13,149,227.4,151.67,226.15,154.17Z"/><path class="cls-4" d="M144.79,100.61a49.18,49.18,0,0,1,8.69,3c4.31,1.89,8.37,4.37,13.06,5.3a42.34,42.34,0,0,0,4.86.77,37.66,37.66,0,0,0,17.13-2.5,4.63,4.63,0,0,0,.76-.48c2.69,1.81,4.57,4.42,6.55,6.89a1.78,1.78,0,0,1-.59,2.62q-7.35,4.65-14.77,9.2c-1.11.68-2,1.64-3.42,1.88a3.19,3.19,0,0,1-3.18-1,19.3,19.3,0,0,0-6.16-5.12,12.62,12.62,0,0,0-12.31.75c-4,2.39-6.49,6.07-8.08,10.41a28,28,0,0,0-1.69,10.62c0,1.2.77,2.3.46,3.53-1.39,1.24-2.31.28-3.21-.7a48.75,48.75,0,0,0-6.28-5.47,69.33,69.33,0,0,0-13.56-7.84c-.81-.37-2.41-.2-2.29-1.88-.09.37-.18.74-.28,1.12l-.06-8.1c0-.67.23-1.17,1-1.24,1.84-.16,2.87-1.34,3.66-2.86a43.65,43.65,0,0,1,15.42-16.77A11.24,11.24,0,0,1,144.79,100.61Z"/><path class="cls-3" d="M120.48,131.64c.1-.38.19-.75.28-1.12-.12,1.68,1.48,1.51,2.29,1.88a69.33,69.33,0,0,1,13.56,7.84,48.75,48.75,0,0,1,6.28,5.47c.9,1,1.82,1.94,3.21.7l2,6c-.3.67-.9.48-1.42.48-2.65,0-5.31-.12-7.93.14a56.76,56.76,0,0,0-13.52,2.68c-1.27.45-2.7.46-3.76,1.44-1.76-.22-3.29.09-4.25,1.77a23.68,23.68,0,0,0-5.83,2.84A58.08,58.08,0,0,0,98.28,172.1c-.8.86-1.34.72-2,0a32.53,32.53,0,0,0-5.3-4.64q0-19.84,0-39.7c.1-.11.2-.31.3-.31a67,67,0,0,1,23.31,2.12c.67.2,1.5-.1,2,.6q.06,6.52.11,13.06c0,1.45.78,2.4,1.89,2.43s1.83-.87,1.84-2.41C120.45,139.35,120.47,135.49,120.48,131.64Z"/><path class="cls-4" d="M231.31,140.28a60.93,60.93,0,0,0-9.18-5.85,47.61,47.61,0,0,0-9.28-3.76A1.41,1.41,0,0,1,211.7,129a40.12,40.12,0,0,1,2-6c1.45-4.22,3.08-8.37,4.59-12.58a14.32,14.32,0,0,1,.65-1.3,36.66,36.66,0,0,0,10.56.63,43.48,43.48,0,0,0,10-2.19c3.66-1.2,7.23-2.85,11.25-2.07,1.11,1.83,1.55,3.93,2.31,5.9q3.09,8,5.93,16.12A18.57,18.57,0,0,1,260.5,132c-.06.39,0,1-.41,1-1.13.1-1.85.92-2.77,1.37a62.26,62.26,0,0,0-11,7c-1.55,1.22-2.8,2.8-4.57,3.74-1.38-2.38-1.91-5.1-3-7.61-.55-1.32-1.1-2.51-2.79-2.6-1.9-.1-2.5.24-3.37,2.15C232.17,138.12,231.75,139.2,231.31,140.28Z"/><path class="cls-4" d="M33.78,135.58c0-5.83-.07-11.67-.07-17.51,0-4.2.06-8.39.09-12.58.44.84.87,1.69,1.34,2.51a9.41,9.41,0,0,0,3.66,3.61,19.46,19.46,0,0,0,14.35,1.79c1.11-.25,2.23-.49,3.35-.69,1-.17,1.34.23,1.33,1.24q0,12.85,0,25.7a1.83,1.83,0,0,1-.76,1.68,44.55,44.55,0,0,0-6.32,5.72c-.61.61-1.06.54-1.63,0-1.48-1.47-3.08-2.82-4.66-4.18A67,67,0,0,0,33.78,135.58Z"/><path class="cls-3" d="M33.78,135.58a67,67,0,0,1,10.68,7.26c1.58,1.36,3.18,2.71,4.66,4.18.57.57,1,.64,1.63,0a44.55,44.55,0,0,1,6.32-5.72,1.83,1.83,0,0,0,.76-1.68q0-12.85,0-25.7c0-1-.38-1.41-1.33-1.24-1.12.2-2.24.44-3.35.69a19.46,19.46,0,0,1-14.35-1.79A9.41,9.41,0,0,1,35.14,108c-.47-.82-.9-1.67-1.34-2.51,0-1.55-.11-3.1-.11-4.65a3,3,0,0,1,3.09-3.15q9.24-.07,18.48,0c1.81,0,2.75,1.15,2.83,3.35.07,1.95,0,3.9,0,5.86,0,1.8,0,3.6.07,5.4a2.19,2.19,0,0,0-.21,1.31v25.83a2.2,2.2,0,0,0,.2,1.31c0,3.49,0,7-.07,10.48,0,.64-.09,1.29-.14,1.93-1.77-.08-3.54-.21-5.31-.23a73,73,0,0,0-8.37.13,43.32,43.32,0,0,0-9.16,1.54,6.39,6.39,0,0,1-1.33.12C33.61,148.34,33.62,142,33.78,135.58Z"/><path class="cls-4" d="M116.59,130.12c-.52-.7-1.35-.4-2-.6a67,67,0,0,0-23.31-2.12c-.1,0-.2.2-.3.31q0-8.38,0-16.79a13,13,0,0,0,6-.79c4.19-1.46,7.75-4,11.34-6.47,1.8-1.25,3.47-2.87,5.85-3.08,2.08,0,2.59.51,2.59,2.68q0,11,0,21.92C116.69,126.83,116.63,128.47,116.59,130.12Z"/><path class="cls-3" d="M241.77,145.12c1.77-.94,3-2.52,4.57-3.74a62.26,62.26,0,0,1,11-7c.92-.45,1.64-1.27,2.77-1.37.45,0,.35-.64.41-1,1.39,2.33,2,5,2.94,7.47,2.4,6.29,4.66,12.63,7,19a8.51,8.51,0,0,0,.77,2.38c-1.52-.17-2.69-1.16-4-1.75a68,68,0,0,0-12.71-4.39,68.8,68.8,0,0,0-9.77-1.58A33.74,33.74,0,0,1,241.77,145.12Z"/><path class="cls-3" d="M250.83,105.48c-4-.78-7.59.87-11.25,2.07a43.48,43.48,0,0,1-10,2.19,36.66,36.66,0,0,1-10.56-.63,32.4,32.4,0,0,1,3.15-8.3,6.6,6.6,0,0,1,5.79-3.11c5.45-.07,10.89-.09,16.34,0a5.36,5.36,0,0,1,5.3,3.81A18.94,18.94,0,0,1,250.83,105.48Z"/><path class="cls-2" d="M58.17,140.75a2.2,2.2,0,0,1-.2-1.31V113.61a2.19,2.19,0,0,1,.21-1.31c.26.31.15.67.15,1v26.44C58.33,140.08,58.44,140.45,58.17,140.75Z"/><path class="cls-1" d="M117.24,158.93c1-1.68,2.49-2,4.25-1.77,2.05,1.48,2.43,4,3.54,6a44.41,44.41,0,0,0,16.88,17.56,38.11,38.11,0,0,0,8.29,3.6,2.73,2.73,0,0,1-.41,5.31,4.47,4.47,0,0,1-.9,0q-15.33,0-30.66,0c-1.07,0-2-.16-2.54-1.2a2.26,2.26,0,0,1,.69-2.83,2.9,2.9,0,0,0,.69-2.37q0-10.44,0-20.89C117.07,161.23,117.18,160.08,117.24,158.93Z"/><path class="cls-1" d="M241.77,145.12a33.74,33.74,0,0,0,2.95,7.94c.07,1.69,1,3.1,1.46,4.68.58,2-.61,4.15-2.71,4.18-5.25.07-10.51.19-15.75,0-2.8-.13-3.23-2.05-2.52-4.91a17,17,0,0,0,1-2.79c1.25-2.5,2-5.2,3-7.8.79-2,1.44-4.06,2.16-6.09.44-1.08.86-2.16,1.33-3.22.87-1.91,1.47-2.25,3.37-2.15,1.69.09,2.24,1.28,2.79,2.6C239.86,140,240.39,142.74,241.77,145.12Z"/><path class="cls-1" d="M180.28,189.65c-2.6,0-5.21,0-7.81,0A2.17,2.17,0,0,1,170,188a2.07,2.07,0,0,1,1.64-2.73,37.44,37.44,0,0,0,8.74-3.27,36.62,36.62,0,0,0,7.06-5c1.52-1.35,2.74-1.52,4.16-.54s1.68,2.14,1.08,4.08c-.72,2.31-1.37,4.64-2,7a2.47,2.47,0,0,1-2.74,2.15C185.39,189.59,182.84,189.65,180.28,189.65Z"/><path class="cls-1" d="M202.11,190.24c-1.64,0-3.29,0-4.94,0a1.73,1.73,0,0,1-1.94-1.8,1.6,1.6,0,0,1,1.71-2q5.33-.1,10.63,0c1.13,0,1.48.85,1.47,1.87s-.55,1.84-1.68,1.88c-1.75.07-3.5,0-5.25,0Z"/><path class="cls-1" d="M157.71,188.49c-.55,0-1.1,0-1.64,0A1.49,1.49,0,0,1,154.4,187a1.72,1.72,0,0,1,1.51-2.05,16,16,0,0,1,3.73,0c1.13.12,1.56,1,1.52,2.05a1.48,1.48,0,0,1-1.65,1.53Z"/><path class="cls-1" d="M116.59,130.12c0-1.65.1-3.29.1-4.94q0-11,0-21.92c0-2.17-.51-2.67-2.59-2.68-1-.74-2.23-.34-3.34-.53-1.51-.25-2.5-1.12-2.39-2.33s1.06-2,2.68-1.93c10.42.56,19.1-3.26,26.26-10.64,3.05-3.15,7.22-2.19,8.54.28a5.48,5.48,0,0,1,.85,2.81c0,1.1,0,2.2,0,3.3s.06,1.82,1.37,2.15a2.39,2.39,0,0,1,1.7,2.53,2.88,2.88,0,0,1-1.63,2.62c-1.07.66-2.48.69-3.33,1.77a11.24,11.24,0,0,0-4.29,2.06,43.65,43.65,0,0,0-15.42,16.77c-.79,1.52-1.82,2.7-3.66,2.86-.77.07-1,.57-1,1.24l.06,8.1c0,3.85,0,7.71,0,11.56,0,1.54-.7,2.44-1.84,2.41s-1.87-1-1.89-2.43Q116.64,136.66,116.59,130.12Z"/></g></g></svg>