<?xml version="1.0" encoding="utf-8"?>
<!-- Generator: Adobe Illustrator 23.0.1, SVG Export Plug-In . SVG Version: 6.00 Build 0)  -->
<svg version="1.1" id="Layer_1" xmlns="http://www.w3.org/2000/svg" xmlns:xlink="http://www.w3.org/1999/xlink" x="0px" y="0px"
	 viewBox="0 0 419.1 218.6" style="enable-background:new 0 0 419.1 218.6;" xml:space="preserve">
<style type="text/css">
	.st0{fill:#FFFFFF;}
</style>
<title>Asset 11</title>
<path class="st0" d="M401.7,165.7c-3-1.2-15.4-4.6-17-5.9c-1.3-0.9-2.1-2.3-2.2-3.9c0-1.1,1-3.2,5.7-3.2s9.8,1.1,12.8,4.4
	s4.3,6.5,9.3,6.5s5.9-4.6,5.9-6.2s-0.4-8.1-1-9.6s-3.6-8.2-4.7-9.2c-0.4-0.3-1-0.5-1.5-0.5c-2.9-0.2-8.6,0.1-8.6,0.1s-7-1.4-9.5-1.5
	s-10.5-0.9-15.1,0.9s-11.6,3.9-18.1,13.4s-2.4,22.5-2.4,22.5s4,9.9,12.6,12.5s24.2,6.8,24.9,9.7s-0.2,8.1-5.5,8s-12.5-2.1-15.9-6.1
	s-5.8-9.4-9.5-9.5s-5,2.2-5.4,3.6s-0.7,5-1.2,5s-3.5-1.2-3.5-5.2s0.7-13.2,0.7-16.4s0.9-21.5-0.8-25.4s-6.4-11.4-18.2-11.5
	s-21,0.1-28.9,2.9s-16.4,7-17.7,13.1s0.8,12.1,3,13.2s4.5,1.2,6.6-1s9.7-10.1,14.1-11.6s8.4-2.2,10.8,0c2.1,1.7,3.3,4.2,3.3,6.9
	c0.2,2,0.2,4,0.1,5.9c0,0-10.9,2.2-17.4,5.5s-15,6.4-19.6,13.8s-4.1,11.1-3.9,12.7s0.5,5.9,0.5,5.9s-4-1.1-4-6.2v-29.8
	c0,0,0.1-14.9-6.5-19.8s-12.6-7.4-20.1-6.7s-18.7,7.9-18.7,7.9c-0.7,0.5-1.5,1-2.3,1.3c-0.4,0-1.6-2.1-1-3.2s1.2-7.3-1-8.2
	s-7.6,1.4-9.2,2.3l-1.6,0.9c0,0-12.3,5.3-13.7,5.8s-10.8,3.6-11.7,5.7h-0.6c0,0-3.9-14.9-23.2-16s-30.8,8.7-30.8,8.7
	s-10.7,8.1-12.8,17.9c0,0,0.9-12.1-7.4-16.6s-14.8-5.9-24.4-3.5c-5.8,1.5-11,4.5-15.1,8.8c0,0-2.1-10-10.8-10.1s-18-0.3-29.1,8.1
	l-0.6,0.1c0,0,1.2-5.7-1.8-8.6c-2.1-2.1-5-3.1-8-2.9c-1.8,0.1-10.1,5.1-10.1,5.1s-11.8,7-13.5,7.6s-5.6,3.7-6,5.4s-0.5,3.4,0.4,4.1
	c0,0,4.1,2.8,5.1,10.4s1.2,18.7,0,23.7s-3.3,9.1-3.3,12.2s-0.1,6.5,1.2,6.6s36.1,0.2,36.1,0.2s1.9-0.6,1.9-3.9
	c-0.1-3.4-0.6-6.9-1.5-10.2c-1.1-3.1-1.7-6.3-1.9-9.5c0-2.9,0.5-27.5,0.5-27.5c1.2-0.7,2.5-1,3.8-1.1c2.2,0,11,2.9,11.8,11.1
	s0.2,16.5-0.8,19s-7,9.7-7.6,10.8s-0.2,6.1,0,7.3s1.4,4.2,2,4.3s33.8,0,33.8,0s3.1,0,2.8-6.1s-3.1-12.2-3.1-16.5s0.4-28.3,0.4-28.3
	c1.6-1.2,3.7-1.8,5.7-1.8c3.7,0,10.5,4.7,10.5,12.5s0.2,14-1.5,17.7s-9.1,11-9.2,14.8c0,2.6,0.3,5.1,1.1,7.6h40.1c0,0,4.2,0.3,4.3-5
	s-1.6-6.8-3.2-8.5c-1.7-1.6-2.8-3.8-3-6.2c-0.1-2.6,0.1-6,0.1-6s0.2-0.8,0.7-0.8s1,3.8,2.3,6.4s9.1,19.3,32.4,21.3
	s34.5-14.5,34.5-14.5s4.9-6.6,5.4-8.5v7.1c0,0-0.2,3.2-2.9,4.1s-6.9,2.9-7.4,4.8s-1.8,4.3,0.4,4.9s9.6,0.2,9.6,0.2h32
	c1.8,0,3.3-1.5,3.4-3.3c0-0.1,0-0.1,0-0.2c0-3.5-2.6-6.9-4.6-8.6s-3.4-8.3-3.4-12s0.1-14.6,0.3-15.4s-0.2-9.4,1.6-10.7
	c2-1.6,4.5-2.4,7-2.3c3.7,0,9.1,4.6,9.1,9.9s1.6,24.7,0.9,26.6c-0.6,2.1-1.9,4-3.7,5.2c-2.2,1.5-3.5,4-3.4,6.6
	c0.1,2.6,1.2,4.6,3.2,4.7s40.2-0.2,40.2-0.2s2.7-0.1,2.8-2.2s1-2.1,1.6-1.4s5,4.7,12.6,4.7s19.4-3.7,23.2-8.4c0,0,0.7-0.5,0.7,0.3
	s0.4,4.9,4.2,6.9s5.5,1.8,7.1,1.8c4.6-0.1,9.1-1.4,13.2-3.7c5.3-3.2,7.4-5.3,8-5.3s0.8,3.9,4.4,5.5c3.7,1.8,7.7,2.6,11.8,2.6
	c4.8,0,15.3-0.6,21.9-2.8s18.9-5.2,22.8-23.8S404.7,166.9,401.7,165.7z M201.6,174.9c0,0-3.7-0.2-4.6,0.4s-5.8,7.6-11.9,9.6
	s-13.5,3.9-18.2,2.4c-5.6-2.1-10.1-6.5-12.1-12.2c-2.2-6.2-3.9-13.6-2-17s4-5.2,8-5.2s7,4.2,7,9.2s-1.6,9.9-3,11.6s-3.5,4.5-3.1,6.9
	s1.8,5.9,7.9,5.2s14.8-2.3,18.9-7.9s6.2-8.4,6.4-10.9s0.3-4.7,0.3-4.7s4.2,5.1,5,6.1S202,173.4,201.6,174.9L201.6,174.9z
	 M324.3,195.8c0,0-1.5,3.1-4.5,3.3s-6.5-0.6-6.2-4.8s1.5-7.3,11.8-10.5L324.3,195.8z"/>
<g>
	<path class="st0" d="M65.8,113.6c8.8,6.3,18.2,7.8,23,8.6s13.2,2,13.2,6.3s-0.4,7.6-5.2,7.7c-4.8,0.2-12.1,0-16-3.8
		c-3.9-3.8-7-9.4-10.4-10.1c-3.4-0.7-6.5,0.2-7,3c-1,3.7-1.2,7.5-0.7,11.3c0.1,1.1,0.5,2.2,0.9,3.3c0.9,0,1.9,0,2.8,0c1,0,2,0,2.9,0
		l0.3,0c6,0.1,10,3.4,12.5,7c3.6-2.6,7.7-4.4,12.1-5.6c3.5-0.9,6.7-1.3,9.8-1.3c3.8,0,7.4,0.6,11.2,2.1c0.6-0.5,1.2-1,1.7-1.6
		c5.9-6.3,8.6-10.9,8.8-12.7c0,0,4.8,9.2,13.9,14.7c4.6-2.9,14.4-7.9,28.2-7.9c1.1,0,2.1,0,3.2,0.1c14.5,0.8,21.8,8.3,25.1,13.9
		c2-0.9,4.5-1.9,7.8-3.1c0.3-0.1,0.5-0.2,0.6-0.2c0.8-0.3,7.3-3.1,13.2-5.6l1.3-0.8c1.2-0.7,6.3-3.2,10.5-3.2c1.1,0,2.2,0.2,3.1,0.6
		c1.3,0.5,3,1.7,3.9,4.3c0,0.1,0.1,0.2,0.1,0.2c3.1-4.8,7.9-12.7,9-22.2c0,0,1.1-0.4,1.3,1.5c0.3,1.8,3.9,12.7,10.9,18
		c6.3,0.4,12.2,2.8,18.9,7.7c0.9,0.6,1.6,1.4,2.3,2.2c1.6,0.4,3.2,0.7,4.9,0.9c4-6.1,12.4-9.8,18.9-12.2c5.9-2.1,12.2-2.9,19.9-3.2
		c2.8-3.9,8-10.4,9-18.2c1-8.5,0.2-12-3-12.6c-3.2-0.6-4.1,0-6.9,2.6s-10.2,9.8-20.2,10.7s-19.1,0.4-24.5-10.5
		c-5.3-10.8-6.2-20.7-2.6-25.4c2.3-3.2,6.1-4.8,10-4.3c1.8,0.2,7.3,2.7,7,10.3c-0.3,7.6-1.9,12.3-3.2,14.1c-1.3,1.8-4.2,5.8-3.5,8
		c0.7,2.2,1.4,5.7,8.6,4.8c7.2-0.9,20.1-4.5,24-13.9s4.1-17.9-1.5-25.1s-15-14.1-30-13.3s-22.4,6.9-25.7,9.6s-11.3,14.1-11.3,14.1
		V64.4c0,0,0.1-10.7,0.4-11.9c0.3-1.3,1.4-8.3-2.7-8c-4.2,0.3-26.6,7.8-34.6,11.4c-8,3.6-9.5,7.1-9.2,10.7c0.3,3.6,2.4,6.8,7.4,10.3
		l0.2,30c0,0-0.4,22.6-1.1,24.8c-0.7,2.2-1.5,4.6-4.7,5c-3.2,0.3-8.2,0.4-7.3-0.9c0.8-1.2,5.5-5.9,7.4-10.7c2-4.8,5.1-15.2,2.7-20
		c-2.4-4.8-7.4-2-8.7-0.5c-4.3,5.3-10.2,9.1-16.9,10.5c-10,2-20,4.3-27.8-8c-7.8-12.3-4.6-23.7-3.1-27.1c1.5-3.4,5.8-5,8.8-4.4
		c3,0.6,9,4.1,8,11.2s-1.5,10.9-3.6,13.7c-2.1,2.9-4.4,6.6-3.4,8.8s3,4.6,8.1,3.8s18.6-3.5,23.4-11.9c4.8-8.3,7.8-22.1-4.4-32.1
		c-12.2-10-26.5-9.2-35.9-7.4c-9.5,1.9-19.6,11.3-21,13.3c-1.5,2-7.6,11.5-8.8,17.5c-1.2,6-1.4,7.6-1.4,7.6c-4.1-3-8.7-5.1-13.6-6.1
		c-7.6-1.5-19.7-4.2-19.8-6.9c-0.1-2.8,1.6-5.8,9.9-5.5c4.8,0.1,9.2,2.3,12.3,5.9c0,0,2.4,3.7,6.4,3.7s7.3-1.8,7.4-6.7
		s-3.7-18.6-7.8-20c0,0-0.6-0.4-2.2,0.2c-1.7,0.6-11.3,0.7-13.5,0.4c-2.2-0.3-12.6-1-21.2,2.3c-8.7,3.3-18.8,12.8-19.8,20.8
		C57.5,96.4,57,107.3,65.8,113.6z"/>
</g>
</svg>
