<svg xmlns="http://www.w3.org/2000/svg" xmlns:xlink="http://www.w3.org/1999/xlink" viewBox="0 0 419.06 218.62"><defs><style>.cls-1{fill:url(#Gradiente_sem_nome_32);}.cls-2{fill:url(#Gradiente_sem_nome_22);}.cls-3{fill:#80c6c7;}.cls-4{fill:url(#Gradiente_sem_nome_32-2);}.cls-5{fill:#f9c125;opacity:0.56;}</style><linearGradient id="Gradiente_sem_nome_32" x1="195.05" y1="159.28" x2="195.05" y2="44.46" gradientUnits="userSpaceOnUse"><stop offset="0" stop-color="#ee8a05"/><stop offset="0.14" stop-color="#f09608"/><stop offset="0.42" stop-color="#f4aa0c"/><stop offset="0.7" stop-color="#f6b50f"/><stop offset="1" stop-color="#f7b910"/></linearGradient><linearGradient id="Gradiente_sem_nome_22" x1="209.53" y1="136.6" x2="209.53" y2="218.62" gradientUnits="userSpaceOnUse"><stop offset="0" stop-color="#73c0bf"/><stop offset="0.22" stop-color="#5fbcbd"/><stop offset="0.66" stop-color="#2bb1b7"/><stop offset="1" stop-color="#00a8b2"/></linearGradient><linearGradient id="Gradiente_sem_nome_32-2" x1="226.01" y1="39.22" x2="226.01" y2="0" xlink:href="#Gradiente_sem_nome_32"/></defs><title>Asset 11</title><g id="Layer_2" data-name="Layer 2"><g id="Camada_1" data-name="Camada 1"><path class="cls-1" d="M63.27,125.35a29.84,29.84,0,0,0-.73,11.25c.8,6.11,6.8,13.21,12.88,14.09s9.6,1.32,16.78,0,18.68-3.88,24.54-10.18,8.57-10.91,8.79-12.74c0,0,8.64,16.55,24.83,18.67s39.33,12.31,42.12,12.82,36.07-12.13,36.07-12.13a13.81,13.81,0,0,0,7.53-5.7c3.13-4.67,8.26-12.93,9.43-22.89,0,0,1.06-.37,1.35,1.5s4.07,13.15,11.32,18.35,21,12.27,35.09,10.4,26.15-10.7,28.78-14.43,8.57-10.62,9.62-19.08.16-12-3-12.58-4.07,0-6.87,2.63-10.16,9.84-20.16,10.66-19.12.35-24.47-10.49S271,84.77,274.52,80.08a10.55,10.55,0,0,1,10-4.32c1.83.22,7.25,2.71,7,10.33s-1.9,12.3-3.22,14.06-4.18,5.79-3.52,8,1.4,5.71,8.57,4.83,20.07-4.54,24-13.92,4.1-17.87-1.47-25.12-15-14.14-30-13.26-22.42,6.92-25.71,9.56-11.32,14.06-11.32,14.06V64.41s.11-10.66.38-11.92,1.43-8.25-2.74-8-26.65,7.79-34.63,11.38-9.52,7.1-9.23,10.69,2.42,6.81,7.4,10.33l.22,30s-.42,22.56-1.09,24.75-1.48,4.65-4.7,5-8.15.39-7.3-.85,5.47-5.93,7.45-10.69,5.12-15.17,2.71-20-7.4-2-8.72-.51a30,30,0,0,1-16.92,10.54c-10,2-20,4.25-27.76-8s-4.61-23.74-3.08-27.14,5.83-5,8.79-4.4,9,4.07,8,11.21-1.53,10.88-3.62,13.73-4.4,6.6-3.41,8.79,3,4.62,8.13,3.85,18.57-3.52,23.41-11.87,7.8-22.08-4.4-32.08-26.48-9.23-35.93-7.36-19.55,11.32-21,13.29S123.19,86.6,122,92.64s-1.43,7.58-1.43,7.58A36.55,36.55,0,0,0,107,94.07c-7.59-1.54-19.67-4.17-19.78-6.92s1.65-5.82,9.89-5.49a16.53,16.53,0,0,1,12.3,5.93s2.42,3.73,6.37,3.73,7.26-1.75,7.37-6.7-3.74-18.57-7.8-20c0,0-.55-.41-2.24.22s-11.35.69-13.51.44-12.56-1-21.21,2.27S59.61,80.3,58.58,88.36s-1.61,18.9,7.18,25.2,18.17,7.76,23,8.64,13.17,2,13.17,6.32-.44,7.58-5.22,7.74-12.09,0-16-3.84-7-9.4-10.39-10.06S63.86,122.55,63.27,125.35Z"/><path class="cls-2" d="M401.71,165.71c-3-1.21-15.44-4.62-17-5.94a5.42,5.42,0,0,1-2.19-3.9c0-1.15,1-3.18,5.66-3.18s9.83,1.1,12.8,4.39,4.28,6.49,9.28,6.49,5.88-4.62,5.88-6.16-.44-8.07-1.05-9.56-3.64-8.22-4.67-9.17a2.22,2.22,0,0,0-1.49-.47c-2.91-.2-8.56.14-8.56.14s-7-1.37-9.45-1.48-10.55-.88-15.1.88-11.6,3.95-18.13,13.45-2.42,22.53-2.42,22.53,4,9.89,12.58,12.52S392,193.07,392.7,196s-.16,8.13-5.55,8-12.52-2.14-15.87-6.1-5.83-9.45-9.45-9.5-4.95,2.19-5.39,3.62-.66,5-1.21,5-3.46-1.21-3.51-5.22.66-13.18.66-16.42.93-21.48-.83-25.44-6.42-11.43-18.18-11.54-21,.06-28.9,2.92-16.37,7-17.69,13.07.77,12.09,3,13.19,4.51,1.2,6.59-1,9.67-10.06,14.07-11.65,8.35-2.2,10.76,0a9,9,0,0,1,3.3,6.87,40.5,40.5,0,0,1,.06,5.93s-10.94,2.2-17.42,5.49-15.05,6.38-19.56,13.79-4.12,11.1-3.9,12.69.5,5.94.5,5.94-4-1.1-4-6.21V169.59s.11-14.94-6.48-19.78-12.6-7.4-20.14-6.74S234.89,151,234.89,151a10.31,10.31,0,0,1-2.27,1.32c-.44,0-1.61-2.05-1-3.22s1.17-7.32-1-8.2-7.62,1.39-9.23,2.34l-1.61.95s-12.31,5.28-13.7,5.79-10.8,3.59-11.72,5.71h-.58s-3.89-14.94-23.22-16-30.77,8.72-30.77,8.72-10.69,8.13-12.78,17.91c0,0,.88-12.09-7.36-16.59s-14.83-5.94-24.39-3.52A32.14,32.14,0,0,0,80.12,155s-2.13-10-10.77-10.1-17.95-.3-29.08,8.05l-.59.08s1.18-5.72-1.83-8.65a10.33,10.33,0,0,0-8-2.93c-1.76.08-10.11,5.06-10.11,5.06s-11.8,7-13.48,7.61S.64,157.8.28,159.48s-.49,3.35.4,4.14c0,0,4.07,2.75,5.05,10.44s1.21,18.68,0,23.73S2.44,206.91,2.44,210s-.06,6.48,1.18,6.59,36.14.18,36.14.18,1.9-.62,1.9-3.88a39.74,39.74,0,0,0-1.5-10.18,34.92,34.92,0,0,1-1.87-9.52c0-2.9.46-27.47.46-27.47a7.86,7.86,0,0,1,3.85-1.05c2.19,0,11,2.86,11.81,11.1s.22,16.54-.83,19-7,9.73-7.58,10.83-.22,6.09,0,7.3,1.37,4.18,2,4.29,33.84,0,33.84,0,3.12,0,2.75-6.08-3.07-12.23-3.07-16.48.36-28.28.36-28.28a9,9,0,0,1,5.71-1.75c3.74,0,10.48,4.68,10.48,12.52s.22,14-1.54,17.73-9.08,11-9.23,14.79a25,25,0,0,0,1.1,7.6h40.14s4.18.31,4.32-5-1.57-6.77-3.18-8.53a9.66,9.66,0,0,1-3-6.19c-.14-2.6.08-6,.08-6s.16-.77.66-.77,1,3.83,2.27,6.45,9.11,19.34,32.41,21.32S196.58,204,196.58,204s4.89-6.61,5.44-8.48v7.08s-.17,3.19-2.91,4.07-6.87,2.91-7.36,4.78-1.76,4.34.44,4.94,9.55.22,9.55.22l32,0a3.32,3.32,0,0,0,3.35-3.46c0-3.46-2.63-6.92-4.61-8.63s-3.35-8.29-3.35-12,.11-14.56.27-15.44-.16-9.44,1.59-10.71a10.33,10.33,0,0,1,7-2.25c3.68,0,9.12,4.56,9.12,9.94s1.55,24.67.89,26.57a9.23,9.23,0,0,1-3.66,5.2,7.62,7.62,0,0,0-3.37,6.6c.15,2.63,1.17,4.61,3.22,4.68s40.22-.22,40.22-.22,2.71-.11,2.78-2.19,1-2.13,1.58-1.36S293.78,218,301.4,218s19.41-3.67,23.22-8.35c0,0,.67-.48.71.25s.37,4.93,4.16,6.92,5.49,1.78,7.08,1.78a28.41,28.41,0,0,0,13.17-3.72c5.31-3.22,7.4-5.34,7.95-5.31s.77,3.85,4.39,5.46a26.65,26.65,0,0,0,11.76,2.6c4.83,0,15.31-.59,21.9-2.75s18.93-5.17,22.78-23.77S404.68,166.92,401.71,165.71Zm-200.08,9.23s-3.73-.22-4.61.44S191.2,183,185.1,185s-13.52,3.85-18.19,2.37a20.14,20.14,0,0,1-12.08-12.17c-2.2-6.24-3.85-13.6-2-17s4-5.22,8-5.22,7,4.18,7,9.23-1.65,9.89-3,11.59-3.52,4.51-3.08,6.92,1.76,5.88,7.86,5.22,14.83-2.3,18.89-7.91,6.16-8.35,6.38-10.93.27-4.67.27-4.67,4.18,5.06,5,6.15S202,173.45,201.63,174.94Zm122.69,20.87s-1.53,3.08-4.46,3.3-6.45-.59-6.16-4.76,1.54-7.25,11.8-10.48Z"/><path class="cls-3" d="M22.69,158.38s-3.81,5.2-4.39,8.87-.66,10.47-3.15,10.36-6-4.47-6.67-9.61-2.56-7.57.95-10.64,6.23-6.3,9.74-4.18S23.35,156.41,22.69,158.38Z"/><path class="cls-3" d="M58.14,152.19s4.34,3.79,6.48,4.51,2.81,1.7,4.67,1.7,5.83.28,6-1.21.22-6.64-2.69-7.85A13.51,13.51,0,0,0,65.5,148c-2.74.16-3.73-.44-5.49.66a3.25,3.25,0,0,0-1.87,2.41A1.57,1.57,0,0,0,58.14,152.19Z"/><path class="cls-3" d="M103.34,154.94s8,4.47,10.18,4.76,6.08.59,6.08-1.28,1.83-7.14-2.42-8.24-4.91-2-8.79-1.47-5.42.59-5.71,2.27S102,154.2,103.34,154.94Z"/><path class="cls-3" d="M170.65,146.81a7.15,7.15,0,0,0,2.2,4.78c2.31,2.47,4.17,4.83,6.65,5.93s5.76,1.49,6.48,0,2-5.66-.94-8.46a13.88,13.88,0,0,0-8.95-4.12C173.12,144.78,171.2,144.72,170.65,146.81Z"/><path class="cls-3" d="M221.85,147.47s-11.79,3.51-15.89,6-6.74,3.73-6.52,6.37,5.95,3.15,9.75,1.76,15.3-6.74,16.1-8.13,1.1-4,0-5.5S221.85,147.47,221.85,147.47Z"/><path class="cls-3" d="M257.52,146.22s-8.86-.14-10.18,3.15,2.34,6,5.93,5.72,8.28-.08,10.55,5.12,6.45,8.57,8.57,7,4-7.91,1.61-11.5S265.65,146,257.52,146.22Z"/><path class="cls-3" d="M321.39,146.22s8.65-.66,12.6,2.27,6.45,6.74,9,6.16,4.47-5.72,1.47-9.09A18.39,18.39,0,0,0,330.33,140c-5.64.29-11.35.73-12.16,2.34S318.17,145.92,321.39,146.22Z"/><path class="cls-3" d="M378.53,148.35s-6.38,2.42-7.69,8.57-.44,11-4.62,11.31-8.24-2.08-6.92-7.69,5.16-15.6,12.52-17.58,10.66-1.75,10.44.66S383.36,146.15,378.53,148.35Z"/><circle class="cls-4" cx="226.01" cy="19.61" r="19.61"/><path class="cls-5" d="M83.12,77.3s-6.89,5-7.76,10,1.17,13.85-2.57,14.14-9.08-.29-10.18-6S61.73,81.33,70,76.57s15.53-7.18,16.77-5.13,1.17,4,0,4.39S83.12,77.3,83.12,77.3Z"/><path class="cls-5" d="M136.7,74.73s-9.23,7.09-10.49,14.12-2.47,14.07,1.32,14.45,7.47-4.89,8-8.18,3.62-12,4.67-13.46,3.57-5.83,1.48-7.2S136.7,74.73,136.7,74.73Z"/><path class="cls-5" d="M241.19,50.73s-.66,4.78-4.84,6.42-20.38,9.56-22.52,10-7.2.77-7-2,3.9-4.67,11.15-7.59,19.94-7.8,20.82-8S241.3,49,241.19,50.73Z"/><path class="cls-5" d="M261.77,86s-3.3,9.82-2.27,17,4.54,10.77.44,12.74-7.76.88-8.94-4.39-1-18.17,1-22.86,4.9-9.37,7-9.15,3.23,1.39,3,3.81A9.75,9.75,0,0,0,261.77,86Z"/><path class="cls-5" d="M263.38,71s-3.15,2.34-1.9,4.91,4.83,2,5.49.88,1.54-4.18.44-5.79S263.38,71,263.38,71Z"/><path class="cls-5" d="M219.1,6.34s-7.58,2-7.8,7.58a5.39,5.39,0,0,0,6.92,5.69c1.76-.8,5.88-5.63,6-9.21S222.29,6.06,219.1,6.34Z"/></g></g></svg>