<?xml version="1.0" encoding="utf-8"?>
<!-- Generator: Adobe Illustrator 23.0.1, SVG Export Plug-In . SVG Version: 6.00 Build 0)  -->
<svg version="1.1" id="Layer_1" xmlns="http://www.w3.org/2000/svg" xmlns:xlink="http://www.w3.org/1999/xlink" x="0px" y="0px"
	 viewBox="0 0 433.3 180.4" style="enable-background:new 0 0 433.3 180.4;" xml:space="preserve">
<style type="text/css">
	.st0{fill:#FFFFFF;}
</style>
<title>Asset 15</title>
<g>
	<path class="st0" d="M216.2,41.6c10.1,0,15.6,6.5,15.6,12.5c0,6-8.4,12.3-16.2,12.3c-7.8,0-16.9-2-16.9-12.8
		C198.7,42.9,216.2,41.6,216.2,41.6 M216.2,36.6H216l-0.2,0c-8.2,0.6-22.1,4.8-22.1,17c0,8.4,4.4,12.7,8,14.8c3.6,2,8.1,3,13.8,3
		c9.6,0,21.2-7.7,21.2-17.3C236.8,45.5,229.1,36.6,216.2,36.6L216.2,36.6z"/>
	<path class="st0" d="M109.4,47.5c-2.9,0.2-5.6,1.3-7.9,3.1c-3.2,2.9-4.4,4-5.8,4s-2.4-1.5,0.4-4.8s8.1-5.8,13.9-5.8
		s11.6,3.2,12.2,4.9s-0.1,3-1.7,2.4S116.1,47.5,109.4,47.5z"/>
	<path class="st0" d="M216.4,49.4c0,0-4.6,0.5-7.3,2.4s-4.3,3-5.9,2.8s-2-2.9,1.3-5.5c3.7-2.7,8.1-4.3,12.7-4.3
		c4.2,0,9.8,2.8,11.3,5s0.6,3.7,0,4s-1.9-0.4-2.7-1.4S222.3,49.4,216.4,49.4z"/>
	<path class="st0" d="M73.7,128c0,0,10,7.7,11.4,12.6s1,11.4,2.8,12s3.7-0.5,3.6-3.5s-1.5-9.6-5.9-14.1s-10.1-9.2-11.8-9.6
		s-2.2-0.9-2.5,0S72.9,127.3,73.7,128z"/>
	<path class="st0" d="M53.4,80.8c0,0-1,6-3.3,8.3s-3.7,4.2-4,7c-0.3,2.3-0.1,4.6,0.6,6.8c0.5,1.3,0.8,3.5,0,3.7s-2.9-0.5-3.4-3.9
		s-0.5-8.6,1.2-12.5s5.2-11,6.8-10.8S53.5,80.2,53.4,80.8z"/>
	<path class="st0" d="M57.4,72.2c0,0,0.3,2.2-0.3,3.2s-1.9,1.5-2.7,0.9s-0.5-2,0-3C55,72.2,56.3,71.8,57.4,72.2z"/>
	<path class="st0" d="M30.1,43.8c0,0-2.4,3.9-2.8,4.8c-0.4,0.7-1.4,0.9-2.1,0.5c-0.2-0.1-0.4-0.3-0.5-0.5c-0.4-1-0.3-3.2,1.7-5.4
		s3.4-1.7,3.6-1.3C30.5,42.5,30.5,43.3,30.1,43.8z"/>
	<path class="st0" d="M67.4,18.9c-7.4,1.1-14.4,4.1-20.3,8.6c-9.9,7.5-12.6,11.7-14.3,11.1s0.8-5.8,6.5-13s15.9-14.8,29.5-14.8
		S86.7,20,87,21.8s-0.3,6-4,3.5S75.2,18.9,67.4,18.9z"/>
	<path class="st0" d="M114.9,95.6c0,0-6.6,1-8.1,5.4s-2.2,14.2-3,16.4s-1.4,4.6-2.3,4.4s-1.6-0.7-1.2-4.2s1.3-8.6,1.6-14.1
		s0.7-9,4.2-10.5c3-1.2,6.4-1.1,9.3,0.3C116.7,94.1,116.1,95.3,114.9,95.6z"/>
	<path class="st0" d="M142.7,92.6c-2,0.1-3.9,0.9-5.3,2.3c-2.2,2.4-4.6,5.6-5.4,5.6s-1.5-1.8,1-5.8s4.9-6.1,9.6-6.1s7.8,2.8,7.8,4
		s-1.9,1.7-3.1,1S142.7,92.6,142.7,92.6z"/>
	<path class="st0" d="M175.9,100c-2.9-0.1-5.7,0.5-8.3,1.6c-3.8,1.8-5.5,2.1-5.7,1.3s-0.1-2.7,5.5-5.4s14.2-2.4,17.5-1.1
		s7,5.8,5.2,9.2c-0.7,1.7-2.6,2.5-4.3,1.8c-0.5-0.2-1-0.6-1.4-1C183.9,105.4,182.3,100.3,175.9,100z"/>
	<path class="st0" d="M213.2,97c-1.8,0-3.6,0.6-5.2,1.6c-2.3,1.6-3.6,2.3-4.6,2.3c-1.1-0.2-1.8-1.2-1.6-2.3c0.1-0.3,0.2-0.6,0.4-0.9
		c1-1.7,6.4-5,12-5s7.9,3.8,7.9,4.6s-0.1,2.7-2.1,2.7S216.7,97,213.2,97z"/>
	<path class="st0" d="M275.6,149.3c0,0-0.4,5,1.2,5c1.7,0,3-1.4,2.9-3.1c0-0.1,0-0.2,0-0.3c0-2.1-3-7.1-4.7-8.3s-2.9-1.4-3.5-0.9
		s0.1,2.1,0.7,2.5S275.6,147,275.6,149.3z"/>
	<path class="st0" d="M253.7,115.6c0,0-2.8,6.1-3.5,6.4c-0.9,0.3-1.9-0.1-2.2-1c-0.1-0.2-0.1-0.4-0.1-0.6c0-1.5,3.8-5.7,4.7-5.7
		S253.9,115.2,253.7,115.6z"/>
	<path class="st0" d="M271.6,97.5c-0.1-0.2-3.8-7.2-10.6-7.3s-20.1,8.6-25.7,15.1c0,0-0.8,0.1-0.8-1.4v-5.3c0,0,13-13.1,27.6-13.1
		c14.6,0,12.8,13.1,12.3,13.5S272.2,99.3,271.6,97.5z"/>
	<path class="st0" d="M421.3,97.3c-0.9-0.1-1.8,0.6-1.8,1.5c0,0,0,0,0,0c-0.2,1.7-0.5,6.6-1,7.8s-0.7,2.7,0,2.8s1.7-2.3,2-3.3
		c0.8-2,1.4-4,1.8-6.1C422.3,98.8,422.6,97.3,421.3,97.3z"/>
	<path class="st0" d="M369.2,98c0,0,1,0.1,2.6-1.8s5.5-6.5,12.6-6.5s11.4,3.1,12.6,6.6s2.1,3.5,2.6,3.4s1.8-2.5-1-5.8
		s-8-7.5-14.6-7.5s-15.1,5.1-16.6,7.5c-0.8,1.3-0.4,3.1,1,3.9C368.7,97.8,368.9,97.9,369.2,98z"/>
	<path class="st0" d="M339.1,101c0,0-0.4-1.6-2.7-2.1s-3.8-0.1-3.8,0.8s2.1,1.5,3.6,1.7S339.2,101.3,339.1,101z"/>
	<path class="st0" d="M341.3,101.4c0,0-0.3-1.4,3.9-0.7s12.5,2.2,12.6,2.7c-0.1,1.7-0.3,3.3-0.8,4.9c-0.5,1-0.8,1-1.3,1
		s-0.6-0.8-0.4-1.6s0.5-2-0.2-2.4s-12.4-2.5-13.1-2.7C341.6,102.5,341.2,102,341.3,101.4z"/>
	<path class="st0" d="M329,74.5c-0.7,2.2-2.5,3.9-4.8,4.5c-3.8,0.8-7,1.5-7.9,3.6s-0.6,6.6-1.4,6.9s-1.7-0.1-1.7-3s0.1-9.2,6.5-12.6
		S329.2,74,329,74.5z"/>
	<path class="st0" d="M314.2,91.6c0.7-0.1,1.3,0.4,1.4,1.1c0,0.1,0,0.2,0,0.4v3.3c-0.1,0.7-0.7,1.2-1.4,1.2c-1.3,0-1.3-1.8-1.3-1.8
		v-3.3C312.9,92.4,313,91.6,314.2,91.6z"/>
	<path class="st0" d="M264.2,43.7c0,0,5-6.6,11.3-6.6s8.1,0,8.3-0.9s-1.4-1.4-4.5-1.5s-10-0.2-13.7,2.2s-4.5,3.8-4.9,5.6
		c-0.3,1,0.3,2,1.3,2.3c0.1,0,0.3,0.1,0.4,0.1C263.1,44.9,264.2,44.5,264.2,43.7z"/>
	<path class="st0" d="M291.9,24.6c0,0,6.5-7.6,7.6-7.7c2-0.2,4.1-0.2,6.1,0c1.5,0.4,1.6-0.5,1.2-1.3s-2.7-1.9-5.8-1.9
		c-2.4-0.2-4.8,0.9-6.3,2.8c-1.5,1.8-5.7,8.8-5.4,9.6s1,0.8,1.4,0C291.2,25.6,291.5,25.1,291.9,24.6z"/>
	<path class="st0" d="M408,46.1c0,0-13.1-5-23.9-4.2s-25.8,4.8-30.7,5.2s-14.3-2.4-18.4-3.9c-3.5-1.1-7.1-1.6-10.8-1.4
		c-1.6,0.1-3.6,1.1-5.5,0s0.6-4,1.2-5s11.3-0.2,19.9,2.9s19.8,4.8,25.4,3.6s20.6-5.5,33.8-4.4s20,3.6,21.7,8.2s-4.6,2.9-6.1,2
		S408,46.1,408,46.1z"/>
	<g>
		<path class="st0" d="M383.8,117.6c-1.7-7.5,6.1-9.4,3.6-10.1c-0.3-0.1-0.7-0.1-1-0.1c-2.7,0.2-6.8,2.9-10.7,7.5
			c-2.8,3.3-4.8,10.7-5.2,17.4c0-0.1,0-0.2,0-0.2c-0.3,4.1,0,7.9,1,10.3c2.7,6.1,9.6,7.4,16.8,2.8s7-20.9,7-20.9
			C391.3,124,385.5,125.1,383.8,117.6z"/>
		<path class="st0" d="M433.3,105.8c0-7.8-2.2-17-10.9-17s-9.1,8.7-9.1,8.7l-1.4-0.1c-1.5-2.3-3.4-4.2-5.7-5.8
			c0,0-5.7-12.5-23.5-12.5s-24.9,15.1-24.9,15.1c-3.6-0.6-7.1-1.1-10.7-1.2c-6.9-0.5-10.3-1.7-11.4-2.8c-1.1-1.1,1.8-6.6,1.8-6.6
			c2-4.8,0.3-19.9-14.5-17.9c-15.5,2.1-17.3,15-17.4,31.9c-0.2,16.9-4.6,29.5-6.5,31.6c-1.9,2.1-2.9,4.6-1.7-10.3
			s10.5-61.4,10.5-61.4c4.8-0.7,17.7-0.3,21.7,0c4,0.4,19.5,6.4,28.9,6.8c9.4,0.5,16.5-2.3,30.8-4.8c14.3-2.5,17,3.2,25.3,4
			c8.3,0.8,14-3.5,14.8-7.1s4.2-15-11.4-21.6c-15.6-6.6-37.6-1.9-48.1,0.3s-18-0.5-31.8-4.4S315.6,30,315.6,30s1.9-5.5,1.9-9.5
			S313.6,7,300.3,6.2C287,5.4,281,26.1,280.7,27.4c-0.2,0.7-0.9,1.2-1.7,1.2c-2.3,0-25.3-2.6-25.3,16S271,57.7,271,57.7l-3.5,20.6
			C243.8,76.1,229,93.4,229,93.4s-3.1-8.8-15.3-8.8c-12.2,0-18.5,10-18.5,10c-15.9-14.4-36.8-1.2-36.8-1.2c0-2-1.8-12.8-15.4-12.8
			s-17.7,10.8-17.7,10.8s-3.9-7.1-17.6-7.1c-13.7,0-13,15.1-13,21.9c0,6.8-3.7,22.5-3.7,22.5c-8-9.6-21.2-13.1-21.2-13.1
			c21-13.2,26.8-46.7,26.8-46.7c4.3,1.9,9,2.9,13.7,2.8c4.5,0,20.5-3.1,20.5-18.2S116,35.8,110.2,35.8c-3.6,0-7.2,0.8-10.5,2.4
			c0,0,2.5-38.2-30.3-38.2C25.2,0,7.6,56.7,2.5,84.7c-5.1,28,15,44.9,15,44.9S0,131.4,0,147.5s31.7,32.8,59.2,32.8
			c27.5,0,32.3-10.1,32.3-10.1s1.4,5.7,13.1,5.7c11.7,0,15.5-9.3,15.5-9.3s6,12.1,19.8,12.1c13.8,0,17.5-9.8,17.5-9.8
			c4,6.1,10.9,9.8,18.2,9.7c12.6,0,16.8-8.2,16.8-8.2c3.4,3.9,8.9,9.7,21.6,9.7c12.7,0,17.4-11.9,17.4-11.9c31,16.5,50,2.5,50,2.5
			c25.8,11.7,41.8-7.3,41.8-7.3c13.9,17.3,37,9.9,37,9.9c3.7,3.2,10,4.5,13,4.5c11.6,0.6,22.9-4.1,30.7-12.8
			c12.4-13.9,10.9-37.3,10.9-37.3C426.7,125.5,433.3,113.5,433.3,105.8z M110.2,41.1c7.2,0,15.6,3,15.6,12.9s-13.7,12.1-15.6,12.1
			c-1.8,0-18.2,0.6-18.2-11.8C92,42,110.2,41.1,110.2,41.1z M84.3,171c-2,0.8-19,6.8-35.8,3.7c-16.8-3.1-40.7-12-42.9-27.5
			c-0.1-0.4-0.1-0.7-0.1-1.1c-0.1-1.3,0.1-2.4,0.5-3.5c2.8-7.9,16.1-9.2,16.2-9.2c0,0,0,0,0,0h0c0,0,0.4,0.3,1.1,0.9
			c0.3,0.2,0.6,0.5,1,0.8c4.8,3.7,17.4,12.4,33.6,13.7c0,0,0.1,0,0.4,0c1,0,3.6-0.2,3.6-2.4c0-2.7-2.4-2.9-4.5-3c-0.1,0-0.2,0-0.3,0
			c-0.2,0-0.6-0.1-1-0.2c-0.1,0-0.3-0.1-0.5-0.1c-1-0.2-2.3-0.5-4-1c-0.8-0.2-1.7-0.5-2.6-0.8c-0.6-0.2-1.3-0.4-1.9-0.6
			c-0.3-0.1-0.7-0.2-1-0.4c-1.4-0.5-2.8-1-4.3-1.7c-0.4-0.2-0.8-0.3-1.1-0.5c-2.7-1.2-5.5-2.6-8.3-4.3c-1.2-0.7-2.4-1.5-3.6-2.3
			s-2.4-1.7-3.5-2.7c-1.2-0.9-2.3-1.9-3.4-3c-0.7-0.7-1.5-1.4-2.2-2.2c-2.4-2.7-4.7-5.6-6.5-9c-0.5-1-1-2-1.5-3
			c-3.3-7.2-4.9-15.8-3.7-26.4C13.2,37.5,45.7,2,71,5.5C99,9.5,94.4,40,94.4,40s-7.5,5-7.5,13.6S92,65.4,92,65.4
			s-9.5,48.3-35.2,48.3c0,0-17.1,1-16-17.3c1-17,14.3-20.7,21.4-45.8c0,0,1.9-10.6-4.4-10.6S51.4,46.5,53,47c1.3,0.3,2.7,0.2,4-0.2
			c0.1,6.6-2,13.1-6,18.4C44.5,73.7,35.7,86,35.2,97c-0.5,11,5.5,20,15.8,21.4c10.4,1.4,25.9-0.2,40,18.5
			C105.1,155.6,86.3,170.2,84.3,171z M122.3,141.4c-0.1,0.8-0.2,1.7-0.3,2.4c0,0.1,0,0.2,0,0.3c0,0.3-0.1,0.5-0.1,0.8
			c0,0.1,0,0.2,0,0.3c0,0,0,0,0,0c-0.4,3.4-1,6.5-1.7,9.3c0,0,0,0.1,0,0.1c-0.1,0.5-0.3,1.1-0.4,1.6c0,0.1-0.1,0.2-0.1,0.3
			c-0.1,0.5-0.3,0.9-0.4,1.4c-0.1,0.1-0.1,0.3-0.2,0.4c-0.1,0.4-0.3,0.8-0.4,1.2c-0.1,0.2-0.1,0.3-0.2,0.5c-0.1,0.3-0.3,0.7-0.5,1
			c-0.1,0.2-0.2,0.4-0.3,0.5c-0.2,0.3-0.3,0.6-0.5,0.9c-0.1,0.2-0.2,0.4-0.3,0.6c-0.2,0.3-0.3,0.5-0.5,0.8c-0.1,0.2-0.2,0.4-0.4,0.5
			c-0.2,0.3-0.4,0.5-0.6,0.7c-0.1,0.2-0.3,0.3-0.4,0.5c-0.2,0.2-0.4,0.4-0.6,0.7c-0.2,0.2-0.3,0.3-0.5,0.5c-0.2,0.2-0.5,0.4-0.7,0.6
			c-0.2,0.1-0.3,0.3-0.5,0.4c-0.3,0.2-0.6,0.4-0.9,0.6c-0.1,0.1-0.3,0.2-0.4,0.3c-0.5,0.3-0.9,0.6-1.4,0.8c-2,1-3.9,1.4-5.7,1.4
			c0,0,0,0,0,0c-5.3-0.1-9-3.7-9-3.7c13.4-15.6-0.6-34.5-0.6-34.5c0.4-0.8,0.7-1.6,1-2.5c2.9-8.9,4.2-26.8,4.3-32.5
			c0.1-6.4,6-8.3,8.3-8.5c1.2-0.1,4.5-0.4,7.7,0.9c2.8,1.1,5.5,3.4,6.7,8.1C125,107.4,123.8,128.4,122.3,141.4z M177.1,173.4
			c-1.7,0-3.2-0.2-4.5-0.4c-9.5-1.8-11.4-9-11.4-9c0.5-0.7,2-5.6,3-11.9c0,0.1,0,0.1,0.1,0.2c0.7-3.8,1.1-8.1,1.1-12.3
			c-0.1-10.7,1.5-14.7,1.5-14.7c5.1,1.5,6.6-8.7,0-8.5c-7.8,0.3-6.8,20.1-6.8,20.1c-0.2,4.7-0.6,9.4-1.1,14.1
			c-0.1,1.2-0.3,2.3-0.4,3.3c0,0,0,0,0,0c-0.5,3.8-0.8,5.8-0.8,5.8s-4.3,12.6-18.3,12.6S124,160.3,124,160.3
			c5-19.8,6.2-40.4,3.7-60.7c0.3-1.5,3-14.1,14.6-14.1s11.8,10.4,11,13.1c-0.8,2.8-7.7,17.6-7.7,22.4c0,4.8,2,5.9,4.2,5.9
			s2.1-6.8,2.1-8.5s4.1-13.3,5.9-16.8c1.8-3.6,10.1-8.2,20.6-8.2s15,5.4,14.6,13.5c-0.3,8-4.7,19.5-7.6,31.3s5.3,17.6,6.1,20.5
			C192.5,161.6,190.5,173.4,177.1,173.4z M212.9,175.6c-9.1,0-17.3-8.3-17.3-8.3s1.5-2.8,1.4-8.5c-0.1-4.2-3.1-7.6-5-9.6
			c-0.7-0.7-1.2-1.2-1.3-1.5c-0.2-0.3-0.2-1.8,0-4c0,0,0-0.1,0-0.2c0-0.2,0-0.4,0.1-0.6c0-0.1,0-0.3,0-0.5c0-0.1,0-0.1,0-0.2
			c0.3-2.6,0.9-6,1.7-9.5c0,0,0,0,0,0c0-0.1,0-0.2,0.1-0.3c0,0,0,0,0,0c0.7-2.9,1.6-5.9,2.7-8.8c4-10.5,2.5-24,2.5-24
			c2.9-4.8,8.4-9.9,17.3-9.9s10.2,6.2,10.2,11.6c0,5.4-5,22.2-5,31c0,3.3,1,8,2.2,12.8c0,0,0,0,0,0c1.4,5.5,3.2,11.2,4.1,14.7
			c0,0.1,0,0.1,0.1,0.2c0.1,0.3,0.1,0.5,0.2,0.8c0,0.2,0.1,0.4,0.1,0.5c0,0.1,0,0.2,0.1,0.2c0,0.2,0.1,0.3,0.1,0.4
			c0,0.1,0,0.1,0,0.2c0,0.1,0,0.3,0.1,0.4c0,0.1,0,0.1,0,0.2c0,0.2,0,0.3,0,0.4C227.2,166.4,222,175.6,212.9,175.6z M282.5,158.4
			c-1.2,5-5.4,12.6-20.7,12.6c-20.5,0-29.1-8.6-29.1-8.6c-0.3-7-5.5-19.4-5.5-19.4c0.6-0.7,1.5-1.1,2.5-1.2c0.7,0.7,2,2.1,2,2.1
			c13.8,10.3,26.2,8.1,26.9,8.1c0.6,0,1.4-0.8,1.4-2.7c0.1-1-0.4-2-1.3-2.4c-25.9-0.7-32.6-18.6-32.9-20c-0.2-0.9-0.1-3.3,0.7-6.8
			c0.4-1.9,1-3.7,1.6-5.5c2.2-6.5,1.9-14.7,1.9-14.7c9.7-11.3,24.2-17.1,32.7-17.1s16.2,6.8,16.2,18.8c0,12-8.5,20.9-13.7,24.7
			c-5.3,3.8-10.9,4.6-15.1,3c-4.3-1.6-4-6.5-3.6-8c0.3-1.5,13.6-16.6,13.6-19.6s-1.9-4.3-4-4.3c-1.8,0-3.3,1.2-3.6,3
			c-0.4,1.5,1.9,1.9-0.5,5.1s-14,14.2-11,21.3c5.9,13.7,22.7,6.6,22.7,6.6c18.5,7.6,19.6,18.6,19.6,21.3
			C283,155.9,282.8,157.2,282.5,158.4z M413.5,122.4c-4.3,1.5-4,2.8-4,2.8c0.3,6.1-0.1,12.1-1.2,18.1c0,0,0,0.1,0,0.1
			c0-0.1,0.1-0.1,0.1-0.2c-2.6,12.7-8.6,19.9-14.8,23.9c-6.2,4.1-12.6,5-15.8,5c-4.2,0.1-8.4-0.5-12.4-1.8c0.1,0,0.1,0,0.2,0
			c0,0,0,0-0.1,0c1.2-0.3,2.5-0.7,3.6-1.3c0.1-0.1,0.3-0.1,0.4-0.2c2-1.5,1.5-5.3-1.3-5.5c-0.7-0.1-1.3,0.2-2.1,0.7
			c-1,0.6-2.1,1.5-3.7,2.4c-3,1.6-7.6,3.3-15.5,3.3c-15.7,0-21-10.9-21-10.9c1.9-3.3,3.8-11.1,4.8-18.8c0.5-3.7,0.8-7.5,0.8-11.3
			c-0.1-5.1,0.2-10.1,0.9-15.2c1.1,0.2,2.2,0,3.2-0.5c2-0.8,2.2-5,0.7-5.9s-7-3.3-9.9,9.6c-1.3,5.8-0.5,12.9-0.5,20.2c0,0,0,0,0,0
			c0,0,0-0.1,0.1-0.1c0,7.9-0.8,16-6.2,22.6c-0.8,1-1.6,1.9-2.6,2.8c-13.7,12.8-32.4,4.9-32.4,4.9c11.7-25.3-15.6-37-15.6-37
			c0,0,0,0,0.1-0.1c0,0,0,0,0,0c2.2-1.5,4.1-3.3,5.9-5.2c2.9-3.3,5.1-7,6.6-11.2c1.2-3.5,1.9-7.3,1.8-11c0-18.4-11.4-22.5-11.4-22.5
			s4-22.3,4.3-23.1c0.2-0.8,3.8-1.5,6.5-1.5c2.7,0,3.5-1.7,3.5-2.7c0,0,0-0.1,0-0.1c0-1.7-1.3-3.1-3-3.2C281,49.5,270,53,268,53
			s-9.5,1.2-9.5-8.2c0-9.4,11.2-11.8,14.7-11.8c3.5,0,11.7,0.7,14.2,0.7c2.5,0,4.3-0.4,4.3-2.5c0-2.2-2.4-2.5-2.4-2.5l-3.8,0.2
			c1.3-3.5,2.9-6.9,4.7-10.2c2.3-3.6,6.4-7.6,9.5-7.6s11.6,3.3,12.5,8c0.9,4.7-3.3,14.4-3.3,16.1s0.8,3.7,3,3.7S314,35,314,35
			c4.3-0.8,8.6-1.2,13-1.1c7.9,0,23.2,7.2,32.8,7.2c9.6,0,17.4-4.5,40.1-4.5c22.8,0,25.4,10.5,25.4,13.5s-1.5,7.6-6.5,8.2
			c-5,0.6-15.9-3.6-21.9-4.3c-5.9-0.7-14,2-28.4,4.4c-14.4,2.4-20.4-0.8-33-4.9s-27-1.1-27-1.1c-0.1-1.1-0.9-2-1.9-2.2
			c-1.2-0.4-2,0.2-2.8,1.4c-0.8,1.2-9.7,52.5-11.9,66.5s1,18.4,3.8,18.4c2.8,0,7.4-1.5,11-10.8c3.6-9.3,3.7-32.3,3.8-38.1
			c0.1-5.8,1.9-13.3,7.4-16.1c5.5-2.8,11.8-1.3,14.5,2.7c2.7,3.9-0.7,8.7-1.7,12.5s-1.2,9.4,12.1,10.6c13.3,1.2,16.4,2.3,17.3,4
			c0.9,1.7,0.1,6.6-2.5,12.4c-3.4,7.1-5.5,14.7-6.2,22.5c0,0,0,0.1,0,0.1c0,0,0-0.1,0-0.1c-0.2,1.7-0.3,3.6-0.3,5.5
			c-0.1,7.7,2.8,10.7,5.1,10.7c1.6-0.1,2.9-1.6,2.9-4.1c0-6.1-3.1-6.2-3.1-6.2c-0.3-2.4-0.3-4.9,0-7.3c0.8-7.3,3.8-14,7.8-22.1
			c5.3-10.6-1.4-16.5-1.4-16.5c3.9-7.6,11.8-12.2,20.4-12c16.2,0,20.2,12,20.2,12c6.9,4.6,5.8,9.7,5.8,9.7s-2.3,4.9,2.9,4.9
			c5.2,0,5.5-6,5.5-10.9c0-4.9,3.3-6.4,4.7-6.4s5.9,1.3,5.9,11.7S417.8,120.9,413.5,122.4z"/>
	</g>
</g>
</svg>
