<svg xmlns="http://www.w3.org/2000/svg" xmlns:xlink="http://www.w3.org/1999/xlink" viewBox="0 0 433.29 180.39"><defs><style>.cls-1{fill:#9a256a;}.cls-2{fill:#9b256b;}.cls-3{fill:url(#Gradiente_sem_nome_60);}.cls-4{fill:#ee8c37;}.cls-5{fill:url(#Gradiente_sem_nome_52);}.cls-6,.cls-8{fill:none;}.cls-7{fill:url(#Gradiente_sem_nome_52-2);}.cls-8{stroke-miterlimit:10;stroke:url(#Gradiente_sem_nome_31);}.cls-9{fill:url(#Gradiente_sem_nome_31-2);}.cls-10{fill:url(#Gradiente_sem_nome_31-3);}.cls-11{fill:url(#Gradiente_sem_nome_31-4);}.cls-12{fill:url(#Gradiente_sem_nome_31-5);}.cls-13{fill:url(#Gradiente_sem_nome_52-3);}.cls-14{fill:#d9226a;}.cls-15{fill:#f8c272;}.cls-16{fill:#da226e;}.cls-17{fill:#ed9291;}.cls-18{fill:#f4b27b;}.cls-19{fill:#f6b879;}.cls-20{fill:#f7c173;}.cls-21{fill:#f9ca6e;}.cls-22{fill:#f2aa80;}.cls-23{fill:#f4b27c;}.cls-24{fill:#f3ae7e;}.cls-25{fill:#ec8e93;}.cls-26{fill:#f09f88;}.cls-27{fill:#f4b379;}.cls-28{fill:#f2aa81;}.cls-29{fill:#f3af7c;}.cls-30{fill:#f2a67c;}.cls-31{fill:#f2a982;}.cls-32{fill:#f5b778;}.cls-33{fill:#f3ac7b;}.cls-34{fill:#f7c175;}</style><linearGradient id="Gradiente_sem_nome_60" x1="215.28" y1="41.63" x2="215.28" y2="66.45" gradientUnits="userSpaceOnUse"><stop offset="0" stop-color="#f4aa23"/><stop offset="0.41" stop-color="#df7136"/><stop offset="0.52" stop-color="#df6a3b"/><stop offset="0.69" stop-color="#dd5748"/><stop offset="0.88" stop-color="#db385e"/><stop offset="1" stop-color="#da226e"/></linearGradient><linearGradient id="Gradiente_sem_nome_52" x1="50.86" y1="5.31" x2="50.86" y2="175.56" gradientUnits="userSpaceOnUse"><stop offset="0" stop-color="#f4aa23"/><stop offset="0.35" stop-color="#de751c"/><stop offset="0.81" stop-color="#de2f74"/><stop offset="1" stop-color="#da226e"/></linearGradient><linearGradient id="Gradiente_sem_nome_52-2" x1="94.74" y1="158.31" x2="94.74" y2="158.31" xlink:href="#Gradiente_sem_nome_52"/><linearGradient id="Gradiente_sem_nome_31" x1="109.3" y1="88.54" x2="109.3" y2="171.49" gradientUnits="userSpaceOnUse"><stop offset="0" stop-color="#df7136"/><stop offset="0.68" stop-color="#de2f74"/><stop offset="1" stop-color="#da226e"/></linearGradient><linearGradient id="Gradiente_sem_nome_31-2" x1="109.34" y1="89.05" x2="109.34" y2="171" xlink:href="#Gradiente_sem_nome_31"/><linearGradient id="Gradiente_sem_nome_31-3" x1="158.53" y1="85.55" x2="158.53" y2="173.38" xlink:href="#Gradiente_sem_nome_31"/><linearGradient id="Gradiente_sem_nome_31-4" x1="208.84" y1="89.73" x2="208.84" y2="175.56" xlink:href="#Gradiente_sem_nome_31"/><linearGradient id="Gradiente_sem_nome_31-5" x1="254.35" y1="82.8" x2="254.35" y2="170.99" xlink:href="#Gradiente_sem_nome_31"/><linearGradient id="Gradiente_sem_nome_52-3" x1="343.26" y1="11.1" x2="343.26" y2="172.07" xlink:href="#Gradiente_sem_nome_52"/></defs><title>Asset 15</title><g id="Layer_2" data-name="Layer 2"><g id="Camada_1" data-name="Camada 1"><path class="cls-1" d="M433.29,105.81c0-7.75-2.2-17-10.87-17s-9.14,8.67-9.14,8.67l-1.39-.11a20.83,20.83,0,0,0-5.66-5.79s-5.67-12.49-23.48-12.49-24.86,15.15-24.86,15.15A84.08,84.08,0,0,0,347.14,93c-6.94-.46-10.33-1.7-11.41-2.77s1.85-6.63,1.85-6.63c2-4.78.31-19.89-14.49-17.89-15.54,2.11-17.27,15-17.43,31.92s-4.62,29.45-6.47,31.6-2.93,4.63-1.7-10.33,10.45-61.4,10.45-61.4c4.85-.69,17.69-.35,21.74,0s19.46,6.36,28.87,6.82,16.5-2.31,30.83-4.78,17,3.24,25.29,4,14-3.54,14.8-7.09,4.16-15-11.41-21.59-37.62-1.88-48.14.31-18-.46-31.8-4.39S315.57,30,315.57,30s1.85-5.55,1.85-9.48S313.6,7.05,300.31,6.24s-19.26,19.84-19.66,21.11A1.65,1.65,0,0,1,279,28.52c-2.31,0-25.29-2.62-25.29,16S271.05,57.7,271.05,57.7l-3.47,20.59C243.76,76.09,229,93.43,229,93.43s-3.09-8.78-15.27-8.78-18.5,10-18.5,10c-15.88-14.36-36.85-1.21-36.85-1.21,0-2-1.85-12.79-15.42-12.79s-17.73,10.79-17.73,10.79-3.85-7.09-17.57-7.09-13,15.11-13,21.89S91,128.74,91,128.74c-8-9.56-21.2-13.1-21.2-13.1,21-13.19,26.75-46.72,26.75-46.72a31.66,31.66,0,0,0,13.73,2.77c4.47,0,20.5-3.08,20.5-18.19S116,35.77,110.16,35.77a25.2,25.2,0,0,0-10.48,2.39S102.22,0,69.38,0C25.21,0,7.63,56.66,2.54,84.65s15,44.86,15,44.86S0,131.36,0,147.55s31.68,32.84,59.21,32.84,32.26-10.06,32.26-10.06S92.86,176,104.53,176s15.5-9.25,15.5-9.25,6,12.14,19.77,12.14,17.54-9.75,17.54-9.75a21.42,21.42,0,0,0,18.19,9.71c12.65,0,16.81-8.17,16.81-8.17,3.39,3.85,8.94,9.71,21.59,9.71s17.42-11.87,17.42-11.87c31,16.5,50,2.47,50,2.47,25.75,11.71,41.79-7.25,41.79-7.25,13.87,17.27,37,9.87,37,9.87,3.7,3.24,10,4.47,13,4.47a38.31,38.31,0,0,0,30.68-12.8C416.21,151.41,414.67,128,414.67,128,426.7,125.5,433.29,113.55,433.29,105.81Zm-45.1,39.31c-7.17,4.63-14.11,3.36-16.77-2.77s-.35-22.2,4.16-27.41,9.26-8.09,11.8-7.4-5.32,2.55-3.59,10.06,7.52,6.36,11.45,6.59C395.24,124.19,395.36,140.5,388.19,145.12Zm0,0c-7.17,4.63-14.11,3.36-16.77-2.77s-.35-22.2,4.16-27.41,9.26-8.09,11.8-7.4-5.32,2.55-3.59,10.06,7.52,6.36,11.45,6.59C395.24,124.19,395.36,140.5,388.19,145.12Z"/><path class="cls-2" d="M215.43,36.77s20.81-.92,20.81,16.77-19.54,18-20.81,18-21.74.35-21.74-16.31S211.73,36.77,215.43,36.77Z"/><path class="cls-3" d="M216.16,41.63s-17.42,1.23-17.42,12,9.1,12.8,16.88,12.8,16.19-6.29,16.19-12.28S226.26,41.63,216.16,41.63Z"/><path class="cls-4" d="M110.24,41.09S92.05,42,92.05,54.35s16.34,11.79,18.19,11.79S125.81,63.89,125.81,54,117.41,41.09,110.24,41.09Z"/><path class="cls-5" d="M22.28,133.52s14.95,13.72,35.61,15.42c0,0,3.92.29,3.92-2.37s-2.43-2.89-4.45-3-54.82-9.89-49.5-58S45.7,2,71,5.55C99,9.48,94.36,40,94.36,40S86.88,45,86.88,53.62s5.17,11.75,5.17,11.75-9.49,48.26-35.23,48.26c0,0-17.12,1.05-16-17.27,1-17,14.34-20.73,21.43-45.79,0,0,1.93-10.64-4.39-10.64S51.42,46.49,53,47a8,8,0,0,0,4-.24,30,30,0,0,1-6,18.43C44.48,73.7,35.69,86,35.23,97S40.69,117,51.07,118.41s25.94-.15,40,18.5S86.26,170.22,84.26,171s-19,6.78-35.77,3.7-40.69-12-42.86-27.45C3.93,135.22,22.28,133.52,22.28,133.52Z"/><path class="cls-6" d="M94.74,158.31c-2.93,7.44-9.35,12.24-10.48,12.68-2,.77-19,6.78-35.77,3.7s-40.69-12-42.86-27.45c-1.7-12,16.65-13.72,16.65-13.72s14.95,13.72,35.62,15.42c0,0,3.91.29,3.91-2.37s-2.43-2.89-4.45-3-54.82-9.89-49.5-58c.1-.82.19-1.64.3-2.45.1.46,7.14,32.71,22.29,39.38,0,0,33.84,8.63,34.77,16.34s-3.78,6.4-4.09,13.88,3.28,14.49,14.38,16C86.45,170.19,94.5,158.65,94.74,158.31Z"/><path class="cls-7" d="M94.74,158.31Z"/><path class="cls-8" d="M94.74,132.75s14,19,.62,34.54c0,0,6.63,6.47,14.65,2.31s10.48-13.11,12-25.75,3.09-35.92.62-45.79-12-9.14-14.3-8.9-8.21,2.19-8.33,8.55S98.37,125.35,94.74,132.75Z"/><path class="cls-9" d="M122,143.85c0,.45-.11.9-.17,1.34-1.55,11.94-4.12,20.4-11.85,24.41-8,4.16-14.65-2.31-14.65-2.31,13.42-15.58-.62-34.54-.62-34.54A19.82,19.82,0,0,0,95.82,130c2.86-8.95,4.1-26.58,4.2-32.27.12-6.36,6-8.32,8.33-8.55s11.83-1,14.3,8.9S123.58,131.21,122,143.85Z"/><path class="cls-10" d="M127.74,99.6A165.71,165.71,0,0,1,124,160.27s1.4,12.49,15.39,12.49,18.27-12.6,18.27-12.6a214.51,214.51,0,0,0,2.31-23.25s-1-19.82,6.79-20.08c6.57-.22,5.12,10,0,8.46,0,0-1.56,4-1.45,14.69s-3.34,22.82-4.12,23.94c0,0,2.56,9.46,15.92,9.46s15.36-11.8,14.58-14.7-9-8.68-6.12-20.48,7.24-23.26,7.57-31.28S189,93.46,178.51,93.46s-18.81,4.67-20.59,8.23S152,116.83,152,118.5s.11,8.46-2.12,8.46-4.23-1.11-4.23-5.9,6.9-19.59,7.68-22.37.56-13.14-11-13.14S128.06,98.07,127.74,99.6Z"/><path class="cls-11" d="M197.74,99.6s1.54,13.57-2.47,24.05-5.24,23-4.63,24.06,6.17,5.39,6.33,11.1-1.39,8.48-1.39,8.48,8.17,8.27,17.27,8.27,14.34-9.2,14.34-12.44-7-22-7-30.83,5-25.6,5-31S223.87,89.73,215,89.73,200.67,94.82,197.74,99.6Z"/><path class="cls-12" d="M283,154.64a16.28,16.28,0,0,1-.45,3.78c-1.17,5-5.41,12.57-20.67,12.57-20.51,0-29.14-8.64-29.14-8.64-.27-7-5.55-19.42-5.55-19.42a3.5,3.5,0,0,1,2.46-1.16c.66.73,2,2.08,2,2.08,13.8,10.33,26.21,8.1,26.85,8.1s1.44-.75,1.44-2.66a2.47,2.47,0,0,0-1.27-2.43c-25.91-.7-32.58-18.58-32.88-20-.21-.94-.13-3.33.65-6.81a52.5,52.5,0,0,1,1.58-5.52c2.24-6.48,1.93-14.65,1.93-14.65,9.72-11.25,24.21-17.11,32.69-17.11s16.18,6.78,16.18,18.81-8.47,20.91-13.74,24.66-10.87,4.63-15.14,3-4-6.47-3.65-8,13.59-16.65,13.59-19.6-1.85-4.27-4-4.27a3.64,3.64,0,0,0-3.64,2.95c-.41,1.49,1.91,1.9-.52,5.14s-14,14.22-11,21.28c5.86,13.74,22.67,6.62,22.67,6.62C281.92,140.92,283,152,283,154.64Z"/><path class="cls-13" d="M422.07,93.55c-1.39,0-4.74,1.5-4.74,6.36s-.35,10.87-5.55,10.87-2.89-4.86-2.89-4.86,1.15-5.09-5.78-9.71c0,0-4.05-12-20.24-12a22.22,22.22,0,0,0-20.35,12s6.7,5.9,1.39,16.53c-4,8.05-7,14.78-7.75,22.08a35.61,35.61,0,0,0,0,7.3s3.12.11,3.12,6.24-8.21,6.36-8.09-6.59c0-1.91.11-3.73.27-5.47a66.29,66.29,0,0,1,6.2-22.51c2.66-5.79,3.47-10.64,2.55-12.38s-4-2.77-17.35-4-13.18-6.83-12.14-10.64,4.39-8.56,1.73-12.49-9-5.44-14.45-2.66-7.29,10.29-7.4,16.07-.23,28.8-3.82,38.05-8.21,10.75-11,10.75-6-4.39-3.82-18.39,11.14-65.33,11.91-66.49,1.62-1.77,2.78-1.38a2.54,2.54,0,0,1,1.92,2.23s14.38-2.93,27,1.12,18.62,7.28,33,4.86S391.08,53.31,397,54s16.88,4.86,21.85,4.28,6.48-5.2,6.48-8.21-2.66-13.53-25.44-13.53-30.53,4.51-40.13,4.51S334.88,33.88,327,33.88A66.12,66.12,0,0,0,314,35s0,3.93-2.2,3.93-3-2-3-3.74,4.2-11.41,3.28-16.15-9.37-8-12.49-8-7.17,4.05-9.49,7.63a67,67,0,0,0-4.74,10.18l3.82-.23s2.43.34,2.43,2.54-1.74,2.55-4.28,2.55S276.6,33,273.13,33s-14.68,2.42-14.68,11.79S266,53,268,53s12.95-3.47,15.5-3.35a3.08,3.08,0,0,1,3,3.24c0,.92-.85,2.66-3.55,2.66s-6.28.69-6.52,1.5-4.27,23.13-4.27,23.13,11.44,4.16,11.44,22.54a32.69,32.69,0,0,1-1.85,11,34.3,34.3,0,0,1-12.52,16.47s27.29,11.72,15.57,37c0,0,18.66,7.86,32.38-4.93,7.6-7.1,8.72-16.32,8.7-25.34,0-7.26-.76-14.37.55-20.15,2.93-12.95,8.4-10.56,9.9-9.63s1.28,5.09-.69,5.9a5.43,5.43,0,0,1-3.24.46,86.52,86.52,0,0,0-.92,15.15,82.39,82.39,0,0,1-.8,11.26c-1,7.66-2.86,15.47-4.75,18.8,0,0,5.32,10.87,21,10.87s18.27-6.59,21.28-6.36,3.35,4.63.81,5.78a14.24,14.24,0,0,1-3.59,1.28,37.17,37.17,0,0,0,12.38,1.85c6.35,0,25.35-3.53,30.48-28.84a74.35,74.35,0,0,0,1.2-18.11s-.23-1.27,4.05-2.78,14.45-6.86,14.45-17.19S423.46,93.55,422.07,93.55Zm-46.49,21.39c4.51-5.2,9.26-8.09,11.8-7.4s-5.32,2.55-3.59,10.06,7.52,6.36,11.45,6.59c0,0,.12,16.31-7.05,20.93s-14.11,3.36-16.77-2.77S371.07,120.15,375.58,114.94Z"/><path class="cls-14" d="M397.87,120.72c-4.71.7-9.18-.77-10-3.31s.08-4.63,1.7-6.71,3-6-.16-6.32-17.5-.77-19.09,19.5a41.28,41.28,0,0,0,.1,8.42c.43-6.65,2.39-14.11,5.19-17.36,4.51-5.2,9.26-8.09,11.8-7.4s-5.32,2.55-3.59,10.06,7.52,6.36,11.45,6.59c0,0,.09,12.56-4.73,18.75C399.56,139,397.87,120.72,397.87,120.72Z"/><path class="cls-15" d="M109.39,47.53a14,14,0,0,0-7.86,3.06c-3.24,2.89-4.45,4-5.78,4s-2.44-1.51.45-4.8,8.1-5.78,13.94-5.78,11.57,3.18,12.2,4.91-.06,3-1.67,2.37S116.1,47.53,109.39,47.53Z"/><path class="cls-15" d="M216.35,49.38s-4.62.46-7.34,2.42-4.33,3-5.9,2.78-2-2.89,1.28-5.55a21.86,21.86,0,0,1,12.66-4.34c4.16,0,9.77,2.81,11.27,5s.58,3.72,0,4-1.85-.41-2.66-1.39S222.31,49.38,216.35,49.38Z"/><path class="cls-16" d="M94.74,158.31c-2.93,7.44-9.35,12.24-10.48,12.68-2,.77-19,6.78-35.77,3.7s-40.69-12-42.86-27.45c-1.7-12,16.65-13.72,16.65-13.72s14.95,13.72,35.62,15.42c0,0,3.91.29,3.91-2.37s-2.43-2.89-4.45-3-54.82-9.89-49.5-58c.1-.82.19-1.64.3-2.45.1.46,7.14,32.71,22.29,39.38,0,0,33.84,8.63,34.77,16.34s-3.78,6.4-4.09,13.88,3.28,14.49,14.38,16C86.45,170.19,94.5,158.65,94.74,158.31Z"/><path class="cls-2" d="M94.74,158.31Z"/><path class="cls-17" d="M73.7,128s10,7.71,11.41,12.64,1,11.41,2.77,12,3.7-.46,3.55-3.47-1.47-9.64-5.94-14.11-10.1-9.17-11.79-9.56-2.24-.92-2.47,0S72.9,127.33,73.7,128Z"/><path class="cls-18" d="M53.42,80.79s-1,6-3.29,8.25-3.72,4.16-4,7a16.62,16.62,0,0,0,.62,6.79c.46,1.31.84,3.54,0,3.7s-2.93-.46-3.4-3.86-.46-8.55,1.24-12.48,5.24-11,6.78-10.8S53.54,80.18,53.42,80.79Z"/><path class="cls-19" d="M57.41,72.16s.35,2.19-.34,3.18-1.91,1.5-2.72.92-.52-2,0-3A2.59,2.59,0,0,1,57.41,72.16Z"/><path class="cls-20" d="M30.07,43.83s-2.43,3.87-2.78,4.79a1.53,1.53,0,0,1-2.6,0c-.41-1-.29-3.18,1.73-5.37s3.41-1.68,3.65-1.33A1.6,1.6,0,0,1,30.07,43.83Z"/><path class="cls-21" d="M67.45,18.89A45,45,0,0,0,47.1,27.44c-9.87,7.48-12.64,11.72-14.26,11.11s.77-5.79,6.55-13,15.88-14.8,29.45-14.8S86.73,20,87,21.82s-.31,6-4,3.54S75.16,18.89,67.45,18.89Z"/><path class="cls-16" d="M121.86,145.19c-1.55,11.94-4.12,20.4-11.85,24.41-8,4.16-14.65-2.31-14.65-2.31,13.42-15.58-.62-34.54-.62-34.54A19.82,19.82,0,0,0,95.82,130a35.12,35.12,0,0,1,3.4,7.74c2.19,6.82,7.19,11.68,10.13,12C109.35,149.75,117.37,148.85,121.86,145.19Z"/><path class="cls-22" d="M114.88,95.57s-6.59,1-8.09,5.44-2.2,14.22-3,16.36-1.39,4.57-2.31,4.39-1.62-.69-1.16-4.22,1.33-8.55,1.56-14.1.7-9,4.22-10.53a11.66,11.66,0,0,1,9.31.35C116.73,94.13,116.1,95.31,114.88,95.57Z"/><path class="cls-16" d="M159,149.6c-.68,6.84-1.34,10.56-1.34,10.56s-4.28,12.6-18.27,12.6S124,160.27,124,160.27q.83-3.26,1.5-6.45c1.57,3.77,4.71,8.16,10.77,8.38C145.56,162.53,154.7,154.32,159,149.6Z"/><path class="cls-16" d="M177.06,173.37c-13.36,0-15.91-9.45-15.91-9.45.48-.7,2-5.65,3-11.86,1.35,3.84,4.46,9.48,11.1,9.48,7.39,0,11.28-5.35,12.83-8.2,1.57,2.43,3.19,4.14,3.51,5.34C192.42,161.58,190.42,173.37,177.06,173.37Z"/><path class="cls-23" d="M142.69,92.57a7.6,7.6,0,0,0-5.26,2.31c-2.19,2.37-4.56,5.55-5.43,5.55s-1.51-1.75,1-5.79,4.86-6.12,9.65-6.12,7.81,2.83,7.81,4-1.91,1.73-3.06,1S142.69,92.57,142.69,92.57Z"/><path class="cls-23" d="M175.88,100a19.82,19.82,0,0,0-8.32,1.57c-3.82,1.79-5.5,2.08-5.67,1.27s-.06-2.66,5.49-5.38,14.23-2.43,17.52-1.1,7,5.78,5.21,9.2a3.27,3.27,0,0,1-5.61.8C183.92,105.4,182.3,100.26,175.88,100Z"/><path class="cls-16" d="M227.19,163.12c0,3.24-5.25,12.44-14.34,12.44s-17.27-8.27-17.27-8.27,1.54-2.78,1.38-8.49-5.7-10-6.31-11.1c-.45-.78.07-7.6,1.94-15.3,1.91,6.24,7.41,20.24,18.21,20.24,7.79,0,10.63-4,11.62-7.57C224.46,153,227.19,161.1,227.19,163.12Z"/><path class="cls-24" d="M213.2,97A10.17,10.17,0,0,0,208,98.58c-2.31,1.59-3.64,2.34-4.65,2.25a2,2,0,0,1-1.19-3.23c1-1.74,6.39-5,12-5s7.89,3.81,7.89,4.62-.15,2.66-2.08,2.66S216.67,97,213.2,97Z"/><path class="cls-16" d="M282.55,158.42c-1.17,5-5.41,12.57-20.67,12.57-20.51,0-29.14-8.64-29.14-8.64-.27-7-5.55-19.42-5.55-19.42a3.5,3.5,0,0,1,2.46-1.16c.66.73,2,2.08,2,2.08,13.8,10.33,26.21,8.1,26.85,8.1s1.44-.75,1.44-2.66a2.47,2.47,0,0,0-1.27-2.43c-25.91-.7-32.58-18.58-32.88-20-.21-.94-.13-3.33.65-6.81,1.73,5.34,6.57,17.48,16.08,21.69,12.33,5.47,17.88.46,19.73,6s-2.69,4.71.62,11.49C266,165.74,275.59,167.51,282.55,158.42Z"/><path class="cls-25" d="M275.64,149.29s-.39,5,1.19,5a3,3,0,0,0,2.93-3.32c0-2.08-3-7.05-4.74-8.28s-2.93-1.35-3.47-.93.08,2.08.73,2.51S275.64,147,275.64,149.29Z"/><path class="cls-26" d="M253.7,115.64s-2.77,6.07-3.52,6.36a1.72,1.72,0,0,1-2.31-1.62c0-1.53,3.81-5.67,4.74-5.67S253.92,115.17,253.7,115.64Z"/><path class="cls-27" d="M271.57,97.54c-.06-.16-3.82-7.23-10.64-7.34s-20.12,8.61-25.73,15.09c0,0-.81.11-.81-1.39V98.58s13-13.07,27.58-13.07S274.81,98.64,274.29,99,272.21,99.33,271.57,97.54Z"/><path class="cls-16" d="M321.7,145.53c1.53-3.15,3.12-6.4,4.23-8.67,0,9-1.1,18.24-8.7,25.34-13.72,12.79-32.38,4.93-32.38,4.93,11.72-25.28-15.57-37-15.57-37a34.3,34.3,0,0,0,12.52-16.47c.22,6.6.56,16.25.75,17.55.29,2,1.07,5.24,1.68,5.7s7.71,3.7,9.25,5.4,12.8,12.33,17.73,12.79S318.92,151.23,321.7,145.53Z"/><path class="cls-16" d="M408.38,143.23c-5.13,25.31-24.13,28.84-30.48,28.84a37.17,37.17,0,0,1-12.38-1.85,14.24,14.24,0,0,0,3.59-1.28c2.54-1.15,2.2-5.55-.81-5.78s-5.55,6.36-21.28,6.36-21-10.87-21-10.87c1.89-3.33,3.74-11.14,4.75-18.8,2.19,3.46,5.18,7.28,8.08,8.06,5.55,1.49,7.4-2.06,8.48-4.06.68-1.24,2.72-4.94,4.17-7.55-.16,1.74-.26,3.56-.27,5.47-.12,12.95,8.09,12.72,8.09,6.59s-3.12-6.24-3.12-6.24a35.61,35.61,0,0,1,0-7.3,24.62,24.62,0,0,0,1.62,6.37c1.62,3.07,3,5.69,3.12,6.72s5.2,10.16,15.26,10.63C384.71,158.93,400.51,155.51,408.38,143.23Z"/><path class="cls-28" d="M421.26,97.28a1.69,1.69,0,0,0-1.85,1.56c-.2,1.71-.46,6.59-1,7.83s-.67,2.72,0,2.84,1.68-2.32,2-3.33a39.19,39.19,0,0,0,1.79-6.07C422.3,98.81,422.59,97.31,421.26,97.28Z"/><path class="cls-29" d="M369.19,98s1,.08,2.62-1.85,5.55-6.47,12.56-6.47,11.41,3.08,12.65,6.55,2.08,3.54,2.62,3.39,1.77-2.47-1-5.78-7.95-7.48-14.57-7.48S369,91.43,367.49,93.82A2.82,2.82,0,0,0,369.19,98Z"/><path class="cls-30" d="M339.1,101s-.35-1.62-2.72-2.08-3.75-.13-3.75.77,2.14,1.48,3.58,1.71S339.22,101.26,339.1,101Z"/><path class="cls-31" d="M341.3,101.43s-.29-1.41,3.93-.65,12.55,2.19,12.6,2.66a19.13,19.13,0,0,1-.8,4.91c-.47,1-.81,1-1.28,1s-.58-.81-.4-1.62.46-2-.18-2.37-12.37-2.48-13.06-2.71A1.14,1.14,0,0,1,341.3,101.43Z"/><path class="cls-32" d="M329,74.47a6.7,6.7,0,0,1-4.78,4.47c-3.77.85-7,1.47-7.86,3.55s-.62,6.63-1.39,6.86-1.69-.08-1.69-3,.08-9.16,6.47-12.56S329.21,74,329,74.47Z"/><path class="cls-33" d="M314.22,91.58A1.24,1.24,0,0,1,315.61,93v3.3a1.37,1.37,0,0,1-1.39,1.23c-1.27,0-1.27-1.81-1.27-1.81V92.43S313,91.58,314.22,91.58Z"/><path class="cls-34" d="M264.19,43.71s5-6.63,11.33-6.63,8.1,0,8.33-.92-1.39-1.39-4.55-1.47-9.95-.23-13.72,2.16-4.55,3.78-4.86,5.63a1.89,1.89,0,0,0,1.77,2.39C263.11,44.87,264.19,44.48,264.19,43.71Z"/><path class="cls-34" d="M291.94,24.59s6.52-7.65,7.61-7.71a31.34,31.34,0,0,1,6.13,0c1.45.35,1.56-.52,1.22-1.27s-2.72-1.91-5.78-1.91a7.26,7.26,0,0,0-6.25,2.84c-1.5,1.79-5.67,8.84-5.43,9.59s1,.81,1.44,0A8.37,8.37,0,0,1,291.94,24.59Z"/><path class="cls-34" d="M408,46.14s-13.11-5-23.9-4.16-25.82,4.85-30.68,5.2S339.16,44.75,335,43.25a30.08,30.08,0,0,0-10.76-1.36c-1.62.09-3.58,1.1-5.55,0s.58-4,1.16-5,11.33-.15,19.89,2.87,19.77,4.76,25.44,3.6,20.58-5.55,33.76-4.39,20,3.64,21.74,8.24-4.62,2.86-6.13,2S408,46.14,408,46.14Z"/></g></g></svg>