<svg xmlns="http://www.w3.org/2000/svg" viewBox="0 0 407.88 278.51"><defs><style>.cls-1{fill:#e4535d;}.cls-2{fill:#e66261;}.cls-3{fill:#004b83;}.cls-4{fill:#00a5a1;}.cls-5{fill:none;stroke:#fef0ca;stroke-linecap:round;stroke-linejoin:round;stroke-width:4px;}</style></defs><title>Asset 28</title><g id="Layer_2" data-name="Layer 2"><g id="Camada_1" data-name="Camada 1"><path class="cls-1" d="M397.71,79.36s-.15.63.26.84,8.23,4.19,8.23,14.88-7.54,15-7.54,15l-40.14,16.56-43.38,16.13s-13,5.35-21.48-7.12a1.52,1.52,0,0,0-1.46-.58C291.38,135.29,232,158,232,158l-.53,18.86s-1.46,9.11-10.16,8.27-9.85-7.75-9.85-9.11V165.59L90.11,211.17s5.1,5.87,5.1,18.86-6,48.48-52.95,48.48-43.87-51-40.66-58.39,9.23-21.94,30.18-27.53l5.73-1.05s-18-11.8-18-38.76S42.82,109.89,61,109.89c0,0,11.32-.28,20.26,4l75.3-28.08s6.25-23.58,24.07-23.58c0,0,11.84-.1,16.55,8h4.61s7.65-14.35,22.53-9.64a18.32,18.32,0,0,1,9.22-4.08S238.34,34.41,260,34.41c0,0,11.63,0,17.6,8.28,0,0,7-15.41,19.39-15.41,0,0,6.81-.31,11.31,3.78h2L380,5.17s11.74-2,12.47,8.81A17.24,17.24,0,0,1,390,23.62c-2.94,4.66,2.3,7.28,3.09,7.64a13.77,13.77,0,0,1,7.7,9.85s5.45,5.77,5.45,16.45S397.71,79.36,397.71,79.36Z"/><path class="cls-2" d="M399.39,74.33s-.16.63.26.84,8.23,4.19,8.23,14.88-7.55,15-7.55,15L360.2,121.59l-43.38,16.13s-13,5.35-21.48-7.12a1.53,1.53,0,0,0-1.47-.58c-.82.25-60.24,22.9-60.24,22.9l-.53,18.86s-1.47,9.11-10.16,8.27-9.85-7.75-9.85-9.11V160.56L91.79,206.14s5.1,5.87,5.1,18.87-6,48.47-52.95,48.47-43.87-51-40.66-58.39,9.22-21.94,30.18-27.53l5.73-1s-18-11.81-18-38.77,23.33-42.89,41.5-42.89c0,0,11.31-.28,20.25,4l75.31-28.08s6.25-23.58,24.06-23.58c0,0,11.84-.1,16.56,8h4.61S211.1,50.86,226,55.57a18.27,18.27,0,0,1,9.22-4.08S240,29.38,261.71,29.38c0,0,11.63,0,17.6,8.28,0,0,7-15.41,19.38-15.41,0,0,6.81-.31,11.32,3.78h2L381.68.14s11.74-2,12.47,8.81a17.24,17.24,0,0,1-2.51,9.64c-2.94,4.66,2.3,7.28,3.09,7.65a13.74,13.74,0,0,1,7.7,9.84s5.45,5.77,5.45,16.46S399.39,74.33,399.39,74.33Z"/><path class="cls-3" d="M223.6,153.25a2.62,2.62,0,0,0-1.94.68,2.76,2.76,0,0,0-.9,2l-.42,14a2.72,2.72,0,0,0,.74,1.95,2.66,2.66,0,0,0,1.88.85h.1a2.71,2.71,0,0,0,2.72-2.64l.42-14a2.72,2.72,0,0,0-2.6-2.8Z"/><path class="cls-3" d="M400,53.36a2.67,2.67,0,0,0-1.5-1.43A2.72,2.72,0,0,0,395,53.5c-1.44,3.74-6.84,14.51-12.57,14.88a3.72,3.72,0,0,1-2.69-1.11c-1.45-1.41-2.18-4.13-2.12-7.88C391,55.57,395,44.81,395,44.7c.43-1.19,1.16-6.46-1.31-9.79A6.47,6.47,0,0,0,388,32.33c-6.48.32-13.75,7.43-15.5,22.58a21.15,21.15,0,0,1-4.06,0,45.81,45.81,0,0,0,.84-6.47c0-6.08-3-8.24-5.73-8.24s-5.73,2.26-5.73,8.59c0,2.53.56,7.07,4.24,9.62A54,54,0,0,1,351.44,79a23.48,23.48,0,0,1-3.57-9.84,2.34,2.34,0,0,0-.13-.54,172.83,172.83,0,0,0,1.82-17.33,2.69,2.69,0,0,0-.7-2,2.81,2.81,0,0,0-1.94-.89h-.06a2.72,2.72,0,0,0-2.74,2.6c0,.23-1.19,23.59-6.15,32.43a11.22,11.22,0,0,1-2.81,3.68c-.43-.65-1.55-2.94-1.52-9.28L335.92,61a2.73,2.73,0,0,0-4.35-2.54,3.49,3.49,0,0,0-.35.32,8.5,8.5,0,0,0-4.82-2.4c-5.94-.55-11,5.33-14.59,17-.05.16-4.49,16.47.47,22.76a6.42,6.42,0,0,0,5.21,2.52l.5,0c4.25-.27,8.21-4,11.52-10.88.95,2.63,2.38,4.21,4.27,4.71a4.83,4.83,0,0,0,1.25.17c2.69,0,5.21-2.16,7.69-6.6a33.32,33.32,0,0,0,2.68-6.71,24.43,24.43,0,0,0,3.9,5.72,2.74,2.74,0,0,0,3.87,0c8.07-8.08,12.07-17.87,14-24.85a24.36,24.36,0,0,0,5,.15c.1,4.8,1.36,8.42,3.77,10.76a9.19,9.19,0,0,0,6.92,2.64c10.17-.67,16.54-16.56,17.23-18.37A2.68,2.68,0,0,0,400,53.36ZM388.41,37.77c.64,0,.8.22.93.38.85,1.16.72,4.05.55,4.72a20.72,20.72,0,0,1-11.69,10.6c1.65-10.06,6.25-15.51,10.06-15.7Zm-24.84,8.51a8.49,8.49,0,0,1,.25,2.18,22.47,22.47,0,0,1-.26,2.87,10.19,10.19,0,0,1-.3-2.52A8.9,8.9,0,0,1,363.57,46.28Zm-34.28,23-1,6c-2.1,8.46-6.75,17.72-10.6,18a1.1,1.1,0,0,1-1.09-.43h0c-2.37-3-.59-14.39.46-17.79,2.47-8,5.87-13.21,8.65-13.21h.23C326.64,61.89,329.57,63.44,329.29,69.3Z"/><path class="cls-3" d="M312.67,39.31a2.79,2.79,0,0,0,.94-.17L385.37,12.6a2.72,2.72,0,1,0-1.89-5.11L311.72,34a2.72,2.72,0,0,0,.95,5.28Z"/><path class="cls-3" d="M394.53,80.87h0c-4.26-2.15-9.18-.42-9.74-.21l-4.3,1.76L303,112.48c0-.26,0-.53,0-.8a171.55,171.55,0,0,1,3-29.4c1.72-8.14,4.88-26.65,4.88-29.17,0-.13,0-.32,0-.58v-.17c.66-14.28-2.9-21.85-10.59-22.5-4.9-.42-9.37,2.5-13.3,8.69-2.92,4.6-5.59,11-8.14,19.4-.65-7.29-2.5-12.52-5.62-15.94-3.69-4-8.3-4.64-11.45-4.72A19.79,19.79,0,0,0,248.62,42a19.31,19.31,0,0,0-6.82,14.69v.12l-10,3.57a2.73,2.73,0,0,0-1.55,1.4,2.68,2.68,0,0,0-.1,2.08,2.73,2.73,0,0,0,3.48,1.65l8.78-3.12c2.57,10,12.54,10.58,13.69,10.61a14,14,0,0,0,9.85-4,11.91,11.91,0,0,0,3.38-9.14,9,9,0,0,0-3.23-7.09c-3.25-2.56-7.52-1.8-8-1.71a3,3,0,0,0-.37.11l-10.28,3.65a13.55,13.55,0,0,1,4.91-8.8,14.6,14.6,0,0,1,9.25-3.24c3.52.1,5.78,1,7.58,3,3.64,4,5.07,12.51,4.24,25.28l-5.12,41.33a2.72,2.72,0,0,0,2.34,3,2.68,2.68,0,0,0,2-.53,2.71,2.71,0,0,0,1-1.54l.06-.3c.16-1.19,4-29.51,8.42-46.58,7-27.06,13.82-31.1,17.24-31.1h.42c4.23.36,6.12,6,5.62,16.83,0,.46,0,.8,0,1,0,1.65-2.82,18.86-4.76,28a178.34,178.34,0,0,0-3.1,30.53c0,1,0,2,.09,2.88l-.32.13-70.74,26.75c1.1-13.06,4.26-50.86,4.43-57,.23-8-.1-16-4.06-19.93a7.94,7.94,0,0,0-6.07-2.36c-8.18.22-14.78,10.26-21.4,32.54-.21.74-.43,1.5-.65,2.3.09-8.38-.56-22.63-6.88-28.71a10.6,10.6,0,0,0-8.5-3c-15.07,1.13-17.55,15.6-18,20.67C139.59,95.72,95,112.59,83.31,116.58c-.64.21-1.27.44-1.88.67-4.67-3.19-10.86-4.87-17.92-4.87-17.46,0-35.13,12.6-35.13,36.67,0,10,4.44,19.71,13.19,28.92,7.2,7.58,15.86,13.39,22.18,17.62l.26.18,2,1.36a50.42,50.42,0,0,1,4.35,3.32l-7.74,2.88-.56-.63c-5.78-6.22-15-8.85-19.73-8.73-8.9.2-25.54,5-31.43,21.51-3.41,9.57-3.31,24.27,4.59,35.51,4.75,6.77,14.25,14.85,32.48,14.93h.23c12.6,0,22.66-4.1,29.92-12.19,10.36-11.55,11.22-27.2,10.7-31.78-.73-6.5-3.82-13.34-8.71-19.32l218.23-82.54c2.15,8.79,7.85,10.66,12.32,10.66h2a2.69,2.69,0,0,0,1-.18l78.26-29.8c3.84-1.34,9.72-5.74,7.44-13.73A9.47,9.47,0,0,0,394.53,80.87Zm-4.4,14.75-.11,0L312.17,125.3h-1.48c-2.68,0-5.91-.83-7.2-7.19l79-30.63,4.26-1.75c.13,0,3.18-1.07,5.3,0a4.26,4.26,0,0,1,2,2.81C395.53,93.55,391.05,95.31,390.13,95.62ZM263.86,60a6.59,6.59,0,0,1-1.81,5.09,8.58,8.58,0,0,1-5.82,2.4,8.75,8.75,0,0,1-8.68-7l11.73-4.17a5.13,5.13,0,0,1,3.43.67A3.91,3.91,0,0,1,263.86,60ZM62.2,219.27c-1.54,16.08-11.8,16.89-13.84,16.89a12.28,12.28,0,0,1-5.13-1.3c-3.12-1.59-4.78-4.46-4.93-8.51-.34-8.93,8.44-11.34,8.8-11.44a1.66,1.66,0,0,0,.29-.09l13.19-4.91A16.65,16.65,0,0,1,62.2,219.27Zm-16.62-9.59c-1.45.44-13.2,4.36-12.73,16.87.56,14.89,14.9,15.06,15.51,15.06,2.86,0,17.27-1.05,19.26-21.81a22,22,0,0,0-1.9-11.8l9-3.34c5,5.53,8.05,11.87,8.73,17.9.45,3.95-.32,17.47-9.35,27.54-6.18,6.88-14.88,10.37-25.86,10.37H48c-12.59-.05-22.29-4.41-28.05-12.61-6.77-9.65-6.84-22.3-3.9-30.56C21,203.55,35,199.59,42.47,199.42h.17a24.18,24.18,0,0,1,14.45,6Zm30.56-11.37a55,55,0,0,0-7-5.69L67,191.23l-.24-.16c-12.33-8.27-33-22.1-33-42,0-20.5,14.93-31.22,29.68-31.22a29.19,29.19,0,0,1,11.6,2.2c-9.92,5.22-10.54,10.74-10.8,13.15v.06c-.28,2.5-.29,7.2,2.78,10.63,2.21,2.46,5.47,3.72,9.71,3.72s7.43-1.3,9.7-3.86c2.81-3.17,3.84-8,3.06-14.43A15.86,15.86,0,0,0,86,121.42c18.08-6.29,95.59-35.82,96.37-36.11a2.72,2.72,0,0,0,1.52-1.44,2.68,2.68,0,0,0,.06-2.08,2.75,2.75,0,0,0-3.52-1.58l-.19.08-9.08,3.45c.85-5,3.64-12.39,12.65-13.07a5.23,5.23,0,0,1,4.31,1.51c2.7,2.59,5.78,9.73,5.1,29,0,.76-.05,1.28-.05,1.61,0,3.1-2.47,33.23-3,39a2.73,2.73,0,0,0,5.42.59c0-.29,4-29.38,9-46.22,7-23.49,12.73-28.54,16.32-28.64a2.55,2.55,0,0,1,2.07.76c2.84,2.85,2.57,12.35,2.47,15.92-.19,6.62-4,52.34-4.64,59.33L77,198Zm6.27-58.19c-1.19,1.34-3.08,2-5.62,2s-4.52-.64-5.65-1.91c-1.65-1.84-1.6-4.79-1.42-6.39v-.06c.2-1.78.66-5.9,10.72-10.27a11.49,11.49,0,0,1,3.7,6.45C84.54,133.25,84.57,137.68,82.41,140.12Z"/><path class="cls-3" d="M179.57,136.46A2.74,2.74,0,0,0,176,138c-1.53,3.82-7.2,14.84-13,15.34a3.45,3.45,0,0,1-3-1c-1.79-1.81-2.26-5.66-2.38-7.7,9.8-2.08,14.59-10.6,15.47-12.31,1.42-2.79,3-10,.29-14.12a6.1,6.1,0,0,0-5.81-2.69c-11.39.94-14.48,18-15.22,24.11h-.31a12.73,12.73,0,0,1-2.84-.49,56.76,56.76,0,0,0,1.06-7.1c0-.86.21-5.31-2.09-7.76a5,5,0,0,0-3.77-1.63,5.21,5.21,0,0,0-3.82,1.61c-2.22,2.3-2.29,6.22-2.26,7.35,0,.66.1,6.48,4.64,10.28-1.53,5.78-4.49,13.83-10.05,20.58a17,17,0,0,1-2.77-8.93,151.33,151.33,0,0,1,.94-18.63l0-.23a2.72,2.72,0,1,0-5.42-.57l0,.14c-.57,5.09-1.74,14.47-2.54,17.27-.2.69-.46,1.72-.73,2.82v0c-.73,3-1.74,7-2.94,10.32a17.12,17.12,0,0,1-2,4.16,15.88,15.88,0,0,1-1.87-7c0-.52.39-5,1.52-16,.26-2.58.47-4.61.54-5.24l0-.31a2.72,2.72,0,0,0-4.84-1.88,6.59,6.59,0,0,0-3.7-1.11l-.17,0c-12.7,1.36-16.16,22.76-16.31,26.91-.09,2.48,0,7.76,0,9.47-.6,2.18-2,4.6-3,4.77-.52-.34-1.6-3-1.9-6.05,0-.18,0-.36.08-.55.1-.75.21-1.6.32-2.54.14-1.09.28-2.29.43-3.55.09-.75.18-1.53.27-2.3.61-5.43,1.23-11.3,1.41-13v-.08a2.67,2.67,0,0,0-.59-2,2.72,2.72,0,0,0-4.83,1.43c0,.06-.69,6.72-1.41,13-.09.77-.17,1.54-.26,2.29-.15,1.24-.29,2.43-.42,3.51-.12.91-.22,1.75-.32,2.47q-.06.45-.12.84c-.14.95-.21,1.31-.24,1.44-.95,4.12-4.64,11.72-7.4,11.72-1.09,0-3.36,0-3.36-10.48,0-6.05,1.88-17.82,2-18.32a2.72,2.72,0,0,0-2.26-3.12,2.66,2.66,0,0,0-2,.48,2.71,2.71,0,0,0-1.1,1.77c-.08.52-2,12.66-2,19.19,0,4.77,0,15.93,8.81,15.93,4.86,0,8.36-5.42,10.25-9.31a5.53,5.53,0,0,0,4.67,2.66h.22c2.55-.1,4.76-1.72,6.42-4.71a9.28,9.28,0,0,0,5.66,1.53c3.72.14,7.19-3.31,10.25-10.23,1.35,2.65,3.24,4,5.52,4,3.86,0,6.25-5.21,8.5-13.22a16.74,16.74,0,0,0,4.36,6.72,3.42,3.42,0,0,0,4.67,0l0,0c7-7.51,10.72-16.85,12.63-23.58a18.63,18.63,0,0,0,3.79.63l.5,0c.21,3.59,1.09,8.22,3.92,11.09a8.82,8.82,0,0,0,7.37,2.57c10.19-.89,16.87-16.92,17.6-18.75a2.73,2.73,0,0,0-1.53-3.54ZM158,138.92c.79-5.1,3.4-17.41,10.06-18h.19c.38,0,.5.09.64.3,1.11,1.65.42,6.58-.62,8.61C167.64,131.05,164.39,136.86,158,138.92Zm-14.19-7.42h0a7.56,7.56,0,0,1,.58-3.25,8.33,8.33,0,0,1,.47,3.44c0,.07-.09,1.26-.39,3.24a8.43,8.43,0,0,1-.66-3.27Zm-41.61,43.79h0a2.86,2.86,0,0,0-.51,0,3.25,3.25,0,0,1-3.1-1.55l-.38-.72c0-2-.06-6.49,0-8.6s3-20.5,11.26-21.67a1.37,1.37,0,0,1,.77.45c.91,1,1.23,3.25.88,6.28l-.69,9.69C107.8,168.87,103.74,175.29,102.17,175.29Z"/><path class="cls-3" d="M258.54,85.82h0a2.67,2.67,0,0,0-.7-2,2.78,2.78,0,0,0-1.93-.89h-.06a2.74,2.74,0,0,0-2.53,1.66A5.83,5.83,0,0,0,249.19,83c-4.2,0-10.36,3.17-15.84,18.28-5.2,14.36-.76,21.48.73,23.32a7,7,0,0,0,5.34,2.92,5.36,5.36,0,0,0,.7,0c4-.54,7.3-2.34,10.83-9.32a10.84,10.84,0,0,0,2.63,4.42,5.91,5.91,0,0,0,4.2,1.78,2.72,2.72,0,0,0,1.22-5.08l-.11-.24-.77-.08-.35,0a1.24,1.24,0,0,1-.43-.29c-.65-.61-2.15-2.79-2.15-9.61.11-.62.36-2.18.61-4.22A112.11,112.11,0,0,0,258.54,85.82Zm-9.35,2.6c.58,0,1.52,1.45,1.75,5.46a60.87,60.87,0,0,1-.52,9.88,53.82,53.82,0,0,1-2.1,6.79c-4.19,10.8-6.91,11.22-8.9,11.49a2.36,2.36,0,0,1-1.1-.89c-2-2.52-3.21-8.75.16-18C243.42,89.48,247.92,88.42,249.19,88.42Z"/><path class="cls-3" d="M187.14,98.49a2.72,2.72,0,0,0-3.64,1.27,7,7,0,0,1-6.29,4h-.06a4.43,4.43,0,0,1-3.45-1.3c-2-2.14-1.8-6.34-1.8-6.37a2.72,2.72,0,1,0-5.43-.38c-.05.67-.34,6.62,3.24,10.47a9.71,9.71,0,0,0,7.37,3h.17a12.45,12.45,0,0,0,11.16-7.1,2.73,2.73,0,0,0,.11-2.08A2.67,2.67,0,0,0,187.14,98.49Z"/><path class="cls-4" d="M225.11,151.36a2,2,0,0,0-1.49.53,2.11,2.11,0,0,0-.7,1.5l-.42,14a2.13,2.13,0,0,0,.57,1.5,2.1,2.1,0,0,0,1.44.66h.09a2.08,2.08,0,0,0,2.09-2l.42-14a2.1,2.1,0,0,0-2-2.16Z"/><path class="cls-4" d="M401,51.1a2.09,2.09,0,0,0-3.87.11c-1.59,4.12-7,14.89-13.12,15.28a4.34,4.34,0,0,1-3.17-1.28c-1.64-1.61-2.44-4.64-2.31-8.82C392,52.78,395.93,42.08,396,42c.38-1.08,1.06-6.12-1.23-9.2a5.85,5.85,0,0,0-5.18-2.33c-6.35.32-13.36,7.41-15,22.52a21.59,21.59,0,0,1-5.38,0,46.84,46.84,0,0,0,.95-7c0-5.62-2.63-7.62-5.09-7.62s-5.1,2.1-5.1,8c0,2.57.59,7,4.33,9.34-1.7,6.25-5,14.7-11.39,21.83a24,24,0,0,1-4.14-10.79,2.14,2.14,0,0,0-.15-.55,168.91,168.91,0,0,0,1.84-17.43,2.06,2.06,0,0,0-.54-1.51,2.12,2.12,0,0,0-1.48-.68,2.1,2.1,0,0,0-2.16,2c0,.24-1.19,23.72-6.23,32.71-1.94,3.45-3.27,4.13-3.5,4.13h0c-.41-.16-2.06-2.44-2-10.08l2.28-16.84a2,2,0,0,0-.4-1.55,2.1,2.1,0,0,0-2.94-.4,2,2,0,0,0-.64.82,8.14,8.14,0,0,0-5-2.78c-7.09-.66-11.49,8.65-13.93,16.58-.05.16-4.35,16.21.37,22.19a5.78,5.78,0,0,0,4.7,2.27h.47c5.31-.34,9.19-6.37,11.68-12,.84,3.31,2.3,5.34,4.31,5.87a4.45,4.45,0,0,0,1.08.14c2.45,0,4.79-2,7.15-6.27a35.74,35.74,0,0,0,3.07-8.2,25.25,25.25,0,0,0,4.5,7.07,2.09,2.09,0,0,0,1.5.63h0a2.09,2.09,0,0,0,1.48-.61c8.09-8.09,12.06-17.91,14-25.11a23.87,23.87,0,0,0,6.08.17c0,5,1.19,8.67,3.59,11a8.6,8.6,0,0,0,6.44,2.46c9.77-.64,16-16.19,16.68-18A2.07,2.07,0,0,0,401,51.1ZM390,34.62a1.57,1.57,0,0,1,1.43.65c1.07,1.44.82,4.66.64,5.28,0,.09-3.07,8-13.07,11.35,1.55-11.07,6.5-17.06,10.82-17.27Zm-24.88,7.9h0c.37,0,.9,1.31.9,3.43a31.05,31.05,0,0,1-.6,5,8.34,8.34,0,0,1-1.21-4.68C364.17,43.86,364.81,42.63,365.07,42.52ZM317.61,90.69C315,87.35,317,75.47,318,72.32c2-6.6,5.54-13.65,9.26-13.65h.28c.92.09,4.28,1.73,4,8.18l-1.06,6c-1.86,7.5-6.55,18.16-11.18,18.46A1.71,1.71,0,0,1,317.61,90.69Z"/><path class="cls-4" d="M314.2,36.17a2.29,2.29,0,0,0,.73-.13L386.69,9.49a2.1,2.1,0,1,0-1.46-3.93L313.48,32.11a2.09,2.09,0,0,0,.72,4.06Z"/><path class="cls-4" d="M395.78,78.92c-4-2-8.66-.4-9.22-.19l-4.31,1.76-78.37,30.39q0-.84,0-1.71a172.15,172.15,0,0,1,3-29.54c1.72-8.11,4.87-26.54,4.87-29,0-.14,0-.37,0-.68v-.09c.64-13.88-2.73-21.23-10-21.85-4.65-.4-8.92,2.43-12.71,8.4-3.27,5.15-6.25,12.6-9.07,22.72-.32-9-2.2-15.35-5.69-19.17s-8-4.44-11-4.52a19.13,19.13,0,0,0-12.69,4.53A18.67,18.67,0,0,0,244,54.15c0,.18,0,.37,0,.55l-10.44,3.72a2.09,2.09,0,0,0,1.4,3.94L244.37,59c2.17,10.19,12.09,10.79,13.26,10.82A13.42,13.42,0,0,0,267,66a11.36,11.36,0,0,0,3.2-8.68,8.41,8.41,0,0,0-3-6.62c-3-2.38-7-1.68-7.48-1.58a1.53,1.53,0,0,0-.29.07l-11.23,4A14.28,14.28,0,0,1,253.47,43a15.24,15.24,0,0,1,9.66-3.37c3.71.1,6.11,1,8,3.15,3.76,4.13,5.24,12.8,4.41,25.78l-5.13,41.33a2.11,2.11,0,0,0,1.8,2.34,2.13,2.13,0,0,0,1.55-.41,2.07,2.07,0,0,0,.76-1.16l.05-.27c.13-.94,4-29.52,8.43-46.66,6.8-26.09,13.46-31.57,17.86-31.57l.47,0c4.63.4,6.71,6.28,6.19,17.48,0,.45,0,.78,0,1,0,1.68-2.83,19-4.78,28.17a177.89,177.89,0,0,0-3.08,30.41c0,1.14,0,2.25.11,3.3l-.75.29-71.68,27.11c.95-11.22,4.34-51.6,4.52-58,.23-7.87-.09-15.68-3.87-19.47a7.35,7.35,0,0,0-5.61-2.18c-7.87.22-14.29,10.12-20.82,32.1-.67,2.26-1.35,4.83-2,7.67,0-.28,0-.67,0-1.15.22-6.3.9-25.48-6.57-32.66a10,10,0,0,0-8-2.84c-15.11,1.14-17.13,16.36-17.4,20.49C143.48,93,96.93,110.6,85.05,114.66c-.74.25-1.47.51-2.17.78-4.6-3.24-10.75-5-17.83-5-17.15,0-34.51,12.38-34.51,36.05,0,9.81,4.38,19.4,13,28.49,7.16,7.52,15.78,13.31,22.08,17.53l.26.17,2,1.37a48.27,48.27,0,0,1,5.2,4.06L64,201.56c-.27-.32-.55-.64-.83-.95C57.25,194.25,48,192,43.91,192.08c-8.74.2-25.07,4.87-30.85,21.09-3.35,9.43-3.26,23.89,4.51,34.94,4.67,6.65,14,14.59,32,14.66h.24c12.41,0,22.32-4,29.44-12C89.43,239.42,90.27,224,89.77,219.51c-.76-6.68-4-13.6-9.15-19.67l219.74-83.11c1.91,8.94,7.44,10.88,11.87,10.88h2a2.12,2.12,0,0,0,.75-.14l78.28-29.81c3.63-1.27,9.19-5.42,7-13A8.85,8.85,0,0,0,395.78,78.92Zm-83.55,44.5c-2.8,0-6.6-.88-7.92-8.22L383.8,84.39l4.3-1.76c.25-.09,3.45-1.16,5.79,0a4.8,4.8,0,0,1,2.35,3.19c1.63,5.69-3.75,7.64-4.37,7.84l-.09,0-78,29.7ZM264.63,54A4.43,4.43,0,0,1,266,57.49a7.14,7.14,0,0,1-2,5.56,9.26,9.26,0,0,1-6.28,2.58c-1.93-.06-8.13-.82-9.38-8l12.3-4.37A5.73,5.73,0,0,1,264.63,54ZM44.17,196.27a24.56,24.56,0,0,1,15.6,6.86l-12.45,4.63c-1,.3-12.76,4.06-12.3,16.25.53,14.29,14.29,14.46,14.87,14.46,2.78,0,16.7-1,18.64-21.25a21.32,21.32,0,0,0-2.14-12.08l10-3.73c5.22,5.7,8.47,12.27,9.18,18.57.46,4-.32,17.78-9.51,28-6.3,7-15.15,10.58-26.32,10.58h-.22c-12.8-.05-22.67-4.5-28.55-12.88-6.91-9.83-7-22.71-4-31.12,5-14.08,19.33-18.13,27-18.31Zm20.19,20.55C62.77,233.43,52,234.27,49.89,234.27a13.05,13.05,0,0,1-5.41-1.36c-3.34-1.71-5.12-4.75-5.28-9-.35-9.43,8.91-12,9.29-12.07l.21-.07,13.71-5.1A17,17,0,0,1,64.36,216.82Zm.69-102.14a28.64,28.64,0,0,1,13,2.81c-10.72,5.24-11.33,10.79-11.6,13.24v.07c-.26,2.39-.28,6.89,2.62,10.13,2.09,2.33,5.2,3.51,9.24,3.51s7.09-1.22,9.23-3.64c2.69-3,3.67-7.72,2.91-13.94a15.63,15.63,0,0,0-4-8.25c16.2-5.55,96.42-36.1,97.23-36.41a2.09,2.09,0,1,0-1.5-3.91l-10.27,3.9c.6-4.66,3.08-13.89,13.38-14.66a5.84,5.84,0,0,1,4.79,1.68c2.8,2.68,6,10,5.29,29.5,0,.72,0,1.26,0,1.58,0,3.13-2.47,33.28-3,39.09a2.09,2.09,0,0,0,4.16.45c0-.29,4-29.36,9.05-46.31,5.69-19.16,11.38-28.95,16.91-29.1a3.28,3.28,0,0,1,2.53,1c3,3,2.77,12.39,2.65,16.39-.19,6.67-4.1,53-4.67,59.75L78.78,196.06l-1.26.46a53.3,53.3,0,0,0-7.24-5.89L68,189.11l0,0c-12.43-8.34-33.23-22.28-33.23-42.54C34.74,125.63,50,114.68,65.05,114.68ZM84.42,138c-1.31,1.48-3.36,2.23-6.1,2.23s-4.86-.71-6.11-2.11c-1.82-2-1.77-5.18-1.58-6.88v-.07c.22-1.92.71-6.36,11.48-10.93a12.29,12.29,0,0,1,4.19,7.11C86.72,130.79,86.73,135.41,84.42,138Z"/><path class="cls-4" d="M76.26,187.44c4.66,0,8.15-5.45,10.18-10,1,1.88,2.5,3.37,4.75,3.37h.19c2.49-.1,4.66-1.87,6.24-5a8.4,8.4,0,0,0,5.86,1.85h.22c4.38,0,7.77-5.69,10-11.19,1,2.66,2.74,5,5.53,5,3.89,0,6.23-6.42,8.44-14.79,1.57,5.76,4.77,8.39,4.81,8.42a2.81,2.81,0,0,0,3.83.07l0,0c7-7.54,10.73-16.94,12.65-23.94a17.13,17.13,0,0,0,4.27.78c.35,0,.7,0,1.05,0,.15,3.37.88,8.34,3.78,11.26a8.19,8.19,0,0,0,6.87,2.39c9.8-.86,16.34-16.57,17.06-18.35a2.1,2.1,0,1,0-3.89-1.56c-1.69,4.2-7.4,15.2-13.54,15.74a4.1,4.1,0,0,1-3.52-1.16c-2-2.07-2.5-6.35-2.59-8.65,9.86-1.82,14.67-10.35,15.56-12.09,1.46-2.85,2.81-9.79.33-13.49a5.47,5.47,0,0,0-5.23-2.41c-11.42.94-14.19,19.33-14.71,24.13-.31,0-.61,0-.91,0A12.42,12.42,0,0,1,150,137a58.19,58.19,0,0,0,1.16-7.55c0-.82.2-5-1.92-7.3a4.48,4.48,0,0,0-3.32-1.43,4.58,4.58,0,0,0-3.37,1.43c-2.09,2.16-2.1,6.08-2.08,6.91s.14,6.47,4.73,10c-1.63,6.3-4.79,14.82-10.79,21.83a17.1,17.1,0,0,1-3.37-9.92,152.49,152.49,0,0,1,.94-18.72l0-.23a2.1,2.1,0,1,0-4.17-.44v.14c-.58,5.12-1.76,14.54-2.57,17.37-.2.69-.46,1.73-.74,2.85-.73,3-1.74,7-3,10.38-1.31,3.6-2.2,4.56-2.48,4.79-1.21-.37-2.58-5.3-2.58-7.87,0-.55.4-5.06,1.53-16.06.29-2.88.52-5.08.55-5.41l0-.12a2.11,2.11,0,0,0-1.89-2.22,2.11,2.11,0,0,0-2.14,1.3,6,6,0,0,0-3.86-1.39h-.12C98.36,136.75,95,157.67,94.86,161.74c-.09,2.52,0,8,0,9.52-.58,2.17-2.09,5.27-3.64,5.33h0c-.91,0-2.18-3.44-2.49-6.7,0-.2.06-.4.09-.62.1-.74.21-1.6.33-2.53.13-1.09.28-2.29.42-3.55.09-.75.18-1.52.27-2.3.69-6.14,1.39-12.77,1.42-13a2.13,2.13,0,0,0-.46-1.54,2.05,2.05,0,0,0-1.41-.76,2.09,2.09,0,0,0-2.3,1.86c0,.07-.71,6.75-1.42,13-.09.77-.17,1.54-.26,2.29-.15,1.24-.29,2.43-.42,3.51-.12.92-.22,1.76-.32,2.48q-.06.45-.12.84c-.13.93-.21,1.33-.25,1.5-.84,3.65-4.59,12.21-8,12.21-2.06,0-4-1.35-4-11.11,0-6.08,1.89-17.92,2-18.42a2.1,2.1,0,1,0-4.14-.67c-.08.51-2,12.58-2,19.09C68.09,176.72,68.09,187.44,76.26,187.44Zm36.95-40.39-.69,9.71c-2.33,8.88-6.44,16.65-8.81,16.65h-.1a2.67,2.67,0,0,0-.4,0,3.93,3.93,0,0,1-3.72-1.88l-.45-.85c0-1.87-.07-6.59,0-8.78.09-2.49,3.12-21.17,11.89-22.29a2,2,0,0,1,1.23.65C113.22,141.38,113.58,143.79,113.21,147.05ZM144.68,129c0-1.2.25-3.22.91-3.9a.39.39,0,0,1,.35-.15.27.27,0,0,1,.26.11c.65.69.88,2.86.79,4.16a48.71,48.71,0,0,1-.69,5.06,9.14,9.14,0,0,1-1.62-5.15A.28.28,0,0,0,144.68,129Zm25.08-11.19a1.25,1.25,0,0,1,1.16.57c1.27,1.91.55,7-.58,9.25-.69,1.36-4.32,7.81-11.59,9.65.63-4.6,3.19-18.84,10.77-19.46Z"/><path class="cls-4" d="M259.45,83.28a2,2,0,0,0-.54-1.51,2.1,2.1,0,0,0-1.49-.69h0a2.1,2.1,0,0,0-2.11,2s0,.17,0,.47a5.33,5.33,0,0,0-4.52-2.47c-4,0-9.89,3.1-15.24,17.87-5.09,14-.81,20.93.62,22.71a6.41,6.41,0,0,0,4.86,2.69,6,6,0,0,0,.61,0c4.14-.56,7.41-2.58,11.07-10.47a11.41,11.41,0,0,0,2.91,5.73,5.28,5.28,0,0,0,3.74,1.61,2.09,2.09,0,0,0,.75-4l0-.11-.44,0a2,2,0,0,0-.34,0,1.58,1.58,0,0,1-.77-.46c-.89-.84-2.36-3.27-2.35-10.12.1-.58.36-2.18.61-4.28A110.48,110.48,0,0,0,259.45,83.28ZM239.37,119c-2.14-2.65-3.4-9.12,0-18.65,4.94-13.63,9.55-15.1,11.3-15.1,1.28,0,2.17,2.26,2.38,6a62.75,62.75,0,0,1-.52,10,58.12,58.12,0,0,1-2.13,6.91c-4.35,11.2-7.29,11.59-9.44,11.88C240.74,120.18,240.08,119.92,239.37,119Z"/><path class="cls-4" d="M178.63,106.07h.15a11.83,11.83,0,0,0,10.6-6.75,2.08,2.08,0,0,0-1-2.79,2.1,2.1,0,0,0-2.8,1,7.61,7.61,0,0,1-6.87,4.36h0a5.07,5.07,0,0,1-3.91-1.49c-2.21-2.36-2-6.81-2-6.85a2.1,2.1,0,1,0-4.18-.29c0,.64-.33,6.34,3.08,10A9,9,0,0,0,178.63,106.07Z"/><line class="cls-5" x1="226.73" y1="151.51" x2="226.31" y2="165.56"/><path class="cls-5" d="M400.81,50s-6.15,16.06-14.88,16.62c0,0-8.8.91-7.69-13.76s7.55-22,13.14-22.28,4.68,7.75,4.33,8.73-4.82,11.45-19.07,13.76c0,0-5.1.77-8.6-.7s-4.26-5.24-4.26-8,.77-5.87,3-5.87,3,2.72,3,5.52-2.1,21.51-15.3,34.72A25.35,25.35,0,0,1,348.42,65"/><path class="cls-5" d="M350.09,46.66s-1.15,24.1-6.49,33.64-9.54,5.24-9.44-7.13l1.32-9.69,1-7.28"/><path class="cls-5" d="M329.4,54.66c2.09.19,6.28,2.74,5.85,10.5l-1.09,6.23h0S329.34,91,321.07,91.51s-4.32-18.78-3.41-21.74C318.81,66,322.82,54.05,329.4,54.66Z"/><line class="cls-5" x1="387.67" y1="5.59" x2="315.92" y2="32.13"/><path class="cls-5" d="M235.93,58.45l25.94-9.22s7.64-1.52,8,6.24S263,65.89,259.4,65.79s-11.94-2.2-11.63-13.52A16.77,16.77,0,0,1,264.9,35.56c7.55.21,16.25,3.77,14.46,31.22l-5.13,41.39s3.88-29.23,8.49-46.94S294,27.33,303.25,28.12c9.85.84,8.07,18.54,8.07,20.53s-2.93,19.7-4.82,28.61a176.67,176.67,0,0,0-3,30c0,7.33,1.47,16.34,10.48,16.34h2l78.32-29.82s8-2.59,5.73-10.41-10.9-4.61-10.9-4.61l-4.35,1.78-83.25,32.27L81.22,196.08,49.68,207.82S38.4,210.75,38.82,222s10.41,12.43,12.78,12.43,14.79-.86,16.56-19.35c1.68-17.46-16.42-23-22.49-22.84s-23,3.21-28.92,19.7,0,46.66,34.51,46.8,39.11-32.27,38.14-40.93-6.85-19.42-18.59-27.39-36.46-23-36.46-45.82S51,110.65,66.76,110.65s22.64,8.8,23.33,14.53.42,15.23-10,15.23-10.06-8.8-9.78-11.32.83-8.8,17.18-14.39,97.2-36.39,97.2-36.39"/><path class="cls-5" d="M73.89,151.44s-2,12.37-2,18.76.63,13.2,6.07,13.2S87.41,172.3,88,169.57c.08-.32.17-.9.29-1.66,0-.27.07-.56.12-.86.1-.74.2-1.58.32-2.51.13-1.09.28-2.28.42-3.53.09-.75.18-1.52.27-2.29.72-6.35,1.41-13,1.41-13"/><path class="cls-5" d="M181.81,134.54s-6.49,16.28-15.3,17-8.59-12.23-8.31-15.05,2.53-21.89,12.86-22.74c5.93-.49,4.61,9.43,2.86,12.86s-7.61,11.94-18.79,11.24-10.83-10.75-10.83-10.75-.21-6.22,3.35-6.22,3.15,6.49,3.15,6.49-1.26,20.37-14.25,34.3c0,0-.32.32-1-.24s-4.5-4.58-4.85-12.26,1-19.28,1-19.28-1.54,14-2.66,17.88-4.26,19.56-8,19.56-4.82-8.38-4.82-10c0-1.06.91-10.19,1.53-16.27.32-3.13.57-5.45.57-5.45"/><path class="cls-5" d="M88.32,167.91s.71,9,4.69,8.84,5.66-7.18,5.66-7.18-.11-6.86,0-9.69,3.19-23.16,13.88-24.31c0,0,5.61-.26,4.46,9.74l-.7,9.86s-4.91,18.91-11.14,18.38a6.12,6.12,0,0,1-5.82-3l-.5-.95"/><path class="cls-5" d="M260.89,117.15s-5.24.28-5.17-12.86c0,0,1.54-8.87,1.19-15s-2.31-8-4.47-8-7.76,1.26-13.28,16.49.21,23,3.85,22.56,6.84-2.24,11.1-13.2,5-25.85,5-25.85"/><path class="cls-5" d="M172.44,91.46s-.74,10.58,8,10.58a9.87,9.87,0,0,0,8.8-5.55"/><path class="cls-5" d="M171.33,82.92s-.16-18.24,15.51-19.42c14.81-1.12,12.3,31.22,12.3,34.86s-3,39.25-3,39.25,4-29.34,9.11-46.62,11.22-30.39,18.86-30.6,7.55,12.15,7.34,19.49-4.75,60.69-4.75,60.69"/></g></g></svg>