<?xml version="1.0" encoding="utf-8"?>
<!-- Generator: Adobe Illustrator 23.0.1, SVG Export Plug-In . SVG Version: 6.00 Build 0)  -->
<svg version="1.1" id="Layer_1" xmlns="http://www.w3.org/2000/svg" xmlns:xlink="http://www.w3.org/1999/xlink" x="0px" y="0px"
	 viewBox="0 0 407.9 278.5" style="enable-background:new 0 0 407.9 278.5;" xml:space="preserve">
<style type="text/css">
	.st0{fill:#FFFFFF;}
</style>
<title>Asset 28</title>
<image style="overflow:visible;" width="719" height="1280" xlink:href="../../novos/F049C599-EC64-4A22-B8E8-CA3C350CA81B.jpg"  transform="matrix(0.4548 0 0 0.4548 1784.6666 22)">
</image>
<g>
	<path class="st0" d="M48.5,211.8c-0.4,0.1-9.6,2.6-9.3,12.1c0.2,4.3,1.9,7.3,5.3,9c1.7,0.8,3.5,1.3,5.4,1.4
		c2.1,0,12.9-0.8,14.5-17.5c0.4-3.5-0.3-7.1-2-10.2l-13.7,5.1L48.5,211.8z"/>
	<path class="st0" d="M70.6,131.2L70.6,131.2c-0.2,1.8-0.2,5,1.6,7c1.3,1.4,3.4,2.1,6.1,2.1s4.8-0.8,6.1-2.2
		c2.3-2.6,2.3-7.2,1.9-10.7c-0.5-2.8-2-5.3-4.2-7.1C71.3,124.8,70.8,129.3,70.6,131.2z"/>
	<path class="st0" d="M170.3,127.6c1.1-2.3,1.8-7.3,0.6-9.3c-0.3-0.4-0.7-0.6-1.2-0.6l-0.2,0c-7.6,0.6-10.1,14.9-10.8,19.5
		C166,135.4,169.7,129,170.3,127.6z"/>
	<path class="st0" d="M66.4,205.1c1.9,3.7,2.6,7.9,2.1,12.1c-1.9,20.3-15.9,21.3-18.6,21.3c-0.6,0-14.3-0.2-14.9-14.5
		c-0.5-12.2,11.3-16,12.3-16.3l12.5-4.6c-4.2-4.1-9.7-6.5-15.6-6.9l-0.2,0c-7.7,0.2-22,4.2-27,18.3c-3,8.4-2.9,21.3,4,31.1
		c5.9,8.4,15.8,12.8,28.6,12.9h0.2c11.2,0,20-3.6,26.3-10.6c9.2-10.2,10-24,9.5-28c-0.7-6.3-4-12.9-9.2-18.6L66.4,205.1z"/>
	<path class="st0" d="M319.3,91.3c4.6-0.3,9.3-11,11.2-18.5l1.1-6c0.3-6.4-3.1-8.1-4-8.2h-0.3c-3.7,0-7.3,7-9.3,13.7
		c-1,3.1-3,15-0.4,18.4C318,91.2,318.7,91.4,319.3,91.3z"/>
	<path class="st0" d="M392.1,40.5c0.2-0.6,0.4-3.8-0.6-5.3c-0.3-0.5-0.9-0.7-1.4-0.7l-0.2,0c-4.3,0.2-9.3,6.2-10.8,17.3
		C389,48.5,392.1,40.6,392.1,40.5z"/>
	<path class="st0" d="M366,46c0-2.1-0.5-3.4-0.9-3.4h0c-0.3,0.1-0.9,1.3-0.9,3.8c-0.1,1.6,0.4,3.3,1.2,4.7
		C365.8,49.3,366,47.6,366,46z"/>
	<path class="st0" d="M110.9,139.6c-8.8,1.1-11.8,19.8-11.9,22.3c-0.1,2.2,0,6.9,0,8.8l0.4,0.8c0.8,1.3,2.2,2,3.7,1.9
		c0.1,0,0.3,0,0.4,0h0.1c2.4,0,6.5-7.8,8.8-16.6l0.7-9.7c0.4-3.3,0-5.7-1-6.8C111.8,139.9,111.4,139.7,110.9,139.6z"/>
	<path class="st0" d="M257.7,65.6c2.3,0,4.6-1,6.3-2.6c1.4-1.5,2.2-3.5,2-5.6c0.1-1.3-0.4-2.6-1.4-3.5c-1.2-0.7-2.6-1-4-0.7
		l-12.3,4.4C249.6,64.8,255.8,65.6,257.7,65.6z"/>
	<path class="st0" d="M393.9,82.6c-2.3-1.2-5.5-0.1-5.8,0l-4.3,1.8l-79.5,30.8c1.3,7.3,5.1,8.2,7.9,8.2l1.6-0.1l78-29.7h0.1
		c0.6-0.2,6-2.1,4.4-7.8C396,84.5,395.1,83.3,393.9,82.6z"/>
	<path class="st0" d="M250.7,85.3c-1.8,0-6.4,1.5-11.3,15.1c-3.4,9.5-2.1,16,0,18.7c0.7,0.9,1.4,1.2,1.6,1c2.1-0.3,5.1-0.7,9.4-11.9
		c0.9-2.3,1.6-4.6,2.1-6.9c0.4-3.3,0.6-6.7,0.5-10C252.8,87.5,252,85.3,250.7,85.3z"/>
	<path class="st0" d="M225,65.4c-0.7-0.7-1.6-1-2.5-1c-5.5,0.1-11.2,9.9-16.9,29.1c-5,17-9,46-9,46.3c-0.1,1.1-1.2,2-2.3,1.9
		s-2-1.2-1.9-2.3c0.5-5.8,3-36,3-39.1c0-0.3,0-0.9,0-1.6c0.7-19.5-2.5-26.8-5.3-29.5c-1.3-1.3-3-1.9-4.8-1.7
		c-10.3,0.8-12.8,10-13.4,14.7l10.3-3.9c1.1-0.4,2.3,0.1,2.7,1.2c0.4,1.1-0.1,2.3-1.2,2.7c-0.8,0.3-81,30.9-97.2,36.4
		c2.1,2.3,3.5,5.2,4,8.3c0.8,6.2-0.2,10.9-2.9,13.9c-2.1,2.4-5.2,3.6-9.2,3.6c-4,0-7.1-1.2-9.2-3.5c-2.9-3.2-2.9-7.7-2.6-10.1v-0.1
		c0.3-2.5,0.9-8,11.6-13.2c-4.1-1.9-8.5-2.9-13-2.8c-15,0-30.3,11-30.3,31.9c0,20.3,20.8,34.2,33.2,42.5l2.3,1.5
		c2.6,1.7,5,3.7,7.2,5.9l1.3-0.5L223,141.6c0.6-6.8,4.5-53.1,4.7-59.8C227.8,77.8,228,68.4,225,65.4z M182,137.3
		c-0.7,1.8-7.3,17.5-17.1,18.3c-2.5,0.3-5.1-0.6-6.9-2.4c-2.9-2.9-3.6-7.9-3.8-11.3c-0.4,0-0.7,0-1,0c-1.5-0.1-2.9-0.3-4.3-0.8
		c-1.9,7-5.7,16.4-12.7,23.9c-1.1,1-2.8,1-3.8-0.1c0,0-3.2-2.7-4.8-8.4c-2.2,8.4-4.5,14.8-8.4,14.8c-2.8,0-4.5-2.3-5.5-5
		c-2.2,5.5-5.6,11.2-10,11.2h-0.2c-2.1,0.1-4.2-0.5-5.9-1.8c-1.6,3.1-3.8,4.9-6.2,5h-0.2c-2.3,0-3.8-1.5-4.8-3.4
		c-2,4.5-5.5,10-10.2,10c-8.2,0-8.2-10.7-8.1-15.3c0-6.5,1.9-18.6,2-19.1c0-0.1,0-0.2,0-0.2c0.2-1.1,1.4-1.9,2.5-1.6
		s1.9,1.4,1.6,2.5c-0.1,0.5-2,12.3-2,18.4c0,9.8,1.9,11.1,4,11.1c3.4,0,7.2-8.6,8-12.2c0-0.2,0.1-0.6,0.3-1.5c0-0.3,0.1-0.5,0.1-0.8
		c0.1-0.7,0.2-1.6,0.3-2.5c0.1-1.1,0.3-2.3,0.4-3.5c0.1-0.8,0.2-1.5,0.3-2.3c0.7-6.3,1.4-12.9,1.4-13c0,0,0,0,0,0
		c0.1-1.1,1.2-2,2.3-1.9c0.6,0.1,1.1,0.3,1.4,0.8c0.3,0.4,0.5,1,0.5,1.5c0,0.2-0.7,6.9-1.4,13c-0.1,0.8-0.2,1.5-0.3,2.3
		c-0.1,1.3-0.3,2.5-0.4,3.5c-0.1,0.9-0.2,1.8-0.3,2.5c0,0.2-0.1,0.4-0.1,0.6c0.3,3.3,1.6,6.7,2.5,6.7c1.5-0.1,3.1-3.2,3.6-5.3
		c0-1.5-0.1-7,0-9.5c0.1-4.1,3.5-25,15.7-26.4h0.1c1.4,0,2.8,0.5,3.9,1.4c0.4-0.9,1.2-1.4,2.1-1.3c1.1,0.1,2,1.1,1.9,2.2v0.1
		c0,0.3-0.3,2.5-0.5,5.4c-1.1,11-1.5,15.5-1.5,16.1c0,2.6,1.4,7.5,2.6,7.9c0.3-0.2,1.2-1.2,2.5-4.8c1.3-3.4,2.3-7.4,3-10.4
		c0.3-1.1,0.5-2.2,0.7-2.9c0.8-2.8,2-12.3,2.6-17.4v-0.1c0-0.1,0-0.2,0-0.2c0.2-1.1,1.3-1.9,2.4-1.7c1.1,0.2,1.9,1.3,1.7,2.4v0.2
		c-0.7,6.2-1,12.5-0.9,18.7c0.1,3.6,1.2,7,3.4,9.9c6-7,9.2-15.5,10.8-21.8c-4.6-3.5-4.7-9.2-4.7-10c0-0.8,0-4.8,2.1-6.9
		c0.9-0.9,2.1-1.4,3.4-1.4c1.3,0,2.5,0.5,3.3,1.4c2.1,2.3,1.9,6.5,1.9,7.3c-0.2,2.5-0.6,5.1-1.2,7.5c1.1,0.4,2.3,0.7,3.5,0.8
		c0.3,0,0.6,0,0.9,0c0.5-4.8,3.3-23.2,14.7-24.1c2.1-0.3,4.1,0.7,5.2,2.4c2.5,3.7,1.1,10.6-0.3,13.5c-0.9,1.7-5.7,10.3-15.6,12.1
		c0.1,2.3,0.6,6.6,2.6,8.7c0.9,0.9,2.2,1.4,3.5,1.2c6.1-0.5,11.9-11.5,13.5-15.7c0-0.1,0.1-0.2,0.1-0.3c0.5-1,1.8-1.5,2.8-1
		C182,135,182.5,136.3,182,137.3z M189.4,99.3c-1.9,4.1-6.1,6.7-10.6,6.8h-0.2c-2.6,0.1-5.1-0.9-6.9-2.8c-3.4-3.7-3.1-9.4-3.1-10
		c0-0.1,0-0.2,0-0.3c0.2-1.1,1.2-2,2.4-1.8c1.1,0.2,2,1.2,1.8,2.4c0,0-0.2,4.5,2,6.9c1,1,2.5,1.6,3.9,1.5c2.9,0,5.6-1.7,6.9-4.4
		c0,0,0,0,0,0c0.5-1,1.8-1.5,2.8-1c0,0,0,0,0,0C189.4,97,189.9,98.3,189.4,99.3z"/>
	<path class="st0" d="M399.7,75.2c-0.4-0.2-0.3-0.8-0.3-0.8s8.5-11.1,8.5-21.8s-5.5-16.5-5.5-16.5c-0.8-4.3-3.7-8-7.7-9.8
		c-0.8-0.4-6-3-3.1-7.6c1.8-2.9,2.6-6.2,2.5-9.6c-0.7-10.8-12.5-8.8-12.5-8.8L312,26h-2c-4.5-4.1-11.3-3.8-11.3-3.8
		c-12.4,0-19.4,15.4-19.4,15.4c-6-8.3-17.6-8.3-17.6-8.3c-21.7,0-26.5,22.1-26.5,22.1c-3.4,0.5-6.6,1.9-9.2,4.1
		c-14.9-4.7-22.5,9.7-22.5,9.7h-4.6c-4.7-8.1-16.6-8-16.6-8c-17.8,0-24.1,23.6-24.1,23.6l-75.3,28.1c-8.9-4.3-20.3-4-20.3-4
		c-18.2,0-41.5,15.9-41.5,42.9s18,38.8,18,38.8l-5.7,1c-21,5.6-27,20.1-30.2,27.5c-3.2,7.4-6.3,58.4,40.7,58.4s53-35.5,53-48.5
		s-5.1-18.9-5.1-18.9l121.3-45.6v10.4c0,1.4,1.2,8.3,9.9,9.1c8.7,0.8,10.2-8.3,10.2-8.3l0.5-18.9c0,0,59.4-22.6,60.2-22.9
		c0.6-0.1,1.1,0.1,1.5,0.6c8.5,12.5,21.5,7.1,21.5,7.1l43.4-16.1l40.1-16.5c0,0,7.5-4.3,7.5-15S400.1,75.4,399.7,75.2z M313.5,32.1
		l71.8-26.5c0.1,0,0.2-0.1,0.2-0.1c1.1-0.3,2.3,0.3,2.6,1.4c0.3,1.1-0.3,2.3-1.4,2.6L314.9,36c-0.2,0.1-0.5,0.1-0.7,0.1
		c-0.9,0-1.7-0.5-2-1.4C311.8,33.7,312.4,32.5,313.5,32.1z M313.9,71.2c2.4-7.9,6.8-17.2,13.9-16.6c1.9,0.3,3.7,1.3,5,2.8
		c0.1-0.3,0.4-0.6,0.6-0.8c0.9-0.7,2.2-0.5,2.9,0.4c0.3,0.4,0.5,1,0.4,1.5l-2.3,16.8c-0.1,7.6,1.6,9.9,2,10.1c0.2,0,1.6-0.7,3.5-4.1
		c5-9,6.2-32.5,6.2-32.7c0.1-1.1,1-2,2.2-2c0.6,0,1.1,0.3,1.5,0.7c0.4,0.4,0.6,1,0.5,1.5c-0.3,5.8-0.9,11.7-1.8,17.4
		c0.1,0.2,0.1,0.4,0.1,0.5c0.5,3.9,1.9,7.6,4.1,10.8c6.4-7.1,9.7-15.6,11.4-21.8c-3.7-2.3-4.3-6.8-4.3-9.3c0-5.9,2.6-8,5.1-8
		c2.5,0,5.1,2,5.1,7.6c-0.1,2.4-0.5,4.7-1,7c1.8,0.2,3.6,0.2,5.4,0c1.6-15.1,8.6-22.2,15-22.5c2-0.2,4,0.7,5.2,2.3
		c2.3,3.1,1.6,8.1,1.2,9.2c-0.1,0.1-4,10.8-17.5,14.4c-0.1,4.2,0.7,7.2,2.3,8.8c0.8,0.8,2,1.3,3.2,1.3c6.1-0.4,11.5-11.2,13.1-15.3
		c0.2-0.5,0.6-1,1.1-1.2c1.1-0.5,2.3,0,2.8,1.1c0.2,0.5,0.3,1.1,0,1.7c-0.7,1.8-6.9,17.4-16.7,18c-2.4,0.1-4.7-0.8-6.4-2.5
		c-2.4-2.3-3.6-6-3.6-11c-2,0.2-4.1,0.1-6.1-0.2c-1.9,7.2-5.9,17-14,25.1c-0.4,0.4-0.9,0.6-1.5,0.6c-0.6,0-1.1-0.2-1.5-0.6
		c-1.9-2.1-3.4-4.5-4.5-7.1c-0.7,2.8-1.7,5.6-3.1,8.2c-2.4,4.3-4.7,6.3-7.2,6.3c-0.4,0-0.7,0-1.1-0.1c-2-0.5-3.5-2.6-4.3-5.9
		c-2.5,5.6-6.4,11.7-11.7,12H319c-1.8,0-3.6-0.8-4.7-2.3C309.6,87.4,313.9,71.3,313.9,71.2z M226.7,167.5c0,1.1-1,2-2.1,2h-0.1
		c-0.5,0-1.1-0.3-1.4-0.7c-0.4-0.4-0.6-0.9-0.6-1.5l0.4-14c0-0.6,0.3-1.1,0.7-1.5c0.4-0.4,0.9-0.6,1.5-0.5v0c1.1,0.1,2,1,2,2.2
		L226.7,167.5z M393.3,97.7L315,127.5c-0.2,0.1-0.5,0.1-0.8,0.1h-2c-4.4,0-10-1.9-11.9-10.9L80.6,199.8c5.2,6.1,8.4,13,9.2,19.7
		c0.5,4.5-0.3,19.9-10.5,31.3c-7.1,8-17,12-29.4,12h-0.2c-18-0.1-27.3-8-32-14.7c-7.8-11-7.9-25.5-4.5-34.9
		c5.8-16.2,22.1-20.9,30.8-21.1c4.1-0.1,13.3,2.2,19.3,8.5c0.3,0.3,0.6,0.6,0.8,1l9.1-3.5c-1.6-1.5-3.4-2.8-5.2-4.1l-2-1.4l-0.3-0.2
		c-6.3-4.2-14.9-10-22.1-17.5c-8.6-9.1-13-18.7-13-28.5c0-23.7,17.4-36,34.5-36c7.1,0,13.2,1.8,17.8,5c0.7-0.3,1.4-0.5,2.2-0.8
		c11.9-4.1,58.4-21.7,82.5-30.8c0.3-4.1,2.3-19.3,17.4-20.5c3-0.3,5.9,0.8,8,2.8c7.5,7.2,6.8,26.4,6.6,32.7c0,0.5,0,0.9,0,1.1
		c0.7-2.8,1.3-5.4,2-7.7c6.5-22,13-31.9,20.8-32.1c2.1-0.1,4.1,0.7,5.6,2.2c3.8,3.8,4.1,11.6,3.9,19.5c-0.2,6.4-3.6,46.8-4.5,58
		l71.7-27.1l0.8-0.3c-0.1-1.1-0.1-2.2-0.1-3.3c0.2-10.2,1.2-20.4,3.1-30.4c2-9.2,4.8-26.5,4.8-28.2c0-0.2,0-0.5,0-1
		c0.5-11.2-1.6-17.1-6.2-17.5h-0.5c-4.4,0-11.1,5.5-17.9,31.6c-4.4,17.1-8.3,45.7-8.4,46.7l0,0.3c-0.1,0.5-0.4,0.9-0.8,1.2
		c-0.4,0.3-1,0.5-1.5,0.4c-1.1-0.2-1.9-1.2-1.8-2.3l5.1-41.3c0.8-13-0.7-21.7-4.4-25.8c-1.9-2.2-4.3-3.1-8-3.2
		c-3.5,0-6.9,1.2-9.7,3.4c-3.1,2.5-5,6.2-5.3,10.2l11.2-4c0.1,0,0.2-0.1,0.3-0.1c0.5-0.1,4.5-0.8,7.5,1.6c2,1.6,3.1,4.1,3,6.6
		c0.2,3.2-1,6.4-3.2,8.7c-2.5,2.4-5.9,3.8-9.4,3.8c-1.2,0-11.1-0.6-13.3-10.8l-9.4,3.4c-1.1,0.4-2.3-0.2-2.7-1.3
		c-0.4-1.1,0.2-2.3,1.3-2.7l10.4-3.7c0-0.2,0-0.4,0-0.5c0-5.5,2.4-10.6,6.6-14.2c3.5-3,8.1-4.6,12.7-4.5c3,0.1,7.5,0.7,11,4.5
		c3.5,3.8,5.4,10.2,5.7,19.2c2.8-10.1,5.8-17.6,9.1-22.7c3.8-6,8.1-8.8,12.7-8.4c7.3,0.6,10.6,8,10,21.8V50c0,0.3,0,0.5,0,0.7
		c0,2.5-3.1,20.9-4.9,29c-1.8,9.7-2.9,19.6-3,29.5c0,0.6,0,1.2,0,1.7l78.4-30.4l4.3-1.8c0.6-0.2,5.2-1.8,9.2,0.2
		c2.2,1.2,3.9,3.3,4.5,5.7C402.5,92.2,396.9,96.4,393.3,97.7z M258.6,116.7c0.2,0.2,0.5,0.4,0.8,0.5c0.1,0,0.2,0,0.3,0h0.4v0.1
		c0.7,0.3,1.2,1,1.2,1.8c0.1,1.2-0.8,2.1-2,2.2c-1.4,0-2.8-0.6-3.7-1.6c-1.5-1.6-2.5-3.6-2.9-5.7c-3.7,7.9-6.9,9.9-11.1,10.5
		c-0.2,0-0.4,0-0.6,0c-1.9-0.1-3.7-1.1-4.9-2.7c-1.4-1.8-5.7-8.7-0.6-22.7c5.4-14.8,11.2-17.9,15.2-17.9c1.8,0,3.5,0.9,4.5,2.5
		c0-0.3,0-0.5,0-0.5c0.1-1.1,1-2,2.1-2c0.6,0,1.1,0.3,1.5,0.7c0.4,0.4,0.6,1,0.5,1.5c-0.3,6.4-1.2,12.7-2.6,19
		c-0.3,2.1-0.5,3.7-0.6,4.3C256.2,113.4,257.7,115.8,258.6,116.7z"/>
	<path class="st0" d="M145.9,125c-0.1,0-0.3,0-0.3,0.1c-0.7,0.7-0.9,2.7-0.9,3.9c0,0,0,0.1,0,0.1c0,1.8,0.6,3.6,1.6,5.1
		c0.3-1.7,0.5-3.4,0.7-5.1c0.1-1.3-0.1-3.5-0.8-4.2C146.1,125,146,124.9,145.9,125z"/>
</g>
</svg>
