<svg xmlns="http://www.w3.org/2000/svg" viewBox="0 0 203.76 278.74"><defs><style>.cls-1{fill:#002a46;}.cls-2{fill:#003855;}.cls-3{fill:#005062;}</style></defs><title>Asset 6</title><g id="Layer_2" data-name="Layer 2"><g id="Camada_1" data-name="Camada 1"><path class="cls-1" d="M50.3,188.66C43.89,177.81,47,163.85,47,163.85c-7-4.74-20.67-3.71-20.67-3.71C-.77,162.36,0,188.19,0,188.19v66.39c2.56,23.09,26.81,24.16,26.81,24.16h3.85c26.64,0,29.16-25.23,29.16-25.23V203.33S56.7,199.5,50.3,188.66ZM31.13,246.91s-.21.79-1.41.79-1.35-.79-1.35-.79V192.1a1.46,1.46,0,0,1,2.76,0Z"/><path class="cls-1" d="M153.46,189.85c6.41,10.84,3.33,24.8,3.33,24.8,7,4.74,20.67,3.72,20.67,3.72,27.06-2.22,26.29-28.05,26.29-28.05V123.93c-2.56-23.1-26.81-24.17-26.81-24.17H173.1c-26.64,0-29.16,25.23-29.16,25.23v50.18S147.06,179,153.46,189.85Zm19.17-58.26s.21-.78,1.41-.78,1.34.78,1.34.78v54.82a1.37,1.37,0,0,1-1.37,1,1.38,1.38,0,0,1-1.38-1Z"/><path class="cls-2" d="M105.24,182.94a42.4,42.4,0,0,0-8.45,10.29L79.63,173.72V173a2.13,2.13,0,0,0,.9-1.72,2.18,2.18,0,0,0-1.76-2.23,2.39,2.39,0,0,0-2.61,2.58,7.2,7.2,0,0,0,1.46,4s11.6,12.92,13.08,14.72,17.66,20.66,18.51,33.72-4.95,31.77-25.7,35.35c0,0-11.27,2.14-20.83-4.95V207.36s11.91,13.53,13.23,14.86A17.49,17.49,0,0,1,79,225.94,3.1,3.1,0,0,0,78,228a2.52,2.52,0,0,0,2.49,2.76c1.83,0,1.92-1.8,1.92-2.76a7.69,7.69,0,0,0-1.66-5c-1.51-1.7-11.37-12-15.21-16.94s-22.29-25.29-14.35-46.07,29-24,41.25-17.2l.46.25s-3.15,13.9,2.42,24A143.23,143.23,0,0,0,105.24,182.94Z"/><path class="cls-3" d="M98.85,196.38a24.84,24.84,0,0,1,8-11l17.62,20.23v.69a2.09,2.09,0,0,0-.91,1.71,2.18,2.18,0,0,0,1.76,2.23,2.39,2.39,0,0,0,2.61-2.58,7.22,7.22,0,0,0-1.45-4s-11.6-12.92-13.09-14.72-17.65-20.66-18.51-33.72,5-31.77,25.7-35.35c0,0,11.28-2.14,20.84,5V172s-11.91-13.53-13.24-14.86a17.69,17.69,0,0,1-3.11-3.72,3.07,3.07,0,0,0,1-2.08,2.53,2.53,0,0,0-2.5-2.76c-1.82,0-1.92,1.8-1.92,2.76a7.66,7.66,0,0,0,1.67,5c1.5,1.7,11.36,12,15.21,16.94s22.28,25.29,14.34,46.07-29,24-41.24,17.2l-.46-.25s3.15-13.9-2.42-24A142.16,142.16,0,0,0,98.85,196.38Z"/><path class="cls-3" d="M66.86,139.05s-14.52,5.72-19.13,21.77c0,0-4.76-3.27-14.27-3.72,0,0-3.79-2.68-3.79-10.41v-54s-.08-6.87-6.36-6.87S1.8,85.17.6,71.68,6.92,49.82,18.7,49.82H76.59s19.73-.6,19.73,17.33S83.51,85.25,76.59,85.68l-4.06.19a5,5,0,0,0-4.42,3.9c-1.12,3.85-8,29.25-8,29.25s-3,10.38,6.53,13.84l.19.06Z"/><path class="cls-2" d="M129.11,47.43C124.5,33.21,124,28.77,116.68,23.69c0,0-8,5.52-12.26,5.52s-7.49-2.69-9.25-5A21,21,0,0,0,87.61,34.3c-2.11,6.47-4.23,13.51-4.23,13.51s17.55,2.69,16,21.73-20,19-20,19h-4.8s-2.91-.12-3.46,1.87-7.81,27.5-7.81,27.5-3.91,12.55,7.19,12.55H85.9s5.42-.17,7-4.56,3.08-11.45,3.08-11.45H116.6l.85,3s13.32-3,24.21,4a34.72,34.72,0,0,1,5.44-12.23S133.72,61.64,129.11,47.43Zm-21.26,43a1.48,1.48,0,1,1-3,0v-42a1.48,1.48,0,1,1,3,0Z"/><path class="cls-3" d="M126.84,14.47,108.25,25.2a7.78,7.78,0,0,1-10.6-2.84h0a7.79,7.79,0,0,1,2.84-10.6L119.08,1a7.79,7.79,0,0,1,10.6,2.84h0A7.79,7.79,0,0,1,126.84,14.47Z"/></g></g></svg>