<svg xmlns="http://www.w3.org/2000/svg" viewBox="0 0 407.95 278.2"><defs><style>.cls-1{fill:#f7b82c;}.cls-2{fill:#ed8724;}.cls-3{fill:#f2d93b;}.cls-4{fill:#008938;}.cls-5{fill:#fff;opacity:0.12;}</style></defs><title>Asset 23</title><g id="Layer_2" data-name="Layer 2"><g id="Camada_1" data-name="Camada 1"><path class="cls-1" d="M39,253.17a3.19,3.19,0,0,0-.42.3C36.82,254.93,23,265.85,16,257.24,8.59,248,16,241,16,241a21.08,21.08,0,0,0,5.1-9.61c1.31-5.23,12.7-34.44,15.77-49.24A4.38,4.38,0,0,0,31.68,177c-5.14,1.08-12.3,1.59-15.84-2.66C10,167.26-4,150.4,15.45,143.53c0,0,3.36-1.76,9.41,2.43a4.42,4.42,0,0,0,2.41.77c1.91,0,5.19,0,6.41-.84l8.57-6.63a4.36,4.36,0,0,0,1.69-3.6c-.11-3.72.09-11.09,3.26-13.69,4.32-3.53,12.27-9.17,12.27-9.17s6.55-4.46,10.67,0l.75.86a4.37,4.37,0,0,0,6,.6c6-4.62,19.31-13.37,28.49-9,9.46,4.55,9.13,15.32,7.14,21.68a3.72,3.72,0,0,0,2.22,4.62h0a4.34,4.34,0,0,0,3.17,0,21.39,21.39,0,0,1,8.09-1.31,4.37,4.37,0,0,0,3.27-1.37,31.11,31.11,0,0,1,2.82-2.68,4.37,4.37,0,0,0,.69-6.15c-4.76-5.94-11.47-17.24-2.06-25.41a4.82,4.82,0,0,1,.51-.38c1.48-.94,8.13-4.66,14.75-.1a3.43,3.43,0,0,1,.64.56c.93,1,4.95,4.14,15.08-.25,9.69-4.2,30.17-13.33,37.07-16.41a4.38,4.38,0,0,0,2.56-3.45c.31-2.49,1-6.21,2.52-7.59L216,55.46l.25-.26c.81-.91,6.49-6.69,15.19-1.25a12.59,12.59,0,0,1,3.85,3.32,4.34,4.34,0,0,0,5.35,1.25c12.57-6,52.2-24.71,70.05-28.59A4.35,4.35,0,0,0,314,26.87c.62-2.17,1.78-5.1,3.55-6.45,3.78-2.87,15.11-12.92,27.64-7.84a12.33,12.33,0,0,1,3.65,2.95,4.36,4.36,0,0,0,4.61,1.52c10.42-2.9,42-11,49-4.27A18.49,18.49,0,0,1,407.94,27a15,15,0,0,1-3.13,8.77c-3.65,4.74-11.06,13.36-18.07,15.46a8.56,8.56,0,0,1-7.93-1.9,4.38,4.38,0,0,0-3.82-.85l-7.18,1.78a4.39,4.39,0,0,0-1.51,7.84c5.58,3.85,10.09,11.63,8.74,27.05-3.13,35.81-22.21,48.2-24,50.23-1.67,1.86-12.72,6.31-20.53,3.79a4.33,4.33,0,0,0-4.07.77c-2.84,2.35-8.71,6-16,4.23a4.4,4.4,0,0,0-4,1c-3.71,3.37-12.84,10-22,3.7a4.38,4.38,0,0,0-6.34,1.43c-2.05,3.65-6.33,7.6-15.26,7a4.31,4.31,0,0,0-3.06,1c-2.05,1.7-6.69,4.55-14,3.49a4.35,4.35,0,0,0-3.68,1.27,17.84,17.84,0,0,1-19.22,4.4,4.38,4.38,0,0,0-5.74,3.36c-3.49,19.23-17,82.47-46.76,100.35a62.66,62.66,0,0,1-9.77,4.85c-23.34,9-47.35-11.38-42.62-36,2.63-13.63,11.72-31.28,36-50.59a1.07,1.07,0,0,0-.14-1.78c-.36-.18-.86-.13-1.5.45,0,0-10.09,10.3-20.43,3.81a4.31,4.31,0,0,0-5.13.44,10.66,10.66,0,0,1-10.4,2.53,4.36,4.36,0,0,0-5.09,2.36c-1.88,3.94-6,9.31-14.48,8.9a4.33,4.33,0,0,0-3.56,1.6c-2.13,2.59-6.59,6.91-12,5.76a4.58,4.58,0,0,0-3.88,1A14,14,0,0,1,63,217.26a4.36,4.36,0,0,0-5.79,3.45c-1.35,8.56-4.27,23.27-8.66,26.2C43.24,250.47,39.89,252.61,39,253.17Z"/><path class="cls-2" d="M36.66,248.46l-.43.31c-1.77,1.46-15.58,12.37-22.55,3.76-7.45-9.21,0-16.27,0-16.27a21,21,0,0,0,5.1-9.61c1.31-5.23,12.7-34.44,15.77-49.24a4.38,4.38,0,0,0-5.22-5.14c-5.15,1.08-12.3,1.58-15.84-2.66-5.88-7.06-19.8-23.92-.4-30.78,0,0,3.37-1.77,9.42,2.42a4.34,4.34,0,0,0,2.41.77c1.91,0,5.19,0,6.41-.84l8.56-6.63a4.36,4.36,0,0,0,1.7-3.6c-.11-3.71.09-11.09,3.26-13.68,4.31-3.53,12.27-9.17,12.27-9.17s6.55-4.46,10.67,0l.74.86a4.4,4.4,0,0,0,6,.6c6-4.63,19.31-13.38,28.49-9,9.45,4.55,9.13,15.32,7.14,21.69a3.72,3.72,0,0,0,2.21,4.62h0a4.44,4.44,0,0,0,3.17,0,21.19,21.19,0,0,1,8.09-1.31,4.43,4.43,0,0,0,3.27-1.37,28.56,28.56,0,0,1,2.82-2.68,4.39,4.39,0,0,0,.69-6.15C125.66,109.47,119,98.17,128.36,90a3.66,3.66,0,0,1,.5-.38c1.48-.94,8.14-4.66,14.76-.1a3.78,3.78,0,0,1,.64.55c.92,1,5,4.14,15.08-.25,9.69-4.2,30.16-13.32,37.07-16.41A4.36,4.36,0,0,0,199,70c.31-2.49,1-6.2,2.52-7.58l12.19-11.62c.09-.09.18-.17.26-.26.81-.91,6.49-6.69,15.19-1.26A12.84,12.84,0,0,1,233,52.57a4.33,4.33,0,0,0,5.34,1.25c12.57-6,52.21-24.72,70.06-28.59a4.35,4.35,0,0,0,3.26-3.07c.61-2.17,1.78-5.1,3.55-6.44C319,12.85,330.3,2.79,342.82,7.88a12.15,12.15,0,0,1,3.65,3,4.4,4.4,0,0,0,4.61,1.52c10.43-2.9,42-11,49-4.28a18.49,18.49,0,0,1,5.52,14.2A15,15,0,0,1,402.46,31c-3.65,4.74-11.06,13.35-18.07,15.46a8.57,8.57,0,0,1-7.94-1.91,4.36,4.36,0,0,0-3.81-.85l-7.18,1.79A4.38,4.38,0,0,0,364,53.36C369.53,57.22,374,65,372.69,80.41c-3.14,35.81-22.22,48.2-24.05,50.24-1.66,1.85-12.71,6.3-20.52,3.78a4.31,4.31,0,0,0-4.07.78c-2.84,2.34-8.71,6-16,4.23a4.39,4.39,0,0,0-4,1c-3.71,3.38-12.84,10-22,3.7a4.39,4.39,0,0,0-6.34,1.44c-2,3.64-6.33,7.6-15.27,7a4.36,4.36,0,0,0-3.06,1c-2,1.7-6.68,4.56-13.95,3.5a4.32,4.32,0,0,0-3.69,1.27,17.82,17.82,0,0,1-19.21,4.39,4.38,4.38,0,0,0-5.74,3.36c-3.49,19.23-17,82.48-46.76,100.36a63.9,63.9,0,0,1-9.77,4.84c-23.35,9-47.35-11.38-42.62-36,2.63-13.64,11.72-31.28,36-50.59a1.06,1.06,0,0,0-.13-1.78c-.37-.18-.86-.14-1.5.45,0,0-10.09,10.29-20.43,3.81a4.29,4.29,0,0,0-5.13.44,10.69,10.69,0,0,1-10.4,2.53,4.34,4.34,0,0,0-5.09,2.35c-1.88,3.94-6,9.31-14.49,8.9a4.37,4.37,0,0,0-3.56,1.6c-2.12,2.6-6.58,6.92-12,5.77a4.56,4.56,0,0,0-3.88.95,14,14,0,0,1-14.28,2.77A4.37,4.37,0,0,0,54.89,216c-1.36,8.57-4.27,23.28-8.67,26.21C40.89,245.76,37.54,247.9,36.66,248.46Z"/><path class="cls-3" d="M33.52,243a4.56,4.56,0,0,0-.42.31c-1.77,1.46-15.59,12.38-22.55,3.76-7.45-9.21,0-16.27,0-16.27a21.05,21.05,0,0,0,5.09-9.6c1.31-5.23,12.7-34.45,15.77-49.24a4.38,4.38,0,0,0-5.22-5.15c-5.14,1.08-12.3,1.59-15.84-2.66-5.88-7.06-19.8-23.92-.39-30.78,0,0,3.36-1.77,9.41,2.42a4.34,4.34,0,0,0,2.41.77c1.91,0,5.19,0,6.41-.84l8.57-6.62a4.4,4.4,0,0,0,1.7-3.61c-.12-3.71.08-11.09,3.26-13.68C46,108.25,54,102.61,54,102.61s6.56-4.46,10.67,0l.75.86a4.39,4.39,0,0,0,6,.6c6-4.63,19.31-13.37,28.49-9,9.46,4.55,9.13,15.32,7.14,21.69a3.73,3.73,0,0,0,2.22,4.62h0a4.41,4.41,0,0,0,3.18,0,21.11,21.11,0,0,1,8.09-1.31,4.4,4.4,0,0,0,3.26-1.37,28.56,28.56,0,0,1,2.82-2.68,4.39,4.39,0,0,0,.7-6.15c-4.77-5.94-11.48-17.24-2.07-25.41a3.75,3.75,0,0,1,.51-.38c1.48-.94,8.13-4.66,14.76-.1a4.77,4.77,0,0,1,.64.55c.92,1,4.94,4.14,15.07-.25,9.69-4.2,30.17-13.32,37.07-16.4a4.39,4.39,0,0,0,2.56-3.46c.31-2.49,1-6.2,2.52-7.58l12.2-11.62a3.07,3.07,0,0,0,.25-.26c.81-.91,6.49-6.69,15.19-1.26a12.71,12.71,0,0,1,3.85,3.33,4.34,4.34,0,0,0,5.35,1.25c12.57-6,52.2-24.72,70.05-28.59a4.35,4.35,0,0,0,3.26-3.06c.62-2.17,1.78-5.11,3.55-6.45,3.79-2.87,15.11-12.93,27.64-7.84a12.15,12.15,0,0,1,3.65,2.95A4.4,4.4,0,0,0,348,6.86c10.42-2.9,42-11,49-4.28a18.49,18.49,0,0,1,5.52,14.2,14.88,14.88,0,0,1-3.13,8.77c-3.65,4.74-11.06,13.36-18.07,15.46a8.55,8.55,0,0,1-7.93-1.91,4.35,4.35,0,0,0-3.82-.84L362.32,40a4.39,4.39,0,0,0-1.51,7.84c5.58,3.85,10.09,11.62,8.74,27-3.13,35.81-22.21,48.2-24,50.24-1.67,1.85-12.72,6.3-20.53,3.79a4.3,4.3,0,0,0-4.07.77c-2.84,2.34-8.71,6-16,4.23a4.39,4.39,0,0,0-4,1c-3.7,3.38-12.84,10-22,3.71a4.38,4.38,0,0,0-6.34,1.43c-2,3.64-6.33,7.6-15.26,7a4.35,4.35,0,0,0-3.06,1c-2.05,1.71-6.69,4.56-14,3.5a4.29,4.29,0,0,0-3.68,1.27,17.82,17.82,0,0,1-19.22,4.39,4.39,4.39,0,0,0-5.74,3.36c-3.48,19.24-17,82.48-46.76,100.36a63.45,63.45,0,0,1-9.77,4.84c-23.34,9-47.35-11.38-42.61-36,2.62-13.63,11.72-31.28,36-50.59a1.07,1.07,0,0,0-.14-1.78c-.36-.18-.86-.14-1.5.45,0,0-10.09,10.29-20.43,3.81a4.29,4.29,0,0,0-5.13.44,10.68,10.68,0,0,1-10.4,2.53,4.36,4.36,0,0,0-5.09,2.36c-1.87,3.93-6,9.3-14.48,8.89a4.36,4.36,0,0,0-3.56,1.6c-2.13,2.6-6.59,6.92-12,5.77a4.57,4.57,0,0,0-3.88.95,14,14,0,0,1-14.28,2.78,4.36,4.36,0,0,0-5.79,3.44c-1.35,8.57-4.27,23.28-8.66,26.21C37.75,240.28,34.4,242.41,33.52,243Z"/><path class="cls-4" d="M13.16,142.05c1.17.57,12.38,5.77,20.12-.21l12.51-9.67a1.7,1.7,0,0,0,.67-1.37V118.29s0-1.21,2.7-2.77l.09,0,8.6-5.8a1.62,1.62,0,0,1,1.28-.27c1,.21,2.45,1.24,1.61,5.58a.77.77,0,0,0,0,.15l-.58,6s0,1.64,1.93.09c0,0,33.18-30.15,36.84-14.46,0,0,3.28,13.28-13.19,22.06-.27.14-.29-.53-.25-.83.16-1.13.56-5.16-2.49-3-3.41,2.36-18.84,13.37-26.27,17a1.73,1.73,0,0,0-.94,1.25c-1.52,8.59-13.89,77.89-18.18,87.05a2.46,2.46,0,0,1-.91,1L19.56,242.06a1.79,1.79,0,0,1-.34.15,2.37,2.37,0,0,1-.59.1,3.34,3.34,0,0,1-2.67-1.2,3.84,3.84,0,0,1-1.17-3.21,1.53,1.53,0,0,1,.41-.69A40.79,40.79,0,0,0,23.87,222c3.13-9.57,19-54.83,19.75-70.67a1.73,1.73,0,0,0-2.73-1.48q-.37.25-.81.6s-11,8.22-17.39,8.55c0,0-8.41,1.7-14.35-11.22a2,2,0,0,1-.12-.34c-.3-1.35-1.2-6.94,4.94-5.38"/><path class="cls-4" d="M186.67,104.81c-4.69-5-4.79.63-4.79,1.18v.09c-.79,6.6-3.27,4.65-3.27,4.65-4.61-3.49-8.51-2.82-8.86-2.75h-.06c-26.42,2.44-26.51,47.08-26.49,49.87a.86.86,0,0,1,0,.27c-2.35,5.94-4.49,7.45-5.49,7.83a.7.7,0,0,1-.9-.42c-2.16-5.9,8.53-37.58,8.53-37.58,1.83-5.74-1-7-1-7-8.23-6.66-21.4,12.8-21.63,10.15a2.74,2.74,0,0,0-2.48-2.74,10.12,10.12,0,0,0-8.33,3.05.69.69,0,0,1-.92.08c-3.69-2.71-8.3-1-8.3-1-7.84,2.45-6.3,7.45-6.3,7.45a1.46,1.46,0,0,0,.59.76.68.68,0,0,1,.32.59c0,15.69-9.58,34.27-9.92,34.92l0,.05c-1.72,4-2.91,5.58-3.65,6.2a.7.7,0,0,1-1.12-.41c-1.18-6.71,8.86-32.84,8.86-32.84,1.26-3.57-2.57-3.59-4.12-3.47a.7.7,0,0,1-.73-.54c-1.2-5-6.63-3.68-7-3.57h0C53.54,147.7,54,189.79,54,189.79c.24,9.76,7,10,7.62,10h.09c4.4-.53,7.66-3.85,8.86-5.25a.7.7,0,0,1,1-.06,6,6,0,0,0,5.15,1.17c3.94-.66,9-8.84,9.43-9.55l0-.1c.23-.57,2.39-5.7,2.51-1.87S91.91,188,92.31,188h.09c5.68-.56,8.42-12.57,8.58-13.28a.15.15,0,0,1,0-.07c.78-7.43,8.81-32.9,9.19-34.13l0-.09c2-4.19,3.58-3.22,4.07-2.78a.66.66,0,0,1,.21.31c1.4,5.05-5.17,26-5.41,26.72v0c-2.62,10.44,2.8,12.2,3.73,12.42a.69.69,0,0,0,.25,0c4.47-.48,5.31-6.77,5.31-6.77,5.57-29.67,9.57-35.12,10.12-35.76a.66.66,0,0,0,.12-.17c1.29-2.8,2.11-1.37,2.11-1.37.63,2.06-2.16,10-2.16,10-3,8.49-3.27,22.06-3.27,22.06-.52,9.93,8.63,10.45,8.63,10.45,5.17,1.43,10.06-5.93,11.48-8.29a.69.69,0,0,1,1-.18c6.09,5,10.61,3.38,10.61,3.38,24.66-8.25,24.86-45.48,24.83-48.62a.81.81,0,0,1,.12-.4c7.51-11.28,5.13-16,4.76-16.59A.31.31,0,0,0,186.67,104.81ZM66.49,183.62c-1.24-18.38,7.23-29.5,10.29-32.88a.7.7,0,0,1,1.22.42c1.53,18.41-7.16,29.53-10.3,32.9A.7.7,0,0,1,66.49,183.62Zm91.59-26.7c-.62-3-1.61-12.64,4.88-30.34a.71.71,0,0,1,1.12-.3c1,.84,2.73,2.15,4,2.17a.7.7,0,0,1,.66.79c-.53,4.47-3,22.43-9.46,28.08A.71.71,0,0,1,158.08,156.92Z"/><path class="cls-4" d="M387.44,7.54c-7.38.9-38.92,6.76-47.35,9.38a1.15,1.15,0,0,1-1.49-1.14c.09-3.14-.66-10-10.13-6.88l-.15.06c-1.33.63-12.56,5.76-11.45,9.55,0,0,.16,1.78,3.25,2.11a1.16,1.16,0,0,1,1.06,1.15h0a1.16,1.16,0,0,1-.8,1.11c-7.08,2.26-59.43,19.3-95.23,38.73a1.14,1.14,0,0,1-1.66-1.2c.64-3.82,1-10.85-4.94-10.94a1.2,1.2,0,0,0-.81.3L205.13,61.05s-1,.59-1.18,4.12c-.14,2.48-.28,4.57-.35,5.59a1.14,1.14,0,0,1-.66,1L158,92.79l-.08,0c-.89.33-15.62,5.7-22-2.34a1.19,1.19,0,0,0-.45-.35c-1.54-.62-8.78-3-5.8,9,3.33,13.33,17.45,10.78,23.92,8.42s45.87-18,45.87-18,2-1.16,1.81,1.49-16.61,87.93-25.86,109.86c-8.66,20.54-13.19,33.16-31.25,40.1a8.26,8.26,0,0,1-10.93-6.49c-.93-5.78,2-16,16.28-33.84l.06-.07c1-1.06,25.53-26.38,28.38-28.15a.31.31,0,0,0,.09-.07,2.38,2.38,0,0,0,.86-2.67.93.93,0,0,0-.29-.36c-.85-.66-4.62-2.43-14.47,6.44-.41.37-.83.7-1.3,1.06-6.84,5.22-61.49,47.06-36.88,77.81a14.05,14.05,0,0,0,6,4.41c7.6,3.38,32.75,6.16,53.16-37.38.79-1.68,1.63-3.34,2.28-5.09,2.87-7.77,11.25-31.07,12.88-42.73,0,0,0,0,0-.05l18.69-91.92a1.16,1.16,0,0,1,.67-.82c6.89-3,76.84-33.16,93.26-36.7a1.15,1.15,0,0,1,1.35,1.45c-2.53,8.7-11.75,44.59-12.85,50.54-.78,4.25-4.28,26.9-12.71,26.11,0,0-5.1,0,6.07-26.44v0c.39-.72,15.4-28.44.11-27.05l-.23.05c-1.09.36-9.8,3.3-13.65,6.69a1.12,1.12,0,0,1-1.45,0,6.3,6.3,0,0,0-4.77-1.45h0c-.48.08-12.9,2.28-11.94,8.43,0,0,.84,6-.05,9a.44.44,0,0,0,0,.1c-.26,1.45-6,33.93-10,37l-.2.17c-.6.71-4.25,4.85-5.6,3.14-1.47-1.86,4.09-31.22,7.72-38.37a.33.33,0,0,1,.06-.1c.43-.62,5.14-7.5-2.35-7.31a1.26,1.26,0,0,0-.27,0c-1.28.39-11.35,3.6-11.63,8,0,0-.49,7.43-1.66,11.26v0c-.15.77-6,30.7-11.46,33.41,0,0-.78,1.16-.79-1.61,0,0,0-.07,0-.11.13-1.16,2.5-21.93,4.6-29.75,0,0,2.9-12.9,5-15a1,1,0,0,0,.25-.43c.29-1,.86-4.22-3.93-4l-.18,0c-1,.21-9.14,2.26-11,9,0,0-8,26-6.86,46.19,0,0,1,5.92,8.1,6.94,0,0,5.79.74,12.83-7.71a1.15,1.15,0,0,1,1.45-.26,8.7,8.7,0,0,0,7.09.67l.12,0a19.5,19.5,0,0,0,10.15-5.49.86.86,0,0,1,1.43-.12c.9,1,2.43,3,8.46-.69.09-.05,2.54-1.07,3.56-10,0,0,4.05-39.54,16.16-44.24a1.12,1.12,0,0,1,1.53.88c.13,1-.15,2.79-1.61,6.24,0,0-15.07,32.08-.14,42.25a1.09,1.09,0,0,0,.31.14c1.36.39,10.6,2.52,15.43-8.93a1.14,1.14,0,0,1,2-.22,8.23,8.23,0,0,0,7.85,3.62h.08a15.56,15.56,0,0,0,10.65-8.9,1.14,1.14,0,0,1,1.85-.31,11.09,11.09,0,0,0,10.19,3.36,1.23,1.23,0,0,1,.27,0c1.54.09,16.18,0,27.31-34.1v0c.2-.76,8.23-31.77-7.85-34.1S327.13,67.55,326.87,68.1v0c-.32.59-11,20.47-8.47,40.25a1,1,0,0,1-.1.61c-.86,1.69-5.28,10-6.52,3.24-1.3-7,16.67-66.08,18.64-72.55a1.13,1.13,0,0,1,.75-.75c4.47-1.36,33.67-10.19,44.11-10.77a1.11,1.11,0,0,1,1.15.87c.32,1.52,1.25,4.33,3.57,3.61,3.14-1,5.07-5.77,11.17-10.2S395.48,6.56,387.44,7.54ZM332.88,85.43C339,63.21,347,65,347,65c7.58-1.57-8.1,47.31-13.46,42.87S332.88,85.43,332.88,85.43Z"/><path class="cls-5" d="M402.45,17a20.81,20.81,0,0,0-1.1-7.33q-.15-.44-.33-.87v0c-.12-.28-.24-.56-.37-.83a.54.54,0,0,0-.05-.11c-.12-.25-.25-.51-.39-.76l-.1-.18c-.13-.23-.26-.46-.4-.69l-.18-.26-.4-.6c-.08-.12-.18-.24-.27-.36s-.24-.33-.38-.49-.27-.32-.41-.48-.2-.25-.31-.37-.51-.53-.79-.8l0,0a6.72,6.72,0,0,0-1.59-1.08,10,10,0,0,0-1.4-.55c-.4-.13-.81-.24-1.25-.34A17.38,17.38,0,0,0,391,.49l-.39-.06c-.85-.1-1.75-.17-2.69-.2h-.11c-1.53,0-3.18,0-4.9.09C370.73,1,354.79,5.15,348,7.06a4.39,4.39,0,0,1-1.29.16,4.29,4.29,0,0,1-.94-.15l-.3-.07a4.46,4.46,0,0,1-2.08-1.46A10.72,10.72,0,0,0,342,4.14a12.82,12.82,0,0,0-2.28-1.55,18.93,18.93,0,0,0-6.88-1.41,20.13,20.13,0,0,0-3.49.25c-.53.09-1.05.19-1.57.31a25,25,0,0,0-3.28,1,31.33,31.33,0,0,0-3.65,1.67A48.13,48.13,0,0,0,313.88,9c-.73.56-1.34,1.05-1.83,1.42a6.12,6.12,0,0,0-1.12,1.15l-.27.38a15,15,0,0,0-1.6,3.18c-.11.3-.21.6-.3.89s-.18.57-.26.85a5.31,5.31,0,0,1-.2.56,4.42,4.42,0,0,1-1.95,2.1,4.2,4.2,0,0,1-1.11.4C298,21.51,287.14,25.53,276,30.15c-1.72.71-3.45,1.43-5.17,2.17l-2.58,1.1c-13.71,5.91-26.76,12.09-33,15.11a4.6,4.6,0,0,1-1.33.39l-.14,0a4.32,4.32,0,0,1-2.78-.65,4.05,4.05,0,0,1-1.1-1,10.43,10.43,0,0,0-1-1.11c-.1-.11-.21-.22-.32-.32l-.65-.57-.6-.47A12.8,12.8,0,0,0,226,44a15.5,15.5,0,0,0-4.56-2l-.7-.14a11.23,11.23,0,0,0-1.95-.18,10.74,10.74,0,0,0-3,.44l-.56.19c-.22.08-.44.16-.64.25l-.12.06a11.07,11.07,0,0,0-3.66,2.62l-.25.26-12.2,11.62c-1,.95-1.69,3-2.1,5-.12.54-.21,1.09-.29,1.6-.05.34-.09.67-.13,1a4.43,4.43,0,0,1-.52,1.6,5.26,5.26,0,0,1-.66.89,4.53,4.53,0,0,1-1.38,1h0l-3.36,1.5-1.23.54-1.16.52-1,.43-1.26.57c-.57.24-1.14.5-1.72.76l-2.9,1.29-2.21,1-2.68,1.19-2.71,1.2-2.7,1.2-2.67,1.18-2.59,1.14-1.26.55L162,82l-1.67.73-2.15.94-1.94.84c-6.33,2.75-10.28,2.54-12.57,1.76a9.4,9.4,0,0,1-.93-.38,5.91,5.91,0,0,1-.9-.55c-.07,0-.12-.09-.18-.13s-.2-.17-.29-.24l-.11-.11-.09-.09a3.85,3.85,0,0,0-.65-.56,14.28,14.28,0,0,0-1.85-1.08c-.29-.13-.57-.24-.85-.35s-.66-.24-1-.34-.72-.18-1.08-.25-.51-.09-.76-.12-.72-.07-1.07-.08h0a12.65,12.65,0,0,0-1.64.06l-.52.06c-.52.08-1,.18-1.49.29l-.9.26a16.55,16.55,0,0,0-1.58.59c-.46.21-.87.41-1.21.6l-.45.25-.33.21-.12.09a2.82,2.82,0,0,0-.39.29c-.28.24-.54.48-.79.73l-.23.24c-.17.17-.33.33-.48.5l-.24.29q-.21.24-.39.48l-.23.3-.33.48-.2.31-.29.49c-.06.1-.11.2-.16.3s-.19.36-.28.55a2.56,2.56,0,0,1-.11.24c-.12.27-.22.54-.32.8,0,0,0,0,0,.06-.08.25-.16.5-.23.75,0,.1,0,.19-.07.28s-.09.36-.12.54l-.06.32c0,.17-.06.34-.08.51s0,.22,0,.33,0,.33,0,.5,0,.22,0,.33v.51c0,.11,0,.21,0,.31s0,.38,0,.57,0,.17,0,.26c0,.27,0,.54.08.81l0,.15c0,.23.06.45.1.67l.06.3c0,.17.07.35.11.52l.09.33.12.48.1.34.15.46a3.38,3.38,0,0,0,.11.34c0,.16.11.32.17.47a3,3,0,0,0,.11.32l.21.51c0,.09.07.18.11.27q.15.38.33.75c0,.08.07.16.11.25s.16.34.25.5l.16.33.21.41.19.35.21.38.2.34.21.36.2.34.22.36.21.32.22.35.21.32c.11.17.22.33.34.49l.07.11h0c.63.91,1.26,1.74,1.86,2.5a4.28,4.28,0,0,1,.93,3.15h0a4.35,4.35,0,0,1-.48,1.61v0l-.2.34,0,0-.21.29,0,.07a2.77,2.77,0,0,1-.24.25l-.06.08-.3.27,0,0c-.4.33-.78.67-1.15,1s-.74.71-1.07,1-.42.43-.6.63h0a5,5,0,0,1-.69.6,4.5,4.5,0,0,1-2.58.77c-.44,0-.86,0-1.28,0l-.38,0-.82,0-.4,0-.74.09-.33,0c-.31,0-.62.09-.9.15l-.43.09c-.14,0-.28,0-.41.09l-.48.11-.24.07-.5.14h0c-.45.14-.84.28-1.17.41a4.41,4.41,0,0,1-3.18,0h0A3.73,3.73,0,0,1,107,117a22.85,22.85,0,0,0,.32-13.07h0c-.07-.22-.14-.43-.22-.65L107,103c0-.12-.09-.25-.14-.37l-.14-.32-.17-.36-.15-.32-.19-.35c0-.1-.11-.2-.17-.3a2.5,2.5,0,0,0-.21-.35,2.82,2.82,0,0,0-.18-.29c-.08-.13-.16-.25-.25-.37s-.11-.17-.17-.26l-.36-.46a1.71,1.71,0,0,1-.11-.14c-.16-.2-.33-.39-.51-.58s-.12-.13-.19-.19-.24-.25-.37-.37l-.23-.22c-.12-.11-.24-.22-.37-.32a2.75,2.75,0,0,0-.26-.22l-.39-.3-.28-.21c-.14-.1-.28-.2-.43-.29l-.28-.19-.51-.3-.25-.15-.81-.42a12.41,12.41,0,0,0-3.61-1.07c-.31,0-.63-.08-1-.1a17.73,17.73,0,0,0-1.93,0l-1,.08q-1,.1-2,.3a26.91,26.91,0,0,0-3,.79c-.67.21-1.33.45-2,.71s-1.31.53-2,.83-1.28.6-1.91.92-1.24.65-1.85,1-1.19.68-1.77,1-1.14.7-1.68,1l-.79.53q-.94.63-1.8,1.23l-.79.57-.91.67-.59.45a3.92,3.92,0,0,1-.72.45,4.37,4.37,0,0,1-5.26-1l-.66-.76-.09-.1-.45-.45c-.21-.18-.43-.35-.64-.5a5.78,5.78,0,0,0-2.31-.93,6.78,6.78,0,0,0-1.34-.1,8.08,8.08,0,0,0-1.31.13l-.42.08a12.27,12.27,0,0,0-2.24.73l-.31.14c-.3.14-.57.28-.8.4-.53.29-.85.5-.85.5l-2.19,1.57-.55.4-.85.62-.58.42-2.19,1.61-.26.19-.76.57-.2.15-.88.66-.19.15c-1.31,1-2.57,2-3.62,2.83a8.5,8.5,0,0,0-2.45,4.49,19.38,19.38,0,0,0-.41,1.93c-.11.66-.19,1.33-.25,2a43.15,43.15,0,0,0-.15,5.27,3.13,3.13,0,0,1,0,.53,4.24,4.24,0,0,1-.21,1,4.4,4.4,0,0,1-.44.93l-.29.42a5.11,5.11,0,0,1-.74.73l-8.57,6.62-.06,0a3.61,3.61,0,0,1-.71.31,14.72,14.72,0,0,1-3.55.48H21.78a3.47,3.47,0,0,1-.64-.06,4.12,4.12,0,0,1-1.22-.38,4.37,4.37,0,0,1-.55-.32,15.32,15.32,0,0,0-5.64-2.61,6.42,6.42,0,0,0-.7-.12,7.5,7.5,0,0,0-1.2-.07,5.49,5.49,0,0,0-1.52.24,2.47,2.47,0,0,0-.35.13c-.4.14-.79.29-1.16.44l-.28.12c-.35.14-.69.29-1,.44l0,0c-.34.16-.66.33-1,.5l-.24.12-.81.48-.07,0-.8.54-.19.14-.64.5-.08.07c-.22.19-.43.38-.63.58l-.15.15c-.17.17-.34.35-.49.52l-.08.09c-.17.2-.33.41-.48.62l-.11.15a6.49,6.49,0,0,0-.36.55l-.06.1c-.13.22-.24.43-.35.65l-.07.16q-.13.28-.24.57l-.05.12c-.08.22-.15.44-.22.67a1.24,1.24,0,0,1,0,.16c0,.19-.09.39-.13.59l0,.13c0,.23-.08.46-.1.69,0,.05,0,.1,0,.15,0,.21,0,.41,0,.62v.13q0,.36,0,.72a.66.66,0,0,0,0,.14c0,.21,0,.42,0,.63,0,0,0,.09,0,.14,0,.24.06.49.1.73a.51.51,0,0,1,0,.13c0,.21.08.43.13.65l0,.13c.05.26.12.51.18.76l0,.09c.06.23.13.46.2.69a.56.56,0,0,1,0,.12l.27.77,0,0c.09.24.18.48.28.72a1.17,1.17,0,0,0,0,.11c.1.26.22.52.33.78h0c.11.25.23.51.36.76l0,.09c.25.52.53,1,.81,1.54l0,.07c.29.51.59,1,.9,1.53l0,0c.32.52.65,1,1,1.52h0a87.63,87.63,0,0,0,5.43,7.06c3.54,4.25,10.7,3.74,15.84,2.66a4.38,4.38,0,0,1,5.22,5.15c-1.65,7.94-5.69,20-9.29,30.33C77.75,169.72,261.49,65,398.1,27.3l1.22-1.55A15,15,0,0,0,402.45,17Z"/></g></g></svg>