<?xml version="1.0" encoding="utf-8"?>
<!-- Generator: Adobe Illustrator 23.0.1, SVG Export Plug-In . SVG Version: 6.00 Build 0)  -->
<svg version="1.1" id="Layer_1" xmlns="http://www.w3.org/2000/svg" xmlns:xlink="http://www.w3.org/1999/xlink" x="0px" y="0px"
	 viewBox="0 0 408 278.2" style="enable-background:new 0 0 408 278.2;" xml:space="preserve">
<style type="text/css">
	.st0{fill:#FFFFFF;}
</style>
<title>Asset 23</title>
<g>
	<path class="st0" d="M110.2,122.3c-0.6,1.9,0.4,3.9,2.2,4.6c0.1,0,0.1,0,0.2,0c1.5-4.9,2.1-12.3-2-17.5
		C111.9,113.8,111.3,118.7,110.2,122.3z"/>
	<path class="st0" d="M130.4,115.4c-1-1.2-2.1-2.7-3.1-4.3c1,2.6,2.5,5.1,4,7.1C131.4,117.2,131.1,116.2,130.4,115.4z"/>
	<path class="st0" d="M31.7,177c0.6-0.1,1.2-0.1,1.8,0c0.4,0.1,0.8,0.2,1.1,0.4c0.5-2.4-1.1-4.7-3.4-5.1c-0.6-0.1-1.2-0.1-1.8,0
		c-5.2,1.1-12.3,1.6-15.8-2.7c-1.9-2.3-4.6-5.5-6.8-9.2c2.1,5.4,6.5,10.7,9.1,13.9C19.4,178.6,26.5,178.1,31.7,177z"/>
	<path class="st0" d="M372.7,80.4c-3.1,35.8-22.2,48.2-24,50.2c-1.7,1.8-12.7,6.3-20.5,3.8c-1.4-0.5-2.9-0.2-4.1,0.8
		c-2.8,2.3-8.7,6-16,4.2c-1.4-0.4-2.9,0-4,1c-3.7,3.4-12.8,10-22,3.7c-2-1.4-4.7-0.9-6.1,1.1c-0.1,0.1-0.2,0.2-0.2,0.4
		c-2,3.6-6.3,7.6-15.3,7c-1.1-0.1-2.2,0.3-3.1,1c-2,1.7-6.7,4.6-14,3.5c-1.4-0.2-2.7,0.3-3.7,1.3c-4.9,5.2-12.5,6.9-19.2,4.4
		c-2.3-0.8-4.8,0.4-5.6,2.7c-0.1,0.2-0.1,0.4-0.2,0.7c-3.5,19.2-17,82.5-46.8,100.4c-3.1,1.9-6.4,3.5-9.8,4.8
		c-15.4,5.9-31.1-0.9-38.6-13.3c6.1,15.3,23.7,24.7,40.9,18c3.4-1.3,6.7-3,9.8-4.8c29.8-17.9,43.3-81.1,46.8-100.4
		c0-0.2,0.1-0.4,0.2-0.7c0.8-2.3,3.3-3.5,5.6-2.7c6.7,2.5,14.3,0.8,19.2-4.4c1-1,2.3-1.4,3.7-1.3c7.3,1.1,12-1.8,14-3.5
		c0.9-0.7,1.9-1.1,3.1-1c8.9,0.6,13.2-3.4,15.3-7c0.1-0.1,0.2-0.3,0.2-0.4c1.4-2,4.1-2.4,6.1-1.1c9.2,6.3,18.3-0.3,22-3.7
		c1.1-1,2.6-1.4,4-1c7.3,1.8,13.2-1.9,16-4.2c1.1-0.9,2.7-1.2,4.1-0.8c7.8,2.5,18.9-1.9,20.5-3.8c1.8-2,20.9-14.4,24-50.2
		c0.9-10.6-0.9-17.6-4-22.2C372.6,67.2,373.3,72.9,372.7,80.4z"/>
	<path class="st0" d="M116.4,194.9c3.7,1.1,7.6,0.1,10.4-2.5c1.4-1.3,3.5-1.4,5.1-0.4c3.2,2,6.3,2.4,9.1,2c3.2-3,6.7-6.1,10.6-9.2
		c0.5-0.4,0.6-1,0.2-1.5c-0.1-0.1-0.2-0.2-0.3-0.3c-0.4-0.2-0.9-0.1-1.5,0.5c0,0-10.1,10.3-20.4,3.8c-1.6-1-3.7-0.8-5.1,0.4
		c-2.8,2.6-6.7,3.6-10.4,2.5c-2-0.6-4.2,0.4-5.1,2.3c-1.9,3.9-6,9.3-14.5,8.9c-1.4-0.1-2.7,0.5-3.6,1.6c-2.1,2.6-6.6,6.9-12,5.8
		c-1.4-0.3-2.8,0.1-3.9,1c-3.9,3.5-9.4,4.6-14.3,2.8c-2.3-0.8-4.8,0.3-5.6,2.6c-0.1,0.3-0.2,0.6-0.2,0.9c-1.4,8.6-4.3,23.3-8.7,26.2
		c-5.3,3.6-8.7,5.7-9.6,6.3l-0.4,0.3c-1.8,1.5-15.6,12.4-22.5,3.8c-0.2-0.3-0.4-0.5-0.6-0.8c0.5,1.7,1.4,3.5,2.9,5.5
		c7,8.6,20.8-2.3,22.6-3.8c0.1-0.1,0.3-0.2,0.4-0.3c0.9-0.6,4.2-2.7,9.5-6.3c4.4-2.9,7.3-17.6,8.7-26.2c0-0.3,0.1-0.6,0.2-0.8
		c0.8-2.3,3.3-3.4,5.6-2.6c4.9,1.9,10.5,0.8,14.4-2.8c1.1-0.9,2.5-1.3,3.9-1c5.4,1.1,9.9-3.2,12-5.8c0.9-1.1,2.2-1.7,3.6-1.6
		c8.5,0.4,12.6-5,14.5-8.9C112.2,195.3,114.3,194.3,116.4,194.9z"/>
	<path class="st0" d="M404.6,15.4c0.8,2.2,1.1,4.6,1,6.9c-0.1,3.2-1.2,6.2-3.1,8.7c-3.7,4.7-11.1,13.3-18.1,15.5
		c-2.8,0.7-5.8,0-7.9-1.9c-1.1-0.9-2.5-1.2-3.8-0.8l-7.2,1.8c-2.4,0.6-3.8,2.9-3.2,5.3c0.3,1.1,0.9,2,1.8,2.6
		c0.2,0.1,0.4,0.3,0.5,0.4c0.3-1.7,1.5-3.1,3.3-3.5l7.2-1.8c1.3-0.3,2.8,0,3.8,0.9c2.2,1.9,5.1,2.6,7.9,1.9
		c7-2.1,14.4-10.7,18.1-15.5c1.9-2.5,3-5.6,3.1-8.8C408.2,22.8,407,18.8,404.6,15.4z"/>
</g>
<image style="overflow:visible;" width="719" height="1280" xlink:href="../../novos/F049C599-EC64-4A22-B8E8-CA3C350CA81B.jpg"  transform="matrix(0.4548 0 0 0.4548 1784.6666 22)">
</image>
<image style="overflow:visible;" width="719" height="1280" xlink:href="../../novos/F049C599-EC64-4A22-B8E8-CA3C350CA81B.jpg"  transform="matrix(0.4548 0 0 0.4548 1784.6666 22)">
</image>
<g>
	<path class="st0" d="M77.8,150.7c-0.3-0.3-0.7-0.2-1,0.1c-3.1,3.4-11.5,14.5-10.3,32.9c0,0.2,0.1,0.3,0.2,0.5c0.3,0.3,0.7,0.2,1,0
		c3.1-3.4,11.8-14.5,10.3-32.9C78,151,77.9,150.8,77.8,150.7z"/>
	<path class="st0" d="M158.3,157.3c0.3,0.3,0.7,0.3,1,0c6.5-5.7,8.9-23.6,9.5-28.1c0,0,0,0,0-0.1c0-0.4-0.3-0.7-0.7-0.7
		c-1.3,0-3-1.3-4-2.2c-0.1-0.1-0.1-0.1-0.2-0.1c-0.4-0.1-0.8,0.1-0.9,0.4c-6.5,17.7-5.5,27.3-4.9,30.3
		C158.1,157.1,158.2,157.2,158.3,157.3z"/>
	<path class="st0" d="M333.5,107.9c5.4,4.4,21-44.4,13.5-42.9c0,0-8-1.8-14.1,20.4C332.9,85.4,328.2,103.4,333.5,107.9z"/>
	<path class="st0" d="M397,2.6c-7-6.7-38.6,1.4-49,4.3c-1.7,0.5-3.5-0.2-4.6-1.6c-1-1.2-2.3-2.2-3.7-3c-12.5-5.1-23.8,5-27.6,7.8
		c-1.8,1.3-2.9,4.3-3.5,6.5c-0.4,1.5-1.7,2.7-3.3,3.1c-17.8,3.9-57.5,22.6-70,28.6c-1.9,0.9-4.1,0.4-5.4-1.3c-1-1.4-2.4-2.5-3.8-3.3
		c-8.7-5.4-14.4,0.3-15.2,1.3c-0.1,0.1-0.2,0.2-0.3,0.3l-12.2,11.6c-1.5,1.4-2.2,5.1-2.5,7.6c-0.2,1.5-1.2,2.8-2.6,3.5
		c-6.9,3.1-27.4,12.2-37.1,16.4c-10.1,4.4-14.1,1.3-15.1,0.3c-0.2-0.2-0.4-0.4-0.6-0.6c-6.6-4.6-13.3-0.8-14.8,0.1
		c-0.2,0.1-0.4,0.2-0.5,0.4c-9.4,8.2-2.7,19.5,2.1,25.4c1.5,1.9,1.2,4.6-0.7,6.2c-1,0.8-1.9,1.7-2.8,2.7c-0.8,0.9-2,1.4-3.3,1.4
		c-2.8-0.1-5.5,0.3-8.1,1.3c-1,0.4-2.2,0.4-3.2,0c-1.8-0.7-2.8-2.7-2.2-4.6c2-6.4,2.3-17.1-7.1-21.7c-9.2-4.4-22.5,4.4-28.5,9
		c-1.8,1.4-4.5,1.2-6-0.6l-0.8-0.9c-4.1-4.5-10.7,0-10.7,0s-8,5.6-12.3,9.2c-3.2,2.6-3.4,10-3.3,13.7c0,1.4-0.6,2.7-1.7,3.6
		l-8.6,6.6c-1.2,0.8-4.5,0.8-6.4,0.8c-0.9,0-1.7-0.3-2.4-0.8c-6-4.2-9.4-2.4-9.4-2.4c-19.4,6.9-5.5,23.7,0.4,30.8
		c3.5,4.3,10.7,3.7,15.8,2.7c0.6-0.1,1.2-0.1,1.8,0c2.4,0.5,3.9,2.8,3.4,5.2c-3.1,14.8-14.5,44-15.8,49.2c-0.8,3.6-2.6,6.9-5.1,9.6
		c0,0-7.5,7.1,0,16.3c7,8.6,20.8-2.3,22.5-3.8c0.1-0.1,0.3-0.2,0.4-0.3c0.9-0.6,4.2-2.7,9.6-6.4c4.4-2.9,7.3-17.6,8.7-26.2
		c0-0.3,0.1-0.6,0.2-0.8c0.8-2.3,3.3-3.4,5.6-2.6c4.9,1.8,10.4,0.7,14.3-2.8c1.1-0.9,2.5-1.2,3.9-1c5.4,1.1,9.9-3.2,12-5.8
		c0.9-1.1,2.2-1.7,3.6-1.6c8.5,0.4,12.6-5,14.5-8.9c0.9-1.9,3-2.9,5.1-2.4c3.7,1.1,7.6,0.1,10.4-2.5c1.4-1.3,3.5-1.4,5.1-0.4
		c10.3,6.5,20.4-3.8,20.4-3.8c0.6-0.6,1.1-0.6,1.5-0.5c0.1,0.1,0.2,0.2,0.3,0.3c0.4,0.5,0.3,1.1-0.2,1.5c-24.3,19.3-33.4,37-36,50.6
		c-4.7,24.6,19.3,45,42.6,36c3.4-1.3,6.7-2.9,9.8-4.8c29.8-17.9,43.3-81.1,46.8-100.4c0-0.2,0.1-0.4,0.2-0.6
		c0.8-2.3,3.3-3.5,5.6-2.7c6.7,2.5,14.3,0.8,19.2-4.4c1-1,2.3-1.5,3.7-1.3c7.3,1.1,12-1.8,14-3.5c0.9-0.7,1.9-1.1,3.1-1
		c8.9,0.6,13.3-3.4,15.3-7c0.1-0.1,0.2-0.3,0.2-0.4c1.4-2,4.1-2.4,6.1-1.1c9.2,6.3,18.3-0.3,22-3.7c1.1-1,2.6-1.4,4-1
		c7.3,1.8,13.2-1.9,16-4.2c1.1-0.9,2.7-1.2,4.1-0.8c7.8,2.5,18.9-1.9,20.5-3.8c1.8-2,20.9-14.4,24-50.2c1.4-15.4-3.2-23.1-8.7-27
		c-0.9-0.6-1.5-1.5-1.7-2.5c-0.6-2.4,0.9-4.7,3.2-5.3l7.3-1.7c1.3-0.3,2.8,0,3.8,0.8c2.1,1.9,5.1,2.7,7.9,1.9
		c7-2.1,14.4-10.7,18.1-15.5c2-2.5,3.1-5.6,3.1-8.8C402.8,11.5,400.8,6.3,397,2.6z M37.6,230.3c-0.2,0.4-0.5,0.8-0.9,1l-17.1,10.7
		c-0.1,0.1-0.2,0.1-0.3,0.1c-0.2,0.1-0.4,0.1-0.6,0.1c-1,0-2-0.4-2.7-1.2c-0.9-0.8-1.3-2-1.2-3.2c0.1-0.3,0.2-0.5,0.4-0.7
		c4-4.4,6.9-9.6,8.7-15.2c3.1-9.6,19-54.8,19.8-70.7c0-1-0.7-1.8-1.7-1.8c-0.4,0-0.8,0.1-1.1,0.3c-0.2,0.2-0.5,0.4-0.8,0.6
		c-0.4,0.3-11,8.2-17.4,8.5c0,0-8.4,1.7-14.3-11.2c-0.1-0.1-0.1-0.2-0.1-0.3c-0.3-1.3-1.2-6.9,4.9-5.4v0c1.2,0.6,12.4,5.8,20.1-0.2
		l12.5-9.7c0.4-0.3,0.7-0.8,0.7-1.4v-12.5c0,0,0-1.2,2.7-2.8h0.1l8.6-5.8c0.4-0.3,0.8-0.4,1.3-0.3c1,0.2,2.5,1.2,1.6,5.6
		c0,0,0,0.1,0,0.1l-0.6,6c0,0,0,1.6,1.9,0.1c0,0,33.2-30.2,36.8-14.5c0,0,3.3,13.3-13.2,22.1c-0.3,0.1-0.3-0.5-0.3-0.8
		c0.2-1.1,0.6-5.2-2.5-3c-3.4,2.4-18.8,13.4-26.3,17c-0.5,0.2-0.8,0.7-0.9,1.3C54.3,151.9,41.9,221.2,37.6,230.3z M146.4,167.1
		C146.3,167.1,146.3,167,146.4,167.1c-0.4-0.2-0.8-0.1-1,0.2c-1.4,2.4-6.3,9.7-11.5,8.3c0,0-9.2-0.5-8.6-10.5c0,0,0.3-13.6,3.3-22.1
		c0,0,2.8-7.9,2.2-10c0,0-0.8-1.4-2.1,1.4c0,0.1-0.1,0.1-0.1,0.2c-0.5,0.6-4.5,6.1-10.1,35.8c0,0-0.8,6.3-5.3,6.8
		c-0.1,0-0.2,0-0.3,0c-0.9-0.2-6.4-2-3.7-12.4c0.2-0.7,6.8-21.7,5.4-26.7c0-0.1-0.1-0.2-0.2-0.3c-0.5-0.4-2.1-1.4-4.1,2.8v0.1
		c-0.4,1.2-8.4,26.7-9.2,34.1c0,0,0,0,0,0.1c-0.2,0.7-2.9,12.7-8.6,13.3h-0.1c-0.4,0-3.5,0-3.6-3.9c-0.1-3.8-2.3,1.3-2.5,1.9v0.1
		c-0.4,0.7-5.5,8.9-9.4,9.5c-1.8,0.4-3.7,0-5.2-1.2c0,0,0,0,0,0c-0.3-0.3-0.7-0.2-1,0.1c-1.2,1.4-4.5,4.7-8.9,5.3h-0.1
		c-0.6,0-7.4-0.2-7.6-10c0,0-0.5-42.1,25.6-50.2c0.4-0.1,5.8-1.4,7,3.6c0.1,0.3,0.4,0.6,0.7,0.5c1.6-0.1,5.4-0.1,4.1,3.5
		c0,0-10,26.1-8.9,32.8c0,0.1,0.1,0.2,0.1,0.3c0.2,0.3,0.7,0.4,1,0.1c0.7-0.6,1.9-2.2,3.7-6.2v0c0.3-0.6,9.9-19.2,9.9-34.9
		c0-0.2-0.1-0.5-0.3-0.6c-0.3-0.2-0.5-0.4-0.6-0.8c0,0-1.5-5,6.3-7.5c0,0,4.6-1.7,8.3,1c0.3,0.2,0.7,0.2,0.9-0.1
		c2.2-2.2,5.2-3.4,8.3-3c1.4,0.1,2.5,1.3,2.5,2.7c0.2,2.7,13.4-16.8,21.6-10.1c0,0,2.8,1.3,1,7c0,0-10.7,31.7-8.5,37.6c0,0,0,0,0,0
		c0.1,0.4,0.5,0.5,0.9,0.4c1-0.4,3.1-1.9,5.5-7.8c0-0.1,0-0.2,0-0.3c0-2.8,0.1-47.4,26.5-49.9h0.1c0.4-0.1,4.3-0.7,8.9,2.8
		c0,0,2.5,2,3.3-4.6V106c0-0.5,0.1-6.2,4.8-1.2c0,0,0,0,0,0c0.4,0.6,2.8,5.3-4.8,16.6c-0.1,0.1-0.1,0.3-0.1,0.4
		c0,3.1-0.2,40.4-24.8,48.6C157,170.5,152.5,172.1,146.4,167.1z M391.2,22.4c-6.1,4.4-8,9.2-11.2,10.2c-2.3,0.7-3.3-2.1-3.6-3.6
		c-0.1-0.5-0.6-0.9-1.2-0.9c-10.4,0.6-39.6,9.4-44.1,10.8c-0.4,0.1-0.6,0.4-0.8,0.8c-2,6.5-19.9,65.6-18.6,72.6
		c1.2,6.8,5.7-1.5,6.5-3.2c0.1-0.2,0.1-0.4,0.1-0.6c-2.5-19.8,8.1-39.7,8.5-40.3c0.3-0.5,8.7-18.1,24.8-15.8s8.1,33.3,7.9,34.1
		c-11.1,34.1-25.8,34.2-27.3,34.1c-0.1,0-0.2,0-0.3,0c-3.7,0.7-7.6-0.6-10.2-3.4c-0.1-0.1-0.2-0.2-0.3-0.2c-0.6-0.3-1.2,0-1.5,0.5
		c-2,4.5-5.9,7.8-10.7,8.9h-0.1c-3.1,0.4-6.1-1-7.9-3.6c-0.1-0.2-0.3-0.3-0.5-0.4c-0.6-0.2-1.2,0.1-1.5,0.6
		c-4.8,11.5-14.1,9.3-15.4,8.9c-0.1,0-0.2-0.1-0.3-0.1c-14.9-10.2,0.1-42.3,0.1-42.3c1.5-3.5,1.7-5.2,1.6-6.2c0-0.1,0-0.2-0.1-0.3
		c-0.2-0.6-0.9-0.8-1.5-0.6c-12.1,4.7-16.2,44.2-16.2,44.2c-1,8.9-3.5,10-3.6,10c-6,3.7-7.6,1.7-8.5,0.7c-0.1-0.1-0.2-0.2-0.3-0.2
		c-0.4-0.2-0.9-0.1-1.2,0.3c-2.8,2.8-6.3,4.7-10.1,5.5H244c-2.4,0.8-4.9,0.6-7.1-0.7c-0.5-0.3-1.1-0.2-1.4,0.3
		c-7,8.5-12.8,7.7-12.8,7.7c-7.1-1-8.1-6.9-8.1-6.9c-1.1-20.2,6.9-46.2,6.9-46.2c1.9-6.7,10-8.8,11-9h0.2c4.8-0.2,4.2,3,3.9,4
		c0,0.2-0.1,0.3-0.3,0.4c-2.1,2.1-5,15-5,15c-2.1,7.8-4.5,28.6-4.6,29.8c0,0,0,0.1,0,0.1c0,2.8,0.8,1.6,0.8,1.6
		c5.5-2.7,11.3-32.6,11.5-33.4c1.2-3.8,1.7-11.3,1.7-11.3c0.3-4.4,10.3-7.6,11.6-8c0.1,0,0.2,0,0.3,0c7.5-0.2,2.8,6.7,2.4,7.3
		c0,0,0,0.1-0.1,0.1c-3.6,7.2-9.2,36.5-7.7,38.4c1.4,1.7,5-2.4,5.6-3.1l0.2-0.2c4-3.1,9.7-35.5,10-37c0,0,0-0.1,0-0.1c0.9-3,0-9,0-9
		c-1-6.2,11.5-8.4,11.9-8.4c1.7-0.2,3.4,0.3,4.8,1.4c0.4,0.4,1,0.4,1.5,0c3.9-3.4,12.6-6.3,13.7-6.7l0.2,0c15.3-1.4,0.3,26.3-0.1,27
		c-11.2,26.4-6.1,26.4-6.1,26.4c8.4,0.8,11.9-21.9,12.7-26.1c1.1-6,10.3-41.8,12.8-50.5c0.1-0.2,0.1-0.4,0-0.6
		c-0.1-0.6-0.8-1-1.4-0.9C296.5,47.9,226.5,78,219.6,81c-0.3,0.1-0.6,0.5-0.7,0.8l-18.7,91.9c0,0,0,0,0,0c-1.6,11.7-10,35-12.9,42.7
		c-0.6,1.8-1.5,3.4-2.3,5.1c-20.4,43.5-45.6,40.8-53.2,37.4c-2.4-0.9-4.4-2.4-6-4.4c-24.6-30.8,30-72.6,36.9-77.8
		c0.5-0.4,0.9-0.7,1.3-1.1c9.8-8.9,13.6-7.1,14.5-6.4c0.1,0.1,0.2,0.2,0.3,0.4c0.3,1,0,2.1-0.9,2.7c0,0-0.1,0.1-0.1,0.1
		c-2.9,1.8-27.4,27.1-28.4,28.2l-0.1,0.1c-14.3,17.8-17.2,28.1-16.3,33.8c0.1,0.5,0.2,1,0.4,1.5c1.5,4.3,6.3,6.5,10.6,5
		c18.1-6.9,22.6-19.6,31.3-40.1c9.3-21.9,25.7-107.2,25.9-109.9c0.2-2.7-1.8-1.5-1.8-1.5s-39.4,15.6-45.9,18
		c-6.5,2.4-20.6,4.9-23.9-8.4c-3-12,4.3-9.6,5.8-9c0.2,0.1,0.3,0.2,0.4,0.4c6.4,8,21.1,2.7,22,2.3h0.1l44.9-21
		c0.4-0.2,0.6-0.6,0.7-1c0.1-1,0.2-3.1,0.3-5.6c0.2-3.5,1.2-4.1,1.2-4.1l12.6-11.3c0.2-0.2,0.5-0.3,0.8-0.3
		c5.9,0.1,5.6,7.1,4.9,10.9c0,0.2,0,0.5,0.1,0.7c0.3,0.6,1,0.8,1.5,0.5c35.8-19.4,88.2-36.5,95.2-38.7c0.5-0.2,0.8-0.6,0.8-1.1
		c0-0.6-0.5-1.1-1.1-1.2c-3.1-0.3-3.3-2.1-3.3-2.1c-1.1-3.8,10.1-8.9,11.5-9.5l0.2-0.1c9.5-3.1,10.2,3.7,10.1,6.9
		c0,0.1,0,0.3,0.1,0.4c0.2,0.6,0.8,0.9,1.4,0.8c8.4-2.6,40-8.5,47.3-9.4C395.5,6.6,397.3,18,391.2,22.4z"/>
</g>
</svg>
