<svg xmlns="http://www.w3.org/2000/svg" xmlns:xlink="http://www.w3.org/1999/xlink" viewBox="0 0 454.07 240.49"><defs><style>.cls-1{fill:#fcfdfc;}.cls-2{fill:#00a6c6;}.cls-3{fill:url(#Gradiente_sem_nome_27);}.cls-4{fill:url(#Gradiente_sem_nome_25);}</style><linearGradient id="Gradiente_sem_nome_27" x1="18.37" y1="84.79" x2="438.12" y2="181.69" gradientUnits="userSpaceOnUse"><stop offset="0" stop-color="#006fa5"/><stop offset="0.09" stop-color="#0080b0"/><stop offset="0.23" stop-color="#0095bf"/><stop offset="0.36" stop-color="#00a2c7"/><stop offset="0.49" stop-color="#00a6ca"/><stop offset="0.62" stop-color="#00a6c4"/><stop offset="0.78" stop-color="#00a5b3"/><stop offset="0.96" stop-color="#00a498"/><stop offset="1" stop-color="#00a491"/></linearGradient><linearGradient id="Gradiente_sem_nome_25" x1="288.54" y1="126.21" x2="315.19" y2="132.36" gradientUnits="userSpaceOnUse"><stop offset="0" stop-color="#00a6ca"/><stop offset="0.08" stop-color="#00a6ca"/><stop offset="1" stop-color="#00a6ca"/></linearGradient></defs><title>Asset 5</title><g id="Layer_2" data-name="Layer 2"><g id="Camada_1" data-name="Camada 1"><path class="cls-1" d="M214.12,158c1.31-3,2.35-5.56,3.56-8.07,3.3-6.83,6.92-13.47,13.21-18.11,4.94-3.64,10.4-4.83,16.17-2.41,4.72,2,5.67,6.37,5.82,10.91.17,5.21-.87,10.3-1.75,15.4-.59,3.47-1.35,7-.74,10.5.57,3.29,2.63,4.25,5.86,3.15,5.6-1.92,9.19-6.12,12.4-10.75a101.93,101.93,0,0,0,12.9-27.2c2.1-6.58,4.57-12.86,8.94-18.24,5.14-6.34,11.3-10.83,20-10.37a12.92,12.92,0,0,1,10,5.27c.94,1.23,1.79,2.12,3.59,2,2-.14,2.35,1.45,2.25,3.1-.18,2.92-1.51,5.54-2.35,8.27a37,37,0,0,0-1.76,12.24c.2,5.65,4.36,8.77,9.89,7.49a21.6,21.6,0,0,0,10.17-5.92c6.64-6.39,10.93-14.35,14.87-22.48a173.86,173.86,0,0,0,9.61-24.08c.55-1.76,1.49-3,3.53-2.62,1.55.3,2,2,1.49,4.14a81.14,81.14,0,0,0-2,26.35,11.13,11.13,0,0,0,3.33,7c2.73,2.61,7.07,2.08,10.59-1,3.88-3.46,6.36-7.87,8.5-12.49a142.41,142.41,0,0,0,9.75-30c.23-1.06.27-2.39,1.55-3,2.32-1,4.32.41,3.86,3.08a72.07,72.07,0,0,0-1.33,14.48c.16,5.19.82,10.34,3.79,14.78,4.24,6.33,10.55,8,17.69,7.2a19,19,0,0,0,12.35-6.14c1.23-1.36,2.84-1.72,4.13-.49s.84,2.95-.33,4.22a23.92,23.92,0,0,1-14.55,7.4c-7,1-13.59,0-19.39-4.46-3.77-2.88-5.86-6.81-7.26-11.22-.24-.74,0-2.06-1.18-2-.88.06-1.07,1.23-1.37,2-2.63,6.79-5.8,13.28-10.65,18.79-5.48,6.24-14.36,7.74-19.88,2.74a14,14,0,0,1-4.36-8.07c-.38-2.07-1.18-4.06-1.09-6.45a4.54,4.54,0,0,0-1.94,2.37c-4.32,8.61-8.87,17.1-15.89,23.91-3.83,3.72-8.16,6.57-13.61,7.3-5.23.71-12.51-.76-14.88-7.47-.59-1.66-1.38-.63-1.93.21a59.55,59.55,0,0,1-7.38,9.63c-3.56,3.58-7.35,6.95-12.72,7.31A12.16,12.16,0,0,1,285.59,152a28.53,28.53,0,0,1-2.7-3.79c-.28-.45-.27-1.09-1-1.06s-.83.53-1.09,1c-1.72,3.49-3.46,6.95-5.52,10.26-3.37,5.39-7,10.52-12.57,13.93a16.35,16.35,0,0,1-11.22,2.37c-3.57-.51-6.25-4-6.48-7.57-.35-5.68.71-11.21,1.55-16.8.6-4,1.82-8,.74-12.31-1-3.95-3.7-4.67-6.8-4.56a11.62,11.62,0,0,0-7.36,3.35c-5.38,4.9-8.83,11.07-11.65,17.67a151.6,151.6,0,0,0-9.6,31.66c-.34,1.8-1.33,3.14-3.35,2.76-1.76-.33-2.2-1.73-2.1-3.42.67-11.52,1.3-23,2-34.56.1-1.63.41-3.26.59-4.89.07-.57,0-1.24-.56-1.44-.72-.26-.83.52-1.09,1-4.06,6.75-8,13.57-12.17,20.26a136.61,136.61,0,0,1-18.72,24.46c-4.27,4.3-8.89,8.24-14.91,10.13-10.84,3.4-25.29-1.41-27.92-14.88-2.81-14.38,1.26-26.45,12.48-35.82,4.45-3.72,9.78-6.07,15.85-4.75,4.87,1.06,7.84,4.66,8.47,9.69.19,1.45.27,2.57,2,3.22,1.25.47,2,1.79,1.13,3.52s-2.19,3.23-3.14,4.92a2.87,2.87,0,0,1-3.8,1.42c-1.54-.61-1.86-2.09-1.55-3.57a22.73,22.73,0,0,0-.08-8.66c-.77-4.44-3.89-6.41-8.17-5.21-8.34,2.33-13.17,8.34-16.41,15.83a27.92,27.92,0,0,0-1,20c1.62,5.13,5.34,7.95,10.59,9.38,9.3,2.54,15.58-2.47,21.55-8.12,10.09-9.56,17.34-21.29,24.43-33.09,4.42-7.37,8.61-14.87,12.93-22.3,1.95-3.35,1.63-7.16,1.92-10.75,1-12.53,2.28-25,3.75-37.48,1-8.49,2-17,3.27-25.43a243.9,243.9,0,0,1,7.48-34.84,40.31,40.31,0,0,1,4.51-9.7c1.75-2.78,4.06-4.68,7.33-4.23s5.62,2.88,6.78,6.09c2.61,7.18,2.49,14.64,2.16,22.12-.49,11-3.13,21.71-6.07,32.28a245.36,245.36,0,0,1-8.14,24.57c-4.75,12-9.61,23.93-15.9,35.23a8.85,8.85,0,0,0-.92,3.62c-.52,7.28-1.11,14.55-1.65,21.83A3.23,3.23,0,0,0,214.12,158Zm27-124.83c.41-3.89-.83-7.63-1-11.47a10.78,10.78,0,0,0-1.61-4.83c-1.35-2.25-2.27-2.34-4-.29a16.3,16.3,0,0,0-2.63,4.69C228,31.16,226.06,41.58,224.26,52c-1.21,7-2.11,14.12-3.11,21.19-1.84,13-2.92,26-4.34,39.07-.07.63-.41,1.62.5,1.83s1-.75,1.28-1.39c2.36-5.59,4.82-11.14,7.08-16.76,3-7.44,5.58-15,7.85-22.72a213.24,213.24,0,0,0,5.2-20.82A156.47,156.47,0,0,0,241.16,33.15ZM286.28,138a20.4,20.4,0,0,0,1.16,7.18c1.83,4.53,6.93,6.81,11,4.7a15.36,15.36,0,0,0,3.22-2.27,54.52,54.52,0,0,0,16.56-28.52c1.12-4.74-2.42-9.75-7.08-10.75-4-.87-7.47.46-10.52,2.75C291.71,117.8,287.27,127,286.28,138Z"/><path class="cls-1" d="M198.94,45.75c.07,7.85-4.23,13-9.54,17.35-8.68,7.19-18.87,11.78-29.13,16.13-7.49,3.18-15.11,6.07-22.7,9-4,1.54-8,3-12.08,4.35a3.31,3.31,0,0,0-2.61,2.91,29.93,29.93,0,0,0-.42,3.74c.16,7.32-.92,14.56-1.29,21.85-.46,9.24-1.2,18.48-1.9,27.7-.59,7.73-1.22,15.46-1.82,23.2-.82,10.54-1.72,21.09-2.89,31.6-.56,5-.94,10.14-1.84,15.14a40.07,40.07,0,0,1-3.6,11.27c-.78,1.53-1.88,2.78-3.68,1.79-1.49-.83-2.29-2-1.26-4.07,2.65-5.39,3.58-11.24,4.12-17.2.71-7.88,1.69-15.73,2.47-23.61.4-4.13.79-8.27,1-12.41.39-6.8,1.15-13.57,1.55-20.38.4-6.65,1-13.28,1.49-19.93.62-8.29,1.28-16.58,1.81-24.87.24-3.68.13-7.37.8-11,.36-2-.67-2.51-2.78-1.69-3.06,1.18-6.12,2.37-9.19,3.52a464.52,464.52,0,0,0-42.9,18c-13.13,6.47-25.75,13.78-36.1,24.42-5.11,5.26-9.28,11.1-11.39,18.21-1.78,6-2.45,12,.07,18,.68,1.61.63,3.24-1.19,4s-3.14-.32-3.83-2.05c-2.52-6.3-2.35-12.73-.79-19.19,3.19-13.17,11.68-22.66,22-30.65,14.51-11.25,31-19,47.79-26.13,17.81-7.5,36-13.88,54.12-20.66,14.28-5.35,28.6-10.63,42-18,5.68-3.13,11.2-6.54,15.3-11.76,5.31-6.77,4-14.25-3.31-18.79A17.24,17.24,0,0,1,185.17,34a2.32,2.32,0,0,1-.39-3.37,2.38,2.38,0,0,1,3.26-.84C194.35,32.75,199.33,38.81,198.94,45.75Z"/><path class="cls-2" d="M241.16,33.15a156.47,156.47,0,0,1-2.44,19.26,213.24,213.24,0,0,1-5.2,20.82c-2.27,7.68-4.85,15.28-7.85,22.72-2.26,5.62-4.72,11.17-7.08,16.76-.27.64-.41,1.59-1.28,1.39s-.57-1.2-.5-1.83c1.42-13,2.5-26.09,4.34-39.07,1-7.07,1.9-14.15,3.11-21.19,1.8-10.43,3.74-20.85,7.63-30.76a16.3,16.3,0,0,1,2.63-4.69c1.72-2,2.64-2,4,.29a10.78,10.78,0,0,1,1.61,4.83C240.33,25.52,241.57,29.26,241.16,33.15Z"/><path class="cls-3" d="M237.7,144.66c-3.24,3.24-5.14,7-6.91,10.82a136.68,136.68,0,0,0-9.68,30.45c-.9,4.44-2.37,8.35-6.82,10.58-7.55,3.78-16.79-1.6-17-10,0-1.57.11-3.14.13-4.71,0-.6.2-1.42-.45-1.7-.92-.4-1.15.58-1.53,1.1-4.9,6.63-10.07,13-16.31,18.46-4.92,4.29-10.26,8-16.67,9.5-12.87,2.93-28.6-1.19-35.37-15.69a7.72,7.72,0,0,0-1.71-2.52c-.35,2.4-.84,4.79-1,7.2a202.48,202.48,0,0,1-3.15,25.41,32.79,32.79,0,0,1-4.56,11.7,11.48,11.48,0,0,1-15.61,3.65,11.33,11.33,0,0,1-4.63-15,25.4,25.4,0,0,0,2.46-7.53c1.87-12.59,2.74-25.27,3.93-37.93,1.31-14,2.16-28,3.4-42,.72-8.21,1.06-16.45,1.68-24.67.15-2-.48-2.49-2.25-1.82-17.78,6.75-35.51,13.62-52,23.2-8.31,4.81-16.24,10.2-22.57,17.58-4.87,5.68-8.2,12-8.21,19.75a13.86,13.86,0,0,0,1.17,5c3.07,8.08-2.49,16.06-11.09,15.78a10.61,10.61,0,0,1-9.61-6.13C0,178.6-.45,171.6.33,164.45c1.34-12.4,7.22-22.59,15.6-31.45,10.62-11.23,23.68-19,37.3-26,15.39-7.86,31.48-14.1,47.65-20.14C117.58,80.64,134.49,75,151,68.19c9.3-3.84,18.55-7.77,26.89-13.5a22.35,22.35,0,0,0,5.94-5.58,3.33,3.33,0,0,0-.47-4.82,17.31,17.31,0,0,0-2.53-2c-4.06-2.68-6.08-6.44-5.54-11.39A11,11,0,0,1,183.2,21a11.92,11.92,0,0,1,10.55,1.54c6,4,10.6,8.81,12.82,15.88,4.05,12.93-.42,23-10,31.41-8.65,7.54-18.88,12.45-29.3,17-10.71,4.64-21.64,8.75-32.68,12.57-1.93.67-2.68,1.57-2.81,3.81-.74,12.61-1.85,25.2-2.63,37.81-.27,4.23-.62,8.45-1,12.68a4,4,0,0,0,.46,3c.82-1.34,1.53-2.56,2.3-3.75,5.13-7.93,11.78-14,21-16.69,10-2.9,20.09-.28,25.15,9.62a3.7,3.7,0,0,0,1.25,1.67,10.47,10.47,0,0,1,3.66,2.89c.87,1.29,1.65,2.65,2.48,4,.88-.14,1.15-.94,1.55-1.59,4.94-8,9.55-16.23,14.2-24.43,1.2-2.12,1.21-4.37,1.39-6.61,1.82-22.17,4.08-44.29,7.48-66.28,1.8-11.65,3.8-23.29,7.38-34.55,1.86-5.86,4.2-11.49,8.59-16A15.9,15.9,0,0,1,249.8,7.2c4.2,6.16,5.13,13.2,5.46,20.38.73,16.07-2.83,31.47-7.25,46.76a334.29,334.29,0,0,1-16.15,43.6c-.27.61-.88,1.31-.29,2s1.33,0,2-.18c10.81-3.31,21.05.26,25.91,9.21,3.29,6,2.82,12.56,2,19.07a14.7,14.7,0,0,0-.24,4.83,37.17,37.17,0,0,0,4.88-7.7c3.44-6.78,5.79-13.93,8.26-21.08,4.79-13.88,12.84-25.25,27.62-29.75,8.5-2.59,16.68-1.2,23.49,5.15a8.92,8.92,0,0,0,2.75,1.76A11.6,11.6,0,0,1,335,115.8c-1.31,4.34-2.52,8.7-3.77,13.06-.21.75-.53,1.69.12,2.22s1.48-.21,2.08-.62c4.63-3.2,7.68-7.8,10.5-12.48a153.24,153.24,0,0,0,14.44-33.2,11.77,11.77,0,0,1,13.38-8.18c5.38.87,9.73,6.12,9.4,11.31s-2.07,10.13-2.46,15.32a61,61,0,0,0-.37,8c0,.7-.3,1.78.71,2,.77.18,1.12-.74,1.51-1.3a55.67,55.67,0,0,0,6.24-12.37,146.25,146.25,0,0,0,6.73-23,11.82,11.82,0,0,1,13.76-9.26,11.6,11.6,0,0,1,9.14,13.55c-1.1,6.05-1.9,12.1-.68,18.24.69,3.48,1.82,6.68,5.71,7.59,4.26,1,8.38.57,11.61-2.74,2.73-2.79,5.82-4.61,9.78-4.33a11.21,11.21,0,0,1,10.3,7.4c1.82,4.6.81,8.83-2.5,12.45A32.71,32.71,0,0,1,430.87,130c-10,1.53-19.26-.22-27.27-6.76-1.41-1.15-2-.5-2.72.64a41.29,41.29,0,0,1-9.23,10.29A22.05,22.05,0,0,1,364,134c-1.41-1.15-2-.77-2.86.52C356.65,141,351.59,147,344.68,151c-8.18,4.83-16.68,5.64-25.43,1.7-1.51-.68-2.31-.41-3.37.76-3.87,4.28-8.15,8-13.76,9.92a20.78,20.78,0,0,1-16.23-.78c-1.78-.84-2.54-.52-3.54,1.05-4.35,6.75-9.28,13-16.59,16.8-6.85,3.57-13.9,4.58-21,.79-6.49-3.44-8.65-9.42-9-16.23-.28-5.84,1.07-11.55,2-17.28A4.17,4.17,0,0,0,237.7,144.66ZM214.12,158a3.23,3.23,0,0,1-.7-2.68c.54-7.28,1.13-14.55,1.65-21.83a8.85,8.85,0,0,1,.92-3.62c6.29-11.3,11.15-23.24,15.9-35.23A245.36,245.36,0,0,0,240,70.05c2.94-10.57,5.58-21.24,6.07-32.28.33-7.48.45-14.94-2.16-22.12-1.16-3.21-3.38-5.61-6.78-6.09s-5.58,1.45-7.33,4.23a40.31,40.31,0,0,0-4.51,9.7,243.9,243.9,0,0,0-7.48,34.84c-1.29,8.45-2.27,16.94-3.27,25.43-1.47,12.47-2.77,24.95-3.75,37.48-.29,3.59,0,7.4-1.92,10.75-4.32,7.43-8.51,14.93-12.93,22.3-7.09,11.8-14.34,23.53-24.43,33.09-6,5.65-12.25,10.66-21.55,8.12-5.25-1.43-9-4.25-10.59-9.38a27.92,27.92,0,0,1,1-20c3.24-7.49,8.07-13.5,16.41-15.83,4.28-1.2,7.4.77,8.17,5.21a22.73,22.73,0,0,1,.08,8.66c-.31,1.48,0,3,1.55,3.57a2.87,2.87,0,0,0,3.8-1.42c.95-1.69,2.25-3.16,3.14-4.92s.12-3-1.13-3.52c-1.76-.65-1.84-1.77-2-3.22-.63-5-3.6-8.63-8.47-9.69-6.07-1.32-11.4,1-15.85,4.75-11.22,9.37-15.29,21.44-12.48,35.82,2.63,13.47,17.08,18.28,27.92,14.88,6-1.89,10.64-5.83,14.91-10.13a136.61,136.61,0,0,0,18.72-24.46c4.15-6.69,8.11-13.51,12.17-20.26.26-.44.37-1.22,1.09-1,.56.2.63.87.56,1.44-.18,1.63-.49,3.26-.59,4.89-.67,11.52-1.3,23-2,34.56-.1,1.69.34,3.09,2.1,3.42,2,.38,3-1,3.35-2.76a151.6,151.6,0,0,1,9.6-31.66c2.82-6.6,6.27-12.77,11.65-17.67a11.62,11.62,0,0,1,7.36-3.35c3.1-.11,5.8.61,6.8,4.56,1.08,4.3-.14,8.3-.74,12.31-.84,5.59-1.9,11.12-1.55,16.8.23,3.55,2.91,7.06,6.48,7.57a16.35,16.35,0,0,0,11.22-2.37c5.53-3.41,9.2-8.54,12.57-13.93,2.06-3.31,3.8-6.77,5.52-10.26.26-.51.4-1,1.09-1s.74.61,1,1.06a28.53,28.53,0,0,0,2.7,3.79,12.16,12.16,0,0,0,10.07,4.13c5.37-.36,9.16-3.73,12.72-7.31a59.55,59.55,0,0,0,7.38-9.63c.55-.84,1.34-1.87,1.93-.21,2.37,6.71,9.65,8.18,14.88,7.47,5.45-.73,9.78-3.58,13.61-7.3,7-6.81,11.57-15.3,15.89-23.91a4.54,4.54,0,0,1,1.94-2.37c-.09,2.39.71,4.38,1.09,6.45a14,14,0,0,0,4.36,8.07c5.52,5,14.4,3.5,19.88-2.74,4.85-5.51,8-12,10.65-18.79.3-.78.49-1.95,1.37-2,1.15-.06.94,1.26,1.18,2,1.4,4.41,3.49,8.34,7.26,11.22,5.8,4.43,12.42,5.46,19.39,4.46a23.92,23.92,0,0,0,14.55-7.4c1.17-1.27,1.7-2.94.33-4.22s-2.9-.87-4.13.49a19,19,0,0,1-12.35,6.14c-7.14.81-13.45-.87-17.69-7.2-3-4.44-3.63-9.59-3.79-14.78a72.07,72.07,0,0,1,1.33-14.48c.46-2.67-1.54-4.09-3.86-3.08-1.28.56-1.32,1.89-1.55,3A142.41,142.41,0,0,1,392.28,110c-2.14,4.62-4.62,9-8.5,12.49-3.52,3.13-7.86,3.66-10.59,1a11.13,11.13,0,0,1-3.33-7,81.14,81.14,0,0,1,2-26.35c.48-2.12.06-3.84-1.49-4.14-2-.39-3,.86-3.53,2.62a173.86,173.86,0,0,1-9.61,24.08c-3.94,8.13-8.23,16.09-14.87,22.48a21.6,21.6,0,0,1-10.17,5.92c-5.53,1.28-9.69-1.84-9.89-7.49A37,37,0,0,1,324,121.42c.84-2.73,2.17-5.35,2.35-8.27.1-1.65-.24-3.24-2.25-3.1-1.8.13-2.65-.76-3.59-2a12.92,12.92,0,0,0-10-5.27c-8.72-.46-14.88,4-20,10.37-4.37,5.38-6.84,11.66-8.94,18.24a101.93,101.93,0,0,1-12.9,27.2c-3.21,4.63-6.8,8.83-12.4,10.75-3.23,1.1-5.29.14-5.86-3.15-.61-3.54.15-7,.74-10.5.88-5.1,1.92-10.19,1.75-15.4-.15-4.54-1.1-8.93-5.82-10.91-5.77-2.42-11.23-1.23-16.17,2.41-6.29,4.64-9.91,11.28-13.21,18.11C216.47,152.42,215.43,155,214.12,158ZM198.94,45.75c.39-6.94-4.59-13-10.9-15.94a2.38,2.38,0,0,0-3.26.84,2.32,2.32,0,0,0,.39,3.37,17.24,17.24,0,0,0,2.08,1.51c7.31,4.54,8.62,12,3.31,18.79-4.1,5.22-9.62,8.63-15.3,11.76-13.4,7.38-27.72,12.66-42,18C115.18,90.87,97,97.25,79.14,104.75c-16.81,7.09-33.28,14.88-47.79,26.13-10.32,8-18.81,17.48-22,30.65-1.56,6.46-1.73,12.89.79,19.19.69,1.73,1.89,2.88,3.83,2.05s1.87-2.4,1.19-4c-2.52-6-1.85-12-.07-18,2.11-7.11,6.28-12.95,11.39-18.21,10.35-10.64,23-17.95,36.1-24.42a464.52,464.52,0,0,1,42.9-18c3.07-1.15,6.13-2.34,9.19-3.52,2.11-.82,3.14-.26,2.78,1.69-.67,3.65-.56,7.34-.8,11-.53,8.29-1.19,16.58-1.81,24.87-.49,6.65-1.09,13.28-1.49,19.93-.4,6.81-1.16,13.58-1.55,20.38-.24,4.14-.63,8.28-1,12.41-.78,7.88-1.76,15.73-2.47,23.61-.54,6-1.47,11.81-4.12,17.2-1,2.08-.23,3.24,1.26,4.07,1.8,1,2.9-.26,3.68-1.79a40.07,40.07,0,0,0,3.6-11.27c.9-5,1.28-10.09,1.84-15.14,1.17-10.51,2.07-21.06,2.89-31.6.6-7.74,1.23-15.47,1.82-23.2.7-9.22,1.44-18.46,1.9-27.7.37-7.29,1.45-14.53,1.29-21.85a29.93,29.93,0,0,1,.42-3.74,3.31,3.31,0,0,1,2.61-2.91c4-1.4,8.09-2.81,12.08-4.35,7.59-2.94,15.21-5.83,22.7-9,10.26-4.35,20.45-8.94,29.13-16.13C194.71,58.7,199,53.6,198.94,45.75ZM156.46,159.62a21.54,21.54,0,0,0-9.23,21.53c.71,3.65,3.05,5.59,6.82,5.49,6.83-.19,10.33-5.51,14.53-9.88a12.32,12.32,0,0,1-10.41-5.18C155.5,168.06,156.36,164,156.46,159.62Z"/><path class="cls-4" d="M286.28,138c1-11,5.43-20.19,14.38-26.91,3-2.29,6.49-3.62,10.52-2.75,4.66,1,8.2,6,7.08,10.75A54.52,54.52,0,0,1,301.7,147.6a15.36,15.36,0,0,1-3.22,2.27c-4.11,2.11-9.21-.17-11-4.7A20.4,20.4,0,0,1,286.28,138Zm8.74-.68c.32,1-.39,2.15.6,2.57s1.42-.74,2.09-1.22a1.76,1.76,0,0,0,.31-.35c5.05-5.53,8.43-12,11-19,.28-.76.6-1.82-.16-2.44s-1.47.14-2.18.41a4.85,4.85,0,0,0-1.4.83C299.21,123.17,296.47,130,295,137.31Z"/></g></g></svg>