<?xml version="1.0" encoding="utf-8"?>
<!-- Generator: Adobe Illustrator 23.0.1, SVG Export Plug-In . SVG Version: 6.00 Build 0)  -->
<svg version="1.1" id="Layer_1" xmlns="http://www.w3.org/2000/svg" xmlns:xlink="http://www.w3.org/1999/xlink" x="0px" y="0px"
	 viewBox="0 0 454.1 240.5" style="enable-background:new 0 0 454.1 240.5;" xml:space="preserve">
<style type="text/css">
	.st0{fill:#FFFFFF;}
</style>
<title>Asset 5</title>
<image style="overflow:visible;" width="719" height="1280" xlink:href="../../novos/B024FBEF-155F-467C-B02A-EF158E1C8C0C.jpg"  transform="matrix(0.4548 0 0 0.4548 1431.3334 22)">
</image>
<path class="st0" d="M241.2,33.2c-0.4,6.5-1.2,12.9-2.4,19.3c-1.4,7-3.1,14-5.2,20.8c-2.3,7.7-4.9,15.3-7.9,22.7
	c-2.3,5.6-4.7,11.2-7.1,16.8c-0.3,0.6-0.4,1.6-1.3,1.4s-0.6-1.2-0.5-1.8c1.4-13,2.5-26.1,4.3-39.1c1-7.1,1.9-14.2,3.1-21.2
	c1.8-10.4,3.7-20.9,7.6-30.8c0.6-1.7,1.5-3.3,2.6-4.7c1.7-2,2.6-2,4,0.3c0.9,1.5,1.5,3.1,1.6,4.8C240.3,25.5,241.6,29.3,241.2,33.2z
	"/>
<path class="st0" d="M237.7,144.7c-3.2,3.2-5.1,7-6.9,10.8c-4.4,9.7-7.7,20-9.7,30.4c-0.9,4.4-2.4,8.4-6.8,10.6
	c-7.6,3.8-16.8-1.6-17-10c0-1.6,0.1-3.1,0.1-4.7c0-0.6,0.2-1.4-0.4-1.7c-0.9-0.4-1.1,0.6-1.5,1.1c-4.9,6.6-10.1,13-16.3,18.5
	c-4.9,4.3-10.3,8-16.7,9.5c-12.9,2.9-28.6-1.2-35.4-15.7c-0.4-0.9-1-1.8-1.7-2.5c-0.3,2.4-0.8,4.8-1,7.2c-0.5,8.5-1.6,17-3.2,25.4
	c-0.8,4.2-2.3,8.1-4.6,11.7c-3.4,5.2-10.3,6.9-15.6,3.6c-5.3-2.9-7.4-9.6-4.6-15c1.2-2.4,2-4.9,2.5-7.5c1.9-12.6,2.7-25.3,3.9-37.9
	c1.3-14,2.2-28,3.4-42c0.7-8.2,1.1-16.4,1.7-24.7c0.2-2-0.5-2.5-2.3-1.8c-17.8,6.8-35.5,13.6-52,23.2c-8.3,4.8-16.2,10.2-22.6,17.6
	c-4.9,5.7-8.2,12-8.2,19.8c0.1,1.7,0.5,3.4,1.2,5c3.1,8.1-2.5,16.1-11.1,15.8c-4.1,0-7.9-2.4-9.6-6.1c-3.3-6.5-3.8-13.5-3-20.7
	c1.3-12.4,7.2-22.6,15.6-31.4c10.6-11.2,23.7-19,37.3-26c15.4-7.9,31.5-14.1,47.7-20.1c16.7-6.2,33.6-11.9,50.1-18.7
	c9.3-3.8,18.6-7.8,26.9-13.5c2.3-1.5,4.3-3.4,5.9-5.6c1.2-1.4,1.1-3.5-0.3-4.7c0,0-0.1-0.1-0.1-0.1c-0.8-0.7-1.6-1.4-2.5-2
	c-4.1-2.7-6.1-6.4-5.5-11.4c0.3-4.6,3.4-8.6,7.9-9.9c3.6-1.2,7.5-0.6,10.6,1.5c6,4,10.6,8.8,12.8,15.9c4.1,12.9-0.4,23-10,31.4
	c-8.6,7.5-18.9,12.4-29.3,17c-10.7,4.6-21.6,8.8-32.7,12.6c-1.9,0.7-2.7,1.6-2.8,3.8c-0.7,12.6-1.9,25.2-2.6,37.8
	c-0.3,4.2-0.6,8.4-1,12.7c-0.2,1-0.1,2.1,0.5,3c0.8-1.3,1.5-2.6,2.3-3.8c5.1-7.9,11.8-14,21-16.7c10-2.9,20.1-0.3,25.1,9.6
	c0.2,0.7,0.7,1.2,1.3,1.7c1.4,0.7,2.7,1.7,3.7,2.9c0.9,1.3,1.6,2.6,2.5,4c0.9-0.1,1.1-0.9,1.6-1.6c4.9-8,9.6-16.2,14.2-24.4
	c1.2-2.1,1.2-4.4,1.4-6.6c1.8-22.2,4.1-44.3,7.5-66.3c1.8-11.7,3.8-23.3,7.4-34.5c1.9-5.9,4.2-11.5,8.6-16
	c6.1-6.3,16.1-6.6,22.5-0.5c0.9,0.8,1.6,1.7,2.3,2.7c4.2,6.2,5.1,13.2,5.5,20.4c0.7,16.1-2.8,31.5-7.3,46.8
	c-4.4,14.9-9.8,29.5-16.1,43.6c-0.3,0.6-0.9,1.3-0.3,2s1.3,0,2-0.2c10.8-3.3,21.1,0.3,25.9,9.2c3.3,6,2.8,12.6,2,19.1
	c-0.3,1.6-0.4,3.2-0.2,4.8c1.9-2.4,3.6-4.9,4.9-7.7c3.4-6.8,5.8-13.9,8.3-21.1c4.8-13.9,12.8-25.3,27.6-29.8
	c8.5-2.6,16.7-1.2,23.5,5.2c0.8,0.8,1.7,1.3,2.8,1.8c5.8,2.3,8.8,8.7,6.8,14.5c-1.3,4.3-2.5,8.7-3.8,13.1c-0.2,0.8-0.5,1.7,0.1,2.2
	s1.5-0.2,2.1-0.6c4.6-3.2,7.7-7.8,10.5-12.5c6.1-10.5,11-21.6,14.4-33.2c1.7-5.7,7.5-9.3,13.4-8.2c5.4,0.9,9.7,6.1,9.4,11.3
	s-2.1,10.1-2.5,15.3c-0.3,2.7-0.4,5.3-0.4,8c0,0.7-0.3,1.8,0.7,2c0.8,0.2,1.1-0.7,1.5-1.3c2.6-3.8,4.7-8,6.2-12.4
	c2.9-7.5,5.1-15.2,6.7-23c1.3-6.3,7.4-10.4,13.8-9.3c6.3,1.2,10.3,7.3,9.1,13.6c-1.1,6.1-1.9,12.1-0.7,18.2c0.7,3.5,1.8,6.7,5.7,7.6
	c4.3,1,8.4,0.6,11.6-2.7c2.7-2.8,5.8-4.6,9.8-4.3c4.6,0.1,8.7,3,10.3,7.4c1.8,4.6,0.8,8.8-2.5,12.4c-5.1,5.7-12.1,9.5-19.8,10.5
	c-10,1.5-19.3-0.2-27.3-6.8c-1.4-1.2-2-0.5-2.7,0.6c-2.5,3.9-5.6,7.4-9.2,10.3c-8.1,6.4-19.6,6.4-27.6-0.2c-1.4-1.1-2-0.8-2.9,0.5
	c-4.5,6.5-9.6,12.5-16.5,16.5c-8.2,4.8-16.7,5.6-25.4,1.7c-1.5-0.7-2.3-0.4-3.4,0.8c-3.9,4.3-8.1,8-13.8,9.9
	c-5.3,2-11.2,1.7-16.2-0.8c-1.8-0.8-2.5-0.5-3.5,1.1c-4.4,6.8-9.3,13-16.6,16.8c-6.9,3.6-13.9,4.6-21,0.8c-6.5-3.4-8.6-9.4-9-16.2
	c-0.3-5.8,1.1-11.6,2-17.3C238.1,146.7,238.1,145.6,237.7,144.7z M214.1,158c-0.6-0.7-0.9-1.7-0.7-2.7c0.5-7.3,1.1-14.6,1.6-21.8
	c0-1.3,0.4-2.5,0.9-3.6c6.3-11.3,11.1-23.2,15.9-35.2c3.1-8,5.8-16.3,8.1-24.6c2.9-10.6,5.6-21.2,6.1-32.3
	c0.3-7.5,0.4-14.9-2.2-22.1c-1.2-3.2-3.4-5.6-6.8-6.1s-5.6,1.4-7.3,4.2c-1.9,3-3.4,6.3-4.5,9.7c-3.3,11.4-5.8,23.1-7.5,34.8
	c-1.3,8.4-2.3,16.9-3.3,25.4c-1.5,12.5-2.8,25-3.8,37.5c-0.3,3.6,0,7.4-1.9,10.8c-4.3,7.4-8.5,14.9-12.9,22.3
	c-7.1,11.8-14.3,23.5-24.4,33.1c-6,5.6-12.3,10.7-21.6,8.1c-5.3-1.4-9-4.3-10.6-9.4c-2.2-6.6-1.8-13.7,1-20
	c3.2-7.5,8.1-13.5,16.4-15.8c4.3-1.2,7.4,0.8,8.2,5.2c0.6,2.9,0.6,5.8,0.1,8.7c-0.3,1.5,0,3,1.6,3.6c1.4,0.7,3.1,0,3.8-1.4
	c0.9-1.7,2.3-3.2,3.1-4.9s0.1-3-1.1-3.5c-1.8-0.6-1.8-1.8-2-3.2c-0.6-5-3.6-8.6-8.5-9.7c-6.1-1.3-11.4,1-15.9,4.8
	c-11.2,9.4-15.3,21.4-12.5,35.8c2.6,13.5,17.1,18.3,27.9,14.9c6-1.9,10.6-5.8,14.9-10.1c7.1-7.4,13.4-15.6,18.7-24.5
	c4.1-6.7,8.1-13.5,12.2-20.3c0.3-0.4,0.4-1.2,1.1-1c0.6,0.2,0.6,0.9,0.6,1.4c-0.2,1.6-0.5,3.3-0.6,4.9c-0.7,11.5-1.3,23-2,34.6
	c-0.1,1.7,0.3,3.1,2.1,3.4c2,0.4,3-1,3.4-2.8c2-10.9,5.3-21.5,9.6-31.7c2.8-6.6,6.3-12.8,11.6-17.7c2-2,4.6-3.2,7.4-3.4
	c3.1-0.1,5.8,0.6,6.8,4.6c1.1,4.3-0.1,8.3-0.7,12.3c-0.8,5.6-1.9,11.1-1.6,16.8c0.2,3.6,2.9,7.1,6.5,7.6c3.9,0.6,7.9-0.3,11.2-2.4
	c5.5-3.4,9.2-8.5,12.6-13.9c2.1-3.3,3.8-6.8,5.5-10.3c0.3-0.5,0.4-1,1.1-1s0.7,0.6,1,1.1c0.8,1.3,1.7,2.6,2.7,3.8
	c2.5,2.9,6.3,4.4,10.1,4.1c5.4-0.4,9.2-3.7,12.7-7.3c2.8-3,5.3-6.2,7.4-9.6c0.5-0.8,1.3-1.9,1.9-0.2c2.4,6.7,9.6,8.2,14.9,7.5
	c5.5-0.7,9.8-3.6,13.6-7.3c7-6.8,11.6-15.3,15.9-23.9c0.4-1,1-1.8,1.9-2.4c-0.1,2.4,0.7,4.4,1.1,6.4c0.5,3.1,2,5.9,4.4,8.1
	c5.5,5,14.4,3.5,19.9-2.7c4.9-5.5,8-12,10.6-18.8c0.3-0.8,0.5-1.9,1.4-2c1.1-0.1,0.9,1.3,1.2,2c1.4,4.4,3.5,8.3,7.3,11.2
	c5.8,4.4,12.4,5.5,19.4,4.5c5.6-0.7,10.7-3.3,14.5-7.4c1.2-1.3,1.7-2.9,0.3-4.2s-2.9-0.9-4.1,0.5c-3.2,3.5-7.6,5.7-12.4,6.1
	c-7.1,0.8-13.5-0.9-17.7-7.2c-3-4.4-3.6-9.6-3.8-14.8c0-4.9,0.4-9.7,1.3-14.5c0.5-2.7-1.5-4.1-3.9-3.1c-1.3,0.6-1.3,1.9-1.5,3
	c-2.1,10.3-5.4,20.4-9.7,30c-2.1,4.6-4.6,9-8.5,12.5c-3.5,3.1-7.9,3.7-10.6,1c-1.9-1.9-3.1-4.3-3.3-7c-0.8-8.8-0.1-17.7,2-26.3
	c0.5-2.1,0.1-3.8-1.5-4.1c-2-0.4-3,0.9-3.5,2.6c-2.6,8.3-5.8,16.3-9.6,24.1c-3.9,8.1-8.2,16.1-14.9,22.5c-2.8,2.9-6.3,4.9-10.2,5.9
	c-5.5,1.3-9.7-1.8-9.9-7.5c-0.1-4.1,0.5-8.3,1.7-12.2c0.8-2.7,2.2-5.3,2.4-8.3c0.1-1.7-0.2-3.2-2.3-3.1c-1.8,0.1-2.6-0.8-3.6-2
	c-2.3-3.2-6-5.1-10-5.3c-8.7-0.5-14.9,4-20,10.4c-4.4,5.4-6.8,11.7-8.9,18.2c-2.9,9.7-7.3,18.8-12.9,27.2
	c-3.2,4.6-6.8,8.8-12.4,10.8c-3.2,1.1-5.3,0.1-5.9-3.1c-0.6-3.5,0.1-7,0.7-10.5c0.9-5.1,1.9-10.2,1.8-15.4
	c-0.1-4.5-1.1-8.9-5.8-10.9c-5.8-2.4-11.2-1.2-16.2,2.4c-6.3,4.6-9.9,11.3-13.2,18.1C216.5,152.4,215.4,155,214.1,158z M198.9,45.8
	c0.4-6.9-4.6-13-10.9-15.9c-1.1-0.7-2.6-0.3-3.3,0.8c0,0,0,0,0,0c-0.8,1-0.7,2.4,0.3,3.3c0,0,0.1,0.1,0.1,0.1
	c0.7,0.6,1.4,1.1,2.1,1.5c7.3,4.5,8.6,12,3.3,18.8c-4.1,5.2-9.6,8.6-15.3,11.8c-13.4,7.4-27.7,12.7-42,18
	c-18.1,6.8-36.3,13.2-54.1,20.7c-16.8,7.1-33.3,14.9-47.8,26.1c-10.3,8-18.8,17.5-22,30.6c-1.6,6.5-1.7,12.9,0.8,19.2
	c0.7,1.7,1.9,2.9,3.8,2.1s1.9-2.4,1.2-4c-2.5-6-1.9-12-0.1-18c2.1-7.1,6.3-12.9,11.4-18.2c10.4-10.6,23-17.9,36.1-24.4
	c14-6.7,28.3-12.7,42.9-18c3.1-1.2,6.1-2.3,9.2-3.5c2.1-0.8,3.1-0.3,2.8,1.7c-0.7,3.7-0.6,7.3-0.8,11c-0.5,8.3-1.2,16.6-1.8,24.9
	c-0.5,6.6-1.1,13.3-1.5,19.9c-0.4,6.8-1.2,13.6-1.6,20.4c-0.2,4.1-0.6,8.3-1,12.4c-0.8,7.9-1.8,15.7-2.5,23.6
	c-0.5,6-1.5,11.8-4.1,17.2c-1,2.1-0.2,3.2,1.3,4.1c1.8,1,2.9-0.3,3.7-1.8c1.8-3.6,3-7.4,3.6-11.3c0.9-5,1.3-10.1,1.8-15.1
	c1.2-10.5,2.1-21.1,2.9-31.6c0.6-7.7,1.2-15.5,1.8-23.2c0.7-9.2,1.4-18.5,1.9-27.7c0.4-7.3,1.4-14.5,1.3-21.8
	c0.1-1.3,0.2-2.5,0.4-3.7c0.1-1.4,1.2-2.6,2.6-2.9c4-1.4,8.1-2.8,12.1-4.3c7.6-2.9,15.2-5.8,22.7-9c10.3-4.3,20.4-8.9,29.1-16.1
	C194.7,58.7,199,53.6,198.9,45.8z M156.5,159.6c-7.1,4.7-10.7,13.2-9.2,21.5c0.7,3.6,3.1,5.6,6.8,5.5c6.8-0.2,10.3-5.5,14.5-9.9
	c-4.1,0.1-8-1.8-10.4-5.2C155.5,168.1,156.4,164,156.5,159.6z"/>
<path class="st0" d="M286.3,138c1-11,5.4-20.2,14.4-26.9c3-2.3,6.5-3.6,10.5-2.8c4.7,1,8.2,6,7.1,10.8c-2.4,11-8.2,20.9-16.6,28.5
	c-1,0.9-2.1,1.7-3.2,2.3c-4.1,2.1-9.2-0.2-11-4.7C286.7,142.9,286.2,140.4,286.3,138z M295,137.3c0.3,1-0.4,2.1,0.6,2.6
	s1.4-0.7,2.1-1.2c0.1-0.1,0.2-0.2,0.3-0.4c5-5.5,8.4-12,11-19c0.3-0.8,0.6-1.8-0.2-2.4s-1.5,0.1-2.2,0.4c-0.5,0.2-1,0.5-1.4,0.8
	C299.2,123.2,296.5,130,295,137.3L295,137.3z"/>
</svg>
