<?xml version="1.0" encoding="utf-8"?>
<!-- Generator: Adobe Illustrator 23.0.1, SVG Export Plug-In . SVG Version: 6.00 Build 0)  -->
<svg version="1.1" id="Layer_1" xmlns="http://www.w3.org/2000/svg" xmlns:xlink="http://www.w3.org/1999/xlink" x="0px" y="0px"
	 viewBox="0 0 434.3 211.9" style="enable-background:new 0 0 434.3 211.9;" xml:space="preserve">
<style type="text/css">
	.st0{fill:#FFFFFF;}
</style>
<title>Asset 4</title>
<g>
	<path class="st0" d="M173.5,39.2c5.1-0.8,7.3-1.2,7.3-1.2s-1.7-11.8-2.3-14.7s-1.5-8.1-1.5-8.1c-9.4,0.9-18.7,2.3-27.9,4.4
		C134.1,23,104.6,31.7,98.3,34l-0.9,0.3l-0.2,1.2c0,0,9.4,19.1,11,26.8c2,10.3,3.2,20.8,3.7,31.3c0.4,10.4,1.2,33.4,1.2,33.4
		s0.8,24.3,0.9,27.9c0.1,3.6,1.2,25.5,1.2,25.5s17.7-9.3,26.6-11.9c8.9-2.6,16.3-5.4,20.1-6.2c5.8-1.2,11.8-2,17.7-2.3
		c0,0-2.8-11.9-3.2-13.6s-1.9-8.5-1.9-8.5s-10.5,1-14.8,2c-4.3,1-15.7,4-15.7,4l-5,1.7c0,0-1,0-1.2-1.5c-0.2-1.5-2-36.9-2-36.9v-2.5
		c0,0,7.7-5.7,10.4-7.1s4.5-4,6.6-4.2s8.6-1.2,10.7-1.8c2-0.6,7.3-1.6,7.9-1.9c0.6-0.3,1.5-4.9,1.7-6.2c0.2-1.4,2.5-13.8,2.8-17.3
		L158,69.4c0,0-9.7,1.2-11.8,2.8c-3.5,2.5-7.2,4.8-11,6.9c-0.4,0-1.2,0.8-1.5-4.6c-0.3-5.4-1.3-13.1-4.9-25c0,0,13-4.4,20.8-5.9
		C157.5,42.1,168.3,40,173.5,39.2z M123.3,45.5c-1.7,0.8-0.9,2.4-0.5,5.4c0.7,3.9,1.7,7.8,3,11.6c1,2.4,0.9,10.2,1.1,12.3
		c0.2,2.2,0,7.9,0,7.9c-1-1.1-1.8-2.3-2.5-3.6c-0.8-1.8-1.2-3.7-1.2-5.7c0.1-1.6-0.2-3.1-0.9-3c-0.7,0.1-0.4,3.8-0.3,5.7
		s2,6.8,2,6.8l-1,2.4l-1.9,3.4l-1.5-6.7c0,0-1.5-6.8-2.5-9.7c-0.9-3-0.8-7.6-0.6-10.2s-0.7-5.1-1.8-9.4c-1.1-4.3-7.5-10.8-7.5-10.8
		c-0.6-0.2-1.1-0.6-1.3-1.2c-0.2-0.7,0-1.4,0.5-1.8c0,0,7-3.8,9.3-4.8c1.8-0.8,3.8-1,5.7-0.7c2.1,0.2,9.3-2.8,9.3-2.8l22.9-7.2
		c0,0,13-2.9,15.3-3.1c2.3-0.2,3,2.6,3.2,3.2c0.2,0.7,0.8,7,0.7,7.2c0,0.2-5.6,2.4-8.5,3.6s-7.5,0-8.7,0s-2.6,1.2-3.9,1.7
		c-1.4,0.5-9.3,3.5-10.2,3.8C140.8,40.1,125.1,44.7,123.3,45.5z"/>
	<path class="st0" d="M261.5,110.7l-0.7-28.8c0,0,18.3-40.7,27.8-56.2s9.3-16.5,9.1-16.7c-0.2-0.2-5.6-2.2-5.6-2.2l-15.7-6.6
		c0,0-1.2-1.3-3.3,1.8c-2.1,3-11.7,17.3-17.8,31.5c-6.1,14.2-17.1,41.4-17.4,45.1c-0.3,3.7-0.4,7.5-0.4,7.5h-0.6
		c0,0-10-22.5-14.8-31.8c-5.4-10.9-10.1-22-14.3-33.4c-2.2-6.5-3-9.3-3-9.3l-17.2,3.5l-5.6,1.8c0,0,3.6,16.5,3.9,24.9
		c0.3,8.4,0.3,23,0.9,26.1c0.5,3.1,1.5,9.6,1.3,11.9c-0.2,2.3-1.7,16-2.7,18.5c-1,2.5-2.2,13.5-2.6,19.6s-1,12.6-0.1,19.4
		c0.9,6.7,2.3,19,2.3,19l23.3-6.8c0,0-3.1-9-2.9-16.8c0.1-7.8-0.1-18,1.6-25.6c1.7-7.6,3.3-14.4,3.6-17.4c0.3-3,0-3.6,0-3.6h1.2
		c0,0,25.7,57.5,30.3,73.6l22.2-5.6L261.5,110.7z M220,77c-0.6-0.7-2-2.2-2.3-3.4c-0.3-1.2-3.4-6.6-3.4-6.6s-4.1-6.1-5.2-8.5
		c-1.2-2.4-5.6-7.5-6.2-7.4c-0.5,0.1-0.6,1.1-0.8,2.6c-0.1,1.5,0.3,2.3,0.6,5c0.3,2.7,1.1,7.1,0,8.4c-1.1,1.3-2.1,7-2.4,8.2
		c-0.3,1.2,0.8,4.9,0.8,7.1c0,2.2-3,7.3-3,7.3L197,82l-4.3,4c1-4.5,0.7-15.4,0.5-17.3c-0.2-1.9-1.6-7.7-1.6-8.6c0-0.9,1.4-7,1.6-9.9
		c0.2-2.9-2-9-2.4-9.8s-1.6-6-1.3-8.4c0.3-2.4-2-9.8-2-9.8c0.3-1,4.9-1.7,5.6-1.7c0.7,0,3.5-0.2,4.5-1s5.4-1.5,5.4-1.5
		s0.4,4.8,0.5,6c0.2,1.2,1.3,7.7,1.9,9.5c0.5,1.8,4.6,9,6.4,10.8c1.8,1.8,2.1,5.8,2.9,7.2c1.9,4.1,3.4,8.3,4.5,12.7
		c0.6,2.6,1.6,5.1,2.9,7.5l7.5,13.3C229.6,85,220.6,77.7,220,77z M254.3,85.8c0.4,1.3,2,1.2,1.9,3.4c-0.2,2.2-0.2,13.7-0.2,13.7
		l0.4,12.2c0,0-3.8-10.7-4.2-12.3c-0.4-1.6-1.1-6.3-1.5-6.9c-0.5-0.6-0.9-1.4-1.1-2.2c-0.1-0.7-0.8-3.4-1.6-3s-1.4,4.6-1.4,4.6
		l-1.5-3.7c0,0-2.5-11.6-2.1-13.3c0.9-2.8,2.1-5.6,3.5-8.3c0.6-1,2.8-2.8,3.2-5.4c0.8-3.2,1.8-6.3,3.2-9.3
		c1.2-2.8,5.5-10.7,6.1-12.3c0.5-1.6,2.8-8.6,4.5-9.7c1.6-1.1,4.7-8,7.1-10.3c1.8-1.8,3.5-3.8,5-5.9l-1.1-1.8l2.8-6.1
		c0,0,0.3-1.4,1.5-1.3c1.2,0.1,7.8,2.4,8.2,2.5c0.5,0.1,2,0.3,2,0.9c0,0.7-5.6,8.6-7.1,11.4c-1.5,2.8-8,13.3-9.4,15
		c-1.4,1.7-6.5,13.7-6.5,13.7s-3,7.9-3.9,10.1s-4.8,11-4.8,11s-2.1,3.1-2.1,4.2C255,77.6,253.8,84.5,254.3,85.8z"/>
	<path class="st0" d="M335.3,105.2c0-0.7,0.2-1.4,0.4-2.1c0-0.3,5.5-14.4,7-20.6c1.5-6.2,2.7-22.5-7.1-32.6s-21.5-9.4-34-7.2
		c-12.5,2.2-20.1,14.4-24.6,26.2s-4.4,18.2-1.4,34.5s6.5,24.6,11.8,34c4.8,8.5,7.4,18.1,7.5,27.9c0.3,9.8-5.2,18.8-8,21.5
		c-2.8,2.7-4.7,0.9-8.6-2.1c-3.9-3-9.1-18.6-9.1-18.6l-23.2,7.8c2.6,8,6.2,15.7,10.8,22.9c5.4,8.8,23.5,20.9,41.3,12
		c17.8-8.9,20.8-31.1,21.4-47.2c0.5-16.1-8.2-30.7-12.1-38.1c-3.9-7.4-8-23.2-9.3-28.7s-0.5-13.4,2.7-20.2c3.1-6.8,8.2-10,14.3-9.3
		c6.2,0.8,3.2,10.5,2.4,13.5c-0.9,4-1.6,8-2,12c0,1.6-1.1,10.4-1.9,12c-1.1,2-1.7,4.2-1.8,6.5c0.1,3.3,0.5,6.6,1,9.8l2.8,0.8l14,5.3
		l2.7-3.9c0,0,4.3-7.1,4.4-9S335.4,105.8,335.3,105.2z M328,119.7c0,0-0.2,1.5-2.3,0.4c-2.1-1-8.5-3.4-9.1-3.6
		c-0.7-0.2-2-0.4-2.2-1.7c-0.2-1.4-0.7-5.5,0.2-7.2s5.4-9.6,5.9-10.8c0.5-1.2,1-6.5,1.7-7.8s5.3-9.2,5.3-10.5s-0.5-7.4-0.6-8.9
		s-0.5-5.9-2.2-8.1c-1.5-2.2-3.7-3.8-6.2-4.7c-2.3-0.6-5.1-1.5-7.8-1.5c-2.7,0.1-5.2,0.7-9.4,4.2c-4.1,3.6-5.6,9-6.1,10.4
		s-3,7.8-3.7,9.2c-0.7,1.4-0.7,7.7-0.5,8.8c0.2,1.1,1.1,11,1.1,11c0.1,1.5,0.5,2.9,1,4.3c0.6,1.2,2.6,5.6,2.6,6.6s-1.7,5.8-1.7,6.9
		c0,1.1-0.2,2.8-0.5,2.5c-0.3-0.4-1.9-3.5-2.2-4.1c-0.3-0.5-1-1.9-1.7-1l0.8,8l-5.6-10.1c-1.2-2.4-2.1-4.9-2.6-7.6
		c-0.8-4.3-1.9-11.9-2.5-14.4c-0.5-3.3-0.5-6.7,0-10.1c0.5-1.9,1.8-4.5,2.5-7.5c0.9-3.5,2.3-6.8,4.1-9.9c1.3-2.1,5.5-9.1,10.3-11.9
		c4.8-2.8,10.2-3.7,10.9-4c0.7-0.4,3-1.1,7.2,0c4.2,1.1,9.7,0.9,12.2,2.2s5.7,3.5,6.8,6c1,2.5,0.9,3.2,2.1,4.7
		c1.1,1.5,2.6,5.8,2.4,10.4c-0.2,4.6-1.2,17.7-1.9,19.6c-0.6,2-4.2,10.5-4.7,11.3s-2.3,3.1-1.9,4.5s2.5,3.3,2.3,5.7
		C331.9,113.4,328,119.7,328,119.7z"/>
	<path class="st0" d="M77.5,67.8c1.4-0.4,12.9-4.7,15-5.7c2.1-1,11.4-4.1,11.4-4.1c-1.1-4-2.6-8-4.2-11.8C97.4,41.7,95.2,36,95.2,36
		l-4.9,1.4c0,0-35.6,12.5-37.2,12.9c-1.6,0.4-10.7,3.3-11.5,4.1s-2.7,2.8-4,2.8c-3.4,0.5-6.8,1.2-10.1,2.3
		c-2.8,0.9-23.6,9.8-23.6,9.8L0,71.2v2l10,19.5c0,0,14.9-6.4,18-7.8s9.8-4,12.6-4.1c1.1-0.1,2.3-0.1,3.4,0c0,0,5-2.9,6-2.8
		c1,0.1,3.7,4.3,3.7,4.3S60,91.7,60,92.6c0,1,2.3,17.1,2.7,18.3c0.4,1.2,1.1,8.5,1.1,11.3c0,2.8,3,24.8,3.7,27.9s2.5,18.7,2.9,27.1
		c0.3,4.8,0.3,9.6,0,14.4l23.8-0.5c0,0-1.1-29.4-2.3-38.4c-1.2-9-4.3-25-4.7-33.5c-0.2-6.1-0.9-12.1-1.9-18.1
		c-0.4-2.3-1.8-10.7-2.1-12.2c-0.3-1.5-2.7-10.3-5.9-14.1c-3.2-3.8-3.8-4.9-3.6-5.4C74.1,68.7,76.1,68.1,77.5,67.8z M68,70.7
		c1,1.9,5.1,7,7.1,9.4c2,2.5,2.6,7.3,2.6,8.5s2.5,13.4,2.5,13.4s-4.1-7.4-4.4-8.2c-0.3-0.7-2.9-7.2-2.9-7.2l-0.6,0.1v0.5
		c0,0,0.7,1.7,1.3,3.5c0.6,1.7,0.7,12,0.6,13.4c-0.1,1.4,0.4,15.7,0.4,15.7h-0.5c0,0-1.7-7.1-2-7.9c-0.7-3.2-1.2-6.5-1.5-9.7
		c-0.3-3.4-0.8-3.9-2.1-7.2c-1.3-3-2.8-5.9-4.6-8.8c-1.1-2.2-2.5-4.2-4.1-6c-1-0.9-4.5-8-5.5-9.3c-1-1.3-2.4-0.7-5.8,0
		c-3.4,0.7-14.3,4.2-15.5,4.8c-1.2,0.6-9,4.3-9,4.3s-7.9,2.1-8.9,2.3c-0.7,0-1.4-0.3-1.8-0.8l-3.7-5.1c-0.2-0.5-0.2-1,0-1.5l3.7-1.7
		l10.9-4.4c0,0,12.4-4.7,16.8-6.1c4.6-1.5,9.1-3.3,13.4-5.3c2.8-1.3,13.7-5.7,19.7-7.1c6-1.4,15.5-5.8,16.7-6.4
		c1.2-0.7,1.8-0.3,1.9,0s1.3,3.3,1.3,3.3s1.9,4.5,1.9,5.4S94.1,54,94.1,54S83,57.5,79.5,58.6c-3.5,1.2-7.9,1.2-11.1,2.1
		c-1.8,0.4-3.2,1.7-4,3.3C64.4,64,67,68.8,68,70.7z"/>
	<path class="st0" d="M433.9,100.1c-1.9-9.9-10-20.6-24.6-25.2c-14.6-4.7-26.5,4.8-36.3,11.3c-9.7,6.5-21.8,18.4-29.9,31.6
		s-10.4,27.6-10.8,44.6c-0.3,17,9.1,30.9,14.5,36.1c5.3,5.2,21,14.7,37.2,5s14.4-24.9,13.5-32.6c-0.9-7.7,0-8.5,0-8.5
		c1.4-3.6,5.7-7.1,9.1-10.1c3.5-3,11.2-9,18.3-20.8S435.7,110,433.9,100.1z M381.1,144.6c-7.8,8.3-7.4,20.2-6.7,27.7
		c0.7,7.5,1.6,9.4-2.3,11.7c-3.9,2.3-8.9,0.3-13.2-7c-4.4-7.3-3.5-20.9-3.5-20.9c1.7-22.8,12.8-34.1,19.8-41.7s21.9-17.5,26.3-17.8
		c4.4-0.4,8,5.4,8.8,8.3c0.8,3-2,9.7-7,17.5C398.2,130.2,389,136.4,381.1,144.6z M424.5,117.4c-1.7,5.5-5,10.3-9.4,14
		c-6.3,5.2-10.4,8.9-10.4,8.9s-2.9,5.6-3.6,6.9c-1.4,1.9-3.1,3.5-5,4.9c-0.9,0.5-2.6,2.4-3.1,1.9c-0.7-1.3-0.5-3,0.4-4.1
		c1.2-1.2,2.2-2.6,3.2-4c0.2-0.4-0.3-1.2-0.9-0.7s-5.2,5.8-5.7,6c-0.9,0.5-2.1,0.4-2.9-0.3c-1.3-1.5-1.3-3.7,0-5.2
		c1.5-1.7,8.9-7.5,10.9-9.3c2.1-1.8,8-7.5,8.7-9.2c0.7-1.6,2.5-6.4,4.1-8.3c1.6-2,6.1-7.1,6.2-9.5c0-2.3,0.2-8.2-1.6-10.4
		c-1.8-2.2-5.7-8-7.7-8.3s-8.5-1.1-12.9,1.1c-4.3,2.2-19.7,13.3-19.7,13.3s-6.3,5.5-7.3,7.8s-2.5,5.3-3.5,6.3
		c-1.6,1.4-2.8,3.3-3.4,5.3c-1.2,3.2-2.4,6.7-3.3,8.5c-0.9,1.8-1.1,2.7-3,2.7c-1.9,0-1.6-0.4-1.7,0.3c-0.1,1-0.1,2,0,2.9
		c0.3,1.1-0.7,3.9-0.7,4.3s-0.7,5.2-0.7,5.2s-2.7-5.1-2.7-5.4v-2.4c-0.1-1.5-0.1-3,0-4.6c0.3-0.7,1.1-1.9,1.1-2
		c0.2-1.5,0.3-3.1,0.3-4.7c-0.1-1,0-1.9,0.4-2.8c1-1.9,1.9-3.9,2.7-5.9c0.5-1.7,2.2-8.7,5.4-12.3c3.2-3.6,14.7-14.3,17.4-15.9
		s12.3-7.8,18.5-9.2c6.2-1.4,13.9-3.4,20.1,0s8.9,7.6,10.4,15S425.4,114.8,424.5,117.4z"/>
</g>
</svg>
