<svg xmlns="http://www.w3.org/2000/svg" xmlns:xlink="http://www.w3.org/1999/xlink" viewBox="0 0 434.32 211.93"><defs><style>.cls-1{fill:url(#Gradiente_sem_nome_6);}.cls-2{fill:url(#Gradiente_sem_nome_6-2);}.cls-3{fill:url(#Gradiente_sem_nome_6-3);}.cls-4{fill:url(#Gradiente_sem_nome_6-4);}.cls-5{fill:url(#Gradiente_sem_nome_6-5);}.cls-6{fill:#677eb9;}.cls-7{fill:#5d7eb6;}.cls-8{fill:#727db7;}.cls-9{fill:#6a7eb9;}</style><linearGradient id="Gradiente_sem_nome_6" x1="51.92" y1="36.02" x2="51.92" y2="191.51" gradientUnits="userSpaceOnUse"><stop offset="0" stop-color="#803f90"/><stop offset="0.18" stop-color="#7d3c8c"/><stop offset="0.38" stop-color="#75357e"/><stop offset="0.59" stop-color="#672969"/><stop offset="0.8" stop-color="#53184b"/><stop offset="1" stop-color="#3c0326"/></linearGradient><linearGradient id="Gradiente_sem_nome_6-2" x1="138.97" y1="15.19" x2="138.97" y2="180.38" xlink:href="#Gradiente_sem_nome_6"/><linearGradient id="Gradiente_sem_nome_6-3" x1="239.83" y1="0" x2="239.83" y2="159.85" xlink:href="#Gradiente_sem_nome_6"/><linearGradient id="Gradiente_sem_nome_6-4" x1="294.73" y1="41.35" x2="294.73" y2="211.93" xlink:href="#Gradiente_sem_nome_6"/><linearGradient id="Gradiente_sem_nome_6-5" x1="383.34" y1="73.65" x2="383.34" y2="207.65" xlink:href="#Gradiente_sem_nome_6"/></defs><title>Asset 4</title><g id="Layer_2" data-name="Layer 2"><g id="Camada_1" data-name="Camada 1"><path class="cls-1" d="M10,92.64s14.9-6.42,18-7.84,9.79-4,12.61-4.13a21,21,0,0,1,3.38,0s5-2.94,6-2.83,3.7,4.35,3.7,4.35,6.31,9.47,6.31,10.45,2.28,17.07,2.72,18.27,1.08,8.48,1.08,11.31,3,24.8,3.7,27.85,2.5,18.7,2.94,27.08a129.42,129.42,0,0,1,0,14.36L94.27,191S93.18,161.6,92,152.57s-4.35-25-4.67-33.5A136.3,136.3,0,0,0,85.4,101c-.43-2.34-1.79-10.66-2.06-12.18s-2.67-10.34-5.88-14.09-3.8-4.89-3.59-5.44,2.23-1.14,3.59-1.52,12.86-4.68,15-5.65S103.84,58,103.84,58A90,90,0,0,0,99.6,46.19C97.42,41.73,95.19,36,95.19,36L90.3,37.43S54.67,49.92,53.08,50.36s-10.73,3.26-11.53,4.13-2.68,2.83-4,2.83a66.73,66.73,0,0,0-10.15,2.25c-2.76.87-23.57,9.79-23.57,9.79L0,71.17v2Z"/><path class="cls-2" d="M97.24,35.49s9.35,19.08,11,26.76a213.13,213.13,0,0,1,3.7,31.26c.36,10.44,1.23,33.42,1.23,33.42s.8,24.3.87,27.92,1.16,25.53,1.16,25.53,17.69-9.29,26.61-11.9,16.25-5.36,20.09-6.23A110.06,110.06,0,0,1,179.61,160s-2.75-11.89-3.19-13.56-1.95-8.48-1.95-8.48S164,139,159.67,140s-15.73,4-15.73,4l-5,1.74s-.95,0-1.17-1.52-2-36.93-2-36.93v-2.55s7.67-5.71,10.38-7.07,4.46-4,6.64-4.24,8.65-1.2,10.68-1.78,7.32-1.6,7.9-1.89,1.45-4.85,1.67-6.23,2.54-13.78,2.83-17.33l-17.84,3.19s-9.65,1.16-11.75,2.75a128.2,128.2,0,0,1-11,6.89c-.36,0-1.23.8-1.52-4.57s-1.31-13.05-4.86-25c0,0,13-4.43,20.81-5.88S168.3,40,173.45,39.19,180.7,38,180.7,38,179,26.21,178.38,23.31s-1.52-8.12-1.52-8.12a216.06,216.06,0,0,0-27.92,4.42C134.08,23,104.64,31.72,98.26,34l-.87.27Z"/><path class="cls-3" d="M184.87,156.27l23.28-6.75s-3.05-9-2.94-16.75-.11-18,1.63-25.56,3.34-14.43,3.59-17.4,0-3.56,0-3.56h1.24s25.74,57.51,30.31,73.6l22.19-5.65-2.62-43.51-.72-28.79s18.35-40.68,27.77-56.19S297.88,9.24,297.67,9s-5.59-2.17-5.59-2.17L276.42.25S275.19-1,273.08,2s-11.74,17.33-17.83,31.55-17.12,41.4-17.41,45.1-.43,7.54-.43,7.54h-.58S226.82,63.7,222,54.42A334.88,334.88,0,0,1,207.71,21c-2.17-6.53-3-9.25-3-9.25l-17.19,3.48L181.94,17s3.58,16.53,3.91,24.91.33,23,.87,26.1,1.52,9.61,1.31,11.88-1.74,16-2.72,18.47-2.18,13.49-2.61,19.58-1,12.62-.11,19.36S184.87,156.27,184.87,156.27Z"/><path class="cls-4" d="M245.75,173.92l23.2-7.76s5.22,15.59,9.14,18.64,5.87,4.79,8.63,2.1,8.34-11.75,8-21.53a58,58,0,0,0-7.47-27.92c-5.22-9.36-8.7-17.7-11.75-34s-3.12-22.7,1.38-34.52,12.14-24,24.65-26.21,24.26-2.94,34.05,7.18,8.59,26.43,7.07,32.63-7,20.23-7,20.56a9.8,9.8,0,0,0-.37,2.14c.11.61,1.2,5.22,1.05,7.1s-4.42,9-4.42,9l-2.68,3.92L315.21,120l-2.82-.84a83,83,0,0,1-1-9.82,15.29,15.29,0,0,1,1.85-6.53c.83-1.56,1.92-10.4,1.92-12a91.47,91.47,0,0,1,2-12c.76-3,3.8-12.72-2.4-13.49s-11.2,2.4-14.35,9.25-3.91,14.68-2.66,20.23,5.37,21.32,9.29,28.72,12.62,22,12.07,38.07-3.57,38.28-21.36,47.2-35.81-3.19-41.25-12A102.81,102.81,0,0,1,245.75,173.92Z"/><path class="cls-5" d="M433.85,100.14c-1.85-9.9-10-20.56-24.59-25.23S382.72,79.66,373,86.18s-21.76,18.42-29.88,31.62-10.44,27.59-10.77,44.56,9.14,30.89,14.47,36.11,21,14.68,37.2,5,14.36-24.91,13.49-32.63,0-8.48,0-8.48c1.41-3.59,5.65-7.07,9.13-10.12s11.21-9,18.28-20.81S435.7,110,433.85,100.14Zm-30.6,22.3c-5.08,7.76-14.29,13.92-22.12,22.19s-7.4,20.16-6.67,27.7,1.59,9.42-2.32,11.74-8.85.29-13.2-7-3.48-20.88-3.48-20.88c1.74-22.77,12.76-34.08,19.8-41.7s21.89-17.47,26.25-17.83,8,5.36,8.77,8.33S408.32,114.68,403.25,122.44Z"/><path class="cls-6" d="M9.75,76.32l3.65,5.11a2.23,2.23,0,0,0,1.79.82c1-.17,8.87-2.29,8.87-2.29s7.81-3.68,9-4.26,12.14-4.11,15.51-4.82,4.74-1.3,5.77,0,4.46,8.32,5.49,9.25a31.5,31.5,0,0,1,4.13,6,69,69,0,0,1,4.57,8.75c1.25,3.32,1.8,3.87,2.07,7.24a78.86,78.86,0,0,0,1.52,9.73c.27.82,2,7.94,2,7.94h.49s-.49-14.3-.43-15.66-.06-11.64-.65-13.38-1.25-3.48-1.25-3.48v-.49l.59-.11s2.61,6.47,2.89,7.18S80.13,102,80.13,102s-2.45-12.29-2.45-13.43-.65-6-2.61-8.48S69,72.51,68,70.66,64.41,64,64.41,64a6.05,6.05,0,0,1,4-3.32c3.16-.92,7.56-.92,11.1-2.07S94.12,54,94.12,54,96,53.48,96,52.5s-1.88-5.44-1.88-5.44-1.27-3.05-1.34-3.3-.66-.65-1.85,0-10.73,5-16.72,6.4S57.34,56,54.51,57.28a134.68,134.68,0,0,1-13.43,5.33c-4.35,1.36-16.75,6.1-16.75,6.1L13.4,73.11,9.75,74.8A1.77,1.77,0,0,0,9.75,76.32Z"/><path class="cls-6" d="M107.25,41.88s6.38,6.52,7.47,10.8,2,6.82,1.81,9.43-.29,7.25.65,10.22,2.47,9.72,2.47,9.72l1.52,6.67,1.88-3.41,1-2.39s-1.89-4.86-2-6.75-.44-5.65.29-5.72,1.09,1.37.94,3a13.39,13.39,0,0,0,1.16,5.66,20,20,0,0,0,2.47,3.62s.22-5.73,0-7.9-.07-9.94-1.09-12.33a68.71,68.71,0,0,1-3-11.6c-.43-3-1.23-4.64.51-5.44s17.44-5.39,18.26-5.66,8.81-3.21,10.17-3.75,2.72-1.69,3.91-1.69,5.77,1.26,8.7,0,8.49-3.48,8.54-3.64-.49-6.53-.7-7.18-.87-3.42-3.21-3.21-15.34,3.1-15.34,3.1l-22.93,7.16s-7.18,3.05-9.28,2.83a9.24,9.24,0,0,0-5.66.65c-2.32,1-9.28,4.79-9.28,4.79a1.61,1.61,0,0,0-.51,1.81A1.91,1.91,0,0,0,107.25,41.88Z"/><path class="cls-6" d="M187.48,22.26s2.29,7.4,2,9.79.87,7.61,1.31,8.38,2.61,6.85,2.39,9.78-1.63,9-1.63,9.9,1.44,6.75,1.64,8.6.53,12.83-.45,17.29L197,82l1.08,7.5s3.05-5.11,3.05-7.29-1.09-5.87-.76-7.07,1.3-6.85,2.39-8.15.33-5.66,0-8.38-.69-3.48-.58-5,.22-2.5.76-2.58,5,5,6.17,7.44S214.35,67,214.35,67s3.12,5.4,3.37,6.6S219.39,76.28,220,77s9.59,8,9.59,8l-7.5-13.27a27.33,27.33,0,0,1-2.94-7.45,70.58,70.58,0,0,0-4.51-12.67c-.87-1.42-1.09-5.44-2.94-7.23s-5.88-9-6.42-10.77-1.68-8.27-1.85-9.47-.54-6-.54-6-4.41.71-5.39,1.47-3.75,1-4.46,1S187.81,21.23,187.48,22.26Z"/><path class="cls-7" d="M256.33,115s-3.8-10.66-4.24-12.29-1.09-6.31-1.52-6.85a5.81,5.81,0,0,1-1.09-2.18c-.11-.65-.76-3.37-1.63-3s-1.41,4.57-1.41,4.57l-1.53-3.7s-2.5-11.64-2.06-13.27A57.8,57.8,0,0,1,246.33,70c.65-1,2.77-2.83,3.23-5.44a53.28,53.28,0,0,1,3.18-9.35c1.2-2.83,5.55-10.66,6.1-12.29s2.82-8.6,4.46-9.68,4.67-8,7.07-10.34a52.27,52.27,0,0,0,5-5.87l-1.09-1.85,2.83-6.09s.33-1.38,1.52-1.31,7.76,2.43,8.23,2.51,2,.29,2,.94-5.58,8.59-7.11,11.38-8,13.29-9.44,15-6.46,13.71-6.46,13.71-3,7.93-3.93,10.06-4.84,11-4.84,11-2.12,3.15-2.12,4.19-1.14,7.94-.71,9.19,2,1.19,1.85,3.37-.16,13.7-.16,13.7Z"/><path class="cls-8" d="M289.62,114.1l.81,8L284.83,112a29.56,29.56,0,0,1-2.61-7.56c-.81-4.25-1.9-11.91-2.45-14.42a33.08,33.08,0,0,1,0-10.09c.49-1.92,1.8-4.53,2.45-7.53a42,42,0,0,1,4.08-9.89c1.25-2.07,5.49-9.09,10.33-11.91s10.23-3.65,10.93-4,3.05-1.09,7.24,0,9.73.93,12.23,2.23,5.71,3.54,6.75,6,.92,3.21,2.06,4.68,2.62,5.82,2.4,10.39-1.2,17.67-1.85,19.63-4.19,10.5-4.68,11.31-2.34,3.1-1.9,4.46,2.5,3.27,2.28,5.66-4.08,8.75-4.08,8.75-.21,1.47-2.28.44-8.48-3.43-9.14-3.64-2-.39-2.23-1.74-.65-5.5.22-7.24,5.44-9.58,5.93-10.8,1-6.55,1.74-7.8,5.27-9.19,5.27-10.55S327,71,326.89,69.5s-.51-5.87-2.18-8.08a12.49,12.49,0,0,0-6.23-4.68c-2.25-.58-5.08-1.52-7.76-1.45s-5.22.65-9.36,4.21-5.58,9-6.09,10.44-3,7.83-3.69,9.21-.66,7.68-.51,8.77,1.09,11,1.09,11a16.84,16.84,0,0,0,1,4.28c.65,1.16,2.61,5.58,2.61,6.6s-1.74,5.8-1.74,6.89-.22,2.82-.51,2.46-1.88-3.55-2.17-4.06S290.34,113.16,289.62,114.1Z"/><path class="cls-9" d="M352.92,135.82a9.76,9.76,0,0,0,0,2.93c.27,1.15-.71,3.92-.71,4.3s-.7,5.17-.7,5.17-2.72-5.06-2.72-5.44v-2.4a25.43,25.43,0,0,1,0-4.56c.27-.66,1.09-1.85,1.09-2a34.12,34.12,0,0,0,.27-4.67,5.29,5.29,0,0,1,.43-2.83,57.2,57.2,0,0,0,2.67-5.87c.54-1.69,2.23-8.71,5.38-12.3S373.37,93.89,376,92.25s12.34-7.77,18.49-9.19,13.86-3.42,20.06,0,8.87,7.62,10.39,15,.49,16.7-.43,19.31a30.42,30.42,0,0,1-9.36,14.05c-6.25,5.15-10.39,8.92-10.39,8.92s-2.86,5.58-3.62,6.89a24.86,24.86,0,0,1-5,4.93c-.94.54-2.61,2.39-3.12,1.85a3.8,3.8,0,0,1,.44-4.14,25.24,25.24,0,0,0,3.15-4c.18-.4-.25-1.23-.94-.69s-5.18,5.84-5.66,6a2.48,2.48,0,0,1-2.87-.33,3.94,3.94,0,0,1,0-5.18c1.46-1.67,8.86-7.47,10.92-9.28s8-7.54,8.69-9.18,2.5-6.36,4.13-8.32,6.15-7.12,6.2-9.46.16-8.21-1.63-10.44-5.66-8-7.67-8.32-8.54-1.09-12.89,1.08S375.18,105,375.18,105s-6.31,5.51-7.25,7.76-2.46,5.29-3.55,6.31a12.06,12.06,0,0,0-3.41,5.29c-1.23,3.19-2.39,6.67-3.34,8.49s-1.08,2.68-3,2.68S353,135.12,352.92,135.82Z"/></g></g></svg>