<?xml version="1.0" encoding="utf-8"?>
<!-- Generator: Adobe Illustrator 23.0.1, SVG Export Plug-In . SVG Version: 6.00 Build 0)  -->
<svg version="1.1" id="Layer_1" xmlns="http://www.w3.org/2000/svg" xmlns:xlink="http://www.w3.org/1999/xlink" x="0px" y="0px"
	 viewBox="0 0 441.9 290.8" style="enable-background:new 0 0 441.9 290.8;" xml:space="preserve">
<style type="text/css">
	.st0{fill:#FFFFFF;}
</style>
<title>Asset 25</title>
<g>
	<path class="st0" d="M275.8,124.2c10.3-0.6,22.9-24.5,23.5-26.4s11-33.6-0.6-34.7c-11.6-1.1-24.4,23.5-24.4,23.5
		c11.2-4.7,14.3,2.3,14.9,5.8c0.6,3.5-1.6,3.8-2.9,3.4c-1.3-0.5,0.7-6.6-7.3-3c-8,3.6-12.1,13.2-12.6,16.4S265.4,124.8,275.8,124.2z
		"/>
	<path class="st0" d="M165.7,181.4c-5.2,7.8,0.5,14.4,10.2,15.5c9.7,1.1,16.6-3.6,25.9-11.4s17.3-22.2,17.3-22.2
		C190.2,162.3,170.8,173.6,165.7,181.4z"/>
	<path class="st0" d="M204.1,74.2c0,0-12.1,5.2-20.3,22.5c-8.2,17.3-7.3,29.3-5.5,32.1c1.8,2.8,6.8,4.8,13.1,0.8
		c6.2-4,13.9-12.8,18-25.8c4.1-13,3.6-23.4,2.8-27C211.3,73.1,207.1,72.5,204.1,74.2z"/>
	<path class="st0" d="M429.4,159.8c-12-10.6-35.1-30.3-35.1-30.3s3.4-19.2-13.7-33.4c-17-14.2-81.9-71.3-81.9-71.3
		s-10.9-13.8-27.2-5c-16.3,8.8-38.6,9-62.9,3.7S122.6-4,91.1,0.6c-31.5,4.6-55.9,17-61,46.3c-5,29.3,16.8,46.6,16.8,46.6
		s-42.5,10-46.6,51.8c-4.1,41.8,28.8,56,43,68.5c14.2,12.5,36.5,37.2,58.3,38.9c21.9,1.7,31.1,0.1,44.3-6.1l28.5,24.8
		c0,0,16,16.2,37.8,18.6s28.2-1,51.4-14.2c23.2-13.3,41.7-53.5,41.7-53.5l51.6,13.7c0,0,47.8,11.3,70.8-13.7
		C450.8,197.3,441.5,170.4,429.4,159.8z M109.4,178.1c-10.1,12.8-35,27.4-65.8,19.4c-30.7-8-36.5-35.7-35.8-50.7
		c0.7-15,9.4-32.8,29.5-40.6c20.2-7.8,34.2-5.8,47.8,1.8c13.6,7.6,12.8,22.1,12.5,26.4c-0.4,4.3-4.9,15.1-15.8,18.2
		c-10.9,3.1-18.2,2.8-25-2.8c-6.7-5.5-4.8-13.7,0.8-19.7c5.6-6,16.7-3.5,16.7-3.5c-14.3-6.2-22.6,1.2-25.8,7.4
		c-3.2,6.2-4.3,21.2,9.6,26.6c13.9,5.4,28.7-4,40.2-15.5c11.5-11.5,25.3-42.5,32-59.8c6.7-17.3,18.2-43.5,18.2-43.5
		s-6.1-1.3-16.3-2.9c-10.2-1.6-20.7-2.7-31.7-2.2c-11,0.5-27.7,4.6-27.4,19.5c0.3,14.9,15.8,16.8,15.8,16.8s-0.3-6.4,0.2-9.4
		c0.5-3,4.3-9.3,12.5-10.4c8.2-1.1,14.6,3.7,16.6,8.3c2.1,4.6,4.5,17.8-7.7,27.1c-12.2,9.3-24.7,10.1-39.7,8
		c-15-2.1-27.5-17.9-30.1-24c-2.6-6.1-6.2-20.8-0.6-34.4c5.6-13.6,20.2-23.9,43.1-28.3c22.9-4.5,49.4,3.6,55.3,5
		c5.9,1.3,50,13.8,65.2,17c15.2,3.2,36.5,3.4,48.6,2.6c12.1-0.8,22.3-6.8,25.5-8.3c3.1-1.5,7.3-2.2,8.6,0s0.3,3.4-3.1,8.4
		c-3.4,5-12.2,9.3-18.4,11.8c-6.2,2.5-12,4.1-42.3,6c-30.3,1.9-55.7-6-55.7-6s-12.2,32.7-23.1,65.3
		C133.1,144.4,119.5,165.3,109.4,178.1z M225.6,122.1c-6.6,7.8-20.7,19.1-41.7,21.3c-21,2.2-30-11-31.8-18c-1.8-7-3.1-23.4,13.9-42
		c17-18.6,38.5-20.7,38.5-20.7c5.6-1.1,12.4,0.5,16.4,1.4c4,1,17.6,6.4,18.7,23.1C240.7,103.9,232.2,114.3,225.6,122.1z
		 M366.1,173.3c-9.4,6.6-17.8,14.4-49.4,11.5c-23.7-2.2-64.7-17.5-70.8-18c0,0-11,25.6-22.3,38.7c-11.3,13.1-30.5,32.2-52.8,31.9
		c-22.3-0.2-37.8-9.1-43.6-17.8c-5.8-8.6-12.1-28.5-2.8-40.7c9.4-12.2,31.5-35.8,103.7-33.6c0,0,17-38.6,19.8-48
		c2.8-9.4,5.5-19.8,3.8-22.6c-1.7-2.8-4.7-8.8-3.6-10.7c1.1-1.9,4.3-6.2,14.4-8.2c10.1-1.9,13.4-1.7,16.2,2.5c0,0,0.4,0.6,1.6-0.3
		c1.1-0.9,11.1-6,22-5.9c10.9,0.1,25.9,5,28.9,22.6c3,17.5-9,36.1-14.5,41.9c-5.5,5.8-19.2,19.8-37.5,19.7
		c-18.2-0.1-20.2-9.1-20.2-9.1l-6.7,21.7c0,0,13.2,1.8,34.6,7s32.3,6.7,43.7,4.3c11.4-2.4,16.7-9.3,16.9-16.7
		c0.2-7.4-4.4-11.6-11-12.4c0,0,1.6,15.2-9.5,16.2s-16.1-6.5-16.2-11.6c-0.1-5.2,0.5-16.9,15.7-22.5c15.2-5.5,37.8-4.7,47.7,14.4
		S376,166.4,366.1,173.3z"/>
</g>
</svg>
