<svg xmlns="http://www.w3.org/2000/svg" viewBox="0 0 441.91 290.76"><defs><style>.cls-1{fill:#bd3a11;}.cls-2{fill:#fac95c;}.cls-3{fill:#fbf09e;}.cls-4{fill:#e08502;}.cls-5{fill:#fbf2a7;}.cls-6{fill:#e08601;}.cls-7{fill:#fbf2a8;}.cls-8{fill:#e08500;}.cls-9{fill:#f9f2a6;}.cls-10{fill:#df8502;}.cls-11{fill:#df8400;}.cls-12{fill:#fbf2a6;}.cls-13{fill:#fcf1a9;}.cls-14{fill:#df8700;}</style></defs><title>Asset 25</title><g id="Layer_2" data-name="Layer 2"><g id="Camada_1" data-name="Camada 1"><path class="cls-1" d="M145.94,246.66l28.5,24.81s16,16.17,37.78,18.57,28.17-1,51.38-14.25,41.7-53.54,41.7-53.54l51.63,13.68s47.78,11.29,70.84-13.68,13.68-51.87,1.68-62.43-35.06-30.26-35.06-30.26A37.49,37.49,0,0,0,380.7,96.18C363.65,82,298.82,24.87,298.82,24.87S287.93,11,271.61,19.82s-38.58,9-62.92,3.69S122.57-3.95,91.11.61,35.17,17.66,30.12,47,46.93,93.54,46.93,93.54s-42.5,10-46.58,51.84,28.81,56,43,68.46,36.5,37.22,58.35,38.9S132.82,252.82,145.94,246.66Z"/><path class="cls-2" d="M74.43,126.8s-11.05-2.52-16.69,3.48S50.17,144.45,56.9,150s14,5.88,25,2.76,15.49-13.93,15.85-18.25,1.08-18.85-12.49-26.41-27.61-9.61-47.78-1.8A45.55,45.55,0,0,0,7.91,146.85c-.72,15,5,42.62,35.78,50.66s55.67-6.56,65.75-19.37,23.7-33.69,34.5-66.35S167,46.48,167,46.48a172.12,172.12,0,0,0,55.71,6c30.26-1.92,36-3.52,42.26-6s15-6.73,18.41-11.77,4.4-6.16,3.12-8.4-5.44-1.52-8.56,0-13.37,7.52-25.45,8.32-33.38.56-48.59-2.64-59.35-15.65-65.23-17-32.42-9.44-55.31-5S45.89,24.79,40.29,38.39s-1.92,28.34.64,34.42S56,94.74,71,96.82s27.54,1.28,39.7-8a22.69,22.69,0,0,0,7.69-27c-2.08-4.65-8.49-9.45-16.65-8.33s-12,7.37-12.49,10.41a65.38,65.38,0,0,0-.16,9.44S73.59,71.37,73.27,56.48s16.32-19,27.37-19.53a158.37,158.37,0,0,1,31.7,2.24c10.24,1.6,16.32,2.89,16.32,2.89s-11.52,26.25-18.25,43.54-20.49,48.28-32,59.76S72.14,166.3,58.22,160.86s-12.85-20.37-9.61-26.62S60.14,120.56,74.43,126.8Z"/><path class="cls-2" d="M239.63,87.18A25,25,0,0,0,221,64.13c-4-1-10.82-2.5-16.38-1.44A65.74,65.74,0,0,0,166,83.34c-17.05,18.61-15.73,35.05-13.92,42s10.8,20.17,31.81,18a63.58,63.58,0,0,0,41.66-21.25C232.19,114.31,240.71,103.87,239.63,87.18Zm-30.26,16.57c-4.08,13-11.76,21.85-18,25.81s-11.29,1.92-13.09-.84S175.64,114,183.8,96.66s20.29-22.45,20.29-22.45c3-1.67,7.21-1.08,8,2.52S213.46,90.78,209.37,103.75Z"/><path class="cls-2" d="M374.38,127.72c-9.93-19-32.46-19.89-47.71-14.37S310.83,130.64,311,135.8s5.16,12.61,16.2,11.65,9.49-16.21,9.49-16.21c6.6.72,11.28,4.92,11,12.36s-5.52,14.29-16.92,16.7-22.34.84-43.72-4.33-34.56-7-34.56-7l6.72-21.73s1.92,9,20.17,9.12,31.94-13.92,37.46-19.69,17.53-24.37,14.53-41.9-18-22.45-28.94-22.57-20.89,5-22,5.92-1.56.28-1.56.28c-2.72-4.16-6.08-4.4-16.17-2.48s-13.33,6.25-14.41,8.17,1.93,7.92,3.61,10.68S250.8,88,248,97.38s-19.81,48-19.81,48C156,143.19,133.86,166.78,124.49,179s-3,32.05,2.76,40.7,21.25,17.52,43.58,17.76,41.55-18.84,52.83-31.93S246,166.9,246,166.9c6.09.44,47.06,15.8,70.76,18,31.53,2.88,40-5,49.36-11.55C376,166.36,384.3,146.77,374.38,127.72Zm-108-18.57C266.88,105.91,271,96.3,279,92.7s6,2.52,7.32,3,3.49.12,2.88-3.36-3.72-10.44-14.88-5.76c0,0,12.72-24.61,24.37-23.53s1.2,32.77.6,34.69-13.21,25.82-23.53,26.42S265.92,112.39,266.4,109.15Zm-64.59,76.36c-9.36,7.8-16.21,12.48-25.93,11.4s-15.37-7.68-10.21-15.48,24.49-19.09,53.43-18.13C219.1,163.3,211.18,177.7,201.81,185.51Z"/><path class="cls-3" d="M282.25,28.29s-8.34,5-11.82,6.54a32.5,32.5,0,0,1-9.19,2.34s3.78-1,5.1-1.56c0,0-1.14.36-4.38-.54a11.65,11.65,0,0,0,6.36-1.38c3.67-1.8,12.31-6.24,13.09-6.18A.88.88,0,0,1,282.25,28.29Z"/><path class="cls-3" d="M144.66,23.35S181,33.91,185.16,34.71s30.26,7.21,48.67,6.4S255.36,39,255.36,39s-4.64.4-6.41.48a36,36,0,0,0,4.65-1.12s-2,.32-5.13.48a8.12,8.12,0,0,0,2.73-1,45.2,45.2,0,0,1-6.89.48c-4.08,0-34.25-1.76-48.9-5.36S139.78,18.3,139.78,18.3l13.53,4.57L140.9,20.22l12.25,4.17Z"/><path class="cls-3" d="M119.21,17.42s-22.81-2-41.54,3.72S50.17,39.63,49.21,44.2s-2.4,11.64-2.28,16.32c0,0-2.76-15.24,5.52-24.37,0,0-9.36,11.37-7.76,26.58,0,0-3-15.85,4.32-25.62,0,0-7.6,10-6.72,22.09,0,0-3.44-15.28,7.76-27.21A58.78,58.78,0,0,1,88.31,13.42a200.52,200.52,0,0,1,28.66,0l-10.89.72s9.93.56,9.53.64-10.41,1-10,1S119.21,17.42,119.21,17.42Z"/><path class="cls-3" d="M109.54,61.73s-3.66-1.45-6.54,0-4.62,3-5.16,6.48c0,0-1.74-2.28-3.06-2.7a4,4,0,0,1,.72,3.12s-1.2-2.4-2.77-3c0,0,1.33,2.46.73,3.78l-1.57.36a11.07,11.07,0,0,1,0-6.3c1.09-2.89,5.89-7.21,11-7.39a23,23,0,0,1,9.79,2.16l-2.89.3Z"/><path class="cls-3" d="M143.94,75.89s-8.4,25.46-16.45,41.9S108,154.17,98.68,161.5,78.79,175.9,64.3,174.22s-24.17-7.68-26-20.81c0,0,3.84,20.65,29,18.57,0,0-20.49,2.32-27.37-17.61,0,0,5.6,13.53,20.41,15,0,0-13.93-2.4-18.41-14.89,0,0,6.24,11.61,16.33,12.65,0,0-13-4.8-15.69-15.69,0,0,8.4,17.05,25.53,14.33s24.73-9.29,31.46-16.57,15.61-21.17,21.73-34.26,14.61-34.33,14.61-34.33l-2.8,11.28,5.6-13.21-3.12,11.29,4.64-11-2.72,11Z"/><path class="cls-3" d="M74.73,133.7a13.66,13.66,0,0,0-8.59-.36c-4.2,1.44-6.18,4.74-6.36,6a7.78,7.78,0,0,1,.72-4.14s-2,.6-2.46,4.14c0,0-.12-3.06,1.08-4.5,0,0-2.94,2.76-3,5.65,0,0-.84-5.59,3.36-8.89s11.46-3.12,14.17-2.22a14.62,14.62,0,0,1,4.86,3l-2.64-.48.66,1.2L75,132.74Z"/><path class="cls-3" d="M76.63,114.75a39.16,39.16,0,0,0-25.54-2.32c-14.4,3.52-24.41,17.93-24.41,17.93l5-8.8-7,7.68,5.2-8.8-8.64,10.4,7.2-12.17L18.2,130.84a37.83,37.83,0,0,1,22.89-22c17.69-6.08,29.22-4,40.82,1.36l-11.29-3,10.09,4.72-10.33-2.8,8.13,3.76-9.09-2.64Z"/><path class="cls-4" d="M279.85,33s-8.64,10-33.14,12.33-47.14,1.52-62-1.2l11.37,2.56-13-1.52L196,47.28l-15.61-1s10,3.28,29.69,4,36.1-.32,47.55-3.36,22.73-11.53,23.29-12.57S281.37,32.47,279.85,33Z"/><path class="cls-4" d="M137.82,33.51s-24.49-4.68-43-2S63.5,39,64,56.8c0,0,.08-10.16,7-14.72,0,0-5,3-4.72,14.32,0,0,.48-8.61,5.2-12.67,0,0-3.12,7.47-2.08,13.07,0,0,.56-13.6,13.53-18.33s32.5-4.6,50.39-1.36l-11.77-2.76,13.57,1.8-11.41-2.52,12.73,1.44L127,32.81Z"/><path class="cls-4" d="M113.21,67.77S113,84.5,97.92,87.54s-22,3.6-29.3,1.2-13.84-9-13.84-9l7,6.57-8.25-5.68L61.66,88l-9.53-6.56A31.43,31.43,0,0,0,68.06,92.18c10.81,3.28,21.61,3,28.9.56s12.48-5.84,15.28-9.68,4.65-9.61,3.85-14.41c0,0-.32,5.76-1.44,7.68a66.65,66.65,0,0,0,.16-7.84,47.09,47.09,0,0,1-1.2,6.8A48.69,48.69,0,0,0,113.21,67.77Z"/><path class="cls-4" d="M162.79,51.28s-10.92,26.53-12.25,31.46-14.76,41.66-14.76,41.66l2.76-10.09-3.84,10.87,1.92-8.23-4,9.25,10.2-28.7,9.25-26.29s4.44-9.72,5.4-11.89,2.4-6.06,2.4-6.06l-1.74,6.54,2.52-6.66-1.44,5.4Z"/><path class="cls-4" d="M72.86,122a30,30,0,0,0-13.2,0c-6.73,1.68-12.57,8.24-14.65,13a25.69,25.69,0,0,1,1.76-5.36s-2.4,3.62-3,4.93a21.92,21.92,0,0,1,2-4.85,22.93,22.93,0,0,0-3.12,3S45,125,50.77,121.29s13.37-3.82,17.21-3.82a9.82,9.82,0,0,1,6.17,2.08,13.27,13.27,0,0,0-5.53-1s4.48,1,5.53,2.25a27.49,27.49,0,0,0-5.37-1.21A10,10,0,0,1,72.86,122Z"/><path class="cls-4" d="M91.11,137c.18.3-2.16,8.59-11.82,10.45S63.8,146.67,60.44,146a21,21,0,0,0,4.26,2.4c1.68.54-3.18-.54-4.8-1.38s2.88,2.1,4.14,2.64-2.44-.24-4.49-1.32,3.77,3.36,8.09,4,11.91-.72,14.27-1.62,7.94-4.8,10-7.8a11,11,0,0,0,2-5.89l-1.33,3.49.18-3.49-1.14,2.34Z"/><path class="cls-4" d="M114.77,156.21s-21.36,34.58-55.64,32.3-41.49-28.09-43.29-34.58a42.13,42.13,0,0,0,7.56,20.54s-7.2-8.89-9.12-18.74c0,0,1.92,11.05,5.76,18.13a46.45,46.45,0,0,1-7.57-15.13s4.92,23.82,23.66,32.3,38.66,4.44,46.94,1.08,24.37-13.69,35.06-31.33c0,0-6.37,8.28-10.81,11.64,0,0,7.22-10,9-13.81,0,0-9.2,11.29-11.36,13Z"/><path class="cls-4" d="M204,71.45s-15.65,3.72-23.61,18.73-10.13,32.06-10.13,32.06l1.21-3,.48,3.73.6-3.61.72,3.61.72-3.25.48,3.25s1.73-20.63,10.08-33.5S200.49,73.13,204,71.45Z"/><path class="cls-5" d="M208.29,65.81S189.92,71.57,178,84.06s-19.11,25-18.73,38.9c0,0-.84-7-.84-11.17A82.48,82.48,0,0,0,157.39,123a65.09,65.09,0,0,1-.88-10.85s-1.44,7.44-1.2,10.09c0,0-1.2-12.69,1.36-19.23S176.84,68.57,208.29,65.81Z"/><path class="cls-5" d="M215.38,87.66s-.72,10.08-4,17.65-9,17.65-9,17.65l5.88-8L204,123.48l5.6-6-3.76,7s10-10.65,12.49-22,1-15.49,1-15.49.12,5-.48,6.36c0,0-.42-4.8-1.2-6.36a26.74,26.74,0,0,1-.78,6.12Z"/><path class="cls-6" d="M234,87.06s-.24,14.17-8.05,24.25-22.57,22.45-38.06,26.05c0,0-2.76.6-3.56.68l.76,1.61a1.71,1.71,0,0,1-1.56,1.32s11.65-2,17.25-4.29,14.48-7,25-18.65,12.57-24.25,11.85-31.69a37.75,37.75,0,0,1-1.38,8s.6-5.58.18-8c0,0-1,8.4-2.46,11.58A100,100,0,0,0,234,87.06Z"/><path class="cls-7" d="M193.17,153.93s-25.46,3-40.1,13.45-22.7,18.61-22.58,34.94c0,0-1.44-11,3.37-20.17,0,0-7,6.72-6.61,21.73,0,0-2.52-11.17,2.64-20.29,0,0-6.57,6.23-5.16,20.29,0,0-3.36-15.73,5.64-26.9s33.5-25.45,63.88-27.13c0,0-8.89,1.62-12.25,2.82,0,0,10-1.32,15.73-.84,0,0-10.51,1.26-15.31,2.52C182.42,154.35,189.38,153.51,193.17,153.93Z"/><path class="cls-8" d="M202.29,157.49s-19.69,3.21-29.69,9.45S158,179.27,156.83,187.75c0,0,1.6-5.2,5-8.16,0,0-3,4.4-2.08,9.36,0,0,.32-8.49,12.17-15.73s32.41-12.6,32.41-12.6-4.72-1.28-7.44-1Z"/><path class="cls-9" d="M259.92,79.53s-6.63,36.18-22.2,67.24c0,0,2.67-8.41,2.67-10.89,0,0-3.52,9.21-6.16,12.57a45.67,45.67,0,0,0,1.84-6.24s-3.28,7-4.48,8.16c0,0,12.24-33.54,12.8-34.82s10.33-28.09,11-31.53a43.14,43.14,0,0,1-1,8.48s2.48-8.4,2.56-9.92c0,0-1.6,11-2.16,13.76C254.8,96.34,259.52,80.5,259.92,79.53Z"/><path class="cls-9" d="M271.75,57.76s-3.19,1.14-6.13,2.1-10.14,4-11.4,6.07a7.68,7.68,0,0,1,2.4-3.3s-3.24,1.62-4.08,3c0,0,.9-2.63,2.1-3.3,0,0-3.84,2.52-4.32,3.6a14.61,14.61,0,0,1,8.82-6.79c6.48-1.92,13-2.64,13.39-2.34S272.91,57.35,271.75,57.76Z"/><path class="cls-9" d="M168,197.59a27,27,0,0,0,20.25-.52c11.13-4.68,27.62-24.37,27.62-24.37s-3.2,7.53-6.73,11.37c0,0,6.73-7.37,7.37-9,0,0-3,7.61-8.33,12.65,0,0,6.25-6.56,8.33-9.29,0,0-5.85,11.37-11.45,15.53s-13.76,9.77-21,10.49a29.53,29.53,0,0,1-13-1.68s8.89.4,10.57.08c0,0-8.64-.32-12.09-1.36,0,0,11.13.32,13.61-.32C183.16,201.2,173.4,200.08,168,197.59Z"/><path class="cls-10" d="M135.86,215.12s17.61,14.89,37.94,11,31.94-14.57,43.5-27.85,25.81-42.43,27.57-47.95c0,0-5.36,14.89-6.4,17.45,0,0,7.84-15.45,8.4-18,0,0-4.05,13.49-7.15,19.17,0,0,9.35-17.77,9.57-19.61,0,0-5.52,16.49-11.57,27.85s-16.82,29.38-28.11,38.38-28.14,20.85-48.69,17.89-29-14.4-29-14.4,16.56,13.43,34.1,12.72c0,0-20.17-1.56-32.29-14.41,0,0,16.08,13.21,34.21,12C168,229.45,147.06,227.31,135.86,215.12Z"/><path class="cls-10" d="M287.45,65.81s-8.8,8.76-11.12,13.32A65.94,65.94,0,0,1,272.41,86s-.88-3,2.4-8.65S284.11,66,287.45,65.81Z"/><path class="cls-10" d="M262.4,116.75S260,97.9,278.61,92c0,0-8.9,4.86-12,13.15s-2.28,11.28-2.28,11.28a26.18,26.18,0,0,1-.78-5C263.64,110.17,262.4,116.75,262.4,116.75Z"/><path class="cls-9" d="M286.21,90.9A5.61,5.61,0,0,0,280.13,88c-4.44.68-10.73,4.84-10.73,4.84l2.9-2.46-5.66,2.66a36.24,36.24,0,0,1,7.93-5.13c4.28-1.91,6.92-1.67,8.4-1.47s4.24,1.8,4.76,4.28S286.41,91.86,286.21,90.9Z"/><path class="cls-9" d="M281.53,59.6S295,53.07,308,55.44s20,14.81,20.25,19.13c0,0-3-7.32-6.88-9.82,0,0,5.12,6,4.24,11.82,0,0-1.84-8.8-4.88-10.64,0,0,2.8,5,1.92,9.44,0,0-2.56-11-10.48-14s-16.71-2-24.36,1a48.08,48.08,0,0,1,11.79-3.85s-9.52.34-15,2.85c0,0,6.81-3.73,10.57-4.21C295.22,57.12,285.21,58.56,281.53,59.6Z"/><path class="cls-9" d="M307,73.45s-.56,16.81-5.68,25.93-11,20.74-17.29,23.22-6.64,2.8-5.4,3.68,10.85-2.48,14.61-6.65S306.1,100.91,308,94.26s3.29-17.85,3-20.81c0,0-1,8.09-2.09,11.13,0,0,.49-7.77.25-11.13,0,0-.81,7.37-1.29,9.37C307.86,82.82,307.22,75.93,307,73.45Z"/><path class="cls-11" d="M262.8,124.18a24.34,24.34,0,0,0,22.39,6.1c13.63-3.2,26.68-13,30.6-19.29s6.64-11,6.64-11l2.56.73s-5.92,12.88-12.64,18.24-17.9,14.41-27.16,15.05-17.83-1-24.07-7.54c0,0,3.36,2.26,4.72,2.5,0,0-3.68-2-5.12-3.92,0,0,5,3,5.92,3.36l-4.34-4.48Z"/><path class="cls-12" d="M352.13,120s-9.45-3-18.81.72-12.59,8.7-14.17,16.88c0,0-.24-7.68,1.76-10.16,0,0-4.08,4.08-4.08,9.52,0,0-.24-6.4,1.52-10,0,0-3.6,4.8-4.08,9.28A19.86,19.86,0,0,1,325.63,117c12.78-6.35,29.14-1.62,29.14-1.62a34.23,34.23,0,0,0-8.89.24s5.05.72,7.21,1.92c0,0-5.69-1.08-7.93-.54C345.16,117,350.53,118.67,352.13,120Z"/><path class="cls-10" d="M333.88,131.78s2,6.18-2,9.61a17.76,17.76,0,0,1-8.23,4,47.31,47.31,0,0,0,4.14-2.7,17.67,17.67,0,0,1-3.33.33s3.6-1.14,4.14-1.47c0,0-1.89-.15-3.3-.39,0,0,3.3-.9,4.63-3s1-5.37,1-5.37a7.87,7.87,0,0,1,1.14,2.91,10.4,10.4,0,0,0-.06-3.63,4,4,0,0,1,1.35,2.49A11.81,11.81,0,0,0,333.88,131.78Z"/><path class="cls-10" d="M334,129.16c-.21.13,6.6-.88,11.16,3.08s4.09,5.32,4.09,5.32a35.25,35.25,0,0,0-2.09-5,12.44,12.44,0,0,1,3.05,3.08s-.92-2.76-2.45-3.9a17.34,17.34,0,0,1,3.65,2s-2.84-5.2-6.65-6S337.48,126.84,334,129.16Z"/><path class="cls-13" d="M351.37,146s-1.76,14.77-14.85,17.23-27.74,1.26-39.5-1.38-33-7.09-35.42-7.21c0,0,12.07,2.76,13.51,3.3l-13.09-2,12.31,2.7-11.77-1.38s25.53,6.25,30.3,7.57,19.35,4.38,28.35,4.8,21.43-1.26,27.44-6.72a15.9,15.9,0,0,0,4.56-16.39s.18,7.2-1.5,10c0,0,.9-5.76.66-7.62,0,0-.84,5.52-2.46,7.26C349.91,156.09,351.93,149,351.37,146Z"/><path class="cls-14" d="M371.34,142.41s1.44,18.61-15.73,28.09-39,7.56-40.82,7.32-29.6-7-29.6-7l16.51,4.44s-19.27-4.14-19-4.14,17.83,4.44,17.83,4.44-19.87-4.08-18.85-4S300,176.08,300,176.08l-19.15-3.72s24.91,7.69,31.1,8.47,25.39,2.22,32.11,0,18.79-8.89,24.86-16.63,6.54-14.29,6.6-21.37c0,0-.42,11.52-5.22,17.47,0,0,3.72-9.85,3.84-16.21,0,0-2.64,12.84-5.4,16.51C368.7,160.6,372.66,150.75,371.34,142.41Z"/></g></g></svg>