<?xml version="1.0" encoding="utf-8"?>
<!-- Generator: Adobe Illustrator 23.0.1, SVG Export Plug-In . SVG Version: 6.00 Build 0)  -->
<svg version="1.1" id="Layer_1" xmlns="http://www.w3.org/2000/svg" xmlns:xlink="http://www.w3.org/1999/xlink" x="0px" y="0px"
	 viewBox="0 0 450.8 207.3" style="enable-background:new 0 0 450.8 207.3;" xml:space="preserve">
<style type="text/css">
	.st0{fill:#FFFFFF;}
</style>
<title>Asset 12</title>
<g>
	<path class="st0" d="M209.2,65.9c-2.1,0.6-5.4,0.5-5.4,1.6c-0.1,1.1,0.8,1.5,2.5,1.2c1.7-0.3,9.1-3.2,9.5-3.7s0.8-1.2,0.3-1.2
		c-0.3,0-0.6,0.1-0.9,0.2C215.1,64,211.4,65.3,209.2,65.9z"/>
	<path class="st0" d="M226,160.1c0,0-1.2,0.3-1.2,1c0,0.7,1,1,1.2,1c0.5-0.1,0.8-0.5,0.8-1C226.8,160.5,226.5,160.1,226,160.1z"/>
	<path class="st0" d="M217.7,148.9c-1.8,0.8-7.9,6.3-9.9,8.1c-2,1.8-7.6,4.5-13.2,5.5c-5.6,1-10,5.7-11.4,7.8
		c-1.4,2.1,0.4,2.9,1.4,3.1s2.3-1.8,4.3-3.8c2.9-2.6,6.5-4.3,10.4-4.9c4-0.5,8.6-3.7,12-7.6c3.4-3.9,9.8-7.2,9.8-7.2
		s2.5-1.2,1.8-2.3C222.2,146.5,219.5,148.1,217.7,148.9z"/>
	<path class="st0" d="M190.9,71.5c0,1.1,0.6,2.4,1.7,2.4c1.2-0.1,2.1-1.1,2.2-2.3c0-1.1-1.4-1.6-1.8-1.5
		C193,70.1,190.9,70.4,190.9,71.5z"/>
	<path class="st0" d="M83.1,116c0-0.7,1-6,1.1-7.5c0.1-1.5,0.9-6.3-4.1-4.5c-5,1.8-19.9,5.2-22.8,5.6c-2.9,0.4-15.1,2.4-17.2,2.6
		c-3.9,0.4-7.7,1-11.5,2c-3.9,1.2-13.8,2.4-16,2.5c-2.2,0.2-11.6,0.8-11.9,6C0.4,128,0.2,138.1,0.2,139c-0.1,0.9-0.3,10.7,0,11.5
		c0.3,0.8-0.3,2.7,4.3,1.1c4.7-1.7,9.4-3,14.3-3.9c3.4-0.5,5.7-1.2,5.6-0.1c0,0-1.8,21.4-1.9,23.1c-0.2,1.8-2.6,29.3-2.6,29.3
		s-0.7,5.7,0.8,6.6c1.5,0.9,3,0.7,5.8,0c2.8-0.7,22.7-5,22.7-5s2.6,0.5,3.1-4.5c0.5-4.9,2.1-25.5,2.2-26.1c0.2-0.6,0.4-8.8,0.9-9.6
		c0.5-0.8,1.4-8.8,1.7-11.4c0.3-2.5-0.1-7.9,0.6-8.9c0.7-1,4.1-2.2,7.5-2.9s12.7-2.1,14-2.5c1.3-0.4,2.7-1,3.2-4.8
		S83.1,116.7,83.1,116z"/>
	<path class="st0" d="M192,63.1c5.2,0.2,10.4-0.1,15.5-0.8c3.1-0.6,8-1.2,8.1-2.1s0.4-1.3-1-1c-1.1,0.2-2.2,0.3-3.4,0.3
		c0,0-10.4,1.4-13.6,0.7s-7.7-1.7-8.3-0.5C188.7,60.8,189.1,62.8,192,63.1z"/>
	<path class="st0" d="M185.5,77.6c0.6-0.8,1.1-1.4,0.8-1.9c-0.4-0.3-0.8-0.5-1.3-0.6c0,0-1.5,0.4-1.5,1.4
		C183.6,77.5,184.9,78.4,185.5,77.6z"/>
	<path class="st0" d="M150.4,91c-3.5,0-22.7,4-25.2,4.3c-2.6,0.3-11.2,2.6-13.3,3.1c-2.1,0.5-13,2.9-14.8,3.1c-1.8,0.2-8,0.9-8.4,4
		c-0.3,2-0.3,4.1-0.2,6.1c0,0-2.7,30.1-3.2,34.7c-0.5,4.6-2.5,28-2.8,31.7c-0.2,3.7-2.2,15,1.8,13.8c4-1.2,12.8-3.7,15.7-3.8
		s7.4-0.2,8-3.5c0.5-4.3,0.8-8.6,0.8-12.9v-6.1l18.1,13.1c0,0,5.3,4.3,7.6,2.5c2.3-1.8,14.8-14.7,14.8-14.7s2.7-2.3,1.4-3.5
		c-1.2-1.3-11.4-11.3-12.7-12.4c-1.3-1.1-8.6-6.1-8.1-6.7c0.5-0.7,0.2-1.7,5.8-1.7s13.1-0.2,13.9-2.5c0.8-2.2-0.1-6.3-0.1-7.4
		c0.2-4.2,0.7-8.4,1.3-12.5c0.5-1.7,0.7-10.9,0.7-12.8c0-1.8,1.3-8,1.5-9.4S153.9,91,150.4,91z M126.7,124.4L126.7,124.4
		c-0.6,1.5-0.2,3.1-0.8,4.9c-0.5,1.8-6.1,1.9-7.6,2.5c-1.4,0.6-5.9,0.5-6.9,0.8c-1,0.4-1.1,0-1.3-0.5c-0.1-1.2,0-2.3,0.3-3.4
		c0.2-1,0.4-6.4,0.4-6.4c0-1,1.9-1.2,2.9-1.3c2.4-0.5,4.9-1.2,7.2-2c2.5-0.9,5.3-0.5,6.4,0.2C128.5,120,127.3,122.9,126.7,124.4z"/>
	<path class="st0" d="M381.5,40.2c0.5-1.3,0.8-9,0.8-9s0.6-10.8,0.9-11.7c0.4-1.9,0.5-3.9,0.4-5.9c-0.2-0.9-2-3.7-3.6-3.2
		c-1.6,0.5-11.1,3-11.6,3c-0.4,0-14.8,2.2-15.3,2.3c-0.5,0.1-24.8,5.5-26.7,5.7c-1.9,0.2-15.6,3.4-15.6,3.4s-2.9,0.5-3.5,0.6
		s-3.3,0.8-3.3,3.3s0.1,15.1-0.3,16.2c-0.5,2.2-0.7,4.4-0.8,6.6c0,1.5,0.6,3.9,2.1,3.7s11.2-2.7,12.6-3c1.1-0.1,2.3-0.3,3.4-0.6
		c1-0.5,2.1-0.6,3.2-0.3c1.3,0.4,1.5,1,1.5,1.8c0,0.8,0,2.4,0,2.4s-2.1,9.6-2.2,10.6c-0.1,1-3.7,22.4-3.7,22.4l-2.5,17
		c0,0-0.8,4.5,1.8,5.3c2.6,0.7,8.1-1.8,11-2.4c3.5-0.6,7.1-0.9,10.6-1.1c2.1-0.1,8.3-0.7,8.7-7.3c0.5-6.6,2.6-20.5,3-22.3
		s3.1-19.8,3.2-22.2c0.1-2.4,1.9-11.1,2.2-11.1s10.5-1.7,12.1-1.9C371.7,42.5,381,41.5,381.5,40.2z"/>
	<path class="st0" d="M198.9,103.3c0,0-0.6,0.9-0.1,1.2c0.5,0.3,1.3,0.6,1.4-0.2c0.1-0.7,0.4-1.5-0.2-1.4
		C199.6,103,199.2,103.1,198.9,103.3z"/>
	<path class="st0" d="M450.3,78.3c-1-1.8-4.8-16.3-5-16.9c-0.2-0.7-2.5-12.2-2.7-12.8c-0.2-0.5-2.1-14-3.2-16.2
		c-1.1-2.2-3.2-13.6-4.6-17.5S431.5,2.1,431,1.4c-0.5-0.7-1.3-1.9-5.9-1.3c-4.6,0.6-17.1,3.3-17.9,3.5c-2.8,0.7-5.4,2.3-7.1,4.6
		c-1.5,2.3-2.7,4.8-3.6,7.4c0,0-5.5,16.1-10,24c-4.5,7.9-15.2,28.3-16,30.2c-0.9,2-5.7,13.6-6.5,14.6c-0.8,1-4.2,8.2-4.4,11
		c-0.2,2.8,1.3,4.2,4.7,3.8c3.3-0.5,10.6-3.1,14.2-3.6s10.7-0.9,12.9-4.5c1.1-1.7,2-3.4,2.8-5.2c2.8-1.5,6-2.2,9.2-2.3
		c3.5-0.1,7-0.6,10.4-1.8c1.2-0.3,2.8-0.4,3.3,0.1c0.5,0.5,2.9,7.8,3.9,8c2.9,0.2,5.9-0.2,8.7-1.1c3.3-1.1,6.7-1.9,10.2-2.4
		c1.4-0.2,7.2-0.1,9.1-1.7C450.8,83.2,451.3,80.6,450.3,78.3z M412.9,57.2c-1,0.5-6.4,0.3-7.2,0.8c-0.8,0.5-1.7-0.1-1.9-1.1
		s0.5-2,1.4-3.6c0.8-1.6,5.1-10.3,5.1-10.3s0.5-1.1,0.9-1c0.6,0.3,0.9,0.9,0.9,1.5c0,1.7,0.4,3.3,1.1,4.8c1,1.9,0.9,5.7,1.4,6.7
		S413.9,56.7,412.9,57.2z"/>
	<path class="st0" d="M266.7,98.3c0.2,1.1,1,1.9,1.8,1.7c0.9-0.2,1.5-0.9,1.5-1.8c-0.1-0.9-0.8-1.4-1.8-1.4
		C268.3,96.8,266.5,97.3,266.7,98.3z"/>
	<path class="st0" d="M235.2,150.1c0,0-1.8-0.2-1.8,1.5s0.8,1.9,1.5,1.9c0.6,0,1.8-0.6,1.8-1.5C236.7,151.1,236.6,150.1,235.2,150.1
		z"/>
	<path class="st0" d="M298.1,66.3c-2.6,0.4-13.6,1.9-14.2,1.9s-11.6,3.3-13.2,3.5s-23.5,7.5-29.8,11.4c-6.3,3.9-17.7,10.7-19,11
		c-1.3,0.3-21.3,11.7-21.3,11.7s-7.5,4.6-8.8,4.7s-2.9-0.2-2.8-2.8s-0.6-4.1,2.8-6c3.4-1.9,12.5-7.9,14.7-9.1
		c2.2-1.3,9.6-7.2,9.9-6.9c0.3,0.2-4.9,5.1-4.9,5.1s-7,5.3-7,6s0.2,2,1.4,1.6c1.2-0.5,7.9-5.3,7.9-5.3s14.9-10.2,17.8-11.6
		c2.9-1.4,26.1-12.8,26.1-12.8l14.9-6.8c0,0,2.9-1.1,2.7-0.1s-2.4,1.4-2.6,2.2c-0.2,0.8,0.4,2.2,1.5,2c1.1-0.2,6.6-2.3,8.5-2.8
		c1.8-0.5,12.5-4.5,12.5-4.5c1.4-0.6,2.4-2,2.3-3.6c0.1-2.9,1.2-14.7,1.2-14.7l0.6-10.3c0,0,0.2-2.5-3.7-1.7c-9.1,2-18,5-26.6,8.8
		c-12.2,5.5-37.9,19-37.9,19l-9.6,5.5c0,0-1.4,0.8-1.2,1.3c0.2,0.6,1.4,0.3,2.1-0.1c0.7-0.5,13.6-6.9,14.5-7.4
		c0.9-0.5,4-2.5,4.1-1.5c0,0-17,10.5-23.5,13.6c-6.5,3.1-23.7,10.9-29.4,12.6s-16.9,6-18.2,6.2s-5.7-0.2-7,0.8
		c-1.9,1.4-3,3.7-2.8,6.1c0.1,3.5,0,14.9-0.6,18s-2.2,19-2.2,20.1c0,1.1-1,15.9-1.3,17.2c-0.3,1.3-1,11.1-0.7,12.5
		c0.3,1.4,1.3,5.4,5.9,4.5c4.7-0.8,17.7-5,20.9-6.6c3.2-1.6,20.8-10,23.1-10.7c2.3-0.7,8.3-2.9,9.7-4.1c1.4-1.2,11.2-6.6,13-6.7
		c1.8-0.2,4.1-0.4,3.2,1.5c-0.8,2-4.1,3.8-4.2,4.6s0.8,1.9,2.2,1.8s4.2-1.1,7-2.2l16.7-6.9c2-0.8,7.8-2.6,8.9-3.4
		c2.9-1.7,5.9-3.1,9-4.3c0,0-8.6,5.4-9.1,5.8c-0.5,0.5-1,1.9-0.2,1.8c2.7-0.8,5.4-1.9,8-3.1c2.1-1.1,5.8-3.2,6.4-3.3
		c0.6-0.1,8.2,0.1,8.4,0c0.3-0.1,0.8-0.5,0.7-2.1c0-1.6,1.5-7.5,2.8-9.1c1.3-1.5,9-16.5,9.5-17c0.5-0.5,1.7-2.5,1.4-3.3
		s-2-1.8-5.6-1.4c-3.6,0.3-17.5,3-23.3,5.1c-5.8,2.1-23.2,12.2-23.2,12.2s-2.3,1.4-2.4,0.7c-0.1-0.7,1.5-1.7,1.9-2
		c0.4-0.3,1-1.5,0.3-1.7c-0.7-0.1-7.8,2.9-7.8,2.9s-19.6,9.1-22.3,10.4c-2.7,1.4-17.2,8.4-18.6,9.3c-1.4,0.9-6.4,6.3-8.6,6.1
		c-2.3-0.2-3.6-1-3.8-3.5c-0.2-2.5-0.5-4.5,3-5.8s14.8-6.4,18.4-9.5c3.6-3.2,14.7-10.8,15.2-10.7c0.5,0.1-0.4,2-1.1,2.9
		c-0.7,0.9-0.9,3,0.1,3.4c1.6,0.3,3.2-0.2,4.3-1.4c1.2-1.3,13.8-9.5,19.2-12.4c5.3-2.9,22.7-11,27.8-11.8s9.4-1,12.2-0.5
		c2.9,0.5,6,0.1,6.9-2.2c0.9-2.2,0.1-4.8,2.2-6.9c2-2.1,7-6.4,7.8-8.1c0.8-1.5,1.1-3.2,1.1-4.9C302.3,67.4,300.7,65.9,298.1,66.3z
		 M238.7,72.5c-0.3,0.4-11.3,6.5-11.3,6.5s-4.4,3.1-5.1,2.8c-0.7-0.3,2.1-2.3,2.1-2.3l12.4-8C238.1,70.7,239,72.1,238.7,72.5z
		 M248.4,62.8c-1.5,0.6-10.4,3.8-11.8,4.4c-1.4,0.6-1.8-0.2-1.7-0.5c0.1-0.3,11.5-6,11.5-6c2-1,3.7-0.8,4,0
		C250.8,61.4,249.9,62.2,248.4,62.8z M280.2,58.5c2-1.4,4.1-2.5,6.4-3.2c2-0.4,3.6-0.5,3.8,0c0.1,0.3,0.1,0.7,0,1
		c0,0-7.3,1.7-8.1,2.2C281.6,59,279.9,58.9,280.2,58.5z M276.1,41.8c0.8-0.2,1.6-0.2,2.4,0c1,0.3-0.6,2.9-2.2,4.7s-4-0.7-4.4-2.2
		C271.6,42.8,276.1,41.8,276.1,41.8z M243.9,52c1.7-1.6,3.6-2.9,5.7-4c0.9-0.2,3.8-2.1,4.3-1.3c0.5,0.8,0.6,1.2,0.3,1.3l-9,4.5
		C245.2,52.5,243.6,52.5,243.9,52z M228.5,65.4c2.3-0.6,21.7-11.2,24.7-13.3c3.1-2.1,14.1-7.3,14.1-7.3s1.8-0.6,2.5,0
		c0.7,1,0.7,2.3,0,3.3c-0.8,1.1-12.7,7-17.7,7.7c-5,0.8-16,7.4-17.3,8c-1.4,0.6-12.6,7.8-15.7,9.5c-3.2,1.7-7.6,2.1-8.8,0.6
		C209.1,72.4,226.2,66,228.5,65.4z M194.3,85.3c0.6-0.2,16.8-7.1,16.8-7.1c1.3-0.6,0.8,0.8,0.8,0.8l-16.6,8.3c0,0-3.4,1.8-4,0.6
		C190.7,86.6,193.7,85.5,194.3,85.3z M189.7,96.8c0.5-0.9,7.9-4.9,7.9-4.9s14.4-8.6,15.5-9.5s6.8-4.5,6.8-4.5s1.1-0.3,0.7,1
		c0,0-14.8,9.1-15.4,9.6c-0.6,0.5-12.5,9.2-13.4,9.4S189.2,97.7,189.7,96.8z M229.6,134.1c-0.3,1-3.9,2.6-4.5,2.7s-3.4,1-4.1,0.7
		c-0.7-0.3-0.8-0.8-0.4-1c0,0,5.4-2,6.3-2.4C227.8,133.8,229.9,133.1,229.6,134.1z M233.4,136.6c-0.9-0.2-1.2-0.8-0.7-1
		c0.4-0.1,0.9-0.1,1.4,0C234,136.2,234.4,136.7,233.4,136.6z M251.6,132.4c-0.5,0.9-4.8,2.5-6.9,3.6c-2.1,1.1-7.2,3.2-8.1,3.6
		c-0.9,0.4-0.8-1.5-0.4-2.1c0.4-0.5,13.8-6.4,13.8-6.4C251.9,130.8,252,131.5,251.6,132.4z M258.3,126.1c0,0-9.7,2.2-11.6,3.2
		c-1.8,1-10.4,5.3-10.7,4.8c-0.3-0.4-0.3-1.1,1.3-1.9c1.5-0.7,13.5-6,15.3-6.8c1.7-0.7,5.1-1.6,6.1-1.4
		C259.6,124.3,259.2,125.1,258.3,126.1z M270.8,113c0.6,0.8-0.6,2.6-1.4,3.1c-0.8,0.5-3.9,0.8-4.2-0.8s2.8-2.6,2.8-2.6
		S270.2,112.1,270.8,113z M257.5,109.7c2-1.1,9.4-4.1,10.9-4.1c1.4,0,0.8,0.8,0.6,1.3c0,0-11.9,4.7-13.2,5.6s-2.6,2.4-2.8,1.5
		C252.7,113,255.5,110.8,257.5,109.7z M220.6,126.3c2.4-1.5,13.4-6.9,13.4-6.9s2.9-1.7,2.8-0.7c0,0-16.6,10.7-17.8,11.5
		c-1.2,0.8-4.5,2.3-4.6,1C214.3,130.1,218.2,127.8,220.6,126.3z M201.6,142c2.8-2.1,18.1-8.8,18.1-8.8s12.6-5.3,16.5-8.1
		c3.8-2.8,12.2-8.7,17.2-8.7c5,0,6.4,0.8,5.9,2.5c0,0-14.6,5.1-17.6,6.2s-13.8,6-17.6,7.7c-3.8,1.7-11.7,5.8-14.1,8
		c-2.4,2.2-6.6,4-8.4,4S198.8,144.1,201.6,142z M247.4,84.4c4.1-2.2,12.7-5.4,13.6-5.4s0.5,0.8-1.3,1.7l0,0c0,0-13.5,6.6-15.4,7.9
		c-1.9,1.3-5.2,3.7-5.5,2.9C238.4,90.7,243.3,86.6,247.4,84.4z M203.5,118.5c-0.5,0.3-2.3,0.1-2.3-1.5s1.9-1.5,1.9-1.5
		c0.9,0,1.6,0.7,1.6,1.5C204.8,117.9,204,118.2,203.5,118.5z M193,115.6c-0.4-0.2,0.9-1.3,3.4-2.4s18.9-9.2,23.1-12.1
		c4.1-2.9,12.6-7.6,12.6-7.6s1.9-0.2,1.2,1.6c0-0.1-17.8,10.1-22.8,12.5C205.4,110,193.4,115.8,193,115.6z M242.7,100
		c0,0-8.6,4.5-10.4,5.2c-1.8,0.7-2,0.5-1.8,0c0.2-0.5,11.9-6.2,11.9-6.2C243,98.6,242.7,100,242.7,100z M265.7,86.3
		c0,0-13.8,5.2-20.5,7.9c-7.8,3.3-15.4,7.1-22.7,11.4c-4,2.6-12.3,9.5-13.6,9.2c-1.3-0.3-1.8-1.4-0.7-2.2c1.2-0.8,16.3-10,20.9-12
		c4.6-2,23.4-11.1,24.6-11.7c1.1-0.6,11.3-5.3,13.1-5.6c1.8-0.3,3.6,0,3.5,1.2S267,85.8,265.7,86.3z"/>
	<path class="st0" d="M255.2,138.8c-0.3,0.1-0.7,0.3-0.9,0.5c0,0-6.1,3.8-6.4,4.1c-0.4,0.3-2.2,1.3-1.8,2.1s2,0.6,3.1-0.1
		s6.6-4.2,7.2-4.8c0.6-0.6,1.3-1.4,0.9-1.8C256.6,138.5,255.9,138.5,255.2,138.8z"/>
	<path class="st0" d="M266.6,140.3c-0.4,0-0.1,0-0.1,0s-1.1,0.5-1.1,1.1s0.2,1.3,0.9,1.2c0.7,0,1.3-0.5,1.3-1.2
		C267.6,140.9,267.2,140.4,266.6,140.3z"/>
</g>
</svg>
