<svg xmlns="http://www.w3.org/2000/svg" xmlns:xlink="http://www.w3.org/1999/xlink" viewBox="0 0 450.83 207.3"><defs><style>.cls-1{fill:url(#Gradiente_sem_nome_10);}.cls-2{fill:url(#Gradiente_sem_nome_10-2);}.cls-3{fill:url(#Gradiente_sem_nome_11);}.cls-4{fill:#00632c;}.cls-5{fill:#006932;}.cls-6{fill:url(#Gradiente_sem_nome_10-3);}.cls-7{fill:url(#Gradiente_sem_nome_10-4);}</style><linearGradient id="Gradiente_sem_nome_10" y1="155.46" x2="84.35" y2="155.46" gradientUnits="userSpaceOnUse"><stop offset="0" stop-color="#006d33"/><stop offset="0.31" stop-color="#007138"/><stop offset="0.67" stop-color="#007d46"/><stop offset="1" stop-color="#008d59"/></linearGradient><linearGradient id="Gradiente_sem_nome_10-2" x1="81.89" y1="141.47" x2="153.16" y2="141.47" xlink:href="#Gradiente_sem_nome_10"/><linearGradient id="Gradiente_sem_nome_11" x1="155.29" y1="96.8" x2="302.48" y2="96.8" gradientUnits="userSpaceOnUse"><stop offset="0" stop-color="#006d33"/><stop offset="0.53" stop-color="#006f35"/><stop offset="0.74" stop-color="#00743c"/><stop offset="0.88" stop-color="#007e48"/><stop offset="1" stop-color="#008d59"/><stop offset="1" stop-color="#008d59"/></linearGradient><linearGradient id="Gradiente_sem_nome_10-3" x1="303.01" y1="60.66" x2="383.65" y2="60.66" xlink:href="#Gradiente_sem_nome_10"/><linearGradient id="Gradiente_sem_nome_10-4" x1="359.52" y1="49.64" x2="450.83" y2="49.64" xlink:href="#Gradiente_sem_nome_10"/></defs><title>Asset 12</title><g id="Layer_2" data-name="Layer 2"><g id="Camada_1" data-name="Camada 1"><path class="cls-1" d="M24.34,147.61s-1.75,21.4-1.91,23.15S19.8,200.1,19.8,200.1s-.71,5.73.8,6.6,3,.72,5.81,0,22.66-5,22.66-5,2.63.48,3.1-4.45,2.07-25.53,2.23-26.09.4-8.82.87-9.62,1.36-8.83,1.68-11.37-.08-7.88.63-8.91,4.06-2.23,7.48-2.86,12.72-2.07,14-2.47,2.71-.95,3.19-4.77.87-14.47.87-15.19,1-6,1.11-7.48.88-6.28-4.13-4.45-19.88,5.17-22.75,5.57S42.23,112,40.16,112.22a72.17,72.17,0,0,0-11.53,2c-3.89,1.19-13.76,2.39-16,2.55s-11.61.79-11.93,6S.24,138.07.16,139s-.32,10.66,0,11.46-.32,2.7,4.3,1.11a96.37,96.37,0,0,1,14.31-3.9C22.19,147.22,24.43,146.52,24.34,147.61Z"/><path class="cls-2" d="M150.41,91c-3.52,0-22.66,4-25.23,4.29s-11.21,2.57-13.3,3.1-13,2.87-14.79,3.11-8,.89-8.41,4a31.22,31.22,0,0,0-.16,6.09s-2.71,30.06-3.18,34.71S82.83,174.3,82.59,178s-2.21,15,1.76,13.84,12.8-3.7,15.66-3.82,7.4-.23,8-3.46a104.52,104.52,0,0,0,.8-12.92v-6.12l18.13,13.12s5.25,4.29,7.56,2.47,14.79-14.72,14.79-14.72,2.66-2.26,1.43-3.54-11.45-11.33-12.7-12.4-8.59-6.09-8.12-6.74.18-1.67,5.79-1.67,13.06-.24,13.9-2.45-.12-6.26-.12-7.4a125.33,125.33,0,0,1,1.31-12.52c.48-1.67.66-10.92.66-12.77s1.25-8,1.49-9.36S153.93,91,150.41,91Zm-23.68,33.36c-.59,1.51-.2,3.14-.75,4.93s-6.13,1.87-7.56,2.51-5.88.47-6.92.83-1.11,0-1.35-.52a9.06,9.06,0,0,1,.32-3.42c.24-1,.4-6.36.4-6.36,0-1,1.94-1.19,2.9-1.35a70,70,0,0,0,7.24-2c2.54-.87,5.29-.51,6.4.24S127.33,122.88,126.73,124.39Z"/><path class="cls-3" d="M302.45,68.64c-.12-1.19-1.75-2.74-4.33-2.31s-13.56,1.87-14.24,1.87-11.61,3.34-13.2,3.54-23.52,7.54-29.84,11.41-17.72,10.74-19,11-21.35,11.69-21.35,11.69-7.46,4.59-8.77,4.65-2.86-.24-2.81-2.8-.59-4.12,2.81-6,12.52-7.87,14.73-9.12,9.6-7.16,9.9-6.92-4.89,5.13-4.89,5.13-7,5.31-7,6,.24,2,1.43,1.55,7.88-5.3,7.88-5.3,14.91-10.2,17.83-11.64S257.72,68.6,257.72,68.6l14.91-6.8s2.86-1.07,2.74-.12-2.38,1.37-2.62,2.21.42,2.21,1.55,2,6.62-2.27,8.47-2.75,12.53-4.55,12.53-4.55A3.76,3.76,0,0,0,297.6,55c.08-2.94,1.2-14.71,1.2-14.71l.63-10.34s.24-2.47-3.66-1.67a132.86,132.86,0,0,0-26.56,8.83c-12.17,5.48-37.94,19-37.94,19l-9.61,5.49s-1.37.75-1.22,1.34,1.4.33,2.06-.12,13.57-6.85,14.49-7.39,4-2.46,4.07-1.54c0,0-17,10.5-23.54,13.6s-23.7,10.89-29.43,12.64-16.86,6-18.23,6.17-5.73-.18-7,.83a6.84,6.84,0,0,0-2.82,6.09c.11,3.45,0,14.91-.58,17.95s-2.21,19-2.21,20.1-1,15.87-1.25,17.18-1,11.09-.66,12.46,1.26,5.37,5.91,4.54,17.71-4.95,20.93-6.56,20.76-10,23.11-10.68,8.31-2.86,9.66-4.06,11.18-6.56,13-6.72,4.06-.43,3.23,1.55-4.1,3.78-4.22,4.58.8,1.87,2.19,1.83,4.21-1.08,7-2.23l16.7-6.92c1.95-.79,7.79-2.62,8.9-3.42a68.07,68.07,0,0,1,9-4.33s-8.63,5.36-9.1,5.84-1,1.87-.16,1.79a50.55,50.55,0,0,0,7.95-3.14c2.15-1.11,5.76-3.18,6.4-3.26s8.15.08,8.43,0,.76-.48.72-2.07,1.53-7.55,2.84-9.1,9-16.47,9.48-17S299,99,298.76,98.25s-2-1.79-5.61-1.44-17.54,3-23.32,5.13-23.21,12.23-23.21,12.23-2.26,1.43-2.38.72,1.55-1.73,1.91-2,1-1.55.3-1.67-7.76,2.86-7.76,2.86-19.62,9.07-22.31,10.44-17.18,8.41-18.55,9.3-6.38,6.33-8.65,6.09-3.58-1-3.81-3.46-.48-4.47,3-5.79,14.79-6.38,18.37-9.54,14.73-10.8,15.21-10.68-.36,2-1.07,2.87-.9,3,.06,3.4a5,5,0,0,0,4.35-1.38c1.19-1.25,13.82-9.5,19.15-12.36s22.72-11,27.79-11.79,9.37-1,12.23-.54,6,.06,6.92-2.15.12-4.77,2.15-6.86,7-6.38,7.85-8.09A10.19,10.19,0,0,0,302.45,68.64ZM280.21,58.52a22.58,22.58,0,0,1,6.44-3.22c2-.42,3.64-.48,3.76,0a2.73,2.73,0,0,1,0,1s-7.28,1.73-8.06,2.21S279.91,58.94,280.21,58.52ZM243.88,52A25.6,25.6,0,0,1,249.55,48c.89-.2,3.81-2.11,4.29-1.33s.65,1.18.34,1.33l-9,4.46S243.58,52.5,243.88,52ZM224.44,79.54l12.4-8c1.3-.84,2.15.56,1.83,1s-11.29,6.52-11.29,6.52-4.38,3.1-5.09,2.78S224.44,79.54,224.44,79.54ZM189.68,96.8c.48-.88,7.87-4.94,7.87-4.94s14.4-8.59,15.51-9.46,6.76-4.53,6.76-4.53,1.12-.32.72,1c0,0-14.79,9.15-15.43,9.62s-12.49,9.15-13.36,9.39S189.2,97.68,189.68,96.8Zm62.79,28.7c1.73-.71,5.13-1.55,6.14-1.37s.54,1-.35,2c0,0-9.73,2.21-11.58,3.16s-10.38,5.25-10.73,4.83-.3-1.13,1.25-1.85S250.74,126.22,252.47,125.5Zm-31.85.84c2.38-1.49,13.42-6.86,13.42-6.86s2.92-1.67,2.8-.66c0,0-16.58,10.68-17.77,11.52s-4.48,2.26-4.6,1S218.24,127.83,220.62,126.34Zm-10.18-18.73c-5,2.39-17,8.19-17.42,8s.88-1.27,3.42-2.38,18.93-9.23,23.06-12.09,12.57-7.64,12.57-7.64,1.91-.24,1.19,1.59C233.26,95,215.45,105.22,210.44,107.61ZM242.65,100s-8.59,4.46-10.42,5.17-2,.48-1.77,0,11.87-6.2,11.87-6.2C243,98.62,242.65,100,242.65,100Zm17-19.24s-13.52,6.6-15.43,7.87-5.2,3.66-5.5,2.87,4.62-4.86,8.68-7.08S260.14,79,261,79.06,261.49,79.84,259.67,80.73Z"/><path class="cls-4" d="M276.13,41.84s-4.53.95-4.14,2.46,2.87,4.05,4.38,2.23,3.18-4.37,2.15-4.69A5.39,5.39,0,0,0,276.13,41.84Z"/><path class="cls-4" d="M267.3,44.78s-11,5.25-14.08,7.32S230.8,64.74,228.49,65.38s-19.4,7-18.21,8.51,5.57,1.11,8.75-.56,14.39-8.83,15.74-9.46,12.33-7.24,17.34-8,16.86-6.61,17.66-7.72a2.86,2.86,0,0,0,0-3.34C269.13,44.14,267.3,44.78,267.3,44.78Z"/><path class="cls-4" d="M246.39,60.69s-11.46,5.72-11.54,6,.31,1.11,1.71.48,10.3-3.82,11.81-4.38,2.39-1.43,2.07-2.14S248.39,59.68,246.39,60.69Z"/><path class="cls-4" d="M211.07,78.26s-16.22,6.92-16.78,7.08-3.58,1.3-3,2.56,4-.57,4-.57l16.62-8.27S212.42,77.69,211.07,78.26Z"/><path class="cls-4" d="M265.65,86.32s-13.78,5.18-20.46,7.87a187.47,187.47,0,0,0-22.72,11.41c-4,2.61-12.29,9.47-13.6,9.17s-1.85-1.37-.66-2.21,16.34-10,20.94-12,23.44-11.13,24.57-11.73,11.28-5.27,13.12-5.59,3.59,0,3.47,1.18S267,85.79,265.65,86.32Z"/><path class="cls-4" d="M203.14,115.57s-1.94-.09-1.94,1.46,1.85,1.77,2.33,1.47,1.25-.58,1.25-1.41A1.63,1.63,0,0,0,203.14,115.57Z"/><path class="cls-4" d="M267.92,112.62s-3,1-2.75,2.62,3.34,1.32,4.18.84,2-2.27,1.43-3.1S267.92,112.62,267.92,112.62Z"/><path class="cls-4" d="M268.93,106.89s-11.93,4.74-13.24,5.59-2.62,2.41-2.8,1.45,2.62-3.1,4.59-4.23,9.42-4.09,10.86-4.1S269.11,106.42,268.93,106.89Z"/><path class="cls-4" d="M259.18,118.94s-14.58,5.12-17.57,6.23-13.77,6-17.59,7.73-11.67,5.81-14.06,8-6.56,4-8.37,4-2.8-.8,0-2.86,18.07-8.75,18.07-8.75,12.65-5.28,16.47-8.13,12.16-8.69,17.17-8.71S259.65,117.23,259.18,118.94Z"/><path class="cls-4" d="M220.62,136.48s5.37-2,6.26-2.36,3-1,2.68,0-3.85,2.6-4.46,2.72-3.41.95-4.12.65S220.17,136.65,220.62,136.48Z"/><path class="cls-4" d="M234.1,135.56c-.12.62.26,1.16-.68,1s-1.23-.77-.69-1A2.18,2.18,0,0,1,234.1,135.56Z"/><path class="cls-4" d="M250,131.17s-13.36,5.85-13.77,6.39-.52,2.5.37,2.08,6-2.52,8.1-3.61,6.38-2.71,6.86-3.61S251.93,130.81,250,131.17Z"/><path class="cls-5" d="M211.31,59.45s-10.38,1.36-13.56.72-7.67-1.69-8.35-.51-.28,3.09,2.63,3.41a86.42,86.42,0,0,0,15.54-.83c3.15-.64,8-1.23,8.12-2.11s.39-1.25-1-1A32.19,32.19,0,0,1,211.31,59.45Z"/><path class="cls-5" d="M215.13,64s-3.74,1.35-5.89,1.91-5.36.51-5.44,1.59.79,1.51,2.5,1.19,9.09-3.18,9.47-3.74.75-1.19.27-1.19A2.17,2.17,0,0,0,215.13,64Z"/><path class="cls-5" d="M193,70.07s-2.15.32-2.15,1.39.64,2.39,1.67,2.43a2.5,2.5,0,0,0,2.23-2.27C194.77,70.51,193.39,70,193,70.07Z"/><path class="cls-5" d="M185,75.16s-1.55.4-1.47,1.39,1.39,1.87,2,1.08,1.12-1.43.76-1.91A2.07,2.07,0,0,0,185,75.16Z"/><path class="cls-5" d="M198.91,103.32s-.57.89-.12,1.19,1.28.59,1.37-.15.39-1.46-.18-1.43A2.29,2.29,0,0,0,198.91,103.32Z"/><path class="cls-5" d="M268.25,96.8s-1.76.46-1.55,1.53,1,1.91,1.84,1.73A1.78,1.78,0,0,0,270,98.22C269.92,97.29,269.2,96.85,268.25,96.8Z"/><path class="cls-5" d="M266.49,140.26s-1.1.45-1.1,1.09.24,1.25.9,1.23,1.33-.49,1.27-1.16a1.17,1.17,0,0,0-.93-1.16C266.19,140.24,266.49,140.26,266.49,140.26Z"/><path class="cls-5" d="M254.28,139.36s-6.05,3.82-6.44,4.14-2.17,1.35-1.79,2.11,2,.59,3.08-.14,6.62-4.22,7.22-4.8,1.33-1.37.87-1.75a2,2,0,0,0-2-.09A3.75,3.75,0,0,0,254.28,139.36Z"/><path class="cls-5" d="M235.17,150.14s-1.76-.18-1.76,1.46.84,1.88,1.46,1.88,1.79-.57,1.79-1.46S236.63,150.14,235.17,150.14Z"/><path class="cls-5" d="M226,160.07s-1.23.27-1.23,1,1,1,1.23,1a1,1,0,0,0,.8-1C226.76,160.46,226.49,160.1,226,160.07Z"/><path class="cls-5" d="M221.09,149.84s-6.38,3.22-9.78,7.16-8,7.16-12,7.63a20.24,20.24,0,0,0-10.38,4.89c-2.08,2-3.34,4-4.35,3.82s-2.74-1-1.37-3.1,5.78-6.8,11.39-7.81,11.16-3.7,13.18-5.49,8.06-7.28,9.9-8.05,4.54-2.39,5.25-1.32S221.09,149.84,221.09,149.84Z"/><path class="cls-6" d="M325.84,55.6s-2.07,9.62-2.15,10.57S320,88.6,320,88.6l-2.47,17s-.79,4.55,1.83,5.27,8.12-1.83,11-2.39A97.71,97.71,0,0,1,341,107.37c2.06-.08,8.27-.65,8.74-7.28s2.63-20.55,2.95-22.3,3.1-19.81,3.18-22.19,1.91-11.15,2.15-11.1,10.49-1.71,12.08-1.87,10.9-1.11,11.42-2.46.79-9,.79-9,.56-10.81.92-11.73a21.3,21.3,0,0,0,.39-5.88c-.19-.88-2-3.66-3.57-3.15s-11.14,3-11.58,3-14.75,2.18-15.27,2.26-24.77,5.45-26.68,5.69-15.59,3.42-15.59,3.42-2.9.52-3.46.64-3.34.83-3.34,3.34.08,15.07-.31,16.22a33.59,33.59,0,0,0-.76,6.6c0,1.51.64,3.94,2.11,3.74s11.21-2.74,12.56-3a22,22,0,0,0,3.38-.6,4.49,4.49,0,0,1,3.22-.32c1.32.44,1.52,1,1.52,1.83S325.84,55.6,325.84,55.6Z"/><path class="cls-7" d="M450.32,78.32c-1-1.79-4.77-16.28-5-16.94s-2.51-12.22-2.74-12.76-2.15-14-3.23-16.23-3.22-13.65-4.59-17.53S431.53,2.09,431,1.44s-1.31-1.91-5.9-1.26S408,3.52,407.25,3.64a12.68,12.68,0,0,0-7.15,4.6,35.54,35.54,0,0,0-3.64,7.39s-5.49,16.11-10,24-15.15,28.27-16,30.24-5.66,13.6-6.5,14.62-4.23,8.23-4.41,11,1.31,4.24,4.65,3.76,10.62-3.1,14.2-3.58,10.73-.89,12.94-4.47A40.48,40.48,0,0,0,394.19,86a20.5,20.5,0,0,1,9.19-2.25A35.12,35.12,0,0,0,413.76,82c1.15-.32,2.82-.4,3.3.08s2.86,7.83,3.93,8a23.46,23.46,0,0,0,8.69-1.09,58.09,58.09,0,0,1,10.2-2.39c1.43-.17,7.22-.06,9.07-1.67A5.8,5.8,0,0,0,450.32,78.32ZM412.86,57.21c-1,.53-6.38.3-7.16.77s-1.67-.12-1.91-1.07.54-2,1.38-3.58S410.3,43,410.3,43s.47-1.13.89-1a1.55,1.55,0,0,1,.9,1.49,10.8,10.8,0,0,0,1.13,4.77c1,1.91.89,5.73,1.43,6.74S413.88,56.67,412.86,57.21Z"/></g></g></svg>