<?xml version="1.0" encoding="utf-8"?>
<!-- Generator: Adobe Illustrator 23.0.1, SVG Export Plug-In . SVG Version: 6.00 Build 0)  -->
<svg version="1.1" id="Layer_1" xmlns="http://www.w3.org/2000/svg" xmlns:xlink="http://www.w3.org/1999/xlink" x="0px" y="0px"
	 viewBox="0 0 261 211" style="enable-background:new 0 0 261 211;" xml:space="preserve">
<style type="text/css">
	.st0{fill:#AAC1E3;}
	.st1{fill:#85A5D8;}
	.st2{fill:#F7B2CE;}
	.st3{fill:#EF99BC;}
	.st4{opacity:0.5;fill:#FFFFFF;}
</style>
<g>
	<g>
		<g>
			<path class="st0" d="M225.6,3.8c-16.5-2.1-30,6.9-36.8,11.7c-9.6,6.8-17.3,7.2-26.4-0.2c-1.3-1.1-2.8-1.9-4.3-2.8
				c-10.7-6.7-21.9-9.9-34.6-6c-11.7,3.6-19.1,12.4-26.5,21c-6.1,7.1-10.1,15.5-11,25c-0.6,6.9,7.6,13,14.1,10.6
				c6.4-2.3,12.6-5.4,19.1-7.3c15.7-4.5,34,1.9,43.4,14.7c12,16.3,12.8,34.2,6.7,52.8c-4.7,14.4-12.2,27.4-21.3,40.2
				c3.1,2.3,16.3,12.3,40.7-0.4c24.3-12.7,54.3-53,64.7-80.4c5.1-17,6.1-33.5,5.1-40.7C255.4,22.4,246,8.9,225.6,3.8z"/>
		</g>
	</g>
	<path class="st1" d="M174,159.7c9.7,2.2,23.7-4.1,30.7-7.9c-5.4,4.7-10.7,8.6-15.8,11.3c-24.3,12.7-37.6,2.8-40.7,0.4
		c2.6-3.7,5.1-7.4,7.5-11.2C158.1,154,164.1,157.4,174,159.7z"/>
	<g>
		<g>
			<path class="st2" d="M65.6,206.2c29.9,0,79.9-47.3,91.4-69.9c6.5-12.8,10.4-26.1,8.8-40.7c-2-18.2-13-30.7-30.2-33.7
				c-10.1-1.7-19.5,1.1-28.3,5.7c-8.7,4.6-16.7,4.1-23.4-3.2c-8.1-8.9-15.6-15.1-27.6-17.2C26.3,45.1,1.5,75.1,1.6,97.6
				c-0.1,36.3,10.4,58.1,26.8,82.8C37.9,194.7,53.2,206.2,65.6,206.2z"/>
		</g>
	</g>
	<path class="st3" d="M27.8,54.9c-3.3,3.2-20.5,21.7-13.9,56.3c7.2,38.2,26.8,70.2,41.3,80.5c11.1,7.9,27,7.9,37.6,5.7
		c-9.8,5.4-19.2,8.8-27.2,8.8c-12.4,0-27.7-11.5-37.2-25.8C12,155.7,1.5,133.9,1.6,97.6C1.6,82.9,12.1,65,27.8,54.9z"/>
	<path class="st4" d="M45.9,57.5c0,0-24.8,17.6-19.6,48.5c2.1,5.2-4.1,9.3-5.2,2.1C20.1,100.9,17,68.9,45.9,57.5z"/>
	<path class="st4" d="M123.1,18.2c0,0-14.9,17.1-13.4,41.2c-1.9,0.8-3.8,1.5-5.6,2.3C102.7,47.9,105.5,30.4,123.1,18.2z"/>
</g>
</svg>
