<?xml version="1.0" encoding="utf-8"?>
<!-- Generator: Adobe Illustrator 23.0.1, SVG Export Plug-In . SVG Version: 6.00 Build 0)  -->
<svg version="1.1" id="Layer_1" xmlns="http://www.w3.org/2000/svg" xmlns:xlink="http://www.w3.org/1999/xlink" x="0px" y="0px"
	 viewBox="0 0 261 211" style="enable-background:new 0 0 261 211;" xml:space="preserve">
<style type="text/css">
	.st0{fill:#AAC1E3;}
	.st1{fill:#85A5D8;}
	.st2{fill:#F7B2CE;}
	.st3{fill:#EF99BC;}
	.st4{opacity:0.5;fill:#FFFFFF;}
</style>
<g>
	<g>
		<g>
			<path class="st0" d="M35,3.8c16.5-2.1,30,6.9,36.8,11.7c9.6,6.8,17.3,7.2,26.4-0.2c1.3-1.1,2.8-1.9,4.3-2.8
				c10.7-6.7,21.9-9.9,34.6-6c11.7,3.6,19.1,12.4,26.5,21c6.1,7.1,10.1,15.5,11,25c0.6,6.9-7.6,13-14.1,10.6
				c-6.4-2.3-12.6-5.4-19.1-7.3c-15.7-4.5-34,1.9-43.4,14.7c-12,16.3-12.8,34.2-6.7,52.8c4.7,14.4,12.2,27.4,21.3,40.2
				c-3.1,2.3-16.3,12.3-40.7-0.4c-24.3-12.7-54.3-53-64.7-80.4C2,65.8,0.9,49.2,2,42C5.2,22.4,14.6,8.9,35,3.8z"/>
		</g>
	</g>
	<path class="st1" d="M86.6,159.7c-9.7,2.2-23.7-4.1-30.7-7.9c5.4,4.7,10.7,8.6,15.8,11.3c24.3,12.7,37.6,2.8,40.7,0.4
		c-2.6-3.7-5.1-7.4-7.5-11.2C102.5,154,96.5,157.4,86.6,159.7z"/>
	<g>
		<g>
			<path class="st2" d="M195,206.2c-29.9,0-79.9-47.3-91.4-69.9c-6.5-12.8-10.4-26.1-8.8-40.7c2-18.2,13-30.7,30.2-33.7
				c10.1-1.7,19.5,1.1,28.3,5.7c8.7,4.6,16.7,4.1,23.4-3.2c8.1-8.9,15.6-15.1,27.6-17.2c29.9-2.1,54.7,27.9,54.7,50.4
				c0.1,36.3-10.4,58.1-26.8,82.8C222.7,194.7,207.4,206.2,195,206.2z"/>
		</g>
	</g>
	<path class="st3" d="M232.8,54.9c3.3,3.2,20.5,21.7,13.9,56.3c-7.2,38.2-26.8,70.2-41.3,80.5c-11.1,7.9-27,7.9-37.6,5.7
		c9.8,5.4,19.2,8.8,27.2,8.8c12.4,0,27.7-11.5,37.2-25.8c16.4-24.7,26.8-46.5,26.8-82.8C259,82.9,248.5,65,232.8,54.9z"/>
	<path class="st4" d="M214.7,57.5c0,0,24.8,17.6,19.6,48.5c-2.1,5.2,4.1,9.3,5.2,2.1C240.5,100.9,243.6,68.9,214.7,57.5z"/>
	<path class="st4" d="M137.5,18.2c0,0,14.9,17.1,13.4,41.2c1.9,0.8,3.8,1.5,5.6,2.3C157.9,47.9,155.1,30.4,137.5,18.2z"/>
</g>
</svg>
