<svg xmlns="http://www.w3.org/2000/svg" viewBox="0 0 445.25 216.91"><defs><style>.cls-1{fill:#00adcc;}.cls-2{fill:#00244a;}.cls-3{fill:#fcfefe;}</style></defs><title>Asset 27</title><g id="Layer_2" data-name="Layer 2"><g id="Camada_1" data-name="Camada 1"><path class="cls-1" d="M214.55,129.18c1.63,3,1.12,4.06-2.24,4.21-4.15.17-8.31.25-12.46.17-4-.08-6.92-2.72-10.15-4.53-4.46-2.49-4.34-2.58-5.63,2.39-1.8,6.88-3.78,13.7-6.23,20.38a3.76,3.76,0,0,1-3.83,2.88,37.33,37.33,0,0,0-7.58,1c-5.93,1.41-11.34-.23-16.66-2.53-2.83-1.23-3-1.25-4.11,1.59a71.52,71.52,0,0,0-5.14,18.51,22.45,22.45,0,0,1-1.14,4.62,3.36,3.36,0,0,1-3.52,2.62c-3-.12-5.83.81-8.8.89a38.66,38.66,0,0,1-13-1.66c-1.55-.49-2.87-1-3.47,1.79-2.14,9.85-4.22,19.74-7.28,29.38-1.61,5.07-3.27,6.24-8.45,6-5.85-.28-11.52-1.61-17.26-2.56-5.43-.89-10.9-1.52-16.36-2.24C52.82,211,44.35,210,35.93,208.6c-3.14-.52-6.3-1-9.47-1.32-3.55-.41-6.27-1.68-7.54-5.4a118.26,118.26,0,0,1-3.83-15.26c-1.13-5.77-2-11.6-3.12-17.38C10,159,8.61,148.77,7.42,138.46c-2.58-22.45-4.18-45-6-67.5A413.46,413.46,0,0,1,.47,17.12c.17-3.65.73-7.28.69-11,0-2.48,1.35-4,5.26-3.75,5.2.31,10.38.11,15.56.25a7,7,0,0,1,4.67,1.52C33.81,10.66,42.35,15,50.78,19.42c6.13,3.24,12.34,6.33,18.24,10,1.37.85,2,1,2.77-.86,2.7-6.6,4.79-13.41,7.37-20,2.11-5.43,3.51-6.07,9.23-5.64a101.27,101.27,0,0,0,11,.17,8.23,8.23,0,0,1,5.92,2c.67.56,1.34,1.12,2,1.65,3.13,2.44,3.1,2.42,5.7-.58a6,6,0,0,1,4.42-2,113.37,113.37,0,0,1,13.42,0c4.32.31,7.44,3,10.31,5.91,2.23,2.3,2.13,2.28,3.4-.66,2.62-6.11,1.08-5.36,8-5.41,4.07,0,8.16.2,12.22.06a8.92,8.92,0,0,1,6.6,2.72c2,1.78,3.56,4,6,5.51a6.37,6.37,0,0,0,.47-1c1.58-6.87,5.27-7.93,11.28-7.56,3.43.21,6.85.33,10.29.36a6.93,6.93,0,0,1,5.74,2.77c3.81,4.78,3.92,4.76,9.2,1.86A45.25,45.25,0,0,1,237,3c3.44,0,6.88.08,10.31,0,2.65-.07,4.54.72,5.76,3.28.55,1.16,1.1,3.08,2.64,3s1.37-2.13,1.56-3.17c.55-3,2.63-3.58,5-3.67,4.63-.19,9.27-.15,13.9-.34a6.84,6.84,0,0,1,6.48,3.62,54.35,54.35,0,0,0,5.57,6.82c1,1.19,1.62,1.34,2.08-.52a27.9,27.9,0,0,1,2.86-6.79,6.79,6.79,0,0,1,6.14-3.89c4.95,0,9.89.16,14.83.31a5.81,5.81,0,0,1,4.68,2.5c.83,1.14,1.33,1.76,2.25,0C322.83.64,326.36.88,329.45.5c4-.49,7.95.47,11.92.81a3.39,3.39,0,0,1,3.13,2.48A42.94,42.94,0,0,0,349,12.4c.33.52.56,1.54,1.44,1.33.73-.17.88-1,1.14-1.71.93-2.36,1.81-4.75,2.88-7A7.83,7.83,0,0,1,361.9.29c3.67-.06,7.35,0,11,.2,3.36.16,4.71,2.87,6.24,5.29.36.57.25,1.59,1.19,1.62,1.11,0,1-1.12,1.29-1.76C384,.85,384.74.43,390.12,1c4,.42,7.95.43,11.92.9,2,.24,2.71,1.29,3.26,2.85,1,2.9,2.06,5.8,3.32,9.33,1.6-3.88,3.07-7.18,4.31-10.56A4.33,4.33,0,0,1,416.7.32c4.85-.27,9.72-.41,14.56-.26,2.9.1,4.21,1.9,4.89,4.67,1.18,4.77,2.53,9.51,3.94,14.22,1.83,6.1,2.54,12.5,4.53,18.52,1.69,5.1-.38,9.16-2.2,13.42a230.46,230.46,0,0,0-9.88,27,58.6,58.6,0,0,0-2.25,10c-.22,2.14-1.09,3.6-3.63,3.43-3.13-.22-6.14.84-9.28.93-5.16.15-8.9-1.68-11.27-6.33-.34-.67-.53-1.94-1.61-1.84s-.87,1.33-1.11,2.12c-.86,2.81-1.74,5.61-2.58,8.42-.22.74-.52,1.42-1.37,1.44-4.37.11-8.67,1.26-13.11.42a8.15,8.15,0,0,1-5.68-3.84c-.64-1-1.4-1.92-2.11-2.87l-.36-.51-.1.08.09-.09-.47-.48-.12.12.13-.11a251.81,251.81,0,0,0-15.57-20.21A5.55,5.55,0,0,1,361,62.29q8.26-22.36,16.29-44.81c.55-1.54,1.26-3.3-.41-5-1.25,1.8-1.68,3.82-2.45,5.7-6.05,14.84-11.4,30-17.14,44.9a5.16,5.16,0,0,0,.69,5c4.31,7.12,9.69,13.47,14.32,20.36,1.18,1.76,2.74,3.36,2.88,5.66l0,0c-.26,0-.3.19-.21.41-.49.41-.95,1.15-1.46,1.17-4.67.25-9.38,1-14-.23-2.61-.73-4.23-2.7-5.71-4.8a9.61,9.61,0,0,0-2.74-3c-1.75,3.9-3.46,7.62-5.09,11.38a2.87,2.87,0,0,1-2.91,2c-4.71,0-9.42.1-14.13-.23a3.19,3.19,0,0,1-2-1c-.87-.8-1.76-1.58-3-2.68-.41,4.14-3.51,4-6.1,4.32-7.52,1-14.29-.46-20.18-5.75-4-3.63-3.65-4-5.5,1.82-.78,2.42-1.28,4.91-2,7.35a3,3,0,0,1-3,2.52c-5.88.12-11.75,1.48-17.62,0-.8-.21-1.32.23-1.86.79-5.25,5.51-11.55,9.38-19.06,10.58-8.52,1.35-16.85.63-24.19-4.7a14.56,14.56,0,0,0-4.52-2.6c-.39-.26-.76-.56-1.17-.78-11.44-6.09-23.05-11.87-34-18.84-2.19-1.39-2.83-3.1-2.18-5.45,1.53-5.53,3-11.07,4.64-16.59.68-2.4,1.79-2.86,4.14-2.08A38.42,38.42,0,0,0,203.16,70c3.13,0,5.9-.66,7.61-3.52s.55-5.31-.88-7.67c-2.37-3.88-4.92-7.65-7.38-11.46a23.13,23.13,0,0,1-4-14c.38-6.19,2.25-12,6.49-16.75,1.8-2,.88-2.74-1-3.65-.91,2.88-2.23,5.57-3.29,8.39-3.91,10.41-7.73,20.85-11.35,31.36q-9.27,26.91-16.11,54.53a1.5,1.5,0,0,0,1,2c5.23,2.32,10.45,4.64,15.6,7.11C198.29,120.28,207,123.66,214.55,129.18ZM21.69,27.28c-.3-5.42.28-11.9-.41-18.35-.13-1.14-.23-2-1.7-2-4.16,0-8.32,0-12.47,0-1.22,0-1.69.58-1.69,1.77.06,7.75-1,15.45-1,23.2,0,9.82.31,19.62.72,29.43.36,8.69.85,17.38,1.59,26,1.07,12.39,2.31,24.76,3.51,37.13.63,6.42,1.06,12.87,2.09,19.23,1.14,7,1.82,14.14,3.44,21.1,1,4.24,1.31,8.62,2.2,12.88,1.46,7,3.06,14,4.83,20.89.28,1.09.12,3.13,2.19,3.15,3.91,0,7.81,0,11.72.34.86.06,2,.11,2.28-1.19.93-3.83,1.91-7.65,2.82-11.48,1.05-4.36,1.93-8.77,3.11-13.09,1.71-6.28,3.62-12.51,5.46-18.75,2.11-7.19,4.16-14.4,6.37-21.55,2.94-9.47,6.15-18.86,9-28.36,2.94-9.87,6.42-19.56,10-29.2,3.46-9.38,6.84-18.79,10-28.27C90.22,36.41,95.23,22.91,101,9.67c.61-1.42.17-1.6-1.14-2-3.13-1-6.32-.27-9.43-.71-4.07-.58-6.14,1.31-7.42,4.91-2,5.54-4.09,11-6.17,16.52-3,8.07-6.16,16.11-9.15,24.19-2.81,7.57-5.39,15.22-7.86,22.91-2.64,8.19-5.66,16.26-8.24,24.46-2.8,8.92-5.2,18-7.93,26.89-3.15,10.32-5.89,20.76-8.54,31.22-.35,1.4-1,2.31-2.59,2.24s-2-1-2.22-2.35c-1.63-8.85-2.43-17.81-3.63-26.72-.95-7-1.33-14.1-1.92-21.15-.95-11.27-1.59-22.59-1.86-33.88C22.47,60.23,21.55,44.29,21.69,27.28ZM97.33,210.7c.7.08,1.42-.5,2.19-2.95,2.81-8.88,4.63-18,6.66-27.07.43-1.93.55-3.25-1.84-3.85-4.7-1.17-9.36-2.55-14-3.86a252.61,252.61,0,0,1-27.21-9.13c-1.87-.76-2.65-1.78-2-3.86,1-3.11,1.87-6.27,2.76-9.42q5.25-18.5,10.49-37c2-7,3.83-13.93,6-20.82C83,84.57,85.76,76.44,88.6,68.33c4.43-12.7,9.27-25.26,14.23-37.77,2-5.08,4.07-10.15,6-15.24.62-1.59-.74-3.72-2.81-4.13-1.33-.27-1.34,1.25-1.69,2.06Q97.71,29,92.18,45.2c-3,8.88-6,17.81-9.06,26.67-2.75,7.87-5.8,15.64-8.46,23.54Q68.54,113.65,62.8,132q-4.86,15.48-9.38,31.07c-2.31,8-4.37,16.1-6.46,24.18-1.1,4.23-2.05,8.51-3,12.78-.25,1.09-.52,2.26,1.23,2.5,4.42.59,8.83,1.26,13.24,1.91,5,.72,9.93,1.4,14.88,2.2C81.09,207.93,88.86,209.28,97.33,210.7ZM32.88,144.91l.61.05a14.3,14.3,0,0,0,.69-1.74c2.09-7.85,4.41-15.64,6.65-23.45,3.7-12.9,7.76-25.67,11.91-38.43,4.88-15,10-29.94,15.8-44.62a2,2,0,0,0-.86-2.82c-2.19-1.29-4.37-2.62-6.58-3.88C50,23.72,38.25,18.68,27.92,11.09c-1.46-1.07-2-.44-2,1.12.08,2.31.26,4.61.3,6.92.22,11.73-.05,23.47.6,35.2.62,11.23.55,22.48,1.17,33.72.74,13.14,1.53,26.27,2.88,39.37C31.51,133.25,32.22,139.08,32.88,144.91ZM278.38,36.72v-.1c-2.24,0-4.48.07-6.71,0s-3.06-1.33-2.43-3.36C271,27.49,273,21.79,274.71,16c.63-2.11,1.35-4.19,2-6.28.4-1.23,1-2.95-1.6-2.87-4,.11-8,0-12,0-1,0-1.45.35-1.8,1.4-1.43,4.3-3.07,8.54-4.57,12.82C254,29,251.32,36.88,248.54,44.75c-3.47,9.79-6.29,19.81-10.12,29.48-.71,1.8.08,2.51,1.87,2.53,2.72,0,5.43.13,8.15.2,4.56.11,3.77-.09,5.29-3.93,2.57-6.47,5.12-13,7.07-19.69.37-1.26,1-2.56,2.95-2.49,4.38.15,8.75-.51,13.15-.37,4,.13,4.76,1.37,3.39,5.05-1.62,4.39-3,8.88-4.54,13.3-.61,1.69,0,2.17,1.57,2.16,4,0,8-.06,12,0,1.6,0,2.28-.79,2.76-2.1C295.45,59.59,299,50.32,302.23,41c3.75-10.75,9-21,11.42-32.19.5-2.33-.22-2.76-2-2.82-3-.11-6.08,0-9.1-.18-3.71-.25-5.3,1.32-6.49,4.66-2.77,7.83-5.64,15.62-7.88,23.63a3.26,3.26,0,0,1-3.81,2.69C282.38,36.57,280.37,36.72,278.38,36.72Zm-137-19.23c.16-.78-.37-1.07-.76-1.46-.79-.79-1.6-1.56-2.33-2.39-1.14-1.3-1.76-1.48-2.57.44-6.18,14.52-12,29.19-17.5,44q-6.78,18.06-13,36.33c-4.14,12.3-8.07,24.68-11.66,37.16-2.65,9.19-5.13,18.43-7.83,27.6-.67,2.25.2,2.91,2.12,3.44q22.68,6.3,45.32,12.74c1.7.48,2.33-.1,2.59-1.71.44-2.67,1-5.32,1.51-8A80.27,80.27,0,0,1,142,151.88c.52-1.3.2-1.79-1.15-2.19-3.19-.95-6.34-2.09-9.48-3.2-8.42-3-16.81-6-25.23-9-3.07-1.08-3.64-2-2.7-5.45,2.51-9.19,5-18.39,7.7-27.53C114,95,117,85.54,120,76.05q8.16-25.69,18.29-50.7C139.37,22.71,140.4,20.05,141.41,17.49Zm-63,143.62c.82-.1,2.24,0,2.65-1.6q2.19-8.61,4.72-17.11c2.47-8.29,4.65-16.68,7.17-25,2.28-7.45,4.86-14.82,7.32-22.22,2.63-7.88,5.18-15.79,8-23.6,3-8.31,6.18-16.54,9.34-24.78C121,38,124.36,29.23,128.07,20.55c1.24-2.89,2.41-5.8,3.71-8.67,1.14-2.52.78-3.12-1.86-3.15-3.91-.06-7.83,0-11.74,0a2.4,2.4,0,0,0-2.51,1.75c-1.07,2.85-2.08,5.74-3.21,8.57-2.74,6.92-5.6,13.78-8.27,20.72q-5.25,13.65-10.25,27.4c-2.21,6.08-4.33,12.18-6.26,18.36-1.66,5.32-3.46,10.59-5,16-1.66,6-3.62,11.84-5.32,17.79-1.8,6.29-3.4,12.63-5.16,18.93S68.62,151,66.71,157.42c-.52,1.77,0,2.59,1.76,2.76C71.65,160.49,74.83,160.78,78.42,161.11Zm50.69-28.72c-.18,1.21.62,1.44,1.52,1.77,3.52,1.27,7,2.64,10.53,4,10,3.74,19.66,8.53,30.08,11.26,1.64.43,2.52.48,3.2-1.42,2.4-6.69,4-13.6,6.06-20.38.76-2.52.08-3.88-2.33-4.69-1.18-.41-2.28-1.09-3.42-1.62a111.54,111.54,0,0,0-24.22-8.58c-3.71-.78-4.08-1.32-3.08-5q3.08-11.31,6.07-22.66c2.87-10.83,5.84-21.65,9.54-32.23,3.54-10.11,7.47-20.08,11.23-30.11,2-5.27,2-5.23-2.21-9.12-1.42-1.32-2.1-1-2.62.72-.67,2.19-1.29,4.42-2.15,6.54-4.68,11.57-9.69,23-14.15,34.68-4.82,12.63-9.3,25.39-13.33,38.29-2.65,8.49-5,17.07-7.4,25.64C131.22,123.72,130.21,128.06,129.11,132.39Zm-13,.22a30.12,30.12,0,0,1,5,0c2.79.48,3.69-1.11,4.1-3.31,1.25-6.78,3.34-13.34,5.11-20,2.13-8,4.88-15.74,7.32-23.62,3.15-10.18,6.9-20.15,10.57-30.15,4.66-12.67,10.21-25,15.18-37.52a68.87,68.87,0,0,0,2.22-7.2c.3-1.09.15-2.16-1.39-2.15-3.74,0-7.38-1-11.16-.87a3.66,3.66,0,0,0-3.67,2.39c-1.7,4.05-3.39,8.11-5,12.19-2.72,6.85-5.52,13.66-8,20.61-2.6,7.37-5.7,14.58-8,22-2.69,8.57-5.76,17-8.16,25.69-1.94,7-4.36,13.79-6.39,20.73-1.9,6.48-3.51,13-5.36,19.53-.37,1.32,0,1.57,1.15,1.57ZM334.65,46.07c2.24,0,4.48-.07,6.71,0,2,.08,2.58,1.28,1.94,3.16-1.44,4.18-2.76,8.39-4.22,12.56-.55,1.56.13,1.79,1.43,1.77,3.36,0,6.71,0,10.07,0A2,2,0,0,0,352.82,62q5.64-15.28,11.44-30.5,4.35-11.44,8.84-22.82c1-2.5.47-3.58-2.21-3.72-2.39-.13-4.79-.06-7.18,0-3.58,0-5.11,1.18-6.33,4.52q-3.83,10.51-7.78,21C349,32,348.07,33,346.05,32.83c-3.64-.36-7.31-.43-11-.63-2.08-.11-3.06-1.1-2.6-3.26.83-3.8,2.23-7.42,3.43-11.11,1-3.14,2.25-6.21,3.2-9.37.26-.86,1-2.46-.87-2.6-3.32-.26-6.64-1-10-.1-.71.19-1.29.22-1.61,1.1-.87,2.35-2,4.61-2.86,7-2.94,7.93-5.67,15.94-8.76,23.8-3.81,9.72-7.17,19.6-10.9,29.34-.63,1.66-.43,2.36,1.49,2.32,3.43-.07,6.87,0,10.3,0a2.06,2.06,0,0,0,2.25-1.59C320.6,61.5,323.07,55.36,325,49c.61-2.06,1.8-3.23,4.18-3A53.26,53.26,0,0,0,334.65,46.07ZM204.14,89.32c1.62.31,3.75-.6,6-.79a22,22,0,0,0,14.54-7.07c8.46-9.22,9.77-20.35,3.64-31.54-2.6-4.76-6.09-9-8.25-14-2.55-5.95-.85-10.42,5.17-12.69,4.54-1.72,9.37-1.67,14.13-1.89,1.34-.07,2.39-.46,2.88-1.69,1.35-3.38,2.62-6.79,3.87-10.22.24-.65.37-1.65-.73-1.59-2.34.13-4.66-1.26-6.82-.71-3.74,1-7.55.51-11.32,1.43-8.11,2-15.11,5.41-19.77,12.61-4.28,6.6-5.83,13.57-2.49,21.07,1.72,3.86,4.58,7,6.92,10.45,1.95,2.9,4.22,5.74,4.49,9.31.57,7.45-4.88,12.2-12.33,12.78-3.49.27-6.89-.65-10.26-1.54-1-.26-2.54-1-3.07.65-1.09,3.47-2,7-3,10.52-.38,1.4-.17,2.68,1.46,3C193.93,88.11,198.63,89.25,204.14,89.32Zm201-30.63h0c1.92,0,3.83,0,5.75,0,.95,0,1.71-.14,2-1.21,2-6.38,3.9-12.77,6-19.1,3.52-10.46,7.16-20.88,10.8-31.31.72-2.07.34-2.93-1.87-3a47.76,47.76,0,0,0-7.18.1c-1.38.15-3.11.12-3.81,1.89-1.29,3.28-2.53,6.59-3.91,9.84s-1.52,6.76-2.76,10c-.65,1.73-1.3,3.43-3.58,3.52-2.95.12-5.9.34-8.84.39-4,.07-4.61-.76-3.77-4.68a13.25,13.25,0,0,1,.46-1.34c1.72-5.31,3.45-10.61,5.13-15.93.38-1.21.05-2-1.48-1.94-3,0-6.08.07-9.1-.19-2.08-.18-3,.77-3.72,2.47-3,7-4.66,14.48-7.56,21.54-2.74,6.66-5,13.52-7.49,20.29-1.33,3.64-2.71,7.27-3.93,11-.3.88-1.07,2.4.94,2.46,3.33.11,6.54,1.21,9.93,1.06,1.61-.08,2.53-.54,3-2,1.94-5.62,4-11.18,5.76-16.87a3.45,3.45,0,0,1,3.74-2.85c3.12,0,6.24,0,9.35,0,3.6,0,4.36,1.24,3,4.65s-2.39,6.7-3.76,10c-.47,1.13-.11,1.27.77,1.28C401.11,58.71,403.11,58.69,405.11,58.69ZM166.5,107.31c1.36.37,2.3-1.25,2.7-3,1.15-4.93,2.64-9.75,3.91-14.64,1.92-7.38,4.28-14.62,6.45-21.92,1.61-5.41,3.49-10.74,5.28-16.09,2.88-8.56,5.89-17.07,9.16-25.49,2-5,4-10,5.9-15.08.29-.75.88-2.1-.65-2.3-3.53-.47-7-1.37-10.66-.91-3.38.42-5.87,2.37-6.57,5.33C179.44,24.16,174.89,34.4,171,44.85c-3,8-5.76,16.08-8.2,24.27q-2.35,7.86-4.49,15.79c-1.79,6.58-3.48,13.2-5.19,19.8-.37,1.42.13,2,1.68,2A70.69,70.69,0,0,1,166.5,107.31Zm30.44-14.06c1.31,1.61,2.79,2,4.05,2.76,9,5.24,18.64,9.39,27.43,15.06a22,22,0,0,0,9.18,3.21c9.36,1.16,17.63-1.54,24.85-7.55,2-1.68,2-1.84-.25-3.38A312.21,312.21,0,0,1,233.68,81c-1.56-1.37-2.08-1-3.19.41-5.72,7.48-13.56,11-22.77,11.82A68,68,0,0,1,196.94,93.25ZM441,42.46c-.48-2-1-4.27-1.55-6.52q-2.62-10.75-5.26-21.52c-.16-.68,0-1.61-1-1.7s-.75.85-.95,1.41c-4.63,12.91-8.65,26-12.95,39-1.55,4.68-2,8.79.16,13.48,2,4.48,3.59,9.2,6.1,13.48.25.43.33,1.2,1.11,1,.51-.12.67-.61.79-1.1,2.66-10.74,7-20.87,11.28-31C439.59,47,440.81,45,441,42.46ZM270.17,55.19c-1.12,0-2.24.07-3.35,0a2,2,0,0,0-2.33,1.58c-2.12,7-4.8,13.75-7.55,20.5a1.88,1.88,0,0,0,.73,2.48c1.92,1.42,3.78,2.92,5.68,4.37,7,5.32,14.1,10.6,21.1,16,1.41,1.08,2,.81,2.4-.79a38,38,0,0,1,2.46-7.44c.78-1.53.28-2.36-1-3.29-5.56-4-10.94-8.25-16.29-12.54-1.94-1.56-2.71-3-1.72-5.48,1.33-3.33,2.23-6.82,3.4-10.21C275.45,55.18,275.48,55.19,270.17,55.19ZM236.46,65.27c.43-.4.59-.48.63-.59,5-15.54,10.36-30.93,15.92-46.25.91-2.51.6-4-1.24-5.75-1.2-1.14-1.68-1.09-2.21.4-1,2.85-2.07,5.69-3.17,8.5-1.83,4.72-2.24,4.85-7.26,4.34a27.93,27.93,0,0,0-11.79,1.29c-3.28,1.11-4.35,3.44-3.35,6.73a18.89,18.89,0,0,0,3.12,5.84C232.75,47.24,236.87,55.24,236.46,65.27Zm97.22-14.7c-4.18.12-4.17.12-5.7,4.11q-2.94,7.7-5.89,15.38a2.74,2.74,0,0,0,.56,3.29c.86.82,1.5,1.9,2.42,2.64,6.17,5,12.06,10.2,16.74,16.66.91,1.26,1.61,1.07,2.19-.29a71.91,71.91,0,0,1,3-7c.94-1.7.38-2.76-.69-4-3.84-4.46-7.7-8.9-11.89-13a3.51,3.51,0,0,1-1-4.27c1.19-3.12,2.07-6.37,3.11-9.55C337.9,50.45,337.92,50.45,333.68,50.57ZM397.5,88.82c1.51-2.93,1.84-6,3.05-8.75a4.87,4.87,0,0,0-.56-4.9c-2.32-3.78-4.36-7.74-6.58-11.59a4.89,4.89,0,0,1-.44-4.93c1.06-2.31,1.84-4.75,2.73-7.13,1.6-4.3,1.6-4.24-2.94-4.22a2.91,2.91,0,0,0-3.28,2.33c-1.57,4.85-3.36,9.62-5.08,14.41a4.56,4.56,0,0,0,.49,4.67c1.88,2.65,3.36,5.59,5.05,8.38A121.94,121.94,0,0,0,397.5,88.82Zm8.73-25.38v-.17c-1.75,0-3.51.07-5.25,0-1.9-.09-2.26.43-1.29,2.16q5.49,9.85,11.47,19.42a4.88,4.88,0,0,0,4.28,2.5,32.64,32.64,0,0,0,6.91-.31c1.13-.21,1.62-.4.87-1.64a87.58,87.58,0,0,1-8.71-19.58,3.09,3.09,0,0,0-3.74-2.41A38.19,38.19,0,0,1,406.23,63.44ZM280.48,103.07a4.82,4.82,0,0,0-.62-.69q-13.07-10-26.15-20a3.33,3.33,0,0,0-1.71-.75,91.89,91.89,0,0,0-9.68-.29c0,.83.56,1.09,1,1.44,7.08,6,14.34,11.79,22,17.08A19.18,19.18,0,0,0,280.48,103.07ZM307.31,74a5.11,5.11,0,0,0,1.88,2.68c5.5,5.28,11.31,10.26,16.42,15.88,3.26,3.59,6.82,4.57,11.23,4.09.45,0,1,.14,1.28-.36s-.15-1-.5-1.44A80,80,0,0,0,324.9,81.58a32.53,32.53,0,0,1-6.82-6.64,2,2,0,0,0-1.77-1C313.38,74,310.45,74,307.31,74Zm5.06,23.17a5,5,0,0,0,.95,0c.73-.12,1.81.46,2.09-.54.19-.69-.74-1.08-1.3-1.54-2-1.65-4-3.39-6-5-5.42-4.43-11.3-8.32-15.87-13.71a2.13,2.13,0,0,0-1.68-.76L281,75.19c-.55,0-1.3-.16-1.51.42-.3.79.58,1,1.06,1.36,6.07,4.62,12.1,9.28,18.25,13.8C302.88,93.77,306.85,97.13,312.37,97.12ZM368,68.25l1.6,2.12c4.3,5.71,9.08,11.08,12.77,17.22,2.28,3.78,5.27,5.19,9.52,4.49,1.35-.21,1.82-.6,1-1.78-4.48-6.5-8.15-13.51-12.46-20.11-.32-.48-.59-1-1.25-1C375.57,69.33,372.08,68.25,368,68.25Zm-26.14.12c1.56,1.79,2.84,3.17,4,4.63A147.49,147.49,0,0,1,357,87.84c2.28,3.66,6.1,4.37,9.76,3.88,1.62-.22,1.67-1,.83-2.06a233.55,233.55,0,0,1-14-20,2.33,2.33,0,0,0-2.1-1.33C348.49,68.38,345.47,68.37,341.83,68.37Zm-25,22.95c.13-1-.44-1.27-.81-1.62-5.48-5.21-10.95-10.43-16.47-15.59a4.58,4.58,0,0,1-1.39-5c.71-2.73,2.15-5.14,3.12-7.75,5.54-15,11.1-29.9,16.54-44.89.33-.92,1.66-2.59.63-2.89-1.55-.45-1,1.67-1.53,2.59-.08.14-.17.27-.24.42-7.46,17.84-13.71,36.13-20.6,54.19a3.22,3.22,0,0,0,.73,3.91c1.63,1.52,3.14,3.18,4.87,4.59C306.67,83.33,311.7,87.24,316.86,91.32ZM281.29,11.76l-5.81,17.1c-.2.61-.3,1.25-.53,1.84-.54,1.38,0,1.94,1.38,1.92,1.83,0,3.67-.09,5.49,0a2.28,2.28,0,0,0,2.56-2c.79-3,1.87-5.87,2.8-8.8.33-1,1.15-2.18.24-3.38A46.42,46.42,0,0,0,281.29,11.76Zm61.63,16.67c1.56,0,2.47-.28,3.08-1.05,2-2.49,2.43-7.19.9-9.91-.89-1.59-1.84-3.14-2.75-4.71-.22-.38-.17-1-.82-1s-.82.67-1,1.2c-1.22,3.69-2.47,7.37-3.66,11.07-1.25,3.89-1.22,3.9,2.93,4.23C342.08,28.3,342.55,28.38,342.92,28.43ZM163.7,112.12c11.33,4.17,22,8.82,31.83,15.22a12.8,12.8,0,0,0,10.58,1.57c-12.63-5.69-24.31-11.94-36.69-16.69A8.14,8.14,0,0,0,163.7,112.12Zm-42.42,25.52c.26.78.79.83,1.21,1,11,3.87,22.13,7.37,32.92,11.86,1.74.72,3.76,1.73,6.08.77-4-1.62-7.79-3.15-11.58-4.7-7.81-3.19-15.59-6.46-23.64-9A6.28,6.28,0,0,0,121.28,137.64ZM403,12.46c-1.1,3.41-2.09,6.4-3,9.41-1,3.25-1,3.26,2.38,3.25s5.12-2.36,3.84-5.62C405.26,17.26,404.16,15.1,403,12.46Z"/><path class="cls-2" d="M214.55,129.18c-7.57-5.52-16.26-8.9-24.62-12.89-5.15-2.47-10.37-4.79-15.6-7.11a1.5,1.5,0,0,1-1-2q6.8-27.64,16.11-54.53c3.62-10.51,7.44-21,11.35-31.36,1.06-2.82,2.38-5.51,3.29-8.39,1.87.91,2.79,1.65,1,3.65-4.24,4.72-6.11,10.56-6.49,16.75a23.13,23.13,0,0,0,4,14c2.46,3.81,5,7.58,7.38,11.46,1.43,2.36,2.5,4.94.88,7.67S206.29,70,203.16,70a38.42,38.42,0,0,1-11.92-2.29c-2.35-.78-3.46-.32-4.14,2.08-1.59,5.52-3.11,11.06-4.64,16.59-.65,2.35,0,4.06,2.18,5.45,11,7,22.57,12.75,34,18.84.41.22.78.52,1.17.78-1.75,1.25-1.47,3.41-2.09,5.11-1.33,3.73-2.17,7.64-3.18,11.49A4.24,4.24,0,0,0,214.55,129.18Z"/><path class="cls-2" d="M375.19,94.13c-.14-2.3-1.7-3.9-2.88-5.66-4.63-6.89-10-13.24-14.32-20.36a5.16,5.16,0,0,1-.69-5C363,48.13,368.39,33,374.44,18.18c.77-1.88,1.2-3.9,2.45-5.7,1.67,1.7,1,3.46.41,5Q369.23,39.92,361,62.29a5.55,5.55,0,0,0,1.13,6.26,251.81,251.81,0,0,1,15.57,20.21c-1.64-.17-1.92.9-2.08,2.18C375.5,92,376.1,93.18,375.19,94.13Z"/><path class="cls-2" d="M377.7,88.75l.47.48A.43.43,0,0,1,377.7,88.75Z"/><path class="cls-2" d="M378.18,89.24l.36.51Z"/><path class="cls-2" d="M375,94.58c-.09-.22,0-.37.21-.41Z"/><path class="cls-3" d="M21.69,27.28c-.14,17,.78,32.95,1.16,48.91.27,11.29.91,22.61,1.86,33.88.59,7.05,1,14.14,1.92,21.15,1.2,8.91,2,17.87,3.63,26.72.25,1.31.75,2.28,2.22,2.35s2.24-.84,2.59-2.24c2.65-10.46,5.39-20.9,8.54-31.22,2.73-8.94,5.13-18,7.93-26.89,2.58-8.2,5.6-16.27,8.24-24.46,2.47-7.69,5-15.34,7.86-22.91,3-8.08,6.11-16.12,9.15-24.19,2.08-5.5,4.21-11,6.17-16.52,1.28-3.6,3.35-5.49,7.42-4.91,3.11.44,6.3-.28,9.43.71,1.31.41,1.75.59,1.14,2C95.23,22.91,90.22,36.41,85.71,50.12,82.58,59.6,79.2,69,75.74,78.39c-3.57,9.64-7,19.33-10,29.2-2.83,9.5-6,18.89-9,28.36-2.21,7.15-4.26,14.36-6.37,21.55-1.84,6.24-3.75,12.47-5.46,18.75-1.18,4.32-2.06,8.73-3.11,13.09-.91,3.83-1.89,7.65-2.82,11.48-.31,1.3-1.42,1.25-2.28,1.19-3.91-.3-7.81-.31-11.72-.34-2.07,0-1.91-2.06-2.19-3.15-1.77-6.92-3.37-13.9-4.83-20.89-.89-4.26-1.22-8.64-2.2-12.88-1.62-7-2.3-14.07-3.44-21.1-1-6.36-1.46-12.81-2.09-19.23-1.2-12.37-2.44-24.74-3.51-37.13-.74-8.66-1.23-17.35-1.59-26-.41-9.81-.72-19.61-.72-29.43,0-7.75,1-15.45,1-23.2,0-1.19.47-1.78,1.69-1.77,4.15,0,8.31.06,12.47,0,1.47,0,1.57.9,1.7,2C22,15.38,21.39,21.86,21.69,27.28Z"/><path class="cls-2" d="M97.33,210.7c-8.47-1.42-16.24-2.77-24-4-5-.8-9.92-1.48-14.88-2.2-4.41-.65-8.82-1.32-13.24-1.91-1.75-.24-1.48-1.41-1.23-2.5,1-4.27,1.91-8.55,3-12.78,2.09-8.08,4.15-16.16,6.46-24.18q4.5-15.58,9.38-31.07,5.78-18.36,11.86-36.62c2.66-7.9,5.71-15.67,8.46-23.54,3.1-8.86,6-17.79,9.06-26.67Q97.7,29,104.37,13.25c.35-.81.36-2.33,1.69-2.06,2.07.41,3.43,2.54,2.81,4.13-2,5.09-4,10.16-6,15.24-5,12.51-9.8,25.07-14.23,37.77C85.76,76.44,83,84.57,80.38,92.76c-2.17,6.89-4,13.87-6,20.82q-5.25,18.48-10.49,37c-.89,3.15-1.74,6.31-2.76,9.42-.68,2.08.1,3.1,2,3.86A252.61,252.61,0,0,0,90.31,173c4.67,1.31,9.33,2.69,14,3.86,2.39.6,2.27,1.92,1.84,3.85-2,9.07-3.85,18.19-6.66,27.07C98.75,210.2,98,210.78,97.33,210.7Z"/><path class="cls-2" d="M32.88,144.91c-.66-5.83-1.37-11.66-2-17.49-1.35-13.1-2.14-26.23-2.88-39.37-.62-11.24-.55-22.49-1.17-33.72-.65-11.73-.38-23.47-.6-35.2,0-2.31-.22-4.61-.3-6.92-.05-1.56.5-2.19,2-1.12C38.25,18.68,50,23.72,61.1,30c2.21,1.26,4.39,2.59,6.58,3.88a2,2,0,0,1,.86,2.82C62.72,51.4,57.62,66.33,52.74,81.34c-4.15,12.76-8.21,25.53-11.91,38.43-2.24,7.81-4.56,15.6-6.65,23.45a14.3,14.3,0,0,1-.69,1.74Z"/><path class="cls-3" d="M278.38,36.72c2,0,4-.15,6,0a3.26,3.26,0,0,0,3.81-2.69c2.24-8,5.11-15.8,7.88-23.63,1.19-3.34,2.78-4.91,6.49-4.66,3,.21,6.07.07,9.1.18,1.79.06,2.51.49,2,2.82C311.2,20,306,30.22,302.23,41c-3.27,9.35-6.78,18.62-10.16,27.94-.48,1.31-1.16,2.14-2.76,2.1-4-.08-8-.05-12,0-1.6,0-2.18-.47-1.57-2.16,1.57-4.42,2.92-8.91,4.54-13.3,1.37-3.68.56-4.92-3.39-5.05-4.4-.14-8.77.52-13.15.37-2-.07-2.58,1.23-2.95,2.49-1.95,6.72-4.5,13.22-7.07,19.69-1.52,3.84-.73,4-5.29,3.93-2.72-.07-5.43-.16-8.15-.2-1.79,0-2.58-.73-1.87-2.53,3.83-9.67,6.65-19.69,10.12-29.48,2.78-7.87,5.48-15.77,8.25-23.64,1.5-4.28,3.14-8.52,4.57-12.82.35-1,.77-1.41,1.8-1.4,4,0,8,.09,12,0,2.61-.08,2,1.64,1.6,2.87-.68,2.09-1.4,4.17-2,6.28C273,21.79,271,27.49,269.24,33.25c-.63,2,.31,3.28,2.43,3.36s4.47,0,6.71,0Z"/><path class="cls-2" d="M141.41,17.49c-1,2.56-2,5.22-3.1,7.86q-10.08,25-18.29,50.7c-3,9.49-6.07,19-8.9,28.5-2.71,9.14-5.19,18.34-7.7,27.53-.94,3.44-.37,4.37,2.7,5.45,8.42,3,16.81,6,25.23,9,3.14,1.11,6.29,2.25,9.48,3.2,1.35.4,1.67.89,1.15,2.19a80.27,80.27,0,0,0-4.63,13.75c-.54,2.65-1.07,5.3-1.51,8-.26,1.61-.89,2.19-2.59,1.71q-22.65-6.44-45.32-12.74c-1.92-.53-2.79-1.19-2.12-3.44,2.7-9.17,5.18-18.41,7.83-27.6,3.59-12.48,7.52-24.86,11.66-37.16s8.43-24.29,13-36.33c5.54-14.77,11.32-29.44,17.5-44,.81-1.92,1.43-1.74,2.57-.44.73.83,1.54,1.6,2.33,2.39C141,16.42,141.57,16.71,141.41,17.49Z"/><path class="cls-3" d="M78.42,161.11c-3.59-.33-6.77-.62-10-.93-1.74-.17-2.28-1-1.76-2.76q2.87-9.58,5.54-19.21c1.76-6.3,3.36-12.64,5.16-18.93,1.7-6,3.66-11.83,5.32-17.79,1.49-5.38,3.29-10.65,5-16,1.93-6.18,4-12.28,6.26-18.36q5-13.75,10.25-27.4c2.67-6.94,5.53-13.8,8.27-20.72,1.13-2.83,2.14-5.72,3.21-8.57a2.4,2.4,0,0,1,2.51-1.75c3.91,0,7.83-.05,11.74,0,2.64,0,3,.63,1.86,3.15-1.3,2.87-2.47,5.78-3.71,8.67C124.36,29.23,121,38,117.6,46.84c-3.16,8.24-6.37,16.47-9.34,24.78-2.8,7.81-5.35,15.72-8,23.6-2.46,7.4-5,14.77-7.32,22.22-2.52,8.28-4.7,16.67-7.17,25q-2.54,8.5-4.72,17.11C80.66,161.12,79.24,161,78.42,161.11Z"/><path class="cls-2" d="M129.11,132.39c1.1-4.33,2.11-8.67,3.32-13,2.4-8.57,4.75-17.15,7.4-25.64,4-12.9,8.51-25.66,13.33-38.29,4.46-11.66,9.47-23.11,14.15-34.68.86-2.12,1.48-4.35,2.15-6.54.52-1.68,1.2-2,2.62-.72,4.17,3.89,4.19,3.85,2.21,9.12-3.76,10-7.69,20-11.23,30.11-3.7,10.58-6.67,21.4-9.54,32.23q-3,11.34-6.07,22.66c-1,3.69-.63,4.23,3.08,5a111.54,111.54,0,0,1,24.22,8.58c1.14.53,2.24,1.21,3.42,1.62,2.41.81,3.09,2.17,2.33,4.69-2.05,6.78-3.66,13.69-6.06,20.38-.68,1.9-1.56,1.85-3.2,1.42-10.42-2.73-20.05-7.52-30.08-11.26-3.51-1.31-7-2.68-10.53-4C129.73,133.83,128.93,133.6,129.11,132.39Z"/><path class="cls-3" d="M116.1,132.61h-6.47c-1.11,0-1.52-.25-1.15-1.57,1.85-6.49,3.46-13,5.36-19.53,2-6.94,4.45-13.77,6.39-20.73,2.4-8.67,5.47-17.12,8.16-25.69,2.34-7.45,5.44-14.66,8-22,2.45-6.95,5.25-13.76,8-20.61,1.62-4.08,3.31-8.14,5-12.19a3.66,3.66,0,0,1,3.67-2.39c3.78-.16,7.42.92,11.16.87,1.54,0,1.69,1.06,1.39,2.15a68.87,68.87,0,0,1-2.22,7.2c-5,12.54-10.52,24.85-15.18,37.52-3.67,10-7.42,20-10.57,30.15-2.44,7.88-5.19,15.66-7.32,23.62-1.77,6.64-3.86,13.2-5.11,20-.41,2.2-1.31,3.79-4.1,3.31A30.12,30.12,0,0,0,116.1,132.61Z"/><path class="cls-3" d="M334.65,46.07a53.26,53.26,0,0,1-5.51,0c-2.38-.25-3.57.92-4.18,3-1.89,6.35-4.36,12.49-6.79,18.66a2.06,2.06,0,0,1-2.25,1.59c-3.43,0-6.87-.05-10.3,0-1.92,0-2.12-.66-1.49-2.32,3.73-9.74,7.09-19.62,10.9-29.34,3.09-7.86,5.82-15.87,8.76-23.8.87-2.35,2-4.61,2.86-7,.32-.88.9-.91,1.61-1.1,3.34-.88,6.66-.16,10,.1,1.86.14,1.13,1.74.87,2.6-.95,3.16-2.18,6.23-3.2,9.37-1.2,3.69-2.6,7.31-3.43,11.11-.46,2.16.52,3.15,2.6,3.26,3.66.2,7.33.27,11,.63,2,.2,3-.82,3.55-2.38q3.94-10.47,7.78-21C358.6,6.13,360.13,5,363.71,5c2.39,0,4.79-.08,7.18,0,2.68.14,3.19,1.22,2.21,3.72q-4.49,11.38-8.84,22.82Q358.47,46.77,352.82,62a2,2,0,0,1-2.24,1.56c-3.36-.05-6.71,0-10.07,0-1.3,0-2-.21-1.43-1.77,1.46-4.17,2.78-8.38,4.22-12.56.64-1.88,0-3.08-1.94-3.16C339.13,46,336.89,46.07,334.65,46.07Z"/><path class="cls-3" d="M204.14,89.32c-5.51-.07-10.21-1.21-14.95-2-1.63-.27-1.84-1.55-1.46-3,1-3.51,1.87-7,3-10.52.53-1.69,2.06-.91,3.07-.65,3.37.89,6.77,1.81,10.26,1.54,7.45-.58,12.9-5.33,12.33-12.78-.27-3.57-2.54-6.41-4.49-9.31-2.34-3.46-5.2-6.59-6.92-10.45-3.34-7.5-1.79-14.47,2.49-21.07,4.66-7.2,11.66-10.63,19.77-12.61,3.77-.92,7.58-.48,11.32-1.43,2.16-.55,4.48.84,6.82.71,1.1-.06,1,.94.73,1.59-1.25,3.43-2.52,6.84-3.87,10.22-.49,1.23-1.54,1.62-2.88,1.69-4.76.22-9.59.17-14.13,1.89-6,2.27-7.72,6.74-5.17,12.69,2.16,5,5.65,9.26,8.25,14,6.13,11.19,4.82,22.32-3.64,31.54a22,22,0,0,1-14.54,7.07C207.89,88.72,205.76,89.63,204.14,89.32Z"/><path class="cls-3" d="M405.11,58.69c-2,0-4,0-6,0-.88,0-1.24-.15-.77-1.28,1.37-3.28,2.47-6.67,3.76-10s.56-4.63-3-4.65c-3.11,0-6.23,0-9.35,0A3.45,3.45,0,0,0,386,45.64c-1.71,5.69-3.82,11.25-5.76,16.87-.51,1.46-1.43,1.92-3,2-3.39.15-6.6-1-9.93-1.06-2-.06-1.24-1.58-.94-2.46,1.22-3.68,2.6-7.31,3.93-11,2.47-6.77,4.75-13.63,7.49-20.29,2.9-7.06,4.61-14.51,7.56-21.54.71-1.7,1.64-2.65,3.72-2.47,3,.26,6.07.22,9.1.19,1.53,0,1.86.73,1.48,1.94-1.68,5.32-3.41,10.62-5.13,15.93a13.25,13.25,0,0,0-.46,1.34c-.84,3.92-.21,4.75,3.77,4.68,2.94-.05,5.89-.27,8.84-.39,2.28-.09,2.93-1.79,3.58-3.52,1.24-3.25,1.39-6.79,2.76-10s2.62-6.56,3.91-9.84c.7-1.77,2.43-1.74,3.81-1.89a47.76,47.76,0,0,1,7.18-.1c2.21.09,2.59.95,1.87,3-3.64,10.43-7.28,20.85-10.8,31.31-2.12,6.33-4,12.72-6,19.1-.33,1.07-1.09,1.22-2,1.21-1.92,0-3.83,0-5.75,0Z"/><path class="cls-3" d="M166.5,107.31a70.69,70.69,0,0,0-11.74-.6c-1.55,0-2-.58-1.68-2,1.71-6.6,3.4-13.22,5.19-19.8q2.13-7.92,4.49-15.79c2.44-8.19,5.18-16.26,8.2-24.27,3.93-10.45,8.48-20.69,11.06-31.61.7-3,3.19-4.91,6.57-5.33,3.62-.46,7.13.44,10.66.91,1.53.2.94,1.55.65,2.3C198,16.17,196,21.17,194,26.2c-3.27,8.42-6.28,16.93-9.16,25.49-1.79,5.35-3.67,10.68-5.28,16.09-2.17,7.3-4.53,14.54-6.45,21.92-1.27,4.89-2.76,9.71-3.91,14.64C168.8,106.06,167.86,107.68,166.5,107.31Z"/><path class="cls-2" d="M196.94,93.25a68,68,0,0,0,10.78,0c9.21-.83,17.05-4.34,22.77-11.82,1.11-1.44,1.63-1.78,3.19-.41a312.21,312.21,0,0,0,28.52,22.34c2.24,1.54,2.27,1.7.25,3.38-7.22,6-15.49,8.71-24.85,7.55a22,22,0,0,1-9.18-3.21C219.63,105.4,210,101.25,201,96,199.73,95.28,198.25,94.86,196.94,93.25Z"/><path class="cls-2" d="M441,42.46C440.81,45,439.59,47,438.74,49c-4.27,10.17-8.62,20.3-11.28,31-.12.49-.28,1-.79,1.1-.78.2-.86-.57-1.11-1-2.51-4.28-4.06-9-6.1-13.48-2.13-4.69-1.71-8.8-.16-13.48,4.3-13,8.32-26.12,12.95-39,.2-.56.06-1.49.95-1.41s.8,1,1,1.7q2.63,10.77,5.26,21.52C440,38.19,440.49,40.43,441,42.46Z"/><path class="cls-2" d="M270.17,55.19c5.31,0,5.28,0,3.51,5.14-1.17,3.39-2.07,6.88-3.4,10.21-1,2.49-.22,3.92,1.72,5.48,5.35,4.29,10.73,8.53,16.29,12.54,1.3.93,1.8,1.76,1,3.29a38,38,0,0,0-2.46,7.44c-.43,1.6-1,1.87-2.4.79-7-5.38-14.06-10.66-21.1-16-1.9-1.45-3.76-2.95-5.68-4.37a1.88,1.88,0,0,1-.73-2.48c2.75-6.75,5.43-13.52,7.55-20.5a2,2,0,0,1,2.33-1.58C267.93,55.26,269.05,55.19,270.17,55.19Z"/><path class="cls-2" d="M236.46,65.27c.41-10-3.71-18-9.35-25.49A18.89,18.89,0,0,1,224,33.94c-1-3.29.07-5.62,3.35-6.73a27.93,27.93,0,0,1,11.79-1.29c5,.51,5.43.38,7.26-4.34,1.1-2.81,2.14-5.65,3.17-8.5.53-1.49,1-1.54,2.21-.4,1.84,1.73,2.15,3.24,1.24,5.75-5.56,15.32-11,30.71-15.92,46.25C237.05,64.79,236.89,64.87,236.46,65.27Z"/><path class="cls-2" d="M333.68,50.57c4.24-.12,4.22-.12,2.89,4-1,3.18-1.92,6.43-3.11,9.55a3.51,3.51,0,0,0,1,4.27c4.19,4.13,8.05,8.57,11.89,13,1.07,1.24,1.63,2.3.69,4a71.91,71.91,0,0,0-3,7c-.58,1.36-1.28,1.55-2.19.29C337.13,86.19,331.24,81,325.07,76c-.92-.74-1.56-1.82-2.42-2.64a2.74,2.74,0,0,1-.56-3.29Q325,62.37,328,54.68C329.51,50.69,329.5,50.69,333.68,50.57Z"/><path class="cls-2" d="M397.5,88.82a121.94,121.94,0,0,1-7.56-11.73c-1.69-2.79-3.17-5.73-5.05-8.38A4.56,4.56,0,0,1,384.4,64c1.72-4.79,3.51-9.56,5.08-14.41a2.91,2.91,0,0,1,3.28-2.33c4.54,0,4.54-.08,2.94,4.22-.89,2.38-1.67,4.82-2.73,7.13a4.89,4.89,0,0,0,.44,4.93c2.22,3.85,4.26,7.81,6.58,11.59a4.87,4.87,0,0,1,.56,4.9C399.34,82.83,399,85.89,397.5,88.82Z"/><path class="cls-2" d="M406.23,63.44a38.19,38.19,0,0,0,4.54,0,3.09,3.09,0,0,1,3.74,2.41,87.58,87.58,0,0,0,8.71,19.58c.75,1.24.26,1.43-.87,1.64a32.64,32.64,0,0,1-6.91.31,4.88,4.88,0,0,1-4.28-2.5q-6-9.56-11.47-19.42c-1-1.73-.61-2.25,1.29-2.16,1.74.08,3.5,0,5.25,0Z"/><path class="cls-2" d="M280.48,103.07a19.18,19.18,0,0,1-15.2-3.17c-7.65-5.29-14.91-11.07-22-17.08-.41-.35-.95-.61-1-1.44a91.89,91.89,0,0,1,9.68.29,3.33,3.33,0,0,1,1.71.75q13.08,10,26.15,20A4.82,4.82,0,0,1,280.48,103.07Z"/><path class="cls-2" d="M307.31,74c3.14,0,6.07,0,9,0a2,2,0,0,1,1.77,1,32.53,32.53,0,0,0,6.82,6.64A80,80,0,0,1,337.62,94.8c.35.43.84.81.5,1.44s-.83.32-1.28.36c-4.41.48-8-.5-11.23-4.09-5.11-5.62-10.92-10.6-16.42-15.88A5.11,5.11,0,0,1,307.31,74Z"/><path class="cls-2" d="M312.37,97.12c-5.52,0-9.49-3.35-13.56-6.35-6.15-4.52-12.18-9.18-18.25-13.8-.48-.36-1.36-.57-1.06-1.36.21-.58,1-.44,1.51-.42l9.55.33a2.13,2.13,0,0,1,1.68.76c4.57,5.39,10.45,9.28,15.87,13.71,2,1.65,4,3.39,6,5,.56.46,1.49.85,1.3,1.54-.28,1-1.36.42-2.09.54A5,5,0,0,1,312.37,97.12Z"/><path class="cls-2" d="M368,68.25c4.11,0,7.6,1.08,11.19,1,.66,0,.93.5,1.25,1,4.31,6.6,8,13.61,12.46,20.11.81,1.18.34,1.57-1,1.78-4.25.7-7.24-.71-9.52-4.49-3.69-6.14-8.47-11.51-12.77-17.22Z"/><path class="cls-2" d="M341.83,68.37c3.64,0,6.66,0,9.69,0a2.33,2.33,0,0,1,2.1,1.33,233.55,233.55,0,0,0,14,20c.84,1.11.79,1.84-.83,2.06-3.66.49-7.48-.22-9.76-3.88A147.49,147.49,0,0,0,345.85,73C344.67,71.54,343.39,70.16,341.83,68.37Z"/><path class="cls-2" d="M316.86,91.32c-5.16-4.08-10.19-8-15.15-12-1.73-1.41-3.24-3.07-4.87-4.59a3.22,3.22,0,0,1-.73-3.91c6.89-18.06,13.14-36.35,20.6-54.19.07-.15.16-.28.24-.42.52-.92,0-3,1.53-2.59,1,.3-.3,2-.63,2.89-5.44,15-11,29.93-16.54,44.89-1,2.61-2.41,5-3.12,7.75a4.58,4.58,0,0,0,1.39,5c5.52,5.16,11,10.38,16.47,15.59C316.42,90.05,317,90.3,316.86,91.32Z"/><path class="cls-2" d="M281.29,11.76a46.42,46.42,0,0,1,6.13,6.74c.91,1.2.09,2.35-.24,3.38-.93,2.93-2,5.82-2.8,8.8a2.28,2.28,0,0,1-2.56,2c-1.82-.11-3.66,0-5.49,0-1.41,0-1.92-.54-1.38-1.92.23-.59.33-1.23.53-1.84Z"/><path class="cls-2" d="M342.92,28.43c-.37-.05-.84-.13-1.32-.16-4.15-.33-4.18-.34-2.93-4.23,1.19-3.7,2.44-7.38,3.66-11.07.18-.53.35-1.14,1-1.2s.6.61.82,1c.91,1.57,1.86,3.12,2.75,4.71,1.53,2.72,1.09,7.42-.9,9.91C345.39,28.15,344.48,28.47,342.92,28.43Z"/><path class="cls-2" d="M163.7,112.12a8.14,8.14,0,0,1,5.72.1c12.38,4.75,24.06,11,36.69,16.69a12.8,12.8,0,0,1-10.58-1.57C185.7,120.94,175,116.29,163.7,112.12Z"/><path class="cls-2" d="M121.28,137.64a6.28,6.28,0,0,1,5-.1c8,2.55,15.83,5.82,23.64,9,3.79,1.55,7.58,3.08,11.58,4.7-2.32,1-4.34-.05-6.08-.77-10.79-4.49-21.92-8-32.92-11.86C122.07,138.47,121.54,138.42,121.28,137.64Z"/><path class="cls-2" d="M403,12.46c1.2,2.64,2.3,4.8,3.19,7,1.28,3.26-.38,5.61-3.84,5.62s-3.39,0-2.38-3.25C400.87,18.86,401.86,15.87,403,12.46Z"/></g></g></svg>